<?xml version="1.0" encoding="utf-8"?>
<!-- Generator: Adobe Illustrator 28.1.0, SVG Export Plug-In . SVG Version: 6.00 Build 0)  -->
<svg version="1.1" xmlns="http://www.w3.org/2000/svg" xmlns:xlink="http://www.w3.org/1999/xlink" x="0px" y="0px"
	 viewBox="0 0 576.4 343.2" enable-background="new 0 0 576.4 343.2" xml:space="preserve">
<symbol  id="PIPELINE" viewBox="-32 -12.266 64 24.531">
	<linearGradient id="SVGID_1_" gradientUnits="userSpaceOnUse" x1="0" y1="-12.2655" x2="1.502093e-15" y2="12.2655">
		<stop  offset="0" style="stop-color:#1B89B2"/>
		<stop  offset="1" style="stop-color:#51C8E8"/>
	</linearGradient>
	<path fill="url(#SVGID_1_)" d="M26.096,12.266h-51.448v0h0C-29.08,12.265-32,6.878-32,0s2.92-12.265,6.648-12.265h0v0h51.448
		C29.356-12.266,32-6.363,32,0S29.356,12.266,26.096,12.266z"/>
	<g>
		
			<linearGradient id="SVGID_00000112634999741040421920000018352146313894130824_" gradientUnits="userSpaceOnUse" x1="-31.461" y1="-6.1136" x2="-19.2338" y2="6.1136">
			<stop  offset="0" style="stop-color:#B3B4B4"/>
			<stop  offset="1" style="stop-color:#4F4F4F"/>
		</linearGradient>
		<ellipse fill="url(#SVGID_00000112634999741040421920000018352146313894130824_)" cx="-25.347" cy="0" rx="5.575" ry="10.879"/>
	</g>
</symbol>
<g id="Shapes">
	<rect fill="#FFFFFF" width="576.4" height="343.2"/>
	<g>
		<g opacity="0.23">
			<rect x="9.8" y="124.2" width="554.4" height="206.13"/>
		</g>
		<g>
			<rect x="8.8" y="123.2" fill="#E8E6E0" width="554.4" height="206.13"/>
		</g>
	</g>
	<g>
		<g opacity="0.23">
			<rect x="9.8" y="9.8" width="554.4" height="96.8"/>
		</g>
		<g>
			<rect x="8.8" y="8.8" fill="#E8E6E0" width="554.4" height="96.8"/>
		</g>
	</g>
	<g id="Wrench_tool_x28_s_x29_">
	</g>
	<g id="user2">
	</g>
	<g id="user2_1_">
	</g>
	<g id="user2_4_">
	</g>
	<g id="user2_3_">
	</g>
	<g id="user2_2_">
	</g>
	<g id="Internet_2">
	</g>
	<g id="Enterprise">
	</g>
	<g id="Tunnel__x28_stackable_x29_">
	</g>
	<g id="New_Symbol">
	</g>
	<g id="New_Symbol_1">
	</g>
	<g id="Files">
	</g>
	<g id="BlobBlock">
	</g>
	<g id="E_x5F_Enterprise">
	</g>
	<g id="E_x5F_AD_FS">
	</g>
	<g id="C_x5F_Azure_Active_Directory">
	</g>
	<g>
		<g>
			
				<linearGradient id="SVGID_00000066473588935476204050000013914671477936226968_" gradientUnits="userSpaceOnUse" x1="-918.5174" y1="-214.0622" x2="-910.4826" y2="-236.1378">
				<stop  offset="0" style="stop-color:#155EA1"/>
				<stop  offset="0.16" style="stop-color:#155EA1"/>
				<stop  offset="0.6844" style="stop-color:#238CD9"/>
				<stop  offset="0.9304" style="stop-color:#46A0DE"/>
			</linearGradient>
			<polygon fill="url(#SVGID_00000066473588935476204050000013914671477936226968_)" points="-914.5,-237.6 -902,-225.1 
				-914.5,-212.6 -927,-225.1 			"/>
		</g>
	</g>
	<g>
		<g>
			<g opacity="0.23">
				<polygon points="178.805,97.454 27.4,97.454 27.4,49.054 178.805,49.054 206.065,73.254 				"/>
			</g>
			<polygon fill="#FFFFFF" points="177.805,96.454 26.4,96.454 26.4,48.054 177.805,48.054 205.065,72.254 			"/>
		</g>
		<polygon fill="#1F5188" points="177.805,96.454 26.4,96.454 26.4,48.054 177.805,48.054 205.065,72.254 		"/>
	</g>
	<g>
		<g>
			<g opacity="0.23">
				<polygon points="351.629,97.454 187.629,97.454 214.581,73.254 187.629,49.054 351.629,49.054 378.888,73.254 				"/>
			</g>
			<polygon fill="#FFFFFF" points="350.629,96.454 186.629,96.454 213.581,72.254 186.629,48.054 350.629,48.054 377.888,72.254 			
				"/>
		</g>
		<polygon fill="#1F5188" points="350.629,96.454 186.629,96.454 213.581,72.254 186.629,48.054 350.629,48.054 377.888,72.254 		
			"/>
	</g>
	<g>
		<g>
			<g opacity="0.23">
				<polygon points="523.741,97.454 359.741,97.454 386.693,73.254 359.741,49.054 523.741,49.054 551,73.254 				"/>
			</g>
			<polygon fill="#FFFFFF" points="522.741,96.454 358.741,96.454 385.693,72.254 358.741,48.054 522.741,48.054 550,72.254 			"/>
		</g>
		<polygon fill="#1F5188" points="522.741,96.454 358.741,96.454 385.693,72.254 358.741,48.054 522.741,48.054 550,72.254 		"/>
	</g>
	<g>
		<g opacity="0.23">
			<rect x="27.4" y="133.67" width="154" height="157.73"/>
			<rect x="27.4" y="133.67" width="154" height="157.73"/>
		</g>
		<g>
			<rect x="26.4" y="132.67" fill="#F3F3F5" width="154" height="157.73"/>
			<rect x="26.4" y="132.67" fill="#8EC8E8" width="154" height="157.73"/>
		</g>
	</g>
	<g>
		<g opacity="0.23">
			<rect x="370.779" y="133.67" width="154" height="157.73"/>
			<rect x="370.779" y="133.67" width="154" height="157.73"/>
		</g>
		<g>
			<rect x="369.779" y="132.67" fill="#F3F3F5" width="154" height="157.73"/>
			<rect x="369.779" y="132.67" fill="#8EC8E8" width="154" height="157.73"/>
		</g>
	</g>
	<g>
		<g opacity="0.23">
			<rect x="199" y="133.67" width="154" height="157.73"/>
			<rect x="199" y="133.67" width="154" height="157.73"/>
		</g>
		<g>
			<rect x="198" y="132.67" fill="#F3F3F5" width="154" height="157.73"/>
			<rect x="198" y="132.67" fill="#8EC8E8" width="154" height="157.73"/>
		</g>
	</g>
	<g>
		<g>
			<line fill="none" stroke="#3C3C41" stroke-miterlimit="10" x1="103.4" y1="96.8" x2="103.4" y2="126.618"/>
			<g>
				<polygon fill="#3C3C41" points="99.66,125.524 103.4,132 107.14,125.524 				"/>
			</g>
		</g>
	</g>
	<g>
		<g>
			<line fill="none" stroke="#3C3C41" stroke-miterlimit="10" x1="275" y1="96.8" x2="275" y2="126.618"/>
			<g>
				<polygon fill="#3C3C41" points="271.26,125.524 275,132 278.74,125.524 				"/>
			</g>
		</g>
	</g>
	<g>
		<g>
			<line fill="none" stroke="#3C3C41" stroke-miterlimit="10" x1="446.779" y1="96.8" x2="446.779" y2="126.618"/>
			<g>
				<polygon fill="#3C3C41" points="443.039,125.524 446.779,132 450.519,125.524 				"/>
			</g>
		</g>
	</g>
	<g>
		<path fill="#56407F" d="M66.06,206.726h30.666V176H66.06V206.726L66.06,206.726z"/>
		<path fill="#56407F" d="M110.074,206.726h30.666V176h-30.666V206.726L110.074,206.726z"/>
		<path fill="#56407F" d="M66.06,250.6h30.666v-30.726H66.06V250.6L66.06,250.6z"/>
		<path fill="#56407F" d="M110.074,250.6h30.666v-30.726h-30.666V250.6L110.074,250.6z"/>
		<path fill="#C5B4E3" d="M126.414,236.425h-46.16V190.19h46.16V236.425z M82.445,234.23h41.779v-41.845H82.445V234.23z"/>
		<path fill="#D3C6EA" d="M129.598,235.471c0,2.443-1.986,4.433-4.425,4.433s-4.425-1.99-4.425-4.433
			c0-2.443,1.986-4.433,4.425-4.433S129.598,233.027,129.598,235.471z"/>
		<path fill="#D3C6EA" d="M85.993,235.329c0,2.443-1.986,4.433-4.425,4.433c-2.439,0-4.425-1.99-4.425-4.433
			c0-2.443,1.986-4.433,4.425-4.433C84.007,230.895,85.993,232.885,85.993,235.329z"/>
		<path fill="#C5B4E3" d="M85.993,191.198c0,2.443-1.986,4.433-4.425,4.433c-2.439,0-4.425-1.99-4.425-4.433
			c0-2.444,1.986-4.433,4.425-4.433C84.007,186.764,85.993,188.754,85.993,191.198z"/>
		<path fill="#D3C6EA" d="M129.598,191.198c0,2.443-1.986,4.433-4.425,4.433s-4.425-1.99-4.425-4.433
			c0-2.444,1.986-4.433,4.425-4.433S129.598,188.754,129.598,191.198z"/>
	</g>
	<g>
		<path fill="#2B7575" d="M237.66,206.726h30.666V176H237.66V206.726L237.66,206.726z"/>
		<path fill="#2B7575" d="M281.674,206.726h30.666V176h-30.666V206.726L281.674,206.726z"/>
		<path fill="#2B7575" d="M237.66,250.6h30.666v-30.726H237.66V250.6L237.66,250.6z"/>
		<path fill="#2B7575" d="M281.674,250.6h30.666v-30.726h-30.666V250.6L281.674,250.6z"/>
		<path fill="#DCEDE8" d="M298.014,236.425h-46.16V190.19h46.16V236.425z M254.045,234.23h41.779v-41.845h-41.779V234.23z"/>
		<path fill="#DCEDE8" d="M301.198,235.471c0,2.443-1.986,4.433-4.425,4.433s-4.425-1.99-4.425-4.433
			c0-2.443,1.986-4.433,4.425-4.433S301.198,233.027,301.198,235.471z"/>
		<path fill="#DCEDE8" d="M257.593,235.329c0,2.443-1.986,4.433-4.425,4.433s-4.425-1.99-4.425-4.433
			c0-2.443,1.986-4.433,4.425-4.433S257.593,232.885,257.593,235.329z"/>
		<path fill="#DCEDE8" d="M257.593,191.198c0,2.443-1.986,4.433-4.425,4.433s-4.425-1.99-4.425-4.433
			c0-2.444,1.986-4.433,4.425-4.433S257.593,188.754,257.593,191.198z"/>
		<path fill="#DCEDE8" d="M301.198,191.198c0,2.443-1.986,4.433-4.425,4.433s-4.425-1.99-4.425-4.433
			c0-2.444,1.986-4.433,4.425-4.433S301.198,188.754,301.198,191.198z"/>
	</g>
	<g>
		<path fill="#745A47" d="M409.439,206.726h30.666V176h-30.666V206.726L409.439,206.726z"/>
		<path fill="#745A47" d="M453.453,206.726h30.666V176h-30.666V206.726L453.453,206.726z"/>
		<path fill="#745A47" d="M409.439,250.6h30.666v-30.726h-30.666V250.6L409.439,250.6z"/>
		<path fill="#745A47" d="M453.453,250.6h30.666v-30.726h-30.666V250.6L453.453,250.6z"/>
		<path fill="#E8DED5" d="M469.793,236.425h-46.16V190.19h46.16V236.425z M425.824,234.23h41.779v-41.845h-41.779V234.23z"/>
		<path fill="#E8DED5" d="M472.977,235.471c0,2.443-1.986,4.433-4.425,4.433s-4.425-1.99-4.425-4.433
			c0-2.443,1.986-4.433,4.425-4.433S472.977,233.027,472.977,235.471z"/>
		<path fill="#E8DED5" d="M429.372,235.329c0,2.443-1.986,4.433-4.425,4.433c-2.439,0-4.425-1.99-4.425-4.433
			c0-2.443,1.986-4.433,4.425-4.433C427.386,230.895,429.372,232.885,429.372,235.329z"/>
		<path fill="#E8DED5" d="M429.372,191.198c0,2.443-1.986,4.433-4.425,4.433c-2.439,0-4.425-1.99-4.425-4.433
			c0-2.444,1.986-4.433,4.425-4.433C427.386,186.764,429.372,188.754,429.372,191.198z"/>
		<path fill="#E8DED5" d="M472.977,191.198c0,2.443-1.986,4.433-4.425,4.433s-4.425-1.99-4.425-4.433
			c0-2.444,1.986-4.433,4.425-4.433S472.977,188.754,472.977,191.198z"/>
	</g>
</g>
<g id="Text">
	<g>
		<path fill="#2F2F2F" d="M226.411,33.2V20.596h3.445c0.521,0,0.991,0.07,1.41,0.211s0.776,0.338,1.072,0.594
			c0.296,0.254,0.523,0.561,0.682,0.918s0.237,0.75,0.237,1.178c0,0.363-0.05,0.703-0.149,1.02s-0.243,0.605-0.431,0.865
			c-0.188,0.262-0.417,0.487-0.69,0.678c-0.271,0.19-0.581,0.341-0.927,0.452v0.035c0.422,0.041,0.806,0.144,1.151,0.308
			s0.642,0.378,0.888,0.642s0.437,0.573,0.571,0.927c0.135,0.355,0.202,0.743,0.202,1.165c0,0.533-0.097,1.021-0.29,1.464
			s-0.465,0.823-0.812,1.143c-0.35,0.319-0.764,0.566-1.244,0.742s-1.011,0.264-1.591,0.264H226.411z M227.58,21.669v4.474h1.635
			c0.428,0,0.814-0.056,1.16-0.167s0.642-0.272,0.888-0.483s0.436-0.466,0.566-0.765c0.133-0.299,0.198-0.636,0.198-1.011
			c0-1.365-0.85-2.048-2.549-2.048H227.58z M227.58,27.197v4.939h2.171c0.932,0,1.648-0.218,2.148-0.655
			c0.502-0.436,0.752-1.056,0.752-1.858c0-1.617-1.099-2.426-3.296-2.426H227.58z"/>
		<path fill="#2F2F2F" d="M242.103,33.2v-1.529h-0.035c-0.609,1.16-1.556,1.74-2.839,1.74c-2.139,0-3.208-1.307-3.208-3.92V24.2
			h1.125v5.08c0,1.078,0.191,1.875,0.575,2.391s0.972,0.773,1.763,0.773c0.387,0,0.739-0.074,1.06-0.225
			c0.318-0.148,0.594-0.359,0.826-0.633c0.23-0.271,0.411-0.599,0.54-0.979s0.193-0.803,0.193-1.266V24.2h1.125v9H242.103z"/>
		<path fill="#2F2F2F" d="M245.38,31.583c0.17,0.135,0.354,0.255,0.554,0.36s0.404,0.196,0.615,0.272s0.423,0.134,0.637,0.172
			s0.418,0.057,0.611,0.057c1.336,0,2.004-0.501,2.004-1.503c0-0.229-0.047-0.427-0.141-0.593c-0.094-0.168-0.229-0.319-0.404-0.457
			s-0.387-0.266-0.633-0.383s-0.524-0.24-0.835-0.369c-0.416-0.17-0.773-0.343-1.072-0.519s-0.545-0.367-0.738-0.575
			s-0.337-0.437-0.431-0.686s-0.141-0.532-0.141-0.849c0-0.398,0.086-0.753,0.26-1.063c0.172-0.311,0.405-0.574,0.698-0.791
			s0.631-0.383,1.015-0.496c0.384-0.115,0.787-0.172,1.209-0.172c0.779,0,1.459,0.146,2.039,0.439v1.187
			c-0.674-0.434-1.4-0.65-2.18-0.65c-0.281,0-0.538,0.035-0.77,0.105s-0.429,0.17-0.593,0.299s-0.292,0.283-0.382,0.462
			c-0.092,0.179-0.137,0.376-0.137,0.593c0,0.223,0.035,0.417,0.105,0.585c0.07,0.166,0.18,0.317,0.33,0.452
			c0.148,0.135,0.342,0.264,0.58,0.387c0.236,0.123,0.525,0.255,0.865,0.396c0.434,0.176,0.809,0.351,1.125,0.523
			s0.577,0.359,0.782,0.562c0.205,0.201,0.357,0.428,0.457,0.676c0.1,0.25,0.149,0.538,0.149,0.866c0,0.404-0.084,0.765-0.25,1.081
			c-0.168,0.316-0.399,0.583-0.695,0.8s-0.643,0.381-1.041,0.492s-0.832,0.167-1.301,0.167c-0.908,0-1.673-0.19-2.294-0.571V31.583z
			"/>
		<path fill="#2F2F2F" d="M253.463,21.924c-0.217,0-0.404-0.076-0.562-0.229s-0.237-0.346-0.237-0.58
			c0-0.229,0.079-0.417,0.237-0.567c0.158-0.148,0.346-0.224,0.562-0.224c0.111,0,0.217,0.02,0.316,0.058s0.186,0.092,0.26,0.162
			c0.072,0.07,0.131,0.154,0.176,0.25c0.043,0.098,0.065,0.204,0.065,0.321c0,0.111-0.021,0.217-0.062,0.316s-0.1,0.187-0.176,0.259
			c-0.076,0.074-0.162,0.131-0.26,0.172C253.688,21.903,253.581,21.924,253.463,21.924z M252.91,33.2v-9h1.125v9H252.91z"/>
		<path fill="#2F2F2F" d="M262.789,33.2v-5.186c0-2.033-0.738-3.05-2.215-3.05c-0.393,0-0.756,0.078-1.09,0.233
			s-0.623,0.37-0.865,0.646c-0.244,0.275-0.435,0.603-0.572,0.979c-0.138,0.379-0.206,0.787-0.206,1.227v5.15h-1.125v-9h1.125v1.564
			h0.035c0.668-1.184,1.673-1.775,3.015-1.775c0.984,0,1.734,0.319,2.25,0.958s0.773,1.562,0.773,2.769V33.2H262.789z"/>
		<path fill="#2F2F2F" d="M267.108,28.902c0.006,0.551,0.079,1.046,0.22,1.485s0.343,0.812,0.606,1.116s0.584,0.538,0.963,0.698
			c0.377,0.162,0.804,0.242,1.278,0.242c1.014,0,1.972-0.354,2.874-1.063v1.107c-0.861,0.615-1.904,0.923-3.129,0.923
			c-0.604,0-1.151-0.105-1.644-0.316s-0.911-0.517-1.257-0.918s-0.612-0.896-0.8-1.481s-0.281-1.254-0.281-2.004
			c0-0.674,0.103-1.298,0.308-1.872s0.489-1.07,0.853-1.49c0.363-0.418,0.794-0.746,1.292-0.984
			c0.498-0.236,1.043-0.355,1.635-0.355c0.58,0,1.093,0.102,1.538,0.303c0.445,0.203,0.818,0.491,1.12,0.866s0.532,0.832,0.69,1.371
			s0.237,1.143,0.237,1.811v0.562H267.108z M272.452,27.918c-0.018-0.938-0.24-1.664-0.668-2.18s-1.022-0.773-1.784-0.773
			c-0.381,0-0.733,0.067-1.06,0.202c-0.324,0.135-0.61,0.33-0.856,0.584c-0.246,0.256-0.45,0.566-0.61,0.932
			c-0.162,0.367-0.274,0.778-0.339,1.235H272.452z"/>
		<path fill="#2F2F2F" d="M275.177,31.583c0.17,0.135,0.354,0.255,0.554,0.36s0.404,0.196,0.615,0.272s0.423,0.134,0.637,0.172
			s0.418,0.057,0.611,0.057c1.336,0,2.004-0.501,2.004-1.503c0-0.229-0.047-0.427-0.141-0.593c-0.094-0.168-0.229-0.319-0.404-0.457
			s-0.387-0.266-0.633-0.383s-0.524-0.24-0.835-0.369c-0.416-0.17-0.773-0.343-1.072-0.519s-0.545-0.367-0.738-0.575
			s-0.337-0.437-0.431-0.686s-0.141-0.532-0.141-0.849c0-0.398,0.086-0.753,0.26-1.063c0.172-0.311,0.405-0.574,0.698-0.791
			s0.631-0.383,1.015-0.496c0.384-0.115,0.787-0.172,1.209-0.172c0.779,0,1.459,0.146,2.039,0.439v1.187
			c-0.674-0.434-1.4-0.65-2.18-0.65c-0.281,0-0.538,0.035-0.77,0.105s-0.429,0.17-0.593,0.299s-0.292,0.283-0.382,0.462
			c-0.092,0.179-0.137,0.376-0.137,0.593c0,0.223,0.035,0.417,0.105,0.585c0.07,0.166,0.18,0.317,0.33,0.452
			c0.148,0.135,0.342,0.264,0.58,0.387c0.236,0.123,0.525,0.255,0.865,0.396c0.434,0.176,0.809,0.351,1.125,0.523
			s0.577,0.359,0.782,0.562c0.205,0.201,0.357,0.428,0.457,0.676c0.1,0.25,0.149,0.538,0.149,0.866c0,0.404-0.084,0.765-0.25,1.081
			c-0.168,0.316-0.399,0.583-0.695,0.8s-0.643,0.381-1.041,0.492s-0.832,0.167-1.301,0.167c-0.908,0-1.673-0.19-2.294-0.571V31.583z
			"/>
		<path fill="#2F2F2F" d="M282.379,31.583c0.17,0.135,0.354,0.255,0.554,0.36s0.404,0.196,0.615,0.272s0.423,0.134,0.637,0.172
			s0.418,0.057,0.611,0.057c1.336,0,2.004-0.501,2.004-1.503c0-0.229-0.047-0.427-0.141-0.593c-0.094-0.168-0.229-0.319-0.404-0.457
			s-0.387-0.266-0.633-0.383s-0.524-0.24-0.835-0.369c-0.416-0.17-0.773-0.343-1.072-0.519s-0.545-0.367-0.738-0.575
			s-0.337-0.437-0.431-0.686s-0.141-0.532-0.141-0.849c0-0.398,0.086-0.753,0.26-1.063c0.172-0.311,0.405-0.574,0.698-0.791
			s0.631-0.383,1.015-0.496c0.384-0.115,0.787-0.172,1.209-0.172c0.779,0,1.459,0.146,2.039,0.439v1.187
			c-0.674-0.434-1.4-0.65-2.18-0.65c-0.281,0-0.538,0.035-0.77,0.105s-0.429,0.17-0.593,0.299s-0.292,0.283-0.382,0.462
			c-0.092,0.179-0.137,0.376-0.137,0.593c0,0.223,0.035,0.417,0.105,0.585c0.07,0.166,0.18,0.317,0.33,0.452
			c0.148,0.135,0.342,0.264,0.58,0.387c0.236,0.123,0.525,0.255,0.865,0.396c0.434,0.176,0.809,0.351,1.125,0.523
			s0.577,0.359,0.782,0.562c0.205,0.201,0.357,0.428,0.457,0.676c0.1,0.25,0.149,0.538,0.149,0.866c0,0.404-0.084,0.765-0.25,1.081
			c-0.168,0.316-0.399,0.583-0.695,0.8s-0.643,0.381-1.041,0.492s-0.832,0.167-1.301,0.167c-0.908,0-1.673-0.19-2.294-0.571V31.583z
			"/>
		<path fill="#2F2F2F" d="M296.257,31.75v5.59h-1.125V24.2h1.125v1.723h0.035c0.334-0.627,0.78-1.105,1.341-1.438
			c0.559-0.33,1.19-0.496,1.894-0.496c0.574,0,1.088,0.104,1.542,0.312s0.838,0.502,1.152,0.883
			c0.312,0.381,0.553,0.844,0.721,1.389c0.166,0.545,0.25,1.157,0.25,1.837c0,0.744-0.094,1.423-0.281,2.034
			c-0.188,0.613-0.457,1.139-0.809,1.578s-0.777,0.781-1.279,1.023c-0.5,0.243-1.064,0.365-1.691,0.365
			c-1.266,0-2.212-0.554-2.839-1.661H296.257z M296.257,29.456c0,0.41,0.068,0.795,0.206,1.156c0.138,0.359,0.33,0.676,0.576,0.949
			c0.246,0.271,0.543,0.487,0.893,0.646c0.348,0.158,0.733,0.237,1.155,0.237c0.451,0,0.858-0.095,1.222-0.285
			s0.672-0.462,0.928-0.813c0.254-0.352,0.45-0.776,0.588-1.274s0.207-1.055,0.207-1.67c0-0.527-0.064-1.003-0.193-1.428
			s-0.312-0.787-0.549-1.086c-0.238-0.299-0.525-0.527-0.861-0.686c-0.338-0.158-0.714-0.237-1.13-0.237
			c-0.469,0-0.891,0.087-1.266,0.259c-0.375,0.174-0.694,0.409-0.958,0.708s-0.466,0.649-0.606,1.05
			c-0.141,0.402-0.211,0.828-0.211,1.279V29.456z"/>
		<path fill="#2F2F2F" d="M309.809,25.351c-0.264-0.193-0.604-0.29-1.02-0.29c-0.299,0-0.562,0.057-0.791,0.172
			c-0.229,0.113-0.43,0.268-0.603,0.461s-0.319,0.418-0.439,0.672c-0.12,0.256-0.217,0.521-0.289,0.796
			c-0.074,0.275-0.127,0.554-0.158,0.835c-0.033,0.281-0.049,0.548-0.049,0.8V33.2h-1.116v-9h1.116v1.925h0.035
			c0.105-0.328,0.238-0.622,0.4-0.884c0.16-0.26,0.347-0.479,0.558-0.658s0.44-0.315,0.69-0.409
			c0.248-0.094,0.511-0.141,0.786-0.141c0.182,0,0.344,0.012,0.487,0.035s0.274,0.059,0.392,0.105V25.351z"/>
		<path fill="#2F2F2F" d="M314.956,33.411c-0.668,0-1.268-0.111-1.797-0.334c-0.531-0.223-0.983-0.537-1.358-0.945
			c-0.375-0.406-0.662-0.895-0.861-1.463s-0.299-1.198-0.299-1.89c0-0.75,0.105-1.421,0.316-2.013s0.511-1.094,0.901-1.508
			c0.389-0.412,0.859-0.728,1.41-0.944s1.166-0.325,1.846-0.325c0.65,0,1.236,0.107,1.758,0.32c0.521,0.215,0.964,0.523,1.327,0.928
			s0.642,0.896,0.835,1.477s0.29,1.239,0.29,1.978c0,0.703-0.101,1.344-0.304,1.921c-0.201,0.577-0.49,1.073-0.865,1.489
			s-0.832,0.738-1.371,0.967S315.635,33.411,314.956,33.411z M315.044,24.965c-0.492,0-0.938,0.085-1.336,0.255
			s-0.74,0.418-1.023,0.742c-0.285,0.326-0.503,0.725-0.655,1.195c-0.152,0.473-0.229,1.007-0.229,1.604
			c0,0.562,0.076,1.069,0.229,1.521s0.367,0.838,0.646,1.16s0.617,0.57,1.016,0.742c0.398,0.174,0.844,0.26,1.336,0.26
			c0.504,0,0.949-0.084,1.336-0.25c0.387-0.168,0.715-0.41,0.984-0.73c0.27-0.318,0.473-0.71,0.611-1.173
			c0.137-0.463,0.206-0.99,0.206-1.582c0-1.213-0.27-2.14-0.809-2.782C316.816,25.286,316.046,24.965,315.044,24.965z"/>
		<path fill="#2F2F2F" d="M327.542,32.796c-0.668,0.404-1.477,0.612-2.426,0.624c-0.645,0.006-1.225-0.105-1.74-0.334
			s-0.955-0.546-1.318-0.954c-0.363-0.406-0.642-0.887-0.835-1.441c-0.193-0.553-0.29-1.155-0.29-1.806
			c0-0.674,0.103-1.308,0.308-1.903c0.205-0.594,0.504-1.112,0.896-1.555s0.873-0.793,1.441-1.051s1.219-0.387,1.951-0.387
			c0.744,0,1.424,0.144,2.039,0.431v1.195c-0.656-0.434-1.365-0.65-2.127-0.65c-0.533,0-1.008,0.101-1.424,0.304
			c-0.416,0.201-0.767,0.478-1.05,0.826c-0.285,0.349-0.502,0.756-0.65,1.221c-0.15,0.467-0.225,0.96-0.225,1.481
			c0,0.48,0.062,0.94,0.189,1.38c0.125,0.439,0.318,0.828,0.58,1.164c0.26,0.338,0.59,0.605,0.988,0.805s0.867,0.299,1.406,0.299
			c0.844,0,1.605-0.252,2.285-0.756V32.796z"/>
		<path fill="#2F2F2F" d="M329.98,28.902c0.006,0.551,0.079,1.046,0.22,1.485s0.343,0.812,0.606,1.116s0.584,0.538,0.963,0.698
			c0.377,0.162,0.804,0.242,1.278,0.242c1.014,0,1.972-0.354,2.874-1.063v1.107c-0.861,0.615-1.904,0.923-3.129,0.923
			c-0.604,0-1.151-0.105-1.644-0.316s-0.911-0.517-1.257-0.918s-0.612-0.896-0.8-1.481s-0.281-1.254-0.281-2.004
			c0-0.674,0.103-1.298,0.308-1.872s0.489-1.07,0.853-1.49c0.363-0.418,0.794-0.746,1.292-0.984
			c0.498-0.236,1.043-0.355,1.635-0.355c0.58,0,1.093,0.102,1.538,0.303c0.445,0.203,0.818,0.491,1.12,0.866s0.532,0.832,0.69,1.371
			s0.237,1.143,0.237,1.811v0.562H329.98z M335.324,27.918c-0.018-0.938-0.24-1.664-0.668-2.18s-1.022-0.773-1.784-0.773
			c-0.381,0-0.733,0.067-1.06,0.202c-0.324,0.135-0.61,0.33-0.856,0.584c-0.246,0.256-0.45,0.566-0.61,0.932
			c-0.162,0.367-0.274,0.778-0.339,1.235H335.324z"/>
		<path fill="#2F2F2F" d="M338.049,31.583c0.17,0.135,0.354,0.255,0.554,0.36s0.404,0.196,0.615,0.272s0.423,0.134,0.637,0.172
			s0.418,0.057,0.611,0.057c1.336,0,2.004-0.501,2.004-1.503c0-0.229-0.047-0.427-0.141-0.593c-0.094-0.168-0.229-0.319-0.404-0.457
			s-0.387-0.266-0.633-0.383s-0.524-0.24-0.835-0.369c-0.416-0.17-0.773-0.343-1.072-0.519s-0.545-0.367-0.738-0.575
			s-0.337-0.437-0.431-0.686s-0.141-0.532-0.141-0.849c0-0.398,0.086-0.753,0.26-1.063c0.172-0.311,0.405-0.574,0.698-0.791
			s0.631-0.383,1.015-0.496c0.384-0.115,0.787-0.172,1.209-0.172c0.779,0,1.459,0.146,2.039,0.439v1.187
			c-0.674-0.434-1.4-0.65-2.18-0.65c-0.281,0-0.538,0.035-0.77,0.105s-0.429,0.17-0.593,0.299s-0.292,0.283-0.382,0.462
			c-0.092,0.179-0.137,0.376-0.137,0.593c0,0.223,0.035,0.417,0.105,0.585c0.07,0.166,0.18,0.317,0.33,0.452
			c0.148,0.135,0.342,0.264,0.58,0.387c0.236,0.123,0.525,0.255,0.865,0.396c0.434,0.176,0.809,0.351,1.125,0.523
			s0.577,0.359,0.782,0.562c0.205,0.201,0.357,0.428,0.457,0.676c0.1,0.25,0.149,0.538,0.149,0.866c0,0.404-0.084,0.765-0.25,1.081
			c-0.168,0.316-0.399,0.583-0.695,0.8s-0.643,0.381-1.041,0.492s-0.832,0.167-1.301,0.167c-0.908,0-1.673-0.19-2.294-0.571V31.583z
			"/>
		<path fill="#2F2F2F" d="M345.252,31.583c0.17,0.135,0.354,0.255,0.554,0.36s0.404,0.196,0.615,0.272s0.423,0.134,0.637,0.172
			s0.418,0.057,0.611,0.057c1.336,0,2.004-0.501,2.004-1.503c0-0.229-0.047-0.427-0.141-0.593c-0.094-0.168-0.229-0.319-0.404-0.457
			s-0.387-0.266-0.633-0.383s-0.524-0.24-0.835-0.369c-0.416-0.17-0.773-0.343-1.072-0.519s-0.545-0.367-0.738-0.575
			s-0.337-0.437-0.431-0.686s-0.141-0.532-0.141-0.849c0-0.398,0.086-0.753,0.26-1.063c0.172-0.311,0.405-0.574,0.698-0.791
			s0.631-0.383,1.015-0.496c0.384-0.115,0.787-0.172,1.209-0.172c0.779,0,1.459,0.146,2.039,0.439v1.187
			c-0.674-0.434-1.4-0.65-2.18-0.65c-0.281,0-0.538,0.035-0.77,0.105s-0.429,0.17-0.593,0.299s-0.292,0.283-0.382,0.462
			c-0.092,0.179-0.137,0.376-0.137,0.593c0,0.223,0.035,0.417,0.105,0.585c0.07,0.166,0.18,0.317,0.33,0.452
			c0.148,0.135,0.342,0.264,0.58,0.387c0.236,0.123,0.525,0.255,0.865,0.396c0.434,0.176,0.809,0.351,1.125,0.523
			s0.577,0.359,0.782,0.562c0.205,0.201,0.357,0.428,0.457,0.676c0.1,0.25,0.149,0.538,0.149,0.866c0,0.404-0.084,0.765-0.25,1.081
			c-0.168,0.316-0.399,0.583-0.695,0.8s-0.643,0.381-1.041,0.492s-0.832,0.167-1.301,0.167c-0.908,0-1.673-0.19-2.294-0.571V31.583z
			"/>
	</g>
	<g>
		<path fill="#2F2F2F" d="M263.726,316.13h-1.222l-2.698-9.343c-0.064-0.223-0.116-0.437-0.154-0.642s-0.06-0.404-0.065-0.598
			h-0.035c-0.023,0.34-0.108,0.747-0.255,1.222l-2.795,9.36h-1.222l-3.718-12.604h1.301l2.777,9.888
			c0.064,0.217,0.115,0.424,0.154,0.62c0.037,0.196,0.068,0.385,0.092,0.566h0.035c0.035-0.264,0.132-0.659,0.29-1.187l2.953-9.888
			h0.923l2.769,9.923c0.053,0.199,0.1,0.395,0.141,0.585s0.073,0.376,0.097,0.558h0.035c0.012-0.117,0.035-0.249,0.07-0.396
			s0.076-0.311,0.123-0.492l2.76-10.178h1.274L263.726,316.13z"/>
		<path fill="#2F2F2F" d="M272.157,316.341c-0.668,0-1.268-0.111-1.797-0.334c-0.531-0.223-0.983-0.537-1.358-0.945
			c-0.375-0.406-0.662-0.895-0.861-1.463s-0.299-1.198-0.299-1.89c0-0.75,0.105-1.421,0.316-2.013s0.511-1.094,0.901-1.508
			c0.389-0.412,0.859-0.728,1.41-0.944s1.166-0.325,1.846-0.325c0.65,0,1.236,0.107,1.758,0.32c0.521,0.215,0.964,0.523,1.327,0.928
			s0.642,0.896,0.835,1.477s0.29,1.239,0.29,1.978c0,0.703-0.101,1.344-0.304,1.921c-0.201,0.577-0.49,1.073-0.865,1.489
			s-0.832,0.738-1.371,0.967S272.837,316.341,272.157,316.341z M272.245,307.894c-0.492,0-0.938,0.085-1.336,0.255
			s-0.74,0.418-1.023,0.742c-0.285,0.326-0.503,0.725-0.655,1.195c-0.152,0.473-0.229,1.007-0.229,1.604
			c0,0.562,0.076,1.069,0.229,1.521s0.367,0.838,0.646,1.16s0.617,0.57,1.016,0.742c0.398,0.174,0.844,0.26,1.336,0.26
			c0.504,0,0.949-0.084,1.336-0.25c0.387-0.168,0.715-0.41,0.984-0.73c0.27-0.318,0.473-0.71,0.611-1.173
			c0.137-0.463,0.206-0.99,0.206-1.582c0-1.213-0.27-2.14-0.809-2.782C274.017,308.216,273.247,307.894,272.245,307.894z"/>
		<path fill="#2F2F2F" d="M283.138,308.281c-0.264-0.193-0.604-0.29-1.02-0.29c-0.299,0-0.562,0.057-0.791,0.172
			c-0.229,0.113-0.43,0.268-0.603,0.461s-0.319,0.418-0.439,0.672c-0.12,0.256-0.217,0.521-0.289,0.796
			c-0.074,0.275-0.127,0.554-0.158,0.835c-0.033,0.281-0.049,0.548-0.049,0.8v4.403h-1.116v-9h1.116v1.925h0.035
			c0.105-0.328,0.238-0.622,0.4-0.884c0.16-0.26,0.347-0.479,0.558-0.658s0.44-0.315,0.69-0.409
			c0.248-0.094,0.511-0.141,0.786-0.141c0.182,0,0.344,0.012,0.487,0.035s0.274,0.059,0.392,0.105V308.281z"/>
		<path fill="#2F2F2F" d="M290.041,316.13l-4.14-4.386h-0.035v4.386h-1.125v-13.324h1.125v8.517h0.035l3.929-4.192h1.468
			l-4.219,4.351l4.553,4.649H290.041z"/>
		<path fill="#2F2F2F" d="M293.205,316.13v-13.324h1.125v13.324H293.205z"/>
		<path fill="#2F2F2F" d="M300.816,316.341c-0.668,0-1.268-0.111-1.797-0.334c-0.531-0.223-0.983-0.537-1.358-0.945
			c-0.375-0.406-0.662-0.895-0.861-1.463s-0.299-1.198-0.299-1.89c0-0.75,0.105-1.421,0.316-2.013s0.511-1.094,0.901-1.508
			c0.389-0.412,0.859-0.728,1.41-0.944s1.166-0.325,1.846-0.325c0.65,0,1.236,0.107,1.758,0.32c0.521,0.215,0.964,0.523,1.327,0.928
			s0.642,0.896,0.835,1.477s0.29,1.239,0.29,1.978c0,0.703-0.101,1.344-0.304,1.921c-0.201,0.577-0.49,1.073-0.865,1.489
			s-0.832,0.738-1.371,0.967S301.496,316.341,300.816,316.341z M300.904,307.894c-0.492,0-0.938,0.085-1.336,0.255
			s-0.74,0.418-1.023,0.742c-0.285,0.326-0.503,0.725-0.655,1.195c-0.152,0.473-0.229,1.007-0.229,1.604
			c0,0.562,0.076,1.069,0.229,1.521s0.367,0.838,0.646,1.16s0.617,0.57,1.016,0.742c0.398,0.174,0.844,0.26,1.336,0.26
			c0.504,0,0.949-0.084,1.336-0.25c0.387-0.168,0.715-0.41,0.984-0.73c0.27-0.318,0.473-0.71,0.611-1.173
			c0.137-0.463,0.206-0.99,0.206-1.582c0-1.213-0.27-2.14-0.809-2.782C302.676,308.216,301.906,307.894,300.904,307.894z"/>
		<path fill="#2F2F2F" d="M312.501,316.13v-1.6h-0.035c-0.293,0.574-0.693,1.02-1.2,1.336s-1.079,0.475-1.718,0.475
			c-0.434,0-0.825-0.062-1.173-0.185c-0.35-0.123-0.646-0.297-0.889-0.522s-0.43-0.497-0.562-0.813
			c-0.131-0.316-0.197-0.665-0.197-1.046c0-0.814,0.252-1.463,0.756-1.947c0.504-0.482,1.266-0.798,2.285-0.944l2.733-0.396
			c0-1.729-0.671-2.593-2.013-2.593c-1.049,0-2.021,0.384-2.918,1.151v-1.23c0.188-0.135,0.4-0.256,0.637-0.365
			c0.238-0.107,0.488-0.201,0.752-0.281c0.264-0.078,0.534-0.141,0.812-0.184c0.278-0.045,0.55-0.066,0.813-0.066
			c1.002,0,1.759,0.281,2.272,0.844c0.512,0.562,0.769,1.4,0.769,2.514v5.854H312.501z M310.18,311.762
			c-0.404,0.059-0.75,0.132-1.037,0.22s-0.524,0.207-0.712,0.355c-0.188,0.15-0.325,0.334-0.413,0.555
			c-0.088,0.219-0.132,0.49-0.132,0.812c0,0.24,0.042,0.463,0.127,0.668s0.208,0.383,0.369,0.531c0.161,0.15,0.357,0.266,0.59,0.348
			c0.23,0.082,0.493,0.123,0.786,0.123c0.398,0,0.765-0.076,1.099-0.229s0.622-0.363,0.865-0.633s0.434-0.592,0.572-0.967
			c0.137-0.375,0.206-0.782,0.206-1.222v-0.888L310.18,311.762z"/>
		<path fill="#2F2F2F" d="M322.597,316.13v-1.582h-0.035c-0.299,0.568-0.726,1.01-1.278,1.322c-0.555,0.313-1.183,0.471-1.886,0.471
			c-0.562,0-1.074-0.104-1.534-0.312c-0.46-0.207-0.854-0.508-1.182-0.9s-0.582-0.867-0.76-1.424
			c-0.18-0.557-0.269-1.187-0.269-1.89c0-0.727,0.098-1.39,0.294-1.991c0.196-0.6,0.475-1.115,0.836-1.547
			c0.359-0.43,0.793-0.764,1.301-1.002c0.506-0.236,1.07-0.355,1.691-0.355c1.295,0,2.224,0.519,2.786,1.556h0.035v-5.669h1.125
			v13.324H322.597z M322.597,310.698c0-0.393-0.067-0.759-0.202-1.099s-0.322-0.636-0.562-0.888s-0.529-0.451-0.865-0.598
			c-0.338-0.146-0.708-0.22-1.112-0.22c-0.445,0-0.855,0.088-1.23,0.264s-0.696,0.43-0.962,0.761
			c-0.268,0.331-0.475,0.733-0.625,1.208c-0.148,0.475-0.224,1.014-0.224,1.617c0,0.568,0.067,1.078,0.202,1.529
			s0.326,0.832,0.576,1.143c0.248,0.311,0.546,0.548,0.892,0.712s0.729,0.246,1.151,0.246c0.457,0,0.868-0.082,1.234-0.246
			s0.678-0.39,0.932-0.677c0.256-0.287,0.451-0.624,0.59-1.011c0.137-0.387,0.206-0.8,0.206-1.239V310.698z"/>
	</g>
	<g>
		<rect x="38.188" y="149.6" fill="none" width="130.424" height="17.6"/>
		<path fill="#2F2F2F" d="M78.564,155.718c0,2.944-1.371,4.416-4.115,4.416c-2.661,0-3.992-1.438-3.992-4.313v-5.66h2.215v5.688
			c0,1.586,0.62,2.379,1.859,2.379c1.217,0,1.825-0.766,1.825-2.297v-5.77h2.208V155.718z"/>
		<path fill="#2F2F2F" d="M79.995,159.778v-1.75c0.355,0.214,0.71,0.374,1.063,0.479c0.353,0.104,0.687,0.157,1.001,0.157
			c0.383,0,0.685-0.053,0.906-0.157c0.221-0.104,0.331-0.265,0.331-0.479c0-0.137-0.05-0.251-0.15-0.342
			c-0.1-0.091-0.229-0.171-0.386-0.239s-0.329-0.13-0.517-0.185c-0.187-0.055-0.366-0.116-0.54-0.185
			c-0.277-0.104-0.522-0.218-0.734-0.338c-0.212-0.121-0.39-0.262-0.533-0.421s-0.253-0.344-0.328-0.554s-0.113-0.458-0.113-0.745
			c0-0.392,0.086-0.729,0.257-1.012s0.398-0.514,0.684-0.694c0.284-0.18,0.61-0.312,0.978-0.396
			c0.366-0.084,0.748-0.126,1.145-0.126c0.311,0,0.625,0.024,0.943,0.071c0.319,0.049,0.634,0.118,0.943,0.209v1.668
			c-0.273-0.159-0.566-0.279-0.878-0.359c-0.312-0.079-0.619-0.119-0.92-0.119c-0.141,0-0.274,0.013-0.399,0.037
			c-0.126,0.025-0.236,0.062-0.332,0.109c-0.096,0.049-0.171,0.109-0.226,0.186c-0.055,0.074-0.082,0.16-0.082,0.256
			c0,0.128,0.041,0.237,0.123,0.328s0.189,0.17,0.321,0.236c0.133,0.065,0.279,0.125,0.441,0.178
			c0.161,0.052,0.322,0.105,0.481,0.16c0.287,0.101,0.547,0.21,0.779,0.328s0.432,0.258,0.599,0.417
			c0.166,0.159,0.294,0.347,0.383,0.561s0.133,0.47,0.133,0.766c0,0.415-0.09,0.769-0.27,1.063c-0.181,0.293-0.42,0.533-0.718,0.717
			c-0.299,0.186-0.643,0.319-1.032,0.404c-0.39,0.084-0.794,0.126-1.214,0.126C81.365,160.134,80.651,160.015,79.995,159.778z"/>
		<path fill="#2F2F2F" d="M92.945,157.078h-4.566c0.072,1.017,0.713,1.524,1.921,1.524c0.77,0,1.446-0.183,2.03-0.547v1.559
			c-0.647,0.347-1.488,0.52-2.522,0.52c-1.131,0-2.008-0.313-2.632-0.94c-0.625-0.626-0.937-1.5-0.937-2.621
			c0-1.162,0.337-2.083,1.012-2.762c0.674-0.679,1.504-1.019,2.488-1.019c1.021,0,1.811,0.303,2.368,0.909
			c0.559,0.606,0.838,1.429,0.838,2.468V157.078z M90.942,155.752c0-1.003-0.406-1.504-1.217-1.504
			c-0.347,0-0.646,0.144-0.899,0.431s-0.406,0.645-0.461,1.073H90.942z"/>
		<path fill="#2F2F2F" d="M103.397,159.71c-0.488,0.282-1.192,0.424-2.112,0.424c-1.076,0-1.946-0.326-2.611-0.978
			c-0.666-0.651-0.998-1.492-0.998-2.522c0-1.189,0.356-2.127,1.069-2.813c0.714-0.686,1.667-1.028,2.861-1.028
			c0.824,0,1.422,0.109,1.791,0.328v1.832c-0.451-0.337-0.955-0.506-1.511-0.506c-0.62,0-1.111,0.181-1.474,0.544
			c-0.362,0.361-0.543,0.862-0.543,1.5c0,0.62,0.173,1.106,0.52,1.459c0.346,0.354,0.822,0.53,1.429,0.53
			c0.537,0,1.063-0.169,1.579-0.506V159.71z"/>
		<path fill="#2F2F2F" d="M110.733,159.963h-2.044v-1.005h-0.027c-0.47,0.784-1.165,1.176-2.085,1.176
			c-0.68,0-1.214-0.192-1.604-0.577c-0.39-0.386-0.584-0.899-0.584-1.542c0-1.358,0.804-2.142,2.413-2.352l1.9-0.253
			c0-0.766-0.415-1.148-1.244-1.148c-0.834,0-1.627,0.248-2.379,0.745v-1.627c0.301-0.155,0.712-0.292,1.233-0.41
			c0.522-0.118,0.997-0.178,1.426-0.178c1.996,0,2.994,0.996,2.994,2.987V159.963z M108.703,157.119v-0.472l-1.271,0.164
			c-0.702,0.091-1.053,0.408-1.053,0.95c0,0.246,0.085,0.447,0.256,0.605c0.171,0.156,0.402,0.235,0.694,0.235
			c0.405,0,0.735-0.14,0.991-0.421C108.575,157.902,108.703,157.548,108.703,157.119z"/>
		<path fill="#2F2F2F" d="M112.107,159.778v-1.75c0.355,0.214,0.71,0.374,1.062,0.479c0.354,0.104,0.688,0.157,1.002,0.157
			c0.383,0,0.685-0.053,0.905-0.157c0.222-0.104,0.332-0.265,0.332-0.479c0-0.137-0.051-0.251-0.15-0.342
			c-0.101-0.091-0.229-0.171-0.387-0.239s-0.329-0.13-0.516-0.185c-0.188-0.055-0.367-0.116-0.54-0.185
			c-0.278-0.104-0.523-0.218-0.735-0.338c-0.212-0.121-0.39-0.262-0.533-0.421s-0.253-0.344-0.328-0.554s-0.112-0.458-0.112-0.745
			c0-0.392,0.085-0.729,0.256-1.012s0.399-0.514,0.684-0.694c0.285-0.18,0.611-0.312,0.978-0.396
			c0.367-0.084,0.749-0.126,1.146-0.126c0.31,0,0.624,0.024,0.943,0.071c0.318,0.049,0.633,0.118,0.943,0.209v1.668
			c-0.273-0.159-0.566-0.279-0.879-0.359c-0.312-0.079-0.618-0.119-0.919-0.119c-0.142,0-0.274,0.013-0.4,0.037
			c-0.125,0.025-0.235,0.062-0.331,0.109c-0.096,0.049-0.171,0.109-0.226,0.186c-0.055,0.074-0.082,0.16-0.082,0.256
			c0,0.128,0.041,0.237,0.123,0.328s0.188,0.17,0.321,0.236c0.132,0.065,0.279,0.125,0.44,0.178c0.162,0.052,0.322,0.105,0.482,0.16
			c0.287,0.101,0.547,0.21,0.779,0.328s0.432,0.258,0.598,0.417c0.167,0.159,0.294,0.347,0.383,0.561s0.134,0.47,0.134,0.766
			c0,0.415-0.09,0.769-0.271,1.063c-0.18,0.293-0.419,0.533-0.718,0.717c-0.298,0.186-0.643,0.319-1.032,0.404
			c-0.39,0.084-0.794,0.126-1.213,0.126C113.476,160.134,112.763,160.015,112.107,159.778z"/>
		<path fill="#2F2F2F" d="M125.056,157.078h-4.566c0.073,1.017,0.714,1.524,1.921,1.524c0.771,0,1.447-0.183,2.03-0.547v1.559
			c-0.646,0.347-1.487,0.52-2.522,0.52c-1.13,0-2.007-0.313-2.632-0.94c-0.624-0.626-0.937-1.5-0.937-2.621
			c0-1.162,0.338-2.083,1.012-2.762c0.675-0.679,1.504-1.019,2.488-1.019c1.021,0,1.811,0.303,2.369,0.909
			c0.558,0.606,0.837,1.429,0.837,2.468V157.078z M123.053,155.752c0-1.003-0.405-1.504-1.217-1.504
			c-0.346,0-0.646,0.144-0.898,0.431s-0.407,0.645-0.462,1.073H123.053z"/>
		<path fill="#2F2F2F" d="M134.982,149.941v10.021h-2.153v-7.588c-0.118,0.104-0.259,0.204-0.42,0.297
			c-0.162,0.094-0.334,0.178-0.517,0.254c-0.182,0.074-0.371,0.139-0.567,0.191c-0.195,0.052-0.39,0.09-0.581,0.112v-1.818
			c0.561-0.164,1.09-0.374,1.586-0.629c0.497-0.255,0.946-0.535,1.347-0.841H134.982z"/>
	</g>
	<g>
		<rect x="38.188" y="265.628" fill="none" width="130.424" height="17.6"/>
		<path fill="#2F2F2F" d="M88.932,267.985h-3.459v2.406h3.179v1.791h-3.179v3.808h-2.208v-9.803h5.667V267.985z"/>
		<path fill="#2F2F2F" d="M92.282,275.99h-2.16v-10.363h2.16V275.99z"/>
		<path fill="#2F2F2F" d="M97.425,276.161c-1.167,0-2.084-0.327-2.752-0.981c-0.667-0.653-1.001-1.541-1.001-2.662
			c0-1.157,0.346-2.063,1.039-2.717c0.692-0.654,1.629-0.981,2.81-0.981c1.162,0,2.073,0.327,2.734,0.981
			c0.66,0.653,0.991,1.519,0.991,2.594c0,1.162-0.341,2.08-1.022,2.755C99.544,275.824,98.61,276.161,97.425,276.161z
			 M97.48,270.473c-0.511,0-0.907,0.176-1.189,0.526c-0.283,0.351-0.424,0.848-0.424,1.49c0,1.345,0.542,2.017,1.627,2.017
			c1.034,0,1.552-0.69,1.552-2.071C99.046,271.128,98.523,270.473,97.48,270.473z"/>
		<path fill="#2F2F2F" d="M112.625,268.99l-2.017,7h-2.27l-1.032-4.102c-0.068-0.273-0.107-0.572-0.116-0.896h-0.041
			c-0.032,0.355-0.078,0.645-0.137,0.868l-1.107,4.129h-2.242l-1.976-7h2.201l0.964,4.566c0.045,0.214,0.079,0.474,0.103,0.779
			h0.041c0.022-0.319,0.063-0.588,0.123-0.807l1.203-4.539h2.058l1.08,4.566c0.027,0.114,0.059,0.378,0.096,0.793h0.048
			c0.022-0.265,0.059-0.528,0.109-0.793l0.909-4.566H112.625z"/>
		<path fill="#2F2F2F" d="M122.291,265.969v10.021h-2.153v-7.588c-0.119,0.104-0.259,0.204-0.421,0.297
			c-0.161,0.094-0.334,0.178-0.516,0.254c-0.183,0.074-0.372,0.139-0.567,0.191c-0.196,0.052-0.39,0.09-0.581,0.112v-1.818
			c0.561-0.164,1.089-0.374,1.586-0.629c0.496-0.255,0.945-0.535,1.347-0.841H122.291z"/>
	</g>
	<g>
		<rect x="209.788" y="149.6" fill="none" width="130.424" height="17.6"/>
		<path fill="#2F2F2F" d="M250.165,155.718c0,2.944-1.371,4.416-4.115,4.416c-2.661,0-3.992-1.438-3.992-4.313v-5.66h2.215v5.688
			c0,1.586,0.62,2.379,1.859,2.379c1.217,0,1.825-0.766,1.825-2.297v-5.77h2.208V155.718z"/>
		<path fill="#2F2F2F" d="M251.595,159.778v-1.75c0.355,0.214,0.71,0.374,1.063,0.479c0.353,0.104,0.687,0.157,1.001,0.157
			c0.383,0,0.685-0.053,0.906-0.157c0.221-0.104,0.331-0.265,0.331-0.479c0-0.137-0.05-0.251-0.15-0.342
			c-0.1-0.091-0.229-0.171-0.386-0.239s-0.329-0.13-0.517-0.185c-0.187-0.055-0.366-0.116-0.54-0.185
			c-0.277-0.104-0.522-0.218-0.734-0.338c-0.212-0.121-0.39-0.262-0.533-0.421s-0.253-0.344-0.328-0.554s-0.113-0.458-0.113-0.745
			c0-0.392,0.086-0.729,0.257-1.012s0.398-0.514,0.684-0.694c0.284-0.18,0.61-0.312,0.978-0.396
			c0.366-0.084,0.748-0.126,1.145-0.126c0.311,0,0.625,0.024,0.943,0.071c0.319,0.049,0.634,0.118,0.943,0.209v1.668
			c-0.273-0.159-0.566-0.279-0.878-0.359c-0.312-0.079-0.619-0.119-0.92-0.119c-0.141,0-0.274,0.013-0.399,0.037
			c-0.126,0.025-0.236,0.062-0.332,0.109c-0.096,0.049-0.171,0.109-0.226,0.186c-0.055,0.074-0.082,0.16-0.082,0.256
			c0,0.128,0.041,0.237,0.123,0.328s0.189,0.17,0.321,0.236c0.133,0.065,0.279,0.125,0.441,0.178
			c0.161,0.052,0.322,0.105,0.481,0.16c0.287,0.101,0.547,0.21,0.779,0.328s0.432,0.258,0.599,0.417
			c0.166,0.159,0.294,0.347,0.383,0.561s0.133,0.47,0.133,0.766c0,0.415-0.09,0.769-0.27,1.063c-0.181,0.293-0.42,0.533-0.718,0.717
			c-0.299,0.186-0.643,0.319-1.032,0.404c-0.39,0.084-0.794,0.126-1.214,0.126C252.965,160.134,252.252,160.015,251.595,159.778z"/>
		<path fill="#2F2F2F" d="M264.546,157.078h-4.566c0.072,1.017,0.713,1.524,1.921,1.524c0.77,0,1.446-0.183,2.03-0.547v1.559
			c-0.647,0.347-1.488,0.52-2.522,0.52c-1.131,0-2.008-0.313-2.632-0.94c-0.625-0.626-0.937-1.5-0.937-2.621
			c0-1.162,0.337-2.083,1.012-2.762c0.674-0.679,1.504-1.019,2.488-1.019c1.021,0,1.811,0.303,2.368,0.909
			c0.559,0.606,0.838,1.429,0.838,2.468V157.078z M262.543,155.752c0-1.003-0.406-1.504-1.217-1.504
			c-0.347,0-0.646,0.144-0.899,0.431s-0.406,0.645-0.461,1.073H262.543z"/>
		<path fill="#2F2F2F" d="M274.998,159.71c-0.488,0.282-1.192,0.424-2.112,0.424c-1.076,0-1.946-0.326-2.611-0.978
			c-0.666-0.651-0.998-1.492-0.998-2.522c0-1.189,0.356-2.127,1.069-2.813c0.714-0.686,1.667-1.028,2.861-1.028
			c0.824,0,1.422,0.109,1.791,0.328v1.832c-0.451-0.337-0.955-0.506-1.511-0.506c-0.62,0-1.111,0.181-1.474,0.544
			c-0.362,0.361-0.543,0.862-0.543,1.5c0,0.62,0.173,1.106,0.52,1.459c0.346,0.354,0.822,0.53,1.429,0.53
			c0.537,0,1.063-0.169,1.579-0.506V159.71z"/>
		<path fill="#2F2F2F" d="M282.334,159.963h-2.044v-1.005h-0.027c-0.47,0.784-1.165,1.176-2.085,1.176
			c-0.68,0-1.214-0.192-1.604-0.577c-0.39-0.386-0.584-0.899-0.584-1.542c0-1.358,0.804-2.142,2.413-2.352l1.9-0.253
			c0-0.766-0.415-1.148-1.244-1.148c-0.834,0-1.627,0.248-2.379,0.745v-1.627c0.301-0.155,0.712-0.292,1.233-0.41
			c0.522-0.118,0.997-0.178,1.426-0.178c1.996,0,2.994,0.996,2.994,2.987V159.963z M280.303,157.119v-0.472l-1.271,0.164
			c-0.702,0.091-1.053,0.408-1.053,0.95c0,0.246,0.085,0.447,0.256,0.605c0.171,0.156,0.402,0.235,0.694,0.235
			c0.405,0,0.735-0.14,0.991-0.421C280.175,157.902,280.303,157.548,280.303,157.119z"/>
		<path fill="#2F2F2F" d="M283.708,159.778v-1.75c0.355,0.214,0.71,0.374,1.062,0.479c0.354,0.104,0.688,0.157,1.002,0.157
			c0.383,0,0.685-0.053,0.905-0.157c0.222-0.104,0.332-0.265,0.332-0.479c0-0.137-0.051-0.251-0.15-0.342
			c-0.101-0.091-0.229-0.171-0.387-0.239s-0.329-0.13-0.516-0.185c-0.188-0.055-0.367-0.116-0.54-0.185
			c-0.278-0.104-0.523-0.218-0.735-0.338c-0.212-0.121-0.39-0.262-0.533-0.421s-0.253-0.344-0.328-0.554s-0.112-0.458-0.112-0.745
			c0-0.392,0.085-0.729,0.256-1.012s0.399-0.514,0.684-0.694c0.285-0.18,0.611-0.312,0.978-0.396
			c0.367-0.084,0.749-0.126,1.146-0.126c0.31,0,0.624,0.024,0.943,0.071c0.318,0.049,0.633,0.118,0.943,0.209v1.668
			c-0.273-0.159-0.566-0.279-0.879-0.359c-0.312-0.079-0.618-0.119-0.919-0.119c-0.142,0-0.274,0.013-0.4,0.037
			c-0.125,0.025-0.235,0.062-0.331,0.109c-0.096,0.049-0.171,0.109-0.226,0.186c-0.055,0.074-0.082,0.16-0.082,0.256
			c0,0.128,0.041,0.237,0.123,0.328s0.188,0.17,0.321,0.236c0.132,0.065,0.279,0.125,0.44,0.178c0.162,0.052,0.322,0.105,0.482,0.16
			c0.287,0.101,0.547,0.21,0.779,0.328s0.432,0.258,0.598,0.417c0.167,0.159,0.294,0.347,0.383,0.561s0.134,0.47,0.134,0.766
			c0,0.415-0.09,0.769-0.271,1.063c-0.18,0.293-0.419,0.533-0.718,0.717c-0.298,0.186-0.643,0.319-1.032,0.404
			c-0.39,0.084-0.794,0.126-1.213,0.126C285.077,160.134,284.364,160.015,283.708,159.778z"/>
		<path fill="#2F2F2F" d="M296.657,157.078h-4.566c0.073,1.017,0.714,1.524,1.921,1.524c0.771,0,1.447-0.183,2.03-0.547v1.559
			c-0.646,0.347-1.487,0.52-2.522,0.52c-1.13,0-2.007-0.313-2.632-0.94c-0.624-0.626-0.937-1.5-0.937-2.621
			c0-1.162,0.338-2.083,1.012-2.762c0.675-0.679,1.504-1.019,2.488-1.019c1.021,0,1.811,0.303,2.369,0.909
			c0.558,0.606,0.837,1.429,0.837,2.468V157.078z M294.654,155.752c0-1.003-0.405-1.504-1.217-1.504
			c-0.346,0-0.646,0.144-0.898,0.431s-0.407,0.645-0.462,1.073H294.654z"/>
		<path fill="#2F2F2F" d="M303.828,158.172h4.156v1.791h-6.521v-0.738c0-0.501,0.085-0.951,0.253-1.35
			c0.169-0.399,0.381-0.757,0.636-1.074c0.256-0.316,0.534-0.597,0.838-0.84c0.303-0.244,0.591-0.464,0.864-0.66
			c0.287-0.205,0.539-0.401,0.756-0.588c0.216-0.187,0.398-0.373,0.547-0.557c0.147-0.186,0.259-0.372,0.331-0.561
			c0.073-0.189,0.109-0.392,0.109-0.605c0-0.419-0.118-0.736-0.355-0.95c-0.236-0.214-0.599-0.321-1.087-0.321
			c-0.843,0-1.649,0.335-2.42,1.005v-1.9c0.853-0.552,1.814-0.827,2.885-0.827c0.497,0,0.942,0.064,1.337,0.195
			c0.394,0.129,0.728,0.315,1.001,0.557s0.482,0.534,0.626,0.879c0.144,0.344,0.215,0.728,0.215,1.151
			c0,0.451-0.069,0.853-0.208,1.203c-0.14,0.351-0.324,0.67-0.554,0.957c-0.23,0.287-0.496,0.55-0.797,0.79
			c-0.301,0.238-0.612,0.47-0.937,0.693c-0.219,0.155-0.43,0.309-0.632,0.461c-0.203,0.153-0.382,0.304-0.537,0.451
			c-0.154,0.148-0.277,0.293-0.369,0.435C303.874,157.91,303.828,158.044,303.828,158.172z"/>
	</g>
	<g>
		<rect x="209.788" y="265.628" fill="none" width="130.424" height="17.6"/>
		<path fill="#2F2F2F" d="M260.533,267.985h-3.459v2.406h3.179v1.791h-3.179v3.808h-2.208v-9.803h5.667V267.985z"/>
		<path fill="#2F2F2F" d="M263.882,275.99h-2.16v-10.363h2.16V275.99z"/>
		<path fill="#2F2F2F" d="M269.026,276.161c-1.167,0-2.084-0.327-2.752-0.981c-0.667-0.653-1.001-1.541-1.001-2.662
			c0-1.157,0.346-2.063,1.039-2.717c0.692-0.654,1.629-0.981,2.81-0.981c1.162,0,2.073,0.327,2.734,0.981
			c0.66,0.653,0.991,1.519,0.991,2.594c0,1.162-0.341,2.08-1.022,2.755C271.144,275.824,270.211,276.161,269.026,276.161z
			 M269.081,270.473c-0.511,0-0.907,0.176-1.189,0.526c-0.283,0.351-0.424,0.848-0.424,1.49c0,1.345,0.542,2.017,1.627,2.017
			c1.034,0,1.552-0.69,1.552-2.071C270.646,271.128,270.124,270.473,269.081,270.473z"/>
		<path fill="#2F2F2F" d="M284.225,268.99l-2.017,7h-2.27l-1.032-4.102c-0.068-0.273-0.107-0.572-0.116-0.896h-0.041
			c-0.032,0.355-0.078,0.645-0.137,0.868l-1.107,4.129h-2.242l-1.976-7h2.201l0.964,4.566c0.045,0.214,0.079,0.474,0.103,0.779
			h0.041c0.022-0.319,0.063-0.588,0.123-0.807l1.203-4.539h2.058l1.08,4.566c0.027,0.114,0.059,0.378,0.096,0.793h0.048
			c0.022-0.265,0.059-0.528,0.109-0.793l0.909-4.566H284.225z"/>
		<path fill="#2F2F2F" d="M291.136,274.199h4.156v1.791h-6.521v-0.738c0-0.501,0.084-0.951,0.253-1.35
			c0.168-0.399,0.38-0.757,0.636-1.074c0.255-0.316,0.534-0.597,0.837-0.84c0.304-0.244,0.592-0.464,0.865-0.66
			c0.287-0.205,0.539-0.401,0.755-0.588c0.217-0.187,0.399-0.373,0.547-0.557c0.148-0.186,0.259-0.372,0.332-0.561
			c0.072-0.189,0.109-0.392,0.109-0.605c0-0.419-0.119-0.736-0.355-0.95c-0.237-0.214-0.6-0.321-1.087-0.321
			c-0.844,0-1.65,0.335-2.42,1.005v-1.9c0.852-0.552,1.813-0.827,2.885-0.827c0.496,0,0.942,0.064,1.336,0.195
			c0.395,0.129,0.729,0.315,1.002,0.557s0.481,0.534,0.625,0.879c0.144,0.344,0.216,0.728,0.216,1.151
			c0,0.451-0.069,0.853-0.209,1.203c-0.139,0.351-0.323,0.67-0.554,0.957c-0.229,0.287-0.495,0.55-0.796,0.79
			c-0.301,0.238-0.613,0.47-0.937,0.693c-0.219,0.155-0.43,0.309-0.633,0.461c-0.202,0.153-0.382,0.304-0.536,0.451
			c-0.155,0.148-0.278,0.293-0.369,0.435C291.181,273.937,291.136,274.071,291.136,274.199z"/>
	</g>
	<g>
		<rect x="381.567" y="149.6" fill="none" width="130.424" height="17.6"/>
		<path fill="#2F2F2F" d="M421.783,155.718c0,2.944-1.372,4.416-4.115,4.416c-2.662,0-3.992-1.438-3.992-4.313v-5.66h2.215v5.688
			c0,1.586,0.619,2.379,1.859,2.379c1.217,0,1.824-0.766,1.824-2.297v-5.77h2.209V155.718z"/>
		<path fill="#2F2F2F" d="M423.212,159.778v-1.75c0.355,0.214,0.711,0.374,1.063,0.479s0.687,0.157,1.001,0.157
			c0.383,0,0.686-0.053,0.906-0.157s0.332-0.265,0.332-0.479c0-0.137-0.051-0.251-0.15-0.342c-0.101-0.091-0.229-0.171-0.387-0.239
			s-0.329-0.13-0.516-0.185c-0.188-0.055-0.367-0.116-0.541-0.185c-0.277-0.104-0.522-0.218-0.734-0.338
			c-0.212-0.121-0.39-0.262-0.533-0.421s-0.253-0.344-0.328-0.554s-0.113-0.458-0.113-0.745c0-0.392,0.086-0.729,0.257-1.012
			s0.399-0.514,0.684-0.694c0.284-0.18,0.61-0.312,0.978-0.396c0.367-0.084,0.748-0.126,1.145-0.126
			c0.311,0,0.625,0.024,0.943,0.071c0.319,0.049,0.634,0.118,0.943,0.209v1.668c-0.273-0.159-0.566-0.279-0.878-0.359
			c-0.312-0.079-0.618-0.119-0.919-0.119c-0.142,0-0.275,0.013-0.4,0.037c-0.125,0.025-0.236,0.062-0.332,0.109
			c-0.096,0.049-0.17,0.109-0.225,0.186c-0.055,0.074-0.082,0.16-0.082,0.256c0,0.128,0.041,0.237,0.123,0.328
			s0.188,0.17,0.32,0.236c0.133,0.065,0.279,0.125,0.441,0.178c0.162,0.052,0.322,0.105,0.482,0.16
			c0.287,0.101,0.547,0.21,0.779,0.328s0.432,0.258,0.598,0.417s0.294,0.347,0.383,0.561s0.133,0.47,0.133,0.766
			c0,0.415-0.09,0.769-0.27,1.063c-0.18,0.293-0.42,0.533-0.718,0.717c-0.298,0.186-0.643,0.319-1.032,0.404
			c-0.39,0.084-0.794,0.126-1.213,0.126C424.583,160.134,423.869,160.015,423.212,159.778z"/>
		<path fill="#2F2F2F" d="M436.163,157.078h-4.566c0.073,1.017,0.714,1.524,1.921,1.524c0.77,0,1.447-0.183,2.03-0.547v1.559
			c-0.647,0.347-1.487,0.52-2.522,0.52c-1.131,0-2.008-0.313-2.632-0.94c-0.624-0.626-0.937-1.5-0.937-2.621
			c0-1.162,0.338-2.083,1.012-2.762s1.504-1.019,2.488-1.019c1.021,0,1.811,0.303,2.369,0.909c0.558,0.606,0.837,1.429,0.837,2.468
			V157.078z M434.16,155.752c0-1.003-0.406-1.504-1.217-1.504c-0.346,0-0.646,0.144-0.898,0.431
			c-0.254,0.287-0.407,0.645-0.462,1.073H434.16z"/>
		<path fill="#2F2F2F" d="M446.615,159.71c-0.488,0.282-1.191,0.424-2.112,0.424c-1.075,0-1.946-0.326-2.611-0.978
			s-0.998-1.492-0.998-2.522c0-1.189,0.356-2.127,1.069-2.813c0.714-0.686,1.668-1.028,2.861-1.028c0.824,0,1.422,0.109,1.791,0.328
			v1.832c-0.451-0.337-0.955-0.506-1.511-0.506c-0.62,0-1.11,0.181-1.474,0.544c-0.361,0.361-0.543,0.862-0.543,1.5
			c0,0.62,0.174,1.106,0.52,1.459c0.346,0.354,0.822,0.53,1.429,0.53c0.538,0,1.063-0.169,1.579-0.506V159.71z"/>
		<path fill="#2F2F2F" d="M453.951,159.963h-2.044v-1.005h-0.027c-0.47,0.784-1.165,1.176-2.085,1.176
			c-0.68,0-1.213-0.192-1.604-0.577c-0.389-0.386-0.584-0.899-0.584-1.542c0-1.358,0.805-2.142,2.413-2.352l1.9-0.253
			c0-0.766-0.415-1.148-1.244-1.148c-0.834,0-1.627,0.248-2.379,0.745v-1.627c0.301-0.155,0.712-0.292,1.233-0.41
			c0.522-0.118,0.998-0.178,1.426-0.178c1.996,0,2.994,0.996,2.994,2.987V159.963z M451.921,157.119v-0.472l-1.271,0.164
			c-0.702,0.091-1.053,0.408-1.053,0.95c0,0.246,0.085,0.447,0.257,0.605c0.17,0.156,0.402,0.235,0.693,0.235
			c0.406,0,0.736-0.14,0.991-0.421C451.793,157.902,451.921,157.548,451.921,157.119z"/>
		<path fill="#2F2F2F" d="M455.325,159.778v-1.75c0.355,0.214,0.71,0.374,1.063,0.479c0.353,0.104,0.687,0.157,1.001,0.157
			c0.383,0,0.685-0.053,0.905-0.157c0.222-0.104,0.332-0.265,0.332-0.479c0-0.137-0.051-0.251-0.15-0.342s-0.229-0.171-0.387-0.239
			c-0.156-0.068-0.328-0.13-0.516-0.185s-0.367-0.116-0.54-0.185c-0.278-0.104-0.522-0.218-0.735-0.338
			c-0.211-0.121-0.389-0.262-0.533-0.421c-0.143-0.159-0.252-0.344-0.328-0.554c-0.074-0.21-0.112-0.458-0.112-0.745
			c0-0.392,0.085-0.729,0.257-1.012c0.17-0.282,0.398-0.514,0.684-0.694c0.284-0.18,0.61-0.312,0.977-0.396
			c0.367-0.084,0.749-0.126,1.146-0.126c0.31,0,0.624,0.024,0.943,0.071c0.319,0.049,0.634,0.118,0.943,0.209v1.668
			c-0.273-0.159-0.566-0.279-0.878-0.359c-0.312-0.079-0.619-0.119-0.92-0.119c-0.141,0-0.274,0.013-0.4,0.037
			c-0.125,0.025-0.235,0.062-0.331,0.109c-0.096,0.049-0.171,0.109-0.226,0.186c-0.055,0.074-0.082,0.16-0.082,0.256
			c0,0.128,0.041,0.237,0.123,0.328s0.189,0.17,0.321,0.236c0.132,0.065,0.279,0.125,0.44,0.178c0.162,0.052,0.322,0.105,0.482,0.16
			c0.287,0.101,0.547,0.21,0.779,0.328s0.432,0.258,0.598,0.417c0.167,0.159,0.295,0.347,0.383,0.561
			c0.09,0.214,0.134,0.47,0.134,0.766c0,0.415-0.09,0.769-0.271,1.063c-0.18,0.293-0.419,0.533-0.717,0.717
			c-0.299,0.186-0.643,0.319-1.033,0.404c-0.389,0.084-0.793,0.126-1.213,0.126C456.695,160.134,455.981,160.015,455.325,159.778z"
			/>
		<path fill="#2F2F2F" d="M468.275,157.078h-4.566c0.072,1.017,0.713,1.524,1.92,1.524c0.771,0,1.447-0.183,2.031-0.547v1.559
			c-0.647,0.347-1.488,0.52-2.523,0.52c-1.13,0-2.007-0.313-2.631-0.94c-0.625-0.626-0.938-1.5-0.938-2.621
			c0-1.162,0.338-2.083,1.012-2.762c0.675-0.679,1.504-1.019,2.488-1.019c1.021,0,1.811,0.303,2.369,0.909s0.838,1.429,0.838,2.468
			V157.078z M466.271,155.752c0-1.003-0.405-1.504-1.217-1.504c-0.346,0-0.646,0.144-0.898,0.431s-0.406,0.645-0.461,1.073H466.271z
			"/>
		<path fill="#2F2F2F" d="M480.38,154.631c0,0.068-0.006,0.159-0.02,0.273s-0.031,0.232-0.052,0.355s-0.042,0.242-0.065,0.359
			c-0.022,0.115-0.043,0.215-0.061,0.297l-0.855,4.047h-2.166l0.84-3.992c0.027-0.146,0.055-0.296,0.082-0.451
			s0.041-0.273,0.041-0.355c0-0.219-0.055-0.393-0.167-0.523c-0.112-0.129-0.279-0.194-0.503-0.194
			c-0.187,0-0.381,0.058-0.584,0.175c-0.203,0.115-0.393,0.27-0.57,0.461s-0.334,0.411-0.469,0.66
			c-0.135,0.248-0.229,0.502-0.283,0.762l-0.725,3.459h-2.201l1.039-4.799c0.041-0.21,0.082-0.42,0.123-0.633
			c0.041-0.211,0.077-0.414,0.109-0.607c0.031-0.194,0.061-0.374,0.085-0.541c0.024-0.166,0.044-0.306,0.058-0.42h2.133
			c-0.014,0.128-0.027,0.261-0.044,0.4c-0.017,0.139-0.032,0.271-0.048,0.399s-0.031,0.24-0.045,0.339
			c-0.014,0.098-0.024,0.167-0.033,0.208h0.027c0.159-0.21,0.339-0.407,0.539-0.591c0.201-0.186,0.414-0.346,0.64-0.482
			s0.459-0.245,0.7-0.324c0.242-0.08,0.483-0.12,0.725-0.12c0.579,0,1.016,0.161,1.31,0.481
			C480.234,153.596,480.38,154.048,480.38,154.631z"/>
	</g>
	<g>
		<rect x="381.567" y="265.628" fill="none" width="130.424" height="17.6"/>
		<path fill="#2F2F2F" d="M432.15,267.985h-3.459v2.406h3.179v1.791h-3.179v3.808h-2.208v-9.803h5.667V267.985z"/>
		<path fill="#2F2F2F" d="M435.5,275.99h-2.16v-10.363h2.16V275.99z"/>
		<path fill="#2F2F2F" d="M440.643,276.161c-1.167,0-2.084-0.327-2.751-0.981c-0.668-0.653-1.002-1.541-1.002-2.662
			c0-1.157,0.346-2.063,1.039-2.717c0.693-0.654,1.629-0.981,2.81-0.981c1.162,0,2.073,0.327,2.734,0.981
			c0.661,0.653,0.991,1.519,0.991,2.594c0,1.162-0.341,2.08-1.021,2.755C442.761,275.824,441.828,276.161,440.643,276.161z
			 M440.698,270.473c-0.511,0-0.907,0.176-1.189,0.526s-0.424,0.848-0.424,1.49c0,1.345,0.542,2.017,1.627,2.017
			c1.034,0,1.552-0.69,1.552-2.071C442.263,271.128,441.742,270.473,440.698,270.473z"/>
		<path fill="#2F2F2F" d="M455.842,268.99l-2.017,7h-2.27l-1.032-4.102c-0.068-0.273-0.106-0.572-0.116-0.896h-0.041
			c-0.031,0.355-0.078,0.645-0.137,0.868l-1.107,4.129h-2.242l-1.976-7h2.201l0.964,4.566c0.045,0.214,0.08,0.474,0.103,0.779h0.041
			c0.022-0.319,0.063-0.588,0.123-0.807l1.203-4.539h2.058l1.08,4.566c0.027,0.114,0.059,0.378,0.096,0.793h0.048
			c0.022-0.265,0.06-0.528,0.109-0.793l0.909-4.566H455.842z"/>
		<path fill="#2F2F2F" d="M467.689,270.658c0,0.068-0.007,0.159-0.021,0.273s-0.03,0.232-0.052,0.355
			c-0.02,0.123-0.041,0.242-0.064,0.359c-0.023,0.115-0.043,0.215-0.062,0.297l-0.854,4.047h-2.167l0.841-3.992
			c0.027-0.146,0.055-0.296,0.082-0.451s0.041-0.273,0.041-0.355c0-0.219-0.056-0.393-0.168-0.523
			c-0.111-0.129-0.279-0.194-0.502-0.194c-0.188,0-0.382,0.058-0.584,0.175c-0.203,0.115-0.394,0.27-0.571,0.461
			s-0.334,0.411-0.468,0.66c-0.135,0.248-0.229,0.502-0.284,0.762l-0.725,3.459h-2.201l1.039-4.799
			c0.041-0.21,0.082-0.42,0.123-0.633c0.041-0.211,0.077-0.414,0.109-0.607c0.032-0.194,0.061-0.374,0.085-0.541
			c0.025-0.166,0.045-0.306,0.059-0.42h2.133c-0.014,0.128-0.028,0.261-0.045,0.4c-0.016,0.139-0.031,0.271-0.047,0.399
			c-0.017,0.128-0.031,0.24-0.045,0.339c-0.014,0.098-0.025,0.167-0.034,0.208h0.027c0.159-0.21,0.339-0.407,0.54-0.591
			c0.201-0.186,0.414-0.346,0.639-0.482c0.227-0.137,0.459-0.245,0.701-0.324c0.242-0.08,0.482-0.12,0.725-0.12
			c0.578,0,1.016,0.161,1.309,0.481C467.543,269.623,467.689,270.075,467.689,270.658z"/>
	</g>
	<g>
		<path fill="#FFFFFF" d="M79.607,77.024v-2.188c0.396,0.333,0.826,0.582,1.291,0.749c0.465,0.166,0.935,0.249,1.408,0.249
			c0.278,0,0.521-0.025,0.729-0.075s0.381-0.119,0.52-0.209c0.139-0.088,0.242-0.193,0.311-0.314
			c0.068-0.12,0.104-0.251,0.104-0.393c0-0.191-0.055-0.362-0.164-0.513s-0.26-0.289-0.448-0.417s-0.413-0.251-0.673-0.369
			s-0.541-0.239-0.842-0.362c-0.766-0.319-1.336-0.709-1.712-1.169s-0.563-1.017-0.563-1.668c0-0.511,0.102-0.949,0.307-1.316
			c0.205-0.366,0.484-0.668,0.838-0.905s0.762-0.411,1.227-0.522c0.465-0.112,0.957-0.168,1.477-0.168
			c0.511,0,0.963,0.031,1.357,0.092c0.395,0.062,0.758,0.156,1.09,0.284v2.044c-0.164-0.114-0.342-0.214-0.536-0.301
			s-0.394-0.158-0.599-0.215c-0.205-0.058-0.408-0.1-0.611-0.127s-0.396-0.041-0.578-0.041c-0.25,0-0.479,0.023-0.684,0.072
			c-0.205,0.047-0.378,0.114-0.52,0.201c-0.141,0.087-0.25,0.19-0.328,0.311c-0.077,0.121-0.115,0.257-0.115,0.407
			c0,0.164,0.043,0.312,0.129,0.44c0.087,0.131,0.21,0.254,0.369,0.369c0.16,0.117,0.354,0.23,0.582,0.342
			c0.228,0.112,0.484,0.228,0.771,0.346c0.393,0.164,0.744,0.338,1.057,0.523c0.312,0.184,0.58,0.393,0.803,0.625
			c0.224,0.232,0.395,0.498,0.514,0.797c0.118,0.298,0.178,0.646,0.178,1.042c0,0.547-0.104,1.006-0.312,1.378
			c-0.208,0.371-0.489,0.672-0.845,0.902c-0.355,0.229-0.769,0.395-1.24,0.495s-0.97,0.15-1.494,0.15
			c-0.537,0-1.049-0.046-1.534-0.137S79.963,77.207,79.607,77.024z"/>
		<path fill="#FFFFFF" d="M91.704,77.318c-0.319,0.169-0.8,0.253-1.442,0.253c-1.521,0-2.283-0.791-2.283-2.372v-3.206h-1.135V70.4
			h1.135v-1.511l2.153-0.615V70.4h1.572v1.593h-1.572v2.83c0,0.729,0.29,1.094,0.868,1.094c0.229,0,0.463-0.066,0.704-0.198V77.318z
			"/>
		<path fill="#FFFFFF" d="M98.884,77.4h-2.043v-1.005h-0.027c-0.47,0.784-1.165,1.176-2.086,1.176c-0.679,0-1.213-0.192-1.603-0.577
			c-0.39-0.386-0.585-0.899-0.585-1.542c0-1.358,0.805-2.142,2.414-2.352l1.9-0.253c0-0.766-0.415-1.148-1.244-1.148
			c-0.834,0-1.627,0.248-2.379,0.745v-1.627c0.301-0.155,0.711-0.292,1.233-0.41s0.997-0.178,1.425-0.178
			c1.996,0,2.994,0.996,2.994,2.987V77.4z M96.855,74.556v-0.472l-1.271,0.164c-0.702,0.091-1.053,0.408-1.053,0.95
			c0,0.246,0.085,0.447,0.256,0.605c0.171,0.156,0.402,0.235,0.693,0.235c0.406,0,0.736-0.14,0.992-0.421
			C96.727,75.34,96.855,74.985,96.855,74.556z"/>
		<path fill="#FFFFFF" d="M107.48,76.6c0,1.299-0.377,2.305-1.129,3.019c-0.752,0.713-1.841,1.069-3.268,1.069
			c-0.943,0-1.69-0.135-2.242-0.403v-1.818c0.721,0.419,1.447,0.629,2.182,0.629c0.729,0,1.294-0.192,1.695-0.578
			c0.4-0.385,0.602-0.907,0.602-1.568v-0.554h-0.027c-0.492,0.784-1.22,1.176-2.182,1.176c-0.893,0-1.602-0.314-2.125-0.943
			c-0.524-0.629-0.787-1.472-0.787-2.529c0-1.185,0.292-2.126,0.875-2.823c0.584-0.697,1.352-1.046,2.305-1.046
			c0.852,0,1.49,0.328,1.914,0.984h0.027V70.4h2.16V76.6z M105.347,74.037v-0.554c0-0.442-0.131-0.819-0.394-1.132
			c-0.263-0.312-0.603-0.468-1.022-0.468c-0.479,0-0.854,0.187-1.127,0.561s-0.41,0.9-0.41,1.579c0,0.583,0.129,1.045,0.389,1.385
			c0.26,0.339,0.615,0.509,1.066,0.509c0.447,0,0.809-0.172,1.084-0.517C105.209,75.056,105.347,74.602,105.347,74.037z"/>
		<path fill="#FFFFFF" d="M115.574,74.515h-4.566c0.072,1.017,0.713,1.524,1.92,1.524c0.771,0,1.447-0.183,2.031-0.547v1.559
			c-0.647,0.347-1.488,0.52-2.523,0.52c-1.13,0-2.007-0.313-2.631-0.94c-0.625-0.626-0.938-1.5-0.938-2.621
			c0-1.162,0.338-2.083,1.012-2.762c0.675-0.679,1.504-1.019,2.488-1.019c1.021,0,1.811,0.303,2.369,0.909s0.838,1.429,0.838,2.468
			V74.515z M113.57,73.189c0-1.003-0.405-1.504-1.217-1.504c-0.346,0-0.646,0.144-0.898,0.431s-0.406,0.645-0.461,1.073H113.57z"/>
		<path fill="#FFFFFF" d="M125.5,67.379V77.4h-2.154v-7.588c-0.118,0.104-0.258,0.204-0.42,0.297
			c-0.162,0.094-0.334,0.178-0.516,0.254c-0.183,0.074-0.372,0.139-0.568,0.191c-0.195,0.052-0.389,0.09-0.58,0.112v-1.818
			c0.561-0.164,1.089-0.374,1.586-0.629c0.496-0.255,0.945-0.535,1.346-0.841H125.5z"/>
	</g>
	<g>
		<path fill="#FFFFFF" d="M251.207,77.024v-2.188c0.396,0.333,0.827,0.582,1.292,0.749c0.465,0.166,0.934,0.249,1.408,0.249
			c0.277,0,0.521-0.025,0.728-0.075c0.208-0.05,0.381-0.119,0.52-0.209c0.14-0.088,0.243-0.193,0.312-0.314
			c0.068-0.12,0.103-0.251,0.103-0.393c0-0.191-0.055-0.362-0.164-0.513s-0.259-0.289-0.448-0.417
			c-0.188-0.128-0.413-0.251-0.673-0.369s-0.54-0.239-0.841-0.362c-0.766-0.319-1.337-0.709-1.713-1.169s-0.563-1.017-0.563-1.668
			c0-0.511,0.103-0.949,0.308-1.316c0.205-0.366,0.484-0.668,0.837-0.905c0.354-0.237,0.763-0.411,1.228-0.522
			c0.465-0.112,0.957-0.168,1.477-0.168c0.51,0,0.963,0.031,1.356,0.092c0.395,0.062,0.758,0.156,1.091,0.284v2.044
			c-0.164-0.114-0.343-0.214-0.537-0.301c-0.193-0.087-0.393-0.158-0.598-0.215c-0.205-0.058-0.409-0.1-0.612-0.127
			c-0.202-0.027-0.396-0.041-0.577-0.041c-0.251,0-0.479,0.023-0.684,0.072c-0.205,0.047-0.379,0.114-0.52,0.201
			c-0.142,0.087-0.251,0.19-0.328,0.311c-0.078,0.121-0.116,0.257-0.116,0.407c0,0.164,0.043,0.312,0.13,0.44
			c0.086,0.131,0.209,0.254,0.369,0.369c0.159,0.117,0.353,0.23,0.581,0.342c0.228,0.112,0.485,0.228,0.772,0.346
			c0.392,0.164,0.744,0.338,1.056,0.523c0.312,0.184,0.58,0.393,0.804,0.625c0.223,0.232,0.394,0.498,0.513,0.797
			c0.118,0.298,0.178,0.646,0.178,1.042c0,0.547-0.104,1.006-0.312,1.378c-0.207,0.371-0.488,0.672-0.844,0.902
			c-0.355,0.229-0.77,0.395-1.241,0.495s-0.97,0.15-1.493,0.15c-0.538,0-1.05-0.046-1.535-0.137S251.562,77.207,251.207,77.024z"/>
		<path fill="#FFFFFF" d="M263.303,77.318c-0.318,0.169-0.8,0.253-1.442,0.253c-1.521,0-2.283-0.791-2.283-2.372v-3.206h-1.135V70.4
			h1.135v-1.511l2.153-0.615V70.4h1.572v1.593h-1.572v2.83c0,0.729,0.29,1.094,0.868,1.094c0.229,0,0.463-0.066,0.704-0.198V77.318z
			"/>
		<path fill="#FFFFFF" d="M270.485,77.4h-2.044v-1.005h-0.027c-0.47,0.784-1.165,1.176-2.085,1.176c-0.68,0-1.214-0.192-1.604-0.577
			c-0.39-0.386-0.584-0.899-0.584-1.542c0-1.358,0.804-2.142,2.413-2.352l1.9-0.253c0-0.766-0.415-1.148-1.244-1.148
			c-0.834,0-1.627,0.248-2.379,0.745v-1.627c0.301-0.155,0.712-0.292,1.233-0.41c0.522-0.118,0.997-0.178,1.426-0.178
			c1.996,0,2.994,0.996,2.994,2.987V77.4z M268.455,74.556v-0.472l-1.271,0.164c-0.702,0.091-1.053,0.408-1.053,0.95
			c0,0.246,0.085,0.447,0.256,0.605c0.171,0.156,0.402,0.235,0.694,0.235c0.405,0,0.735-0.14,0.991-0.421
			C268.327,75.34,268.455,74.985,268.455,74.556z"/>
		<path fill="#FFFFFF" d="M279.08,76.6c0,1.299-0.376,2.305-1.128,3.019c-0.752,0.713-1.842,1.069-3.268,1.069
			c-0.943,0-1.691-0.135-2.242-0.403v-1.818c0.72,0.419,1.446,0.629,2.181,0.629c0.729,0,1.294-0.192,1.695-0.578
			c0.4-0.385,0.602-0.907,0.602-1.568v-0.554h-0.027c-0.492,0.784-1.22,1.176-2.181,1.176c-0.894,0-1.603-0.314-2.126-0.943
			c-0.524-0.629-0.786-1.472-0.786-2.529c0-1.185,0.291-2.126,0.875-2.823c0.583-0.697,1.351-1.046,2.304-1.046
			c0.852,0,1.49,0.328,1.914,0.984h0.027V70.4h2.16V76.6z M276.947,74.037v-0.554c0-0.442-0.131-0.819-0.394-1.132
			c-0.262-0.312-0.603-0.468-1.021-0.468c-0.479,0-0.854,0.187-1.128,0.561s-0.41,0.9-0.41,1.579c0,0.583,0.13,1.045,0.39,1.385
			c0.26,0.339,0.615,0.509,1.066,0.509c0.446,0,0.808-0.172,1.083-0.517C276.809,75.056,276.947,74.602,276.947,74.037z"/>
		<path fill="#FFFFFF" d="M287.173,74.515h-4.566c0.072,1.017,0.713,1.524,1.921,1.524c0.77,0,1.446-0.183,2.03-0.547v1.559
			c-0.647,0.347-1.488,0.52-2.522,0.52c-1.131,0-2.008-0.313-2.632-0.94c-0.625-0.626-0.937-1.5-0.937-2.621
			c0-1.162,0.337-2.083,1.012-2.762c0.674-0.679,1.504-1.019,2.488-1.019c1.021,0,1.811,0.303,2.368,0.909
			c0.559,0.606,0.838,1.429,0.838,2.468V74.515z M285.171,73.189c0-1.003-0.406-1.504-1.217-1.504c-0.347,0-0.646,0.144-0.899,0.431
			s-0.406,0.645-0.461,1.073H285.171z"/>
		<path fill="#FFFFFF" d="M294.344,75.609h4.156V77.4h-6.521v-0.738c0-0.501,0.084-0.951,0.253-1.35
			c0.168-0.399,0.38-0.757,0.636-1.074c0.255-0.316,0.534-0.597,0.837-0.84c0.304-0.244,0.592-0.464,0.865-0.66
			c0.287-0.205,0.539-0.401,0.755-0.588c0.217-0.187,0.399-0.373,0.547-0.557c0.148-0.186,0.259-0.372,0.332-0.561
			c0.072-0.189,0.109-0.392,0.109-0.605c0-0.419-0.119-0.736-0.355-0.95c-0.237-0.214-0.6-0.321-1.087-0.321
			c-0.844,0-1.65,0.335-2.42,1.005v-1.9c0.852-0.552,1.813-0.827,2.885-0.827c0.496,0,0.942,0.064,1.336,0.195
			c0.395,0.129,0.729,0.315,1.002,0.557s0.481,0.534,0.625,0.879c0.144,0.344,0.216,0.728,0.216,1.151
			c0,0.451-0.069,0.853-0.209,1.203c-0.139,0.351-0.323,0.67-0.554,0.957c-0.229,0.287-0.495,0.55-0.796,0.79
			c-0.301,0.238-0.613,0.47-0.937,0.693c-0.219,0.155-0.43,0.309-0.633,0.461c-0.202,0.153-0.382,0.304-0.536,0.451
			c-0.155,0.148-0.278,0.293-0.369,0.435C294.389,75.347,294.344,75.481,294.344,75.609z"/>
	</g>
	<g>
		<path fill="#FFFFFF" d="M422.824,77.213v-2.188c0.396,0.333,0.827,0.582,1.292,0.749c0.465,0.166,0.935,0.249,1.408,0.249
			c0.278,0,0.521-0.025,0.729-0.075c0.207-0.05,0.38-0.119,0.52-0.209c0.139-0.088,0.242-0.193,0.311-0.314
			c0.068-0.12,0.103-0.251,0.103-0.393c0-0.191-0.055-0.362-0.164-0.513s-0.259-0.289-0.447-0.417
			c-0.189-0.128-0.414-0.251-0.674-0.369s-0.54-0.239-0.841-0.362c-0.766-0.319-1.336-0.709-1.712-1.169s-0.564-1.017-0.564-1.668
			c0-0.511,0.103-0.949,0.308-1.316c0.205-0.366,0.484-0.668,0.838-0.905c0.353-0.237,0.762-0.411,1.227-0.522
			c0.465-0.112,0.957-0.168,1.477-0.168c0.511,0,0.963,0.031,1.357,0.092c0.394,0.062,0.758,0.156,1.09,0.284v2.044
			c-0.164-0.114-0.343-0.214-0.536-0.301c-0.194-0.087-0.394-0.158-0.599-0.215c-0.205-0.058-0.409-0.1-0.611-0.127
			c-0.203-0.027-0.396-0.041-0.578-0.041c-0.25,0-0.479,0.023-0.684,0.072c-0.205,0.047-0.378,0.114-0.52,0.201
			c-0.141,0.087-0.25,0.19-0.328,0.311c-0.077,0.121-0.116,0.257-0.116,0.407c0,0.164,0.044,0.312,0.13,0.44
			c0.087,0.131,0.21,0.254,0.369,0.369c0.16,0.117,0.354,0.23,0.581,0.342c0.229,0.112,0.485,0.228,0.772,0.346
			c0.393,0.164,0.744,0.338,1.057,0.523c0.312,0.184,0.58,0.393,0.803,0.625c0.224,0.232,0.395,0.498,0.513,0.797
			c0.119,0.298,0.178,0.646,0.178,1.042c0,0.547-0.104,1.006-0.311,1.378c-0.208,0.371-0.489,0.672-0.845,0.902
			c-0.355,0.229-0.769,0.395-1.24,0.495s-0.97,0.15-1.494,0.15c-0.537,0-1.049-0.046-1.534-0.137S423.179,77.395,422.824,77.213z"/>
		<path fill="#FFFFFF" d="M434.921,77.507c-0.319,0.169-0.8,0.253-1.442,0.253c-1.522,0-2.283-0.791-2.283-2.372v-3.206h-1.135
			v-1.593h1.135v-1.511l2.153-0.615v2.126h1.572v1.593h-1.572v2.83c0,0.729,0.289,1.094,0.868,1.094
			c0.228,0,0.462-0.066,0.704-0.198V77.507z"/>
		<path fill="#FFFFFF" d="M442.102,77.589h-2.044v-1.005h-0.027c-0.469,0.784-1.164,1.176-2.085,1.176
			c-0.679,0-1.213-0.192-1.603-0.577c-0.39-0.386-0.585-0.899-0.585-1.542c0-1.358,0.805-2.142,2.413-2.352l1.9-0.253
			c0-0.766-0.414-1.148-1.244-1.148c-0.834,0-1.627,0.248-2.379,0.745v-1.627c0.301-0.155,0.712-0.292,1.234-0.41
			c0.521-0.118,0.997-0.178,1.425-0.178c1.996,0,2.994,0.996,2.994,2.987V77.589z M440.072,74.745v-0.472l-1.271,0.164
			c-0.701,0.091-1.053,0.408-1.053,0.95c0,0.246,0.086,0.447,0.257,0.605c0.171,0.156,0.402,0.235,0.693,0.235
			c0.406,0,0.736-0.14,0.991-0.421C439.945,75.528,440.072,75.174,440.072,74.745z"/>
		<path fill="#FFFFFF" d="M450.697,76.789c0,1.299-0.376,2.305-1.128,3.019c-0.752,0.713-1.841,1.069-3.268,1.069
			c-0.943,0-1.69-0.135-2.242-0.403v-1.818c0.721,0.419,1.447,0.629,2.181,0.629c0.729,0,1.295-0.192,1.695-0.578
			c0.401-0.385,0.602-0.907,0.602-1.568v-0.554h-0.027c-0.492,0.784-1.219,1.176-2.181,1.176c-0.893,0-1.602-0.314-2.126-0.943
			c-0.523-0.629-0.786-1.472-0.786-2.529c0-1.185,0.292-2.126,0.875-2.823c0.584-0.697,1.352-1.046,2.304-1.046
			c0.853,0,1.49,0.328,1.914,0.984h0.027v-0.813h2.16V76.789z M448.564,74.225v-0.554c0-0.442-0.131-0.819-0.393-1.132
			c-0.263-0.312-0.603-0.468-1.022-0.468c-0.479,0-0.854,0.187-1.128,0.561s-0.41,0.9-0.41,1.579c0,0.583,0.13,1.045,0.39,1.385
			c0.26,0.339,0.615,0.509,1.066,0.509c0.447,0,0.808-0.172,1.084-0.517C448.426,75.245,448.564,74.791,448.564,74.225z"/>
		<path fill="#FFFFFF" d="M458.791,74.704h-4.566c0.073,1.017,0.714,1.524,1.921,1.524c0.771,0,1.447-0.183,2.03-0.547v1.559
			c-0.646,0.347-1.487,0.52-2.522,0.52c-1.13,0-2.007-0.313-2.632-0.94c-0.624-0.626-0.937-1.5-0.937-2.621
			c0-1.162,0.338-2.083,1.012-2.762c0.675-0.679,1.504-1.019,2.488-1.019c1.021,0,1.811,0.303,2.369,0.909
			c0.558,0.606,0.837,1.429,0.837,2.468V74.704z M456.788,73.378c0-1.003-0.405-1.504-1.217-1.504c-0.346,0-0.646,0.144-0.898,0.431
			s-0.407,0.645-0.462,1.073H456.788z"/>
		<path fill="#FFFFFF" d="M470.897,72.257c0,0.068-0.007,0.159-0.021,0.273s-0.03,0.232-0.051,0.355s-0.042,0.242-0.065,0.359
			c-0.022,0.115-0.043,0.215-0.062,0.297l-0.854,4.047h-2.167l0.841-3.992c0.027-0.146,0.055-0.296,0.082-0.451
			s0.041-0.273,0.041-0.355c0-0.219-0.056-0.393-0.167-0.523c-0.112-0.129-0.279-0.194-0.503-0.194
			c-0.187,0-0.382,0.058-0.584,0.175c-0.203,0.115-0.394,0.27-0.571,0.461s-0.334,0.411-0.468,0.66
			c-0.135,0.248-0.229,0.502-0.284,0.762l-0.725,3.459h-2.201l1.039-4.799c0.041-0.21,0.082-0.42,0.123-0.633
			c0.041-0.211,0.078-0.414,0.109-0.607c0.032-0.194,0.061-0.374,0.086-0.541c0.024-0.166,0.044-0.306,0.058-0.42h2.133
			c-0.014,0.128-0.028,0.261-0.044,0.4c-0.017,0.139-0.032,0.271-0.048,0.399c-0.017,0.128-0.031,0.24-0.045,0.339
			c-0.014,0.098-0.024,0.167-0.034,0.208h0.027c0.16-0.21,0.34-0.407,0.54-0.591c0.201-0.186,0.414-0.346,0.64-0.482
			s0.459-0.245,0.7-0.324c0.242-0.08,0.483-0.12,0.725-0.12c0.579,0,1.016,0.161,1.31,0.481
			C470.751,71.221,470.897,71.674,470.897,72.257z"/>
	</g>
	<g>
	</g>
	<g>
	</g>
	<g>
	</g>
	<g>
	</g>
	<g>
	</g>
	<g>
	</g>
	<g>
	</g>
	<g>
	</g>
	<g>
	</g>
	<g>
	</g>
	<g>
	</g>
	<g>
	</g>
	<g>
	</g>
	<g>
	</g>
	<g>
	</g>
	<g>
	</g>
	<g>
	</g>
	<g>
	</g>
	<g>
	</g>
	<g>
	</g>
	<g>
	</g>
	<g>
	</g>
	<g>
	</g>
	<g>
	</g>
	<g>
	</g>
	<g>
	</g>
	<g>
	</g>
	<g>
	</g>
	<g>
	</g>
	<g>
	</g>
	<g>
	</g>
	<g>
	</g>
	<g>
	</g>
	<g>
	</g>
	<g>
	</g>
	<g>
	</g>
	<g>
	</g>
	<g>
	</g>
	<g>
	</g>
	<g>
	</g>
</g>
</svg>
