<svg width="1848" height="1756" xmlns="http://www.w3.org/2000/svg" xmlns:xlink="http://www.w3.org/1999/xlink" overflow="hidden"><defs><clipPath id="clip0"><rect x="981" y="491" width="1848" height="1756"/></clipPath></defs><g clip-path="url(#clip0)" transform="translate(-981 -491)"><path d="M1102 1829.57C1102 1818.21 1111.21 1809 1122.57 1809L2802.43 1809C2813.79 1809 2823 1818.21 2823 1829.57L2823 2082.43C2823 2093.79 2813.79 2103 2802.43 2103L1122.57 2103C1111.21 2103 1102 2093.79 1102 2082.43Z" stroke="#D9D9D9" stroke-width="10.3125" stroke-miterlimit="8" fill="#F2F2F2" fill-rule="evenodd" fill-opacity="0.701961"/><text font-family="Calibri,Calibri_MSFontService,sans-serif" font-weight="400" font-size="55" transform="matrix(1 0 0 1 1795.33 1974)">Transport layer</text><path d="M1102.5 839.95C1102.5 826.447 1113.45 815.5 1126.95 815.5L1423.05 815.5C1436.55 815.5 1447.5 826.447 1447.5 839.95L1447.5 1757.05C1447.5 1770.55 1436.55 1781.5 1423.05 1781.5L1126.95 1781.5C1113.45 1781.5 1102.5 1770.55 1102.5 1757.05Z" stroke="#D9D9D9" stroke-width="9.16667" stroke-miterlimit="8" fill="#FFFFFF" fill-rule="evenodd"/><text font-family="Calibri,Calibri_MSFontService,sans-serif" font-weight="400" font-size="55" transform="matrix(1 0 0 1 1152.05 1250)">Device and <tspan font-size="55" x="30.548" y="66">gateway</tspan><tspan font-size="55" x="68.6126" y="132">layer</tspan></text><path d="M1030 2103C1002.94 2103 981 2081.06 981 2054L981 540C981 512.938 1002.94 491 1030 491L1030 491C1057.06 491 1079 512.938 1079 540L1079 2054C1079 2081.06 1057.06 2103 1030 2103Z" fill="#059DBF" fill-rule="evenodd"/><text fill="#FFFFFF" font-family="Segoe UI Semibold,Segoe UI Semibold_MSFontService,sans-serif" font-weight="600" font-size="43" transform="matrix(-1.83697e-16 -1 1 -1.83697e-16 1044.47 1373)">DevOps</text><path d="M1473.5 844.052C1473.5 828.283 1486.28 815.5 1502.05 815.5L1902.95 815.5C1918.72 815.5 1931.5 828.283 1931.5 844.052L1931.5 1752.95C1931.5 1768.72 1918.72 1781.5 1902.95 1781.5L1502.05 1781.5C1486.28 1781.5 1473.5 1768.72 1473.5 1752.95Z" stroke="#D9D9D9" stroke-width="9.16667" stroke-miterlimit="8" fill="#FFFFFF" fill-rule="evenodd"/><text font-family="Calibri,Calibri_MSFontService,sans-serif" font-weight="400" font-size="55" transform="matrix(1 0 0 1 1550.8 1250)">Ingestion and <tspan font-size="55" x="-26.3999" y="66">communication </tspan><tspan font-size="55" x="96.5709" y="132">layer</tspan></text><path d="M1960 835.758C1960 824.294 1969.29 815 1980.76 815L2418.24 815C2429.71 815 2439 824.294 2439 835.758L2439 1269.24C2439 1280.71 2429.71 1290 2418.24 1290L1980.76 1290C1969.29 1290 1960 1280.71 1960 1269.24Z" stroke="#D9D9D9" stroke-width="10.3125" stroke-miterlimit="8" fill="#F2F2F2" fill-rule="evenodd" fill-opacity="0.701961"/><text font-family="Calibri,Calibri_MSFontService,sans-serif" font-weight="400" font-size="55" transform="matrix(1 0 0 1 2012.47 1005)">Event processing<tspan font-size="55" x="41.2271" y="66">and analytics </tspan><tspan font-size="55" x="132.733" y="132">layer</tspan></text><path d="M1960 1336.01C1960 1323.85 1969.85 1314 1982.01 1314L2416.99 1314C2429.15 1314 2439 1323.85 2439 1336.01L2439 1758.99C2439 1771.15 2429.15 1781 2416.99 1781L1982.01 1781C1969.85 1781 1960 1771.15 1960 1758.99Z" stroke="#D9D9D9" stroke-width="10.3125" stroke-miterlimit="8" fill="#F2F2F2" fill-rule="evenodd" fill-opacity="0.701961"/><text font-family="Calibri,Calibri_MSFontService,sans-serif" font-weight="400" font-size="55" transform="matrix(1 0 0 1 2114.76 1532)">Storage<tspan font-size="55" x="30.4561" y="66">layer</tspan></text><path d="M2468 523.059C2468 509.22 2479.22 498 2493.06 498L2797.94 498C2811.78 498 2823 509.22 2823 523.059L2823 1079.94C2823 1093.78 2811.78 1105 2797.94 1105L2493.06 1105C2479.22 1105 2468 1093.78 2468 1079.94Z" stroke="#D9D9D9" stroke-width="10.3125" stroke-miterlimit="8" fill="#F2F2F2" fill-rule="evenodd" fill-opacity="0.701961"/><text font-family="Calibri,Calibri_MSFontService,sans-serif" font-weight="400" font-size="55" transform="matrix(1 0 0 1 2523.58 720)">Interaction<tspan font-size="55" x="79.9563" y="66">and </tspan><tspan font-size="55" x="17.875" y="132">reporting</tspan><tspan font-size="55" x="67.6272" y="198">layer</tspan></text><path d="M2468 1158.06C2468 1144.22 2479.22 1133 2493.06 1133L2797.96 1133C2811.8 1133 2823.02 1144.22 2823.02 1158.06L2823.02 1755.94C2823.02 1769.78 2811.8 1781 2797.96 1781L2493.06 1781C2479.22 1781 2468 1769.78 2468 1755.94Z" stroke="#D9D9D9" stroke-width="10.3125" stroke-miterlimit="8" fill="#F2F2F2" fill-rule="evenodd" fill-opacity="0.701961"/><text font-family="Calibri,Calibri_MSFontService,sans-serif" font-weight="400" font-size="55" transform="matrix(1 0 0 1 2522.68 1442)">Integration<tspan font-size="55" x="68.521" y="66">layer</tspan></text><path d="M1102.5 520.5C1102.5 508.35 1112.35 498.5 1124.5 498.5L2417.5 498.5C2429.65 498.5 2439.5 508.35 2439.5 520.5L2439.5 770.5C2439.5 782.65 2429.65 792.5 2417.5 792.5L1124.5 792.5C1112.35 792.5 1102.5 782.65 1102.5 770.5Z" stroke="#D9D9D9" stroke-width="9.16667" stroke-miterlimit="8" fill="#FFFFFF" fill-rule="evenodd"/><text font-family="Calibri,Calibri_MSFontService,sans-serif" font-weight="400" font-size="55" transform="matrix(1 0 0 1 1491.94 597)">Device management and<tspan font-size="55" x="172.677" y="66">modeling</tspan><tspan font-size="55" x="224.515" y="132">layer</tspan></text><path d="M1102.5 2150.94C1102.5 2147.38 1105.38 2144.5 1108.94 2144.5L1312.06 2144.5C1315.62 2144.5 1318.5 2147.38 1318.5 2150.94L1318.5 2224.06C1318.5 2227.62 1315.62 2230.5 1312.06 2230.5L1108.94 2230.5C1105.38 2230.5 1102.5 2227.62 1102.5 2224.06Z" stroke="#D9D9D9" stroke-width="9.16667" stroke-miterlimit="8" fill="#FFFFFF" fill-rule="evenodd"/><path d="M1903 2147.76C1903 2145.68 1904.68 2144 1906.76 2144L2115.24 2144C2117.32 2144 2119 2145.68 2119 2147.76L2119 2226.24C2119 2228.32 2117.32 2230 2115.24 2230L1906.76 2230C1904.68 2230 1903 2228.32 1903 2226.24Z" stroke="#D9D9D9" stroke-width="10.3125" stroke-miterlimit="8" fill="#F2F2F2" fill-rule="evenodd" fill-opacity="0.701961"/><text fill="#D9D9D9" font-family="Calibri,Calibri_MSFontService,sans-serif" font-weight="400" font-size="50" transform="matrix(1 0 0 1 1351.43 2203)">Core IoT layers<tspan font-size="50" x="810.523" y="0">Common layers</tspan></text></g></svg>