<?xml version="1.0" encoding="utf-8"?>
<!-- Generator: Adobe Illustrator 27.9.0, SVG Export Plug-In . SVG Version: 6.00 Build 0)  -->
<svg version="1.1" xmlns="http://www.w3.org/2000/svg" xmlns:xlink="http://www.w3.org/1999/xlink" x="0px" y="0px"
	 viewBox="0 0 605.083 246.4" enable-background="new 0 0 605.083 246.4" xml:space="preserve">
<symbol  id="PIPELINE" viewBox="-32 -12.266 64 24.531">
	<linearGradient id="SVGID_1_" gradientUnits="userSpaceOnUse" x1="0" y1="-12.2655" x2="1.502093e-15" y2="12.2655">
		<stop  offset="0" style="stop-color:#1B89B2"/>
		<stop  offset="1" style="stop-color:#51C8E8"/>
	</linearGradient>
	<path fill="url(#SVGID_1_)" d="M26.096,12.266h-51.448v0h0C-29.08,12.265-32,6.878-32,0s2.92-12.265,6.648-12.265h0v0h51.448
		C29.356-12.266,32-6.363,32,0S29.356,12.266,26.096,12.266z"/>
	<g>
		
			<linearGradient id="SVGID_00000035500120469806639730000009978320433424958903_" gradientUnits="userSpaceOnUse" x1="-31.461" y1="-6.1136" x2="-19.2338" y2="6.1136">
			<stop  offset="0" style="stop-color:#B3B4B4"/>
			<stop  offset="1" style="stop-color:#4F4F4F"/>
		</linearGradient>
		<ellipse fill="url(#SVGID_00000035500120469806639730000009978320433424958903_)" cx="-25.347" cy="0" rx="5.575" ry="10.879"/>
	</g>
</symbol>
<g id="Shapes">
	<rect fill="#FFFFFF" width="605.083" height="246.4"/>
	<g id="Wrench_tool_x28_s_x29_">
	</g>
	<g id="user2">
	</g>
	<g id="user2_1_">
	</g>
	<g id="user2_4_">
	</g>
	<g id="user2_3_">
	</g>
	<g id="user2_2_">
	</g>
	<g id="Internet_2">
	</g>
	<g id="Enterprise">
	</g>
	<g id="Tunnel__x28_stackable_x29_">
	</g>
	<g id="New_Symbol">
	</g>
	<g id="New_Symbol_1">
	</g>
	<g id="Files">
	</g>
	<g id="BlobBlock">
	</g>
	<g id="E_x5F_Enterprise">
	</g>
	<g id="E_x5F_AD_FS">
	</g>
	<g id="C_x5F_Azure_Active_Directory">
	</g>
	<g>
		
			<linearGradient id="SVGID_00000042015890637793752570000001730858345883474101_" gradientUnits="userSpaceOnUse" x1="25.1597" y1="-2299.5681" x2="25.1597" y2="-2322.1848" gradientTransform="matrix(1 0 0 -1 0 -2171.6001)">
			<stop  offset="0.22" style="stop-color:#50C8E9"/>
			<stop  offset="0.47" style="stop-color:#4AC7E9"/>
			<stop  offset="0.63" style="stop-color:#3BC4E7"/>
			<stop  offset="0.77" style="stop-color:#2ABADE"/>
			<stop  offset="0.89" style="stop-color:#21A5CB"/>
			<stop  offset="1" style="stop-color:#1B8AB3"/>
			<stop  offset="1" style="stop-color:#1B8AB3"/>
		</linearGradient>
		<path fill="url(#SVGID_00000042015890637793752570000001730858345883474101_)" d="M36.36,146.501c1.335,0,2.417-1.082,2.417-2.417
			l0,0c0.017-0.094,0.017-0.19,0-0.283c-0.967-7.617-5.283-13.817-13.617-13.817s-12.767,5.25-13.617,13.833
			c-0.144,1.336,0.822,2.536,2.158,2.681c0.009,0.001,0.017,0.002,0.026,0.003H36.36z"/>
		<path opacity="0.8" fill="#FFFFFF" enable-background="new    " d="M25.16,131.785c-1.466-0.001-2.901-0.423-4.133-1.217
			l4.133,10.7l4.067-10.633C28.009,131.397,26.598,131.796,25.16,131.785z"/>
		
			<linearGradient id="SVGID_00000048473347135076020380000004348789124378534272_" gradientUnits="userSpaceOnUse" x1="24.5101" y1="-2287.4348" x2="26.1601" y2="-2307.9683" gradientTransform="matrix(1 0 0 -1 0 -2171.6001)">
			<stop  offset="0.22" style="stop-color:#50C8E9"/>
			<stop  offset="0.47" style="stop-color:#4AC7E9"/>
			<stop  offset="0.63" style="stop-color:#3BC4E7"/>
			<stop  offset="0.77" style="stop-color:#2ABADE"/>
			<stop  offset="0.89" style="stop-color:#21A5CB"/>
			<stop  offset="1" style="stop-color:#1B8AB3"/>
			<stop  offset="1" style="stop-color:#1B8AB3"/>
		</linearGradient>
		<circle fill="url(#SVGID_00000048473347135076020380000004348789124378534272_)" cx="25.177" cy="124.135" r="7.633"/>
	</g>
	
		<linearGradient id="SVGID_00000181078058245976559730000017522130878914132890_" gradientUnits="userSpaceOnUse" x1="-452.7015" y1="-2084.1016" x2="-452.7015" y2="-2054.1016" gradientTransform="matrix(1 0 0 -1 564 -1937.6)">
		<stop  offset="0" style="stop-color:#0078D4"/>
		<stop  offset="0.82" style="stop-color:#5EA0EF"/>
	</linearGradient>
	<path fill="url(#SVGID_00000181078058245976559730000017522130878914132890_)" d="M132.448,137.092
		c-0.152-4.651-3.637-8.513-8.248-9.141c-0.292-6.546-5.788-11.643-12.337-11.444c-5.221-0.096-9.933,3.117-11.749,8.013
		c-5.56,0.671-9.795,5.306-9.964,10.903c0.242,6.342,5.571,11.293,11.914,11.068h1.034h19.293c0.172,0.013,0.345,0.013,0.517,0
		C128.101,146.443,132.321,142.285,132.448,137.092z"/>
	<g>
		<g opacity="0.23">
			<rect x="178.821" y="62.101" width="105.6" height="140.8"/>
			<rect x="178.821" y="62.101" opacity="0.45" width="105.6" height="140.8"/>
		</g>
		<g>
			<rect x="177.821" y="61.101" fill="#FFFFFF" width="105.6" height="140.8"/>
			<rect x="177.821" y="61.101" opacity="0.45" fill="#B4EC36" width="105.6" height="140.8"/>
		</g>
	</g>
	<g>
		<g opacity="0.5">
			<rect x="315.683" y="31.301" fill="#207067" width="277.2" height="202.4"/>
			<rect x="315.683" y="31.301" opacity="0.2" fill="#207067" width="277.2" height="202.4"/>
		</g>
		<g>
			<rect x="314.683" y="30.301" fill="#FFFFFF" width="277.2" height="202.4"/>
			<rect x="314.683" y="30.301" opacity="0.2" fill="#83B9F9" width="277.2" height="202.4"/>
		</g>
	</g>
	<g>
		<g>
			<path fill="#FFFFFF" d="M579.383,190.1c0,4.4-3.6,8-8,8h-235c-4.4,0-8-3.6-8-8v-120c0-4.4,3.6-8,8-8h235c4.4,0,8,3.6,8,8V190.1z"
				/>
			<path opacity="0.4" fill="#83B9F9" d="M579.383,190.1c0,4.4-3.6,8-8,8h-235c-4.4,0-8-3.6-8-8v-120c0-4.4,3.6-8,8-8h235
				c4.4,0,8,3.6,8,8V190.1z"/>
			<path opacity="0.4" fill="none" stroke="#0078D4" stroke-linejoin="round" d="M579.383,190.1c0,4.4-3.6,8-8,8h-235
				c-4.4,0-8-3.6-8-8v-120c0-4.4,3.6-8,8-8h235c4.4,0,8,3.6,8,8V190.1z"/>
		</g>
		<path fill="#0078D4" d="M571.385,198.6h-1.442v-1h1.439c0.175-0.001,0.352-0.008,0.526-0.02l0.068,0.998
			C571.782,198.592,571.584,198.599,571.385,198.6z M567.943,198.6h-2v-1h2V198.6z M563.942,198.6h-2v-1h2V198.6z M559.941,198.6h-2
			v-1h2V198.6z M555.939,198.6h-2v-1h2V198.6z M551.938,198.6h-2v-1h2V198.6z M547.937,198.6h-2v-1h2V198.6z M543.936,198.6h-2v-1h2
			V198.6z M539.935,198.6h-2v-1h2V198.6z M535.934,198.6h-2v-1h2V198.6z M531.933,198.6h-2v-1h2V198.6z M527.932,198.6h-2v-1h2
			V198.6z M523.932,198.6h-2v-1h2V198.6z M519.931,198.6h-2v-1h2V198.6z M515.93,198.6h-2v-1h2V198.6z M511.929,198.6h-2v-1h2V198.6
			z M507.928,198.6h-2v-1h2V198.6z M503.927,198.6h-2.001v-1h2.001V198.6z M499.925,198.6h-2v-1h2V198.6z M495.924,198.6h-2v-1h2
			V198.6z M491.923,198.6h-2v-1h2V198.6z M487.922,198.6h-2v-1h2V198.6z M483.921,198.6h-2v-1h2V198.6z M479.92,198.6h-2v-1h2V198.6
			z M475.919,198.6h-2v-1h2V198.6z M471.918,198.6h-2v-1h2V198.6z M467.917,198.6h-2v-1h2V198.6z M463.916,198.6h-2v-1h2V198.6z
			 M459.915,198.6h-2v-1h2V198.6z M455.914,198.6h-2v-1h2V198.6z M451.913,198.6h-2v-1h2V198.6z M447.912,198.6h-2v-1h2V198.6z
			 M443.911,198.6h-2v-1h2V198.6z M439.91,198.6h-2v-1h2V198.6z M435.909,198.6h-2v-1h2V198.6z M431.908,198.6h-2v-1h2V198.6z
			 M427.907,198.6h-2v-1h2V198.6z M423.906,198.6h-2v-1h2V198.6z M419.905,198.6h-2v-1h2V198.6z M415.904,198.6h-2v-1h2V198.6z
			 M411.903,198.6h-2v-1h2V198.6z M407.902,198.6h-2v-1h2V198.6z M403.901,198.6h-2v-1h2V198.6z M399.9,198.6h-2v-1h2V198.6z
			 M395.899,198.6h-2v-1h2V198.6z M391.898,198.6h-2v-1h2V198.6z M387.897,198.6h-2v-1h2V198.6z M383.896,198.6h-2v-1h2V198.6z
			 M379.895,198.6h-2v-1h2V198.6z M375.894,198.6h-2.001v-1h2.001V198.6z M371.893,198.6h-2v-1h2V198.6z M367.892,198.6h-2v-1h2
			V198.6z M363.891,198.6h-2v-1h2V198.6z M359.89,198.6h-2v-1h2V198.6z M355.889,198.6h-2v-1h2V198.6z M351.888,198.6h-2v-1h2V198.6
			z M347.887,198.6h-2v-1h2V198.6z M343.886,198.6h-2v-1h2V198.6z M339.885,198.6h-2v-1h2V198.6z M335.854,198.583
			c-0.709-0.044-1.411-0.178-2.084-0.396l0.31-0.951c0.593,0.193,1.211,0.311,1.836,0.35L335.854,198.583z M574.058,198.167
			l-0.316-0.949c0.59-0.196,1.157-0.469,1.684-0.809l0.542,0.84C575.37,197.635,574.727,197.944,574.058,198.167z M331.851,197.284
			c-0.597-0.379-1.147-0.832-1.634-1.347l0.726-0.688c0.431,0.455,0.917,0.855,1.445,1.19L331.851,197.284z M577.593,195.889
			l-0.731-0.682c0.429-0.46,0.798-0.97,1.099-1.516l0.876,0.482C578.496,194.792,578.078,195.37,577.593,195.889z M328.96,194.23
			c-0.347-0.619-0.615-1.28-0.796-1.965l0.967-0.256c0.16,0.604,0.396,1.187,0.702,1.732L328.96,194.23z M579.618,192.204
			l-0.969-0.25c0.155-0.602,0.234-1.226,0.234-1.854l1-0.062v0.062C579.883,190.813,579.793,191.52,579.618,192.204z
			 M328.192,190.143l-0.309-0.031v-1.951h1v1.939L328.192,190.143z M579.883,188.038h-1v-2h1V188.038z M328.883,186.16h-1v-2h1
			V186.16z M579.883,184.037h-1v-2h1V184.037z M328.883,182.159h-1v-2h1V182.159z M579.883,180.036h-1v-2h1V180.036z
			 M328.883,178.158h-1v-2h1V178.158z M579.883,176.035h-1v-2h1V176.035z M328.883,174.157h-1v-2h1V174.157z M579.883,172.034h-1v-2
			h1V172.034z M328.883,170.156h-1v-2h1V170.156z M579.883,168.033h-1v-2.001h1V168.033z M328.883,166.155h-1v-2.001h1V166.155z
			 M579.883,164.032h-1v-2.001h1V164.032z M328.883,162.154h-1v-2.001h1V162.154z M579.883,160.031h-1v-2.001h1V160.031z
			 M328.883,158.153h-1v-2.001h1V158.153z M579.883,156.03h-1v-2.001h1V156.03z M328.883,154.152h-1v-2.001h1V154.152z
			 M579.883,152.029h-1v-2.001h1V152.029z M328.883,150.151h-1v-2.001h1V150.151z M579.883,148.028h-1v-2.001h1V148.028z
			 M328.883,146.15h-1v-2.001h1V146.15z M579.883,144.027h-1v-2.001h1V144.027z M328.883,142.149h-1v-2.001h1V142.149z
			 M579.883,140.026h-1v-2.001h1V140.026z M328.883,138.148h-1v-2.001h1V138.148z M579.883,136.025h-1v-2.001h1V136.025z
			 M328.883,134.147h-1v-2.001h1V134.147z M579.883,132.024h-1v-2.001h1V132.024z M328.883,130.146h-1v-2.001h1V130.146z
			 M579.883,128.023h-1v-2.001h1V128.023z M328.883,126.145h-1v-2.001h1V126.145z M579.883,124.022h-1v-2.001h1V124.022z
			 M328.883,122.144h-1v-2.001h1V122.144z M579.883,120.021h-1v-2.001h1V120.021z M328.883,118.143h-1v-2.001h1V118.143z
			 M579.883,116.02h-1v-2.001h1V116.02z M328.883,114.142h-1v-2.001h1V114.142z M579.883,112.019h-1v-2.001h1V112.019z
			 M328.883,110.141h-1v-2.001h1V110.141z M579.883,108.017h-1v-2h1V108.017z M328.883,106.139h-1v-2h1V106.139z M579.883,104.016
			h-1v-2h1V104.016z M328.883,102.138h-1v-2h1V102.138z M579.883,100.015h-1v-2h1V100.015z M328.883,98.137h-1v-2h1V98.137z
			 M579.883,96.014h-1v-2h1V96.014z M328.883,94.136h-1v-2h1V94.136z M579.883,92.013h-1v-2h1V92.013z M328.883,90.135h-1v-2h1
			V90.135z M579.883,88.012h-1v-2h1V88.012z M328.883,86.134h-1v-2h1V86.134z M579.883,84.011h-1v-2h1V84.011z M328.883,82.133h-1
			v-2h1V82.133z M579.883,80.01h-1v-2h1V80.01z M328.883,78.132h-1v-2h1V78.132z M579.883,76.009h-1v-2h1V76.009z M328.883,74.131
			h-1v-2h1V74.131z M579.883,72.008h-1V70.1l0.999-0.1L579.883,72.008z M327.883,70.13V70.1c0-0.7,0.086-1.397,0.257-2.072
			l0.97,0.244c-0.15,0.596-0.227,1.211-0.227,1.828L327.883,70.13z M578.627,68.162c-0.162-0.603-0.4-1.185-0.708-1.729l0.87-0.492
			c0.35,0.618,0.62,1.278,0.804,1.962L578.627,68.162z M329.792,66.533l-0.878-0.479c0.339-0.621,0.755-1.2,1.237-1.721l0.733,0.68
			C330.459,65.473,330.091,65.985,329.792,66.533z M576.802,64.93c-0.431-0.452-0.918-0.852-1.449-1.186l0.533-0.846
			c0.6,0.378,1.152,0.829,1.64,1.342L576.802,64.93z M332.315,63.807l-0.545-0.838c0.596-0.387,1.237-0.698,1.906-0.925l0.321,0.947
			C333.407,63.192,332.841,63.466,332.315,63.807z M573.659,62.955c-0.593-0.19-1.211-0.306-1.837-0.343l0.059-0.998
			c0.71,0.042,1.411,0.172,2.084,0.388L573.659,62.955z M335.829,62.621l-0.075-0.998c0.209-0.016,0.424-0.02,0.631-0.022h1.407v1
			h-1.409C336.198,62.601,336.011,62.607,335.829,62.621z M569.85,62.6h-2v-1h2V62.6z M565.849,62.6h-2v-1h2V62.6z M561.849,62.6h-2
			v-1h2V62.6z M557.848,62.6h-2v-1h2V62.6z M553.847,62.6h-2.001v-1h2.001V62.6z M549.845,62.6h-2v-1h2V62.6z M545.844,62.6h-2v-1h2
			V62.6z M541.843,62.6h-2v-1h2V62.6z M537.842,62.6h-2v-1h2V62.6z M533.841,62.6h-2v-1h2V62.6z M529.84,62.6h-2v-1h2V62.6z
			 M525.839,62.6h-2v-1h2V62.6z M521.838,62.6h-2v-1h2V62.6z M517.837,62.6h-2v-1h2V62.6z M513.836,62.6h-2v-1h2V62.6z
			 M509.835,62.6h-2v-1h2V62.6z M505.834,62.6h-2v-1h2V62.6z M501.833,62.6h-2v-1h2V62.6z M497.832,62.6h-2v-1h2V62.6z
			 M493.831,62.6h-2v-1h2V62.6z M489.83,62.6h-2v-1h2V62.6z M485.829,62.6h-2v-1h2V62.6z M481.828,62.6h-2v-1h2V62.6z M477.827,62.6
			h-2v-1h2V62.6z M473.826,62.6h-2v-1h2V62.6z M469.825,62.6h-2v-1h2V62.6z M465.824,62.6h-2v-1h2V62.6z M461.823,62.6h-2v-1h2V62.6
			z M457.822,62.6h-2v-1h2V62.6z M453.821,62.6h-2v-1h2V62.6z M449.82,62.6h-2v-1h2V62.6z M445.819,62.6h-2v-1h2V62.6z
			 M441.818,62.6h-2v-1h2V62.6z M437.817,62.6h-2v-1h2V62.6z M433.816,62.6h-2v-1h2V62.6z M429.815,62.6h-2v-1h2V62.6z
			 M425.814,62.6h-2.001v-1h2.001V62.6z M421.813,62.6h-2v-1h2V62.6z M417.812,62.6h-2v-1h2V62.6z M413.811,62.6h-2v-1h2V62.6z
			 M409.81,62.6h-2v-1h2V62.6z M405.809,62.6h-2v-1h2V62.6z M401.808,62.6h-2v-1h2V62.6z M397.807,62.6h-2v-1h2V62.6z M393.806,62.6
			h-2v-1h2V62.6z M389.805,62.6h-2v-1h2V62.6z M385.804,62.6h-2v-1h2V62.6z M381.803,62.6h-2v-1h2V62.6z M377.802,62.6h-2v-1h2V62.6
			z M373.801,62.6h-2v-1h2V62.6z M369.8,62.6h-2v-1h2V62.6z M365.799,62.6h-2v-1h2V62.6z M361.798,62.6h-2v-1h2V62.6z M357.797,62.6
			h-2v-1h2V62.6z M353.796,62.6h-2v-1h2V62.6z M349.795,62.6h-2v-1h2V62.6z M345.794,62.6h-2v-1h2V62.6z M341.793,62.6h-2v-1h2V62.6
			z"/>
	</g>
	<g>
		<path fill="#FFFFFF" stroke="#767676" stroke-width="0.25" d="M357.068,187.6h-26.186c-1.657,0-3,1.343-3,3v18
			c0,1.657,1.343,3,3,3h26.186c1.657,0,3-1.343,3-3v-18C360.068,188.943,358.725,187.6,357.068,187.6z"/>
		<g>
			
				<linearGradient id="SVGID_00000116206661276319369190000012889686149314366346_" gradientUnits="userSpaceOnUse" x1="-220.1175" y1="-2136.4036" x2="-217.785" y2="-2138.7361" gradientTransform="matrix(1 -0.0014 -0.0014 -1 565.2679 -1938.2826)">
				<stop  offset="0" style="stop-color:#86D633"/>
				<stop  offset="1" style="stop-color:#5E9624"/>
			</linearGradient>
			<circle fill="url(#SVGID_00000116206661276319369190000012889686149314366346_)" cx="349.295" cy="199.587" r="1.649"/>
			
				<linearGradient id="SVGID_00000012466538910450113800000010722499526298361499_" gradientUnits="userSpaceOnUse" x1="-222.2781" y1="-2134.8745" x2="-219.9605" y2="-2137.2063" gradientTransform="matrix(1 0 0 -1 564 -1937.6)">
				<stop  offset="0" style="stop-color:#86D633"/>
				<stop  offset="1" style="stop-color:#5E9624"/>
			</linearGradient>
			<circle fill="url(#SVGID_00000012466538910450113800000010722499526298361499_)" cx="344.034" cy="199.601" r="1.649"/>
			
				<linearGradient id="SVGID_00000004528828947697349410000000242570322415548823_" gradientUnits="userSpaceOnUse" x1="-227.539" y1="-2134.8745" x2="-225.2214" y2="-2137.2063" gradientTransform="matrix(1 0 0 -1 564 -1937.6)">
				<stop  offset="0" style="stop-color:#86D633"/>
				<stop  offset="1" style="stop-color:#5E9624"/>
			</linearGradient>
			<circle fill="url(#SVGID_00000004528828947697349410000000242570322415548823_)" cx="338.773" cy="199.601" r="1.649"/>
			<path fill="#50E6FF" d="M339.971,206.195l-0.944,0.946c-0.166,0.167-0.436,0.167-0.603,0.001l0,0l-6.987-6.968
				c-0.334-0.333-0.334-0.873-0.002-1.206l0,0l0.944-0.946l0,0l7.591,7.57C340.137,205.758,340.137,206.028,339.971,206.195
				L339.971,206.195z"/>
			<path fill="#1490DF" d="M338.884,192.077l0.946,0.944c0.167,0.166,0.167,0.436,0.001,0.603l-7.46,7.481l0,0l-0.946-0.944
				c-0.334-0.333-0.334-0.873-0.002-1.206l0,0l6.857-6.877C338.447,191.911,338.717,191.91,338.884,192.077z"/>
			<path fill="#50E6FF" d="M355.575,198.009l0.944,0.946c0.333,0.334,0.332,0.874-0.002,1.206l0,0l-6.987,6.968
				c-0.167,0.166-0.437,0.166-0.603-0.001l0,0l-0.944-0.946c-0.166-0.167-0.166-0.437,0.001-0.603l0,0L355.575,198.009
				L355.575,198.009z"/>
			<path fill="#1490DF" d="M356.516,200.151l-0.946,0.944l0,0l-7.46-7.481c-0.166-0.167-0.166-0.437,0.001-0.603l0,0l0.956-0.954
				c0.167-0.166,0.437-0.166,0.603,0.001l0,0l6.857,6.877c0.333,0.334,0.332,0.874-0.002,1.206l0,0L356.516,200.151z"/>
		</g>
	</g>
	<g>
		<g>
			<line fill="none" stroke="#3C3C41" stroke-miterlimit="10" x1="172.439" y1="130.968" x2="138.934" y2="130.968"/>
			<g>
				<polygon fill="#3C3C41" points="171.345,127.228 177.821,130.968 171.345,134.708 				"/>
			</g>
		</g>
	</g>
	<g>
		<g>
			<line fill="none" stroke="#3C3C41" stroke-miterlimit="10" x1="77.408" y1="130.968" x2="43.903" y2="130.968"/>
			<g>
				<polygon fill="#3C3C41" points="76.314,127.228 82.79,130.968 76.314,134.708 				"/>
			</g>
		</g>
	</g>
	<g>
		<g>
			<line fill="none" stroke="#3C3C41" stroke-miterlimit="10" x1="283.421" y1="130.968" x2="358.448" y2="130.968"/>
			<g>
				<polygon fill="#3C3C41" points="357.354,134.708 363.83,130.968 357.354,127.228 				"/>
			</g>
		</g>
	</g>
	<g>
		<g opacity="0.23">
			<rect x="365.39" y="93.4" width="82.214" height="82"/>
		</g>
		<g>
			<rect x="364.39" y="92.4" fill="#FFFFFF" width="82.214" height="82"/>
		</g>
	</g>
	<g>
		<path fill="#0078D4" d="M372.014,96.801c0,4.841-5.851,8.741-7.121,9.531c-0.147,0.09-0.333,0.09-0.48,0
			c-1.27-0.79-7.121-4.691-7.121-9.531v-5.821c0-0.25,0.2-0.455,0.45-0.46c4.551-0.12,3.5-2.12,6.911-2.12s2.36,2,6.911,2.12
			c0.25,0.005,0.45,0.21,0.45,0.46V96.801z"/>
		<path fill="#6BB9F2" d="M371.404,96.851c0,4.441-5.361,8.001-6.531,8.741c-0.136,0.081-0.304,0.081-0.44,0
			c-1.17-0.72-6.531-4.301-6.531-8.741v-5.341c0-0.228,0.182-0.415,0.41-0.42c4.171-0.11,3.21-1.94,6.341-1.94
			c3.13,0,2.17,1.83,6.341,1.94c0.228,0.005,0.41,0.192,0.41,0.42V96.851z"/>
		
			<linearGradient id="SVGID_00000040548331798321770340000012631144982606382482_" gradientUnits="userSpaceOnUse" x1="-199.328" y1="-2026.7504" x2="-199.328" y2="-2043.2526" gradientTransform="matrix(1 0 0 -1 564 -1937.6)">
			<stop  offset="0" style="stop-color:#5EA0EF"/>
			<stop  offset="0.18" style="stop-color:#559CEC"/>
			<stop  offset="0.47" style="stop-color:#3C91E5"/>
			<stop  offset="0.84" style="stop-color:#1380DA"/>
			<stop  offset="1" style="stop-color:#0078D4"/>
		</linearGradient>
		<path fill="url(#SVGID_00000040548331798321770340000012631144982606382482_)" d="M364.653,97.402V89.15
			c3.13,0,2.17,1.83,6.341,1.94c0.23,0.011,0.41,0.2,0.41,0.43v5.341c0.01,0.18,0.01,0.36,0,0.54H364.653z M364.653,97.402h-6.721
			c0.4,4.181,5.381,7.501,6.501,8.191c0.054,0.035,0.116,0.055,0.18,0.06h0.04V97.402z"/>
		<path fill="#50E6FF" d="M358.312,91.091c4.171-0.11,3.21-1.94,6.341-1.94v8.251h-6.721c-0.01-0.18-0.01-0.36,0-0.54v-5.341
			C357.931,91.301,358.095,91.116,358.312,91.091z"/>
		<path fill="#50E6FF" d="M371.374,97.402h-6.721v8.251l0,0c0.064-0.005,0.126-0.025,0.18-0.06
			C365.993,104.903,370.974,101.582,371.374,97.402z"/>
	</g>
	<g>
		<g opacity="0.23">
			<rect x="474.865" y="93.4" width="82.663" height="82"/>
		</g>
		<g>
			<rect x="473.865" y="92.4" fill="#FFFFFF" width="82.663" height="82"/>
		</g>
	</g>
	<g>
		<path fill="#0078D4" d="M482.075,96.801c0,4.841-5.851,8.741-7.121,9.531c-0.147,0.09-0.333,0.09-0.48,0
			c-1.27-0.79-7.121-4.691-7.121-9.531v-5.821c0-0.25,0.2-0.455,0.45-0.46c4.551-0.12,3.5-2.12,6.911-2.12s2.36,2,6.911,2.12
			c0.25,0.005,0.45,0.21,0.45,0.46V96.801z"/>
		<path fill="#6BB9F2" d="M481.465,96.851c0,4.441-5.361,8.001-6.531,8.741c-0.136,0.081-0.304,0.081-0.44,0
			c-1.17-0.72-6.531-4.301-6.531-8.741v-5.341c0-0.228,0.182-0.415,0.41-0.42c4.171-0.11,3.21-1.94,6.341-1.94
			c3.13,0,2.17,1.83,6.341,1.94c0.228,0.005,0.41,0.192,0.41,0.42V96.851z"/>
		
			<linearGradient id="SVGID_00000035505344820739143210000000501260629553672840_" gradientUnits="userSpaceOnUse" x1="-89.2668" y1="-2026.7504" x2="-89.2668" y2="-2043.2526" gradientTransform="matrix(1 0 0 -1 564 -1937.6)">
			<stop  offset="0" style="stop-color:#5EA0EF"/>
			<stop  offset="0.18" style="stop-color:#559CEC"/>
			<stop  offset="0.47" style="stop-color:#3C91E5"/>
			<stop  offset="0.84" style="stop-color:#1380DA"/>
			<stop  offset="1" style="stop-color:#0078D4"/>
		</linearGradient>
		<path fill="url(#SVGID_00000035505344820739143210000000501260629553672840_)" d="M474.714,97.402V89.15
			c3.13,0,2.17,1.83,6.341,1.94c0.23,0.011,0.41,0.2,0.41,0.43v5.341c0.01,0.18,0.01,0.36,0,0.54H474.714z M474.714,97.402h-6.721
			c0.4,4.181,5.381,7.501,6.501,8.191c0.054,0.035,0.116,0.055,0.18,0.06h0.04V97.402z"/>
		<path fill="#50E6FF" d="M468.374,91.091c4.171-0.11,3.21-1.94,6.341-1.94v8.251h-6.721c-0.01-0.18-0.01-0.36,0-0.54v-5.341
			C467.992,91.301,468.156,91.116,468.374,91.091z"/>
		<path fill="#50E6FF" d="M481.435,97.402h-6.721v8.251l0,0c0.064-0.005,0.126-0.025,0.18-0.06
			C476.055,104.903,481.035,101.582,481.435,97.402z"/>
	</g>
	<g>
		
			<linearGradient id="SVGID_00000051352354549156303210000013672063299597975707_" gradientUnits="userSpaceOnUse" x1="-170.9492" y1="-2059.0474" x2="-148.3256" y2="-2059.0474" gradientTransform="matrix(1 0 0 -1 564 -1937.6)">
			<stop  offset="0" style="stop-color:#005BA1"/>
			<stop  offset="0.07" style="stop-color:#0060A9"/>
			<stop  offset="0.36" style="stop-color:#0071C8"/>
			<stop  offset="0.52" style="stop-color:#0078D4"/>
			<stop  offset="0.64" style="stop-color:#0074CD"/>
			<stop  offset="0.82" style="stop-color:#006ABB"/>
			<stop  offset="1" style="stop-color:#005BA1"/>
		</linearGradient>
		<path fill="url(#SVGID_00000051352354549156303210000013672063299597975707_)" d="M404.363,112.589
			c-6.247,0-11.312-1.765-11.312-4.094v21.812c0,2.241,4.976,4.059,11.153,4.094h0.159c6.247,0,11.312-1.765,11.312-4.094v-21.812
			C415.674,110.771,410.61,112.589,404.363,112.589z"/>
		<path fill="#E8E8E8" d="M415.674,108.494c0,2.276-5.065,4.094-11.312,4.094c-6.247,0-11.312-1.765-11.312-4.094
			c0-2.329,5.065-4.094,11.312-4.094C410.61,104.4,415.674,106.165,415.674,108.494"/>
		<path fill="#50E6FF" d="M413.045,108.159c0,1.447-3.9,2.612-8.682,2.612s-8.682-1.165-8.682-2.612s3.9-2.594,8.682-2.594
			S413.045,106.73,413.045,108.159"/>
		<path fill="#198AB3" d="M404.363,108.812c-2.329-0.059-4.651,0.281-6.865,1.006c2.216,0.712,4.539,1.034,6.865,0.953
			c2.331,0.068,4.655-0.278,6.865-1.024C409.007,109.056,406.687,108.74,404.363,108.812z"/>
		
			<radialGradient id="SVGID_00000069372317332630961820000008202493929691496632_" cx="-221.1316" cy="-1268.2283" r="8.3176" gradientTransform="matrix(1.5 0 0 -1.5 736.6953 -1780.1715)" gradientUnits="userSpaceOnUse">
			<stop  offset="0" style="stop-color:#F2F2F2"/>
			<stop  offset="0.58" style="stop-color:#EEEEEE"/>
			<stop  offset="1" style="stop-color:#E6E6E6"/>
		</radialGradient>
		<path fill="url(#SVGID_00000069372317332630961820000008202493929691496632_)" d="M411.245,123.636v-6h-1.588v7.288h4.341v-1.288
			H411.245z M398.645,120.689c-0.328-0.132-0.632-0.317-0.9-0.547c-0.144-0.152-0.22-0.356-0.212-0.565
			c-0.011-0.211,0.09-0.412,0.265-0.529c0.217-0.15,0.478-0.225,0.741-0.212c0.629-0.028,1.249,0.152,1.765,0.512v-1.518
			c-0.564-0.21-1.164-0.306-1.765-0.282c-0.692-0.037-1.375,0.176-1.924,0.6c-0.485,0.374-0.761,0.958-0.741,1.571
			c0,0.9,0.565,1.606,1.765,2.135c0.39,0.165,0.757,0.379,1.094,0.635c0.167,0.14,0.264,0.347,0.265,0.565
			c0,0.217-0.105,0.421-0.282,0.547c-0.24,0.141-0.516,0.208-0.794,0.194c-0.71-0.006-1.393-0.269-1.924-0.741v1.641
			c0.583,0.3,1.233,0.446,1.888,0.424c0.74,0.044,1.473-0.161,2.082-0.582c0.437-0.413,0.652-1.009,0.582-1.606
			c0.008-0.452-0.148-0.891-0.441-1.235C399.697,121.26,399.198,120.917,398.645,120.689z M407.892,123.494
			c0.401-0.671,0.603-1.442,0.582-2.224c-0.04-0.661-0.24-1.303-0.582-1.871c-0.275-0.551-0.704-1.011-1.235-1.324
			c-0.538-0.305-1.146-0.463-1.765-0.459c-0.666-0.015-1.325,0.15-1.906,0.476c-0.545,0.304-0.992,0.757-1.288,1.306
			c-0.312,0.624-0.47,1.314-0.459,2.012c0.004,0.613,0.149,1.217,0.424,1.765c0.269,0.545,0.693,0.999,1.218,1.306
			c0.533,0.325,1.141,0.507,1.765,0.529l1.518,1.765h2.135l-2.171-1.941C406.858,124.616,407.485,124.14,407.892,123.494z
			 M406.127,123.053c-0.326,0.404-0.822,0.633-1.341,0.618c-0.523,0.017-1.023-0.22-1.341-0.635
			c-0.373-0.51-0.554-1.135-0.512-1.765c-0.041-0.63,0.14-1.254,0.512-1.765c0.336-0.415,0.842-0.655,1.376-0.653
			c0.524-0.023,1.023,0.224,1.324,0.653c0.348,0.52,0.515,1.14,0.476,1.765C406.683,121.906,406.507,122.541,406.127,123.053z"/>
	</g>
	<g>
		<path fill="#005BA1" d="M500.796,104.4h16.641c0.331,0,0.6,0.269,0.6,0.6v10.712c0,0.331-0.269,0.6-0.6,0.6h-16.641
			c-0.331,0-0.6-0.269-0.6-0.6V105C500.196,104.669,500.465,104.4,500.796,104.4z"/>
		<polygon fill="#50E6FF" points="512.09,108.618 512.09,112.094 509.126,113.824 509.126,110.365 		"/>
		<polygon fill="#C3F1FF" points="512.09,108.618 509.126,110.365 506.143,108.618 509.126,106.871 		"/>
		<polygon fill="#9CEBFF" points="509.126,110.365 509.126,113.824 506.143,112.094 506.143,108.618 		"/>
		<path fill="#0078D4" d="M507.802,111.23h16.641c0.331,0,0.6,0.269,0.6,0.6v10.712c0,0.331-0.269,0.6-0.6,0.6h-16.641
			c-0.331,0-0.6-0.269-0.6-0.6V111.83C507.202,111.498,507.471,111.23,507.802,111.23z"/>
		<polygon fill="#50E6FF" points="519.096,115.465 519.096,118.924 516.131,120.671 516.131,117.194 		"/>
		<polygon fill="#C3F1FF" points="519.096,115.465 516.131,117.194 513.149,115.465 516.131,113.718 		"/>
		<polygon fill="#9CEBFF" points="516.131,117.194 516.131,120.671 513.149,118.924 513.149,115.465 		"/>
		
			<linearGradient id="SVGID_00000124158113261405592590000007828531687398435975_" gradientUnits="userSpaceOnUse" x1="-42.7244" y1="-2067.3945" x2="-42.7244" y2="-2055.4651" gradientTransform="matrix(1 0 0 -1 564 -1937.6)">
			<stop  offset="0" style="stop-color:#0078D4"/>
			<stop  offset="0.82" style="stop-color:#5EA0EF"/>
		</linearGradient>
		<path fill="url(#SVGID_00000124158113261405592590000007828531687398435975_)" d="M512.955,117.865h16.641
			c0.331,0,0.6,0.269,0.6,0.6v10.712c0,0.331-0.269,0.6-0.6,0.6h-16.641c-0.331,0-0.6-0.269-0.6-0.6v-10.712
			C512.355,118.134,512.624,117.865,512.955,117.865z"/>
		<polygon fill="#50E6FF" points="524.249,122.1 524.249,125.559 521.284,127.306 521.284,123.83 		"/>
		<polygon fill="#C3F1FF" points="524.249,122.1 521.284,123.847 518.302,122.1 521.284,120.353 		"/>
		<polygon fill="#9CEBFF" points="521.284,123.847 521.284,127.306 518.302,125.559 518.302,122.1 		"/>
		<polygon fill="#C3F1FF" points="518.302,125.559 521.284,123.83 521.284,127.306 		"/>
		<polygon fill="#9CEBFF" points="524.249,125.559 521.284,123.83 521.284,127.306 		"/>
		
			<linearGradient id="SVGID_00000145058379972250978950000010836985019676945082_" gradientUnits="userSpaceOnUse" x1="-42.6803" y1="-2072.0002" x2="-42.6803" y2="-2067.3945" gradientTransform="matrix(1 0 0 -1 564 -1937.6)">
			<stop  offset="0.15" style="stop-color:#CCCCCC"/>
			<stop  offset="1" style="stop-color:#707070"/>
		</linearGradient>
		<path fill="url(#SVGID_00000145058379972250978950000010836985019676945082_)" d="M524.849,133.394
			c-1.765-0.282-1.765-1.553-1.765-3.529h-3.529c0,2.047,0,3.318-1.765,3.529c-0.499,0.077-0.871,0.501-0.882,1.006h8.823
			C525.72,133.895,525.348,133.471,524.849,133.394z"/>
	</g>
	<g>
		
			<linearGradient id="SVGID_00000072272339043367474060000013074716640097003920_" gradientUnits="userSpaceOnUse" x1="230.625" y1="-2301.0886" x2="230.625" y2="-2259.3335" gradientTransform="matrix(1 0 0 -1 -0.0035 -2171.6016)">
			<stop  offset="0" style="stop-color:#5E9741"/>
			<stop  offset="0.55" style="stop-color:#6BAD44"/>
			<stop  offset="1" style="stop-color:#76BC43"/>
		</linearGradient>
		<path fill="url(#SVGID_00000072272339043367474060000013074716640097003920_)" d="M212.975,106.922l16.792-16.792
			c0.472-0.472,1.236-0.472,1.708,0l16.792,16.792c0.472,0.472,0.472,1.236,0,1.708l-16.792,16.792
			c-0.472,0.472-1.236,0.472-1.708,0l-16.792-16.792C212.504,108.158,212.504,107.394,212.975,106.922z"/>
		<g>
			<path fill="#FFFFFF" d="M234.645,110.975h6.016c0.12-0.011,0.212-0.112,0.212-0.233v-5.995c0.013-0.116-0.071-0.221-0.188-0.233
				c-0.075-0.008-0.149,0.024-0.194,0.085l-1.652,1.652v0.106c-0.082,0.081-0.214,0.081-0.297,0l-7.351-7.245
				c-0.082-0.081-0.214-0.081-0.297,0l-1.864,1.864c-0.083,0.09-0.083,0.228,0,0.318l7.224,7.224c0.083,0.09,0.083,0.228,0,0.318
				l-0.106,0.106l-1.652,1.652c-0.083,0.098-0.07,0.245,0.028,0.328C234.559,110.951,234.6,110.969,234.645,110.975z"/>
			<path fill="#FFFFFF" d="M226.234,110.975h-6.016c-0.104-0.029-0.174-0.126-0.169-0.233v-5.995
				c0.002-0.117,0.098-0.21,0.215-0.209c0.054,0.001,0.106,0.022,0.145,0.061l1.674,1.652v0.106c0.082,0.081,0.214,0.081,0.297,0
				l7.309-7.245c0.082-0.081,0.214-0.081,0.297,0l1.864,1.864c0.083,0.09,0.083,0.228,0,0.318l-7.224,7.224
				c-0.083,0.09-0.083,0.228,0,0.318v0.106l1.652,1.652c0.097,0.084,0.108,0.231,0.023,0.329
				C226.282,110.944,226.259,110.961,226.234,110.975z"/>
			<path fill="#FFFFFF" d="M226.023,116.398l4.237,4.237c0.082,0.081,0.214,0.081,0.297,0l4.237-4.237
				c0.082-0.084,0.081-0.218-0.003-0.3c-0.039-0.038-0.091-0.06-0.145-0.061h-2.479c-0.113-0.01-0.202-0.099-0.212-0.212v-10.169
				c0.012-0.116-0.073-0.22-0.19-0.232c-0.007-0.001-0.015-0.001-0.022-0.001h-2.627c-0.129,0-0.233,0.104-0.233,0.233v10.169
				c0,0.117-0.095,0.212-0.212,0.212l0,0h-2.5c-0.117,0.002-0.21,0.098-0.209,0.215
				C225.963,116.307,225.984,116.359,226.023,116.398z"/>
		</g>
		<path id="ac0a9c0c-2e8c-4843-b02b-2fadf76b27d0_00000177470922746689573950000012838898647220963237_" fill="#2E76BC" d="
			M234.136,105.191c-2.571,1.855-6.16,1.274-8.015-1.297c-1.764-2.446-1.336-5.84,0.981-7.77l0,0c2.604-1.809,6.182-1.164,7.99,1.44
			c1.692,2.436,1.25,5.76-1.021,7.669"/>
		
			<linearGradient id="SVGID_00000104686684854770434940000018394161758994631565_" gradientUnits="userSpaceOnUse" x1="227.5416" y1="-2273.9526" x2="227.5204" y2="-2271.2834" gradientTransform="matrix(1 0 0 -1 0 -2171.6001)">
			<stop  offset="0" style="stop-color:#CCCCCB"/>
			<stop  offset="0.12" style="stop-color:#D7D7D7"/>
			<stop  offset="0.42" style="stop-color:#EBEBEB"/>
			<stop  offset="0.72" style="stop-color:#F8F8F8"/>
			<stop  offset="1" style="stop-color:#FDFEFE"/>
		</linearGradient>
		<circle fill="url(#SVGID_00000104686684854770434940000018394161758994631565_)" cx="227.527" cy="100.467" r="1.843"/>
		<g>
			<path opacity="0.55" fill="#F2F2F3" enable-background="new    " d="M225.705,103.539l0.403,0.636l0.297,0.424
				c0.164-0.798,0.405-1.579,0.72-2.33c-0.36-0.062-0.692-0.232-0.953-0.487C225.978,102.356,225.822,102.943,225.705,103.539z"/>
			<path opacity="0.55" fill="#F2F2F3" enable-background="new    " d="M226.912,98.73c-0.248-0.634-0.419-1.295-0.508-1.97
				c-0.277,0.296-0.519,0.623-0.72,0.974c0.084,0.536,0.226,1.062,0.424,1.568C226.327,99.051,226.603,98.855,226.912,98.73z"/>
			<path opacity="0.55" fill="#F2F2F3" enable-background="new    " d="M228.882,101.717c-0.271,0.288-0.628,0.481-1.017,0.551
				c0.305,0.311,0.631,0.601,0.975,0.869c0.433,0.317,0.894,0.593,1.377,0.826v-0.148c0.009-0.331,0.164-0.641,0.424-0.847
				C229.998,102.636,229.406,102.215,228.882,101.717z"/>
			<path opacity="0.55" fill="#F2F2F3" enable-background="new    " d="M234.433,103.963c-0.62-0.005-1.238-0.076-1.843-0.212l0,0
				c0.001,0.309-0.121,0.607-0.339,0.826c0.751,0.164,1.521,0.221,2.288,0.169c0.289-0.271,0.552-0.569,0.784-0.89L234.433,103.963z
				"/>
		</g>
		
			<linearGradient id="SVGID_00000163037190785626865750000018417501593086119590_" gradientUnits="userSpaceOnUse" x1="231.4035" y1="-2276.6006" x2="231.4035" y2="-2274.228" gradientTransform="matrix(1 0 0 -1 0 -2171.6001)">
			<stop  offset="0" style="stop-color:#CCCCCB"/>
			<stop  offset="0.12" style="stop-color:#D7D7D7"/>
			<stop  offset="0.42" style="stop-color:#EBEBEB"/>
			<stop  offset="0.72" style="stop-color:#F8F8F8"/>
			<stop  offset="1" style="stop-color:#FDFEFE"/>
		</linearGradient>
		<circle fill="url(#SVGID_00000163037190785626865750000018417501593086119590_)" cx="231.403" cy="103.814" r="1.186"/>
		<circle fill="#F2F2F3" cx="234.115" cy="100.87" r="1.271"/>
		<g>
			<path opacity="0.55" fill="#F2F2F3" enable-background="new    " d="M231.086,98.073c1.243-0.595,2.605-0.899,3.983-0.89
				c-0.284-0.365-0.619-0.686-0.996-0.953c-1.087,0.065-2.154,0.316-3.157,0.741c-0.212,0-0.403,0.233-0.614,0.339l0,0
				c-0.507-0.612-0.954-1.272-1.335-1.97l-0.72,0.275c0.379,0.755,0.84,1.466,1.377,2.118c-0.515,0.335-0.991,0.726-1.419,1.165
				c0.376,0.141,0.696,0.402,0.911,0.741c0.389-0.389,0.823-0.73,1.292-1.017c0.765,0.774,1.594,1.483,2.479,2.118
				c0.06-0.268,0.21-0.507,0.424-0.678C232.514,99.464,231.77,98.798,231.086,98.073z"/>
			<path opacity="0.55" fill="#F2F2F3" enable-background="new    " d="M236.043,101.611L236.043,101.611h-0.212l0,0h-0.169l0,0
				l-0.212-0.127c-0.074,0.25-0.222,0.471-0.424,0.636l0.254,0.148l0,0l0.233,0.127l0,0l0.593,0.297l0,0
				c0.076-0.244,0.14-0.491,0.191-0.741L236.043,101.611z"/>
		</g>
		<circle fill="#F2F2F3" cx="227.527" cy="100.467" r="1.843"/>
		<circle fill="#F2F2F3" cx="231.403" cy="103.814" r="1.186"/>
	</g>
</g>
<g id="Text">
	<g>
		<path fill="#2F2F2F" d="M19.858,163.235c0,2.753-1.242,4.129-3.726,4.129c-2.379,0-3.568-1.323-3.568-3.972v-5.995h1.148v5.92
			c0,2.01,0.848,3.015,2.543,3.015c1.636,0,2.454-0.971,2.454-2.912v-6.022h1.148V163.235z"/>
		<path fill="#2F2F2F" d="M21.548,166.947v-1.203c0.61,0.451,1.283,0.677,2.017,0.677c0.984,0,1.477-0.328,1.477-0.984
			c0-0.187-0.042-0.345-0.126-0.475c-0.085-0.13-0.199-0.245-0.342-0.346c-0.145-0.1-0.312-0.19-0.506-0.27
			c-0.194-0.08-0.402-0.163-0.626-0.25c-0.31-0.123-0.582-0.247-0.817-0.372c-0.234-0.126-0.43-0.267-0.588-0.424
			c-0.156-0.157-0.275-0.336-0.355-0.537c-0.079-0.2-0.119-0.435-0.119-0.704c0-0.328,0.075-0.618,0.226-0.871
			s0.351-0.465,0.602-0.636s0.536-0.3,0.858-0.387c0.32-0.086,0.652-0.13,0.994-0.13c0.606,0,1.148,0.105,1.627,0.314v1.135
			c-0.515-0.337-1.107-0.506-1.777-0.506c-0.21,0-0.398,0.024-0.567,0.072s-0.313,0.115-0.435,0.201
			c-0.12,0.087-0.214,0.19-0.279,0.312c-0.066,0.12-0.1,0.254-0.1,0.399c0,0.183,0.033,0.335,0.1,0.458
			c0.065,0.123,0.162,0.232,0.29,0.328s0.282,0.183,0.465,0.26c0.183,0.078,0.39,0.162,0.622,0.253
			c0.31,0.119,0.588,0.24,0.834,0.366c0.246,0.125,0.456,0.267,0.629,0.424s0.307,0.338,0.4,0.543
			c0.093,0.205,0.14,0.449,0.14,0.731c0,0.347-0.076,0.647-0.229,0.902c-0.152,0.256-0.356,0.468-0.611,0.636
			c-0.255,0.169-0.549,0.294-0.882,0.376s-0.682,0.123-1.046,0.123C22.701,167.364,22.076,167.225,21.548,166.947z"/>
		<path fill="#2F2F2F" d="M33.503,163.98H28.56c0.019,0.779,0.228,1.381,0.629,1.805s0.952,0.636,1.654,0.636
			c0.788,0,1.513-0.26,2.174-0.779v1.053c-0.615,0.447-1.429,0.67-2.44,0.67c-0.989,0-1.766-0.317-2.331-0.953
			s-0.848-1.53-0.848-2.684c0-1.089,0.309-1.977,0.926-2.662c0.618-0.687,1.385-1.029,2.301-1.029s1.625,0.297,2.126,0.889
			c0.501,0.593,0.752,1.415,0.752,2.468V163.98z M32.354,163.03c-0.005-0.646-0.161-1.15-0.468-1.511
			c-0.309-0.359-0.735-0.54-1.282-0.54c-0.528,0-0.978,0.189-1.347,0.567c-0.369,0.379-0.597,0.873-0.684,1.483H32.354z"/>
		<path fill="#2F2F2F" d="M38.836,161.335c-0.196-0.15-0.479-0.226-0.848-0.226c-0.479,0-0.879,0.226-1.199,0.677
			c-0.322,0.451-0.482,1.066-0.482,1.846v3.568h-1.121v-7h1.121v1.442h0.027c0.159-0.492,0.403-0.876,0.731-1.151
			c0.328-0.276,0.695-0.414,1.101-0.414c0.292,0,0.515,0.032,0.67,0.096V161.335z"/>
	</g>
	<g>
		<path fill="#2F2F2F" d="M89.678,167.2H88.53v-9.803h1.148V167.2z"/>
		<path fill="#2F2F2F" d="M97.754,167.2h-1.121v-3.992c0-1.485-0.542-2.229-1.627-2.229c-0.561,0-1.024,0.211-1.391,0.633
			c-0.367,0.422-0.551,0.953-0.551,1.596v3.992h-1.121v-7h1.121v1.162h0.027c0.528-0.884,1.294-1.326,2.297-1.326
			c0.766,0,1.352,0.248,1.757,0.742s0.608,1.209,0.608,2.143V167.2z"/>
		<path fill="#2F2F2F" d="M102.982,167.132c-0.265,0.146-0.613,0.219-1.046,0.219c-1.226,0-1.839-0.684-1.839-2.051v-4.143h-1.203
			V160.2h1.203v-1.709l1.121-0.361v2.07h1.764v0.957h-1.764v3.945c0,0.469,0.08,0.804,0.239,1.004
			c0.159,0.201,0.424,0.301,0.793,0.301c0.282,0,0.526-0.077,0.731-0.232V167.132z"/>
		<path fill="#2F2F2F" d="M109.975,163.981h-4.942c0.019,0.779,0.228,1.381,0.629,1.805s0.952,0.635,1.654,0.635
			c0.788,0,1.513-0.26,2.174-0.779v1.053c-0.615,0.447-1.429,0.67-2.44,0.67c-0.989,0-1.766-0.317-2.331-0.953
			s-0.848-1.53-0.848-2.684c0-1.089,0.309-1.977,0.926-2.662c0.618-0.686,1.385-1.029,2.301-1.029s1.625,0.297,2.126,0.889
			c0.501,0.593,0.752,1.416,0.752,2.469V163.981z M108.827,163.03c-0.005-0.646-0.161-1.15-0.468-1.51
			c-0.309-0.36-0.735-0.541-1.282-0.541c-0.528,0-0.978,0.189-1.347,0.568c-0.369,0.378-0.597,0.872-0.684,1.482H108.827z"/>
		<path fill="#2F2F2F" d="M115.308,161.335c-0.196-0.15-0.479-0.225-0.848-0.225c-0.479,0-0.879,0.225-1.199,0.676
			c-0.322,0.451-0.482,1.066-0.482,1.846v3.568h-1.121v-7h1.121v1.443h0.027c0.159-0.492,0.403-0.877,0.731-1.152
			s0.695-0.414,1.101-0.414c0.292,0,0.515,0.032,0.67,0.096V161.335z"/>
		<path fill="#2F2F2F" d="M122.362,167.2h-1.121v-3.992c0-1.485-0.542-2.229-1.627-2.229c-0.561,0-1.024,0.211-1.391,0.633
			c-0.367,0.422-0.551,0.953-0.551,1.596v3.992h-1.121v-7h1.121v1.162h0.027c0.528-0.884,1.294-1.326,2.297-1.326
			c0.766,0,1.352,0.248,1.757,0.742s0.608,1.209,0.608,2.143V167.2z"/>
		<path fill="#2F2F2F" d="M130.066,163.981h-4.942c0.019,0.779,0.228,1.381,0.629,1.805s0.952,0.635,1.654,0.635
			c0.788,0,1.513-0.26,2.174-0.779v1.053c-0.615,0.447-1.429,0.67-2.44,0.67c-0.989,0-1.766-0.317-2.331-0.953
			s-0.848-1.53-0.848-2.684c0-1.089,0.309-1.977,0.926-2.662c0.618-0.686,1.385-1.029,2.301-1.029c0.916,0,1.625,0.297,2.126,0.889
			c0.501,0.593,0.752,1.416,0.752,2.469V163.981z M128.918,163.03c-0.005-0.646-0.161-1.15-0.468-1.51
			c-0.309-0.36-0.735-0.541-1.282-0.541c-0.528,0-0.978,0.189-1.347,0.568c-0.369,0.378-0.597,0.872-0.684,1.482H128.918z"/>
		<path fill="#2F2F2F" d="M134.99,167.132c-0.265,0.146-0.613,0.219-1.046,0.219c-1.226,0-1.839-0.684-1.839-2.051v-4.143h-1.203
			V160.2h1.203v-1.709l1.121-0.361v2.07h1.764v0.957h-1.764v3.945c0,0.469,0.08,0.804,0.239,1.004
			c0.159,0.201,0.424,0.301,0.793,0.301c0.282,0,0.526-0.077,0.731-0.232V167.132z"/>
	</g>
	<g>
		<rect x="363.083" y="203.698" fill="none" width="120.428" height="20.702"/>
		<path fill="#2F2F2F" d="M371.654,205.797l-3.63,9.803h-1.265l-3.555-9.803h1.278l2.714,7.772c0.086,0.251,0.153,0.54,0.198,0.868
			h0.027c0.037-0.273,0.112-0.567,0.226-0.882l2.769-7.759H371.654z"/>
		<path fill="#2F2F2F" d="M373.566,206.822c-0.201,0-0.372-0.068-0.513-0.205s-0.212-0.31-0.212-0.52
			c0-0.209,0.071-0.384,0.212-0.522c0.141-0.14,0.312-0.209,0.513-0.209c0.205,0,0.379,0.069,0.523,0.209
			c0.144,0.139,0.215,0.313,0.215,0.522c0,0.201-0.072,0.372-0.215,0.513C373.945,206.752,373.771,206.822,373.566,206.822z
			 M374.113,215.599h-1.121v-7h1.121V215.599z"/>
		<path fill="#2F2F2F" d="M379.882,209.734c-0.196-0.15-0.479-0.226-0.848-0.226c-0.479,0-0.878,0.226-1.2,0.677
			s-0.482,1.066-0.482,1.846v3.568h-1.121v-7h1.121v1.442h0.027c0.16-0.492,0.403-0.876,0.731-1.151
			c0.328-0.276,0.695-0.414,1.101-0.414c0.292,0,0.515,0.032,0.67,0.096V209.734z"/>
		<path fill="#2F2F2F" d="M384.801,215.531c-0.266,0.146-0.613,0.219-1.047,0.219c-1.225,0-1.838-0.684-1.838-2.051v-4.143h-1.203
			v-0.957h1.203v-1.709l1.121-0.362v2.071h1.764v0.957h-1.764v3.944c0,0.47,0.08,0.805,0.238,1.005
			c0.16,0.201,0.424,0.301,0.793,0.301c0.283,0,0.527-0.077,0.732-0.232V215.531z"/>
		<path fill="#2F2F2F" d="M391.92,215.599h-1.121v-1.107h-0.027c-0.465,0.848-1.185,1.271-2.16,1.271
			c-1.668,0-2.502-0.993-2.502-2.98v-4.184h1.114v4.006c0,1.477,0.565,2.215,1.695,2.215c0.547,0,0.997-0.201,1.351-0.604
			c0.353-0.403,0.529-0.931,0.529-1.583v-4.033h1.121V215.599z"/>
		<path fill="#2F2F2F" d="M399.075,215.599h-1.121v-1.094h-0.027c-0.487,0.839-1.205,1.258-2.153,1.258
			c-0.697,0-1.243-0.185-1.637-0.554c-0.395-0.369-0.592-0.858-0.592-1.47c0-1.308,0.771-2.068,2.311-2.283l2.099-0.294
			c0-1.189-0.48-1.784-1.442-1.784c-0.843,0-1.604,0.287-2.283,0.861v-1.148c0.688-0.438,1.481-0.656,2.379-0.656
			c1.646,0,2.468,0.871,2.468,2.611V215.599z M397.954,212.058l-1.688,0.232c-0.52,0.073-0.911,0.202-1.176,0.387
			s-0.396,0.512-0.396,0.98c0,0.342,0.122,0.621,0.365,0.838c0.244,0.216,0.569,0.324,0.975,0.324c0.556,0,1.016-0.194,1.377-0.584
			c0.363-0.39,0.544-0.883,0.544-1.48V212.058z"/>
		<path fill="#2F2F2F" d="M402.216,215.599h-1.121v-10.363h1.121V215.599z"/>
		<path fill="#2F2F2F" d="M414.132,215.599h-1.121v-3.992c0-1.485-0.542-2.229-1.627-2.229c-0.561,0-1.024,0.211-1.391,0.633
			c-0.367,0.421-0.551,0.953-0.551,1.596v3.992h-1.121v-7h1.121v1.162h0.027c0.528-0.884,1.294-1.326,2.297-1.326
			c0.766,0,1.352,0.247,1.757,0.742c0.405,0.494,0.608,1.209,0.608,2.143V215.599z"/>
		<path fill="#2F2F2F" d="M421.835,212.38h-4.942c0.019,0.779,0.228,1.381,0.629,1.805s0.952,0.636,1.654,0.636
			c0.788,0,1.513-0.26,2.174-0.779v1.053c-0.615,0.447-1.429,0.67-2.44,0.67c-0.989,0-1.766-0.317-2.331-0.953
			s-0.848-1.53-0.848-2.684c0-1.089,0.309-1.977,0.926-2.662c0.618-0.687,1.385-1.029,2.301-1.029s1.625,0.297,2.126,0.889
			c0.501,0.593,0.752,1.415,0.752,2.468V212.38z M420.686,211.429c-0.005-0.646-0.161-1.15-0.468-1.511
			c-0.309-0.359-0.735-0.54-1.282-0.54c-0.528,0-0.978,0.189-1.347,0.567c-0.369,0.379-0.597,0.873-0.684,1.483H420.686z"/>
		<path fill="#2F2F2F" d="M426.758,215.531c-0.265,0.146-0.613,0.219-1.046,0.219c-1.226,0-1.839-0.684-1.839-2.051v-4.143h-1.203
			v-0.957h1.203v-1.709l1.121-0.362v2.071h1.764v0.957h-1.764v3.944c0,0.47,0.08,0.805,0.239,1.005
			c0.159,0.201,0.424,0.301,0.793,0.301c0.282,0,0.526-0.077,0.731-0.232V215.531z"/>
		<path fill="#2F2F2F" d="M437.449,208.599l-2.099,7h-1.162l-1.442-5.011c-0.055-0.191-0.091-0.407-0.109-0.649h-0.027
			c-0.014,0.164-0.062,0.376-0.144,0.636l-1.565,5.024h-1.121l-2.119-7h1.176l1.449,5.264c0.046,0.16,0.077,0.369,0.096,0.629h0.055
			c0.014-0.2,0.055-0.414,0.123-0.643l1.613-5.25h1.025l1.449,5.277c0.046,0.169,0.08,0.379,0.103,0.629h0.055
			c0.009-0.178,0.048-0.387,0.116-0.629l1.422-5.277H437.449z"/>
		<path fill="#2F2F2F" d="M441.524,215.763c-1.034,0-1.86-0.327-2.479-0.98c-0.617-0.654-0.926-1.521-0.926-2.602
			c0-1.176,0.321-2.094,0.964-2.755c0.643-0.66,1.511-0.991,2.604-0.991c1.044,0,1.858,0.321,2.443,0.964
			c0.586,0.643,0.879,1.534,0.879,2.673c0,1.117-0.315,2.011-0.947,2.684C443.432,215.428,442.586,215.763,441.524,215.763z
			 M441.606,209.379c-0.72,0-1.29,0.245-1.709,0.735c-0.419,0.489-0.629,1.165-0.629,2.026c0,0.83,0.212,1.483,0.636,1.962
			s0.991,0.718,1.702,0.718c0.725,0,1.281-0.234,1.672-0.704c0.389-0.469,0.584-1.137,0.584-2.003c0-0.875-0.195-1.549-0.584-2.023
			C442.887,209.616,442.331,209.379,441.606,209.379z"/>
		<path fill="#2F2F2F" d="M450.377,209.734c-0.196-0.15-0.479-0.226-0.848-0.226c-0.479,0-0.879,0.226-1.199,0.677
			c-0.322,0.451-0.482,1.066-0.482,1.846v3.568h-1.121v-7h1.121v1.442h0.027c0.159-0.492,0.403-0.876,0.731-1.151
			c0.328-0.276,0.695-0.414,1.101-0.414c0.292,0,0.515,0.032,0.67,0.096V209.734z"/>
		<path fill="#2F2F2F" d="M457.43,215.599h-1.572l-3.09-3.363h-0.027v3.363h-1.121v-10.363h1.121v6.569h0.027l2.939-3.206h1.47
			l-3.247,3.377L457.43,215.599z"/>
	</g>
	<g>
		<g>
			<path fill="#2F2F2F" d="M505.302,146.997l-3.377,9.803h-2.502l-3.336-9.803h2.379l2.044,6.822
				c0.109,0.369,0.176,0.695,0.198,0.978h0.041c0.032-0.305,0.103-0.64,0.212-1.005l2.03-6.795H505.302z"/>
			<path fill="#2F2F2F" d="M517.557,156.8h-2.181v-5.865c0-0.633,0.027-1.333,0.082-2.099h-0.055
				c-0.114,0.602-0.217,1.035-0.308,1.299l-2.297,6.665h-1.805l-2.338-6.597c-0.063-0.178-0.166-0.633-0.308-1.367h-0.062
				c0.06,0.967,0.089,1.814,0.089,2.543v5.421h-1.989v-9.803h3.233l2.003,5.811c0.159,0.465,0.275,0.933,0.349,1.401h0.041
				c0.123-0.542,0.253-1.014,0.39-1.415l2.003-5.797h3.151V156.8z"/>
			<path fill="#2F2F2F" d="M519.335,156.424v-2.188c0.396,0.333,0.827,0.582,1.292,0.749c0.465,0.166,0.935,0.249,1.408,0.249
				c0.278,0,0.521-0.024,0.728-0.075c0.208-0.05,0.381-0.119,0.52-0.208c0.14-0.089,0.243-0.194,0.312-0.314
				c0.068-0.121,0.103-0.252,0.103-0.394c0-0.191-0.055-0.362-0.164-0.513s-0.259-0.289-0.447-0.417
				c-0.189-0.127-0.414-0.25-0.674-0.369c-0.26-0.118-0.54-0.239-0.841-0.362c-0.766-0.318-1.337-0.708-1.712-1.169
				c-0.377-0.46-0.564-1.016-0.564-1.668c0-0.51,0.103-0.949,0.308-1.315c0.205-0.367,0.484-0.669,0.837-0.906
				c0.354-0.236,0.763-0.411,1.228-0.522c0.465-0.112,0.957-0.168,1.477-0.168c0.511,0,0.963,0.031,1.356,0.093
				c0.395,0.062,0.758,0.156,1.091,0.283v2.044c-0.164-0.113-0.343-0.214-0.536-0.301c-0.194-0.086-0.394-0.158-0.599-0.215
				c-0.205-0.058-0.409-0.1-0.612-0.127c-0.202-0.027-0.395-0.041-0.577-0.041c-0.251,0-0.479,0.024-0.684,0.072
				s-0.378,0.115-0.52,0.201c-0.142,0.087-0.251,0.19-0.328,0.312c-0.077,0.12-0.116,0.256-0.116,0.406
				c0,0.164,0.043,0.312,0.13,0.441s0.21,0.253,0.369,0.369s0.354,0.229,0.581,0.342c0.228,0.111,0.485,0.227,0.772,0.345
				c0.392,0.164,0.744,0.339,1.056,0.523c0.312,0.185,0.58,0.393,0.804,0.625s0.395,0.498,0.513,0.797
				c0.118,0.298,0.178,0.646,0.178,1.042c0,0.547-0.104,1.006-0.311,1.378c-0.208,0.371-0.489,0.672-0.845,0.902
				c-0.355,0.229-0.769,0.396-1.241,0.495c-0.471,0.101-0.969,0.15-1.493,0.15c-0.538,0-1.05-0.045-1.534-0.137
				C520.11,156.743,519.69,156.606,519.335,156.424z"/>
			<path fill="#2F2F2F" d="M527.195,156.424v-2.188c0.396,0.333,0.827,0.582,1.292,0.749c0.465,0.166,0.935,0.249,1.408,0.249
				c0.278,0,0.521-0.024,0.728-0.075c0.208-0.05,0.381-0.119,0.52-0.208c0.14-0.089,0.243-0.194,0.312-0.314
				c0.068-0.121,0.103-0.252,0.103-0.394c0-0.191-0.055-0.362-0.164-0.513s-0.259-0.289-0.447-0.417
				c-0.189-0.127-0.414-0.25-0.674-0.369c-0.26-0.118-0.54-0.239-0.841-0.362c-0.766-0.318-1.337-0.708-1.712-1.169
				c-0.377-0.46-0.564-1.016-0.564-1.668c0-0.51,0.103-0.949,0.308-1.315c0.205-0.367,0.484-0.669,0.837-0.906
				c0.354-0.236,0.763-0.411,1.228-0.522c0.465-0.112,0.957-0.168,1.477-0.168c0.511,0,0.963,0.031,1.356,0.093
				c0.395,0.062,0.758,0.156,1.091,0.283v2.044c-0.164-0.113-0.343-0.214-0.536-0.301c-0.194-0.086-0.394-0.158-0.599-0.215
				c-0.205-0.058-0.409-0.1-0.612-0.127c-0.202-0.027-0.395-0.041-0.577-0.041c-0.251,0-0.479,0.024-0.684,0.072
				s-0.378,0.115-0.52,0.201c-0.142,0.087-0.251,0.19-0.328,0.312c-0.077,0.12-0.116,0.256-0.116,0.406
				c0,0.164,0.043,0.312,0.13,0.441s0.21,0.253,0.369,0.369s0.354,0.229,0.581,0.342c0.228,0.111,0.485,0.227,0.772,0.345
				c0.392,0.164,0.744,0.339,1.056,0.523c0.312,0.185,0.58,0.393,0.804,0.625s0.395,0.498,0.513,0.797
				c0.118,0.298,0.178,0.646,0.178,1.042c0,0.547-0.104,1.006-0.311,1.378c-0.208,0.371-0.489,0.672-0.845,0.902
				c-0.355,0.229-0.769,0.396-1.241,0.495c-0.471,0.101-0.969,0.15-1.493,0.15c-0.538,0-1.05-0.045-1.534-0.137
				C527.97,156.743,527.55,156.606,527.195,156.424z"/>
		</g>
	</g>
	<g>
		<path fill="#2F2F2F" d="M360.083,82h-1.408l-5.045-7.813c-0.127-0.195-0.232-0.4-0.314-0.615h-0.041
			c0.037,0.21,0.055,0.659,0.055,1.347V82h-1.148v-9.803h1.49l4.908,7.69c0.205,0.319,0.337,0.538,0.396,0.656h0.027
			c-0.045-0.282-0.068-0.763-0.068-1.442v-6.904h1.148V82z"/>
		<path fill="#2F2F2F" d="M362.195,81.603V80.25c0.155,0.137,0.341,0.26,0.557,0.369s0.444,0.202,0.684,0.277
			s0.479,0.133,0.721,0.174s0.465,0.062,0.67,0.062c0.707,0,1.234-0.131,1.583-0.393c0.349-0.263,0.523-0.64,0.523-1.132
			c0-0.264-0.058-0.494-0.174-0.69c-0.116-0.195-0.277-0.375-0.482-0.536c-0.205-0.162-0.448-0.317-0.728-0.465
			c-0.28-0.148-0.582-0.305-0.906-0.469c-0.342-0.173-0.661-0.349-0.957-0.526s-0.554-0.373-0.772-0.588
			c-0.219-0.214-0.391-0.457-0.516-0.728c-0.125-0.271-0.188-0.589-0.188-0.954c0-0.446,0.098-0.835,0.294-1.165
			c0.196-0.331,0.454-0.603,0.772-0.817c0.319-0.214,0.683-0.373,1.09-0.479c0.408-0.104,0.824-0.157,1.248-0.157
			c0.966,0,1.67,0.116,2.112,0.349v1.292c-0.579-0.4-1.322-0.602-2.229-0.602c-0.25,0-0.501,0.026-0.752,0.079
			c-0.25,0.052-0.474,0.138-0.67,0.256c-0.196,0.119-0.355,0.271-0.479,0.458c-0.123,0.188-0.185,0.415-0.185,0.684
			c0,0.251,0.047,0.468,0.14,0.649c0.093,0.183,0.231,0.349,0.414,0.499s0.404,0.297,0.667,0.438
			c0.262,0.142,0.564,0.297,0.906,0.465c0.351,0.174,0.684,0.355,0.998,0.547s0.59,0.403,0.827,0.636s0.425,0.49,0.564,0.772
			c0.139,0.283,0.208,0.606,0.208,0.971c0,0.483-0.095,0.893-0.284,1.228s-0.444,0.607-0.766,0.816
			c-0.321,0.21-0.691,0.361-1.111,0.455c-0.419,0.093-0.861,0.14-1.326,0.14c-0.155,0-0.346-0.013-0.574-0.037
			c-0.228-0.025-0.46-0.062-0.697-0.109s-0.461-0.107-0.673-0.178C362.493,81.768,362.323,81.69,362.195,81.603z"/>
		<path fill="#2F2F2F" d="M377.419,81.33c-0.984,0.557-2.078,0.834-3.281,0.834c-1.399,0-2.53-0.451-3.394-1.354
			s-1.295-2.096-1.295-3.582c0-1.518,0.479-2.763,1.439-3.735c0.959-0.974,2.175-1.46,3.647-1.46c1.066,0,1.962,0.174,2.687,0.52
			v1.271c-0.793-0.501-1.732-0.752-2.816-0.752c-1.098,0-1.999,0.379-2.7,1.135c-0.702,0.757-1.053,1.736-1.053,2.939
			c0,1.24,0.326,2.214,0.978,2.923c0.652,0.708,1.536,1.062,2.652,1.062c0.766,0,1.429-0.152,1.989-0.458v-2.748h-2.146v-1.039
			h3.295V81.33z"/>
	</g>
	<g>
		<g>
			<path fill="#2F2F2F" d="M392.287,156.424v-2.188c0.396,0.333,0.827,0.582,1.292,0.749c0.465,0.166,0.935,0.249,1.408,0.249
				c0.278,0,0.521-0.024,0.728-0.075c0.208-0.05,0.381-0.119,0.52-0.208c0.14-0.089,0.243-0.194,0.312-0.314
				c0.068-0.121,0.103-0.252,0.103-0.394c0-0.191-0.055-0.362-0.164-0.513s-0.259-0.289-0.447-0.417
				c-0.189-0.127-0.414-0.25-0.674-0.369c-0.26-0.118-0.54-0.239-0.841-0.362c-0.766-0.318-1.337-0.708-1.712-1.169
				c-0.377-0.46-0.564-1.016-0.564-1.668c0-0.51,0.103-0.949,0.308-1.315c0.205-0.367,0.484-0.669,0.837-0.906
				c0.354-0.236,0.763-0.411,1.228-0.522c0.465-0.112,0.957-0.168,1.477-0.168c0.511,0,0.963,0.031,1.356,0.093
				c0.395,0.062,0.758,0.156,1.091,0.283v2.044c-0.164-0.113-0.343-0.214-0.536-0.301c-0.194-0.086-0.394-0.158-0.599-0.215
				c-0.205-0.058-0.409-0.1-0.612-0.127c-0.202-0.027-0.395-0.041-0.577-0.041c-0.251,0-0.479,0.024-0.684,0.072
				s-0.378,0.115-0.52,0.201c-0.142,0.087-0.251,0.19-0.328,0.312c-0.077,0.12-0.116,0.256-0.116,0.406
				c0,0.164,0.043,0.312,0.13,0.441s0.21,0.253,0.369,0.369s0.354,0.229,0.581,0.342c0.228,0.111,0.485,0.227,0.772,0.345
				c0.392,0.164,0.744,0.339,1.056,0.523c0.312,0.185,0.58,0.393,0.804,0.625s0.395,0.498,0.513,0.797
				c0.118,0.298,0.178,0.646,0.178,1.042c0,0.547-0.104,1.006-0.311,1.378c-0.208,0.371-0.489,0.672-0.845,0.902
				c-0.355,0.229-0.769,0.396-1.241,0.495c-0.471,0.101-0.969,0.15-1.493,0.15c-0.538,0-1.05-0.045-1.534-0.137
				C393.062,156.743,392.642,156.606,392.287,156.424z"/>
			<path fill="#2F2F2F" d="M404.647,156.971c-1.403,0-2.548-0.455-3.432-1.367c-0.884-0.92-1.326-2.112-1.326-3.575
				c0-1.545,0.449-2.798,1.347-3.76c0.894-0.957,2.083-1.436,3.568-1.436c1.399,0,2.529,0.458,3.391,1.374
				c0.866,0.912,1.299,2.119,1.299,3.623c0,1.536-0.449,2.778-1.347,3.726c-0.032,0.032-0.062,0.062-0.089,0.093
				c-0.027,0.029-0.057,0.058-0.089,0.085l2.481,2.386h-3.09l-1.299-1.319C405.633,156.914,405.162,156.971,404.647,156.971z
				 M404.743,148.733c-0.771,0-1.386,0.292-1.846,0.875c-0.456,0.579-0.684,1.347-0.684,2.304c0,0.971,0.228,1.739,0.684,2.304
				c0.456,0.565,1.053,0.848,1.791,0.848c0.761,0,1.365-0.273,1.812-0.82c0.446-0.556,0.67-1.319,0.67-2.29
				c0-1.012-0.217-1.802-0.649-2.372C406.091,149.016,405.5,148.733,404.743,148.733z"/>
			<path fill="#2F2F2F" d="M416.911,156.8h-5.838v-9.803h2.208v8.012h3.63V156.8z"/>
		</g>
	</g>
	<g>
		<path fill="#2F2F2F" d="M470.145,82h-1.408l-5.045-7.813c-0.127-0.195-0.232-0.4-0.314-0.615h-0.041
			c0.037,0.21,0.055,0.659,0.055,1.347V82h-1.148v-9.803h1.49l4.908,7.69c0.205,0.319,0.337,0.538,0.396,0.656h0.027
			c-0.045-0.282-0.068-0.763-0.068-1.442v-6.904h1.148V82z"/>
		<path fill="#2F2F2F" d="M472.257,81.603V80.25c0.155,0.137,0.341,0.26,0.557,0.369s0.444,0.202,0.684,0.277
			s0.479,0.133,0.721,0.174s0.465,0.062,0.67,0.062c0.707,0,1.234-0.131,1.583-0.393c0.349-0.263,0.523-0.64,0.523-1.132
			c0-0.264-0.058-0.494-0.174-0.69c-0.116-0.195-0.277-0.375-0.482-0.536c-0.205-0.162-0.448-0.317-0.728-0.465
			c-0.28-0.148-0.582-0.305-0.906-0.469c-0.342-0.173-0.661-0.349-0.957-0.526s-0.554-0.373-0.772-0.588
			c-0.219-0.214-0.391-0.457-0.516-0.728c-0.125-0.271-0.188-0.589-0.188-0.954c0-0.446,0.098-0.835,0.294-1.165
			c0.196-0.331,0.454-0.603,0.772-0.817c0.319-0.214,0.683-0.373,1.09-0.479c0.408-0.104,0.824-0.157,1.248-0.157
			c0.966,0,1.67,0.116,2.112,0.349v1.292c-0.579-0.4-1.322-0.602-2.229-0.602c-0.25,0-0.501,0.026-0.752,0.079
			c-0.25,0.052-0.474,0.138-0.67,0.256c-0.196,0.119-0.355,0.271-0.479,0.458c-0.123,0.188-0.185,0.415-0.185,0.684
			c0,0.251,0.047,0.468,0.14,0.649c0.093,0.183,0.231,0.349,0.414,0.499s0.404,0.297,0.667,0.438
			c0.262,0.142,0.564,0.297,0.906,0.465c0.351,0.174,0.684,0.355,0.998,0.547s0.59,0.403,0.827,0.636s0.425,0.49,0.564,0.772
			c0.139,0.283,0.208,0.606,0.208,0.971c0,0.483-0.095,0.893-0.284,1.228s-0.444,0.607-0.766,0.816
			c-0.321,0.21-0.691,0.361-1.111,0.455c-0.419,0.093-0.861,0.14-1.326,0.14c-0.155,0-0.346-0.013-0.574-0.037
			c-0.228-0.025-0.46-0.062-0.697-0.109s-0.461-0.107-0.673-0.178C472.554,81.768,472.384,81.69,472.257,81.603z"/>
		<path fill="#2F2F2F" d="M487.481,81.33c-0.984,0.557-2.078,0.834-3.281,0.834c-1.399,0-2.53-0.451-3.394-1.354
			s-1.295-2.096-1.295-3.582c0-1.518,0.479-2.763,1.439-3.735c0.959-0.974,2.175-1.46,3.647-1.46c1.066,0,1.962,0.174,2.687,0.52
			v1.271c-0.793-0.501-1.732-0.752-2.816-0.752c-1.098,0-1.999,0.379-2.7,1.135c-0.702,0.757-1.053,1.736-1.053,2.939
			c0,1.24,0.326,2.214,0.978,2.923c0.652,0.708,1.536,1.062,2.652,1.062c0.766,0,1.429-0.152,1.989-0.458v-2.748h-2.146v-1.039
			h3.295V81.33z"/>
	</g>
	<g>
		<path fill="#1E1E1E" d="M324.424,23.4h-2.406l-0.697-2.181h-3.486l-0.69,2.181h-2.393l3.568-9.803h2.618L324.424,23.4z
			 M320.815,19.524l-1.053-3.295c-0.078-0.246-0.132-0.54-0.164-0.882h-0.055c-0.023,0.287-0.08,0.571-0.171,0.854l-1.066,3.322
			H320.815z"/>
		<path fill="#1E1E1E" d="M330.98,23.4h-6.282v-0.896l3.514-4.512h-3.165V16.4h5.906v1.066l-3.329,4.341h3.356V23.4z"/>
		<path fill="#1E1E1E" d="M338.793,23.4h-2.153v-1.066h-0.034c-0.533,0.824-1.247,1.237-2.14,1.237
			c-1.623,0-2.434-0.982-2.434-2.946V16.4h2.153v4.033c0,0.988,0.392,1.483,1.176,1.483c0.387,0,0.697-0.136,0.93-0.407
			c0.232-0.271,0.349-0.639,0.349-1.104V16.4h2.153V23.4z"/>
		<path fill="#1E1E1E" d="M345.178,18.348c-0.26-0.142-0.563-0.212-0.909-0.212c-0.469,0-0.836,0.172-1.101,0.516
			c-0.264,0.345-0.396,0.812-0.396,1.405V23.4h-2.16v-7h2.16v1.299h0.027c0.342-0.948,0.957-1.422,1.846-1.422
			c0.228,0,0.406,0.027,0.533,0.082V18.348z"/>
		<path fill="#1E1E1E" d="M352.417,20.515h-4.566c0.073,1.016,0.713,1.524,1.921,1.524c0.77,0,1.447-0.183,2.03-0.547v1.559
			c-0.647,0.346-1.488,0.52-2.522,0.52c-1.13,0-2.007-0.313-2.632-0.94c-0.625-0.626-0.937-1.5-0.937-2.621
			c0-1.162,0.337-2.083,1.012-2.762c0.674-0.68,1.504-1.019,2.488-1.019c1.021,0,1.811,0.303,2.369,0.909
			c0.558,0.605,0.837,1.429,0.837,2.468V20.515z M350.414,19.189c0-1.003-0.406-1.504-1.217-1.504c-0.346,0-0.646,0.144-0.899,0.431
			s-0.407,0.645-0.461,1.073H350.414z"/>
		<path fill="#1E1E1E" d="M362.131,18.348c-0.26-0.142-0.563-0.212-0.909-0.212c-0.469,0-0.836,0.172-1.101,0.516
			c-0.264,0.345-0.396,0.812-0.396,1.405V23.4h-2.16v-7h2.16v1.299h0.027c0.342-0.948,0.957-1.422,1.846-1.422
			c0.228,0,0.406,0.027,0.533,0.082V18.348z"/>
		<path fill="#1E1E1E" d="M369.37,20.515h-4.566c0.073,1.016,0.713,1.524,1.921,1.524c0.77,0,1.447-0.183,2.03-0.547v1.559
			c-0.647,0.346-1.488,0.52-2.522,0.52c-1.13,0-2.007-0.313-2.632-0.94c-0.625-0.626-0.937-1.5-0.937-2.621
			c0-1.162,0.337-2.083,1.012-2.762c0.674-0.68,1.504-1.019,2.488-1.019c1.021,0,1.811,0.303,2.369,0.909
			c0.558,0.605,0.837,1.429,0.837,2.468V20.515z M367.367,19.189c0-1.003-0.406-1.504-1.217-1.504c-0.346,0-0.646,0.144-0.899,0.431
			s-0.407,0.645-0.461,1.073H367.367z"/>
		<path fill="#1E1E1E" d="M377.519,22.6c0,1.299-0.376,2.305-1.128,3.018c-0.752,0.714-1.841,1.07-3.268,1.07
			c-0.943,0-1.691-0.135-2.242-0.403v-1.818c0.72,0.419,1.447,0.629,2.181,0.629c0.729,0,1.294-0.192,1.695-0.578
			c0.401-0.385,0.602-0.908,0.602-1.568v-0.554h-0.027c-0.492,0.783-1.219,1.176-2.181,1.176c-0.893,0-1.602-0.314-2.126-0.943
			s-0.786-1.473-0.786-2.529c0-1.186,0.292-2.126,0.875-2.823s1.351-1.046,2.304-1.046c0.852,0,1.49,0.328,1.914,0.984h0.027V16.4
			h2.16V22.6z M375.386,20.037v-0.554c0-0.442-0.131-0.819-0.393-1.132c-0.262-0.312-0.603-0.468-1.022-0.468
			c-0.479,0-0.854,0.187-1.128,0.561c-0.273,0.373-0.41,0.899-0.41,1.579c0,0.583,0.13,1.045,0.39,1.384
			c0.26,0.34,0.615,0.51,1.066,0.51c0.447,0,0.808-0.172,1.083-0.517C375.248,21.056,375.386,20.601,375.386,20.037z"/>
		<path fill="#1E1E1E" d="M380.417,15.293c-0.365,0-0.663-0.108-0.896-0.325c-0.232-0.216-0.349-0.481-0.349-0.796
			c0-0.324,0.116-0.588,0.349-0.793s0.531-0.308,0.896-0.308c0.369,0,0.669,0.103,0.899,0.308s0.345,0.469,0.345,0.793
			c0,0.328-0.115,0.597-0.345,0.807C381.086,15.187,380.786,15.293,380.417,15.293z M381.484,23.4h-2.16v-7h2.16V23.4z"/>
		<path fill="#1E1E1E" d="M386.638,23.571c-1.167,0-2.084-0.327-2.751-0.981c-0.667-0.653-1.001-1.541-1.001-2.662
			c0-1.158,0.346-2.063,1.039-2.718c0.693-0.653,1.629-0.98,2.81-0.98c1.162,0,2.074,0.327,2.734,0.98
			c0.661,0.654,0.991,1.519,0.991,2.595c0,1.162-0.341,2.08-1.022,2.755C388.756,23.233,387.823,23.571,386.638,23.571z
			 M386.693,17.884c-0.51,0-0.907,0.175-1.189,0.526c-0.283,0.351-0.424,0.848-0.424,1.49c0,1.344,0.542,2.017,1.627,2.017
			c1.035,0,1.552-0.69,1.552-2.071C388.258,18.537,387.736,17.884,386.693,17.884z"/>
		<path fill="#1E1E1E" d="M398.621,23.4h-2.153v-3.89c0-1.085-0.387-1.627-1.162-1.627c-0.374,0-0.681,0.144-0.923,0.431
			s-0.362,0.651-0.362,1.094V23.4h-2.16v-7h2.16v1.107h0.027c0.515-0.853,1.265-1.278,2.249-1.278c1.549,0,2.324,0.961,2.324,2.885
			V23.4z"/>
	</g>
	<g>
		<rect x="182.707" y="139.679" fill="none" width="95.829" height="31.921"/>
		<path fill="#2F2F2F" d="M202.463,151.58h-2.406l-0.697-2.181h-3.486l-0.69,2.181h-2.393l3.568-9.803h2.618L202.463,151.58z
			 M198.853,147.704l-1.053-3.295c-0.077-0.246-0.132-0.54-0.164-0.882h-0.055c-0.022,0.287-0.08,0.572-0.171,0.854l-1.066,3.322
			H198.853z"/>
		<path fill="#2F2F2F" d="M205.646,150.766h-0.027v4.033h-2.16v-10.22h2.16v1.053h0.027c0.533-0.815,1.283-1.224,2.249-1.224
			c0.907,0,1.607,0.312,2.102,0.934c0.495,0.622,0.742,1.469,0.742,2.539c0,1.167-0.288,2.104-0.865,2.81
			c-0.576,0.707-1.343,1.06-2.3,1.06C206.731,151.751,206.089,151.423,205.646,150.766z M205.585,147.895v0.561
			c0,0.483,0.128,0.878,0.383,1.183c0.255,0.306,0.59,0.458,1.005,0.458c0.492,0,0.874-0.19,1.146-0.57
			c0.271-0.381,0.406-0.92,0.406-1.617c0-1.23-0.479-1.846-1.436-1.846c-0.442,0-0.803,0.168-1.084,0.503
			C205.725,146.901,205.585,147.345,205.585,147.895z"/>
		<path fill="#2F2F2F" d="M214.343,150.766h-0.027v4.033h-2.16v-10.22h2.16v1.053h0.027c0.533-0.815,1.283-1.224,2.249-1.224
			c0.907,0,1.607,0.312,2.102,0.934c0.495,0.622,0.742,1.469,0.742,2.539c0,1.167-0.288,2.104-0.865,2.81
			c-0.576,0.707-1.343,1.06-2.3,1.06C215.428,151.751,214.786,151.423,214.343,150.766z M214.282,147.895v0.561
			c0,0.483,0.128,0.878,0.383,1.183c0.255,0.306,0.59,0.458,1.005,0.458c0.492,0,0.874-0.19,1.146-0.57
			c0.271-0.381,0.406-0.92,0.406-1.617c0-1.23-0.479-1.846-1.436-1.846c-0.442,0-0.803,0.168-1.084,0.503
			C214.423,146.901,214.282,147.345,214.282,147.895z"/>
		<path fill="#2F2F2F" d="M223.026,151.58h-2.16v-10.363h2.16V151.58z"/>
		<path fill="#2F2F2F" d="M225.894,143.472c-0.364,0-0.663-0.108-0.896-0.324c-0.232-0.217-0.349-0.482-0.349-0.797
			c0-0.323,0.116-0.588,0.349-0.793s0.531-0.308,0.896-0.308c0.369,0,0.669,0.103,0.899,0.308c0.229,0.205,0.345,0.47,0.345,0.793
			c0,0.328-0.115,0.598-0.345,0.807C226.563,143.368,226.263,143.472,225.894,143.472z M226.961,151.58h-2.16v-7h2.16V151.58z"/>
		<path fill="#2F2F2F" d="M234.041,151.327c-0.487,0.283-1.191,0.424-2.112,0.424c-1.075,0-1.946-0.325-2.611-0.978
			c-0.665-0.651-0.998-1.492-0.998-2.522c0-1.189,0.356-2.127,1.07-2.812c0.713-0.687,1.666-1.029,2.86-1.029
			c0.825,0,1.422,0.109,1.791,0.328v1.832c-0.451-0.337-0.955-0.506-1.511-0.506c-0.62,0-1.111,0.182-1.473,0.544
			c-0.363,0.362-0.544,0.862-0.544,1.5c0,0.62,0.173,1.106,0.52,1.46c0.347,0.353,0.822,0.529,1.429,0.529
			c0.538,0,1.064-0.168,1.579-0.506V151.327z"/>
		<path fill="#2F2F2F" d="M241.377,151.58h-2.044v-1.005h-0.027c-0.47,0.784-1.164,1.176-2.085,1.176
			c-0.679,0-1.214-0.192-1.603-0.577c-0.391-0.386-0.585-0.899-0.585-1.542c0-1.357,0.805-2.142,2.413-2.352l1.9-0.253
			c0-0.766-0.415-1.148-1.244-1.148c-0.834,0-1.627,0.249-2.379,0.745v-1.627c0.301-0.154,0.712-0.291,1.234-0.41
			c0.521-0.118,0.996-0.178,1.425-0.178c1.996,0,2.994,0.996,2.994,2.987V151.58z M239.346,148.736v-0.472l-1.271,0.164
			c-0.702,0.092-1.053,0.408-1.053,0.95c0,0.246,0.086,0.448,0.256,0.605c0.172,0.157,0.402,0.235,0.694,0.235
			c0.405,0,0.736-0.14,0.991-0.42S239.346,149.165,239.346,148.736z"/>
		<path fill="#2F2F2F" d="M247.205,151.498c-0.319,0.169-0.8,0.253-1.442,0.253c-1.522,0-2.283-0.79-2.283-2.372v-3.206h-1.135
			v-1.593h1.135v-1.511l2.153-0.615v2.126h1.572v1.593h-1.572v2.83c0,0.729,0.289,1.094,0.868,1.094
			c0.228,0,0.463-0.065,0.704-0.198V151.498z"/>
		<path fill="#2F2F2F" d="M249.583,143.472c-0.364,0-0.663-0.108-0.896-0.324c-0.232-0.217-0.349-0.482-0.349-0.797
			c0-0.323,0.116-0.588,0.349-0.793s0.531-0.308,0.896-0.308c0.369,0,0.669,0.103,0.899,0.308c0.229,0.205,0.345,0.47,0.345,0.793
			c0,0.328-0.115,0.598-0.345,0.807C250.252,143.368,249.952,143.472,249.583,143.472z M250.649,151.58h-2.16v-7h2.16V151.58z"/>
		<path fill="#2F2F2F" d="M255.759,151.751c-1.167,0-2.084-0.327-2.751-0.98c-0.668-0.654-1.002-1.542-1.002-2.663
			c0-1.157,0.347-2.063,1.039-2.717c0.692-0.654,1.629-0.981,2.81-0.981c1.162,0,2.073,0.327,2.734,0.981
			c0.661,0.653,0.991,1.519,0.991,2.594c0,1.162-0.341,2.081-1.021,2.755C257.878,151.414,256.944,151.751,255.759,151.751z
			 M255.814,146.063c-0.511,0-0.907,0.176-1.189,0.526c-0.282,0.352-0.424,0.848-0.424,1.49c0,1.345,0.542,2.017,1.627,2.017
			c1.034,0,1.552-0.69,1.552-2.071C257.38,146.718,256.858,146.063,255.814,146.063z"/>
		<path fill="#2F2F2F" d="M267.722,151.58h-2.153v-3.89c0-1.084-0.388-1.627-1.162-1.627c-0.374,0-0.682,0.144-0.923,0.431
			s-0.362,0.652-0.362,1.094v3.992h-2.16v-7h2.16v1.107h0.027c0.515-0.852,1.265-1.278,2.249-1.278c1.55,0,2.324,0.962,2.324,2.885
			V151.58z"/>
		<path fill="#2F2F2F" d="M211.649,167.723c-0.957,0.552-2.146,0.827-3.568,0.827c-1.577,0-2.819-0.437-3.729-1.309
			c-0.908-0.873-1.363-2.075-1.363-3.606c0-1.54,0.497-2.796,1.49-3.767s2.315-1.456,3.965-1.456c1.039,0,1.955,0.144,2.748,0.431
			v2.071c-0.757-0.438-1.682-0.656-2.775-0.656c-0.916,0-1.662,0.298-2.238,0.893c-0.577,0.595-0.865,1.389-0.865,2.382
			c0,1.008,0.259,1.787,0.775,2.338c0.518,0.552,1.216,0.827,2.096,0.827c0.528,0,0.948-0.075,1.258-0.226v-1.914h-1.962v-1.764
			h4.17V167.723z"/>
		<path fill="#2F2F2F" d="M219.258,168.38h-2.044v-1.005h-0.027c-0.47,0.784-1.164,1.176-2.085,1.176
			c-0.679,0-1.214-0.192-1.603-0.577c-0.391-0.386-0.585-0.899-0.585-1.542c0-1.357,0.805-2.142,2.413-2.352l1.9-0.253
			c0-0.766-0.415-1.148-1.244-1.148c-0.834,0-1.627,0.249-2.379,0.745v-1.627c0.301-0.154,0.712-0.291,1.234-0.41
			c0.521-0.118,0.996-0.178,1.425-0.178c1.996,0,2.994,0.996,2.994,2.987V168.38z M217.228,165.536v-0.472l-1.271,0.164
			c-0.702,0.092-1.053,0.408-1.053,0.95c0,0.246,0.086,0.448,0.256,0.605c0.172,0.157,0.402,0.235,0.694,0.235
			c0.405,0,0.736-0.14,0.991-0.42S217.228,165.965,217.228,165.536z"/>
		<path fill="#2F2F2F" d="M225.087,168.298c-0.319,0.169-0.8,0.253-1.442,0.253c-1.522,0-2.283-0.79-2.283-2.372v-3.206h-1.135
			v-1.593h1.135v-1.511l2.153-0.615v2.126h1.572v1.593h-1.572v2.83c0,0.729,0.289,1.094,0.868,1.094
			c0.228,0,0.463-0.065,0.704-0.198V168.298z"/>
		<path fill="#2F2F2F" d="M232.573,165.495h-4.566c0.073,1.017,0.713,1.524,1.921,1.524c0.771,0,1.447-0.182,2.03-0.547v1.559
			c-0.647,0.347-1.488,0.52-2.522,0.52c-1.13,0-2.008-0.313-2.632-0.939c-0.624-0.627-0.937-1.501-0.937-2.622
			c0-1.162,0.337-2.082,1.012-2.762c0.675-0.679,1.504-1.019,2.488-1.019c1.021,0,1.811,0.304,2.369,0.909
			c0.558,0.606,0.837,1.429,0.837,2.468V165.495z M230.57,164.169c0-1.002-0.405-1.504-1.217-1.504
			c-0.347,0-0.646,0.144-0.898,0.431c-0.254,0.287-0.407,0.646-0.462,1.073H230.57z"/>
		<path fill="#2F2F2F" d="M243.937,161.38l-2.017,7h-2.27l-1.032-4.102c-0.068-0.273-0.107-0.571-0.116-0.896h-0.041
			c-0.032,0.355-0.077,0.646-0.137,0.868l-1.107,4.129h-2.242l-1.976-7h2.201l0.964,4.566c0.046,0.215,0.08,0.475,0.103,0.779h0.041
			c0.022-0.318,0.063-0.588,0.123-0.807l1.203-4.539h2.058l1.08,4.566c0.027,0.114,0.06,0.379,0.096,0.793h0.048
			c0.022-0.264,0.06-0.528,0.109-0.793l0.909-4.566H243.937z"/>
		<path fill="#2F2F2F" d="M250.674,168.38h-2.044v-1.005h-0.027c-0.47,0.784-1.164,1.176-2.085,1.176
			c-0.679,0-1.214-0.192-1.603-0.577c-0.391-0.386-0.585-0.899-0.585-1.542c0-1.357,0.805-2.142,2.413-2.352l1.9-0.253
			c0-0.766-0.415-1.148-1.244-1.148c-0.834,0-1.627,0.249-2.379,0.745v-1.627c0.301-0.154,0.712-0.291,1.234-0.41
			c0.521-0.118,0.996-0.178,1.425-0.178c1.996,0,2.994,0.996,2.994,2.987V168.38z M248.644,165.536v-0.472l-1.271,0.164
			c-0.702,0.092-1.053,0.408-1.053,0.95c0,0.246,0.086,0.448,0.256,0.605c0.172,0.157,0.402,0.235,0.694,0.235
			c0.405,0,0.736-0.14,0.991-0.42S248.644,165.965,248.644,165.536z"/>
		<path fill="#2F2F2F" d="M258.802,161.38l-2.844,7.561c-0.684,1.818-1.714,2.728-3.09,2.728c-0.524,0-0.955-0.059-1.292-0.178
			v-1.723c0.287,0.169,0.6,0.253,0.937,0.253c0.556,0,0.943-0.262,1.162-0.786l0.369-0.868l-2.844-6.986h2.393l1.306,4.259
			c0.082,0.265,0.146,0.577,0.191,0.937h0.027c0.041-0.264,0.116-0.571,0.226-0.923l1.319-4.272H258.802z"/>
	</g>
</g>
<g id="Layer_1">
</g>
<g id="f3b54d7d-7db0-469c-afc7-ffc9b14d26c9">
</g>
<g id="eedd0b6b-34f2-4543-8afa-50340a9921da">
</g>
<g id="ec71760d-ea07-41d5-9506-94a0f2677aa9">
</g>
</svg>
