<?xml version="1.0" encoding="utf-8"?>
<!-- Generator: Adobe Illustrator 27.9.0, SVG Export Plug-In . SVG Version: 6.00 Build 0)  -->
<svg version="1.1" xmlns="http://www.w3.org/2000/svg" xmlns:xlink="http://www.w3.org/1999/xlink" x="0px" y="0px"
	 viewBox="0 0 536.868 445.911" enable-background="new 0 0 536.868 445.911" xml:space="preserve">
<symbol  id="PIPELINE" viewBox="-32 -12.266 64 24.531">
	<linearGradient id="SVGID_1_" gradientUnits="userSpaceOnUse" x1="0" y1="-12.2655" x2="1.502093e-15" y2="12.2655">
		<stop  offset="0" style="stop-color:#1B89B2"/>
		<stop  offset="1" style="stop-color:#51C8E8"/>
	</linearGradient>
	<path fill="url(#SVGID_1_)" d="M26.096,12.266h-51.448v0h0C-29.08,12.265-32,6.878-32,0s2.92-12.265,6.648-12.265h0v0h51.448
		C29.356-12.266,32-6.363,32,0S29.356,12.266,26.096,12.266z"/>
	<g>
		
			<linearGradient id="SVGID_00000023965592761048723380000018226330632895223725_" gradientUnits="userSpaceOnUse" x1="-31.461" y1="-6.1136" x2="-19.2338" y2="6.1136">
			<stop  offset="0" style="stop-color:#B3B4B4"/>
			<stop  offset="1" style="stop-color:#4F4F4F"/>
		</linearGradient>
		<ellipse fill="url(#SVGID_00000023965592761048723380000018226330632895223725_)" cx="-25.347" cy="0" rx="5.575" ry="10.879"/>
	</g>
</symbol>
<g id="Shapes">
	<rect fill="#FFFFFF" width="536.868" height="445.911"/>
	<g>
		<g opacity="0.23">
			<rect x="104.483" y="138.62" width="110" height="176"/>
			<rect x="104.483" y="138.62" opacity="0.45" width="110" height="176"/>
		</g>
		<g>
			<rect x="103.483" y="137.62" fill="#FFFFFF" width="110" height="176"/>
			<rect x="103.483" y="137.62" opacity="0.45" fill="#B4EC36" width="110" height="176"/>
		</g>
	</g>
	<g>
		<g opacity="0.5">
			<rect x="245.283" y="33.02" fill="#207067" width="279.585" height="400.69"/>
			<rect x="245.283" y="33.02" opacity="0.2" fill="#207067" width="279.585" height="400.69"/>
		</g>
		<g>
			<rect x="244.283" y="32.02" fill="#FFFFFF" width="279.585" height="400.69"/>
			<rect x="244.283" y="32.02" opacity="0.2" fill="#83B9F9" width="279.585" height="400.69"/>
		</g>
	</g>
	<g>
		<g>
			<path fill="#FFFFFF" d="M508.983,186.611c0,4.4-3.6,8-8,8h-235c-4.4,0-8-3.6-8-8v-120c0-4.4,3.6-8,8-8h235c4.4,0,8,3.6,8,8
				V186.611z"/>
			<path opacity="0.4" fill="#83B9F9" d="M508.983,186.611c0,4.4-3.6,8-8,8h-235c-4.4,0-8-3.6-8-8v-120c0-4.4,3.6-8,8-8h235
				c4.4,0,8,3.6,8,8V186.611z"/>
			<path opacity="0.4" fill="none" stroke="#0078D4" stroke-linejoin="round" d="M508.983,186.611c0,4.4-3.6,8-8,8h-235
				c-4.4,0-8-3.6-8-8v-120c0-4.4,3.6-8,8-8h235c4.4,0,8,3.6,8,8V186.611z"/>
		</g>
		<path fill="#0078D4" d="M500.985,195.111h-1.442v-1h1.439c0.175-0.001,0.352-0.008,0.526-0.02l0.068,0.998
			C501.382,195.103,501.184,195.11,500.985,195.111z M497.543,195.111h-2v-1h2V195.111z M493.542,195.111h-2v-1h2V195.111z
			 M489.541,195.111h-2v-1h2V195.111z M485.539,195.111h-2v-1h2V195.111z M481.538,195.111h-2v-1h2V195.111z M477.537,195.111h-2v-1
			h2V195.111z M473.536,195.111h-2v-1h2V195.111z M469.535,195.111h-2v-1h2V195.111z M465.534,195.111h-2v-1h2V195.111z
			 M461.533,195.111h-2v-1h2V195.111z M457.533,195.111h-2v-1h2V195.111z M453.532,195.111h-2v-1h2V195.111z M449.531,195.111h-2v-1
			h2V195.111z M445.53,195.111h-2v-1h2V195.111z M441.529,195.111h-2v-1h2V195.111z M437.528,195.111h-2v-1h2V195.111z
			 M433.527,195.111h-2.001v-1h2.001V195.111z M429.525,195.111h-2v-1h2V195.111z M425.524,195.111h-2v-1h2V195.111z
			 M421.523,195.111h-2v-1h2V195.111z M417.522,195.111h-2v-1h2V195.111z M413.521,195.111h-2v-1h2V195.111z M409.52,195.111h-2v-1
			h2V195.111z M405.519,195.111h-2v-1h2V195.111z M401.518,195.111h-2v-1h2V195.111z M397.517,195.111h-2v-1h2V195.111z
			 M393.516,195.111h-2v-1h2V195.111z M389.515,195.111h-2v-1h2V195.111z M385.514,195.111h-2v-1h2V195.111z M381.513,195.111h-2v-1
			h2V195.111z M377.512,195.111h-2v-1h2V195.111z M373.512,195.111h-2v-1h2V195.111z M369.51,195.111h-2v-1h2V195.111z
			 M365.509,195.111h-2v-1h2V195.111z M361.508,195.111h-2v-1h2V195.111z M357.507,195.111h-2v-1h2V195.111z M353.506,195.111h-2v-1
			h2V195.111z M349.505,195.111h-2v-1h2V195.111z M345.504,195.111h-2v-1h2V195.111z M341.503,195.111h-2v-1h2V195.111z
			 M337.502,195.111h-2v-1h2V195.111z M333.501,195.111h-2v-1h2V195.111z M329.5,195.111h-2v-1h2V195.111z M325.499,195.111h-2v-1h2
			V195.111z M321.498,195.111h-2v-1h2V195.111z M317.497,195.111h-2v-1h2V195.111z M313.496,195.111h-2v-1h2V195.111z
			 M309.495,195.111h-2v-1h2V195.111z M305.494,195.111h-2.001v-1h2.001V195.111z M301.493,195.111h-2v-1h2V195.111z
			 M297.492,195.111h-2v-1h2V195.111z M293.491,195.111h-2v-1h2V195.111z M289.49,195.111h-2v-1h2V195.111z M285.489,195.111h-2v-1
			h2V195.111z M281.488,195.111h-2v-1h2V195.111z M277.487,195.111h-2v-1h2V195.111z M273.486,195.111h-2v-1h2V195.111z
			 M269.485,195.111h-2v-1h2V195.111z M265.454,195.094c-0.709-0.044-1.411-0.178-2.084-0.396l0.31-0.951
			c0.593,0.193,1.211,0.311,1.836,0.35L265.454,195.094z M503.658,194.678l-0.316-0.949c0.59-0.196,1.157-0.469,1.684-0.809
			l0.542,0.84C504.97,194.146,504.327,194.454,503.658,194.678z M261.451,193.794c-0.597-0.379-1.147-0.832-1.634-1.347l0.726-0.688
			c0.431,0.455,0.917,0.855,1.445,1.19L261.451,193.794z M507.193,192.4l-0.731-0.682c0.429-0.46,0.798-0.97,1.099-1.516
			l0.876,0.482C508.096,191.303,507.678,191.88,507.193,192.4z M258.56,190.741c-0.347-0.619-0.615-1.28-0.796-1.965l0.967-0.256
			c0.16,0.604,0.396,1.187,0.702,1.732L258.56,190.741z M509.218,188.714l-0.969-0.25c0.155-0.602,0.234-1.226,0.234-1.854l1-0.062
			v0.062C509.483,187.324,509.393,188.031,509.218,188.714z M257.792,186.654l-0.309-0.031v-1.951h1v1.939L257.792,186.654z
			 M509.483,184.548h-1v-2h1V184.548z M258.483,182.67h-1v-2h1V182.67z M509.483,180.547h-1v-2h1V180.547z M258.483,178.669h-1v-2h1
			V178.669z M509.483,176.546h-1v-2h1V176.546z M258.483,174.668h-1v-2h1V174.668z M509.483,172.545h-1v-2h1V172.545z
			 M258.483,170.667h-1v-2h1V170.667z M509.483,168.544h-1v-2h1V168.544z M258.483,166.666h-1v-2h1V166.666z M509.483,164.543h-1
			v-2.001h1V164.543z M258.483,162.665h-1v-2.001h1V162.665z M509.483,160.542h-1v-2.001h1V160.542z M258.483,158.664h-1v-2.001h1
			V158.664z M509.483,156.541h-1v-2.001h1V156.541z M258.483,154.663h-1v-2.001h1V154.663z M509.483,152.54h-1v-2.001h1V152.54z
			 M258.483,150.662h-1v-2.001h1V150.662z M509.483,148.539h-1v-2.001h1V148.539z M258.483,146.661h-1v-2.001h1V146.661z
			 M509.483,144.538h-1v-2.001h1V144.538z M258.483,142.66h-1v-2.001h1V142.66z M509.483,140.537h-1v-2.001h1V140.537z
			 M258.483,138.66h-1v-2.001h1V138.66z M509.483,136.536h-1v-2.001h1V136.536z M258.483,134.659h-1v-2.001h1V134.659z
			 M509.483,132.535h-1v-2.001h1V132.535z M258.483,130.658h-1v-2.001h1V130.658z M509.483,128.535h-1v-2.001h1V128.535z
			 M258.483,126.657h-1v-2.001h1V126.657z M509.483,124.534h-1v-2.001h1V124.534z M258.483,122.656h-1v-2.001h1V122.656z
			 M509.483,120.533h-1v-2.001h1V120.533z M258.483,118.655h-1v-2.001h1V118.655z M509.483,116.532h-1v-2.001h1V116.532z
			 M258.483,114.654h-1v-2.001h1V114.654z M509.483,112.531h-1v-2.001h1V112.531z M258.483,110.653h-1v-2.001h1V110.653z
			 M509.483,108.53h-1v-2.001h1V108.53z M258.483,106.652h-1v-2.001h1V106.652z M509.483,104.528h-1v-2h1V104.528z M258.483,102.65
			h-1v-2h1V102.65z M509.483,100.527h-1v-2h1V100.527z M258.483,98.649h-1v-2h1V98.649z M509.483,96.526h-1v-2h1V96.526z
			 M258.483,94.648h-1v-2h1V94.648z M509.483,92.525h-1v-2h1V92.525z M258.483,90.647h-1v-2h1V90.647z M509.483,88.524h-1v-2h1
			V88.524z M258.483,86.646h-1v-2h1V86.646z M509.483,84.523h-1v-2h1V84.523z M258.483,82.645h-1v-2h1V82.645z M509.483,80.522h-1
			v-2h1V80.522z M258.483,78.644h-1v-2h1V78.644z M509.483,76.521h-1v-2h1V76.521z M258.483,74.643h-1v-2h1V74.643z M509.483,72.52
			h-1v-2h1V72.52z M258.483,70.642h-1v-2h1V70.642z M509.483,68.519h-1v-1.908l0.999-0.1L509.483,68.519z M257.483,66.641v-0.03
			c0-0.7,0.086-1.397,0.257-2.072l0.97,0.244c-0.15,0.596-0.227,1.211-0.227,1.828L257.483,66.641z M508.227,64.673
			c-0.162-0.603-0.4-1.185-0.708-1.729l0.87-0.492c0.35,0.618,0.62,1.278,0.804,1.962L508.227,64.673z M259.392,63.043l-0.878-0.479
			c0.339-0.621,0.755-1.2,1.237-1.721l0.733,0.68C260.059,61.984,259.691,62.495,259.392,63.043z M506.402,61.441
			c-0.431-0.452-0.918-0.852-1.449-1.186l0.533-0.846c0.6,0.378,1.152,0.829,1.64,1.342L506.402,61.441z M261.915,60.318
			l-0.545-0.838c0.596-0.387,1.237-0.698,1.906-0.925l0.321,0.947C263.007,59.702,262.441,59.977,261.915,60.318z M503.259,59.466
			c-0.593-0.19-1.211-0.306-1.837-0.343l0.059-0.998c0.71,0.042,1.411,0.172,2.084,0.388L503.259,59.466z M265.429,59.131
			l-0.075-0.998c0.209-0.016,0.425-0.022,0.631-0.022h1.407v1h-1.409C265.802,59.122,265.612,59.118,265.429,59.131z M499.45,59.111
			h-2v-1h2V59.111z M495.449,59.111h-2v-1h2V59.111z M491.449,59.111h-2v-1h2V59.111z M487.448,59.111h-2v-1h2V59.111z
			 M483.447,59.111h-2.001v-1h2.001V59.111z M479.445,59.111h-2v-1h2V59.111z M475.444,59.111h-2v-1h2V59.111z M471.443,59.111h-2
			v-1h2V59.111z M467.442,59.111h-2v-1h2V59.111z M463.441,59.111h-2v-1h2V59.111z M459.44,59.111h-2v-1h2V59.111z M455.439,59.111
			h-2v-1h2V59.111z M451.438,59.111h-2v-1h2V59.111z M447.437,59.111h-2v-1h2V59.111z M443.436,59.111h-2v-1h2V59.111z
			 M439.435,59.111h-2v-1h2V59.111z M435.434,59.111h-2v-1h2V59.111z M431.433,59.111h-2v-1h2V59.111z M427.432,59.111h-2v-1h2
			V59.111z M423.431,59.111h-2v-1h2V59.111z M419.43,59.111h-2v-1h2V59.111z M415.429,59.111h-2v-1h2V59.111z M411.428,59.111h-2v-1
			h2V59.111z M407.427,59.111h-2v-1h2V59.111z M403.426,59.111h-2v-1h2V59.111z M399.425,59.111h-2v-1h2V59.111z M395.424,59.111h-2
			v-1h2V59.111z M391.423,59.111h-2v-1h2V59.111z M387.422,59.111h-2v-1h2V59.111z M383.421,59.111h-2v-1h2V59.111z M379.42,59.111
			h-2v-1h2V59.111z M375.419,59.111h-2v-1h2V59.111z M371.418,59.111h-2v-1h2V59.111z M367.417,59.111h-2v-1h2V59.111z
			 M363.416,59.111h-2v-1h2V59.111z M359.415,59.111h-2v-1h2V59.111z M355.414,59.111h-2.001v-1h2.001V59.111z M351.413,59.111h-2
			v-1h2V59.111z M347.412,59.111h-2v-1h2V59.111z M343.411,59.111h-2v-1h2V59.111z M339.41,59.111h-2v-1h2V59.111z M335.409,59.111
			h-2v-1h2V59.111z M331.408,59.111h-2v-1h2V59.111z M327.407,59.111h-2v-1h2V59.111z M323.406,59.111h-2v-1h2V59.111z
			 M319.405,59.111h-2v-1h2V59.111z M315.404,59.111h-2v-1h2V59.111z M311.403,59.111h-2v-1h2V59.111z M307.402,59.111h-2v-1h2
			V59.111z M303.401,59.111h-2v-1h2V59.111z M299.4,59.111h-2v-1h2V59.111z M295.399,59.111h-2v-1h2V59.111z M291.398,59.111h-2v-1
			h2V59.111z M287.397,59.111h-2v-1h2V59.111z M283.396,59.111h-2v-1h2V59.111z M279.395,59.111h-2v-1h2V59.111z M275.394,59.111h-2
			v-1h2V59.111z M271.393,59.111h-2v-1h2V59.111z"/>
	</g>
	<g>
		<path fill="#FFFFFF" stroke="#767676" stroke-width="0.25" d="M286.668,186.02h-26.186c-1.657,0-3,1.343-3,3v18
			c0,1.657,1.343,3,3,3h26.186c1.657,0,3-1.343,3-3v-18C289.668,187.363,288.325,186.02,286.668,186.02z"/>
		<g>
			
				<linearGradient id="SVGID_00000168832384999137695450000000060036498726327443_" gradientUnits="userSpaceOnUse" x1="-289.8004" y1="-1110.905" x2="-287.4679" y2="-1113.2375" gradientTransform="matrix(1 -0.0014 -0.0014 -1 565.9827 -914.4613)">
				<stop  offset="0" style="stop-color:#86D633"/>
				<stop  offset="1" style="stop-color:#5E9624"/>
			</linearGradient>
			<circle fill="url(#SVGID_00000168832384999137695450000000060036498726327443_)" cx="278.895" cy="198.007" r="1.649"/>
			
				<linearGradient id="SVGID_00000067206505441356591240000012770942024353591699_" gradientUnits="userSpaceOnUse" x1="-292.6781" y1="-1109.4733" x2="-290.3605" y2="-1111.8051" gradientTransform="matrix(1 0 0 -1 564 -913.7786)">
				<stop  offset="0" style="stop-color:#86D633"/>
				<stop  offset="1" style="stop-color:#5E9624"/>
			</linearGradient>
			<circle fill="url(#SVGID_00000067206505441356591240000012770942024353591699_)" cx="273.634" cy="198.021" r="1.649"/>
			
				<linearGradient id="SVGID_00000116193771672627886010000013879501347867688635_" gradientUnits="userSpaceOnUse" x1="-297.939" y1="-1109.4733" x2="-295.6214" y2="-1111.8051" gradientTransform="matrix(1 0 0 -1 564 -913.7786)">
				<stop  offset="0" style="stop-color:#86D633"/>
				<stop  offset="1" style="stop-color:#5E9624"/>
			</linearGradient>
			<circle fill="url(#SVGID_00000116193771672627886010000013879501347867688635_)" cx="268.373" cy="198.021" r="1.649"/>
			<path fill="#50E6FF" d="M269.571,204.615l-0.944,0.946c-0.166,0.167-0.436,0.167-0.603,0.001l0,0l-6.987-6.968
				c-0.334-0.333-0.334-0.873-0.002-1.206l0,0l0.944-0.946l0,0l7.591,7.57C269.737,204.178,269.737,204.448,269.571,204.615
				L269.571,204.615z"/>
			<path fill="#1490DF" d="M268.484,190.497l0.946,0.944c0.167,0.166,0.167,0.436,0.001,0.603l-7.46,7.481l0,0l-0.946-0.944
				c-0.334-0.333-0.334-0.873-0.002-1.206l0,0l6.857-6.877C268.047,190.331,268.317,190.33,268.484,190.497z"/>
			<path fill="#50E6FF" d="M285.175,196.429l0.944,0.946c0.333,0.334,0.332,0.874-0.002,1.206l0,0l-6.987,6.968
				c-0.167,0.166-0.437,0.166-0.603-0.001l0,0l-0.944-0.946c-0.166-0.167-0.166-0.437,0.001-0.603l0,0L285.175,196.429
				L285.175,196.429z"/>
			<path fill="#1490DF" d="M286.116,198.571l-0.946,0.944l0,0l-7.46-7.481c-0.166-0.167-0.166-0.437,0.001-0.603l0,0l0.956-0.954
				c0.167-0.166,0.437-0.166,0.603,0.001l0,0l6.857,6.877c0.333,0.334,0.332,0.874-0.002,1.206l0,0L286.116,198.571z"/>
		</g>
	</g>
	<g id="Wrench_tool_x28_s_x29_">
	</g>
	<g id="user2">
	</g>
	<g id="user2_1_">
	</g>
	<g id="user2_4_">
	</g>
	<g id="user2_3_">
	</g>
	<g id="user2_2_">
	</g>
	<g id="Internet_2">
	</g>
	<g id="Enterprise">
	</g>
	<g id="Tunnel__x28_stackable_x29_">
	</g>
	<g id="New_Symbol">
	</g>
	<g id="New_Symbol_1">
	</g>
	<g id="Files">
	</g>
	<g id="BlobBlock">
	</g>
	<g id="E_x5F_Enterprise">
	</g>
	<g id="E_x5F_AD_FS">
	</g>
	<g id="C_x5F_Azure_Active_Directory">
	</g>
	<g>
		<g>
			<line fill="none" stroke="#3C3C41" stroke-miterlimit="10" x1="98.101" y1="225.62" x2="64.596" y2="225.62"/>
			<g>
				<polygon fill="#3C3C41" points="97.006,221.881 103.483,225.62 97.006,229.36 				"/>
			</g>
		</g>
	</g>
	<g>
		<g>
			<line fill="none" stroke="#3C3C41" stroke-miterlimit="10" x1="213.483" y1="150.82" x2="282.901" y2="150.82"/>
			<g>
				<polygon fill="#3C3C41" points="281.806,154.56 288.283,150.82 281.806,147.081 				"/>
			</g>
		</g>
	</g>
	
		<linearGradient id="SVGID_00000004543745404694338040000010820766662707817126_" gradientUnits="userSpaceOnUse" x1="-527.129" y1="-1151.799" x2="-527.129" y2="-1121.799" gradientTransform="matrix(1 0 0 -1 564 -913.7786)">
		<stop  offset="0" style="stop-color:#0078D4"/>
		<stop  offset="0.82" style="stop-color:#5EA0EF"/>
	</linearGradient>
	<path fill="url(#SVGID_00000004543745404694338040000010820766662707817126_)" d="M58.02,228.611
		c-0.152-4.651-3.637-8.513-8.248-9.141c-0.292-6.546-5.788-11.643-12.337-11.444c-5.221-0.096-9.933,3.117-11.749,8.013
		c-5.56,0.671-9.795,5.306-9.964,10.903c0.242,6.342,5.571,11.293,11.914,11.068h1.034h19.293c0.172,0.013,0.345,0.013,0.517,0
		C53.674,237.961,57.894,233.804,58.02,228.611z"/>
	<g>
		<g opacity="0.23">
			<rect x="289.333" y="90.511" width="83.6" height="83.31"/>
		</g>
		<g>
			<rect x="288.333" y="89.511" fill="#FFFFFF" width="83.6" height="83.31"/>
		</g>
	</g>
	<g>
		<path fill="#0078D4" d="M295.81,95.221c0,4.841-5.851,8.741-7.121,9.531c-0.147,0.09-0.333,0.09-0.48,0
			c-1.27-0.79-7.121-4.691-7.121-9.531v-5.821c0-0.25,0.2-0.455,0.45-0.46c4.551-0.12,3.5-2.12,6.911-2.12s2.36,2,6.911,2.12
			c0.25,0.005,0.45,0.21,0.45,0.46V95.221z"/>
		<path fill="#6BB9F2" d="M295.2,95.271c0,4.441-5.361,8.001-6.531,8.741c-0.136,0.081-0.305,0.081-0.44,0
			c-1.17-0.72-6.531-4.301-6.531-8.741v-5.341c0-0.228,0.182-0.415,0.41-0.42c4.171-0.11,3.21-1.94,6.341-1.94
			c3.13,0,2.17,1.83,6.341,1.94c0.228,0.005,0.41,0.192,0.41,0.42V95.271z"/>
		
			<linearGradient id="SVGID_00000116208785347455780660000005775445214980625575_" gradientUnits="userSpaceOnUse" x1="-275.5323" y1="-1001.3491" x2="-275.5323" y2="-1017.8513" gradientTransform="matrix(1 0 0 -1 564 -913.7786)">
			<stop  offset="0" style="stop-color:#5EA0EF"/>
			<stop  offset="0.18" style="stop-color:#559CEC"/>
			<stop  offset="0.47" style="stop-color:#3C91E5"/>
			<stop  offset="0.84" style="stop-color:#1380DA"/>
			<stop  offset="1" style="stop-color:#0078D4"/>
		</linearGradient>
		<path fill="url(#SVGID_00000116208785347455780660000005775445214980625575_)" d="M288.449,95.822V87.57
			c3.13,0,2.17,1.83,6.341,1.94c0.23,0.011,0.41,0.2,0.41,0.43v5.341c0.01,0.18,0.01,0.36,0,0.54H288.449z M288.449,95.822h-6.721
			c0.4,4.181,5.381,7.501,6.501,8.191c0.054,0.035,0.116,0.055,0.18,0.06h0.04V95.822z"/>
		<path fill="#50E6FF" d="M282.108,89.511c4.171-0.11,3.21-1.94,6.341-1.94v8.251h-6.721c-0.01-0.18-0.01-0.36,0-0.54v-5.341
			C281.727,89.721,281.89,89.536,282.108,89.511z"/>
		<path fill="#50E6FF" d="M295.17,95.822h-6.721v8.251l0,0c0.064-0.005,0.126-0.025,0.18-0.06
			C289.789,103.323,294.77,100.002,295.17,95.822z"/>
	</g>
	<g>
		<g opacity="0.23">
			<rect x="400.807" y="90.511" width="82.222" height="83.31"/>
		</g>
		<g>
			<rect x="399.807" y="89.511" fill="#FFFFFF" width="82.222" height="83.31"/>
		</g>
	</g>
	<g>
		<path fill="#0078D4" d="M406.871,95.221c0,4.841-5.851,8.741-7.121,9.531c-0.147,0.09-0.333,0.09-0.48,0
			c-1.27-0.79-7.121-4.691-7.121-9.531v-5.821c0-0.25,0.2-0.455,0.45-0.46c4.551-0.12,3.5-2.12,6.911-2.12s2.36,2,6.911,2.12
			c0.25,0.005,0.45,0.21,0.45,0.46V95.221z"/>
		<path fill="#6BB9F2" d="M406.261,95.271c0,4.441-5.361,8.001-6.531,8.741c-0.136,0.081-0.304,0.081-0.44,0
			c-1.17-0.72-6.531-4.301-6.531-8.741v-5.341c0-0.228,0.182-0.415,0.41-0.42c4.171-0.11,3.21-1.94,6.341-1.94s2.17,1.83,6.341,1.94
			c0.228,0.005,0.41,0.192,0.41,0.42V95.271z"/>
		
			<linearGradient id="SVGID_00000093884095601579620130000008008871101402293425_" gradientUnits="userSpaceOnUse" x1="-164.4709" y1="-1001.3491" x2="-164.4709" y2="-1017.8513" gradientTransform="matrix(1 0 0 -1 564 -913.7786)">
			<stop  offset="0" style="stop-color:#5EA0EF"/>
			<stop  offset="0.18" style="stop-color:#559CEC"/>
			<stop  offset="0.47" style="stop-color:#3C91E5"/>
			<stop  offset="0.84" style="stop-color:#1380DA"/>
			<stop  offset="1" style="stop-color:#0078D4"/>
		</linearGradient>
		<path fill="url(#SVGID_00000093884095601579620130000008008871101402293425_)" d="M399.51,95.822V87.57
			c3.13,0,2.17,1.83,6.341,1.94c0.23,0.011,0.41,0.2,0.41,0.43v5.341c0.01,0.18,0.01,0.36,0,0.54H399.51z M399.51,95.822h-6.721
			c0.4,4.181,5.381,7.501,6.501,8.191c0.054,0.035,0.116,0.055,0.18,0.06h0.04V95.822z"/>
		<path fill="#50E6FF" d="M393.17,89.511c4.171-0.11,3.21-1.94,6.341-1.94v8.251h-6.721c-0.01-0.18-0.01-0.36,0-0.54v-5.341
			C392.788,89.721,392.952,89.536,393.17,89.511z"/>
		<path fill="#50E6FF" d="M406.231,95.822h-6.721v8.251l0,0c0.064-0.005,0.126-0.025,0.18-0.06
			C400.851,103.323,405.831,100.002,406.231,95.822z"/>
	</g>
	<g>
		
			<linearGradient id="SVGID_00000039126528181229245230000014425257226127309747_" gradientUnits="userSpaceOnUse" x1="-245.1784" y1="-1033.646" x2="-222.5549" y2="-1033.646" gradientTransform="matrix(1 0 0 -1 564 -913.7786)">
			<stop  offset="0" style="stop-color:#005BA1"/>
			<stop  offset="0.07" style="stop-color:#0060A9"/>
			<stop  offset="0.36" style="stop-color:#0071C8"/>
			<stop  offset="0.52" style="stop-color:#0078D4"/>
			<stop  offset="0.64" style="stop-color:#0074CD"/>
			<stop  offset="0.82" style="stop-color:#006ABB"/>
			<stop  offset="1" style="stop-color:#005BA1"/>
		</linearGradient>
		<path fill="url(#SVGID_00000039126528181229245230000014425257226127309747_)" d="M330.133,111.009
			c-6.247,0-11.312-1.765-11.312-4.094v21.812c0,2.241,4.976,4.059,11.153,4.094h0.159c6.247,0,11.312-1.765,11.312-4.094v-21.812
			C341.445,109.191,336.38,111.009,330.133,111.009z"/>
		<path fill="#E8E8E8" d="M341.445,106.914c0,2.276-5.065,4.094-11.312,4.094c-6.247,0-11.312-1.765-11.312-4.094
			c0-2.329,5.065-4.094,11.312-4.094C336.38,102.82,341.445,104.585,341.445,106.914"/>
		<path fill="#50E6FF" d="M338.816,106.579c0,1.447-3.9,2.612-8.682,2.612s-8.682-1.165-8.682-2.612s3.9-2.594,8.682-2.594
			S338.816,105.15,338.816,106.579"/>
		<path fill="#198AB3" d="M330.133,107.232c-2.329-0.059-4.651,0.281-6.865,1.006c2.216,0.712,4.539,1.034,6.865,0.953
			c2.331,0.068,4.655-0.278,6.865-1.024C334.778,107.476,332.458,107.16,330.133,107.232z"/>
		
			<radialGradient id="SVGID_00000158711326725670878510000015271320405496585611_" cx="-270.6178" cy="-413.9905" r="8.3176" gradientTransform="matrix(1.5 0 0 -1.5 736.6953 -500.3948)" gradientUnits="userSpaceOnUse">
			<stop  offset="0" style="stop-color:#F2F2F2"/>
			<stop  offset="0.58" style="stop-color:#EEEEEE"/>
			<stop  offset="1" style="stop-color:#E6E6E6"/>
		</radialGradient>
		<path fill="url(#SVGID_00000158711326725670878510000015271320405496585611_)" d="M337.016,122.056v-6h-1.588v7.288h4.341v-1.288
			H337.016z M324.416,119.109c-0.328-0.132-0.632-0.317-0.9-0.547c-0.144-0.152-0.22-0.356-0.212-0.565
			c-0.011-0.211,0.09-0.412,0.265-0.529c0.217-0.15,0.478-0.225,0.741-0.212c0.629-0.028,1.249,0.152,1.765,0.512v-1.518
			c-0.564-0.21-1.164-0.306-1.765-0.282c-0.692-0.037-1.375,0.176-1.924,0.6c-0.485,0.374-0.761,0.958-0.741,1.571
			c0,0.9,0.565,1.606,1.765,2.135c0.39,0.165,0.757,0.379,1.094,0.635c0.167,0.14,0.264,0.347,0.265,0.565
			c0,0.217-0.105,0.421-0.282,0.547c-0.24,0.141-0.516,0.208-0.794,0.194c-0.71-0.006-1.393-0.269-1.924-0.741v1.641
			c0.583,0.3,1.233,0.446,1.888,0.424c0.74,0.044,1.473-0.161,2.082-0.582c0.437-0.413,0.652-1.009,0.582-1.606
			c0.008-0.452-0.148-0.891-0.441-1.235C325.468,119.68,324.969,119.337,324.416,119.109z M333.663,121.914
			c0.401-0.671,0.603-1.442,0.582-2.224c-0.04-0.661-0.24-1.303-0.582-1.871c-0.275-0.551-0.704-1.011-1.235-1.324
			c-0.538-0.305-1.146-0.463-1.765-0.459c-0.666-0.015-1.325,0.15-1.906,0.476c-0.545,0.304-0.992,0.757-1.288,1.306
			c-0.312,0.624-0.47,1.314-0.459,2.012c0.004,0.613,0.149,1.217,0.424,1.765c0.269,0.545,0.693,0.999,1.218,1.306
			c0.533,0.325,1.141,0.507,1.765,0.529l1.518,1.765h2.135l-2.171-1.941C332.629,123.036,333.256,122.56,333.663,121.914z
			 M331.898,121.473c-0.326,0.404-0.822,0.633-1.341,0.618c-0.523,0.017-1.023-0.22-1.341-0.635
			c-0.373-0.51-0.554-1.135-0.512-1.765c-0.041-0.63,0.14-1.254,0.512-1.765c0.336-0.415,0.842-0.655,1.376-0.653
			c0.524-0.023,1.023,0.224,1.324,0.653c0.348,0.52,0.515,1.14,0.476,1.765C332.454,120.326,332.278,120.961,331.898,121.473z"/>
	</g>
	<g>
		<path fill="#005BA1" d="M426.519,102.82h16.641c0.331,0,0.6,0.269,0.6,0.6v10.712c0,0.331-0.269,0.6-0.6,0.6h-16.641
			c-0.331,0-0.6-0.269-0.6-0.6V103.42C425.919,103.089,426.187,102.82,426.519,102.82z"/>
		<polygon fill="#50E6FF" points="437.813,107.038 437.813,110.514 434.848,112.244 434.848,108.785 		"/>
		<polygon fill="#C3F1FF" points="437.813,107.038 434.848,108.785 431.866,107.038 434.848,105.291 		"/>
		<polygon fill="#9CEBFF" points="434.848,108.785 434.848,112.244 431.866,110.514 431.866,107.038 		"/>
		<path fill="#0078D4" d="M433.524,109.65h16.641c0.331,0,0.6,0.269,0.6,0.6v10.712c0,0.331-0.269,0.6-0.6,0.6h-16.641
			c-0.331,0-0.6-0.269-0.6-0.6V110.25C432.924,109.918,433.193,109.65,433.524,109.65z"/>
		<polygon fill="#50E6FF" points="444.819,113.885 444.819,117.344 441.854,119.091 441.854,115.614 		"/>
		<polygon fill="#C3F1FF" points="444.819,113.885 441.854,115.614 438.871,113.885 441.854,112.138 		"/>
		<polygon fill="#9CEBFF" points="441.854,115.614 441.854,119.091 438.871,117.344 438.871,113.885 		"/>
		
			<linearGradient id="SVGID_00000072246947933516631850000006639154980280165252_" gradientUnits="userSpaceOnUse" x1="-117.0021" y1="-1041.993" x2="-117.0021" y2="-1030.0637" gradientTransform="matrix(1 0 0 -1 564 -913.7786)">
			<stop  offset="0" style="stop-color:#0078D4"/>
			<stop  offset="0.82" style="stop-color:#5EA0EF"/>
		</linearGradient>
		<path fill="url(#SVGID_00000072246947933516631850000006639154980280165252_)" d="M438.677,116.285h16.641
			c0.331,0,0.6,0.269,0.6,0.6v10.712c0,0.331-0.269,0.6-0.6,0.6h-16.641c-0.331,0-0.6-0.269-0.6-0.6v-10.712
			C438.077,116.554,438.346,116.285,438.677,116.285z"/>
		<polygon fill="#50E6FF" points="449.971,120.52 449.971,123.979 447.007,125.726 447.007,122.25 		"/>
		<polygon fill="#C3F1FF" points="449.971,120.52 447.007,122.267 444.024,120.52 447.007,118.773 		"/>
		<polygon fill="#9CEBFF" points="447.007,122.267 447.007,125.726 444.024,123.979 444.024,120.52 		"/>
		<polygon fill="#C3F1FF" points="444.024,123.979 447.007,122.25 447.007,125.726 		"/>
		<polygon fill="#9CEBFF" points="449.971,123.979 447.007,122.25 447.007,125.726 		"/>
		
			<linearGradient id="SVGID_00000152961220418675227130000000473639899498795149_" gradientUnits="userSpaceOnUse" x1="-116.9579" y1="-1046.599" x2="-116.9579" y2="-1041.993" gradientTransform="matrix(1 0 0 -1 564 -913.7786)">
			<stop  offset="0.15" style="stop-color:#CCCCCC"/>
			<stop  offset="1" style="stop-color:#707070"/>
		</linearGradient>
		<path fill="url(#SVGID_00000152961220418675227130000000473639899498795149_)" d="M450.571,131.814
			c-1.765-0.282-1.765-1.553-1.765-3.529h-3.529c0,2.047,0,3.318-1.765,3.529c-0.499,0.077-0.871,0.501-0.882,1.006h8.824
			C451.443,132.315,451.071,131.891,450.571,131.814z"/>
	</g>
	<g>
		<g>
			<path fill="#FFFFFF" d="M508.983,375.611c0,4.4-3.6,8-8,8h-235c-4.4,0-8-3.6-8-8v-120c0-4.4,3.6-8,8-8h235c4.4,0,8,3.6,8,8
				V375.611z"/>
			<path opacity="0.4" fill="#83B9F9" d="M508.983,375.611c0,4.4-3.6,8-8,8h-235c-4.4,0-8-3.6-8-8v-120c0-4.4,3.6-8,8-8h235
				c4.4,0,8,3.6,8,8V375.611z"/>
			<path opacity="0.4" fill="none" stroke="#0078D4" stroke-linejoin="round" d="M508.983,375.611c0,4.4-3.6,8-8,8h-235
				c-4.4,0-8-3.6-8-8v-120c0-4.4,3.6-8,8-8h235c4.4,0,8,3.6,8,8V375.611z"/>
		</g>
		<path fill="#0078D4" d="M500.985,384.111h-1.442v-1h1.439c0.175-0.001,0.352-0.008,0.526-0.02l0.068,0.998
			C501.382,384.103,501.184,384.11,500.985,384.111z M497.543,384.111h-2v-1h2V384.111z M493.542,384.111h-2v-1h2V384.111z
			 M489.541,384.111h-2v-1h2V384.111z M485.539,384.111h-2v-1h2V384.111z M481.538,384.111h-2v-1h2V384.111z M477.537,384.111h-2v-1
			h2V384.111z M473.536,384.111h-2v-1h2V384.111z M469.535,384.111h-2v-1h2V384.111z M465.534,384.111h-2v-1h2V384.111z
			 M461.533,384.111h-2v-1h2V384.111z M457.533,384.111h-2v-1h2V384.111z M453.532,384.111h-2v-1h2V384.111z M449.531,384.111h-2v-1
			h2V384.111z M445.53,384.111h-2v-1h2V384.111z M441.529,384.111h-2v-1h2V384.111z M437.528,384.111h-2v-1h2V384.111z
			 M433.527,384.111h-2.001v-1h2.001V384.111z M429.525,384.111h-2v-1h2V384.111z M425.524,384.111h-2v-1h2V384.111z
			 M421.523,384.111h-2v-1h2V384.111z M417.522,384.111h-2v-1h2V384.111z M413.521,384.111h-2v-1h2V384.111z M409.52,384.111h-2v-1
			h2V384.111z M405.519,384.111h-2v-1h2V384.111z M401.518,384.111h-2v-1h2V384.111z M397.517,384.111h-2v-1h2V384.111z
			 M393.516,384.111h-2v-1h2V384.111z M389.515,384.111h-2v-1h2V384.111z M385.514,384.111h-2v-1h2V384.111z M381.513,384.111h-2v-1
			h2V384.111z M377.512,384.111h-2v-1h2V384.111z M373.512,384.111h-2v-1h2V384.111z M369.51,384.111h-2v-1h2V384.111z
			 M365.509,384.111h-2v-1h2V384.111z M361.508,384.111h-2v-1h2V384.111z M357.507,384.111h-2v-1h2V384.111z M353.506,384.111h-2v-1
			h2V384.111z M349.505,384.111h-2v-1h2V384.111z M345.504,384.111h-2v-1h2V384.111z M341.503,384.111h-2v-1h2V384.111z
			 M337.502,384.111h-2v-1h2V384.111z M333.501,384.111h-2v-1h2V384.111z M329.5,384.111h-2v-1h2V384.111z M325.499,384.111h-2v-1h2
			V384.111z M321.498,384.111h-2v-1h2V384.111z M317.497,384.111h-2v-1h2V384.111z M313.496,384.111h-2v-1h2V384.111z
			 M309.495,384.111h-2v-1h2V384.111z M305.494,384.111h-2.001v-1h2.001V384.111z M301.493,384.111h-2v-1h2V384.111z
			 M297.492,384.111h-2v-1h2V384.111z M293.491,384.111h-2v-1h2V384.111z M289.49,384.111h-2v-1h2V384.111z M285.489,384.111h-2v-1
			h2V384.111z M281.488,384.111h-2v-1h2V384.111z M277.487,384.111h-2v-1h2V384.111z M273.486,384.111h-2v-1h2V384.111z
			 M269.485,384.111h-2v-1h2V384.111z M265.454,384.094c-0.709-0.044-1.411-0.178-2.084-0.396l0.31-0.951
			c0.593,0.193,1.211,0.311,1.836,0.35L265.454,384.094z M503.658,383.678l-0.316-0.949c0.59-0.196,1.157-0.469,1.684-0.809
			l0.542,0.84C504.97,383.146,504.327,383.454,503.658,383.678z M261.451,382.794c-0.597-0.379-1.147-0.832-1.634-1.347l0.726-0.688
			c0.431,0.455,0.917,0.855,1.445,1.19L261.451,382.794z M507.193,381.4l-0.731-0.682c0.429-0.46,0.798-0.97,1.099-1.516
			l0.876,0.482C508.096,380.303,507.678,380.88,507.193,381.4z M258.56,379.741c-0.347-0.619-0.615-1.28-0.796-1.965l0.967-0.256
			c0.16,0.604,0.396,1.187,0.702,1.732L258.56,379.741z M509.218,377.714l-0.969-0.25c0.155-0.602,0.234-1.226,0.234-1.854l1-0.062
			v0.062C509.483,376.324,509.393,377.031,509.218,377.714z M257.792,375.654l-0.309-0.031v-1.951h1v1.939L257.792,375.654z
			 M509.483,373.548h-1v-2h1V373.548z M258.483,371.67h-1v-2h1V371.67z M509.483,369.547h-1v-2h1V369.547z M258.483,367.669h-1v-2h1
			V367.669z M509.483,365.546h-1v-2h1V365.546z M258.483,363.668h-1v-2h1V363.668z M509.483,361.545h-1v-2h1V361.545z
			 M258.483,359.667h-1v-2h1V359.667z M509.483,357.544h-1v-2h1V357.544z M258.483,355.666h-1v-2h1V355.666z M509.483,353.543h-1
			v-2.001h1V353.543z M258.483,351.665h-1v-2.001h1V351.665z M509.483,349.542h-1v-2.001h1V349.542z M258.483,347.664h-1v-2.001h1
			V347.664z M509.483,345.541h-1v-2.001h1V345.541z M258.483,343.663h-1v-2.001h1V343.663z M509.483,341.54h-1v-2.001h1V341.54z
			 M258.483,339.662h-1v-2.001h1V339.662z M509.483,337.539h-1v-2.001h1V337.539z M258.483,335.661h-1v-2.001h1V335.661z
			 M509.483,333.538h-1v-2.001h1V333.538z M258.483,331.66h-1v-2.001h1V331.66z M509.483,329.537h-1v-2.001h1V329.537z
			 M258.483,327.66h-1v-2.001h1V327.66z M509.483,325.536h-1v-2.001h1V325.536z M258.483,323.659h-1v-2.001h1V323.659z
			 M509.483,321.535h-1v-2.001h1V321.535z M258.483,319.658h-1v-2.001h1V319.658z M509.483,317.535h-1v-2.001h1V317.535z
			 M258.483,315.657h-1v-2.001h1V315.657z M509.483,313.534h-1v-2.001h1V313.534z M258.483,311.656h-1v-2.001h1V311.656z
			 M509.483,309.533h-1v-2.001h1V309.533z M258.483,307.655h-1v-2.001h1V307.655z M509.483,305.532h-1v-2.001h1V305.532z
			 M258.483,303.654h-1v-2.001h1V303.654z M509.483,301.531h-1v-2.001h1V301.531z M258.483,299.653h-1v-2.001h1V299.653z
			 M509.483,297.53h-1v-2.001h1V297.53z M258.483,295.652h-1v-2.001h1V295.652z M509.483,293.528h-1v-2h1V293.528z M258.483,291.65
			h-1v-2h1V291.65z M509.483,289.527h-1v-2h1V289.527z M258.483,287.649h-1v-2h1V287.649z M509.483,285.526h-1v-2h1V285.526z
			 M258.483,283.648h-1v-2h1V283.648z M509.483,281.525h-1v-2h1V281.525z M258.483,279.647h-1v-2h1V279.647z M509.483,277.524h-1v-2
			h1V277.524z M258.483,275.646h-1v-2h1V275.646z M509.483,273.523h-1v-2h1V273.523z M258.483,271.645h-1v-2h1V271.645z
			 M509.483,269.522h-1v-2h1V269.522z M258.483,267.644h-1v-2h1V267.644z M509.483,265.521h-1v-2h1V265.521z M258.483,263.643h-1v-2
			h1V263.643z M509.483,261.52h-1v-2h1V261.52z M258.483,259.642h-1v-2h1V259.642z M509.483,257.519h-1v-1.908l0.999-0.1
			L509.483,257.519z M257.483,255.641v-0.03c0-0.7,0.086-1.397,0.257-2.072l0.97,0.244c-0.15,0.596-0.227,1.211-0.227,1.828
			L257.483,255.641z M508.227,253.673c-0.162-0.603-0.4-1.185-0.708-1.729l0.87-0.492c0.35,0.618,0.62,1.278,0.804,1.962
			L508.227,253.673z M259.392,252.043l-0.878-0.479c0.339-0.621,0.755-1.2,1.237-1.721l0.733,0.68
			C260.059,250.984,259.691,251.495,259.392,252.043z M506.402,250.441c-0.431-0.452-0.918-0.852-1.449-1.186l0.533-0.846
			c0.6,0.378,1.152,0.829,1.64,1.342L506.402,250.441z M261.915,249.318l-0.545-0.838c0.596-0.387,1.237-0.698,1.906-0.925
			l0.321,0.947C263.007,248.702,262.441,248.977,261.915,249.318z M503.259,248.466c-0.593-0.19-1.211-0.306-1.837-0.343
			l0.059-0.998c0.71,0.042,1.411,0.172,2.084,0.388L503.259,248.466z M265.429,248.131l-0.075-0.998
			c0.209-0.017,0.425-0.028,0.631-0.022h1.407v1h-1.409C265.802,248.112,265.612,248.118,265.429,248.131z M499.45,248.111h-2v-1h2
			V248.111z M495.449,248.111h-2v-1h2V248.111z M491.449,248.111h-2v-1h2V248.111z M487.448,248.111h-2v-1h2V248.111z
			 M483.447,248.111h-2.001v-1h2.001V248.111z M479.445,248.111h-2v-1h2V248.111z M475.444,248.111h-2v-1h2V248.111z
			 M471.443,248.111h-2v-1h2V248.111z M467.442,248.111h-2v-1h2V248.111z M463.441,248.111h-2v-1h2V248.111z M459.44,248.111h-2v-1
			h2V248.111z M455.439,248.111h-2v-1h2V248.111z M451.438,248.111h-2v-1h2V248.111z M447.437,248.111h-2v-1h2V248.111z
			 M443.436,248.111h-2v-1h2V248.111z M439.435,248.111h-2v-1h2V248.111z M435.434,248.111h-2v-1h2V248.111z M431.433,248.111h-2v-1
			h2V248.111z M427.432,248.111h-2v-1h2V248.111z M423.431,248.111h-2v-1h2V248.111z M419.43,248.111h-2v-1h2V248.111z
			 M415.429,248.111h-2v-1h2V248.111z M411.428,248.111h-2v-1h2V248.111z M407.427,248.111h-2v-1h2V248.111z M403.426,248.111h-2v-1
			h2V248.111z M399.425,248.111h-2v-1h2V248.111z M395.424,248.111h-2v-1h2V248.111z M391.423,248.111h-2v-1h2V248.111z
			 M387.422,248.111h-2v-1h2V248.111z M383.421,248.111h-2v-1h2V248.111z M379.42,248.111h-2v-1h2V248.111z M375.419,248.111h-2v-1
			h2V248.111z M371.418,248.111h-2v-1h2V248.111z M367.417,248.111h-2v-1h2V248.111z M363.416,248.111h-2v-1h2V248.111z
			 M359.415,248.111h-2v-1h2V248.111z M355.414,248.111h-2.001v-1h2.001V248.111z M351.413,248.111h-2v-1h2V248.111z
			 M347.412,248.111h-2v-1h2V248.111z M343.411,248.111h-2v-1h2V248.111z M339.41,248.111h-2v-1h2V248.111z M335.409,248.111h-2v-1
			h2V248.111z M331.408,248.111h-2v-1h2V248.111z M327.407,248.111h-2v-1h2V248.111z M323.406,248.111h-2v-1h2V248.111z
			 M319.405,248.111h-2v-1h2V248.111z M315.404,248.111h-2v-1h2V248.111z M311.403,248.111h-2v-1h2V248.111z M307.402,248.111h-2v-1
			h2V248.111z M303.401,248.111h-2v-1h2V248.111z M299.4,248.111h-2v-1h2V248.111z M295.399,248.111h-2v-1h2V248.111z
			 M291.398,248.111h-2v-1h2V248.111z M287.397,248.111h-2v-1h2V248.111z M283.396,248.111h-2v-1h2V248.111z M279.395,248.111h-2v-1
			h2V248.111z M275.394,248.111h-2v-1h2V248.111z M271.393,248.111h-2v-1h2V248.111z"/>
	</g>
	<g>
		<path fill="#FFFFFF" stroke="#767676" stroke-width="0.25" d="M286.668,375.22h-26.186c-1.657,0-3,1.343-3,3v18
			c0,1.657,1.343,3,3,3h26.186c1.657,0,3-1.343,3-3v-18C289.668,376.563,288.325,375.22,286.668,375.22z"/>
		<g>
			
				<linearGradient id="SVGID_00000165953180144848372790000017552875343088288922_" gradientUnits="userSpaceOnUse" x1="-290.0646" y1="-1300.1046" x2="-287.732" y2="-1302.4371" gradientTransform="matrix(1 -0.0014 -0.0014 -1 565.9827 -914.4613)">
				<stop  offset="0" style="stop-color:#86D633"/>
				<stop  offset="1" style="stop-color:#5E9624"/>
			</linearGradient>
			<circle fill="url(#SVGID_00000165953180144848372790000017552875343088288922_)" cx="278.895" cy="387.207" r="1.649"/>
			
				<linearGradient id="SVGID_00000001638574040911377690000017241524679757567392_" gradientUnits="userSpaceOnUse" x1="-292.6781" y1="-1298.6732" x2="-290.3605" y2="-1301.0051" gradientTransform="matrix(1 0 0 -1 564 -913.7786)">
				<stop  offset="0" style="stop-color:#86D633"/>
				<stop  offset="1" style="stop-color:#5E9624"/>
			</linearGradient>
			<circle fill="url(#SVGID_00000001638574040911377690000017241524679757567392_)" cx="273.634" cy="387.221" r="1.649"/>
			
				<linearGradient id="SVGID_00000008143404683178517490000016702779375404331152_" gradientUnits="userSpaceOnUse" x1="-297.939" y1="-1298.6732" x2="-295.6214" y2="-1301.0051" gradientTransform="matrix(1 0 0 -1 564 -913.7786)">
				<stop  offset="0" style="stop-color:#86D633"/>
				<stop  offset="1" style="stop-color:#5E9624"/>
			</linearGradient>
			<circle fill="url(#SVGID_00000008143404683178517490000016702779375404331152_)" cx="268.373" cy="387.221" r="1.649"/>
			<path fill="#50E6FF" d="M269.571,393.815l-0.944,0.946c-0.166,0.167-0.436,0.167-0.603,0.001l0,0l-6.987-6.968
				c-0.334-0.333-0.334-0.873-0.002-1.206l0,0l0.944-0.946l0,0l7.591,7.57C269.737,393.378,269.737,393.648,269.571,393.815
				L269.571,393.815z"/>
			<path fill="#1490DF" d="M268.484,379.697l0.946,0.944c0.167,0.166,0.167,0.436,0.001,0.603l-7.46,7.481l0,0l-0.946-0.944
				c-0.334-0.333-0.334-0.873-0.002-1.206l0,0l6.857-6.877C268.047,379.531,268.317,379.53,268.484,379.697z"/>
			<path fill="#50E6FF" d="M285.175,385.629l0.944,0.946c0.333,0.334,0.332,0.874-0.002,1.207l0,0l-6.987,6.968
				c-0.167,0.166-0.437,0.166-0.603-0.001l0,0l-0.944-0.946c-0.166-0.167-0.166-0.437,0.001-0.603l0,0L285.175,385.629
				L285.175,385.629z"/>
			<path fill="#1490DF" d="M286.116,387.771l-0.946,0.944l0,0l-7.46-7.481c-0.166-0.167-0.166-0.437,0.001-0.603l0,0l0.956-0.954
				c0.167-0.166,0.437-0.166,0.603,0.001l0,0l6.857,6.877c0.333,0.334,0.332,0.874-0.002,1.206l0,0L286.116,387.771z"/>
		</g>
	</g>
	<g>
		<g opacity="0.23">
			<rect x="289.333" y="279.711" width="83.6" height="83.31"/>
		</g>
		<g>
			<rect x="288.333" y="278.711" fill="#FFFFFF" width="83.6" height="83.31"/>
		</g>
	</g>
	<g>
		<path fill="#0078D4" d="M295.81,284.421c0,4.841-5.851,8.741-7.121,9.531c-0.147,0.09-0.333,0.09-0.48,0
			c-1.27-0.79-7.121-4.691-7.121-9.531v-5.821c0-0.25,0.2-0.455,0.45-0.46c4.551-0.12,3.5-2.12,6.911-2.12s2.36,2,6.911,2.12
			c0.25,0.005,0.45,0.21,0.45,0.46V284.421z"/>
		<path fill="#6BB9F2" d="M295.2,284.471c0,4.441-5.361,8.001-6.531,8.741c-0.136,0.081-0.305,0.081-0.44,0
			c-1.17-0.72-6.531-4.301-6.531-8.741v-5.341c0-0.228,0.182-0.415,0.41-0.42c4.171-0.11,3.21-1.94,6.341-1.94
			c3.13,0,2.17,1.83,6.341,1.94c0.228,0.005,0.41,0.192,0.41,0.42V284.471z"/>
		
			<linearGradient id="SVGID_00000039826533220015117700000002764526774576481695_" gradientUnits="userSpaceOnUse" x1="-275.5323" y1="-1190.5491" x2="-275.5323" y2="-1207.0513" gradientTransform="matrix(1 0 0 -1 564 -913.7786)">
			<stop  offset="0" style="stop-color:#5EA0EF"/>
			<stop  offset="0.18" style="stop-color:#559CEC"/>
			<stop  offset="0.47" style="stop-color:#3C91E5"/>
			<stop  offset="0.84" style="stop-color:#1380DA"/>
			<stop  offset="1" style="stop-color:#0078D4"/>
		</linearGradient>
		<path fill="url(#SVGID_00000039826533220015117700000002764526774576481695_)" d="M288.449,285.022v-8.251
			c3.13,0,2.17,1.83,6.341,1.94c0.23,0.011,0.41,0.2,0.41,0.43v5.341c0.01,0.18,0.01,0.36,0,0.54H288.449z M288.449,285.022h-6.721
			c0.4,4.181,5.381,7.501,6.501,8.191c0.054,0.035,0.116,0.055,0.18,0.06h0.04V285.022z"/>
		<path fill="#50E6FF" d="M282.108,278.711c4.171-0.11,3.21-1.94,6.341-1.94v8.251h-6.721c-0.01-0.18-0.01-0.36,0-0.54v-5.341
			C281.727,278.921,281.89,278.736,282.108,278.711z"/>
		<path fill="#50E6FF" d="M295.17,285.022h-6.721v8.251l0,0c0.064-0.005,0.126-0.025,0.18-0.06
			C289.789,292.523,294.77,289.202,295.17,285.022z"/>
	</g>
	<g>
		<g opacity="0.23">
			<rect x="400.807" y="279.711" width="82.222" height="83.31"/>
		</g>
		<g>
			<rect x="399.807" y="278.711" fill="#FFFFFF" width="82.222" height="83.31"/>
		</g>
	</g>
	<g>
		<path fill="#0078D4" d="M406.871,284.421c0,4.841-5.851,8.741-7.121,9.531c-0.147,0.09-0.333,0.09-0.48,0
			c-1.27-0.79-7.121-4.691-7.121-9.531v-5.821c0-0.25,0.2-0.455,0.45-0.46c4.551-0.12,3.5-2.12,6.911-2.12s2.36,2,6.911,2.12
			c0.25,0.005,0.45,0.21,0.45,0.46V284.421z"/>
		<path fill="#6BB9F2" d="M406.261,284.471c0,4.441-5.361,8.001-6.531,8.741c-0.136,0.081-0.304,0.081-0.44,0
			c-1.17-0.72-6.531-4.301-6.531-8.741v-5.341c0-0.228,0.182-0.415,0.41-0.42c4.171-0.11,3.21-1.94,6.341-1.94s2.17,1.83,6.341,1.94
			c0.228,0.005,0.41,0.192,0.41,0.42V284.471z"/>
		
			<linearGradient id="SVGID_00000047047654979494013330000001395059930032602765_" gradientUnits="userSpaceOnUse" x1="-164.4709" y1="-1190.5491" x2="-164.4709" y2="-1207.0513" gradientTransform="matrix(1 0 0 -1 564 -913.7786)">
			<stop  offset="0" style="stop-color:#5EA0EF"/>
			<stop  offset="0.18" style="stop-color:#559CEC"/>
			<stop  offset="0.47" style="stop-color:#3C91E5"/>
			<stop  offset="0.84" style="stop-color:#1380DA"/>
			<stop  offset="1" style="stop-color:#0078D4"/>
		</linearGradient>
		<path fill="url(#SVGID_00000047047654979494013330000001395059930032602765_)" d="M399.51,285.022v-8.251
			c3.13,0,2.17,1.83,6.341,1.94c0.23,0.011,0.41,0.2,0.41,0.43v5.341c0.01,0.18,0.01,0.36,0,0.54H399.51z M399.51,285.022h-6.721
			c0.4,4.181,5.381,7.501,6.501,8.191c0.054,0.035,0.116,0.055,0.18,0.06h0.04V285.022z"/>
		<path fill="#50E6FF" d="M393.17,278.711c4.171-0.11,3.21-1.94,6.341-1.94v8.251h-6.721c-0.01-0.18-0.01-0.36,0-0.54v-5.341
			C392.788,278.921,392.952,278.736,393.17,278.711z"/>
		<path fill="#50E6FF" d="M406.231,285.022h-6.721v8.251l0,0c0.064-0.005,0.126-0.025,0.18-0.06
			C400.851,292.523,405.831,289.202,406.231,285.022z"/>
	</g>
	<g>
		
			<linearGradient id="SVGID_00000123421306783896425250000014822859014040438172_" gradientUnits="userSpaceOnUse" x1="-245.1784" y1="-1222.8461" x2="-222.5549" y2="-1222.8461" gradientTransform="matrix(1 0 0 -1 564 -913.7786)">
			<stop  offset="0" style="stop-color:#005BA1"/>
			<stop  offset="0.07" style="stop-color:#0060A9"/>
			<stop  offset="0.36" style="stop-color:#0071C8"/>
			<stop  offset="0.52" style="stop-color:#0078D4"/>
			<stop  offset="0.64" style="stop-color:#0074CD"/>
			<stop  offset="0.82" style="stop-color:#006ABB"/>
			<stop  offset="1" style="stop-color:#005BA1"/>
		</linearGradient>
		<path fill="url(#SVGID_00000123421306783896425250000014822859014040438172_)" d="M330.133,300.209
			c-6.247,0-11.312-1.765-11.312-4.094v21.812c0,2.241,4.976,4.059,11.153,4.094h0.159c6.247,0,11.312-1.765,11.312-4.094v-21.812
			C341.445,298.391,336.38,300.209,330.133,300.209z"/>
		<path fill="#E8E8E8" d="M341.445,296.114c0,2.276-5.065,4.094-11.312,4.094c-6.247,0-11.312-1.765-11.312-4.094
			s5.065-4.094,11.312-4.094C336.38,292.02,341.445,293.785,341.445,296.114"/>
		<path fill="#50E6FF" d="M338.816,295.779c0,1.447-3.9,2.612-8.682,2.612s-8.682-1.165-8.682-2.612s3.9-2.594,8.682-2.594
			S338.816,294.35,338.816,295.779"/>
		<path fill="#198AB3" d="M330.133,296.432c-2.329-0.059-4.651,0.281-6.865,1.006c2.216,0.712,4.539,1.034,6.865,0.953
			c2.331,0.068,4.655-0.278,6.865-1.024C334.778,296.676,332.458,296.36,330.133,296.432z"/>
		
			<radialGradient id="SVGID_00000041984888705752468420000015348742696933869705_" cx="-270.6178" cy="-540.1238" r="8.3176" gradientTransform="matrix(1.5 0 0 -1.5 736.6953 -500.3948)" gradientUnits="userSpaceOnUse">
			<stop  offset="0" style="stop-color:#F2F2F2"/>
			<stop  offset="0.58" style="stop-color:#EEEEEE"/>
			<stop  offset="1" style="stop-color:#E6E6E6"/>
		</radialGradient>
		<path fill="url(#SVGID_00000041984888705752468420000015348742696933869705_)" d="M337.016,311.256v-6h-1.588v7.288h4.341v-1.288
			H337.016z M324.416,308.309c-0.328-0.132-0.632-0.317-0.9-0.547c-0.144-0.152-0.22-0.356-0.212-0.565
			c-0.011-0.211,0.09-0.412,0.265-0.529c0.217-0.15,0.478-0.225,0.741-0.212c0.629-0.028,1.249,0.152,1.765,0.512v-1.518
			c-0.564-0.21-1.164-0.306-1.765-0.282c-0.692-0.037-1.375,0.176-1.924,0.6c-0.485,0.374-0.761,0.958-0.741,1.571
			c0,0.9,0.565,1.606,1.765,2.135c0.39,0.165,0.757,0.379,1.094,0.635c0.167,0.14,0.264,0.347,0.265,0.565
			c0,0.217-0.105,0.421-0.282,0.547c-0.24,0.141-0.516,0.208-0.794,0.194c-0.71-0.006-1.393-0.269-1.924-0.741v1.641
			c0.583,0.301,1.233,0.446,1.888,0.424c0.74,0.044,1.473-0.161,2.082-0.582c0.437-0.413,0.652-1.009,0.582-1.606
			c0.008-0.452-0.148-0.891-0.441-1.235C325.468,308.88,324.969,308.537,324.416,308.309z M333.663,311.114
			c0.401-0.671,0.603-1.442,0.582-2.224c-0.04-0.661-0.24-1.303-0.582-1.871c-0.275-0.551-0.704-1.011-1.235-1.324
			c-0.538-0.305-1.146-0.463-1.765-0.459c-0.666-0.015-1.325,0.15-1.906,0.476c-0.545,0.304-0.992,0.757-1.288,1.306
			c-0.312,0.624-0.47,1.314-0.459,2.012c0.004,0.613,0.149,1.217,0.424,1.765c0.269,0.545,0.693,0.999,1.218,1.306
			c0.533,0.325,1.141,0.507,1.765,0.529l1.518,1.765h2.135l-2.171-1.941C332.629,312.236,333.256,311.76,333.663,311.114z
			 M331.898,310.673c-0.326,0.404-0.822,0.633-1.341,0.618c-0.523,0.017-1.023-0.22-1.341-0.635
			c-0.373-0.51-0.554-1.135-0.512-1.765c-0.041-0.63,0.14-1.254,0.512-1.765c0.336-0.415,0.842-0.655,1.376-0.653
			c0.524-0.023,1.023,0.224,1.324,0.653c0.348,0.52,0.515,1.14,0.476,1.765C332.454,309.526,332.278,310.161,331.898,310.673z"/>
	</g>
	<g>
		<path fill="#005BA1" d="M426.519,292.02h16.641c0.331,0,0.6,0.269,0.6,0.6v10.712c0,0.331-0.269,0.6-0.6,0.6h-16.641
			c-0.331,0-0.6-0.269-0.6-0.6V292.62C425.919,292.289,426.187,292.02,426.519,292.02z"/>
		<polygon fill="#50E6FF" points="437.813,296.238 437.813,299.714 434.848,301.444 434.848,297.985 		"/>
		<polygon fill="#C3F1FF" points="437.813,296.238 434.848,297.985 431.866,296.238 434.848,294.491 		"/>
		<polygon fill="#9CEBFF" points="434.848,297.985 434.848,301.444 431.866,299.714 431.866,296.238 		"/>
		<path fill="#0078D4" d="M433.524,298.85h16.641c0.331,0,0.6,0.269,0.6,0.6v10.712c0,0.331-0.269,0.6-0.6,0.6h-16.641
			c-0.331,0-0.6-0.269-0.6-0.6V299.45C432.924,299.118,433.193,298.85,433.524,298.85z"/>
		<polygon fill="#50E6FF" points="444.819,303.085 444.819,306.544 441.854,308.291 441.854,304.814 		"/>
		<polygon fill="#C3F1FF" points="444.819,303.085 441.854,304.814 438.871,303.085 441.854,301.338 		"/>
		<polygon fill="#9CEBFF" points="441.854,304.814 441.854,308.291 438.871,306.544 438.871,303.085 		"/>
		
			<linearGradient id="SVGID_00000093877965765189111640000006453113193401134994_" gradientUnits="userSpaceOnUse" x1="-117.0021" y1="-1231.1931" x2="-117.0021" y2="-1219.2637" gradientTransform="matrix(1 0 0 -1 564 -913.7786)">
			<stop  offset="0" style="stop-color:#0078D4"/>
			<stop  offset="0.82" style="stop-color:#5EA0EF"/>
		</linearGradient>
		<path fill="url(#SVGID_00000093877965765189111640000006453113193401134994_)" d="M438.677,305.485h16.641
			c0.331,0,0.6,0.269,0.6,0.6v10.712c0,0.331-0.269,0.6-0.6,0.6h-16.641c-0.331,0-0.6-0.269-0.6-0.6v-10.712
			C438.077,305.754,438.346,305.485,438.677,305.485z"/>
		<polygon fill="#50E6FF" points="449.971,309.72 449.971,313.179 447.007,314.926 447.007,311.45 		"/>
		<polygon fill="#C3F1FF" points="449.971,309.72 447.007,311.467 444.024,309.72 447.007,307.973 		"/>
		<polygon fill="#9CEBFF" points="447.007,311.467 447.007,314.926 444.024,313.179 444.024,309.72 		"/>
		<polygon fill="#C3F1FF" points="444.024,313.179 447.007,311.45 447.007,314.926 		"/>
		<polygon fill="#9CEBFF" points="449.971,313.179 447.007,311.45 447.007,314.926 		"/>
		
			<linearGradient id="SVGID_00000120539141391291533110000013206743872822524347_" gradientUnits="userSpaceOnUse" x1="-116.9579" y1="-1235.799" x2="-116.9579" y2="-1231.1931" gradientTransform="matrix(1 0 0 -1 564 -913.7786)">
			<stop  offset="0.15" style="stop-color:#CCCCCC"/>
			<stop  offset="1" style="stop-color:#707070"/>
		</linearGradient>
		<path fill="url(#SVGID_00000120539141391291533110000013206743872822524347_)" d="M450.571,321.014
			c-1.765-0.282-1.765-1.553-1.765-3.529h-3.529c0,2.047,0,3.318-1.765,3.529c-0.499,0.077-0.871,0.501-0.882,1.006h8.824
			C451.443,321.515,451.071,321.091,450.571,321.014z"/>
	</g>
	<g>
		
			<linearGradient id="SVGID_00000120549478772864763000000015468837886850262932_" gradientUnits="userSpaceOnUse" x1="159.3536" y1="-1369.3961" x2="159.3536" y2="-1327.6409" gradientTransform="matrix(1 0 0 -1 -0.0035 -1147.7802)">
			<stop  offset="0" style="stop-color:#5E9741"/>
			<stop  offset="0.55" style="stop-color:#6BAD44"/>
			<stop  offset="1" style="stop-color:#76BC43"/>
		</linearGradient>
		<path fill="url(#SVGID_00000120549478772864763000000015468837886850262932_)" d="M141.704,199.051l16.792-16.792
			c0.472-0.472,1.236-0.472,1.708,0l16.792,16.792c0.472,0.472,0.472,1.236,0,1.708l-16.792,16.792
			c-0.472,0.472-1.236,0.472-1.708,0l-16.792-16.792C141.232,200.287,141.232,199.522,141.704,199.051z"/>
		<g>
			<path fill="#FFFFFF" d="M163.373,203.104h6.016c0.12-0.011,0.212-0.112,0.212-0.233v-5.995c0.013-0.116-0.071-0.221-0.188-0.233
				c-0.075-0.008-0.149,0.024-0.194,0.085l-1.652,1.652v0.106c-0.082,0.081-0.214,0.081-0.297,0l-7.351-7.245
				c-0.082-0.081-0.214-0.081-0.297,0l-1.864,1.864c-0.083,0.09-0.083,0.228,0,0.318l7.224,7.224c0.083,0.089,0.083,0.228,0,0.318
				l-0.106,0.106l-1.652,1.652c-0.083,0.098-0.07,0.245,0.028,0.328C163.287,203.079,163.329,203.098,163.373,203.104z"/>
			<path fill="#FFFFFF" d="M154.963,203.104h-6.016c-0.104-0.029-0.174-0.126-0.169-0.233v-5.995
				c0.002-0.117,0.098-0.21,0.215-0.209c0.054,0.001,0.106,0.022,0.145,0.061l1.674,1.652v0.106c0.082,0.081,0.214,0.081,0.297,0
				l7.309-7.245c0.082-0.081,0.214-0.081,0.297,0l1.864,1.864c0.083,0.09,0.083,0.228,0,0.318l-7.224,7.224
				c-0.083,0.089-0.083,0.228,0,0.318v0.106l1.652,1.652c0.097,0.084,0.108,0.232,0.023,0.329
				C155.01,203.072,154.988,203.09,154.963,203.104z"/>
			<path fill="#FFFFFF" d="M154.751,208.527l4.237,4.237c0.082,0.081,0.214,0.081,0.297,0l4.237-4.237
				c0.082-0.084,0.081-0.218-0.003-0.3c-0.039-0.038-0.091-0.06-0.145-0.061h-2.479c-0.113-0.01-0.202-0.099-0.212-0.212v-10.169
				c0.012-0.116-0.073-0.22-0.19-0.232c-0.007-0.001-0.015-0.001-0.022-0.001h-2.627c-0.129,0-0.233,0.104-0.233,0.233v10.169
				c0,0.117-0.095,0.212-0.212,0.212l0,0h-2.5c-0.117,0.002-0.21,0.098-0.209,0.215
				C154.691,208.436,154.713,208.488,154.751,208.527z"/>
		</g>
		<path id="ac0a9c0c-2e8c-4843-b02b-2fadf76b27d0_00000148643690751617490530000010332524325600861569_" fill="#2E76BC" d="
			M162.865,197.32c-2.571,1.855-6.16,1.274-8.015-1.297c-1.764-2.446-1.336-5.84,0.981-7.77l0,0c2.604-1.809,6.182-1.164,7.99,1.44
			c1.692,2.436,1.25,5.76-1.021,7.669"/>
		
			<linearGradient id="SVGID_00000111159747211729357240000001282354728577135247_" gradientUnits="userSpaceOnUse" x1="156.2702" y1="-1342.26" x2="156.249" y2="-1339.5908" gradientTransform="matrix(1 0 0 -1 0 -1147.7787)">
			<stop  offset="0" style="stop-color:#CCCCCB"/>
			<stop  offset="0.12" style="stop-color:#D7D7D7"/>
			<stop  offset="0.42" style="stop-color:#EBEBEB"/>
			<stop  offset="0.72" style="stop-color:#F8F8F8"/>
			<stop  offset="1" style="stop-color:#FDFEFE"/>
		</linearGradient>
		<circle fill="url(#SVGID_00000111159747211729357240000001282354728577135247_)" cx="156.255" cy="192.596" r="1.843"/>
		<g>
			<path opacity="0.55" fill="#F2F2F3" enable-background="new    " d="M154.433,195.668l0.403,0.636l0.297,0.424
				c0.164-0.798,0.405-1.579,0.72-2.33c-0.36-0.062-0.692-0.232-0.953-0.487C154.707,194.485,154.551,195.072,154.433,195.668z"/>
			<path opacity="0.55" fill="#F2F2F3" enable-background="new    " d="M155.641,190.859c-0.248-0.634-0.419-1.295-0.508-1.97
				c-0.277,0.296-0.519,0.623-0.72,0.974c0.084,0.536,0.226,1.062,0.424,1.568C155.055,191.179,155.331,190.983,155.641,190.859z"/>
			<path opacity="0.55" fill="#F2F2F3" enable-background="new    " d="M157.611,193.846c-0.271,0.288-0.628,0.481-1.017,0.551
				c0.305,0.311,0.631,0.601,0.975,0.869c0.433,0.317,0.894,0.593,1.377,0.826v-0.148c0.009-0.331,0.164-0.641,0.424-0.847
				C158.727,194.764,158.135,194.344,157.611,193.846z"/>
			<path opacity="0.55" fill="#F2F2F3" enable-background="new    " d="M163.161,196.091c-0.62-0.005-1.238-0.076-1.843-0.212l0,0
				c0.001,0.309-0.121,0.607-0.339,0.826c0.751,0.164,1.521,0.221,2.288,0.169c0.289-0.271,0.552-0.569,0.784-0.89L163.161,196.091z
				"/>
		</g>
		
			<linearGradient id="SVGID_00000036956160124380859210000009534204339571434912_" gradientUnits="userSpaceOnUse" x1="160.132" y1="-1344.9081" x2="160.132" y2="-1342.5354" gradientTransform="matrix(1 0 0 -1 0 -1147.7787)">
			<stop  offset="0" style="stop-color:#CCCCCB"/>
			<stop  offset="0.12" style="stop-color:#D7D7D7"/>
			<stop  offset="0.42" style="stop-color:#EBEBEB"/>
			<stop  offset="0.72" style="stop-color:#F8F8F8"/>
			<stop  offset="1" style="stop-color:#FDFEFE"/>
		</linearGradient>
		<circle fill="url(#SVGID_00000036956160124380859210000009534204339571434912_)" cx="160.132" cy="195.943" r="1.186"/>
		<circle fill="#F2F2F3" cx="162.844" cy="192.998" r="1.271"/>
		<g>
			<path opacity="0.55" fill="#F2F2F3" enable-background="new    " d="M159.814,190.202c1.243-0.595,2.605-0.899,3.983-0.89
				c-0.284-0.365-0.619-0.686-0.996-0.953c-1.087,0.065-2.154,0.316-3.157,0.741c-0.212,0-0.403,0.233-0.614,0.339l0,0
				c-0.507-0.612-0.954-1.272-1.335-1.97l-0.72,0.275c0.379,0.755,0.84,1.466,1.377,2.118c-0.515,0.335-0.991,0.726-1.419,1.165
				c0.376,0.141,0.696,0.402,0.911,0.741c0.389-0.389,0.823-0.73,1.292-1.017c0.765,0.774,1.594,1.483,2.479,2.118
				c0.06-0.268,0.21-0.507,0.424-0.678C161.243,191.593,160.499,190.927,159.814,190.202z"/>
			<path opacity="0.55" fill="#F2F2F3" enable-background="new    " d="M164.772,193.74L164.772,193.74h-0.212l0,0h-0.169l0,0
				l-0.212-0.127c-0.074,0.25-0.222,0.471-0.424,0.636l0.254,0.148l0,0l0.233,0.127l0,0l0.593,0.297l0,0
				c0.076-0.244,0.14-0.491,0.191-0.741L164.772,193.74z"/>
		</g>
		<circle fill="#F2F2F3" cx="156.255" cy="192.596" r="1.843"/>
		<circle fill="#F2F2F3" cx="160.132" cy="195.943" r="1.186"/>
	</g>
	<g>
		<g>
			<line fill="none" stroke="#3C3C41" stroke-miterlimit="10" x1="213.483" y1="304.82" x2="282.901" y2="304.82"/>
			<g>
				<polygon fill="#3C3C41" points="281.806,308.56 288.283,304.82 281.806,301.081 				"/>
			</g>
		</g>
	</g>
</g>
<g id="Text">
	<g>
		<rect x="295.483" y="200.519" fill="none" width="74.8" height="33.902"/>
		<path fill="#2F2F2F" d="M304.055,202.618l-3.63,9.803h-1.265l-3.555-9.803h1.278l2.714,7.772c0.086,0.25,0.153,0.54,0.198,0.868
			h0.027c0.037-0.273,0.112-0.567,0.226-0.882l2.769-7.759H304.055z"/>
		<path fill="#2F2F2F" d="M305.966,203.643c-0.201,0-0.372-0.068-0.513-0.205s-0.212-0.311-0.212-0.52
			c0-0.21,0.071-0.384,0.212-0.523c0.141-0.139,0.312-0.208,0.513-0.208c0.205,0,0.379,0.069,0.523,0.208
			c0.144,0.14,0.215,0.313,0.215,0.523c0,0.2-0.072,0.371-0.215,0.513C306.346,203.572,306.172,203.643,305.966,203.643z
			 M306.513,212.42h-1.121v-7h1.121V212.42z"/>
		<path fill="#2F2F2F" d="M312.282,206.555c-0.196-0.15-0.479-0.226-0.848-0.226c-0.479,0-0.878,0.226-1.2,0.677
			s-0.482,1.066-0.482,1.846v3.568h-1.121v-7h1.121v1.442h0.027c0.16-0.492,0.403-0.876,0.731-1.152
			c0.328-0.275,0.695-0.413,1.101-0.413c0.292,0,0.515,0.031,0.67,0.096V206.555z"/>
		<path fill="#2F2F2F" d="M317.201,212.352c-0.265,0.146-0.613,0.219-1.046,0.219c-1.226,0-1.839-0.684-1.839-2.051v-4.143h-1.203
			v-0.957h1.203v-1.709l1.121-0.362v2.071h1.764v0.957h-1.764v3.944c0,0.469,0.08,0.804,0.239,1.005
			c0.159,0.2,0.424,0.301,0.793,0.301c0.282,0,0.526-0.078,0.731-0.232V212.352z"/>
		<path fill="#2F2F2F" d="M324.32,212.42h-1.121v-1.107h-0.027c-0.465,0.848-1.185,1.271-2.16,1.271
			c-1.668,0-2.502-0.994-2.502-2.98v-4.184h1.114v4.006c0,1.477,0.565,2.215,1.695,2.215c0.547,0,0.997-0.202,1.351-0.605
			c0.353-0.403,0.529-0.931,0.529-1.582v-4.033h1.121V212.42z"/>
		<path fill="#2F2F2F" d="M331.475,212.42h-1.121v-1.094h-0.027c-0.487,0.838-1.205,1.258-2.153,1.258
			c-0.697,0-1.243-0.185-1.637-0.554c-0.395-0.369-0.592-0.859-0.592-1.47c0-1.309,0.771-2.069,2.311-2.283l2.099-0.294
			c0-1.189-0.48-1.784-1.442-1.784c-0.843,0-1.604,0.287-2.283,0.861v-1.148c0.688-0.438,1.481-0.656,2.379-0.656
			c1.646,0,2.468,0.87,2.468,2.611V212.42z M330.354,208.879l-1.688,0.232c-0.52,0.072-0.911,0.201-1.176,0.386
			s-0.396,0.512-0.396,0.981c0,0.342,0.122,0.621,0.365,0.837c0.244,0.217,0.569,0.325,0.975,0.325c0.556,0,1.016-0.195,1.377-0.585
			c0.363-0.39,0.544-0.883,0.544-1.479V208.879z"/>
		<path fill="#2F2F2F" d="M334.616,212.42h-1.121v-10.363h1.121V212.42z"/>
		<path fill="#2F2F2F" d="M302.428,229.22h-1.121v-3.992c0-1.486-0.542-2.229-1.627-2.229c-0.561,0-1.024,0.211-1.391,0.632
			c-0.367,0.422-0.55,0.954-0.55,1.597v3.992h-1.121v-7h1.121v1.162h0.027c0.529-0.885,1.294-1.326,2.297-1.326
			c0.766,0,1.351,0.247,1.757,0.741c0.406,0.495,0.608,1.209,0.608,2.144V229.22z"/>
		<path fill="#2F2F2F" d="M310.131,226h-4.942c0.018,0.779,0.228,1.381,0.629,1.805s0.953,0.636,1.654,0.636
			c0.789,0,1.513-0.26,2.174-0.779v1.053c-0.615,0.446-1.429,0.67-2.44,0.67c-0.989,0-1.766-0.318-2.331-0.954
			s-0.848-1.53-0.848-2.683c0-1.09,0.309-1.977,0.926-2.663c0.618-0.686,1.384-1.028,2.3-1.028s1.625,0.296,2.126,0.889
			c0.501,0.592,0.752,1.415,0.752,2.468V226z M308.983,225.05c-0.004-0.647-0.161-1.151-0.468-1.511
			c-0.308-0.36-0.735-0.54-1.282-0.54c-0.529,0-0.978,0.188-1.347,0.567c-0.369,0.378-0.597,0.872-0.684,1.483H308.983z"/>
		<path fill="#2F2F2F" d="M315.055,229.152c-0.264,0.146-0.613,0.219-1.045,0.219c-1.227,0-1.839-0.684-1.839-2.051v-4.143h-1.203
			v-0.957h1.203v-1.709l1.121-0.362v2.071h1.764v0.957h-1.764v3.944c0,0.469,0.08,0.804,0.24,1.005
			c0.158,0.2,0.424,0.301,0.793,0.301c0.281,0,0.525-0.078,0.73-0.232V229.152z"/>
		<path fill="#2F2F2F" d="M325.746,222.22l-2.099,7h-1.162l-1.442-5.011c-0.055-0.191-0.091-0.408-0.109-0.649h-0.027
			c-0.014,0.164-0.062,0.376-0.144,0.636l-1.565,5.024h-1.121l-2.119-7h1.176l1.449,5.264c0.046,0.159,0.077,0.369,0.096,0.629
			h0.055c0.014-0.201,0.055-0.415,0.123-0.643l1.613-5.25h1.025l1.449,5.277c0.046,0.168,0.08,0.378,0.103,0.629h0.055
			c0.009-0.178,0.048-0.388,0.116-0.629l1.422-5.277H325.746z"/>
		<path fill="#2F2F2F" d="M329.82,229.384c-1.034,0-1.86-0.327-2.479-0.981c-0.617-0.653-0.926-1.521-0.926-2.601
			c0-1.176,0.321-2.095,0.964-2.755c0.643-0.661,1.511-0.991,2.604-0.991c1.044,0,1.858,0.321,2.443,0.964
			c0.586,0.643,0.879,1.533,0.879,2.673c0,1.116-0.315,2.011-0.947,2.683C331.729,229.048,330.882,229.384,329.82,229.384z
			 M329.903,222.999c-0.72,0-1.29,0.245-1.709,0.734c-0.419,0.49-0.629,1.166-0.629,2.027c0,0.829,0.212,1.483,0.636,1.962
			s0.991,0.718,1.702,0.718c0.725,0,1.281-0.235,1.672-0.704c0.389-0.47,0.584-1.138,0.584-2.003c0-0.875-0.195-1.55-0.584-2.023
			C331.184,223.236,330.627,222.999,329.903,222.999z"/>
		<path fill="#2F2F2F" d="M338.673,223.355c-0.196-0.15-0.479-0.226-0.848-0.226c-0.479,0-0.879,0.226-1.199,0.677
			c-0.322,0.451-0.482,1.066-0.482,1.846v3.568h-1.121v-7h1.121v1.442h0.027c0.159-0.492,0.403-0.876,0.731-1.152
			c0.328-0.275,0.695-0.413,1.101-0.413c0.292,0,0.515,0.031,0.67,0.096V223.355z"/>
		<path fill="#2F2F2F" d="M345.727,229.22h-1.572l-3.09-3.363h-0.027v3.363h-1.121v-10.363h1.121v6.569h0.027l2.939-3.206h1.47
			l-3.247,3.377L345.727,229.22z"/>
		<path fill="#2F2F2F" d="M354.525,229.22h-1.121v-8.47c-0.087,0.086-0.213,0.186-0.379,0.297c-0.167,0.112-0.354,0.223-0.561,0.332
			c-0.208,0.109-0.427,0.212-0.656,0.308c-0.23,0.096-0.455,0.171-0.674,0.226v-1.135c0.246-0.068,0.507-0.161,0.783-0.277
			c0.275-0.116,0.547-0.246,0.812-0.39c0.268-0.144,0.519-0.294,0.756-0.451s0.442-0.311,0.615-0.461h0.424V229.22z"/>
	</g>
	<g>
		<path fill="#2F2F2F" d="M15.251,255.96h-1.148v-9.803h1.148V255.96z"/>
		<path fill="#2F2F2F" d="M23.326,255.96h-1.121v-3.992c0-1.485-0.542-2.229-1.627-2.229c-0.561,0-1.024,0.211-1.391,0.633
			c-0.367,0.421-0.551,0.953-0.551,1.596v3.992h-1.121v-7h1.121v1.162h0.027c0.528-0.884,1.294-1.326,2.297-1.326
			c0.766,0,1.352,0.247,1.757,0.742c0.405,0.494,0.608,1.209,0.608,2.143V255.96z"/>
		<path fill="#2F2F2F" d="M28.555,255.892c-0.265,0.146-0.613,0.219-1.046,0.219c-1.226,0-1.839-0.684-1.839-2.051v-4.143h-1.203
			v-0.957h1.203v-1.709l1.121-0.362v2.071h1.764v0.957h-1.764v3.944c0,0.47,0.08,0.805,0.239,1.005
			c0.159,0.201,0.424,0.301,0.793,0.301c0.282,0,0.526-0.077,0.731-0.232V255.892z"/>
		<path fill="#2F2F2F" d="M35.548,252.741h-4.942c0.019,0.779,0.228,1.381,0.629,1.805s0.952,0.636,1.654,0.636
			c0.788,0,1.513-0.26,2.174-0.779v1.053c-0.615,0.447-1.429,0.67-2.44,0.67c-0.989,0-1.766-0.317-2.331-0.953
			s-0.848-1.53-0.848-2.684c0-1.089,0.309-1.977,0.926-2.662c0.618-0.687,1.385-1.029,2.301-1.029s1.625,0.297,2.126,0.889
			c0.501,0.593,0.752,1.415,0.752,2.468V252.741z M34.4,251.79c-0.005-0.646-0.161-1.15-0.468-1.511
			c-0.309-0.359-0.735-0.54-1.282-0.54c-0.528,0-0.978,0.189-1.347,0.567c-0.369,0.379-0.597,0.873-0.684,1.483H34.4z"/>
		<path fill="#2F2F2F" d="M40.881,250.095c-0.196-0.15-0.479-0.226-0.848-0.226c-0.479,0-0.879,0.226-1.199,0.677
			c-0.322,0.451-0.482,1.066-0.482,1.846v3.568h-1.121v-7h1.121v1.442h0.027c0.159-0.492,0.403-0.876,0.731-1.151
			c0.328-0.276,0.695-0.414,1.101-0.414c0.292,0,0.515,0.032,0.67,0.096V250.095z"/>
		<path fill="#2F2F2F" d="M47.935,255.96h-1.121v-3.992c0-1.485-0.542-2.229-1.627-2.229c-0.561,0-1.024,0.211-1.391,0.633
			c-0.367,0.421-0.551,0.953-0.551,1.596v3.992h-1.121v-7h1.121v1.162h0.027c0.528-0.884,1.294-1.326,2.297-1.326
			c0.766,0,1.352,0.247,1.757,0.742c0.405,0.494,0.608,1.209,0.608,2.143V255.96z"/>
		<path fill="#2F2F2F" d="M55.639,252.741h-4.942c0.019,0.779,0.228,1.381,0.629,1.805s0.952,0.636,1.654,0.636
			c0.788,0,1.513-0.26,2.174-0.779v1.053c-0.615,0.447-1.429,0.67-2.44,0.67c-0.989,0-1.766-0.317-2.331-0.953
			s-0.848-1.53-0.848-2.684c0-1.089,0.309-1.977,0.926-2.662c0.618-0.687,1.385-1.029,2.301-1.029s1.625,0.297,2.126,0.889
			c0.501,0.593,0.752,1.415,0.752,2.468V252.741z M54.49,251.79c-0.005-0.646-0.161-1.15-0.468-1.511
			c-0.309-0.359-0.735-0.54-1.282-0.54c-0.528,0-0.978,0.189-1.347,0.567c-0.369,0.379-0.597,0.873-0.684,1.483H54.49z"/>
		<path fill="#2F2F2F" d="M60.563,255.892c-0.265,0.146-0.613,0.219-1.046,0.219c-1.226,0-1.839-0.684-1.839-2.051v-4.143h-1.203
			v-0.957h1.203v-1.709l1.121-0.362v2.071h1.764v0.957h-1.764v3.944c0,0.47,0.08,0.805,0.239,1.005
			c0.159,0.201,0.424,0.301,0.793,0.301c0.282,0,0.526-0.077,0.731-0.232V255.892z"/>
	</g>
	<g>
		<g>
			<path fill="#2F2F2F" d="M431.025,145.417l-3.377,9.803h-2.502l-3.336-9.803h2.379l2.044,6.822
				c0.109,0.369,0.176,0.695,0.198,0.978h0.041c0.032-0.306,0.103-0.64,0.212-1.005l2.03-6.795H431.025z"/>
			<path fill="#2F2F2F" d="M443.279,155.22h-2.181v-5.865c0-0.633,0.027-1.333,0.082-2.099h-0.055
				c-0.114,0.602-0.217,1.034-0.308,1.299l-2.297,6.665h-1.805l-2.338-6.597c-0.063-0.178-0.166-0.634-0.308-1.367h-0.062
				c0.06,0.966,0.089,1.813,0.089,2.543v5.421h-1.989v-9.803h3.233l2.003,5.811c0.159,0.465,0.275,0.932,0.349,1.401h0.041
				c0.123-0.542,0.253-1.015,0.39-1.415l2.003-5.797h3.151V155.22z"/>
			<path fill="#2F2F2F" d="M445.057,154.844v-2.188c0.396,0.333,0.827,0.582,1.292,0.749c0.465,0.166,0.935,0.249,1.408,0.249
				c0.278,0,0.521-0.024,0.728-0.075c0.208-0.051,0.381-0.119,0.52-0.209c0.14-0.088,0.243-0.193,0.312-0.314
				c0.068-0.12,0.103-0.252,0.103-0.393c0-0.191-0.055-0.362-0.164-0.513s-0.259-0.29-0.447-0.417
				c-0.189-0.127-0.414-0.25-0.674-0.369s-0.54-0.239-0.841-0.362c-0.766-0.319-1.337-0.708-1.712-1.169
				c-0.377-0.461-0.564-1.016-0.564-1.668c0-0.51,0.103-0.949,0.308-1.316c0.205-0.366,0.484-0.668,0.837-0.905
				c0.354-0.237,0.763-0.411,1.228-0.522c0.465-0.112,0.957-0.168,1.477-0.168c0.511,0,0.963,0.031,1.356,0.092
				c0.395,0.062,0.758,0.156,1.091,0.284v2.044c-0.164-0.113-0.343-0.215-0.536-0.301c-0.194-0.086-0.394-0.158-0.599-0.215
				c-0.205-0.058-0.409-0.1-0.612-0.127c-0.202-0.027-0.395-0.041-0.577-0.041c-0.251,0-0.479,0.023-0.684,0.072
				c-0.205,0.047-0.378,0.115-0.52,0.201s-0.251,0.19-0.328,0.311c-0.077,0.121-0.116,0.257-0.116,0.407
				c0,0.164,0.043,0.312,0.13,0.44c0.087,0.131,0.21,0.254,0.369,0.369c0.159,0.117,0.354,0.23,0.581,0.342
				c0.228,0.112,0.485,0.227,0.772,0.346c0.392,0.164,0.744,0.338,1.056,0.523c0.312,0.184,0.58,0.393,0.804,0.625
				s0.395,0.498,0.513,0.797c0.118,0.298,0.178,0.646,0.178,1.042c0,0.547-0.104,1.006-0.311,1.378
				c-0.208,0.371-0.489,0.672-0.845,0.902c-0.355,0.229-0.769,0.395-1.241,0.495c-0.471,0.101-0.969,0.15-1.493,0.15
				c-0.538,0-1.05-0.046-1.534-0.137C445.832,155.163,445.412,155.027,445.057,154.844z"/>
			<path fill="#2F2F2F" d="M452.917,154.844v-2.188c0.396,0.333,0.827,0.582,1.292,0.749c0.465,0.166,0.935,0.249,1.408,0.249
				c0.278,0,0.521-0.024,0.728-0.075c0.208-0.051,0.381-0.119,0.52-0.209c0.14-0.088,0.243-0.193,0.312-0.314
				c0.068-0.12,0.103-0.252,0.103-0.393c0-0.191-0.055-0.362-0.164-0.513s-0.259-0.29-0.447-0.417
				c-0.189-0.127-0.414-0.25-0.674-0.369s-0.54-0.239-0.841-0.362c-0.766-0.319-1.337-0.708-1.712-1.169
				c-0.377-0.461-0.564-1.016-0.564-1.668c0-0.51,0.103-0.949,0.308-1.316c0.205-0.366,0.484-0.668,0.837-0.905
				c0.354-0.237,0.763-0.411,1.228-0.522c0.465-0.112,0.957-0.168,1.477-0.168c0.511,0,0.963,0.031,1.356,0.092
				c0.395,0.062,0.758,0.156,1.091,0.284v2.044c-0.164-0.113-0.343-0.215-0.536-0.301c-0.194-0.086-0.394-0.158-0.599-0.215
				c-0.205-0.058-0.409-0.1-0.612-0.127c-0.202-0.027-0.395-0.041-0.577-0.041c-0.251,0-0.479,0.023-0.684,0.072
				c-0.205,0.047-0.378,0.115-0.52,0.201s-0.251,0.19-0.328,0.311c-0.077,0.121-0.116,0.257-0.116,0.407
				c0,0.164,0.043,0.312,0.13,0.44c0.087,0.131,0.21,0.254,0.369,0.369c0.159,0.117,0.354,0.23,0.581,0.342
				c0.228,0.112,0.485,0.227,0.772,0.346c0.392,0.164,0.744,0.338,1.056,0.523c0.312,0.184,0.58,0.393,0.804,0.625
				s0.395,0.498,0.513,0.797c0.118,0.298,0.178,0.646,0.178,1.042c0,0.547-0.104,1.006-0.311,1.378
				c-0.208,0.371-0.489,0.672-0.845,0.902c-0.355,0.229-0.769,0.395-1.241,0.495c-0.471,0.101-0.969,0.15-1.493,0.15
				c-0.538,0-1.05-0.046-1.534-0.137C453.693,155.163,453.273,155.027,452.917,154.844z"/>
		</g>
	</g>
	<g>
		<path fill="#2F2F2F" d="M283.879,80.42h-1.408l-5.045-7.813c-0.127-0.196-0.232-0.401-0.314-0.615h-0.041
			c0.037,0.209,0.055,0.658,0.055,1.347v7.082h-1.148v-9.803h1.49l4.908,7.69c0.205,0.318,0.337,0.537,0.396,0.656h0.027
			c-0.045-0.283-0.068-0.764-0.068-1.442v-6.904h1.148V80.42z"/>
		<path fill="#2F2F2F" d="M285.991,80.024V78.67c0.155,0.137,0.341,0.26,0.557,0.369s0.444,0.201,0.684,0.276
			s0.479,0.134,0.721,0.175s0.465,0.062,0.67,0.062c0.707,0,1.234-0.131,1.583-0.394c0.349-0.262,0.523-0.639,0.523-1.131
			c0-0.265-0.058-0.495-0.174-0.69c-0.116-0.196-0.277-0.375-0.482-0.537c-0.205-0.161-0.448-0.316-0.728-0.465
			c-0.28-0.147-0.582-0.304-0.906-0.468c-0.342-0.174-0.661-0.349-0.957-0.526s-0.554-0.374-0.772-0.588
			c-0.219-0.215-0.391-0.457-0.516-0.729c-0.125-0.271-0.188-0.589-0.188-0.953c0-0.447,0.098-0.835,0.294-1.166
			c0.196-0.33,0.454-0.603,0.772-0.816c0.319-0.215,0.683-0.374,1.09-0.479c0.408-0.105,0.824-0.157,1.248-0.157
			c0.966,0,1.67,0.116,2.112,0.349v1.292c-0.579-0.401-1.322-0.602-2.229-0.602c-0.25,0-0.501,0.026-0.752,0.078
			c-0.25,0.053-0.474,0.138-0.67,0.257c-0.196,0.118-0.355,0.271-0.479,0.458c-0.123,0.187-0.185,0.414-0.185,0.684
			c0,0.25,0.047,0.467,0.14,0.649c0.093,0.182,0.231,0.349,0.414,0.499s0.404,0.296,0.667,0.438
			c0.262,0.141,0.564,0.296,0.906,0.465c0.351,0.173,0.684,0.355,0.998,0.547s0.59,0.403,0.827,0.636s0.425,0.489,0.564,0.772
			c0.139,0.282,0.208,0.605,0.208,0.971c0,0.482-0.095,0.892-0.284,1.227s-0.444,0.607-0.766,0.817
			c-0.321,0.209-0.691,0.361-1.111,0.454c-0.419,0.094-0.861,0.141-1.326,0.141c-0.155,0-0.346-0.013-0.574-0.038
			c-0.228-0.024-0.46-0.062-0.697-0.109s-0.461-0.106-0.673-0.178C286.289,80.189,286.119,80.11,285.991,80.024z"/>
		<path fill="#2F2F2F" d="M301.215,79.75c-0.984,0.556-2.078,0.834-3.281,0.834c-1.399,0-2.53-0.451-3.394-1.354
			s-1.295-2.097-1.295-3.582c0-1.518,0.479-2.763,1.439-3.736c0.959-0.973,2.175-1.459,3.647-1.459c1.066,0,1.962,0.173,2.687,0.52
			v1.271c-0.793-0.502-1.732-0.752-2.816-0.752c-1.098,0-1.999,0.378-2.7,1.135c-0.702,0.756-1.053,1.736-1.053,2.939
			c0,1.239,0.326,2.214,0.978,2.922c0.652,0.709,1.536,1.063,2.652,1.063c0.766,0,1.429-0.153,1.989-0.458v-2.748h-2.146v-1.039
			h3.295V79.75z"/>
	</g>
	<g>
		<g>
			<path fill="#2F2F2F" d="M318.057,154.844v-2.188c0.396,0.333,0.827,0.582,1.292,0.749c0.465,0.166,0.935,0.249,1.408,0.249
				c0.278,0,0.521-0.024,0.728-0.075c0.208-0.051,0.381-0.119,0.52-0.209c0.14-0.088,0.243-0.193,0.312-0.314
				c0.068-0.12,0.103-0.252,0.103-0.393c0-0.191-0.055-0.362-0.164-0.513s-0.259-0.29-0.447-0.417
				c-0.189-0.127-0.414-0.25-0.674-0.369s-0.54-0.239-0.841-0.362c-0.766-0.319-1.337-0.708-1.712-1.169
				c-0.377-0.461-0.564-1.016-0.564-1.668c0-0.51,0.103-0.949,0.308-1.316c0.205-0.366,0.484-0.668,0.837-0.905
				c0.354-0.237,0.763-0.411,1.228-0.522c0.465-0.112,0.957-0.168,1.477-0.168c0.511,0,0.963,0.031,1.356,0.092
				c0.395,0.062,0.758,0.156,1.091,0.284v2.044c-0.164-0.113-0.343-0.215-0.536-0.301c-0.194-0.086-0.394-0.158-0.599-0.215
				c-0.205-0.058-0.409-0.1-0.612-0.127c-0.202-0.027-0.395-0.041-0.577-0.041c-0.251,0-0.479,0.023-0.684,0.072
				c-0.205,0.047-0.378,0.115-0.52,0.201s-0.251,0.19-0.328,0.311c-0.077,0.121-0.116,0.257-0.116,0.407
				c0,0.164,0.043,0.312,0.13,0.44c0.087,0.131,0.21,0.254,0.369,0.369c0.159,0.117,0.354,0.23,0.581,0.342
				c0.228,0.112,0.485,0.227,0.772,0.346c0.392,0.164,0.744,0.338,1.056,0.523c0.312,0.184,0.58,0.393,0.804,0.625
				s0.395,0.498,0.513,0.797c0.118,0.298,0.178,0.646,0.178,1.042c0,0.547-0.104,1.006-0.311,1.378
				c-0.208,0.371-0.489,0.672-0.845,0.902c-0.355,0.229-0.769,0.395-1.241,0.495c-0.471,0.101-0.969,0.15-1.493,0.15
				c-0.538,0-1.05-0.046-1.534-0.137C318.833,155.163,318.413,155.027,318.057,154.844z"/>
			<path fill="#2F2F2F" d="M330.418,155.391c-1.403,0-2.548-0.456-3.432-1.367c-0.884-0.921-1.326-2.112-1.326-3.575
				c0-1.545,0.449-2.799,1.347-3.76c0.894-0.957,2.083-1.436,3.568-1.436c1.399,0,2.529,0.458,3.391,1.374
				c0.866,0.911,1.299,2.119,1.299,3.623c0,1.536-0.449,2.778-1.347,3.726c-0.032,0.031-0.062,0.062-0.089,0.092
				c-0.027,0.03-0.057,0.059-0.089,0.086l2.481,2.386h-3.09l-1.299-1.319C331.404,155.333,330.932,155.391,330.418,155.391z
				 M330.513,147.154c-0.771,0-1.386,0.291-1.846,0.875c-0.456,0.578-0.684,1.347-0.684,2.304c0,0.971,0.228,1.739,0.684,2.304
				s1.053,0.848,1.791,0.848c0.761,0,1.365-0.273,1.812-0.82c0.446-0.557,0.67-1.319,0.67-2.29c0-1.012-0.217-1.802-0.649-2.372
				C331.862,147.437,331.27,147.154,330.513,147.154z"/>
			<path fill="#2F2F2F" d="M342.681,155.22h-5.838v-9.803h2.208v8.012h3.63V155.22z"/>
		</g>
	</g>
	<g>
		<path fill="#2F2F2F" d="M394.941,80.42h-1.408l-5.045-7.813c-0.127-0.196-0.232-0.401-0.314-0.615h-0.041
			c0.037,0.209,0.055,0.658,0.055,1.347v7.082h-1.148v-9.803h1.49l4.908,7.69c0.205,0.318,0.337,0.537,0.396,0.656h0.027
			c-0.045-0.283-0.068-0.764-0.068-1.442v-6.904h1.148V80.42z"/>
		<path fill="#2F2F2F" d="M397.053,80.024V78.67c0.155,0.137,0.341,0.26,0.557,0.369s0.444,0.201,0.684,0.276
			s0.479,0.134,0.721,0.175s0.465,0.062,0.67,0.062c0.707,0,1.234-0.131,1.583-0.394c0.349-0.262,0.523-0.639,0.523-1.131
			c0-0.265-0.058-0.495-0.174-0.69c-0.116-0.196-0.277-0.375-0.482-0.537c-0.205-0.161-0.448-0.316-0.728-0.465
			c-0.28-0.147-0.582-0.304-0.906-0.468c-0.342-0.174-0.661-0.349-0.957-0.526s-0.554-0.374-0.772-0.588
			c-0.219-0.215-0.391-0.457-0.516-0.729c-0.125-0.271-0.188-0.589-0.188-0.953c0-0.447,0.098-0.835,0.294-1.166
			c0.196-0.33,0.454-0.603,0.772-0.816c0.319-0.215,0.683-0.374,1.09-0.479c0.408-0.105,0.824-0.157,1.248-0.157
			c0.966,0,1.67,0.116,2.112,0.349v1.292c-0.579-0.401-1.322-0.602-2.229-0.602c-0.25,0-0.501,0.026-0.752,0.078
			c-0.25,0.053-0.474,0.138-0.67,0.257c-0.196,0.118-0.355,0.271-0.479,0.458c-0.123,0.187-0.185,0.414-0.185,0.684
			c0,0.25,0.047,0.467,0.14,0.649c0.093,0.182,0.231,0.349,0.414,0.499s0.404,0.296,0.667,0.438
			c0.262,0.141,0.564,0.296,0.906,0.465c0.351,0.173,0.684,0.355,0.998,0.547s0.59,0.403,0.827,0.636s0.425,0.489,0.564,0.772
			c0.139,0.282,0.208,0.605,0.208,0.971c0,0.482-0.095,0.892-0.284,1.227s-0.444,0.607-0.766,0.817
			c-0.321,0.209-0.691,0.361-1.111,0.454c-0.419,0.094-0.861,0.141-1.326,0.141c-0.155,0-0.346-0.013-0.574-0.038
			c-0.228-0.024-0.46-0.062-0.697-0.109s-0.461-0.106-0.673-0.178C397.35,80.189,397.18,80.11,397.053,80.024z"/>
		<path fill="#2F2F2F" d="M412.277,79.75c-0.984,0.556-2.078,0.834-3.281,0.834c-1.399,0-2.53-0.451-3.394-1.354
			s-1.295-2.097-1.295-3.582c0-1.518,0.479-2.763,1.439-3.736c0.959-0.973,2.175-1.459,3.647-1.459c1.066,0,1.962,0.173,2.687,0.52
			v1.271c-0.793-0.502-1.732-0.752-2.816-0.752c-1.098,0-1.999,0.378-2.7,1.135c-0.702,0.756-1.053,1.736-1.053,2.939
			c0,1.239,0.326,2.214,0.978,2.922c0.652,0.709,1.536,1.063,2.652,1.063c0.766,0,1.429-0.153,1.989-0.458v-2.748h-2.146v-1.039
			h3.295V79.75z"/>
	</g>
	<g>
		<g>
			<path fill="#2F2F2F" d="M431.025,334.618l-3.377,9.803h-2.502l-3.336-9.803h2.379l2.044,6.822
				c0.109,0.369,0.176,0.694,0.198,0.978h0.041c0.032-0.306,0.103-0.641,0.212-1.005l2.03-6.795H431.025z"/>
			<path fill="#2F2F2F" d="M443.279,344.42h-2.181v-5.865c0-0.634,0.027-1.333,0.082-2.099h-0.055
				c-0.114,0.602-0.217,1.034-0.308,1.299l-2.297,6.665h-1.805l-2.338-6.597c-0.063-0.178-0.166-0.634-0.308-1.367h-0.062
				c0.06,0.966,0.089,1.813,0.089,2.543v5.421h-1.989v-9.803h3.233l2.003,5.811c0.159,0.465,0.275,0.932,0.349,1.401h0.041
				c0.123-0.543,0.253-1.015,0.39-1.415l2.003-5.797h3.151V344.42z"/>
			<path fill="#2F2F2F" d="M445.057,344.044v-2.188c0.396,0.332,0.827,0.582,1.292,0.748c0.465,0.167,0.935,0.25,1.408,0.25
				c0.278,0,0.521-0.025,0.728-0.075c0.208-0.051,0.381-0.12,0.52-0.209c0.14-0.089,0.243-0.193,0.312-0.314
				c0.068-0.12,0.103-0.252,0.103-0.393c0-0.191-0.055-0.362-0.164-0.513s-0.259-0.29-0.447-0.417
				c-0.189-0.128-0.414-0.251-0.674-0.369c-0.26-0.119-0.54-0.239-0.841-0.362c-0.766-0.319-1.337-0.709-1.712-1.169
				c-0.377-0.461-0.564-1.017-0.564-1.668c0-0.511,0.103-0.949,0.308-1.316c0.205-0.366,0.484-0.669,0.837-0.905
				c0.354-0.237,0.763-0.411,1.228-0.523c0.465-0.111,0.957-0.167,1.477-0.167c0.511,0,0.963,0.03,1.356,0.092
				c0.395,0.062,0.758,0.156,1.091,0.284v2.044c-0.164-0.114-0.343-0.215-0.536-0.301c-0.194-0.087-0.394-0.158-0.599-0.216
				c-0.205-0.057-0.409-0.099-0.612-0.126c-0.202-0.027-0.395-0.041-0.577-0.041c-0.251,0-0.479,0.023-0.684,0.071
				s-0.378,0.115-0.52,0.202c-0.142,0.086-0.251,0.19-0.328,0.311c-0.077,0.121-0.116,0.257-0.116,0.407
				c0,0.164,0.043,0.311,0.13,0.44s0.21,0.253,0.369,0.369s0.354,0.23,0.581,0.342c0.228,0.112,0.485,0.227,0.772,0.346
				c0.392,0.164,0.744,0.338,1.056,0.522c0.312,0.185,0.58,0.394,0.804,0.626s0.395,0.498,0.513,0.796
				c0.118,0.299,0.178,0.646,0.178,1.043c0,0.547-0.104,1.006-0.311,1.377c-0.208,0.372-0.489,0.673-0.845,0.902
				c-0.355,0.23-0.769,0.396-1.241,0.496c-0.471,0.1-0.969,0.15-1.493,0.15c-0.538,0-1.05-0.046-1.534-0.137
				C445.832,344.363,445.412,344.226,445.057,344.044z"/>
			<path fill="#2F2F2F" d="M452.917,344.044v-2.188c0.396,0.332,0.827,0.582,1.292,0.748c0.465,0.167,0.935,0.25,1.408,0.25
				c0.278,0,0.521-0.025,0.728-0.075c0.208-0.051,0.381-0.12,0.52-0.209c0.14-0.089,0.243-0.193,0.312-0.314
				c0.068-0.12,0.103-0.252,0.103-0.393c0-0.191-0.055-0.362-0.164-0.513s-0.259-0.29-0.447-0.417
				c-0.189-0.128-0.414-0.251-0.674-0.369c-0.26-0.119-0.54-0.239-0.841-0.362c-0.766-0.319-1.337-0.709-1.712-1.169
				c-0.377-0.461-0.564-1.017-0.564-1.668c0-0.511,0.103-0.949,0.308-1.316c0.205-0.366,0.484-0.669,0.837-0.905
				c0.354-0.237,0.763-0.411,1.228-0.523c0.465-0.111,0.957-0.167,1.477-0.167c0.511,0,0.963,0.03,1.356,0.092
				c0.395,0.062,0.758,0.156,1.091,0.284v2.044c-0.164-0.114-0.343-0.215-0.536-0.301c-0.194-0.087-0.394-0.158-0.599-0.216
				c-0.205-0.057-0.409-0.099-0.612-0.126c-0.202-0.027-0.395-0.041-0.577-0.041c-0.251,0-0.479,0.023-0.684,0.071
				s-0.378,0.115-0.52,0.202c-0.142,0.086-0.251,0.19-0.328,0.311c-0.077,0.121-0.116,0.257-0.116,0.407
				c0,0.164,0.043,0.311,0.13,0.44s0.21,0.253,0.369,0.369s0.354,0.23,0.581,0.342c0.228,0.112,0.485,0.227,0.772,0.346
				c0.392,0.164,0.744,0.338,1.056,0.522c0.312,0.185,0.58,0.394,0.804,0.626s0.395,0.498,0.513,0.796
				c0.118,0.299,0.178,0.646,0.178,1.043c0,0.547-0.104,1.006-0.311,1.377c-0.208,0.372-0.489,0.673-0.845,0.902
				c-0.355,0.23-0.769,0.396-1.241,0.496c-0.471,0.1-0.969,0.15-1.493,0.15c-0.538,0-1.05-0.046-1.534-0.137
				C453.693,344.363,453.273,344.226,452.917,344.044z"/>
		</g>
	</g>
	<g>
		<path fill="#2F2F2F" d="M283.879,269.62h-1.408l-5.045-7.813c-0.127-0.196-0.232-0.401-0.314-0.615h-0.041
			c0.037,0.209,0.055,0.658,0.055,1.347v7.082h-1.148v-9.803h1.49l4.908,7.69c0.205,0.318,0.337,0.537,0.396,0.656h0.027
			c-0.045-0.283-0.068-0.764-0.068-1.442v-6.904h1.148V269.62z"/>
		<path fill="#2F2F2F" d="M285.991,269.224v-1.354c0.155,0.137,0.341,0.26,0.557,0.369s0.444,0.201,0.684,0.276
			s0.479,0.134,0.721,0.175s0.465,0.062,0.67,0.062c0.707,0,1.234-0.131,1.583-0.394c0.349-0.262,0.523-0.639,0.523-1.131
			c0-0.265-0.058-0.495-0.174-0.69c-0.116-0.196-0.277-0.375-0.482-0.537c-0.205-0.161-0.448-0.316-0.728-0.465
			c-0.28-0.147-0.582-0.304-0.906-0.468c-0.342-0.174-0.661-0.349-0.957-0.526s-0.554-0.374-0.772-0.588
			c-0.219-0.215-0.391-0.457-0.516-0.729c-0.125-0.271-0.188-0.589-0.188-0.953c0-0.447,0.098-0.835,0.294-1.166
			c0.196-0.33,0.454-0.603,0.772-0.816c0.319-0.215,0.683-0.374,1.09-0.479c0.408-0.105,0.824-0.157,1.248-0.157
			c0.966,0,1.67,0.116,2.112,0.349v1.292c-0.579-0.401-1.322-0.602-2.229-0.602c-0.25,0-0.501,0.026-0.752,0.078
			c-0.25,0.053-0.474,0.138-0.67,0.257c-0.196,0.118-0.355,0.271-0.479,0.458c-0.123,0.187-0.185,0.414-0.185,0.684
			c0,0.25,0.047,0.467,0.14,0.649c0.093,0.182,0.231,0.349,0.414,0.499s0.404,0.296,0.667,0.438
			c0.262,0.141,0.564,0.296,0.906,0.465c0.351,0.173,0.684,0.355,0.998,0.547s0.59,0.403,0.827,0.636s0.425,0.489,0.564,0.772
			c0.139,0.282,0.208,0.605,0.208,0.971c0,0.482-0.095,0.892-0.284,1.227s-0.444,0.607-0.766,0.817
			c-0.321,0.209-0.691,0.361-1.111,0.454c-0.419,0.094-0.861,0.141-1.326,0.141c-0.155,0-0.346-0.013-0.574-0.038
			c-0.228-0.024-0.46-0.062-0.697-0.109s-0.461-0.106-0.673-0.178C286.289,269.389,286.119,269.31,285.991,269.224z"/>
		<path fill="#2F2F2F" d="M301.215,268.951c-0.984,0.556-2.078,0.834-3.281,0.834c-1.399,0-2.53-0.451-3.394-1.354
			s-1.295-2.097-1.295-3.582c0-1.518,0.479-2.763,1.439-3.736c0.959-0.973,2.175-1.459,3.647-1.459c1.066,0,1.962,0.173,2.687,0.52
			v1.271c-0.793-0.502-1.732-0.752-2.816-0.752c-1.098,0-1.999,0.378-2.7,1.135c-0.702,0.756-1.053,1.736-1.053,2.939
			c0,1.239,0.326,2.214,0.978,2.922c0.652,0.709,1.536,1.063,2.652,1.063c0.766,0,1.429-0.153,1.989-0.458v-2.748h-2.146v-1.039
			h3.295V268.951z"/>
	</g>
	<g>
		<g>
			<path fill="#2F2F2F" d="M318.057,344.044v-2.188c0.396,0.332,0.827,0.582,1.292,0.748c0.465,0.167,0.935,0.25,1.408,0.25
				c0.278,0,0.521-0.025,0.728-0.075c0.208-0.051,0.381-0.12,0.52-0.209c0.14-0.089,0.243-0.193,0.312-0.314
				c0.068-0.12,0.103-0.252,0.103-0.393c0-0.191-0.055-0.362-0.164-0.513s-0.259-0.29-0.447-0.417
				c-0.189-0.128-0.414-0.251-0.674-0.369c-0.26-0.119-0.54-0.239-0.841-0.362c-0.766-0.319-1.337-0.709-1.712-1.169
				c-0.377-0.461-0.564-1.017-0.564-1.668c0-0.511,0.103-0.949,0.308-1.316c0.205-0.366,0.484-0.669,0.837-0.905
				c0.354-0.237,0.763-0.411,1.228-0.523c0.465-0.111,0.957-0.167,1.477-0.167c0.511,0,0.963,0.03,1.356,0.092
				c0.395,0.062,0.758,0.156,1.091,0.284v2.044c-0.164-0.114-0.343-0.215-0.536-0.301c-0.194-0.087-0.394-0.158-0.599-0.216
				c-0.205-0.057-0.409-0.099-0.612-0.126c-0.202-0.027-0.395-0.041-0.577-0.041c-0.251,0-0.479,0.023-0.684,0.071
				s-0.378,0.115-0.52,0.202c-0.142,0.086-0.251,0.19-0.328,0.311c-0.077,0.121-0.116,0.257-0.116,0.407
				c0,0.164,0.043,0.311,0.13,0.44s0.21,0.253,0.369,0.369s0.354,0.23,0.581,0.342c0.228,0.112,0.485,0.227,0.772,0.346
				c0.392,0.164,0.744,0.338,1.056,0.522c0.312,0.185,0.58,0.394,0.804,0.626s0.395,0.498,0.513,0.796
				c0.118,0.299,0.178,0.646,0.178,1.043c0,0.547-0.104,1.006-0.311,1.377c-0.208,0.372-0.489,0.673-0.845,0.902
				c-0.355,0.23-0.769,0.396-1.241,0.496c-0.471,0.1-0.969,0.15-1.493,0.15c-0.538,0-1.05-0.046-1.534-0.137
				C318.833,344.363,318.413,344.226,318.057,344.044z"/>
			<path fill="#2F2F2F" d="M330.418,344.591c-1.403,0-2.548-0.456-3.432-1.367c-0.884-0.921-1.326-2.112-1.326-3.575
				c0-1.545,0.449-2.799,1.347-3.76c0.894-0.957,2.083-1.436,3.568-1.436c1.399,0,2.529,0.458,3.391,1.374
				c0.866,0.911,1.299,2.119,1.299,3.623c0,1.535-0.449,2.777-1.347,3.726c-0.032,0.031-0.062,0.062-0.089,0.092
				c-0.027,0.03-0.057,0.059-0.089,0.086l2.481,2.386h-3.09l-1.299-1.319C331.404,344.534,330.932,344.591,330.418,344.591z
				 M330.513,336.354c-0.771,0-1.386,0.291-1.846,0.875c-0.456,0.578-0.684,1.347-0.684,2.304c0,0.971,0.228,1.738,0.684,2.304
				c0.456,0.564,1.053,0.848,1.791,0.848c0.761,0,1.365-0.273,1.812-0.82c0.446-0.557,0.67-1.319,0.67-2.29
				c0-1.012-0.217-1.803-0.649-2.372C331.862,336.636,331.27,336.354,330.513,336.354z"/>
			<path fill="#2F2F2F" d="M342.681,344.42h-5.838v-9.803h2.208v8.012h3.63V344.42z"/>
		</g>
	</g>
	<g>
		<path fill="#2F2F2F" d="M394.941,269.62h-1.408l-5.045-7.813c-0.127-0.196-0.232-0.401-0.314-0.615h-0.041
			c0.037,0.209,0.055,0.658,0.055,1.347v7.082h-1.148v-9.803h1.49l4.908,7.69c0.205,0.318,0.337,0.537,0.396,0.656h0.027
			c-0.045-0.283-0.068-0.764-0.068-1.442v-6.904h1.148V269.62z"/>
		<path fill="#2F2F2F" d="M397.053,269.224v-1.354c0.155,0.137,0.341,0.26,0.557,0.369s0.444,0.201,0.684,0.276
			s0.479,0.134,0.721,0.175s0.465,0.062,0.67,0.062c0.707,0,1.234-0.131,1.583-0.394c0.349-0.262,0.523-0.639,0.523-1.131
			c0-0.265-0.058-0.495-0.174-0.69c-0.116-0.196-0.277-0.375-0.482-0.537c-0.205-0.161-0.448-0.316-0.728-0.465
			c-0.28-0.147-0.582-0.304-0.906-0.468c-0.342-0.174-0.661-0.349-0.957-0.526s-0.554-0.374-0.772-0.588
			c-0.219-0.215-0.391-0.457-0.516-0.729c-0.125-0.271-0.188-0.589-0.188-0.953c0-0.447,0.098-0.835,0.294-1.166
			c0.196-0.33,0.454-0.603,0.772-0.816c0.319-0.215,0.683-0.374,1.09-0.479c0.408-0.105,0.824-0.157,1.248-0.157
			c0.966,0,1.67,0.116,2.112,0.349v1.292c-0.579-0.401-1.322-0.602-2.229-0.602c-0.25,0-0.501,0.026-0.752,0.078
			c-0.25,0.053-0.474,0.138-0.67,0.257c-0.196,0.118-0.355,0.271-0.479,0.458c-0.123,0.187-0.185,0.414-0.185,0.684
			c0,0.25,0.047,0.467,0.14,0.649c0.093,0.182,0.231,0.349,0.414,0.499s0.404,0.296,0.667,0.438
			c0.262,0.141,0.564,0.296,0.906,0.465c0.351,0.173,0.684,0.355,0.998,0.547s0.59,0.403,0.827,0.636s0.425,0.489,0.564,0.772
			c0.139,0.282,0.208,0.605,0.208,0.971c0,0.482-0.095,0.892-0.284,1.227s-0.444,0.607-0.766,0.817
			c-0.321,0.209-0.691,0.361-1.111,0.454c-0.419,0.094-0.861,0.141-1.326,0.141c-0.155,0-0.346-0.013-0.574-0.038
			c-0.228-0.024-0.46-0.062-0.697-0.109s-0.461-0.106-0.673-0.178C397.35,269.389,397.18,269.31,397.053,269.224z"/>
		<path fill="#2F2F2F" d="M412.277,268.951c-0.984,0.556-2.078,0.834-3.281,0.834c-1.399,0-2.53-0.451-3.394-1.354
			s-1.295-2.097-1.295-3.582c0-1.518,0.479-2.763,1.439-3.736c0.959-0.973,2.175-1.459,3.647-1.459c1.066,0,1.962,0.173,2.687,0.52
			v1.271c-0.793-0.502-1.732-0.752-2.816-0.752c-1.098,0-1.999,0.378-2.7,1.135c-0.702,0.756-1.053,1.736-1.053,2.939
			c0,1.239,0.326,2.214,0.978,2.922c0.652,0.709,1.536,1.063,2.652,1.063c0.766,0,1.429-0.153,1.989-0.458v-2.748h-2.146v-1.039
			h3.295V268.951z"/>
	</g>
	<g>
		<rect x="295.483" y="389.719" fill="none" width="74.8" height="33.902"/>
		<path fill="#2F2F2F" d="M304.055,391.818l-3.63,9.803h-1.265l-3.555-9.803h1.278l2.714,7.772c0.086,0.25,0.153,0.54,0.198,0.868
			h0.027c0.037-0.273,0.112-0.567,0.226-0.882l2.769-7.759H304.055z"/>
		<path fill="#2F2F2F" d="M305.966,392.843c-0.201,0-0.372-0.068-0.513-0.205s-0.212-0.311-0.212-0.52
			c0-0.21,0.071-0.384,0.212-0.523c0.141-0.139,0.312-0.208,0.513-0.208c0.205,0,0.379,0.069,0.523,0.208
			c0.144,0.14,0.215,0.313,0.215,0.523c0,0.2-0.072,0.371-0.215,0.513C306.346,392.772,306.172,392.843,305.966,392.843z
			 M306.513,401.62h-1.121v-7h1.121V401.62z"/>
		<path fill="#2F2F2F" d="M312.282,395.755c-0.196-0.15-0.479-0.226-0.848-0.226c-0.479,0-0.878,0.226-1.2,0.677
			s-0.482,1.066-0.482,1.846v3.568h-1.121v-7h1.121v1.442h0.027c0.16-0.492,0.403-0.876,0.731-1.152
			c0.328-0.275,0.695-0.413,1.101-0.413c0.292,0,0.515,0.031,0.67,0.096V395.755z"/>
		<path fill="#2F2F2F" d="M317.201,401.552c-0.265,0.146-0.613,0.219-1.046,0.219c-1.226,0-1.839-0.684-1.839-2.051v-4.143h-1.203
			v-0.957h1.203v-1.709l1.121-0.362v2.071h1.764v0.957h-1.764v3.944c0,0.469,0.08,0.804,0.239,1.005
			c0.159,0.2,0.424,0.301,0.793,0.301c0.282,0,0.526-0.078,0.731-0.232V401.552z"/>
		<path fill="#2F2F2F" d="M324.32,401.62h-1.121v-1.107h-0.027c-0.465,0.848-1.185,1.271-2.16,1.271
			c-1.668,0-2.502-0.994-2.502-2.98v-4.184h1.114v4.006c0,1.477,0.565,2.215,1.695,2.215c0.547,0,0.997-0.202,1.351-0.605
			c0.353-0.403,0.529-0.931,0.529-1.582v-4.033h1.121V401.62z"/>
		<path fill="#2F2F2F" d="M331.475,401.62h-1.121v-1.094h-0.027c-0.487,0.838-1.205,1.258-2.153,1.258
			c-0.697,0-1.243-0.185-1.637-0.554c-0.395-0.369-0.592-0.859-0.592-1.47c0-1.309,0.771-2.069,2.311-2.283l2.099-0.294
			c0-1.189-0.48-1.784-1.442-1.784c-0.843,0-1.604,0.287-2.283,0.861v-1.148c0.688-0.438,1.481-0.656,2.379-0.656
			c1.646,0,2.468,0.87,2.468,2.611V401.62z M330.354,398.079l-1.688,0.232c-0.52,0.072-0.911,0.201-1.176,0.386
			s-0.396,0.512-0.396,0.981c0,0.342,0.122,0.621,0.365,0.837c0.244,0.217,0.569,0.325,0.975,0.325c0.556,0,1.016-0.195,1.377-0.585
			c0.363-0.39,0.544-0.883,0.544-1.479V398.079z"/>
		<path fill="#2F2F2F" d="M334.616,401.62h-1.121v-10.363h1.121V401.62z"/>
		<path fill="#2F2F2F" d="M302.428,418.42h-1.121v-3.992c0-1.486-0.542-2.229-1.627-2.229c-0.561,0-1.024,0.211-1.391,0.632
			c-0.367,0.422-0.55,0.954-0.55,1.597v3.992h-1.121v-7h1.121v1.162h0.027c0.529-0.885,1.294-1.326,2.297-1.326
			c0.766,0,1.351,0.247,1.757,0.741c0.406,0.495,0.608,1.209,0.608,2.144V418.42z"/>
		<path fill="#2F2F2F" d="M310.131,415.201h-4.942c0.018,0.779,0.228,1.381,0.629,1.805s0.953,0.636,1.654,0.636
			c0.789,0,1.513-0.26,2.174-0.779v1.053c-0.615,0.446-1.429,0.67-2.44,0.67c-0.989,0-1.766-0.318-2.331-0.954
			s-0.848-1.53-0.848-2.683c0-1.09,0.309-1.977,0.926-2.663c0.618-0.686,1.384-1.028,2.3-1.028s1.625,0.296,2.126,0.889
			c0.501,0.592,0.752,1.415,0.752,2.468V415.201z M308.983,414.25c-0.004-0.647-0.161-1.151-0.468-1.511
			c-0.308-0.36-0.735-0.54-1.282-0.54c-0.529,0-0.978,0.188-1.347,0.567c-0.369,0.378-0.597,0.872-0.684,1.483H308.983z"/>
		<path fill="#2F2F2F" d="M315.055,418.352c-0.264,0.146-0.613,0.219-1.045,0.219c-1.227,0-1.839-0.684-1.839-2.051v-4.143h-1.203
			v-0.957h1.203v-1.709l1.121-0.362v2.071h1.764v0.957h-1.764v3.944c0,0.469,0.08,0.804,0.24,1.005
			c0.158,0.2,0.424,0.301,0.793,0.301c0.281,0,0.525-0.078,0.73-0.232V418.352z"/>
		<path fill="#2F2F2F" d="M325.746,411.42l-2.099,7h-1.162l-1.442-5.011c-0.055-0.191-0.091-0.408-0.109-0.649h-0.027
			c-0.014,0.164-0.062,0.376-0.144,0.636l-1.565,5.024h-1.121l-2.119-7h1.176l1.449,5.264c0.046,0.159,0.077,0.369,0.096,0.629
			h0.055c0.014-0.201,0.055-0.415,0.123-0.643l1.613-5.25h1.025l1.449,5.277c0.046,0.168,0.08,0.378,0.103,0.629h0.055
			c0.009-0.178,0.048-0.388,0.116-0.629l1.422-5.277H325.746z"/>
		<path fill="#2F2F2F" d="M329.82,418.584c-1.034,0-1.86-0.327-2.479-0.981c-0.617-0.653-0.926-1.521-0.926-2.601
			c0-1.176,0.321-2.095,0.964-2.755c0.643-0.661,1.511-0.991,2.604-0.991c1.044,0,1.858,0.321,2.443,0.964
			c0.586,0.643,0.879,1.533,0.879,2.673c0,1.116-0.315,2.011-0.947,2.683C331.729,418.248,330.882,418.584,329.82,418.584z
			 M329.903,412.2c-0.72,0-1.29,0.245-1.709,0.734c-0.419,0.49-0.629,1.166-0.629,2.027c0,0.829,0.212,1.483,0.636,1.962
			s0.991,0.718,1.702,0.718c0.725,0,1.281-0.235,1.672-0.704c0.389-0.47,0.584-1.138,0.584-2.003c0-0.875-0.195-1.55-0.584-2.023
			C331.184,412.436,330.627,412.2,329.903,412.2z"/>
		<path fill="#2F2F2F" d="M338.673,412.555c-0.196-0.15-0.479-0.226-0.848-0.226c-0.479,0-0.879,0.226-1.199,0.677
			c-0.322,0.451-0.482,1.066-0.482,1.846v3.568h-1.121v-7h1.121v1.442h0.027c0.159-0.492,0.403-0.876,0.731-1.152
			c0.328-0.275,0.695-0.413,1.101-0.413c0.292,0,0.515,0.031,0.67,0.096V412.555z"/>
		<path fill="#2F2F2F" d="M345.727,418.42h-1.572l-3.09-3.363h-0.027v3.363h-1.121v-10.363h1.121v6.569h0.027l2.939-3.206h1.47
			l-3.247,3.377L345.727,418.42z"/>
		<path fill="#2F2F2F" d="M354.853,411.188c0-0.301-0.047-0.563-0.141-0.786c-0.093-0.224-0.221-0.409-0.383-0.558
			c-0.161-0.147-0.352-0.259-0.57-0.331c-0.219-0.073-0.456-0.109-0.711-0.109c-0.219,0-0.433,0.029-0.643,0.089
			c-0.21,0.059-0.414,0.141-0.611,0.246c-0.199,0.104-0.391,0.229-0.574,0.376c-0.186,0.146-0.357,0.308-0.517,0.485v-1.203
			c0.314-0.306,0.667-0.539,1.056-0.701c0.391-0.161,0.865-0.242,1.426-0.242c0.401,0,0.772,0.058,1.114,0.174
			s0.638,0.286,0.889,0.51c0.251,0.223,0.448,0.499,0.591,0.827c0.145,0.328,0.216,0.704,0.216,1.128
			c0,0.387-0.044,0.738-0.134,1.053c-0.088,0.314-0.223,0.61-0.402,0.889c-0.181,0.277-0.407,0.544-0.681,0.8
			c-0.273,0.255-0.595,0.515-0.964,0.779c-0.46,0.328-0.84,0.608-1.139,0.841c-0.298,0.232-0.535,0.45-0.711,0.652
			c-0.175,0.203-0.298,0.406-0.369,0.608c-0.07,0.203-0.105,0.437-0.105,0.701h4.881v1.005h-6.05v-0.485
			c0-0.42,0.046-0.789,0.137-1.107c0.091-0.319,0.241-0.622,0.451-0.909s0.484-0.574,0.823-0.861
			c0.34-0.287,0.756-0.611,1.248-0.971c0.355-0.256,0.652-0.499,0.893-0.731c0.238-0.232,0.432-0.465,0.577-0.697
			s0.249-0.469,0.312-0.708C354.821,411.71,354.853,411.456,354.853,411.188z"/>
	</g>
	<g>
		<path fill="#1E1E1E" d="M251.741,24.911h-2.406l-0.697-2.181h-3.486l-0.69,2.181h-2.393l3.568-9.803h2.618L251.741,24.911z
			 M248.132,21.035l-1.053-3.295c-0.078-0.246-0.132-0.54-0.164-0.882h-0.055c-0.023,0.287-0.08,0.571-0.171,0.854l-1.066,3.322
			H248.132z"/>
		<path fill="#1E1E1E" d="M258.297,24.911h-6.282v-0.896l3.514-4.512h-3.165v-1.593h5.906v1.066l-3.329,4.341h3.356V24.911z"/>
		<path fill="#1E1E1E" d="M266.111,24.911h-2.153v-1.066h-0.034c-0.533,0.824-1.247,1.237-2.14,1.237
			c-1.623,0-2.434-0.982-2.434-2.946v-4.225h2.153v4.033c0,0.988,0.392,1.483,1.176,1.483c0.387,0,0.697-0.136,0.93-0.407
			c0.232-0.271,0.349-0.639,0.349-1.104v-4.006h2.153V24.911z"/>
		<path fill="#1E1E1E" d="M272.495,19.86c-0.26-0.142-0.563-0.212-0.909-0.212c-0.469,0-0.836,0.172-1.101,0.516
			c-0.264,0.345-0.396,0.812-0.396,1.405v3.343h-2.16v-7h2.16v1.299h0.027c0.342-0.948,0.957-1.422,1.846-1.422
			c0.228,0,0.406,0.027,0.533,0.082V19.86z"/>
		<path fill="#1E1E1E" d="M279.735,22.027h-4.566c0.073,1.016,0.713,1.524,1.921,1.524c0.77,0,1.447-0.183,2.03-0.547v1.559
			c-0.647,0.346-1.488,0.52-2.522,0.52c-1.13,0-2.007-0.313-2.632-0.94c-0.625-0.626-0.937-1.5-0.937-2.621
			c0-1.162,0.337-2.083,1.012-2.762c0.674-0.68,1.504-1.019,2.488-1.019c1.021,0,1.811,0.303,2.369,0.909
			c0.558,0.605,0.837,1.429,0.837,2.468V22.027z M277.732,20.701c0-1.003-0.406-1.504-1.217-1.504c-0.346,0-0.646,0.144-0.899,0.431
			s-0.407,0.645-0.461,1.073H277.732z"/>
		<path fill="#1E1E1E" d="M289.448,19.86c-0.26-0.142-0.563-0.212-0.909-0.212c-0.469,0-0.836,0.172-1.101,0.516
			c-0.264,0.345-0.396,0.812-0.396,1.405v3.343h-2.16v-7h2.16v1.299h0.027c0.342-0.948,0.957-1.422,1.846-1.422
			c0.228,0,0.406,0.027,0.533,0.082V19.86z"/>
		<path fill="#1E1E1E" d="M296.688,22.027h-4.566c0.073,1.016,0.713,1.524,1.921,1.524c0.77,0,1.447-0.183,2.03-0.547v1.559
			c-0.647,0.346-1.488,0.52-2.522,0.52c-1.13,0-2.007-0.313-2.632-0.94c-0.625-0.626-0.937-1.5-0.937-2.621
			c0-1.162,0.337-2.083,1.012-2.762c0.674-0.68,1.504-1.019,2.488-1.019c1.021,0,1.811,0.303,2.369,0.909
			c0.558,0.605,0.837,1.429,0.837,2.468V22.027z M294.685,20.701c0-1.003-0.406-1.504-1.217-1.504c-0.346,0-0.646,0.144-0.899,0.431
			s-0.407,0.645-0.461,1.073H294.685z"/>
		<path fill="#1E1E1E" d="M304.836,24.112c0,1.299-0.376,2.305-1.128,3.018c-0.752,0.714-1.841,1.07-3.268,1.07
			c-0.943,0-1.691-0.135-2.242-0.403v-1.818c0.72,0.419,1.447,0.629,2.181,0.629c0.729,0,1.294-0.192,1.695-0.578
			c0.401-0.385,0.602-0.908,0.602-1.568v-0.554h-0.027c-0.492,0.783-1.219,1.176-2.181,1.176c-0.893,0-1.602-0.314-2.126-0.943
			s-0.786-1.473-0.786-2.529c0-1.186,0.292-2.126,0.875-2.823s1.351-1.046,2.304-1.046c0.852,0,1.49,0.328,1.914,0.984h0.027v-0.813
			h2.16V24.112z M302.703,21.548v-0.554c0-0.442-0.131-0.819-0.393-1.132c-0.262-0.312-0.603-0.468-1.022-0.468
			c-0.479,0-0.854,0.187-1.128,0.561c-0.273,0.373-0.41,0.899-0.41,1.579c0,0.583,0.13,1.045,0.39,1.384
			c0.26,0.34,0.615,0.51,1.066,0.51c0.447,0,0.808-0.172,1.083-0.517C302.566,22.568,302.703,22.113,302.703,21.548z"/>
		<path fill="#1E1E1E" d="M307.735,16.804c-0.365,0-0.663-0.108-0.896-0.325c-0.232-0.216-0.349-0.481-0.349-0.796
			c0-0.324,0.116-0.588,0.349-0.793s0.531-0.308,0.896-0.308c0.369,0,0.669,0.103,0.899,0.308s0.345,0.469,0.345,0.793
			c0,0.328-0.115,0.597-0.345,0.807C308.404,16.699,308.104,16.804,307.735,16.804z M308.801,24.911h-2.16v-7h2.16V24.911z"/>
		<path fill="#1E1E1E" d="M313.955,25.082c-1.167,0-2.084-0.327-2.751-0.981c-0.667-0.653-1.001-1.541-1.001-2.662
			c0-1.158,0.346-2.063,1.039-2.718c0.693-0.653,1.629-0.98,2.81-0.98c1.162,0,2.074,0.327,2.734,0.98
			c0.661,0.654,0.991,1.519,0.991,2.595c0,1.162-0.341,2.08-1.022,2.755C316.073,24.744,315.14,25.082,313.955,25.082z
			 M314.01,19.395c-0.51,0-0.907,0.175-1.189,0.526c-0.283,0.351-0.424,0.848-0.424,1.49c0,1.344,0.542,2.017,1.627,2.017
			c1.035,0,1.552-0.69,1.552-2.071C315.575,20.048,315.053,19.395,314.01,19.395z"/>
		<path fill="#1E1E1E" d="M325.939,24.911h-2.153v-3.89c0-1.085-0.387-1.627-1.162-1.627c-0.374,0-0.681,0.144-0.923,0.431
			s-0.362,0.651-0.362,1.094v3.992h-2.16v-7h2.16v1.107h0.027c0.515-0.853,1.265-1.278,2.249-1.278c1.549,0,2.324,0.961,2.324,2.885
			V24.911z"/>
		<path fill="#1E1E1E" d="M336.288,14.89v10.021h-2.153v-7.588c-0.119,0.104-0.259,0.204-0.42,0.297
			c-0.162,0.094-0.334,0.178-0.516,0.253s-0.372,0.14-0.567,0.191c-0.196,0.053-0.39,0.09-0.581,0.113V16.36
			c0.561-0.164,1.089-0.374,1.586-0.629c0.497-0.256,0.946-0.536,1.347-0.841H336.288z"/>
	</g>
	<g>
		<rect x="111.436" y="230.311" fill="none" width="95.829" height="31.921"/>
		<path fill="#2F2F2F" d="M131.192,242.211h-2.406l-0.697-2.181h-3.486l-0.69,2.181h-2.393l3.568-9.803h2.618L131.192,242.211z
			 M127.582,238.335l-1.053-3.295c-0.077-0.246-0.132-0.54-0.164-0.882h-0.055c-0.022,0.287-0.08,0.572-0.171,0.854l-1.066,3.322
			H127.582z"/>
		<path fill="#2F2F2F" d="M134.375,241.398h-0.027v4.033h-2.16v-10.22h2.16v1.053h0.027c0.533-0.815,1.283-1.224,2.249-1.224
			c0.907,0,1.607,0.312,2.102,0.934c0.495,0.622,0.742,1.469,0.742,2.539c0,1.167-0.288,2.104-0.865,2.81
			c-0.576,0.707-1.343,1.06-2.3,1.06C135.46,242.382,134.818,242.054,134.375,241.398z M134.314,238.527v0.561
			c0,0.483,0.128,0.878,0.383,1.183c0.255,0.306,0.59,0.458,1.005,0.458c0.492,0,0.874-0.19,1.146-0.57
			c0.271-0.381,0.406-0.92,0.406-1.617c0-1.23-0.479-1.846-1.436-1.846c-0.442,0-0.803,0.168-1.084,0.503
			C134.454,237.533,134.314,237.976,134.314,238.527z"/>
		<path fill="#2F2F2F" d="M143.072,241.398h-0.027v4.033h-2.16v-10.22h2.16v1.053h0.027c0.533-0.815,1.283-1.224,2.249-1.224
			c0.907,0,1.607,0.312,2.102,0.934c0.495,0.622,0.742,1.469,0.742,2.539c0,1.167-0.288,2.104-0.865,2.81
			c-0.576,0.707-1.343,1.06-2.3,1.06C144.157,242.382,143.515,242.054,143.072,241.398z M143.011,238.527v0.561
			c0,0.483,0.128,0.878,0.383,1.183c0.255,0.306,0.59,0.458,1.005,0.458c0.492,0,0.874-0.19,1.146-0.57
			c0.271-0.381,0.406-0.92,0.406-1.617c0-1.23-0.479-1.846-1.436-1.846c-0.442,0-0.803,0.168-1.084,0.503
			C143.152,237.533,143.011,237.976,143.011,238.527z"/>
		<path fill="#2F2F2F" d="M151.755,242.211h-2.16v-10.363h2.16V242.211z"/>
		<path fill="#2F2F2F" d="M154.623,234.104c-0.364,0-0.663-0.108-0.896-0.324c-0.232-0.217-0.349-0.482-0.349-0.797
			c0-0.323,0.116-0.588,0.349-0.793s0.531-0.308,0.896-0.308c0.369,0,0.669,0.103,0.899,0.308c0.229,0.205,0.345,0.47,0.345,0.793
			c0,0.328-0.115,0.598-0.345,0.807C155.292,233.999,154.992,234.104,154.623,234.104z M155.69,242.211h-2.16v-7h2.16V242.211z"/>
		<path fill="#2F2F2F" d="M162.77,241.958c-0.487,0.283-1.191,0.424-2.112,0.424c-1.075,0-1.946-0.325-2.611-0.978
			c-0.665-0.651-0.998-1.492-0.998-2.522c0-1.189,0.356-2.127,1.07-2.812c0.713-0.687,1.666-1.029,2.86-1.029
			c0.825,0,1.422,0.109,1.791,0.328v1.832c-0.451-0.337-0.955-0.506-1.511-0.506c-0.62,0-1.111,0.182-1.473,0.544
			c-0.363,0.362-0.544,0.862-0.544,1.5c0,0.62,0.173,1.106,0.52,1.46c0.347,0.353,0.822,0.529,1.429,0.529
			c0.538,0,1.064-0.168,1.579-0.506V241.958z"/>
		<path fill="#2F2F2F" d="M170.106,242.211h-2.044v-1.005h-0.027c-0.47,0.784-1.164,1.176-2.085,1.176
			c-0.679,0-1.214-0.192-1.603-0.577c-0.391-0.386-0.585-0.899-0.585-1.542c0-1.357,0.805-2.142,2.413-2.352l1.9-0.253
			c0-0.766-0.415-1.148-1.244-1.148c-0.834,0-1.627,0.249-2.379,0.745v-1.627c0.301-0.154,0.712-0.291,1.234-0.41
			c0.521-0.118,0.996-0.178,1.425-0.178c1.996,0,2.994,0.996,2.994,2.987V242.211z M168.075,239.368v-0.472l-1.271,0.164
			c-0.702,0.092-1.053,0.408-1.053,0.95c0,0.246,0.086,0.448,0.256,0.605c0.172,0.157,0.402,0.235,0.694,0.235
			c0.405,0,0.736-0.14,0.991-0.42S168.075,239.796,168.075,239.368z"/>
		<path fill="#2F2F2F" d="M175.934,242.129c-0.319,0.169-0.8,0.253-1.442,0.253c-1.522,0-2.283-0.79-2.283-2.372v-3.206h-1.135
			v-1.593h1.135v-1.511l2.153-0.615v2.126h1.572v1.593h-1.572v2.83c0,0.729,0.289,1.094,0.868,1.094
			c0.228,0,0.463-0.065,0.704-0.198V242.129z"/>
		<path fill="#2F2F2F" d="M178.312,234.104c-0.364,0-0.663-0.108-0.896-0.324c-0.232-0.217-0.349-0.482-0.349-0.797
			c0-0.323,0.116-0.588,0.349-0.793s0.531-0.308,0.896-0.308c0.369,0,0.669,0.103,0.899,0.308c0.229,0.205,0.345,0.47,0.345,0.793
			c0,0.328-0.115,0.598-0.345,0.807C178.981,233.999,178.681,234.104,178.312,234.104z M179.378,242.211h-2.16v-7h2.16V242.211z"/>
		<path fill="#2F2F2F" d="M184.488,242.382c-1.167,0-2.084-0.327-2.751-0.98c-0.668-0.654-1.002-1.542-1.002-2.663
			c0-1.157,0.347-2.063,1.039-2.717c0.692-0.654,1.629-0.981,2.81-0.981c1.162,0,2.073,0.327,2.734,0.981
			c0.661,0.653,0.991,1.519,0.991,2.594c0,1.162-0.341,2.081-1.021,2.755C186.607,242.045,185.673,242.382,184.488,242.382z
			 M184.543,236.695c-0.511,0-0.907,0.176-1.189,0.526c-0.282,0.352-0.424,0.848-0.424,1.49c0,1.345,0.542,2.017,1.627,2.017
			c1.034,0,1.552-0.69,1.552-2.071C186.109,237.349,185.587,236.695,184.543,236.695z"/>
		<path fill="#2F2F2F" d="M196.451,242.211h-2.153v-3.89c0-1.084-0.388-1.627-1.162-1.627c-0.374,0-0.682,0.144-0.923,0.431
			s-0.362,0.652-0.362,1.094v3.992h-2.16v-7h2.16v1.107h0.027c0.515-0.852,1.265-1.278,2.249-1.278c1.55,0,2.324,0.962,2.324,2.885
			V242.211z"/>
		<path fill="#2F2F2F" d="M140.378,258.355c-0.957,0.552-2.146,0.827-3.568,0.827c-1.577,0-2.819-0.437-3.729-1.309
			c-0.908-0.873-1.363-2.075-1.363-3.606c0-1.54,0.497-2.796,1.49-3.767s2.315-1.456,3.965-1.456c1.039,0,1.955,0.144,2.748,0.431
			v2.071c-0.757-0.438-1.682-0.656-2.775-0.656c-0.916,0-1.662,0.298-2.238,0.893c-0.577,0.595-0.865,1.389-0.865,2.382
			c0,1.008,0.259,1.787,0.775,2.338c0.518,0.552,1.216,0.827,2.096,0.827c0.528,0,0.948-0.075,1.258-0.226v-1.914h-1.962v-1.764
			h4.17V258.355z"/>
		<path fill="#2F2F2F" d="M147.987,259.011h-2.044v-1.005h-0.027c-0.47,0.784-1.164,1.176-2.085,1.176
			c-0.679,0-1.214-0.192-1.603-0.577c-0.391-0.386-0.585-0.899-0.585-1.542c0-1.357,0.805-2.142,2.413-2.352l1.9-0.253
			c0-0.766-0.415-1.148-1.244-1.148c-0.834,0-1.627,0.249-2.379,0.745v-1.627c0.301-0.154,0.712-0.291,1.234-0.41
			c0.521-0.118,0.996-0.178,1.425-0.178c1.996,0,2.994,0.996,2.994,2.987V259.011z M145.957,256.167v-0.472l-1.271,0.164
			c-0.702,0.092-1.053,0.408-1.053,0.95c0,0.246,0.086,0.448,0.256,0.605c0.172,0.157,0.402,0.235,0.694,0.235
			c0.405,0,0.736-0.14,0.991-0.42S145.957,256.596,145.957,256.167z"/>
		<path fill="#2F2F2F" d="M153.816,258.929c-0.319,0.169-0.8,0.253-1.442,0.253c-1.522,0-2.283-0.79-2.283-2.372v-3.206h-1.135
			v-1.593h1.135V250.5l2.153-0.615v2.126h1.572v1.593h-1.572v2.83c0,0.729,0.289,1.094,0.868,1.094c0.228,0,0.463-0.065,0.704-0.198
			V258.929z"/>
		<path fill="#2F2F2F" d="M161.302,256.126h-4.566c0.073,1.017,0.713,1.524,1.921,1.524c0.771,0,1.447-0.182,2.03-0.547v1.559
			c-0.647,0.347-1.488,0.52-2.522,0.52c-1.13,0-2.008-0.313-2.632-0.939c-0.624-0.627-0.937-1.501-0.937-2.622
			c0-1.162,0.337-2.082,1.012-2.762c0.675-0.679,1.504-1.019,2.488-1.019c1.021,0,1.811,0.304,2.369,0.909
			c0.558,0.606,0.837,1.429,0.837,2.468V256.126z M159.299,254.8c0-1.002-0.405-1.504-1.217-1.504c-0.347,0-0.646,0.144-0.898,0.431
			c-0.254,0.287-0.407,0.646-0.462,1.073H159.299z"/>
		<path fill="#2F2F2F" d="M172.666,252.011l-2.017,7h-2.27l-1.032-4.102c-0.068-0.273-0.107-0.571-0.116-0.896h-0.041
			c-0.032,0.355-0.077,0.646-0.137,0.868l-1.107,4.129h-2.242l-1.976-7h2.201l0.964,4.566c0.046,0.215,0.08,0.475,0.103,0.779h0.041
			c0.022-0.318,0.063-0.588,0.123-0.807l1.203-4.539h2.058l1.08,4.566c0.027,0.114,0.06,0.379,0.096,0.793h0.048
			c0.022-0.264,0.06-0.528,0.109-0.793l0.909-4.566H172.666z"/>
		<path fill="#2F2F2F" d="M179.404,259.011h-2.044v-1.005h-0.027c-0.47,0.784-1.164,1.176-2.085,1.176
			c-0.679,0-1.214-0.192-1.603-0.577c-0.391-0.386-0.585-0.899-0.585-1.542c0-1.357,0.805-2.142,2.413-2.352l1.9-0.253
			c0-0.766-0.415-1.148-1.244-1.148c-0.834,0-1.627,0.249-2.379,0.745v-1.627c0.301-0.154,0.712-0.291,1.234-0.41
			c0.521-0.118,0.996-0.178,1.425-0.178c1.996,0,2.994,0.996,2.994,2.987V259.011z M177.373,256.167v-0.472l-1.271,0.164
			c-0.702,0.092-1.053,0.408-1.053,0.95c0,0.246,0.086,0.448,0.256,0.605c0.172,0.157,0.402,0.235,0.694,0.235
			c0.405,0,0.736-0.14,0.991-0.42S177.373,256.596,177.373,256.167z"/>
		<path fill="#2F2F2F" d="M187.531,252.011l-2.844,7.561c-0.684,1.818-1.714,2.728-3.09,2.728c-0.524,0-0.955-0.059-1.292-0.178
			v-1.723c0.287,0.169,0.6,0.253,0.937,0.253c0.556,0,0.943-0.262,1.162-0.786l0.369-0.868l-2.844-6.986h2.393l1.306,4.259
			c0.082,0.265,0.146,0.577,0.191,0.937h0.027c0.041-0.264,0.116-0.571,0.226-0.923l1.319-4.272H187.531z"/>
	</g>
</g>
<g id="Layer_1">
</g>
<g id="f3b54d7d-7db0-469c-afc7-ffc9b14d26c9">
</g>
<g id="eedd0b6b-34f2-4543-8afa-50340a9921da">
</g>
<g id="ec71760d-ea07-41d5-9506-94a0f2677aa9">
</g>
</svg>
