<?xml version="1.0" encoding="UTF-8" standalone="no"?>
<!DOCTYPE svg PUBLIC "-//W3C//DTD SVG 1.1//EN" "http://www.w3.org/Graphics/SVG/1.1/DTD/svg11.dtd">
<!-- Generated by Microsoft Visio, SVG Export waf20 draft v3 - segmentation - diagram basic with icons_no margins.svg Page-1 -->
<svg xmlns="http://www.w3.org/2000/svg" xmlns:xlink="http://www.w3.org/1999/xlink" xmlns:ev="http://www.w3.org/2001/xml-events"
		xmlns:v="http://schemas.microsoft.com/visio/2003/SVGExtensions/" width="8.84645in" height="7.81102in"
		viewBox="0 0 636.944 562.393" xml:space="preserve" color-interpolation-filters="sRGB" class="st21">
	<v:documentProperties v:langID="1033" v:viewMarkup="false"/>

	<style type="text/css">
	<![CDATA[
		.st1 {fill:#dbeef3;stroke:#7f7f7f;stroke-linecap:butt;stroke-width:0.448023}
		.st2 {fill:#d8d8d8;stroke:none;stroke-linecap:butt;stroke-width:1.5}
		.st3 {fill:#0078d4;stroke:none;stroke-linecap:butt;stroke-width:0.448023}
		.st4 {fill:none;stroke:none;stroke-linecap:round;stroke-linejoin:round;stroke-width:0.75}
		.st5 {fill:#000000;font-family:Segoe UI;font-size:1.33333em;font-weight:bold}
		.st6 {fill:#f2f2f2;stroke:none;stroke-linecap:butt;stroke-width:0.448023}
		.st7 {fill:#000000;font-family:Calibri;font-size:1.33333em}
		.st8 {fill:url(#grad0-19);stroke:none;stroke-linecap:butt;stroke-width:0.75}
		.st9 {fill:#0078d4;stroke:none;stroke-linecap:butt;stroke-width:0.75}
		.st10 {fill:url(#grad0-25);stroke:none;stroke-linecap:butt;stroke-width:0.75}
		.st11 {fill:url(#grad0-29);stroke:none;stroke-linecap:butt;stroke-width:0.75}
		.st12 {fill:#0070c0;font-family:Calibri;font-size:1.33333em;font-weight:bold}
		.st13 {fill:#ffffff;font-family:Segoe UI;font-size:1.33333em;font-weight:bold}
		.st14 {visibility:visible}
		.st15 {fill:#000000;fill-opacity:0.4;filter:url(#filter_2.6666667461395);stroke:none;stroke-linecap:butt}
		.st16 {fill:#ffffff;stroke:none;stroke-linecap:butt;stroke-width:0.448023}
		.st17 {fill:#000000;font-family:Segoe UI;font-size:1.00001em}
		.st18 {fill:#000000;fill-opacity:0.4;filter:url(#filter_2.6666667461395);stroke:#000000;stroke-linecap:round;stroke-linejoin:round;stroke-opacity:0.4}
		.st19 {fill:#fee599;stroke:#7f7f7f;stroke-linecap:round;stroke-linejoin:round;stroke-width:0.75}
		.st20 {fill:#000000;font-family:Calibri;font-size:1.66667em;font-weight:bold}
		.st21 {fill:none;fill-rule:evenodd;font-size:12px;overflow:visible;stroke-linecap:square;stroke-miterlimit:3}
	]]>
	</style>

	<defs id="Patterns_And_Gradients">
		<linearGradient id="grad0-19" x1="0" y1="0" x2="1" y2="0" gradientTransform="rotate(116.59303776718 0.5 0.5)">
			<stop offset="0" stop-color="#114a8b" stop-opacity="1"/>
			<stop offset="1" stop-color="#0669bc" stop-opacity="1"/>
		</linearGradient>
		<linearGradient id="grad0-25" x1="0" y1="0" x2="1" y2="0" gradientTransform="rotate(162.39037065491 0.5 0.5)">
			<stop offset="0" stop-color="#000000" stop-opacity="1"/>
			<stop offset="0.07" stop-color="#000000" stop-opacity="1"/>
			<stop offset="0.32" stop-color="#000000" stop-opacity="1"/>
			<stop offset="0.625" stop-color="#000000" stop-opacity="1"/>
			<stop offset="1" stop-color="#000000" stop-opacity="1"/>
		</linearGradient>
		<linearGradient id="grad0-29" x1="0" y1="0" x2="1" y2="0" gradientTransform="rotate(62.258952409666 0.5 0.5)">
			<stop offset="0" stop-color="#3ccbf4" stop-opacity="1"/>
			<stop offset="1" stop-color="#2892df" stop-opacity="1"/>
		</linearGradient>
	</defs>
	<defs id="Filters">
		<filter id="filter_2.6666667461395">
			<feGaussianBlur stdDeviation="2.6666667461395"/>
		</filter>
	</defs>
	<g v:mID="0" v:index="1" v:groupContext="foregroundPage">
		<title>Page-1</title>
		<v:pageProperties v:drawingScale="1" v:pageScale="1" v:drawingUnits="19" v:shadowOffsetX="9" v:shadowOffsetY="-9"/>
		<v:layer v:name="symbols" v:index="0"/>
		<g id="shape2417-1" v:mID="2417" v:groupContext="shape" v:layerMember="0" transform="translate(0.448023,-257.799)">
			<title>Sheet.2417</title>
			<rect x="0" y="309.493" width="595.761" height="252.9" class="st1"/>
		</g>
		<g id="shape2380-3" v:mID="2380" v:groupContext="shape" v:layerMember="0" transform="translate(18.448,-271.299)">
			<title>Sheet.2380</title>
			<rect x="0" y="358.993" width="561.522" height="203.4" class="st2"/>
		</g>
		<g id="shape2388-5" v:mID="2388" v:groupContext="shape" v:layerMember="0" transform="translate(0.448023,-510.699)">
			<title>Sheet.2388</title>
			<rect x="0" y="511.147" width="595.761" height="51.2459" class="st3"/>
		</g>
		<g id="shape2389-7" v:mID="2389" v:groupContext="shape" transform="translate(375.684,-474.699)">
			<title>Sheet.2389</title>
			<desc>Management Group #1</desc>
			<v:textBlock v:margins="rect(4,4,4,4)"/>
			<v:textRect cx="102.143" cy="545.119" width="204.29" height="34.548"/>
			<rect x="0" y="527.845" width="204.286" height="34.548" class="st4"/>
			<text x="14.83" y="549.92" class="st5" v:langID="1033"><v:paragraph v:horizAlign="1"/><v:tabList/>Management Group #1</text>		</g>
		<g id="shape2390-10" v:mID="2390" v:groupContext="shape" v:layerMember="0" transform="translate(34.7503,-378.133)">
			<title>Sheet.2390</title>
			<rect x="0" y="486.893" width="534.352" height="75.5" class="st6"/>
		</g>
		<g id="shape2391-12" v:mID="2391" v:groupContext="shape" transform="translate(383.766,-426.53)">
			<title>Sheet.2391</title>
			<desc>Azure Subscription #1</desc>
			<v:textBlock v:margins="rect(4,4,4,4)"/>
			<v:textRect cx="80.5908" cy="552.393" width="161.19" height="20"/>
			<rect x="0" y="542.393" width="161.182" height="20" class="st4"/>
			<text x="15.63" y="557.19" class="st7" v:langID="1033"><v:paragraph v:horizAlign="2"/><v:tabList/>Azure Subscription #1</text>		</g>
		<g id="group2392-15" transform="translate(515.998,-399.633)" v:mID="2392" v:groupContext="group">
			<title>Sheet.2392</title>
			<g id="shape2393-16" v:mID="2393" v:groupContext="shape">
				<title>Sheet.2393</title>
				<path d="M7.71 538.72 C7.88 538.22 8.35 537.89 8.87 537.89 L16.57 537.89 L8.58 561.56 C8.41 562.06 7.95 562.39 7.42
							 562.39 L1.43 562.39 C0.59 562.39 0 561.57 0.27 560.78 L7.71 538.72 Z" class="st8"/>
			</g>
			<g id="shape2394-20" v:mID="2394" v:groupContext="shape" transform="translate(7.12989,-0.000149753)">
				<title>Sheet.2394</title>
				<path d="M12.89 553.82 L0.76 553.82 C0.25 553.82 0 554.44 0.37 554.79 L8.17 562.06 C8.39 562.28 8.69 562.39 9 562.39
							 L15.87 562.39 L12.89 553.82 Z" class="st9"/>
			</g>
			<g id="shape2395-22" v:mID="2395" v:groupContext="shape">
				<title>Sheet.2395</title>
				<path d="M8.87 537.89 C8.35 537.89 7.88 538.22 7.71 538.72 L0.27 560.78 C0 561.57 0.59 562.39 1.43 562.39 L7.42 562.39
							 C7.95 562.39 8.41 562.06 8.58 561.56 L10.06 557.18 L15.3 562.06 C15.52 562.28 15.82 562.39 16.13 562.39
							 L23 562.39 L20.02 553.82 L11.19 553.82 L16.57 537.89 L8.87 537.89 Z" class="st10"/>
			</g>
			<g id="shape2396-26" v:mID="2396" v:groupContext="shape" transform="translate(8.91153,-0.000149753)">
				<title>Sheet.2396</title>
				<path d="M9.78 538.72 C9.61 538.22 9.14 537.89 8.62 537.89 L0 537.89 L0.04 537.89 C0.57 537.89 1.03 538.22 1.2 538.72
							 L8.64 560.78 C8.91 561.57 8.32 562.39 7.48 562.39 L7.35 562.39 L16.06 562.39 C16.9 562.39 17.49 561.57
							 17.22 560.78 L9.78 538.72 Z" class="st11"/>
			</g>
		</g>
		<g id="shape2406-30" v:mID="2406" v:groupContext="shape" v:layerMember="0" transform="translate(34.7503,-284.768)">
			<title>Sheet.2406</title>
			<rect x="0" y="486.893" width="534.352" height="75.5" class="st6"/>
		</g>
		<g id="shape2407-32" v:mID="2407" v:groupContext="shape" transform="translate(383.766,-333.166)">
			<title>Sheet.2407</title>
			<desc>Azure Subscription #2</desc>
			<v:textBlock v:margins="rect(4,4,4,4)"/>
			<v:textRect cx="80.5908" cy="552.393" width="161.19" height="20"/>
			<rect x="0" y="542.393" width="161.182" height="20" class="st4"/>
			<text x="15.63" y="557.19" class="st7" v:langID="1033"><v:paragraph v:horizAlign="2"/><v:tabList/>Azure Subscription #2</text>		</g>
		<g id="group2408-35" transform="translate(515.998,-306.268)" v:mID="2408" v:groupContext="group">
			<title>Sheet.2408</title>
			<g id="shape2409-36" v:mID="2409" v:groupContext="shape">
				<title>Sheet.2409</title>
				<path d="M7.71 538.72 C7.88 538.22 8.35 537.89 8.87 537.89 L16.57 537.89 L8.58 561.56 C8.41 562.06 7.95 562.39 7.42
							 562.39 L1.43 562.39 C0.59 562.39 0 561.57 0.27 560.78 L7.71 538.72 Z" class="st8"/>
			</g>
			<g id="shape2410-39" v:mID="2410" v:groupContext="shape" transform="translate(7.12989,-0.000149753)">
				<title>Sheet.2410</title>
				<path d="M12.89 553.82 L0.76 553.82 C0.25 553.82 0 554.44 0.37 554.79 L8.17 562.06 C8.39 562.28 8.69 562.39 9 562.39
							 L15.87 562.39 L12.89 553.82 Z" class="st9"/>
			</g>
			<g id="shape2411-41" v:mID="2411" v:groupContext="shape">
				<title>Sheet.2411</title>
				<path d="M8.87 537.89 C8.35 537.89 7.88 538.22 7.71 538.72 L0.27 560.78 C0 561.57 0.59 562.39 1.43 562.39 L7.42 562.39
							 C7.95 562.39 8.41 562.06 8.58 561.56 L10.06 557.18 L15.3 562.06 C15.52 562.28 15.82 562.39 16.13 562.39
							 L23 562.39 L20.02 553.82 L11.19 553.82 L16.57 537.89 L8.87 537.89 Z" class="st10"/>
			</g>
			<g id="shape2412-44" v:mID="2412" v:groupContext="shape" transform="translate(8.91153,-0.000149753)">
				<title>Sheet.2412</title>
				<path d="M9.78 538.72 C9.61 538.22 9.14 537.89 8.62 537.89 L0 537.89 L0.04 537.89 C0.57 537.89 1.03 538.22 1.2 538.72
							 L8.64 560.78 C8.91 561.57 8.32 562.39 7.48 562.39 L7.35 562.39 L16.06 562.39 C16.9 562.39 17.49 561.57
							 17.22 560.78 L9.78 538.72 Z" class="st11"/>
			</g>
		</g>
		<g id="shape2413-47" v:mID="2413" v:groupContext="shape" transform="translate(118.915,-401.885)">
			<title>Sheet.2413</title>
			<desc>PRODUCTION | Workload A</desc>
			<v:textBlock v:margins="rect(4,4,4,4)"/>
			<v:textRect cx="102.143" cy="552.393" width="204.29" height="20"/>
			<rect x="0" y="542.393" width="204.286" height="20" class="st4"/>
			<text x="9.88" y="557.19" class="st12" v:langID="1033"><v:paragraph v:horizAlign="1"/><v:tabList/>PRODUCTION | Workload A</text>		</g>
		<g id="shape2414-50" v:mID="2414" v:groupContext="shape" transform="translate(73.3287,-310.774)">
			<title>Sheet.2414</title>
			<desc>DEVELOPMENT | Workload B</desc>
			<v:textBlock v:margins="rect(4,4,4,4)"/>
			<v:textRect cx="144" cy="552.393" width="288.01" height="20"/>
			<rect x="0" y="542.393" width="288" height="20" class="st4"/>
			<text x="46.79" y="557.19" class="st12" v:langID="1033"><v:paragraph v:horizAlign="1"/><v:tabList/>DEVELOPMENT | Workload B</text>		</g>
		<g id="shape2418-53" v:mID="2418" v:groupContext="shape" transform="translate(389.685,-519.048)">
			<title>Sheet.2418</title>
			<desc>Entra ID (Tenant #1)</desc>
			<v:textBlock v:margins="rect(4,4,4,4)"/>
			<v:textRect cx="102.143" cy="545.119" width="204.29" height="34.548"/>
			<rect x="0" y="527.845" width="204.286" height="34.548" class="st4"/>
			<text x="26.03" y="549.92" class="st13" v:langID="1033"><v:paragraph v:horizAlign="1"/><v:tabList/>Entra ID (Tenant #1)</text>		</g>
		<g id="shape2430-56" v:mID="2430" v:groupContext="shape" v:layerMember="0" transform="translate(0.448023,-1.29947)">
			<title>Sheet.2430</title>
			<rect x="0" y="358.993" width="595.761" height="203.4" class="st1"/>
		</g>
		<g id="shape2431-58" v:mID="2431" v:groupContext="shape" v:layerMember="0" transform="translate(18.448,-18.1745)">
			<title>Sheet.2431</title>
			<rect x="0" y="411.868" width="561.522" height="150.525" class="st2"/>
		</g>
		<g id="shape2432-60" v:mID="2432" v:groupContext="shape" v:layerMember="0" transform="translate(0.448023,-204.699)">
			<title>Sheet.2432</title>
			<rect x="0" y="511.147" width="595.761" height="51.2459" class="st3"/>
		</g>
		<g id="shape2433-62" v:mID="2433" v:groupContext="shape" transform="translate(375.684,-168.699)">
			<title>Sheet.2433</title>
			<desc>Management Group #2</desc>
			<v:textBlock v:margins="rect(4,4,4,4)"/>
			<v:textRect cx="102.143" cy="545.119" width="204.29" height="34.548"/>
			<rect x="0" y="527.845" width="204.286" height="34.548" class="st4"/>
			<text x="14.83" y="549.92" class="st5" v:langID="1033"><v:paragraph v:horizAlign="1"/><v:tabList/>Management Group #2</text>		</g>
		<g id="shape2441-65" v:mID="2441" v:groupContext="shape" v:layerMember="0" transform="translate(34.7503,-32.4571)">
			<title>Sheet.2441</title>
			<rect x="0" y="440.551" width="534.352" height="121.842" class="st6"/>
		</g>
		<g id="shape2442-67" v:mID="2442" v:groupContext="shape" transform="translate(383.766,-127.197)">
			<title>Sheet.2442</title>
			<desc>Azure Subscription #3</desc>
			<v:textBlock v:margins="rect(4,4,4,4)"/>
			<v:textRect cx="80.5908" cy="552.393" width="161.19" height="20"/>
			<rect x="0" y="542.393" width="161.182" height="20" class="st4"/>
			<text x="15.63" y="557.19" class="st7" v:langID="1033"><v:paragraph v:horizAlign="2"/><v:tabList/>Azure Subscription #3</text>		</g>
		<g id="group2443-70" transform="translate(515.998,-100.299)" v:mID="2443" v:groupContext="group">
			<title>Sheet.2443</title>
			<g id="shape2444-71" v:mID="2444" v:groupContext="shape">
				<title>Sheet.2444</title>
				<path d="M7.71 538.72 C7.88 538.22 8.35 537.89 8.87 537.89 L16.57 537.89 L8.58 561.56 C8.41 562.06 7.95 562.39 7.42
							 562.39 L1.43 562.39 C0.59 562.39 0 561.57 0.27 560.78 L7.71 538.72 Z" class="st8"/>
			</g>
			<g id="shape2445-74" v:mID="2445" v:groupContext="shape" transform="translate(7.12989,-0.000149753)">
				<title>Sheet.2445</title>
				<path d="M12.89 553.82 L0.76 553.82 C0.25 553.82 0 554.44 0.37 554.79 L8.17 562.06 C8.39 562.28 8.69 562.39 9 562.39
							 L15.87 562.39 L12.89 553.82 Z" class="st9"/>
			</g>
			<g id="shape2446-76" v:mID="2446" v:groupContext="shape">
				<title>Sheet.2446</title>
				<path d="M8.87 537.89 C8.35 537.89 7.88 538.22 7.71 538.72 L0.27 560.78 C0 561.57 0.59 562.39 1.43 562.39 L7.42 562.39
							 C7.95 562.39 8.41 562.06 8.58 561.56 L10.06 557.18 L15.3 562.06 C15.52 562.28 15.82 562.39 16.13 562.39
							 L23 562.39 L20.02 553.82 L11.19 553.82 L16.57 537.89 L8.87 537.89 Z" class="st10"/>
			</g>
			<g id="shape2447-79" v:mID="2447" v:groupContext="shape" transform="translate(8.91153,-0.000149753)">
				<title>Sheet.2447</title>
				<path d="M9.78 538.72 C9.61 538.22 9.14 537.89 8.62 537.89 L0 537.89 L0.04 537.89 C0.57 537.89 1.03 538.22 1.2 538.72
							 L8.64 560.78 C8.91 561.57 8.32 562.39 7.48 562.39 L7.35 562.39 L16.06 562.39 C16.9 562.39 17.49 561.57
							 17.22 560.78 L9.78 538.72 Z" class="st11"/>
			</g>
		</g>
		<g id="shape2448-82" v:mID="2448" v:groupContext="shape" v:layerMember="0" transform="translate(281.357,-44.457)">
			<title>Sheet.2448</title>
			<desc>Resource Group #2</desc>
			<v:textBlock v:margins="rect(0,0,0,0)" v:verticalAlign="2"/>
			<v:textRect cx="89.6295" cy="524.643" width="179.26" height="75.5"/>
			<g id="shadow2448-83" v:groupContext="shadow" v:shadowOffsetX="-2.12132" v:shadowOffsetY="-2.12132" v:shadowType="1"
					transform="matrix(1,0,0,1,-2.12132,2.12132)" class="st14">
				<rect x="0" y="486.893" width="179.259" height="75.5" class="st15"/>
			</g>
			<rect x="0" y="486.893" width="179.259" height="75.5" class="st16"/>
			<text x="38.74" y="558.79" class="st17" v:langID="1033"><v:paragraph v:horizAlign="1"/><v:tabList/>Resource Group #2</text>		</g>
		<g id="shape2449-88" v:mID="2449" v:groupContext="shape" v:layerMember="0" transform="translate(67.539,-44.457)">
			<title>Sheet.2449</title>
			<desc>Resource Group #1</desc>
			<v:textBlock v:margins="rect(0,0,0,0)" v:verticalAlign="2"/>
			<v:textRect cx="89.6295" cy="524.643" width="179.26" height="75.5"/>
			<g id="shadow2449-89" v:groupContext="shadow" v:shadowOffsetX="-2.12132" v:shadowOffsetY="-2.12132" v:shadowType="1"
					transform="matrix(1,0,0,1,-2.12132,2.12132)" class="st14">
				<rect x="0" y="486.893" width="179.259" height="75.5" class="st15"/>
			</g>
			<rect x="0" y="486.893" width="179.259" height="75.5" class="st16"/>
			<text x="38.74" y="558.79" class="st17" v:langID="1033"><v:paragraph v:horizAlign="1"/><v:tabList/>Resource Group #1</text>		</g>
		<g id="shape2459-94" v:mID="2459" v:groupContext="shape" transform="translate(93.4421,-85.7649)">
			<title>Sheet.2459</title>
			<desc>PRODUCTION</desc>
			<v:textBlock v:margins="rect(4,4,4,4)"/>
			<v:textRect cx="63.7263" cy="552.393" width="127.46" height="20"/>
			<rect x="0" y="542.393" width="127.453" height="20" class="st4"/>
			<text x="18.28" y="557.19" class="st12" v:langID="1033"><v:paragraph v:horizAlign="1"/><v:tabList/>PRODUCTION</text>		</g>
		<g id="shape2460-97" v:mID="2460" v:groupContext="shape" transform="translate(302.82,-85.7649)">
			<title>Sheet.2460</title>
			<desc>DEVELOPMENT</desc>
			<v:textBlock v:margins="rect(4,4,4,4)"/>
			<v:textRect cx="68.1664" cy="552.393" width="136.34" height="20"/>
			<rect x="0" y="542.393" width="136.333" height="20" class="st4"/>
			<text x="17.41" y="557.19" class="st12" v:langID="1033"><v:paragraph v:horizAlign="1"/><v:tabList/>DEVELOPMENT</text>		</g>
		<g id="shape2461-100" v:mID="2461" v:groupContext="shape" transform="translate(389.685,-213.048)">
			<title>Sheet.2461</title>
			<desc>Entra ID (Tenant #2)</desc>
			<v:textBlock v:margins="rect(4,4,4,4)"/>
			<v:textRect cx="102.143" cy="545.119" width="204.29" height="34.548"/>
			<rect x="0" y="527.845" width="204.286" height="34.548" class="st4"/>
			<text x="26.03" y="549.92" class="st13" v:langID="1033"><v:paragraph v:horizAlign="1"/><v:tabList/>Entra ID (Tenant #2)</text>		</g>
		<g id="shape2462-103" v:mID="2462" v:groupContext="shape" transform="translate(93.4421,-65.7649)">
			<title>Sheet.2462</title>
			<desc>Workload A</desc>
			<v:textBlock v:margins="rect(4,4,4,4)"/>
			<v:textRect cx="63.7263" cy="552.393" width="127.46" height="20"/>
			<rect x="0" y="542.393" width="127.453" height="20" class="st4"/>
			<text x="24.33" y="557.19" class="st12" v:langID="1033"><v:paragraph v:horizAlign="1"/><v:tabList/>Workload A</text>		</g>
		<g id="shape2463-106" v:mID="2463" v:groupContext="shape" transform="translate(302.82,-65.7649)">
			<title>Sheet.2463</title>
			<desc>Workload B</desc>
			<v:textBlock v:margins="rect(4,4,4,4)"/>
			<v:textRect cx="68.1664" cy="552.393" width="136.34" height="20"/>
			<rect x="0" y="542.393" width="136.333" height="20" class="st4"/>
			<text x="29.13" y="557.19" class="st12" v:langID="1033"><v:paragraph v:horizAlign="1"/><v:tabList/>Workload B</text>		</g>
		<g id="shape2494-109" v:mID="2494" v:groupContext="shape" transform="translate(599.645,-523.299)">
			<title>Sheet.2494</title>
			<g id="shadow2494-110" v:groupContext="shadow" v:shadowOffsetX="2.12132" v:shadowOffsetY="-2.12132" v:shadowType="1"
					transform="matrix(1,0,0,1,2.12132,2.12132)" class="st14">
				<ellipse cx="15.4016" cy="546.992" rx="15.4016" ry="15.4016" class="st18"/>
			</g>
			<ellipse cx="15.4016" cy="546.992" rx="15.4016" ry="15.4016" class="st19"/>
		</g>
		<g id="shape2495-114" v:mID="2495" v:groupContext="shape" transform="translate(604.145,-528.436)">
			<title>Sheet.2495</title>
			<desc>1</desc>
			<v:textBlock v:margins="rect(4,4,4,4)"/>
			<v:textRect cx="11.25" cy="552.393" width="22.51" height="20"/>
			<rect x="0" y="542.393" width="22.5" height="20" class="st4"/>
			<text x="6.18" y="558.39" class="st20" v:langID="1033"><v:paragraph v:horizAlign="1"/><v:tabList/>1</text>		</g>
		<g id="shape2496-117" v:mID="2496" v:groupContext="shape" transform="translate(599.645,-474.496)">
			<title>Sheet.2496</title>
			<g id="shadow2496-118" v:groupContext="shadow" v:shadowOffsetX="2.12132" v:shadowOffsetY="-2.12132" v:shadowType="1"
					transform="matrix(1,0,0,1,2.12132,2.12132)" class="st14">
				<ellipse cx="15.4016" cy="546.992" rx="15.4016" ry="15.4016" class="st18"/>
			</g>
			<ellipse cx="15.4016" cy="546.992" rx="15.4016" ry="15.4016" class="st19"/>
		</g>
		<g id="shape2497-122" v:mID="2497" v:groupContext="shape" transform="translate(604.145,-479.632)">
			<title>Sheet.2497</title>
			<desc>2</desc>
			<v:textBlock v:margins="rect(4,4,4,4)"/>
			<v:textRect cx="11.25" cy="552.393" width="22.51" height="20"/>
			<rect x="0" y="542.393" width="22.5" height="20" class="st4"/>
			<text x="6.18" y="558.39" class="st20" v:langID="1033"><v:paragraph v:horizAlign="1"/><v:tabList/>2</text>		</g>
		<g id="shape2498-125" v:mID="2498" v:groupContext="shape" transform="translate(599.645,-420.496)">
			<title>Sheet.2498</title>
			<g id="shadow2498-126" v:groupContext="shadow" v:shadowOffsetX="2.12132" v:shadowOffsetY="-2.12132" v:shadowType="1"
					transform="matrix(1,0,0,1,2.12132,2.12132)" class="st14">
				<ellipse cx="15.4016" cy="546.992" rx="15.4016" ry="15.4016" class="st18"/>
			</g>
			<ellipse cx="15.4016" cy="546.992" rx="15.4016" ry="15.4016" class="st19"/>
		</g>
		<g id="shape2499-130" v:mID="2499" v:groupContext="shape" transform="translate(604.145,-425.632)">
			<title>Sheet.2499</title>
			<desc>3</desc>
			<v:textBlock v:margins="rect(4,4,4,4)"/>
			<v:textRect cx="11.25" cy="552.393" width="22.51" height="20"/>
			<rect x="0" y="542.393" width="22.5" height="20" class="st4"/>
			<text x="6.18" y="558.39" class="st20" v:langID="1033"><v:paragraph v:horizAlign="1"/><v:tabList/>3</text>		</g>
		<g id="shape2500-133" v:mID="2500" v:groupContext="shape" transform="translate(139.154,-6.4963)">
			<title>Sheet.2500</title>
			<g id="shadow2500-134" v:groupContext="shadow" v:shadowOffsetX="2.12132" v:shadowOffsetY="-2.12132" v:shadowType="1"
					transform="matrix(1,0,0,1,2.12132,2.12132)" class="st14">
				<ellipse cx="15.4016" cy="546.992" rx="15.4016" ry="15.4016" class="st18"/>
			</g>
			<ellipse cx="15.4016" cy="546.992" rx="15.4016" ry="15.4016" class="st19"/>
		</g>
		<g id="shape2501-138" v:mID="2501" v:groupContext="shape" transform="translate(143.654,-11.6325)">
			<title>Sheet.2501</title>
			<desc>4</desc>
			<v:textBlock v:margins="rect(4,4,4,4)"/>
			<v:textRect cx="11.25" cy="552.393" width="22.51" height="20"/>
			<rect x="0" y="542.393" width="22.5" height="20" class="st4"/>
			<text x="6.18" y="558.39" class="st20" v:langID="1033"><v:paragraph v:horizAlign="1"/><v:tabList/>4</text>		</g>
	</g>
</svg>
