<?xml version="1.0" encoding="UTF-8" standalone="no"?>
<!DOCTYPE svg PUBLIC "-//W3C//DTD SVG 1.1//EN" "http://www.w3.org/Graphics/SVG/1.1/DTD/svg11.dtd">
<!-- Generated by Microsoft Visio, SVG Export ai.svg Page-1 -->
<svg xmlns="http://www.w3.org/2000/svg" xmlns:xlink="http://www.w3.org/1999/xlink" xmlns:ev="http://www.w3.org/2001/xml-events"
		xmlns:v="http://schemas.microsoft.com/visio/2003/SVGExtensions/" width="11.75in" height="14.8542in"
		viewBox="0 0 846 1069.5" xml:space="preserve" color-interpolation-filters="sRGB" class="st12">
	<v:documentProperties v:langID="1033" v:viewMarkup="false">
		<v:userDefs>
			<v:ud v:nameU="msvNoAutoConnect" v:val="VT0(1):26"/>
		</v:userDefs>
	</v:documentProperties>

	<style type="text/css">
	<![CDATA[
		.st1 {fill:#ffffff;stroke:none;stroke-linecap:round;stroke-linejoin:round;stroke-width:0.75}
		.st2 {fill:#ffffff;stroke:none;stroke-linecap:butt;stroke-width:0.75}
		.st3 {fill:none;stroke:none;stroke-linecap:butt;stroke-width:0.75}
		.st4 {fill:#333333;font-family:Segoe UI Semibold;font-size:2.12501em;font-weight:bold}
		.st5 {fill:#b2b2b2;stroke:none;stroke-linecap:butt;stroke-width:0.75}
		.st6 {fill:#666666;font-family:Segoe UI;font-size:1.66667em}
		.st7 {fill:#efefef;stroke:none;stroke-linecap:butt;stroke-width:1.5}
		.st8 {fill:#002060;font-family:Segoe UI Semibold;font-size:1.66667em}
		.st9 {fill:#333333;font-family:Segoe UI;font-size:1.5em}
		.st10 {fill:#f7f7f7;stroke:none;stroke-linecap:butt;stroke-width:1.5}
		.st11 {stroke:#b2b2b2;stroke-linecap:round;stroke-linejoin:round;stroke-width:4.25}
		.st12 {fill:none;fill-rule:evenodd;font-size:12px;overflow:visible;stroke-linecap:square;stroke-miterlimit:3}
	]]>
	</style>

	<g v:mID="4" v:index="1" v:groupContext="backgroundPage">
		<v:userDefs>
			<v:ud v:nameU="msvVisioCreated" v:prompt="" v:val="VT0(0):26"/>
		</v:userDefs>
		<title>VBackground-1</title>
		<v:pageProperties width="11.75" height="14.8542" v:drawingScale="1" v:pageScale="1" v:drawingUnits="19" v:shadowOffsetX="9"
				v:shadowOffsetY="-9"/>
		<g id="shape1000-1" v:mID="1000" v:groupContext="shape">
			<title>Solid.1000</title>
			<v:userDefs>
				<v:ud v:nameU="Background" v:val="VT0(0):26"/>
				<v:ud v:nameU="visVersion" v:val="VT0(15):26"/>
				<v:ud v:nameU="msvShapeCategories" v:prompt="" v:val="VT4(DoNotContain)"/>
				<v:ud v:nameU="msvVisioCreated" v:prompt="" v:val="VT0(0):26"/>
			</v:userDefs>
			<rect x="0" y="0" width="846" height="1069.5" class="st1"/>
		</g>
	</g>
	<g v:mID="0" v:index="2" v:groupContext="foregroundPage">
		<title>Page-1</title>
		<v:pageProperties v:drawingScale="1" v:pageScale="1" v:drawingUnits="19" v:shadowOffsetX="9" v:shadowOffsetY="-9"/>
		<g id="group1-3" transform="translate(18,-18)" v:mID="1" v:groupContext="group">
			<title>Sheet.1</title>
			<g id="shape2-4" v:mID="2" v:groupContext="shape">
				<title>Sheet.2</title>
				<rect x="0" y="19.5" width="750" height="1050" class="st2"/>
			</g>
			<g id="shape3-6" v:mID="3" v:groupContext="shape" transform="translate(126,-977.4)">
				<title>Sheet.3</title>
				<desc>Use AI in your workload operations strategically</desc>
				<v:textBlock v:margins="rect(0,0,0,0)" v:verticalAlign="0"/>
				<v:textRect cx="375" cy="1054.2" width="750" height="30.6"/>
				<rect x="0" y="1038.9" width="750" height="30.6" class="st3"/>
				<text x="0" y="1061.85" class="st4" v:langID="1033"><v:paragraph/><v:tabList/>Use AI in your workload operations strategically</text>			</g>
			<g id="shape5-9" v:mID="5" v:groupContext="shape" transform="translate(69,-894)">
				<title>Sheet.5</title>
				<path d="M13.5 1042.5 L0 1069.5 L27 1069.5 L13.5 1042.5 Z" class="st5"/>
			</g>
			<g id="shape6-11" v:mID="6" v:groupContext="shape" transform="translate(-997.5,529.5) rotate(-90)">
				<title>Sheet.6</title>
				<desc>Operational maturity</desc>
				<v:textBlock v:margins="rect(0,0,0,0)"/>
				<v:textRect cx="150" cy="1060.5" width="300" height="18"/>
				<rect x="0" y="1051.5" width="300" height="18" class="st3"/>
				<text x="-0" y="1066.5" class="st6" v:langID="1033"><v:paragraph/><v:tabList/>Operational maturity</text>			</g>
			<g id="shape7-14" v:mID="7" v:groupContext="shape" transform="translate(127.5,-771.3)">
				<title>Sheet.7</title>
				<path d="M0 1066.5 A2.24097 3.00007 -180 0 0 2.24 1069.5 L417.93 1069.5 A2.24097 3.00007 -180 0 0 420.17 1066.5 L420.17
							 936.3 A2.24097 3.00007 -180 0 0 417.93 933.3 L2.24 933.3 A2.24097 3.00007 -180 0 0 0 936.3 L0 1066.5
							 Z" class="st7"/>
			</g>
			<g id="shape8-16" v:mID="8" v:groupContext="shape" transform="translate(142.5,-874.05)">
				<title>Sheet.8</title>
				<desc>Level 5 – Adaptive operations</desc>
				<v:textBlock v:margins="rect(0,0,0,0)"/>
				<v:textRect cx="239.25" cy="1059.6" width="478.51" height="19.8"/>
				<rect x="0" y="1049.7" width="478.5" height="19.8" class="st3"/>
				<text x="0" y="1065.6" class="st8" v:langID="1033"><v:paragraph/><v:tabList/>Level 5 – Adaptive operations</text>			</g>
			<g id="shape9-19" v:mID="9" v:groupContext="shape" transform="translate(141.923,-836.077)">
				<title>Sheet.9</title>
				<desc>•</desc>
				<v:textBlock v:margins="rect(0,0,0,0)"/>
				<v:textRect cx="6.75" cy="1061.4" width="13.5" height="16.2"/>
				<rect x="0" y="1053.3" width="13.5" height="16.2" class="st3"/>
				<text x="0" y="1066.8" class="st9" v:langID="1033"><v:paragraph/><v:tabList/>•</text>			</g>
			<g id="shape10-22" v:mID="10" v:groupContext="shape" transform="translate(156.923,-836.077)">
				<title>Sheet.10</title>
				<desc>Autonomous systems</desc>
				<v:textBlock v:margins="rect(0,0,0,0)"/>
				<v:textRect cx="121.5" cy="1061.4" width="243.01" height="16.2"/>
				<rect x="0" y="1053.3" width="243" height="16.2" class="st3"/>
				<text x="0" y="1066.8" class="st9" v:langID="1033"><v:paragraph/><v:tabList/>Autonomous systems</text>			</g>
			<g id="shape11-25" v:mID="11" v:groupContext="shape" transform="translate(141.923,-815.077)">
				<title>Sheet.11</title>
				<desc>•</desc>
				<v:textBlock v:margins="rect(0,0,0,0)"/>
				<v:textRect cx="6.75" cy="1061.4" width="13.5" height="16.2"/>
				<rect x="0" y="1053.3" width="13.5" height="16.2" class="st3"/>
				<text x="0" y="1066.8" class="st9" v:langID="1033"><v:paragraph/><v:tabList/>•</text>			</g>
			<g id="shape12-28" v:mID="12" v:groupContext="shape" transform="translate(156.923,-815.077)">
				<title>Sheet.12</title>
				<desc>Self-healing infrastructure</desc>
				<v:textBlock v:margins="rect(0,0,0,0)"/>
				<v:textRect cx="182.25" cy="1061.4" width="364.51" height="16.2"/>
				<rect x="0" y="1053.3" width="364.5" height="16.2" class="st3"/>
				<text x="0" y="1066.8" class="st9" v:langID="1033"><v:paragraph/><v:tabList/>Self-healing infrastructure</text>			</g>
			<g id="shape13-31" v:mID="13" v:groupContext="shape" transform="translate(141.923,-794.077)">
				<title>Sheet.13</title>
				<desc>•</desc>
				<v:textBlock v:margins="rect(0,0,0,0)"/>
				<v:textRect cx="6.75" cy="1061.4" width="13.5" height="16.2"/>
				<rect x="0" y="1053.3" width="13.5" height="16.2" class="st3"/>
				<text x="0" y="1066.8" class="st9" v:langID="1033"><v:paragraph/><v:tabList/>•</text>			</g>
			<g id="shape14-34" v:mID="14" v:groupContext="shape" transform="translate(156.923,-794.077)">
				<title>Sheet.14</title>
				<desc>AI-to-AI coordination</desc>
				<v:textBlock v:margins="rect(0,0,0,0)"/>
				<v:textRect cx="141.75" cy="1061.4" width="283.5" height="16.2"/>
				<rect x="0" y="1053.3" width="283.5" height="16.2" class="st3"/>
				<text x="0" y="1066.8" class="st9" v:langID="1033"><v:paragraph/><v:tabList/>AI-to-AI coordination</text>			</g>
			<g id="shape15-37" v:mID="15" v:groupContext="shape" transform="translate(127.5,-621.6)">
				<title>Sheet.15</title>
				<path d="M0 1066.5 A2.43298 3.00007 -180 0 0 2.43 1069.5 L453.74 1069.5 A2.43298 3.00007 -180 0 0 456.17 1066.5 L456.17
							 936.3 A2.43298 3.00007 -180 0 0 453.74 933.3 L2.43 933.3 A2.43298 3.00007 -180 0 0 0 936.3 L0 1066.5
							 Z" class="st10"/>
			</g>
			<g id="shape16-39" v:mID="16" v:groupContext="shape" transform="translate(142.5,-724.35)">
				<title>Sheet.16</title>
				<desc>Level 4 – Intelligent operations</desc>
				<v:textBlock v:margins="rect(0,0,0,0)"/>
				<v:textRect cx="264" cy="1059.6" width="528" height="19.8"/>
				<rect x="0" y="1049.7" width="528" height="19.8" class="st3"/>
				<text x="0" y="1065.6" class="st8" v:langID="1033"><v:paragraph/><v:tabList/>Level 4 – Intelligent operations</text>			</g>
			<g id="shape17-42" v:mID="17" v:groupContext="shape" transform="translate(139.673,-687.877)">
				<title>Sheet.17</title>
				<desc>•</desc>
				<v:textBlock v:margins="rect(0,0,0,0)"/>
				<v:textRect cx="6.75" cy="1061.4" width="13.5" height="16.2"/>
				<rect x="0" y="1053.3" width="13.5" height="16.2" class="st3"/>
				<text x="0" y="1066.8" class="st9" v:langID="1033"><v:paragraph/><v:tabList/>•</text>			</g>
			<g id="shape18-45" v:mID="18" v:groupContext="shape" transform="translate(154.673,-687.877)">
				<title>Sheet.18</title>
				<desc>Predictive response</desc>
				<v:textBlock v:margins="rect(0,0,0,0)"/>
				<v:textRect cx="128.25" cy="1061.4" width="256.5" height="16.2"/>
				<rect x="0" y="1053.3" width="256.5" height="16.2" class="st3"/>
				<text x="0" y="1066.8" class="st9" v:langID="1033"><v:paragraph/><v:tabList/>Predictive response</text>			</g>
			<g id="shape19-48" v:mID="19" v:groupContext="shape" transform="translate(139.673,-666.877)">
				<title>Sheet.19</title>
				<desc>•</desc>
				<v:textBlock v:margins="rect(0,0,0,0)"/>
				<v:textRect cx="6.75" cy="1061.4" width="13.5" height="16.2"/>
				<rect x="0" y="1053.3" width="13.5" height="16.2" class="st3"/>
				<text x="0" y="1066.8" class="st9" v:langID="1033"><v:paragraph/><v:tabList/>•</text>			</g>
			<g id="shape20-51" v:mID="20" v:groupContext="shape" transform="translate(154.673,-666.877)">
				<title>Sheet.20</title>
				<desc>AI-assisted change</desc>
				<v:textBlock v:margins="rect(0,0,0,0)"/>
				<v:textRect cx="121.5" cy="1061.4" width="243.01" height="16.2"/>
				<rect x="0" y="1053.3" width="243" height="16.2" class="st3"/>
				<text x="0" y="1066.8" class="st9" v:langID="1033"><v:paragraph/><v:tabList/>AI-assisted change</text>			</g>
			<g id="shape21-54" v:mID="21" v:groupContext="shape" transform="translate(139.673,-645.877)">
				<title>Sheet.21</title>
				<desc>•</desc>
				<v:textBlock v:margins="rect(0,0,0,0)"/>
				<v:textRect cx="6.75" cy="1061.4" width="13.5" height="16.2"/>
				<rect x="0" y="1053.3" width="13.5" height="16.2" class="st3"/>
				<text x="0" y="1066.8" class="st9" v:langID="1033"><v:paragraph/><v:tabList/>•</text>			</g>
			<g id="shape22-57" v:mID="22" v:groupContext="shape" transform="translate(154.673,-645.877)">
				<title>Sheet.22</title>
				<desc>Risk-aware deployments</desc>
				<v:textBlock v:margins="rect(0,0,0,0)"/>
				<v:textRect cx="148.5" cy="1061.4" width="297.01" height="16.2"/>
				<rect x="0" y="1053.3" width="297" height="16.2" class="st3"/>
				<text x="0" y="1066.8" class="st9" v:langID="1033"><v:paragraph/><v:tabList/>Risk-aware deployments</text>			</g>
			<g id="shape23-60" v:mID="23" v:groupContext="shape" transform="translate(127.5,-471.9)">
				<title>Sheet.23</title>
				<path d="M0 1066.5 A2.62498 3.00007 -180 0 0 2.62 1069.5 L489.55 1069.5 A2.62498 3.00007 -180 0 0 492.17 1066.5 L492.17
							 936.3 A2.62498 3.00007 -180 0 0 489.55 933.3 L2.62 933.3 A2.62498 3.00007 -180 0 0 -0 936.3 L0 1066.5
							 Z" class="st7"/>
			</g>
			<g id="shape24-62" v:mID="24" v:groupContext="shape" transform="translate(142.5,-574.65)">
				<title>Sheet.24</title>
				<desc>Level 3 – AI-augmented delivery</desc>
				<v:textBlock v:margins="rect(0,0,0,0)"/>
				<v:textRect cx="255.75" cy="1059.6" width="511.5" height="19.8"/>
				<rect x="0" y="1049.7" width="511.5" height="19.8" class="st3"/>
				<text x="0" y="1065.6" class="st8" v:langID="1033"><v:paragraph/><v:tabList/>Level 3 – AI-augmented delivery</text>			</g>
			<g id="shape25-65" v:mID="25" v:groupContext="shape" transform="translate(139.673,-536.977)">
				<title>Sheet.25</title>
				<desc>•</desc>
				<v:textBlock v:margins="rect(0,0,0,0)"/>
				<v:textRect cx="6.75" cy="1061.4" width="13.5" height="16.2"/>
				<rect x="0" y="1053.3" width="13.5" height="16.2" class="st3"/>
				<text x="0" y="1066.8" class="st9" v:langID="1033"><v:paragraph/><v:tabList/>•</text>			</g>
			<g id="shape26-68" v:mID="26" v:groupContext="shape" transform="translate(154.673,-536.977)">
				<title>Sheet.26</title>
				<desc>Code &#38; test generation</desc>
				<v:textBlock v:margins="rect(0,0,0,0)"/>
				<v:textRect cx="148.5" cy="1061.4" width="297.01" height="16.2"/>
				<rect x="0" y="1053.3" width="297" height="16.2" class="st3"/>
				<text x="0" y="1066.8" class="st9" v:langID="1033"><v:paragraph/><v:tabList/>Code &#38; test generation</text>			</g>
			<g id="shape27-71" v:mID="27" v:groupContext="shape" transform="translate(139.673,-515.977)">
				<title>Sheet.27</title>
				<desc>•</desc>
				<v:textBlock v:margins="rect(0,0,0,0)"/>
				<v:textRect cx="6.75" cy="1061.4" width="13.5" height="16.2"/>
				<rect x="0" y="1053.3" width="13.5" height="16.2" class="st3"/>
				<text x="0" y="1066.8" class="st9" v:langID="1033"><v:paragraph/><v:tabList/>•</text>			</g>
			<g id="shape28-74" v:mID="28" v:groupContext="shape" transform="translate(154.673,-515.977)">
				<title>Sheet.28</title>
				<desc>Pipeline optimization</desc>
				<v:textBlock v:margins="rect(0,0,0,0)"/>
				<v:textRect cx="141.75" cy="1061.4" width="283.5" height="16.2"/>
				<rect x="0" y="1053.3" width="283.5" height="16.2" class="st3"/>
				<text x="0" y="1066.8" class="st9" v:langID="1033"><v:paragraph/><v:tabList/>Pipeline optimization</text>			</g>
			<g id="shape29-77" v:mID="29" v:groupContext="shape" transform="translate(139.673,-494.977)">
				<title>Sheet.29</title>
				<desc>•</desc>
				<v:textBlock v:margins="rect(0,0,0,0)"/>
				<v:textRect cx="6.75" cy="1061.4" width="13.5" height="16.2"/>
				<rect x="0" y="1053.3" width="13.5" height="16.2" class="st3"/>
				<text x="0" y="1066.8" class="st9" v:langID="1033"><v:paragraph/><v:tabList/>•</text>			</g>
			<g id="shape30-80" v:mID="30" v:groupContext="shape" transform="translate(154.673,-494.977)">
				<title>Sheet.30</title>
				<desc>Release insights</desc>
				<v:textBlock v:margins="rect(0,0,0,0)"/>
				<v:textRect cx="108" cy="1061.4" width="216.01" height="16.2"/>
				<rect x="0" y="1053.3" width="216" height="16.2" class="st3"/>
				<text x="0" y="1066.8" class="st9" v:langID="1033"><v:paragraph/><v:tabList/>Release insights</text>			</g>
			<g id="shape31-83" v:mID="31" v:groupContext="shape" transform="translate(127.5,-322.2)">
				<title>Sheet.31</title>
				<path d="M-0 1066.5 A2.81699 3.00007 -180 0 0 2.82 1069.5 L525.36 1069.5 A2.81699 3.00007 -180 0 0 528.17 1066.5
							 L528.17 936.3 A2.81699 3.00007 -180 0 0 525.36 933.3 L2.82 933.3 A2.81699 3.00007 -180 0 0 -0 936.3
							 L0 1066.5 Z" class="st10"/>
			</g>
			<g id="shape32-85" v:mID="32" v:groupContext="shape" transform="translate(142.5,-424.95)">
				<title>Sheet.32</title>
				<desc>Level 2 – Standardized operations</desc>
				<v:textBlock v:margins="rect(0,0,0,0)"/>
				<v:textRect cx="272.25" cy="1059.6" width="544.5" height="19.8"/>
				<rect x="0" y="1049.7" width="544.5" height="19.8" class="st3"/>
				<text x="0" y="1065.6" class="st8" v:langID="1033"><v:paragraph/><v:tabList/>Level 2 – Standardized operations</text>			</g>
			<g id="shape33-88" v:mID="33" v:groupContext="shape" transform="translate(141.173,-386.077)">
				<title>Sheet.33</title>
				<desc>•</desc>
				<v:textBlock v:margins="rect(0,0,0,0)"/>
				<v:textRect cx="6.75" cy="1061.4" width="13.5" height="16.2"/>
				<rect x="0" y="1053.3" width="13.5" height="16.2" class="st3"/>
				<text x="0" y="1066.8" class="st9" v:langID="1033"><v:paragraph/><v:tabList/>•</text>			</g>
			<g id="shape34-91" v:mID="34" v:groupContext="shape" transform="translate(156.173,-386.077)">
				<title>Sheet.34</title>
				<desc>Runbook summarization</desc>
				<v:textBlock v:margins="rect(0,0,0,0)"/>
				<v:textRect cx="141.75" cy="1061.4" width="283.5" height="16.2"/>
				<rect x="0" y="1053.3" width="283.5" height="16.2" class="st3"/>
				<text x="0" y="1066.8" class="st9" v:langID="1033"><v:paragraph/><v:tabList/>Runbook summarization</text>			</g>
			<g id="shape35-94" v:mID="35" v:groupContext="shape" transform="translate(141.173,-365.077)">
				<title>Sheet.35</title>
				<desc>•</desc>
				<v:textBlock v:margins="rect(0,0,0,0)"/>
				<v:textRect cx="6.75" cy="1061.4" width="13.5" height="16.2"/>
				<rect x="0" y="1053.3" width="13.5" height="16.2" class="st3"/>
				<text x="0" y="1066.8" class="st9" v:langID="1033"><v:paragraph/><v:tabList/>•</text>			</g>
			<g id="shape36-97" v:mID="36" v:groupContext="shape" transform="translate(156.173,-365.077)">
				<title>Sheet.36</title>
				<desc>Knowledge retrieval</desc>
				<v:textBlock v:margins="rect(0,0,0,0)"/>
				<v:textRect cx="128.25" cy="1061.4" width="256.5" height="16.2"/>
				<rect x="0" y="1053.3" width="256.5" height="16.2" class="st3"/>
				<text x="0" y="1066.8" class="st9" v:langID="1033"><v:paragraph/><v:tabList/>Knowledge retrieval</text>			</g>
			<g id="shape37-100" v:mID="37" v:groupContext="shape" transform="translate(141.173,-344.077)">
				<title>Sheet.37</title>
				<desc>•</desc>
				<v:textBlock v:margins="rect(0,0,0,0)"/>
				<v:textRect cx="6.75" cy="1061.4" width="13.5" height="16.2"/>
				<rect x="0" y="1053.3" width="13.5" height="16.2" class="st3"/>
				<text x="0" y="1066.8" class="st9" v:langID="1033"><v:paragraph/><v:tabList/>•</text>			</g>
			<g id="shape38-103" v:mID="38" v:groupContext="shape" transform="translate(156.173,-344.077)">
				<title>Sheet.38</title>
				<desc>Basic recommendations</desc>
				<v:textBlock v:margins="rect(0,0,0,0)"/>
				<v:textRect cx="141.75" cy="1061.4" width="283.5" height="16.2"/>
				<rect x="0" y="1053.3" width="283.5" height="16.2" class="st3"/>
				<text x="0" y="1066.8" class="st9" v:langID="1033"><v:paragraph/><v:tabList/>Basic recommendations</text>			</g>
			<g id="shape39-106" v:mID="39" v:groupContext="shape" transform="translate(127.5,-172.5)">
				<title>Sheet.39</title>
				<path d="M0 1066.5 A3.00007 3.00007 -180 0 0 3 1069.5 L559.5 1069.5 A3.00007 3.00007 -180 0 0 562.5 1066.5 L562.5
							 936.3 A3.00007 3.00007 -180 0 0 559.5 933.3 L3 933.3 A3.00007 3.00007 -180 0 0 0 936.3 L0 1066.5 Z"
						class="st7"/>
			</g>
			<g id="shape40-108" v:mID="40" v:groupContext="shape" transform="translate(142.5,-275.25)">
				<title>Sheet.40</title>
				<desc>Level 1 – Foundational DevOps</desc>
				<v:textBlock v:margins="rect(0,0,0,0)"/>
				<v:textRect cx="239.25" cy="1059.6" width="478.51" height="19.8"/>
				<rect x="0" y="1049.7" width="478.5" height="19.8" class="st3"/>
				<text x="0" y="1065.6" class="st8" v:langID="1033"><v:paragraph/><v:tabList/>Level 1 – Foundational DevOps</text>			</g>
			<g id="shape41-111" v:mID="41" v:groupContext="shape" transform="translate(141.173,-237.877)">
				<title>Sheet.41</title>
				<desc>•</desc>
				<v:textBlock v:margins="rect(0,0,0,0)"/>
				<v:textRect cx="6.75" cy="1061.4" width="13.5" height="16.2"/>
				<rect x="0" y="1053.3" width="13.5" height="16.2" class="st3"/>
				<text x="0" y="1066.8" class="st9" v:langID="1033"><v:paragraph/><v:tabList/>•</text>			</g>
			<g id="shape42-114" v:mID="42" v:groupContext="shape" transform="translate(156.173,-237.877)">
				<title>Sheet.42</title>
				<desc>Chat-based copilots</desc>
				<v:textBlock v:margins="rect(0,0,0,0)"/>
				<v:textRect cx="128.25" cy="1061.4" width="256.5" height="16.2"/>
				<rect x="0" y="1053.3" width="256.5" height="16.2" class="st3"/>
				<text x="0" y="1066.8" class="st9" v:langID="1033"><v:paragraph/><v:tabList/>Chat-based copilots</text>			</g>
			<g id="shape43-117" v:mID="43" v:groupContext="shape" transform="translate(141.173,-216.877)">
				<title>Sheet.43</title>
				<desc>•</desc>
				<v:textBlock v:margins="rect(0,0,0,0)"/>
				<v:textRect cx="6.75" cy="1061.4" width="13.5" height="16.2"/>
				<rect x="0" y="1053.3" width="13.5" height="16.2" class="st3"/>
				<text x="0" y="1066.8" class="st9" v:langID="1033"><v:paragraph/><v:tabList/>•</text>			</g>
			<g id="shape44-120" v:mID="44" v:groupContext="shape" transform="translate(156.173,-216.877)">
				<title>Sheet.44</title>
				<desc>Documentation support</desc>
				<v:textBlock v:margins="rect(0,0,0,0)"/>
				<v:textRect cx="141.75" cy="1061.4" width="283.5" height="16.2"/>
				<rect x="0" y="1053.3" width="283.5" height="16.2" class="st3"/>
				<text x="0" y="1066.8" class="st9" v:langID="1033"><v:paragraph/><v:tabList/>Documentation support</text>			</g>
			<g id="shape45-123" v:mID="45" v:groupContext="shape" transform="translate(141.173,-195.877)">
				<title>Sheet.45</title>
				<desc>•</desc>
				<v:textBlock v:margins="rect(0,0,0,0)"/>
				<v:textRect cx="6.75" cy="1061.4" width="13.5" height="16.2"/>
				<rect x="0" y="1053.3" width="13.5" height="16.2" class="st3"/>
				<text x="0" y="1066.8" class="st9" v:langID="1033"><v:paragraph/><v:tabList/>•</text>			</g>
			<g id="shape46-126" v:mID="46" v:groupContext="shape" transform="translate(156.173,-195.877)">
				<title>Sheet.46</title>
				<desc>Manual workflows</desc>
				<v:textBlock v:margins="rect(0,0,0,0)"/>
				<v:textRect cx="108" cy="1061.4" width="216.01" height="16.2"/>
				<rect x="0" y="1053.3" width="216" height="16.2" class="st3"/>
				<text x="0" y="1066.8" class="st9" v:langID="1033"><v:paragraph/><v:tabList/>Manual workflows</text>			</g>
		</g>
		<g id="shape1000-129" v:mID="1000" v:groupContext="shape" transform="translate(1170.46,157.5) rotate(90)">
			<title>Sheet.1000</title>
			<path d="M0 1069.5 L714 1069.5" class="st11"/>
		</g>
	</g>
</svg>
