<?xml version="1.0" encoding="UTF-8"?>
<svg id="Shapes" xmlns="http://www.w3.org/2000/svg" width="32" height="31.8755" viewBox="0 0 32 31.8755">
  <path d="M10.9834,5.213c.8199-2.2158,2.1616-2.2158,2.9815,0l1.0269,2.7752c.8199,2.2158,3.3037,4.6995,5.5194,5.5194l2.7752,1.0269c2.2158.8199,2.2158,2.1616,0,2.9815l-2.7752,1.0269c-2.2158.8199-4.6995,3.3037-5.5194,5.5194l-1.0269,2.7752c-.8199,2.2158-2.1616,2.2158-2.9815,0l-1.0269-2.7752c-.8199-2.2158-3.3037-4.6995-5.5194-5.5194l-2.7752-1.0269c-2.2158-.8199-2.2158-2.1616,0-2.9815l2.7752-1.0269c2.2158-.8199,4.6995-3.3037,5.5194-5.5194l1.0269-2.7752Z" fill="#49c5b1"/>
  <g>
    <path d="M24.2357,21.0118c.4709-1.2668,1.2384-1.2657,1.7056.0026l.2544.6906c.4671,1.2682,1.8858,2.6912,3.1527,3.1622l.6899.2565c1.2668.4709,1.2657,1.2384-.0026,1.7056l-.6906.2544c-1.2682.4671-2.6912,1.8858-3.1622,3.1527l-.2565.6899c-.4709,1.2668-1.2384,1.2657-1.7056-.0026l-.2544-.6906c-.4671-1.2682-1.8858-2.6912-3.1527-3.1622l-.6899-.2565c-1.2668-.4709-1.2657-1.2384.0026-1.7056l.6906-.2544c1.2682-.4671,2.6912-1.8858,3.1622-3.1527l.2565-.6899Z" fill="#fff"/>
    <path d="M24.2357,21.0118c.4709-1.2668,1.2384-1.2657,1.7056.0026l.2544.6906c.4671,1.2682,1.8858,2.6912,3.1527,3.1622l.6899.2565c1.2668.4709,1.2657,1.2384-.0026,1.7056l-.6906.2544c-1.2682.4671-2.6912,1.8858-3.1622,3.1527l-.2565.6899c-.4709,1.2668-1.2384,1.2657-1.7056-.0026l-.2544-.6906c-.4671-1.2682-1.8858-2.6912-3.1527-3.1622l-.6899-.2565c-1.2668-.4709-1.2657-1.2384.0026-1.7056l.6906-.2544c1.2682-.4671,2.6912-1.8858,3.1622-3.1527l.2565-.6899Z" fill="#49c5b1" opacity=".5"/>
  </g>
  <g>
    <path d="M25.2481.9494c.4709-1.2668,1.2384-1.2657,1.7056.0026l.2544.6906c.4671,1.2682,1.8858,2.6912,3.1527,3.1622l.6899.2565c1.2668.4709,1.2657,1.2384-.0026,1.7056l-.6906.2544c-1.2682.4671-2.6912,1.8858-3.1622,3.1527l-.2565.6899c-.4709,1.2668-1.2384,1.2657-1.7056-.0026l-.2544-.6906c-.4671-1.2682-1.8858-2.6912-3.1527-3.1622l-.6899-.2565c-1.2668-.4709-1.2657-1.2384.0026-1.7056l.6906-.2544c1.2682-.4671,2.6912-1.8858,3.1622-3.1527l.2565-.6899Z" fill="#fff"/>
    <path d="M25.2481.9494c.4709-1.2668,1.2384-1.2657,1.7056.0026l.2544.6906c.4671,1.2682,1.8858,2.6912,3.1527,3.1622l.6899.2565c1.2668.4709,1.2657,1.2384-.0026,1.7056l-.6906.2544c-1.2682.4671-2.6912,1.8858-3.1622,3.1527l-.2565.6899c-.4709,1.2668-1.2384,1.2657-1.7056-.0026l-.2544-.6906c-.4671-1.2682-1.8858-2.6912-3.1527-3.1622l-.6899-.2565c-1.2668-.4709-1.2657-1.2384.0026-1.7056l.6906-.2544c1.2682-.4671,2.6912-1.8858,3.1622-3.1527l.2565-.6899Z" fill="#49c5b1" opacity=".5"/>
  </g>
</svg>