<svg width="1280" height="720" xmlns="http://www.w3.org/2000/svg" xmlns:xlink="http://www.w3.org/1999/xlink" overflow="hidden"><defs><clipPath id="clip0"><path d="M1173.92 275.224 1304.7 537.73 1042.19 668.504 911.417 405.999Z" fill-rule="evenodd" clip-rule="evenodd"/></clipPath><clipPath id="clip1"><path d="M1173.92 275.224 1304.7 537.729 1042.19 668.504 911.417 405.999Z" fill-rule="evenodd" clip-rule="evenodd"/></clipPath><clipPath id="clip2"><path d="M1173.92 275.224 1304.7 537.729 1042.19 668.504 911.417 405.999Z" fill-rule="evenodd" clip-rule="evenodd"/></clipPath></defs><g><rect x="0" y="0" width="1280" height="720" fill="#171717" fill-opacity="0"/><rect x="346" y="645" width="508" height="9" fill="#8DC8E8"/><rect x="472" y="552" width="384" height="10" fill="#8DC8E8"/><rect x="788" y="101" width="384" height="9" fill="#8DC8E8"/><rect x="519" y="103" width="384" height="9" fill="#8DC8E8"/><rect x="207" y="30" width="672" height="10" fill="#8DC8E8"/><rect x="276" y="181" width="595" height="9" fill="#8DC8E8"/><rect x="494" y="352" width="384" height="9" fill="#8DC8E8"/><rect x="832" y="5" width="10" height="710" fill="#2B436F"/><path d="M749 110C749 61.3989 788.399 22 837 22 885.601 22 925 61.3989 925 110 925 158.601 885.601 198 837 198 788.399 198 749 158.601 749 110Z" stroke="#8DC8E8" stroke-width="3.66667" stroke-miterlimit="8" fill="#FFFFFF" fill-rule="evenodd"/><path d="M756 110C756 65.2649 792.265 29 837 29 881.735 29 918 65.2649 918 110 918 154.735 881.735 191 837 191 792.265 191 756 154.735 756 110Z" fill="#2B436F" fill-rule="evenodd"/><text fill="#FFFFFF" font-family="Segoe UI,Segoe UI_MSFontService,sans-serif" font-weight="400" font-size="21" transform="translate(792.327 105)">Increased</text><text fill="#FFFFFF" font-family="Segoe UI,Segoe UI_MSFontService,sans-serif" font-weight="400" font-size="21" transform="translate(792.58 130)">Coverage</text><path d="M749 355.5C749 307.175 788.399 268 837 268 885.601 268 925 307.175 925 355.5 925 403.825 885.601 443 837 443 788.399 443 749 403.825 749 355.5Z" stroke="#8DC8E8" stroke-width="3.66667" stroke-miterlimit="8" fill="#FFFFFF" fill-rule="evenodd"/><path d="M756 356C756 311.265 792.265 275 837 275 881.735 275 918 311.265 918 356 918 400.735 881.735 437 837 437 792.265 437 756 400.735 756 356Z" fill="#2B436F" fill-rule="evenodd"/><text fill="#FFFFFF" font-family="Segoe UI,Segoe UI_MSFontService,sans-serif" font-weight="400" font-size="21" transform="translate(788.077 351)">Decreased</text><text fill="#FFFFFF" font-family="Segoe UI,Segoe UI_MSFontService,sans-serif" font-weight="400" font-size="21" transform="translate(792.583 376)">Coverage</text><path d="M749 601.5C749 553.175 788.399 514 837 514 885.601 514 925 553.175 925 601.5 925 649.825 885.601 689 837 689 788.399 689 749 649.825 749 601.5Z" stroke="#8DC8E8" stroke-width="3.66667" stroke-miterlimit="8" fill="#FFFFFF" fill-rule="evenodd"/><path d="M756 601C756 556.265 792.265 520 837 520 881.735 520 918 556.265 918 601 918 645.735 881.735 682 837 682 792.265 682 756 645.735 756 601Z" fill="#2B436F" fill-rule="evenodd"/><text fill="#FFFFFF" font-family="Segoe UI,Segoe UI_MSFontService,sans-serif" font-weight="400" font-size="21" transform="translate(788.187 597)">Continued</text><text fill="#FFFFFF" font-family="Segoe UI,Segoe UI_MSFontService,sans-serif" font-weight="400" font-size="21" transform="translate(810.1 622)">Focus</text><path d="M367 298.167C367 282.059 380.059 269 396.167 269L636.833 269C652.941 269 666 282.059 666 298.167L666 414.833C666 430.941 652.941 444 636.833 444L396.167 444C380.059 444 367 430.941 367 414.833Z" fill="#8DC8E8" fill-rule="evenodd"/><text font-family="Segoe UI Light,Segoe UI Light_MSFontService,sans-serif" font-weight="700" font-size="19" transform="translate(384.681 303)">Specific service configuration in</text><text font-family="Segoe UI Light,Segoe UI Light_MSFontService,sans-serif" font-weight="700" font-size="19" transform="translate(384.681 326)">pillar guidance has been</text><text font-family="Segoe UI Light,Segoe UI Light_MSFontService,sans-serif" font-weight="700" font-size="19" transform="translate(384.681 348)">minimized.</text><text font-family="Segoe UI Light,Segoe UI Light_MSFontService,sans-serif" font-weight="300" font-size="16" transform="translate(474.848 348)">WAF pillar content is</text><text font-family="Segoe UI Light,Segoe UI Light_MSFontService,sans-serif" font-weight="300" font-size="16" transform="translate(384.681 368)">design, not implementation. WAF</text><text font-family="Segoe UI Light,Segoe UI Light_MSFontService,sans-serif" font-weight="300" font-size="16" transform="translate(384.681 387)">service guides provide the key set of</text><text font-family="Segoe UI Light,Segoe UI Light_MSFontService,sans-serif" font-weight="300" font-size="16" transform="translate(384.681 406)">recommendations needed for</text><text font-family="Segoe UI Light,Segoe UI Light_MSFontService,sans-serif" font-weight="300" font-size="16" transform="translate(384.681 425)">making</text><text font-family="Segoe UI Light,Segoe UI Light_MSFontService,sans-serif" font-weight="300" font-size="16" transform="translate(438.014 425)">design</text><text font-family="Segoe UI Light,Segoe UI Light_MSFontService,sans-serif" font-weight="300" font-size="16" transform="translate(486.348 425)">decisions.</text><path d="M81 616C81 605.507 89.5067 597 100 597L377 597C387.493 597 396 605.507 396 616L396 692C396 702.493 387.493 711 377 711L100 711C89.5067 711 81 702.493 81 692Z" fill="#8DC8E8" fill-rule="evenodd"/><text font-family="Segoe UI Light,Segoe UI Light_MSFontService,sans-serif" font-weight="300" font-size="16" transform="translate(95.6586 630)">WAF continues to put a</text><text font-family="Segoe UI Light,Segoe UI Light_MSFontService,sans-serif" font-weight="700" font-size="19" transform="translate(256.279 630)">healthy burden</text><text font-family="Segoe UI Light,Segoe UI Light_MSFontService,sans-serif" font-weight="300" font-size="16" transform="translate(95.6586 650)">on workload teams to make informed</text><text font-family="Segoe UI Light,Segoe UI Light_MSFontService,sans-serif" font-weight="700" font-size="19" transform="translate(95.6586 672)">decisions</text><text font-family="Segoe UI Light,Segoe UI Light_MSFontService,sans-serif" font-weight="700" font-size="19" transform="translate(171.159 672)">about design</text><text font-family="Segoe UI Light,Segoe UI Light_MSFontService,sans-serif" font-weight="700" font-size="16" transform="translate(273.659 672)">,</text><text font-family="Segoe UI Light,Segoe UI Light_MSFontService,sans-serif" font-weight="300" font-size="16" transform="translate(281.492 672)">risks, benefits,</text><text font-family="Segoe UI Light,Segoe UI Light_MSFontService,sans-serif" font-weight="300" font-size="16" transform="translate(95.6586 692)">and tradeoffs.</text><path d="M415 517C415 506.507 423.507 498 434 498L711 498C721.493 498 730 506.507 730 517L730 593C730 603.493 721.493 612 711 612L434 612C423.507 612 415 603.493 415 593Z" fill="#8DC8E8" fill-rule="evenodd"/><text font-family="Segoe UI Light,Segoe UI Light_MSFontService,sans-serif" font-weight="300" font-size="16" transform="translate(429.662 531)">WAF has recommendations to</text><text font-family="Segoe UI Light,Segoe UI Light_MSFontService,sans-serif" font-weight="700" font-size="19" transform="translate(634.962 531)">help you</text><text font-family="Segoe UI Light,Segoe UI Light_MSFontService,sans-serif" font-weight="700" font-size="19" transform="translate(429.662 554)">make decisions</text><text font-family="Segoe UI Light,Segoe UI Light_MSFontService,sans-serif" font-weight="300" font-size="19" transform="translate(548.329 554)">.</text><text font-family="Segoe UI Light,Segoe UI Light_MSFontService,sans-serif" font-weight="300" font-size="16" transform="translate(557.662 554)">WAF doesn't know</text><text font-family="Segoe UI Light,Segoe UI Light_MSFontService,sans-serif" font-weight="300" font-size="16" transform="translate(429.662 573)">your business requirements or constraints,</text><text font-family="Segoe UI Light,Segoe UI Light_MSFontService,sans-serif" font-weight="300" font-size="16" transform="translate(429.662 593)">so it can’t make decisions for you.</text><path d="M81 35.8336C81 24.8798 89.8798 16 100.834 16L354.166 16C365.12 16 374 24.8798 374 35.8336L374 115.166C374 126.12 365.12 135 354.166 135L100.834 135C89.8798 135 81 126.12 81 115.166Z" fill="#8DC8E8" fill-rule="evenodd"/><text font-family="Segoe UI Light,Segoe UI Light_MSFontService,sans-serif" font-weight="300" font-size="16" transform="translate(95.929 41)">Workloads are more than</text><text font-family="Segoe UI Light,Segoe UI Light_MSFontService,sans-serif" font-weight="700" font-size="16" transform="translate(269.542 41)">technology</text><text font-family="Segoe UI Light,Segoe UI Light_MSFontService,sans-serif" font-weight="300" font-size="16" transform="translate(344.376 41)">.</text><text font-family="Segoe UI Light,Segoe UI Light_MSFontService,sans-serif" font-weight="300" font-size="16" transform="translate(95.929 60)">WAF put a renewed effort on</text><text font-family="Segoe UI Light,Segoe UI Light_MSFontService,sans-serif" font-weight="300" font-size="16" transform="translate(95.929 82)">workload</text><text font-family="Segoe UI Light,Segoe UI Light_MSFontService,sans-serif" font-weight="300" font-size="16" transform="translate(157.429 82)">-</text><text font-family="Segoe UI Light,Segoe UI Light_MSFontService,sans-serif" font-weight="300" font-size="16" transform="translate(163.762 82)">aligned</text><text font-family="Segoe UI Light,Segoe UI Light_MSFontService,sans-serif" font-weight="700" font-size="19" transform="translate(217.096 82)">people and</text><text font-family="Segoe UI Light,Segoe UI Light_MSFontService,sans-serif" font-weight="700" font-size="19" transform="translate(95.929 104)">processes</text><text font-family="Segoe UI Light,Segoe UI Light_MSFontService,sans-serif" font-weight="300" font-size="16" transform="translate(176.389 104)">are covered from principles</text><text font-family="Segoe UI Light,Segoe UI Light_MSFontService,sans-serif" font-weight="300" font-size="16" transform="translate(95.929 124)">through guides.</text><path d="M138 159.667C138 154.328 142.328 150 147.667 150L414.333 150C419.672 150 424 154.328 424 159.667L424 198.333C424 203.672 419.672 208 414.333 208L147.667 208C142.328 208 138 203.672 138 198.333Z" fill="#8DC8E8" fill-rule="evenodd"/><text font-family="Segoe UI Light,Segoe UI Light_MSFontService,sans-serif" font-weight="300" font-size="16" transform="translate(150.254 176)">WAF recommends</text><text font-family="Segoe UI Light,Segoe UI Light_MSFontService,sans-serif" font-weight="700" font-size="16" transform="translate(277.054 176)">cloud design</text><text font-family="Segoe UI Light,Segoe UI Light_MSFontService,sans-serif" font-weight="700" font-size="16" transform="translate(150.254 195)">patterns mapped the pillars</text><text font-family="Segoe UI Light,Segoe UI Light_MSFontService,sans-serif" font-weight="300" font-size="16" transform="translate(334.027 195)">.</text><path d="M942 60.5006C942 46.417 953.417 35 967.5 35L1219.5 35C1233.58 35 1245 46.417 1245 60.5006L1245 162.499C1245 176.583 1233.58 188 1219.5 188L967.5 188C953.417 188 942 176.583 942 162.499Z" fill="#8DC8E8" fill-rule="evenodd"/><text font-family="Segoe UI Light,Segoe UI Light_MSFontService,sans-serif" font-weight="300" font-size="16" transform="translate(958.804 65)">Workloads</text><text font-family="Segoe UI Light,Segoe UI Light_MSFontService,sans-serif" font-weight="300" font-size="16" transform="translate(1033.72 65)">exist within the context of</text><text font-family="Segoe UI Light,Segoe UI Light_MSFontService,sans-serif" font-weight="300" font-size="16" transform="translate(958.804 86)">the organization</text><text font-family="Segoe UI Light,Segoe UI Light_MSFontService,sans-serif" font-weight="300" font-size="16" transform="translate(1068.15 86)">. WAF</text><text font-family="Segoe UI Light,Segoe UI Light_MSFontService,sans-serif" font-weight="700" font-size="19" transform="translate(1111.27 86)">disambiguates</text><text font-family="Segoe UI Light,Segoe UI Light_MSFontService,sans-serif" font-weight="700" font-size="19" transform="translate(958.804 109)">workload responsibility from</text><text font-family="Segoe UI Light,Segoe UI Light_MSFontService,sans-serif" font-weight="700" font-size="19" transform="translate(958.804 131)">organizational expectations</text><text font-family="Segoe UI Light,Segoe UI Light_MSFontService,sans-serif" font-weight="300" font-size="19" transform="translate(1171.93 131)">.</text><text font-family="Segoe UI Light,Segoe UI Light_MSFontService,sans-serif" font-weight="300" font-size="16" transform="translate(1181.26 131)">WAF</text><text font-family="Segoe UI Light,Segoe UI Light_MSFontService,sans-serif" font-weight="300" font-size="16" transform="translate(958.804 151)">calls out benefits and tradeoffs of</text><text font-family="Segoe UI Light,Segoe UI Light_MSFontService,sans-serif" font-weight="300" font-size="16" transform="translate(958.804 170)">external organizational influence.</text><path d="M436 68.8337C436 57.8799 444.88 49 455.834 49L689.166 49C700.12 49 709 57.8799 709 68.8337L709 148.166C709 159.12 700.12 168 689.166 168L455.834 168C444.88 168 436 159.12 436 148.166Z" fill="#8DC8E8" fill-rule="evenodd"/><text font-family="Segoe UI Light,Segoe UI Light_MSFontService,sans-serif" font-weight="300" font-size="16" transform="translate(451.069 75)">WAF provides workload guidance</text><text font-family="Segoe UI Light,Segoe UI Light_MSFontService,sans-serif" font-weight="300" font-size="16" transform="translate(451.069 94)">that includes application and the</text><text font-family="Segoe UI Light,Segoe UI Light_MSFontService,sans-serif" font-weight="300" font-size="16" transform="translate(451.069 113)">infrastructure it runs on. Every pillar</text><text font-family="Segoe UI Light,Segoe UI Light_MSFontService,sans-serif" font-weight="300" font-size="16" transform="translate(451.069 135)">has</text><text font-family="Segoe UI Light,Segoe UI Light_MSFontService,sans-serif" font-weight="700" font-size="19" transform="translate(477.902 135)">developer</text><text font-family="Segoe UI Light,Segoe UI Light_MSFontService,sans-serif" font-weight="700" font-size="19" transform="translate(556.402 135)">-</text><text font-family="Segoe UI Light,Segoe UI Light_MSFontService,sans-serif" font-weight="700" font-size="19" transform="translate(563.902 135)">centric content</text><text font-family="Segoe UI Light,Segoe UI Light_MSFontService,sans-serif" font-weight="300" font-size="16" transform="translate(451.069 155)">included.</text><path d="M971 376.447C971 366.811 978.811 359 988.447 359L1227.55 359C1237.19 359 1245 366.811 1245 376.447L1245 597.553C1245 607.189 1237.19 615 1227.55 615L988.447 615C978.811 615 971 607.189 971 597.553Z" fill="#8DC8E8" fill-rule="evenodd"/><g clip-path="url(#clip0)"><g clip-path="url(#clip1)"><g clip-path="url(#clip2)"><path d="M1036.43 498.06C1024.99 460.945 1042.17 421.013 1076.98 403.795 1081.31 401.701 1085.82 400.002 1090.46 398.718L1090.57 398.937 1084.39 408.259C1082.52 411.075 1083.29 414.871 1086.11 416.739 1088.92 418.607 1092.72 417.839 1094.59 415.023L1108.9 393.39C1109.79 392.043 1110.11 390.398 1109.79 388.814 1109.47 387.223 1108.53 385.826 1107.17 384.93L1085.42 370.512C1082.68 368.533 1078.86 369.145 1076.88 371.878 1074.91 374.612 1075.52 378.431 1078.25 380.41 1078.39 380.511 1078.53 380.606 1078.68 380.694L1087.69 386.651C1082.12 388.21 1076.71 390.288 1071.53 392.857 1031.39 412.697 1011.56 458.712 1024.7 501.513L1025.17 502.442C1026.43 505.583 1030 507.105 1033.14 505.842 1036.28 504.579 1037.8 501.009 1036.54 497.868Z" fill="#FFFFFF"/><path d="M1153.26 556.923C1163.04 552.066 1171.87 545.505 1179.35 537.547 1181.65 535.079 1181.52 531.21 1179.05 528.905 1176.58 526.6 1172.72 526.732 1170.41 529.2 1140.43 561.225 1090.17 562.884 1058.14 532.905 1057.91 532.691 1057.69 532.476 1057.46 532.259L1057.46 532.259 1068.63 532.904C1072.02 533.105 1074.92 530.528 1075.12 527.148 1075.32 523.768 1072.74 520.865 1069.36 520.664L1043.49 519.219C1040.12 519.022 1037.23 521.592 1037.03 524.961 1037.03 524.961 1037.03 524.961 1037.03 524.961L1035.56 550.849C1035.36 554.229 1037.94 557.132 1041.32 557.333 1044.7 557.535 1047.6 554.958 1047.8 551.577L1048.39 540.635C1076.27 567.926 1118.42 574.472 1153.26 556.923Z" fill="#FFFFFF"/><path d="M1184.88 483.152C1183.37 480.131 1179.7 478.903 1176.68 480.407 1173.66 481.912 1172.43 485.58 1173.94 488.601L1185.14 511.078C1185.23 511.294 1185.33 511.504 1185.45 511.707 1185.97 512.759 1186.8 513.631 1187.82 514.21L1188.26 514.471 1188.48 514.567 1188.48 514.567 1188.93 514.786C1190.48 515.348 1192.2 515.257 1193.68 514.533L1216.87 502.981C1219.89 501.477 1221.12 497.809 1219.62 494.788 1218.11 491.768 1214.44 490.539 1211.42 492.044L1201.44 497.016 1201.44 497.016C1213.65 447.893 1183.72 398.177 1134.6 385.972 1134.39 385.919 1134.18 385.867 1133.96 385.816 1130.68 385.019 1127.38 387.033 1126.58 390.314 1125.78 393.595 1127.8 396.901 1131.08 397.698 1173.5 407.91 1199.74 450.43 1189.85 492.928Z" fill="#FFFFFF"/></g></g></g><text font-family="Segoe UI,Segoe UI_MSFontService,sans-serif" font-weight="400" font-size="21" transform="translate(994.334 428)">Well</text><text font-family="Segoe UI,Segoe UI_MSFontService,sans-serif" font-weight="400" font-size="21" transform="translate(1035.32 428)">-</text><text font-family="Segoe UI,Segoe UI_MSFontService,sans-serif" font-weight="400" font-size="21" transform="translate(1043.82 428)">Architected Review</text><text font-family="Segoe UI,Segoe UI_MSFontService,sans-serif" font-weight="400" font-size="21" transform="translate(1053.22 453)">Assessment</text><text font-family="Segoe UI,Segoe UI_MSFontService,sans-serif" font-weight="400" font-size="21" transform="translate(1100.72 479)">=</text><text font-family="Segoe UI,Segoe UI_MSFontService,sans-serif" font-weight="400" font-size="21" transform="translate(1031.45 505)">Well</text><text font-family="Segoe UI,Segoe UI_MSFontService,sans-serif" font-weight="400" font-size="21" transform="translate(1072.44 505)">-</text><text font-family="Segoe UI,Segoe UI_MSFontService,sans-serif" font-weight="400" font-size="21" transform="translate(1080.94 505)">architected</text><text font-family="Segoe UI,Segoe UI_MSFontService,sans-serif" font-weight="400" font-size="21" transform="translate(1055.83 530)">Framework</text><text font-family="Segoe UI,Segoe UI_MSFontService,sans-serif" font-weight="400" font-size="16" transform="translate(1016.47 578)">One story, two modalities,</text><text font-family="Segoe UI,Segoe UI_MSFontService,sans-serif" font-weight="700" font-size="19" transform="translate(1046.14 599)">always in sync</text></g></svg>