<svg width="1280" height="720" xmlns="http://www.w3.org/2000/svg" xmlns:xlink="http://www.w3.org/1999/xlink" overflow="hidden"><defs><clipPath id="clip0"><rect x="0" y="0" width="1280" height="720"/></clipPath><radialGradient cx="1982964" cy="1982964" r="2804334" fx="1982964" fy="1982964" gradientUnits="userSpaceOnUse" spreadMethod="pad" id="fill1" gradientTransform="matrix(-2.03686e-05 -0.000102992 0.000102992 -2.03686e-05 58.7761 604.62)"><stop offset="0" stop-color="#F0F8FD" stop-opacity="0"/><stop offset="0.44" stop-color="#F0F8FD" stop-opacity="0"/><stop offset="0.66" stop-color="#E8E8E8"/><stop offset="0.83" stop-color="#E8E8E8"/><stop offset="1" stop-color="#D9D9D9"/></radialGradient><radialGradient cx="1138237" cy="1133475" r="1606347" fx="1138238" fy="1133475" gradientUnits="userSpaceOnUse" spreadMethod="pad" id="fill2" gradientTransform="matrix(0.000104987 0 0 0.000104987 103 241)"><stop offset="0" stop-color="#F0F8FD" stop-opacity="0"/><stop offset="0.52" stop-color="#F0F8FD" stop-opacity="0"/><stop offset="0.74" stop-color="#E97132"/><stop offset="0.97" stop-color="#C00000"/><stop offset="1" stop-color="#C00000"/></radialGradient><radialGradient cx="469482" cy="469482" r="663948" fx="469482" fy="469482" gradientUnits="userSpaceOnUse" spreadMethod="pad" id="fill3" gradientTransform="matrix(2.71726e-05 0.00010141 -0.00010141 2.71726e-05 351.322 573.26)"><stop offset="0" stop-color="#F0F8FD" stop-opacity="0"/><stop offset="0.52" stop-color="#F0F8FD" stop-opacity="0"/><stop offset="0.74" stop-color="#104862"/><stop offset="1" stop-color="#215F9A"/></radialGradient><radialGradient cx="469482" cy="469482" r="663948" fx="469482" fy="469482" gradientUnits="userSpaceOnUse" spreadMethod="pad" id="fill4" gradientTransform="matrix(2.71726e-05 0.00010141 -0.00010141 2.71726e-05 351.322 26.0059)"><stop offset="0" stop-color="#F0F8FD" stop-opacity="0"/><stop offset="0.52" stop-color="#F0F8FD" stop-opacity="0"/><stop offset="0.74" stop-color="#3B7D23"/><stop offset="1" stop-color="#92D050"/></radialGradient><radialGradient cx="469482" cy="469482" r="663948" fx="469482" fy="469482" gradientUnits="userSpaceOnUse" spreadMethod="pad" id="fill5" gradientTransform="matrix(2.71726e-05 0.00010141 -0.00010141 2.71726e-05 505.779 111.569)"><stop offset="0" stop-color="#F0F8FD" stop-opacity="0"/><stop offset="0.52" stop-color="#F0F8FD" stop-opacity="0"/><stop offset="0.74" stop-color="#0070C0"/><stop offset="1" stop-color="#A2D8F0"/></radialGradient><radialGradient cx="469482" cy="469482" r="663948" fx="469482" fy="469482" gradientUnits="userSpaceOnUse" spreadMethod="pad" id="fill6" gradientTransform="matrix(2.71726e-05 0.00010141 -0.00010141 2.71726e-05 505.779 487.364)"><stop offset="0" stop-color="#F0F8FD" stop-opacity="0"/><stop offset="0.52" stop-color="#F0F8FD" stop-opacity="0"/><stop offset="0.74" stop-color="#262626"/><stop offset="1" stop-color="#D9D9D9"/></radialGradient><radialGradient cx="469482" cy="469482" r="663948" fx="469482" fy="469482" gradientUnits="userSpaceOnUse" spreadMethod="pad" id="fill7" gradientTransform="matrix(2.71726e-05 0.00010141 -0.00010141 2.71726e-05 550.964 299.633)"><stop offset="0" stop-color="#F0F8FD" stop-opacity="0"/><stop offset="0.52" stop-color="#F0F8FD" stop-opacity="0"/><stop offset="0.74" stop-color="#4C4EAE"/><stop offset="1" stop-color="#E59EDD"/></radialGradient></defs><g clip-path="url(#clip0)"><rect x="0" y="0" width="1280" height="720" fill="#22375A" fill-opacity="0"/><path d="M291 0 269.929 0.931538C210.383 6.22102 156.044 29.6277 112.461 65.603L97.4886 79.2141 91.3611 73.5333 76.9241 88.2599C28.868 142.245 0 211.456 0 286.917 0 373.159 37.7051 451.236 98.666 507.752L106.703 514.525 111.802 509.798 112.461 510.397C156.044 546.373 210.383 569.779 269.929 575.069L291 576 291 569.607 270.502 568.701C212.277 563.529 159.144 540.641 116.527 505.464L116.502 505.441 121.362 500.935 113.324 494.163C56.1151 441.124 20.7302 367.851 20.7302 286.917 20.7302 216.1 47.8218 151.148 92.9205 100.485L106.02 87.1232 102.188 83.5712 116.527 70.5364C159.144 35.3589 212.277 12.4715 270.502 7.29928L291 6.39313Z" fill="#E8E8E8" fill-rule="evenodd" fill-opacity="0.501961" transform="matrix(-1 0 0 1 519 72)"/><path d="M104 359.5C104 294.054 157.054 241 222.5 241 287.946 241 341 294.054 341 359.5 341 424.946 287.946 478 222.5 478 157.054 478 104 424.946 104 359.5Z" fill="#FFFFFF" fill-rule="evenodd"/><path d="M263.006 564.229 247.738 487.031C317.895 473.156 363.521 405.034 349.646 334.877L426.845 319.61C449.152 432.403 375.798 541.923 263.006 564.229ZM18.386 400.39C-3.92087 287.597 69.4325 178.077 182.225 155.77L197.493 232.969C127.336 246.844 81.7098 314.965 95.5847 385.123Z" fill="url(#fill1)" fill-rule="evenodd"/><path d="M91.2854 435.624 111.509 423.948 111.588 424.102C146.99 485.421 225.399 506.431 286.718 471.028L298.394 491.251C225.906 533.102 133.215 508.266 91.3645 435.778ZM146.838 228.749C219.326 186.898 312.016 211.734 353.867 284.222L333.644 295.898C298.241 234.579 219.833 213.57 158.514 248.972Z" fill="#E8E8E8" fill-rule="evenodd"/><path d="M136.244 479.846 148.818 472.586 152.132 474.845C174.363 488.461 200.173 495.377 226.233 494.7L230.233 494.401 237.493 506.975 226.585 507.792C197.992 508.534 169.673 500.946 145.282 486.006ZM207.738 213.025 218.646 212.209C247.239 211.466 275.558 219.054 299.949 233.993L308.987 240.154 296.413 247.414 293.099 245.155C270.868 231.539 245.058 224.623 218.998 225.3L214.998 225.599Z" fill="#AEAEAE" fill-rule="evenodd"/><path d="M179.238 3.85971C220.498 3.85971 258.339 18.44 287.856 42.7115L296.81 50.8202 294.748 52.7254 302.686 60.7922C330.018 91.379 346.437 130.592 346.437 173.346 346.437 222.208 324.992 266.445 290.32 298.466L285.449 302.554 288.136 305.035 287.856 305.289C258.339 329.56 220.498 344.14 179.238 344.14 137.979 344.14 100.138 329.56 70.6205 305.289L70.6052 305.275 73.5506 302.554 68.6795 298.466C34.0081 266.445 12.5634 222.208 12.5634 173.346 12.5634 130.592 28.982 91.379 56.3138 60.7922L64.2524 52.7254 61.9305 50.5809 70.6205 42.7115C100.138 18.44 137.979 3.85971 179.238 3.85971ZM179.238 0C137.043 0 98.343 14.911 68.1564 39.7331L59.0823 47.9504 55.3687 44.5208 46.6192 53.4116C17.4952 86.0041 0 127.788 0 173.346 0 225.413 22.8509 272.55 59.7958 306.67L64.6669 310.759 67.757 307.905 68.1564 308.267C98.343 333.089 137.043 348 179.238 348 221.434 348 260.134 333.089 290.32 308.267L290.984 307.666 294.333 310.759 299.204 306.67C336.149 272.55 359 225.413 359 173.346 359 127.788 341.505 86.0041 312.381 53.4116L303.631 44.5208 299.659 48.1897 290.32 39.7331C260.134 14.911 221.434 0 179.238 0Z" fill="#E8E8E8" fill-rule="evenodd" transform="matrix(-1 0 0 1 402 186)"/><path d="M103 360C103 294.278 156.502 241 222.5 241 288.498 241 342 294.278 342 360 342 425.722 288.498 479 222.5 479 156.502 479 103 425.722 103 360Z" fill="url(#fill2)" fill-rule="evenodd"/><text font-family="Segoe Sans Text Semibold,Segoe Sans Text Semibold_MSFontService,sans-serif" font-weight="600" font-size="28" transform="translate(188.612 338)">Well</text><text font-family="Segoe Sans Text Semibold,Segoe Sans Text Semibold_MSFontService,sans-serif" font-weight="600" font-size="28" transform="translate(245.279 338)">-</text><text font-family="Segoe Sans Text Semibold,Segoe Sans Text Semibold_MSFontService,sans-serif" font-weight="600" font-size="28" transform="translate(149.532 371)">Architected</text><text font-family="Segoe Sans Text Semibold,Segoe Sans Text Semibold_MSFontService,sans-serif" font-weight="600" font-size="28" transform="translate(151.366 405)">Framework</text><path d="M304.016 586.457C329.878 579.527 356.462 594.875 363.391 620.737 370.321 646.6 354.973 673.183 329.111 680.113 303.248 687.043 276.665 671.695 269.735 645.833 262.805 619.97 278.153 593.387 304.016 586.457Z" fill="#FFFFFF" fill-rule="evenodd"/><path d="M73.8681 1.59645C90.872 1.59645 106.467 7.62712 118.632 17.6662L122.322 21.0202 121.472 21.8082 124.744 25.1448C136.008 37.796 142.774 54.0152 142.774 71.6992 142.774 91.9095 133.936 110.207 119.648 123.451L117.64 125.142 118.747 126.168 118.632 126.273C106.467 136.312 90.872 142.343 73.8681 142.343 56.8643 142.343 41.2689 136.312 29.1043 126.273L29.098 126.267 30.3118 125.142 28.3044 123.451C14.0155 110.207 5.17767 91.9095 5.17767 71.6992 5.17767 54.0152 11.9441 37.796 23.2082 25.1448L26.4799 21.8082 25.5229 20.9212 29.1043 17.6662C41.2689 7.62712 56.8643 1.59645 73.8681 1.59645ZM73.8681 0C56.4785 0 40.5294 6.16748 28.0888 16.4343L24.3491 19.8332 22.8187 18.4146 19.2128 22.092C7.21017 35.5729 0 52.8555 0 71.6992 0 93.2348 9.41736 112.732 24.6432 126.844L26.6507 128.536 27.9242 127.355 28.0888 127.505C40.5294 137.772 56.4785 143.939 73.8681 143.939 91.2578 143.939 107.207 137.772 119.647 127.505L119.921 127.256 121.301 128.536 123.309 126.844C138.535 112.732 147.952 93.2348 147.952 71.6992 147.952 52.8555 140.742 35.5729 128.739 22.092L125.133 18.4146 123.496 19.9322 119.647 16.4343C107.207 6.16748 91.2578 0 73.8681 0Z" fill="#E8E8E8" fill-rule="evenodd" transform="matrix(-0.258819 -0.965926 -0.965926 0.258819 405.133 686.455)"/><path d="M303.712 586.017C330.006 578.972 357.034 594.576 364.079 620.87 371.125 647.164 355.52 674.192 329.226 681.237 302.932 688.283 275.905 672.678 268.859 646.384 261.814 620.09 277.418 593.063 303.712 586.017Z" fill="url(#fill3)" fill-rule="evenodd"/><text font-family="Segoe Sans Text Semibold,Segoe Sans Text Semibold_MSFontService,sans-serif" font-weight="600" font-size="15" transform="translate(273.539 633)">Performance</text><text font-family="Segoe Sans Text Semibold,Segoe Sans Text Semibold_MSFontService,sans-serif" font-weight="600" font-size="15" transform="translate(284.619 651)">Efficiency</text><path d="M303.853 39.0378C329.918 32.0537 356.709 47.5218 363.693 73.5867 370.677 99.6517 355.209 126.443 329.144 133.427 303.079 140.411 276.288 124.943 269.304 98.8783 262.32 72.8134 277.788 46.0219 303.853 39.0378Z" fill="#FFFFFF" fill-rule="evenodd"/><path d="M73.8681 1.59645C90.872 1.59645 106.467 7.62712 118.632 17.6662L122.322 21.0202 121.472 21.8082 124.744 25.1448C136.008 37.796 142.774 54.0152 142.774 71.6992 142.774 91.9095 133.936 110.207 119.648 123.451L117.64 125.142 118.747 126.168 118.632 126.273C106.467 136.312 90.872 142.343 73.8681 142.343 56.8643 142.343 41.2689 136.312 29.1043 126.273L29.098 126.267 30.3118 125.142 28.3044 123.451C14.0155 110.207 5.17767 91.9095 5.17767 71.6992 5.17767 54.0152 11.9441 37.796 23.2082 25.1448L26.4799 21.8082 25.5229 20.9212 29.1043 17.6662C41.2689 7.62712 56.8643 1.59645 73.8681 1.59645ZM73.8681 0C56.4785 0 40.5294 6.16748 28.0888 16.4343L24.3491 19.8332 22.8187 18.4146 19.2128 22.092C7.21017 35.5729 0 52.8555 0 71.6992 0 93.2348 9.41736 112.732 24.6432 126.844L26.6507 128.536 27.9242 127.355 28.0888 127.505C40.5294 137.772 56.4785 143.939 73.8681 143.939 91.2578 143.939 107.207 137.772 119.647 127.505L119.921 127.256 121.301 128.536 123.309 126.844C138.535 112.732 147.952 93.2348 147.952 71.6992 147.952 52.8555 140.742 35.5729 128.739 22.092L125.133 18.4146 123.496 19.9322 119.647 16.4343C107.207 6.16748 91.2578 0 73.8681 0Z" fill="#E8E8E8" fill-rule="evenodd" transform="matrix(-0.258819 -0.965926 -0.965926 0.258819 405.133 139.201)"/><path d="M303.712 38.763C330.006 31.7174 357.034 47.3216 364.079 73.6159 371.125 99.9101 355.52 126.937 329.226 133.983 302.932 141.028 275.905 125.424 268.859 99.13 261.814 72.8357 277.418 45.8085 303.712 38.763Z" fill="url(#fill4)" fill-rule="evenodd"/><text font-family="Segoe Sans Text Semibold,Segoe Sans Text Semibold_MSFontService,sans-serif" font-weight="600" font-size="15" transform="translate(301.633 77)">Cost</text><text font-family="Segoe Sans Text Semibold,Segoe Sans Text Semibold_MSFontService,sans-serif" font-weight="600" font-size="15" transform="translate(272.886 95)">Optimization</text><path d="M458.395 125.256C484.166 118.351 510.654 133.645 517.56 159.415 524.465 185.186 509.171 211.674 483.401 218.58 457.63 225.485 431.142 210.191 424.236 184.421 417.331 158.65 432.625 132.162 458.395 125.256Z" fill="#FFFFFF" fill-rule="evenodd"/><path d="M73.8681 1.59645C90.872 1.59645 106.467 7.62712 118.632 17.6662L122.322 21.0202 121.472 21.8082 124.744 25.1448C136.008 37.796 142.774 54.0152 142.774 71.6992 142.774 91.9095 133.936 110.207 119.648 123.451L117.64 125.142 118.747 126.168 118.632 126.273C106.467 136.312 90.872 142.343 73.8681 142.343 56.8643 142.343 41.2689 136.312 29.1043 126.273L29.098 126.267 30.3118 125.142 28.3044 123.451C14.0155 110.207 5.17767 91.9095 5.17767 71.6992 5.17767 54.0152 11.9441 37.796 23.2082 25.1448L26.4799 21.8082 25.5229 20.9212 29.1043 17.6662C41.2689 7.62712 56.8643 1.59645 73.8681 1.59645ZM73.8681 0C56.4785 0 40.5294 6.16748 28.0888 16.4343L24.3491 19.8332 22.8187 18.4146 19.2128 22.092C7.21017 35.5729 0 52.8555 0 71.6992 0 93.2348 9.41736 112.732 24.6432 126.844L26.6507 128.536 27.9242 127.355 28.0888 127.505C40.5294 137.772 56.4785 143.939 73.8681 143.939 91.2578 143.939 107.207 137.772 119.647 127.505L119.921 127.256 121.301 128.536 123.309 126.844C138.535 112.732 147.952 93.2348 147.952 71.6992 147.952 52.8555 140.742 35.5729 128.739 22.092L125.133 18.4146 123.496 19.9322 119.647 16.4343C107.207 6.16748 91.2578 0 73.8681 0Z" fill="#E8E8E8" fill-rule="evenodd" transform="matrix(-0.258819 -0.965926 -0.965926 0.258819 559.589 224.764)"/><path d="M458.169 124.326C484.463 117.28 511.49 132.885 518.536 159.179 525.581 185.473 509.977 212.5 483.683 219.546 457.389 226.591 430.361 210.987 423.316 184.693 416.27 158.399 431.874 131.372 458.169 124.326Z" fill="url(#fill5)" fill-rule="evenodd"/><text font-family="Segoe Sans Text Semibold,Segoe Sans Text Semibold_MSFontService,sans-serif" font-weight="600" font-size="15" transform="translate(444.176 177)">Security</text><path d="M458.591 500.758C484.596 493.79 511.325 509.222 518.293 535.227 525.26 561.231 509.828 587.96 483.824 594.928 457.82 601.896 431.091 586.463 424.123 560.459 417.155 534.455 432.587 507.726 458.591 500.758Z" fill="#FFFFFF" fill-rule="evenodd"/><path d="M73.8681 1.59645C90.872 1.59645 106.467 7.62712 118.632 17.6662L122.322 21.0202 121.472 21.8082 124.744 25.1448C136.008 37.796 142.774 54.0152 142.774 71.6992 142.774 91.9095 133.936 110.207 119.648 123.451L117.64 125.142 118.747 126.168 118.632 126.273C106.467 136.312 90.872 142.343 73.8681 142.343 56.8643 142.343 41.2689 136.312 29.1043 126.273L29.098 126.267 30.3118 125.142 28.3044 123.451C14.0155 110.207 5.17767 91.9095 5.17767 71.6992 5.17767 54.0152 11.9441 37.796 23.2082 25.1448L26.4799 21.8082 25.5229 20.9212 29.1043 17.6662C41.2689 7.62712 56.8643 1.59645 73.8681 1.59645ZM73.8681 0C56.4785 0 40.5294 6.16748 28.0888 16.4343L24.3491 19.8332 22.8187 18.4146 19.2128 22.092C7.21017 35.5729 0 52.8555 0 71.6992 0 93.2348 9.41736 112.732 24.6432 126.844L26.6507 128.536 27.9242 127.355 28.0888 127.505C40.5294 137.772 56.4785 143.939 73.8681 143.939 91.2578 143.939 107.207 137.772 119.647 127.505L119.921 127.256 121.301 128.536 123.309 126.844C138.535 112.732 147.952 93.2348 147.952 71.6992 147.952 52.8555 140.742 35.5729 128.739 22.092L125.133 18.4146 123.496 19.9322 119.647 16.4343C107.207 6.16748 91.2578 0 73.8681 0Z" fill="#E8E8E8" fill-rule="evenodd" transform="matrix(-0.258819 -0.965926 -0.965926 0.258819 559.589 600.892)"/><path d="M458.169 500.121C484.463 493.075 511.49 508.68 518.536 534.974 525.581 561.268 509.977 588.295 483.683 595.341 457.389 602.386 430.361 586.782 423.316 560.488 416.27 534.194 431.874 507.166 458.169 500.121Z" fill="url(#fill6)" fill-rule="evenodd"/><text font-family="Segoe Sans Text Semibold,Segoe Sans Text Semibold_MSFontService,sans-serif" font-weight="600" font-size="15" transform="translate(431.342 544)">Operational</text><text font-family="Segoe Sans Text Semibold,Segoe Sans Text Semibold_MSFontService,sans-serif" font-weight="600" font-size="15" transform="translate(436.676 562)">Excellence</text><path d="M503.883 313.36C529.616 306.465 556.067 321.736 562.962 347.47 569.857 373.203 554.586 399.653 528.853 406.549 503.119 413.444 476.669 398.173 469.774 372.439 462.878 346.706 478.15 320.256 503.883 313.36Z" fill="#FFFFFF" fill-rule="evenodd"/><path d="M73.8681 1.59645C90.872 1.59645 106.467 7.62712 118.632 17.6662L122.322 21.0202 121.472 21.8082 124.744 25.1448C136.008 37.796 142.774 54.0152 142.774 71.6992 142.774 91.9095 133.936 110.207 119.648 123.451L117.64 125.142 118.747 126.168 118.632 126.273C106.467 136.312 90.872 142.343 73.8681 142.343 56.8643 142.343 41.2689 136.312 29.1043 126.273L29.098 126.267 30.3118 125.142 28.3044 123.451C14.0155 110.207 5.17767 91.9095 5.17767 71.6992 5.17767 54.0152 11.9441 37.796 23.2082 25.1448L26.4799 21.8082 25.5229 20.9212 29.1043 17.6662C41.2689 7.62712 56.8643 1.59645 73.8681 1.59645ZM73.8681 0C56.4785 0 40.5294 6.16748 28.0888 16.4343L24.3491 19.8332 22.8187 18.4146 19.2128 22.092C7.21017 35.5729 0 52.8555 0 71.6992 0 93.2348 9.41736 112.732 24.6432 126.844L26.6507 128.536 27.9242 127.355 28.0888 127.505C40.5294 137.772 56.4785 143.939 73.8681 143.939 91.2578 143.939 107.207 137.772 119.647 127.505L119.921 127.256 121.301 128.536 123.309 126.844C138.535 112.732 147.952 93.2348 147.952 71.6992 147.952 52.8555 140.742 35.5729 128.739 22.092L125.133 18.4146 123.496 19.9322 119.647 16.4343C107.207 6.16748 91.2578 0 73.8681 0Z" fill="#E8E8E8" fill-rule="evenodd" transform="matrix(-0.258819 -0.965926 -0.965926 0.258819 604.775 412.828)"/><path d="M503.354 312.39C529.649 305.344 556.676 320.949 563.721 347.243 570.767 373.537 555.163 400.564 528.868 407.61 502.574 414.655 475.547 399.051 468.501 372.757 461.456 346.463 477.06 319.435 503.354 312.39Z" fill="url(#fill7)" fill-rule="evenodd"/><text font-family="Segoe Sans Text Semibold,Segoe Sans Text Semibold_MSFontService,sans-serif" font-weight="600" font-size="15" transform="translate(483.362 365)">Reliability</text><path d="M779.477 242 998.227 242 1000.15 242.384 998.831 244.322C998.427 245.264 998.204 246.3 998.204 247.388 998.204 251.737 1001.77 255.263 1006.18 255.263L1007 255.099 1007 285.333C1007 290.12 1003.07 294 998.227 294L776.773 294C771.928 294 768 290.12 768 285.333L768 252.28Z" fill="#037BD1" fill-rule="evenodd"/><text fill="#FFFFFF" font-family="Segoe Sans Text Semibold,Segoe Sans Text Semibold_MSFontService,sans-serif" font-weight="600" font-size="19" transform="translate(815.063 274)">Workload design</text><path d="M784.972 243.464 784.972 245.769 777.604 245.769 770.795 252.479 773.079 252.479 773.079 262.037 768.274 262.037 768.274 273.874 771.079 273.874 771.079 284.461C771.079 288.042 774.93 290.944 779.682 290.944L781.361 290.944 781.361 294.092 992.86 294.092 992.86 290.944 994.539 290.944C999.291 290.944 1003.14 288.042 1003.14 284.461L1003.14 273.874 1005.95 273.874 1005.95 256.584 1002.59 255.916C999.384 254.579 997.135 251.45 997.135 247.804 997.135 246.588 997.385 245.43 997.837 244.377L998.332 243.653 997.385 243.464 995.118 243.464 993.292 245.264 986.488 245.264 988.315 243.464 985.134 243.464 983.308 245.264 976.504 245.264 978.33 243.464 975.149 243.464 973.323 245.264 966.519 245.264 968.346 243.464 965.165 243.464 963.339 245.264 956.535 245.264 958.361 243.464 955.18 243.464 953.354 245.264 946.55 245.264 948.376 243.464 945.196 243.464 943.37 245.264 936.566 245.264 938.392 243.464ZM1006.2 240.729C1002.3 240.729 999.146 243.84 999.146 247.677 999.146 251.515 1002.3 254.625 1006.2 254.625 1010.09 254.625 1013.25 251.515 1013.25 247.677 1013.25 243.84 1010.09 240.729 1006.2 240.729ZM775.274 239 784.972 239 784.972 241.274 940.615 241.274 942.914 239.007 949.718 239.007 947.419 241.274 950.599 241.274 952.899 239.007 959.702 239.007 957.403 241.274 960.584 241.274 962.883 239.007 969.687 239.007 967.388 241.274 970.568 241.274 972.868 239.007 979.672 239.007 977.372 241.274 980.553 241.274 982.852 239.007 989.656 239.007 987.357 241.274 990.537 241.274 992.837 239.007 999.641 239.007 997.341 241.274 998.508 241.274 999.818 241.534 1002.59 239.692C1003.66 239.246 1004.83 239 1006.07 239 1011 239 1015 242.942 1015 247.804 1015 251.45 1012.75 254.579 1009.54 255.916L1007.81 256.261 1007.81 273.874 1012.22 273.874 1012.22 289.832C1012.22 294.895 1008.06 299 1002.92 299L992.86 299 992.86 296.283 781.361 296.283 781.361 299 771.303 299C766.165 299 762 294.895 762 289.832L762 273.874 766.411 273.874 766.411 262.037 766.212 262.037 766.212 252.479 766.712 252.479 775.274 244.041Z" fill="#8DC8E8" fill-rule="evenodd"/><path d="M779.477 305 998.227 305 1000.15 305.384 998.831 307.322C998.427 308.264 998.204 309.3 998.204 310.388 998.204 314.737 1001.77 318.263 1006.18 318.263L1007 318.099 1007 348.333C1007 353.12 1003.07 357 998.227 357L776.773 357C771.928 357 768 353.12 768 348.333L768 315.28Z" fill="#037BD1" fill-rule="evenodd"/><text fill="#FFFFFF" font-family="Segoe Sans Text Semibold,Segoe Sans Text Semibold_MSFontService,sans-serif" font-weight="600" font-size="19" transform="translate(791.563 337)">Reference architecture</text><path d="M784.972 305.539 784.972 307.881 777.604 307.881 770.795 314.704 773.079 314.704 773.079 324.421 768.274 324.421 768.274 336.455 771.079 336.455 771.079 347.219C771.079 350.859 774.93 353.81 779.682 353.81L781.361 353.81 781.361 357.011 992.86 357.011 992.86 353.81 994.539 353.81C999.291 353.81 1003.14 350.859 1003.14 347.219L1003.14 336.455 1005.95 336.455 1005.95 318.877 1002.59 318.198C999.384 316.839 997.135 313.658 997.135 309.951 997.135 308.715 997.385 307.537 997.837 306.467L998.332 305.73 997.385 305.539 995.118 305.539 993.292 307.369 986.488 307.369 988.315 305.539 985.134 305.539 983.308 307.368 976.504 307.369 978.33 305.539 975.149 305.539 973.323 307.369 966.519 307.369 968.346 305.539 965.165 305.539 963.339 307.369 956.535 307.368 958.361 305.539 955.18 305.539 953.354 307.368 946.55 307.369 948.376 305.539 945.196 305.539 943.37 307.369 936.566 307.368 938.392 305.539ZM1006.2 302.758C1002.3 302.758 999.146 305.92 999.146 309.822 999.146 313.723 1002.3 316.886 1006.2 316.886 1010.09 316.886 1013.25 313.723 1013.25 309.822 1013.25 305.92 1010.09 302.758 1006.2 302.758ZM775.274 301 784.972 301 784.972 303.312 940.615 303.312 942.914 301.008 949.718 301.008 947.419 303.312 950.599 303.312 952.899 301.008 959.702 301.007 957.403 303.312 960.584 303.312 962.883 301.007 969.687 301.008 967.388 303.312 970.568 303.312 972.868 301.008 979.672 301.008 977.372 303.312 980.553 303.312 982.852 301.008 989.656 301.007 987.357 303.312 990.537 303.312 992.837 301.008 999.641 301.008 997.341 303.312 998.508 303.312 999.818 303.577 1002.59 301.703C1003.66 301.251 1004.83 301 1006.07 301 1011 301 1015 305.007 1015 309.951 1015 313.658 1012.75 316.839 1009.54 318.198L1007.81 318.548 1007.81 336.455 1012.22 336.455 1012.22 352.679C1012.22 357.827 1008.06 362 1002.92 362L992.86 362 992.86 359.238 781.361 359.238 781.361 362 771.303 362C766.165 362 762 357.827 762 352.679L762 336.455 766.411 336.455 766.411 324.421 766.212 324.421 766.212 314.704 766.712 314.704 775.274 306.125Z" fill="#8DC8E8" fill-rule="evenodd"/><path d="M779.477 368 998.227 368 1000.15 368.384 998.831 370.322C998.427 371.264 998.204 372.3 998.204 373.388 998.204 377.737 1001.77 381.263 1006.18 381.263L1007 381.099 1007 411.333C1007 416.12 1003.07 420 998.227 420L776.773 420C771.928 420 768 416.12 768 411.333L768 378.28Z" fill="#037BD1" fill-rule="evenodd"/><text fill="#FFFFFF" font-family="Segoe Sans Text Semibold,Segoe Sans Text Semibold_MSFontService,sans-serif" font-weight="600" font-size="19" transform="translate(834.063 399)">Assessments</text><path d="M784.972 368.539 784.972 370.881 777.604 370.881 770.795 377.704 773.079 377.704 773.079 387.421 768.274 387.421 768.274 399.455 771.079 399.455 771.079 410.219C771.079 413.859 774.93 416.81 779.682 416.81L781.361 416.81 781.361 420.011 992.86 420.011 992.86 416.81 994.539 416.81C999.291 416.81 1003.14 413.859 1003.14 410.219L1003.14 399.455 1005.95 399.455 1005.95 381.877 1002.59 381.198C999.384 379.839 997.135 376.658 997.135 372.951 997.135 371.715 997.385 370.537 997.837 369.467L998.332 368.73 997.385 368.539 995.118 368.539 993.292 370.369 986.488 370.369 988.315 368.539 985.134 368.539 983.308 370.368 976.504 370.369 978.33 368.539 975.149 368.539 973.323 370.369 966.519 370.369 968.346 368.539 965.165 368.539 963.339 370.369 956.535 370.368 958.361 368.539 955.18 368.539 953.354 370.368 946.55 370.369 948.376 368.539 945.196 368.539 943.37 370.369 936.566 370.368 938.392 368.539ZM1006.2 365.758C1002.3 365.758 999.146 368.92 999.146 372.822 999.146 376.723 1002.3 379.886 1006.2 379.886 1010.09 379.886 1013.25 376.723 1013.25 372.822 1013.25 368.92 1010.09 365.758 1006.2 365.758ZM775.274 364 784.972 364 784.972 366.312 940.615 366.312 942.914 364.008 949.718 364.008 947.419 366.312 950.599 366.312 952.899 364.008 959.702 364.007 957.403 366.312 960.584 366.312 962.883 364.007 969.687 364.008 967.388 366.312 970.568 366.312 972.868 364.008 979.672 364.008 977.372 366.312 980.553 366.312 982.852 364.008 989.656 364.007 987.357 366.312 990.537 366.312 992.837 364.008 999.641 364.008 997.341 366.312 998.508 366.312 999.818 366.577 1002.59 364.703C1003.66 364.251 1004.83 364 1006.07 364 1011 364 1015 368.007 1015 372.951 1015 376.658 1012.75 379.839 1009.54 381.198L1007.81 381.548 1007.81 399.455 1012.22 399.455 1012.22 415.679C1012.22 420.827 1008.06 425 1002.92 425L992.86 425 992.86 422.238 781.361 422.238 781.361 425 771.303 425C766.165 425 762 420.827 762 415.679L762 399.455 766.411 399.455 766.411 387.421 766.212 387.421 766.212 377.704 766.712 377.704 775.274 369.125Z" fill="#8DC8E8" fill-rule="evenodd"/><path d="M779.477 430 998.227 430 1000.15 430.384 998.831 432.322C998.427 433.264 998.204 434.3 998.204 435.388 998.204 439.737 1001.77 443.263 1006.18 443.263L1007 443.099 1007 473.333C1007 478.12 1003.07 482 998.227 482L776.773 482C771.928 482 768 478.12 768 473.333L768 440.28Z" fill="#037BD1" fill-rule="evenodd"/><text fill="#FFFFFF" font-family="Segoe Sans Text Semibold,Segoe Sans Text Semibold_MSFontService,sans-serif" font-weight="600" font-size="19" transform="translate(855.396 452)">Advisor</text><text fill="#FFFFFF" font-family="Segoe Sans Text Semibold,Segoe Sans Text Semibold_MSFontService,sans-serif" font-weight="600" font-size="19" transform="translate(810.396 474)">recommendations</text><path d="M784.972 431.464 784.972 433.769 777.604 433.769 770.795 440.479 773.079 440.479 773.079 450.037 768.274 450.037 768.274 461.874 771.079 461.874 771.079 472.461C771.079 476.042 774.93 478.944 779.682 478.944L781.361 478.944 781.361 482.092 992.86 482.092 992.86 478.944 994.539 478.944C999.291 478.944 1003.14 476.042 1003.14 472.461L1003.14 461.874 1005.95 461.874 1005.95 444.584 1002.59 443.916C999.384 442.579 997.135 439.45 997.135 435.804 997.135 434.588 997.385 433.43 997.837 432.377L998.332 431.653 997.385 431.464 995.118 431.464 993.292 433.264 986.488 433.264 988.315 431.464 985.134 431.464 983.308 433.264 976.504 433.264 978.33 431.464 975.149 431.464 973.323 433.264 966.519 433.264 968.346 431.464 965.165 431.464 963.339 433.264 956.535 433.264 958.361 431.464 955.18 431.464 953.354 433.264 946.55 433.264 948.376 431.464 945.196 431.464 943.37 433.264 936.566 433.264 938.392 431.464ZM1006.2 428.729C1002.3 428.729 999.146 431.84 999.146 435.677 999.146 439.515 1002.3 442.625 1006.2 442.625 1010.09 442.625 1013.25 439.515 1013.25 435.677 1013.25 431.84 1010.09 428.729 1006.2 428.729ZM775.274 427 784.972 427 784.972 429.274 940.615 429.274 942.914 427.007 949.718 427.007 947.419 429.274 950.599 429.274 952.899 427.007 959.702 427.007 957.403 429.274 960.584 429.274 962.883 427.007 969.687 427.007 967.388 429.274 970.568 429.274 972.868 427.007 979.672 427.007 977.372 429.274 980.553 429.274 982.852 427.007 989.656 427.007 987.357 429.274 990.537 429.274 992.837 427.007 999.641 427.007 997.341 429.274 998.508 429.274 999.818 429.534 1002.59 427.692C1003.66 427.246 1004.83 427 1006.07 427 1011 427 1015 430.942 1015 435.804 1015 439.45 1012.75 442.579 1009.54 443.916L1007.81 444.261 1007.81 461.874 1012.22 461.874 1012.22 477.832C1012.22 482.895 1008.06 487 1002.92 487L992.86 487 992.86 484.283 781.361 484.283 781.361 487 771.303 487C766.165 487 762 482.895 762 477.832L762 461.874 766.411 461.874 766.411 450.037 766.212 450.037 766.212 440.479 766.712 440.479 775.274 432.041Z" fill="#8DC8E8" fill-rule="evenodd"/><path d="M779.477 493 998.227 493 1000.15 493.384 998.831 495.322C998.427 496.264 998.204 497.3 998.204 498.388 998.204 502.737 1001.77 506.263 1006.18 506.263L1007 506.099 1007 536.333C1007 541.12 1003.07 545 998.227 545L776.773 545C771.928 545 768 541.12 768 536.333L768 503.28Z" fill="#037BD1" fill-rule="evenodd"/><text fill="#FFFFFF" font-family="Segoe Sans Text Semibold,Segoe Sans Text Semibold_MSFontService,sans-serif" font-weight="600" font-size="19" transform="translate(825.729 525)">Service Guides</text><path d="M784.972 493.539 784.972 495.881 777.604 495.881 770.795 502.704 773.079 502.704 773.079 512.421 768.274 512.421 768.274 524.455 771.079 524.455 771.079 535.219C771.079 538.859 774.93 541.81 779.682 541.81L781.361 541.81 781.361 545.011 992.86 545.011 992.86 541.81 994.539 541.81C999.291 541.81 1003.14 538.859 1003.14 535.219L1003.14 524.455 1005.95 524.455 1005.95 506.877 1002.59 506.198C999.384 504.839 997.135 501.658 997.135 497.951 997.135 496.715 997.385 495.537 997.837 494.467L998.332 493.73 997.385 493.539 995.118 493.539 993.292 495.369 986.488 495.369 988.315 493.539 985.134 493.539 983.308 495.368 976.504 495.369 978.33 493.539 975.149 493.539 973.323 495.369 966.519 495.369 968.346 493.539 965.165 493.539 963.339 495.369 956.535 495.368 958.361 493.539 955.18 493.539 953.354 495.368 946.55 495.369 948.376 493.539 945.196 493.539 943.37 495.369 936.566 495.368 938.392 493.539ZM1006.2 490.758C1002.3 490.758 999.146 493.92 999.146 497.822 999.146 501.723 1002.3 504.886 1006.2 504.886 1010.09 504.886 1013.25 501.723 1013.25 497.822 1013.25 493.92 1010.09 490.758 1006.2 490.758ZM775.274 489 784.972 489 784.972 491.312 940.615 491.312 942.914 489.008 949.718 489.008 947.419 491.312 950.599 491.312 952.899 489.008 959.702 489.007 957.403 491.312 960.584 491.312 962.883 489.007 969.687 489.008 967.388 491.312 970.568 491.312 972.868 489.008 979.672 489.008 977.372 491.312 980.553 491.312 982.852 489.008 989.656 489.007 987.357 491.312 990.537 491.312 992.837 489.008 999.641 489.008 997.341 491.312 998.508 491.312 999.818 491.577 1002.59 489.703C1003.66 489.251 1004.83 489 1006.07 489 1011 489 1015 493.007 1015 497.951 1015 501.658 1012.75 504.839 1009.54 506.198L1007.81 506.548 1007.81 524.455 1012.22 524.455 1012.22 540.679C1012.22 545.827 1008.06 550 1002.92 550L992.86 550 992.86 547.238 781.361 547.238 781.361 550 771.303 550C766.165 550 762 545.827 762 540.679L762 524.455 766.411 524.455 766.411 512.421 766.212 512.421 766.212 502.704 766.712 502.704 775.274 494.125Z" fill="#8DC8E8" fill-rule="evenodd"/><path d="M308.093 14.3827 301.766 8.71813 308.548 8.71813 314.875 14.3827ZM288.189 14.3827 281.861 8.71813 288.643 8.71813 294.971 14.3827ZM258.331 14.3827 252.004 8.71824 258.786 8.71813 265.113 14.3827ZM248.272 14.3827 241.944 8.71813 248.726 8.71813 255.054 14.3827ZM228.367 14.3827 222.039 8.71813 228.821 8.71813 235.149 14.3827ZM198.51 14.3827 192.182 8.71824 198.964 8.71813 205.292 14.3827ZM304.923 14.3828 298.141 14.3827 291.813 8.71813 298.595 8.71824ZM278.236 14.3828 271.909 8.71824 278.69 8.71813 285.018 14.3827ZM275.066 14.3828 268.284 14.3827 261.956 8.71813 268.738 8.71824ZM245.101 14.3828 238.32 14.3827 231.992 8.71813 238.774 8.71824ZM218.415 14.3828 212.087 8.71824 218.869 8.71813 225.197 14.3827ZM215.244 14.3828 208.462 14.3827 202.134 8.71813 208.917 8.71824ZM304.095 40.0961C297.833 40.0961 292.756 35.5515 292.756 29.9456 292.756 24.3395 297.833 19.7951 304.095 19.7951L304.095 19.7876 315.317 19.7876 315.317 30.4637 314.543 33.8967C312.821 37.5397 308.792 40.0961 304.095 40.0961ZM304.095 388.212 304.095 388.205C297.833 388.205 292.756 383.66 292.756 378.054 292.756 372.448 297.833 367.904 304.095 367.904 308.792 367.904 312.821 370.46 314.543 374.103L315.317 377.536 315.317 388.212ZM32.7901 397.827C22.0972 397.827 12.9228 392.007 9.00387 383.713L8.08942 381.076 17.2146 381.076 17.2146 329.32 1.06623 329.32 1.06623 313.519 15.9508 313.519 15.9508 309.643 1.53238 309.643 1.53238 293.842 15.9508 293.842 15.9508 289.966 1.53238 289.966 1.53238 274.165 15.9508 274.165 15.9508 235.994 15.9508 172.006 15.9508 133.835 1.53238 133.835 1.53238 118.034 15.9508 118.034 15.9508 114.158 1.53238 114.158 1.53238 98.3571 15.9508 98.3571 15.9508 94.4814 1.06623 94.4814 1.06623 78.6802 17.2146 78.6802 17.2146 26.9243 8.08942 26.9243 9.00387 24.2872C12.9228 15.9928 22.0972 10.1729 32.7901 10.1729L112.832 10.1729 112.832 22.9518 129.637 22.9518 129.637 10.1729 131.33 10.1729 131.33 22.9518 148.136 22.9518 148.136 10.1729 149.828 10.1729 149.828 22.9517 166.634 22.9517 166.634 10.1729 168.327 10.1729 168.327 22.9516 185.132 22.9516 185.132 10.1729 188.518 10.1729 188.518 19.7876 294.488 19.7876 293.449 20.4149C290.724 22.8541 289.039 26.2237 289.039 29.9456 289.039 37.3894 295.78 43.4238 304.095 43.4238 308.253 43.4238 312.017 41.9153 314.741 39.4761L315.317 38.7118 315.317 140.321 315.317 267.679 315.317 369.288 314.741 368.524C312.017 366.085 308.253 364.576 304.095 364.576 295.78 364.576 289.039 370.611 289.039 378.054 289.039 381.776 290.724 385.146 293.449 387.585L294.488 388.212 188.518 388.212 188.518 397.827 185.132 397.827 185.132 385.048 168.327 385.048 168.327 397.827 166.634 397.827 166.634 385.048 149.828 385.048 149.828 397.827 148.136 397.827 148.136 385.048 131.33 385.048 131.33 397.827 129.637 397.827 129.637 385.048 112.832 385.048 112.832 397.827ZM301.766 399.282 308.093 393.617 314.875 393.617 308.548 399.282ZM291.813 399.282 298.141 393.617 304.923 393.617 298.595 399.282ZM281.861 399.282 288.189 393.617 294.971 393.617 288.643 399.282ZM278.69 399.282 271.909 399.282 278.236 393.617 285.018 393.617ZM261.956 399.282 268.284 393.617 275.066 393.617 268.738 399.282ZM258.786 399.282 252.004 399.282 258.331 393.617 265.113 393.617ZM241.944 399.282 248.272 393.617 255.054 393.617 248.726 399.282ZM231.992 399.282 238.32 393.617 245.101 393.617 238.774 399.282ZM222.039 399.282 228.367 393.617 235.149 393.617 228.821 399.282ZM218.869 399.282 212.087 399.282 218.415 393.617 225.197 393.617ZM202.134 399.282 208.462 393.617 215.244 393.617 208.917 399.282ZM198.964 399.282 192.182 399.282 198.51 393.617 205.292 393.617ZM168.327 408 185.132 408 185.132 402.964 188.518 402.964 188.518 405.165 315.317 405.165 315.317 408 333 408 333 408 323.409 408 323.409 267.679 323.409 140.321 323.409 0.000105112 333 0.000105112 333 0 315.317 0 315.317 2.83457 188.518 2.83457 188.518 5.03604 185.132 5.03604 185.132 0 168.327 0 168.327 5.03604 166.634 5.03604 166.634 0.000105112 149.828 0.000105112 149.828 5.03604 148.136 5.03604 148.136 0.000210225 131.33 0.000210225 131.33 5.03604 129.637 5.03604 129.637 0.000210225 112.832 0.000210225 112.832 5.03604 26.0984 5.03604C13.3077 5.03604 2.63616 13.158 0.168143 23.9551L0 25.4481 0 32.8401 10.1913 32.8401 0 43.1037 0 67.2749 14.3579 52.815 14.3579 76.9637 0 76.9637 0 140.321 0 146.756 13.2914 146.756 13.2914 267.559 0 267.559 0 267.679 0 331.036 14.3579 331.036 14.3579 355.185 0 340.725 0 364.896 10.1913 375.16 0 375.16 0 382.552 0.168143 384.045C2.63616 394.842 13.3077 402.964 26.0984 402.964L112.832 402.964 112.832 408 129.637 408 129.637 402.964 131.33 402.964 131.33 408 148.136 408 148.136 402.964 149.828 402.964 149.828 408 166.634 408 166.634 402.964 168.327 402.964Z" fill="#FFE399" fill-rule="evenodd" transform="matrix(1 -1.22465e-16 -1.22465e-16 -1 727 586)"/><path d="M771.5 103.046C771.5 97.7739 775.774 93.5001 781.046 93.5001L1001.95 93.5001C1007.23 93.5001 1011.5 97.7739 1011.5 103.046L1011.5 214.954C1011.5 220.226 1007.23 224.5 1001.95 224.5L781.046 224.5C775.774 224.5 771.5 220.226 771.5 214.954Z" stroke="#FFE399" stroke-width="2.66667" stroke-miterlimit="8" fill="#ADADAD" fill-rule="evenodd"/><text fill="#FFFFFF" font-family="Aptos,Aptos_MSFontService,sans-serif" font-weight="400" font-size="21" transform="translate(800.444 125)">Design principles</text><text fill="#FFFFFF" font-family="Aptos,Aptos_MSFontService,sans-serif" font-weight="400" font-size="21" transform="translate(800.444 150)">Checklists</text><text fill="#FFFFFF" font-family="Aptos,Aptos_MSFontService,sans-serif" font-weight="400" font-size="21" transform="translate(800.444 176)">Recommendations</text><text fill="#FFFFFF" font-family="Aptos,Aptos_MSFontService,sans-serif" font-weight="400" font-size="21" transform="translate(800.444 201)">Tradeoffs</text></g></svg>