<svg width="1280" height="720" xmlns="http://www.w3.org/2000/svg" xmlns:xlink="http://www.w3.org/1999/xlink" overflow="hidden"><defs><clipPath id="clip0"><rect x="0" y="0" width="1280" height="720"/></clipPath><radialGradient cx="1982964" cy="1982964" r="2804334" fx="1982964" fy="1982964" gradientUnits="userSpaceOnUse" spreadMethod="pad" id="fill1" gradientTransform="matrix(-2.03686e-05 -0.000102992 0.000102992 -2.03686e-05 58.7761 604.62)"><stop offset="0" stop-color="#F0F8FD" stop-opacity="0"/><stop offset="0.44" stop-color="#F0F8FD" stop-opacity="0"/><stop offset="0.66" stop-color="#E8E8E8"/><stop offset="0.83" stop-color="#E8E8E8"/><stop offset="1" stop-color="#D9D9D9"/></radialGradient><radialGradient cx="1138237" cy="1133475" r="1606347" fx="1138238" fy="1133475" gradientUnits="userSpaceOnUse" spreadMethod="pad" id="fill2" gradientTransform="matrix(0.000104987 0 0 0.000104987 103 241)"><stop offset="0" stop-color="#F0F8FD" stop-opacity="0"/><stop offset="0.52" stop-color="#F0F8FD" stop-opacity="0"/><stop offset="0.74" stop-color="#E97132"/><stop offset="0.97" stop-color="#C00000"/><stop offset="1" stop-color="#C00000"/></radialGradient><radialGradient cx="469482" cy="469482" r="663948" fx="469482" fy="469482" gradientUnits="userSpaceOnUse" spreadMethod="pad" id="fill3" gradientTransform="matrix(2.71726e-05 0.00010141 -0.00010141 2.71726e-05 392.922 573.26)"><stop offset="0" stop-color="#F0F8FD" stop-opacity="0"/><stop offset="0.52" stop-color="#F0F8FD" stop-opacity="0"/><stop offset="0.74" stop-color="#104862"/><stop offset="1" stop-color="#215F9A"/></radialGradient><radialGradient cx="469482" cy="469482" r="663948" fx="469482" fy="469482" gradientUnits="userSpaceOnUse" spreadMethod="pad" id="fill4" gradientTransform="matrix(2.71726e-05 0.00010141 -0.00010141 2.71726e-05 392.922 26.006)"><stop offset="0" stop-color="#F0F8FD" stop-opacity="0"/><stop offset="0.52" stop-color="#F0F8FD" stop-opacity="0"/><stop offset="0.74" stop-color="#3B7D23"/><stop offset="1" stop-color="#92D050"/></radialGradient><radialGradient cx="469482" cy="469482" r="663948" fx="469482" fy="469482" gradientUnits="userSpaceOnUse" spreadMethod="pad" id="fill5" gradientTransform="matrix(2.71726e-05 0.00010141 -0.00010141 2.71726e-05 532.171 136.617)"><stop offset="0" stop-color="#F0F8FD" stop-opacity="0"/><stop offset="0.52" stop-color="#F0F8FD" stop-opacity="0"/><stop offset="0.74" stop-color="#0070C0"/><stop offset="1" stop-color="#A2D8F0"/></radialGradient><radialGradient cx="469482" cy="469482" r="663948" fx="469482" fy="469482" gradientUnits="userSpaceOnUse" spreadMethod="pad" id="fill6" gradientTransform="matrix(2.71726e-05 0.00010141 -0.00010141 2.71726e-05 532.171 461.218)"><stop offset="0" stop-color="#F0F8FD" stop-opacity="0"/><stop offset="0.52" stop-color="#F0F8FD" stop-opacity="0"/><stop offset="0.74" stop-color="#262626"/><stop offset="1" stop-color="#D9D9D9"/></radialGradient><radialGradient cx="469482" cy="469482" r="663948" fx="469482" fy="469482" gradientUnits="userSpaceOnUse" spreadMethod="pad" id="fill7" gradientTransform="matrix(2.71726e-05 0.00010141 -0.00010141 2.71726e-05 583.471 299.633)"><stop offset="0" stop-color="#F0F8FD" stop-opacity="0"/><stop offset="0.52" stop-color="#F0F8FD" stop-opacity="0"/><stop offset="0.74" stop-color="#4C4EAE"/><stop offset="1" stop-color="#E59EDD"/></radialGradient></defs><g clip-path="url(#clip0)"><rect x="0" y="0" width="1280" height="720" fill="#22375A" fill-opacity="0"/><path d="M759.477 242 978.227 242 980.153 242.384 978.831 244.322C978.427 245.264 978.204 246.3 978.204 247.388 978.204 251.737 981.773 255.263 986.176 255.263L987 255.099 987 285.333C987 290.12 983.072 294 978.227 294L756.773 294C751.928 294 748 290.12 748 285.333L748 252.28Z" fill="#037BD1" fill-rule="evenodd"/><text fill="#FFFFFF" font-family="Segoe Sans Text Semibold,Segoe Sans Text Semibold_MSFontService,sans-serif" font-weight="600" font-size="19" transform="translate(795.063 274)">Workload design</text><path d="M764.972 243.464 764.972 245.769 757.604 245.769 750.795 252.479 753.079 252.479 753.079 262.037 748.274 262.037 748.274 273.874 751.079 273.874 751.079 284.461C751.079 288.042 754.93 290.944 759.682 290.944L761.361 290.944 761.361 294.092 972.86 294.092 972.86 290.944 974.539 290.944C979.291 290.944 983.142 288.042 983.142 284.461L983.142 273.874 985.947 273.874 985.947 256.584 982.59 255.916C979.384 254.579 977.135 251.45 977.135 247.804 977.135 246.588 977.385 245.43 977.837 244.377L978.332 243.653 977.385 243.464 975.118 243.464 973.292 245.264 966.488 245.264 968.315 243.464 965.134 243.464 963.308 245.264 956.504 245.264 958.33 243.464 955.149 243.464 953.323 245.264 946.519 245.264 948.346 243.464 945.165 243.464 943.339 245.264 936.535 245.264 938.361 243.464 935.18 243.464 933.354 245.264 926.55 245.264 928.376 243.464 925.196 243.464 923.37 245.264 916.566 245.264 918.392 243.464ZM986.196 240.729C982.303 240.729 979.146 243.84 979.146 247.677 979.146 251.515 982.303 254.625 986.196 254.625 990.09 254.625 993.246 251.515 993.246 247.677 993.246 243.84 990.09 240.729 986.196 240.729ZM755.274 239 764.972 239 764.972 241.274 920.615 241.274 922.914 239.007 929.718 239.007 927.419 241.274 930.599 241.274 932.899 239.007 939.702 239.007 937.403 241.274 940.584 241.274 942.883 239.007 949.687 239.007 947.388 241.274 950.568 241.274 952.868 239.007 959.672 239.007 957.372 241.274 960.553 241.274 962.852 239.007 969.656 239.007 967.357 241.274 970.537 241.274 972.837 239.007 979.641 239.007 977.341 241.274 978.508 241.274 979.818 241.534 982.59 239.692C983.659 239.246 984.834 239 986.067 239 991.001 239 995 242.942 995 247.804 995 251.45 992.75 254.579 989.544 255.916L987.81 256.261 987.81 273.874 992.221 273.874 992.221 289.832C992.221 294.895 988.056 299 982.919 299L972.86 299 972.86 296.283 761.361 296.283 761.361 299 751.303 299C746.165 299 742 294.895 742 289.832L742 273.874 746.411 273.874 746.411 262.037 746.212 262.037 746.212 252.479 746.712 252.479 755.274 244.041Z" fill="#8DC8E8" fill-rule="evenodd"/><path d="M759.477 305 978.227 305 980.153 305.384 978.831 307.322C978.427 308.264 978.204 309.3 978.204 310.388 978.204 314.737 981.773 318.263 986.176 318.263L987 318.099 987 348.333C987 353.12 983.072 357 978.227 357L756.773 357C751.928 357 748 353.12 748 348.333L748 315.28Z" fill="#037BD1" fill-rule="evenodd"/><text fill="#FFFFFF" font-family="Segoe Sans Text Semibold,Segoe Sans Text Semibold_MSFontService,sans-serif" font-weight="600" font-size="19" transform="translate(771.563 337)">Reference architecture</text><path d="M764.972 305.539 764.972 307.881 757.604 307.881 750.795 314.704 753.079 314.704 753.079 324.421 748.274 324.421 748.274 336.455 751.079 336.455 751.079 347.219C751.079 350.859 754.93 353.81 759.682 353.81L761.361 353.81 761.361 357.011 972.86 357.011 972.86 353.81 974.539 353.81C979.291 353.81 983.142 350.859 983.142 347.219L983.142 336.455 985.947 336.455 985.947 318.877 982.59 318.198C979.384 316.839 977.135 313.658 977.135 309.951 977.135 308.715 977.385 307.537 977.837 306.467L978.332 305.73 977.385 305.539 975.118 305.539 973.292 307.369 966.488 307.369 968.315 305.539 965.134 305.539 963.308 307.368 956.504 307.369 958.33 305.539 955.149 305.539 953.323 307.369 946.519 307.369 948.346 305.539 945.165 305.539 943.339 307.369 936.535 307.368 938.361 305.539 935.18 305.539 933.354 307.368 926.55 307.369 928.376 305.539 925.196 305.539 923.37 307.369 916.566 307.368 918.392 305.539ZM986.196 302.758C982.303 302.758 979.146 305.92 979.146 309.822 979.146 313.723 982.303 316.886 986.196 316.886 990.09 316.886 993.246 313.723 993.246 309.822 993.246 305.92 990.09 302.758 986.196 302.758ZM755.274 301 764.972 301 764.972 303.312 920.615 303.312 922.914 301.008 929.718 301.008 927.419 303.312 930.599 303.312 932.899 301.008 939.702 301.007 937.403 303.312 940.584 303.312 942.883 301.007 949.687 301.008 947.388 303.312 950.568 303.312 952.868 301.008 959.672 301.008 957.372 303.312 960.553 303.312 962.852 301.008 969.656 301.007 967.357 303.312 970.537 303.312 972.837 301.008 979.641 301.008 977.341 303.312 978.508 303.312 979.818 303.577 982.59 301.703C983.659 301.251 984.834 301 986.067 301 991.001 301 995 305.007 995 309.951 995 313.658 992.75 316.839 989.544 318.198L987.81 318.548 987.81 336.455 992.221 336.455 992.221 352.679C992.221 357.827 988.056 362 982.919 362L972.86 362 972.86 359.238 761.361 359.238 761.361 362 751.303 362C746.165 362 742 357.827 742 352.679L742 336.455 746.411 336.455 746.411 324.421 746.212 324.421 746.212 314.704 746.712 314.704 755.274 306.125Z" fill="#8DC8E8" fill-rule="evenodd"/><path d="M759.477 368 978.227 368 980.153 368.384 978.831 370.322C978.427 371.264 978.204 372.3 978.204 373.388 978.204 377.737 981.773 381.263 986.176 381.263L987 381.099 987 411.333C987 416.12 983.072 420 978.227 420L756.773 420C751.928 420 748 416.12 748 411.333L748 378.28Z" fill="#037BD1" fill-rule="evenodd"/><text fill="#FFFFFF" font-family="Segoe Sans Text Semibold,Segoe Sans Text Semibold_MSFontService,sans-serif" font-weight="600" font-size="19" transform="translate(814.063 399)">Assessments</text><path d="M764.972 368.539 764.972 370.881 757.604 370.881 750.795 377.704 753.079 377.704 753.079 387.421 748.274 387.421 748.274 399.455 751.079 399.455 751.079 410.219C751.079 413.859 754.93 416.81 759.682 416.81L761.361 416.81 761.361 420.011 972.86 420.011 972.86 416.81 974.539 416.81C979.291 416.81 983.142 413.859 983.142 410.219L983.142 399.455 985.947 399.455 985.947 381.877 982.59 381.198C979.384 379.839 977.135 376.658 977.135 372.951 977.135 371.715 977.385 370.537 977.837 369.467L978.332 368.73 977.385 368.539 975.118 368.539 973.292 370.369 966.488 370.369 968.315 368.539 965.134 368.539 963.308 370.368 956.504 370.369 958.33 368.539 955.149 368.539 953.323 370.369 946.519 370.369 948.346 368.539 945.165 368.539 943.339 370.369 936.535 370.368 938.361 368.539 935.18 368.539 933.354 370.368 926.55 370.369 928.376 368.539 925.196 368.539 923.37 370.369 916.566 370.368 918.392 368.539ZM986.196 365.758C982.303 365.758 979.146 368.92 979.146 372.822 979.146 376.723 982.303 379.886 986.196 379.886 990.09 379.886 993.246 376.723 993.246 372.822 993.246 368.92 990.09 365.758 986.196 365.758ZM755.274 364 764.972 364 764.972 366.312 920.615 366.312 922.914 364.008 929.718 364.008 927.419 366.312 930.599 366.312 932.899 364.008 939.702 364.007 937.403 366.312 940.584 366.312 942.883 364.007 949.687 364.008 947.388 366.312 950.568 366.312 952.868 364.008 959.672 364.008 957.372 366.312 960.553 366.312 962.852 364.008 969.656 364.007 967.357 366.312 970.537 366.312 972.837 364.008 979.641 364.008 977.341 366.312 978.508 366.312 979.818 366.577 982.59 364.703C983.659 364.251 984.834 364 986.067 364 991.001 364 995 368.007 995 372.951 995 376.658 992.75 379.839 989.544 381.198L987.81 381.548 987.81 399.455 992.221 399.455 992.221 415.679C992.221 420.827 988.056 425 982.919 425L972.86 425 972.86 422.238 761.361 422.238 761.361 425 751.303 425C746.165 425 742 420.827 742 415.679L742 399.455 746.411 399.455 746.411 387.421 746.212 387.421 746.212 377.704 746.712 377.704 755.274 369.125Z" fill="#8DC8E8" fill-rule="evenodd"/><path d="M759.477 430 978.227 430 980.153 430.384 978.831 432.322C978.427 433.264 978.204 434.3 978.204 435.388 978.204 439.737 981.773 443.263 986.176 443.263L987 443.099 987 473.333C987 478.12 983.072 482 978.227 482L756.773 482C751.928 482 748 478.12 748 473.333L748 440.28Z" fill="#037BD1" fill-rule="evenodd"/><text fill="#FFFFFF" font-family="Segoe Sans Text Semibold,Segoe Sans Text Semibold_MSFontService,sans-serif" font-weight="600" font-size="19" transform="translate(835.396 452)">Advisor</text><text fill="#FFFFFF" font-family="Segoe Sans Text Semibold,Segoe Sans Text Semibold_MSFontService,sans-serif" font-weight="600" font-size="19" transform="translate(790.396 474)">recommendations</text><path d="M764.972 431.464 764.972 433.769 757.604 433.769 750.795 440.479 753.079 440.479 753.079 450.037 748.274 450.037 748.274 461.874 751.079 461.874 751.079 472.461C751.079 476.042 754.93 478.944 759.682 478.944L761.361 478.944 761.361 482.092 972.86 482.092 972.86 478.944 974.539 478.944C979.291 478.944 983.142 476.042 983.142 472.461L983.142 461.874 985.947 461.874 985.947 444.584 982.59 443.916C979.384 442.579 977.135 439.45 977.135 435.804 977.135 434.588 977.385 433.43 977.837 432.377L978.332 431.653 977.385 431.464 975.118 431.464 973.292 433.264 966.488 433.264 968.315 431.464 965.134 431.464 963.308 433.264 956.504 433.264 958.33 431.464 955.149 431.464 953.323 433.264 946.519 433.264 948.346 431.464 945.165 431.464 943.339 433.264 936.535 433.264 938.361 431.464 935.18 431.464 933.354 433.264 926.55 433.264 928.376 431.464 925.196 431.464 923.37 433.264 916.566 433.264 918.392 431.464ZM986.196 428.729C982.303 428.729 979.146 431.84 979.146 435.677 979.146 439.515 982.303 442.625 986.196 442.625 990.09 442.625 993.246 439.515 993.246 435.677 993.246 431.84 990.09 428.729 986.196 428.729ZM755.274 427 764.972 427 764.972 429.274 920.615 429.274 922.914 427.007 929.718 427.007 927.419 429.274 930.599 429.274 932.899 427.007 939.702 427.007 937.403 429.274 940.584 429.274 942.883 427.007 949.687 427.007 947.388 429.274 950.568 429.274 952.868 427.007 959.672 427.007 957.372 429.274 960.553 429.274 962.852 427.007 969.656 427.007 967.357 429.274 970.537 429.274 972.837 427.007 979.641 427.007 977.341 429.274 978.508 429.274 979.818 429.534 982.59 427.692C983.659 427.246 984.834 427 986.067 427 991.001 427 995 430.942 995 435.804 995 439.45 992.75 442.579 989.544 443.916L987.81 444.261 987.81 461.874 992.221 461.874 992.221 477.832C992.221 482.895 988.056 487 982.919 487L972.86 487 972.86 484.283 761.361 484.283 761.361 487 751.303 487C746.165 487 742 482.895 742 477.832L742 461.874 746.411 461.874 746.411 450.037 746.212 450.037 746.212 440.479 746.712 440.479 755.274 432.041Z" fill="#8DC8E8" fill-rule="evenodd"/><path d="M759.477 493 978.227 493 980.153 493.384 978.831 495.322C978.427 496.264 978.204 497.3 978.204 498.388 978.204 502.737 981.773 506.263 986.176 506.263L987 506.099 987 536.333C987 541.12 983.072 545 978.227 545L756.773 545C751.928 545 748 541.12 748 536.333L748 503.28Z" fill="#037BD1" fill-rule="evenodd"/><text fill="#FFFFFF" font-family="Segoe Sans Text Semibold,Segoe Sans Text Semibold_MSFontService,sans-serif" font-weight="600" font-size="19" transform="translate(805.729 525)">Service Guides</text><path d="M764.972 493.539 764.972 495.881 757.604 495.881 750.795 502.704 753.079 502.704 753.079 512.421 748.274 512.421 748.274 524.455 751.079 524.455 751.079 535.219C751.079 538.859 754.93 541.81 759.682 541.81L761.361 541.81 761.361 545.011 972.86 545.011 972.86 541.81 974.539 541.81C979.291 541.81 983.142 538.859 983.142 535.219L983.142 524.455 985.947 524.455 985.947 506.877 982.59 506.198C979.384 504.839 977.135 501.658 977.135 497.951 977.135 496.715 977.385 495.537 977.837 494.467L978.332 493.73 977.385 493.539 975.118 493.539 973.292 495.369 966.488 495.369 968.315 493.539 965.134 493.539 963.308 495.368 956.504 495.369 958.33 493.539 955.149 493.539 953.323 495.369 946.519 495.369 948.346 493.539 945.165 493.539 943.339 495.369 936.535 495.368 938.361 493.539 935.18 493.539 933.354 495.368 926.55 495.369 928.376 493.539 925.196 493.539 923.37 495.369 916.566 495.368 918.392 493.539ZM986.196 490.758C982.303 490.758 979.146 493.92 979.146 497.822 979.146 501.723 982.303 504.886 986.196 504.886 990.09 504.886 993.246 501.723 993.246 497.822 993.246 493.92 990.09 490.758 986.196 490.758ZM755.274 489 764.972 489 764.972 491.312 920.615 491.312 922.914 489.008 929.718 489.008 927.419 491.312 930.599 491.312 932.899 489.008 939.702 489.007 937.403 491.312 940.584 491.312 942.883 489.007 949.687 489.008 947.388 491.312 950.568 491.312 952.868 489.008 959.672 489.008 957.372 491.312 960.553 491.312 962.852 489.008 969.656 489.007 967.357 491.312 970.537 491.312 972.837 489.008 979.641 489.008 977.341 491.312 978.508 491.312 979.818 491.577 982.59 489.703C983.659 489.251 984.834 489 986.067 489 991.001 489 995 493.007 995 497.951 995 501.658 992.75 504.839 989.544 506.198L987.81 506.548 987.81 524.455 992.221 524.455 992.221 540.679C992.221 545.827 988.056 550 982.919 550L972.86 550 972.86 547.238 761.361 547.238 761.361 550 751.303 550C746.165 550 742 545.827 742 540.679L742 524.455 746.411 524.455 746.411 512.421 746.212 512.421 746.212 502.704 746.712 502.704 755.274 494.125Z" fill="#8DC8E8" fill-rule="evenodd"/><path d="M308.093 14.3827 301.766 8.71813 308.548 8.71813 314.875 14.3827ZM288.189 14.3827 281.861 8.71813 288.643 8.71813 294.971 14.3827ZM258.331 14.3827 252.004 8.71824 258.786 8.71813 265.113 14.3827ZM248.272 14.3827 241.944 8.71813 248.726 8.71813 255.054 14.3827ZM228.367 14.3827 222.039 8.71813 228.821 8.71813 235.149 14.3827ZM198.51 14.3827 192.182 8.71824 198.964 8.71813 205.292 14.3827ZM304.923 14.3828 298.141 14.3827 291.813 8.71813 298.595 8.71824ZM278.236 14.3828 271.909 8.71824 278.69 8.71813 285.018 14.3827ZM275.066 14.3828 268.284 14.3827 261.956 8.71813 268.738 8.71824ZM245.101 14.3828 238.32 14.3827 231.992 8.71813 238.774 8.71824ZM218.415 14.3828 212.087 8.71824 218.869 8.71813 225.197 14.3827ZM215.244 14.3828 208.462 14.3827 202.134 8.71813 208.917 8.71824ZM304.095 40.0961C297.833 40.0961 292.756 35.5515 292.756 29.9456 292.756 24.3395 297.833 19.7951 304.095 19.7951L304.095 19.7876 315.317 19.7876 315.317 30.4637 314.543 33.8967C312.821 37.5397 308.792 40.0961 304.095 40.0961ZM304.095 388.212 304.095 388.205C297.833 388.205 292.756 383.66 292.756 378.054 292.756 372.448 297.833 367.904 304.095 367.904 308.792 367.904 312.821 370.46 314.543 374.103L315.317 377.536 315.317 388.212ZM32.7901 397.827C22.0972 397.827 12.9228 392.007 9.00387 383.713L8.08942 381.076 17.2146 381.076 17.2146 329.32 1.06623 329.32 1.06623 313.519 15.9508 313.519 15.9508 309.643 1.53238 309.643 1.53238 293.842 15.9508 293.842 15.9508 289.966 1.53238 289.966 1.53238 274.165 15.9508 274.165 15.9508 235.994 15.9508 172.006 15.9508 133.835 1.53238 133.835 1.53238 118.034 15.9508 118.034 15.9508 114.158 1.53238 114.158 1.53238 98.3571 15.9508 98.3571 15.9508 94.4814 1.06623 94.4814 1.06623 78.6802 17.2146 78.6802 17.2146 26.9243 8.08942 26.9243 9.00387 24.2872C12.9228 15.9928 22.0972 10.1729 32.7901 10.1729L112.832 10.1729 112.832 22.9518 129.637 22.9518 129.637 10.1729 131.33 10.1729 131.33 22.9518 148.136 22.9518 148.136 10.1729 149.828 10.1729 149.828 22.9517 166.634 22.9517 166.634 10.1729 168.327 10.1729 168.327 22.9516 185.132 22.9516 185.132 10.1729 188.518 10.1729 188.518 19.7876 294.488 19.7876 293.449 20.4149C290.724 22.8541 289.039 26.2237 289.039 29.9456 289.039 37.3894 295.78 43.4238 304.095 43.4238 308.253 43.4238 312.017 41.9153 314.741 39.4761L315.317 38.7118 315.317 140.321 315.317 267.679 315.317 369.288 314.741 368.524C312.017 366.085 308.253 364.576 304.095 364.576 295.78 364.576 289.039 370.611 289.039 378.054 289.039 381.776 290.724 385.146 293.449 387.585L294.488 388.212 188.518 388.212 188.518 397.827 185.132 397.827 185.132 385.048 168.327 385.048 168.327 397.827 166.634 397.827 166.634 385.048 149.828 385.048 149.828 397.827 148.136 397.827 148.136 385.048 131.33 385.048 131.33 397.827 129.637 397.827 129.637 385.048 112.832 385.048 112.832 397.827ZM301.766 399.282 308.093 393.617 314.875 393.617 308.548 399.282ZM291.813 399.282 298.141 393.617 304.923 393.617 298.595 399.282ZM281.861 399.282 288.189 393.617 294.971 393.617 288.643 399.282ZM278.69 399.282 271.909 399.282 278.236 393.617 285.018 393.617ZM261.956 399.282 268.284 393.617 275.066 393.617 268.738 399.282ZM258.786 399.282 252.004 399.282 258.331 393.617 265.113 393.617ZM241.944 399.282 248.272 393.617 255.054 393.617 248.726 399.282ZM231.992 399.282 238.32 393.617 245.101 393.617 238.774 399.282ZM222.039 399.282 228.367 393.617 235.149 393.617 228.821 399.282ZM218.869 399.282 212.087 399.282 218.415 393.617 225.197 393.617ZM202.134 399.282 208.462 393.617 215.244 393.617 208.917 399.282ZM198.964 399.282 192.182 399.282 198.51 393.617 205.292 393.617ZM168.327 408 185.132 408 185.132 402.964 188.518 402.964 188.518 405.165 315.317 405.165 315.317 408 333 408 333 408 323.409 408 323.409 267.679 323.409 140.321 323.409 0.000105112 333 0.000105112 333 0 315.317 0 315.317 2.83457 188.518 2.83457 188.518 5.03604 185.132 5.03604 185.132 0 168.327 0 168.327 5.03604 166.634 5.03604 166.634 0.000105112 149.828 0.000105112 149.828 5.03604 148.136 5.03604 148.136 0.000210225 131.33 0.000210225 131.33 5.03604 129.637 5.03604 129.637 0.000210225 112.832 0.000210225 112.832 5.03604 26.0984 5.03604C13.3077 5.03604 2.63616 13.158 0.168143 23.9551L0 25.4481 0 32.8401 10.1913 32.8401 0 43.1037 0 67.2749 14.3579 52.815 14.3579 76.9637 0 76.9637 0 140.321 0 146.756 13.2914 146.756 13.2914 267.559 0 267.559 0 267.679 0 331.036 14.3579 331.036 14.3579 355.185 0 340.725 0 364.896 10.1913 375.16 0 375.16 0 382.552 0.168143 384.045C2.63616 394.842 13.3077 402.964 26.0984 402.964L112.832 402.964 112.832 408 129.637 408 129.637 402.964 131.33 402.964 131.33 408 148.136 408 148.136 402.964 149.828 402.964 149.828 408 166.634 408 166.634 402.964 168.327 402.964Z" fill="#FFE399" fill-rule="evenodd" transform="matrix(1 -1.22465e-16 -1.22465e-16 -1 707 586)"/><path d="M751.5 103.046C751.5 97.7739 755.774 93.5001 761.046 93.5001L981.954 93.5001C987.226 93.5001 991.5 97.7739 991.5 103.046L991.5 214.954C991.5 220.226 987.226 224.5 981.954 224.5L761.046 224.5C755.774 224.5 751.5 220.226 751.5 214.954Z" stroke="#FFE399" stroke-width="2.66667" stroke-miterlimit="8" fill="#ADADAD" fill-rule="evenodd"/><text fill="#FFFFFF" font-family="Aptos,Aptos_MSFontService,sans-serif" font-weight="400" font-size="21" transform="translate(780.444 125)">Design principles</text><text fill="#FFFFFF" font-family="Aptos,Aptos_MSFontService,sans-serif" font-weight="400" font-size="21" transform="translate(780.444 150)">Checklists</text><text fill="#FFFFFF" font-family="Aptos,Aptos_MSFontService,sans-serif" font-weight="400" font-size="21" transform="translate(780.444 176)">Recommendations</text><text fill="#FFFFFF" font-family="Aptos,Aptos_MSFontService,sans-serif" font-weight="400" font-size="21" transform="translate(780.444 201)">Tradeoffs</text><path d="M292 0 270.857 0.931538C211.106 6.22102 156.581 29.6277 112.848 65.603L97.8236 79.2141 91.675 73.5333 77.1884 88.2599C28.9672 142.245 0 211.456 0 286.917 0 373.159 37.8347 451.236 99.005 507.752L107.07 514.525 112.186 509.798 112.848 510.397C156.581 546.373 211.106 569.779 270.857 575.069L292 576 292 569.607 271.432 568.701C213.006 563.529 159.691 540.641 116.928 505.464L116.902 505.441 121.779 500.935 113.714 494.163C56.3079 441.124 20.8015 367.851 20.8015 286.917 20.8015 216.1 47.9861 151.148 93.2398 100.485L106.384 87.1232 102.54 83.5712 116.928 70.5364C159.691 35.3589 213.006 12.4715 271.432 7.29928L292 6.39313Z" fill="#E8E8E8" fill-rule="evenodd" fill-opacity="0.501961" transform="matrix(-1 0 0 1 561 72)"/><path d="M103 360C103 294.278 156.502 241 222.5 241 288.498 241 342 294.278 342 360 342 425.722 288.498 479 222.5 479 156.502 479 103 425.722 103 360Z" fill="#FFFFFF" fill-rule="evenodd"/><path d="M263.006 564.23 247.738 487.031C317.895 473.156 363.521 405.035 349.646 334.877L426.845 319.61C449.152 432.403 375.798 541.923 263.006 564.23ZM18.386 400.39C-3.92087 287.597 69.4325 178.077 182.225 155.771L197.493 232.969C127.336 246.844 81.7098 314.966 95.5847 385.123Z" fill="url(#fill1)" fill-rule="evenodd"/><path d="M91.2854 435.624 111.509 423.948 111.588 424.102C146.99 485.421 225.399 506.431 286.718 471.028L298.394 491.251C225.906 533.102 133.215 508.266 91.3645 435.778ZM146.838 228.749C219.326 186.898 312.016 211.734 353.867 284.222L333.644 295.898C298.241 234.579 219.833 213.57 158.514 248.972Z" fill="#E8E8E8" fill-rule="evenodd"/><path d="M136.244 479.846 148.818 472.586 152.132 474.845C174.363 488.461 200.173 495.377 226.233 494.7L230.233 494.401 237.493 506.976 226.585 507.792C197.992 508.534 169.673 500.946 145.282 486.007ZM207.738 213.025 218.646 212.209C247.239 211.466 275.558 219.054 299.949 233.994L308.987 240.154 296.413 247.414 293.099 245.155C270.868 231.539 245.058 224.623 218.998 225.3L214.998 225.599Z" fill="#AEAEAE" fill-rule="evenodd"/><path d="M179.238 3.85971C220.498 3.85971 258.339 18.44 287.856 42.7115L296.81 50.8202 294.748 52.7254 302.686 60.7922C330.018 91.379 346.437 130.592 346.437 173.346 346.437 222.208 324.992 266.445 290.32 298.466L285.449 302.554 288.136 305.035 287.856 305.289C258.339 329.56 220.498 344.14 179.238 344.14 137.979 344.14 100.138 329.56 70.6205 305.289L70.6052 305.275 73.5506 302.554 68.6795 298.466C34.0081 266.445 12.5634 222.208 12.5634 173.346 12.5634 130.592 28.982 91.379 56.3138 60.7922L64.2524 52.7254 61.9305 50.5809 70.6205 42.7115C100.138 18.44 137.979 3.85971 179.238 3.85971ZM179.238 0C137.043 0 98.343 14.911 68.1564 39.7331L59.0823 47.9504 55.3687 44.5208 46.6192 53.4116C17.4952 86.0041 0 127.788 0 173.346 0 225.413 22.8509 272.55 59.7958 306.67L64.6669 310.759 67.757 307.905 68.1564 308.267C98.343 333.089 137.043 348 179.238 348 221.434 348 260.134 333.089 290.32 308.267L290.984 307.666 294.333 310.759 299.204 306.67C336.149 272.55 359 225.413 359 173.346 359 127.788 341.505 86.0041 312.381 53.4116L303.631 44.5208 299.659 48.1897 290.32 39.7331C260.134 14.911 221.434 0 179.238 0Z" fill="#E8E8E8" fill-rule="evenodd" transform="matrix(-1 0 0 1 402 186)"/><path d="M103 360C103 294.278 156.502 241 222.5 241 288.498 241 342 294.278 342 360 342 425.722 288.498 479 222.5 479 156.502 479 103 425.722 103 360Z" fill="url(#fill2)" fill-rule="evenodd"/><text font-family="Segoe Sans Text Semibold,Segoe Sans Text Semibold_MSFontService,sans-serif" font-weight="600" font-size="28" transform="translate(188.612 338)">Well</text><text font-family="Segoe Sans Text Semibold,Segoe Sans Text Semibold_MSFontService,sans-serif" font-weight="600" font-size="28" transform="translate(245.279 338)">-</text><text font-family="Segoe Sans Text Semibold,Segoe Sans Text Semibold_MSFontService,sans-serif" font-weight="600" font-size="28" transform="translate(149.532 371)">Architected</text><text font-family="Segoe Sans Text Semibold,Segoe Sans Text Semibold_MSFontService,sans-serif" font-weight="600" font-size="28" transform="translate(151.366 405)">Framework</text><path d="M345.312 586.017C371.606 578.972 398.634 594.576 405.679 620.87 412.725 647.164 397.12 674.192 370.826 681.237 344.532 688.283 317.505 672.678 310.459 646.384 303.414 620.09 319.018 593.063 345.312 586.017Z" fill="#FFFFFF" fill-rule="evenodd"/><path d="M73.8681 1.59645C90.872 1.59645 106.467 7.62712 118.632 17.6662L122.322 21.0202 121.472 21.8082 124.744 25.1448C136.008 37.796 142.774 54.0152 142.774 71.6992 142.774 91.9095 133.936 110.207 119.648 123.451L117.64 125.142 118.747 126.168 118.632 126.273C106.467 136.312 90.872 142.343 73.8681 142.343 56.8643 142.343 41.2689 136.312 29.1043 126.273L29.098 126.267 30.3118 125.142 28.3044 123.451C14.0155 110.207 5.17767 91.9095 5.17767 71.6992 5.17767 54.0152 11.9441 37.796 23.2082 25.1448L26.4799 21.8082 25.5229 20.9212 29.1043 17.6662C41.2689 7.62712 56.8643 1.59645 73.8681 1.59645ZM73.8681 0C56.4785 0 40.5294 6.16748 28.0888 16.4343L24.3491 19.8332 22.8187 18.4146 19.2128 22.092C7.21017 35.5729 0 52.8555 0 71.6992 0 93.2348 9.41736 112.732 24.6432 126.844L26.6507 128.536 27.9242 127.355 28.0888 127.505C40.5294 137.772 56.4785 143.939 73.8681 143.939 91.2578 143.939 107.207 137.772 119.647 127.505L119.921 127.256 121.301 128.536 123.309 126.844C138.535 112.732 147.952 93.2348 147.952 71.6992 147.952 52.8555 140.742 35.5729 128.739 22.092L125.133 18.4146 123.496 19.9322 119.647 16.4343C107.207 6.16748 91.2578 0 73.8681 0Z" fill="#E8E8E8" fill-rule="evenodd" transform="matrix(-0.258819 -0.965926 -0.965926 0.258819 446.733 686.455)"/><path d="M345.312 586.017C371.606 578.972 398.634 594.576 405.679 620.87 412.725 647.164 397.12 674.192 370.826 681.237 344.532 688.283 317.505 672.678 310.459 646.384 303.414 620.09 319.018 593.063 345.312 586.017Z" fill="url(#fill3)" fill-rule="evenodd"/><text font-family="Segoe Sans Text Semibold,Segoe Sans Text Semibold_MSFontService,sans-serif" font-weight="600" font-size="15" transform="translate(315.139 633)">Performance</text><text font-family="Segoe Sans Text Semibold,Segoe Sans Text Semibold_MSFontService,sans-serif" font-weight="600" font-size="15" transform="translate(326.219 651)">Efficiency</text><path d="M345.312 38.763C371.606 31.7174 398.634 47.3216 405.679 73.6159 412.725 99.9101 397.12 126.937 370.826 133.983 344.532 141.028 317.505 125.424 310.459 99.13 303.414 72.8357 319.018 45.8085 345.312 38.763Z" fill="#FFFFFF" fill-rule="evenodd"/><path d="M73.8681 1.59645C90.872 1.59645 106.467 7.62712 118.632 17.6662L122.322 21.0202 121.472 21.8082 124.744 25.1448C136.008 37.796 142.774 54.0152 142.774 71.6992 142.774 91.9095 133.936 110.207 119.648 123.451L117.64 125.142 118.747 126.168 118.632 126.273C106.467 136.312 90.872 142.343 73.8681 142.343 56.8643 142.343 41.2689 136.312 29.1043 126.273L29.098 126.267 30.3118 125.142 28.3044 123.451C14.0155 110.207 5.17767 91.9095 5.17767 71.6992 5.17767 54.0152 11.9441 37.796 23.2082 25.1448L26.4799 21.8082 25.5229 20.9212 29.1043 17.6662C41.2689 7.62712 56.8643 1.59645 73.8681 1.59645ZM73.8681 0C56.4785 0 40.5294 6.16748 28.0888 16.4343L24.3491 19.8332 22.8187 18.4146 19.2128 22.092C7.21017 35.5729 0 52.8555 0 71.6992 0 93.2348 9.41736 112.732 24.6432 126.844L26.6507 128.536 27.9242 127.355 28.0888 127.505C40.5294 137.772 56.4785 143.939 73.8681 143.939 91.2578 143.939 107.207 137.772 119.647 127.505L119.921 127.256 121.301 128.536 123.309 126.844C138.535 112.732 147.952 93.2348 147.952 71.6992 147.952 52.8555 140.742 35.5729 128.739 22.092L125.133 18.4146 123.496 19.9322 119.647 16.4343C107.207 6.16748 91.2578 0 73.8681 0Z" fill="#E8E8E8" fill-rule="evenodd" transform="matrix(-0.258819 -0.965926 -0.965926 0.258819 446.733 139.201)"/><path d="M345.312 38.7631C371.606 31.7175 398.634 47.3217 405.679 73.616 412.725 99.9102 397.12 126.937 370.826 133.983 344.532 141.029 317.505 125.424 310.459 99.1301 303.414 72.8358 319.018 45.8086 345.312 38.7631Z" fill="url(#fill4)" fill-rule="evenodd"/><text font-family="Segoe Sans Text Semibold,Segoe Sans Text Semibold_MSFontService,sans-serif" font-weight="600" font-size="15" transform="translate(343.233 77)">Cost</text><text font-family="Segoe Sans Text Semibold,Segoe Sans Text Semibold_MSFontService,sans-serif" font-weight="600" font-size="15" transform="translate(314.486 95)">Optimization</text><path d="M484.561 149.153C510.855 142.108 537.883 157.712 544.928 184.006 551.974 210.301 536.37 237.328 510.075 244.373 483.781 251.419 456.754 235.815 449.708 209.52 442.663 183.226 458.267 156.199 484.561 149.153Z" fill="#FFFFFF" fill-rule="evenodd"/><path d="M73.8681 1.59645C90.872 1.59645 106.467 7.62712 118.632 17.6662L122.322 21.0202 121.472 21.8082 124.744 25.1448C136.008 37.796 142.774 54.0152 142.774 71.6992 142.774 91.9095 133.936 110.207 119.648 123.451L117.64 125.142 118.747 126.168 118.632 126.273C106.467 136.312 90.872 142.343 73.8681 142.343 56.8643 142.343 41.2689 136.312 29.1043 126.273L29.098 126.267 30.3118 125.142 28.3044 123.451C14.0155 110.207 5.17767 91.9095 5.17767 71.6992 5.17767 54.0152 11.9441 37.796 23.2082 25.1448L26.4799 21.8082 25.5229 20.9212 29.1043 17.6662C41.2689 7.62712 56.8643 1.59645 73.8681 1.59645ZM73.8681 0C56.4785 0 40.5294 6.16748 28.0888 16.4343L24.3491 19.8332 22.8187 18.4146 19.2128 22.092C7.21017 35.5729 0 52.8555 0 71.6992 0 93.2348 9.41736 112.732 24.6432 126.844L26.6507 128.536 27.9242 127.355 28.0888 127.505C40.5294 137.772 56.4785 143.939 73.8681 143.939 91.2578 143.939 107.207 137.772 119.647 127.505L119.921 127.256 121.301 128.536 123.309 126.844C138.535 112.732 147.952 93.2348 147.952 71.6992 147.952 52.8555 140.742 35.5729 128.739 22.092L125.133 18.4146 123.496 19.9322 119.647 16.4343C107.207 6.16748 91.2578 0 73.8681 0Z" fill="#E8E8E8" fill-rule="evenodd" transform="matrix(-0.258819 -0.965926 -0.965926 0.258819 585.982 249.812)"/><path d="M484.561 149.374C510.856 142.328 537.883 157.932 544.928 184.227 551.974 210.521 536.37 237.548 510.076 244.594 483.781 251.639 456.754 236.035 449.709 209.741 442.663 183.447 458.267 156.419 484.561 149.374Z" fill="url(#fill5)" fill-rule="evenodd"/><text font-family="Segoe Sans Text Semibold,Segoe Sans Text Semibold_MSFontService,sans-serif" font-weight="600" font-size="15" transform="translate(470.569 202)">Security</text><path d="M484.561 473.755C510.855 466.709 537.883 482.313 544.928 508.608 551.974 534.902 536.369 561.929 510.075 568.975 483.781 576.02 456.754 560.416 449.708 534.122 442.663 507.828 458.267 480.8 484.561 473.755Z" fill="#FFFFFF" fill-rule="evenodd"/><path d="M73.8681 1.59645C90.872 1.59645 106.467 7.62712 118.632 17.6662L122.322 21.0202 121.472 21.8082 124.744 25.1448C136.008 37.796 142.774 54.0152 142.774 71.6992 142.774 91.9095 133.936 110.207 119.648 123.451L117.64 125.142 118.747 126.168 118.632 126.273C106.467 136.312 90.872 142.343 73.8681 142.343 56.8643 142.343 41.2689 136.312 29.1043 126.273L29.098 126.267 30.3118 125.142 28.3044 123.451C14.0155 110.207 5.17767 91.9095 5.17767 71.6992 5.17767 54.0152 11.9441 37.796 23.2082 25.1448L26.4799 21.8082 25.5229 20.9212 29.1043 17.6662C41.2689 7.62712 56.8643 1.59645 73.8681 1.59645ZM73.8681 0C56.4785 0 40.5294 6.16748 28.0888 16.4343L24.3491 19.8332 22.8187 18.4146 19.2128 22.092C7.21017 35.5729 0 52.8555 0 71.6992 0 93.2348 9.41736 112.732 24.6432 126.844L26.6507 128.536 27.9242 127.355 28.0888 127.505C40.5294 137.772 56.4785 143.939 73.8681 143.939 91.2578 143.939 107.207 137.772 119.647 127.505L119.921 127.256 121.301 128.536 123.309 126.844C138.535 112.732 147.952 93.2348 147.952 71.6992 147.952 52.8555 140.742 35.5729 128.739 22.092L125.133 18.4146 123.496 19.9322 119.647 16.4343C107.207 6.16748 91.2578 0 73.8681 0Z" fill="#E8E8E8" fill-rule="evenodd" transform="matrix(-0.258819 -0.965926 -0.965926 0.258819 585.982 574.413)"/><path d="M484.561 473.975C510.855 466.93 537.883 482.534 544.928 508.828 551.974 535.122 536.37 562.15 510.075 569.195 483.781 576.241 456.754 560.636 449.708 534.342 442.663 508.048 458.267 481.021 484.561 473.975Z" fill="url(#fill6)" fill-rule="evenodd"/><text font-family="Segoe Sans Text Semibold,Segoe Sans Text Semibold_MSFontService,sans-serif" font-weight="600" font-size="15" transform="translate(457.735 518)">Operational</text><text font-family="Segoe Sans Text Semibold,Segoe Sans Text Semibold_MSFontService,sans-serif" font-weight="600" font-size="15" transform="translate(463.068 536)">Excellence</text><path d="M535.861 312.39C562.156 305.345 589.183 320.949 596.228 347.243 603.274 373.537 587.67 400.565 561.375 407.61 535.081 414.656 508.054 399.051 501.008 372.757 493.963 346.463 509.567 319.436 535.861 312.39Z" fill="#FFFFFF" fill-rule="evenodd"/><path d="M73.8681 1.59645C90.872 1.59645 106.467 7.62712 118.632 17.6662L122.322 21.0202 121.472 21.8082 124.744 25.1448C136.008 37.796 142.774 54.0152 142.774 71.6992 142.774 91.9095 133.936 110.207 119.648 123.451L117.64 125.142 118.747 126.168 118.632 126.273C106.467 136.312 90.872 142.343 73.8681 142.343 56.8643 142.343 41.2689 136.312 29.1043 126.273L29.098 126.267 30.3118 125.142 28.3044 123.451C14.0155 110.207 5.17767 91.9095 5.17767 71.6992 5.17767 54.0152 11.9441 37.796 23.2082 25.1448L26.4799 21.8082 25.5229 20.9212 29.1043 17.6662C41.2689 7.62712 56.8643 1.59645 73.8681 1.59645ZM73.8681 0C56.4785 0 40.5294 6.16748 28.0888 16.4343L24.3491 19.8332 22.8187 18.4146 19.2128 22.092C7.21017 35.5729 0 52.8555 0 71.6992 0 93.2348 9.41736 112.732 24.6432 126.844L26.6507 128.536 27.9242 127.355 28.0888 127.505C40.5294 137.772 56.4785 143.939 73.8681 143.939 91.2578 143.939 107.207 137.772 119.647 127.505L119.921 127.256 121.301 128.536 123.309 126.844C138.535 112.732 147.952 93.2348 147.952 71.6992 147.952 52.8555 140.742 35.5729 128.739 22.092L125.133 18.4146 123.496 19.9322 119.647 16.4343C107.207 6.16748 91.2578 0 73.8681 0Z" fill="#E8E8E8" fill-rule="evenodd" transform="matrix(-0.258819 -0.965926 -0.965926 0.258819 637.282 412.828)"/><path d="M535.861 312.39C562.156 305.345 589.183 320.949 596.228 347.243 603.274 373.537 587.67 400.565 561.375 407.61 535.081 414.656 508.054 399.051 501.008 372.757 493.963 346.463 509.567 319.436 535.861 312.39Z" fill="url(#fill7)" fill-rule="evenodd"/><text font-family="Segoe Sans Text Semibold,Segoe Sans Text Semibold_MSFontService,sans-serif" font-weight="600" font-size="15" transform="translate(515.868 365)">Reliability</text></g></svg>