<?xml version="1.0" encoding="utf-8"?>
<!-- Generator: Adobe Illustrator 28.1.0, SVG Export Plug-In . SVG Version: 6.00 Build 0)  -->
<svg version="1.1" xmlns="http://www.w3.org/2000/svg" xmlns:xlink="http://www.w3.org/1999/xlink" x="0px" y="0px"
	 viewBox="0 0 1046.136 117.217" enable-background="new 0 0 1046.136 117.217" xml:space="preserve">
<symbol  id="PIPELINE" viewBox="-32 -12.266 64 24.531">
	<linearGradient id="SVGID_1_" gradientUnits="userSpaceOnUse" x1="0" y1="-12.2655" x2="1.502093e-15" y2="12.2655">
		<stop  offset="0" style="stop-color:#1B89B2"/>
		<stop  offset="1" style="stop-color:#51C8E8"/>
	</linearGradient>
	<path fill="url(#SVGID_1_)" d="M26.096,12.266h-51.448v0h0C-29.08,12.265-32,6.878-32,0s2.92-12.265,6.648-12.265h0v0h51.448
		C29.356-12.266,32-6.363,32,0S29.356,12.266,26.096,12.266z"/>
	<g>
		
			<linearGradient id="SVGID_00000069387697411711414560000004472953078872805041_" gradientUnits="userSpaceOnUse" x1="-31.461" y1="-6.1136" x2="-19.2338" y2="6.1136">
			<stop  offset="0" style="stop-color:#B3B4B4"/>
			<stop  offset="1" style="stop-color:#4F4F4F"/>
		</linearGradient>
		<ellipse fill="url(#SVGID_00000069387697411711414560000004472953078872805041_)" cx="-25.347" cy="0" rx="5.575" ry="10.879"/>
	</g>
</symbol>
<g id="Shapes">
	<rect fill="#FFFFFF" width="1046.136" height="117.217"/>
	<g>
		<g opacity="0.23">
			<rect x="348.216" y="11.36" width="336.971" height="96.8"/>
		</g>
		<g>
			<rect x="347.216" y="10.36" fill="#E1DDD8" width="336.971" height="96.8"/>
		</g>
	</g>
	<g>
		<g opacity="0.23">
			<rect x="691.927" y="11.36" width="345.259" height="96.8"/>
		</g>
		<g>
			<rect x="690.927" y="10.36" fill="#D7D2CB" width="345.259" height="96.8"/>
		</g>
	</g>
	<g id="Wrench_tool_x28_s_x29_">
	</g>
	<g id="user2">
	</g>
	<g id="user2_1_">
	</g>
	<g id="user2_4_">
	</g>
	<g id="user2_3_">
	</g>
	<g id="user2_2_">
	</g>
	<g id="Internet_2">
	</g>
	<g id="Enterprise">
	</g>
	<g id="Tunnel__x28_stackable_x29_">
	</g>
	<g id="New_Symbol">
	</g>
	<g id="New_Symbol_1">
	</g>
	<g id="Files">
	</g>
	<g id="BlobBlock">
	</g>
	<g id="E_x5F_Enterprise">
	</g>
	<g id="E_x5F_AD_FS">
	</g>
	<g id="C_x5F_Azure_Active_Directory">
	</g>
	<g>
		<g opacity="0.23">
			<rect x="11.077" y="11.36" width="330.866" height="96.8"/>
		</g>
		<g>
			<rect x="10.077" y="10.36" fill="#EBE8E5" width="330.866" height="96.8"/>
		</g>
	</g>
	<g>
		<g>
			<g opacity="0.23">
				<polygon points="168.403,99.014 19.16,99.014 19.16,50.614 168.403,50.614 195.662,74.814 				"/>
			</g>
			<polygon fill="#FFFFFF" points="167.403,98.014 18.16,98.014 18.16,49.614 167.403,49.614 194.662,73.814 			"/>
		</g>
		<polygon fill="#1F5188" points="167.403,98.014 18.16,98.014 18.16,49.614 167.403,49.614 194.662,73.814 		"/>
	</g>
	<g>
		<g>
			<g opacity="0.23">
				<polygon points="341.226,99.014 177.226,99.014 204.178,74.814 177.226,50.614 341.226,50.614 368.486,74.814 				"/>
			</g>
			<polygon fill="#FFFFFF" points="340.226,98.014 176.226,98.014 203.178,73.814 176.226,49.614 340.226,49.614 367.486,73.814 			
				"/>
		</g>
		<polygon fill="#1F5188" points="340.226,98.014 176.226,98.014 203.178,73.814 176.226,49.614 340.226,49.614 367.486,73.814 		
			"/>
	</g>
	<g>
		<g>
			<g opacity="0.23">
				<polygon points="1028.386,99.014 863.527,99.014 890.479,74.814 863.527,50.614 1028.386,50.614 1028.386,74.814 				"/>
			</g>
			<polygon fill="#FFFFFF" points="1027.386,98.014 862.527,98.014 889.479,73.814 862.527,49.614 1027.386,49.614 1027.386,73.814 
							"/>
		</g>
		<polygon fill="#1F5188" points="1027.386,98.014 862.527,98.014 889.479,73.814 862.527,49.614 1027.386,49.614 1027.386,73.814 
					"/>
	</g>
	<g>
		<g>
			<g opacity="0.23">
				<polygon points="512.216,99.014 348.216,99.014 375.168,74.814 348.216,50.614 512.216,50.614 539.475,74.814 				"/>
			</g>
			<polygon fill="#FFFFFF" points="511.216,98.014 347.216,98.014 374.168,73.814 347.216,49.614 511.216,49.614 538.475,73.814 			
				"/>
		</g>
		<polygon fill="#1F5188" points="511.216,98.014 347.216,98.014 374.168,73.814 347.216,49.614 511.216,49.614 538.475,73.814 		
			"/>
	</g>
	<g>
		<g>
			<g opacity="0.23">
				<polygon points="684.327,99.014 520.327,99.014 547.279,74.814 520.327,50.614 684.327,50.614 711.586,74.814 				"/>
			</g>
			<polygon fill="#FFFFFF" points="683.327,98.014 519.327,98.014 546.279,73.814 519.327,49.614 683.327,49.614 710.586,73.814 			
				"/>
		</g>
		<polygon fill="#1F5188" points="683.327,98.014 519.327,98.014 546.279,73.814 519.327,49.614 683.327,49.614 710.586,73.814 		
			"/>
	</g>
	<g>
		<g>
			<g opacity="0.23">
				<polygon points="855.927,99.014 691.927,99.014 718.879,74.814 691.927,50.614 855.927,50.614 883.186,74.814 				"/>
			</g>
			<polygon fill="#FFFFFF" points="854.927,98.014 690.927,98.014 717.879,73.814 690.927,49.614 854.927,49.614 882.186,73.814 			
				"/>
		</g>
		<polygon fill="#1F5188" points="854.927,98.014 690.927,98.014 717.879,73.814 690.927,49.614 854.927,49.614 882.186,73.814 		
			"/>
	</g>
</g>
<g id="Text">
	<g>
		<path fill="#2F2F2F" d="M118.8,36.76V24.157h3.313c2.156,0,3.785,0.518,4.887,1.551c1.102,1.035,1.652,2.562,1.652,4.584
			c0,0.973-0.153,1.857-0.462,2.654c-0.307,0.797-0.751,1.479-1.331,2.043c-0.58,0.566-1.283,1.002-2.109,1.311
			c-0.826,0.307-1.758,0.461-2.795,0.461H118.8z M119.969,25.229v10.468h1.934c0.867,0,1.642-0.117,2.325-0.352
			c0.682-0.234,1.261-0.578,1.735-1.032s0.836-1.016,1.085-1.684s0.374-1.436,0.374-2.303c0-3.398-1.796-5.098-5.388-5.098H119.969z
			"/>
		<path fill="#2F2F2F" d="M131.475,32.463c0.006,0.551,0.079,1.046,0.22,1.485s0.343,0.812,0.606,1.116s0.584,0.538,0.963,0.698
			c0.377,0.162,0.804,0.242,1.278,0.242c1.014,0,1.972-0.354,2.874-1.063v1.107c-0.861,0.615-1.904,0.923-3.129,0.923
			c-0.604,0-1.151-0.105-1.644-0.316s-0.911-0.517-1.257-0.918s-0.612-0.896-0.8-1.481s-0.281-1.254-0.281-2.004
			c0-0.674,0.103-1.298,0.308-1.872s0.489-1.07,0.853-1.49c0.363-0.418,0.794-0.746,1.292-0.984
			c0.498-0.236,1.043-0.355,1.635-0.355c0.58,0,1.093,0.102,1.538,0.303c0.445,0.203,0.818,0.491,1.12,0.866s0.532,0.832,0.69,1.371
			s0.237,1.143,0.237,1.811v0.562H131.475z M136.819,31.478c-0.018-0.938-0.24-1.664-0.668-2.18s-1.022-0.773-1.784-0.773
			c-0.381,0-0.733,0.067-1.06,0.202c-0.324,0.135-0.61,0.33-0.856,0.584c-0.246,0.256-0.45,0.566-0.61,0.932
			c-0.162,0.367-0.274,0.778-0.339,1.235H136.819z"/>
		<path fill="#2F2F2F" d="M144.237,24.5c-0.252-0.164-0.577-0.246-0.976-0.246c-1.055,0-1.582,0.688-1.582,2.065v1.441h2.241v0.984
			h-2.241v8.016h-1.125v-8.016h-1.573V27.76h1.573v-1.512c0-0.451,0.058-0.859,0.171-1.227c0.115-0.365,0.283-0.679,0.506-0.939
			s0.502-0.462,0.84-0.603c0.336-0.141,0.725-0.211,1.164-0.211c0.422,0,0.756,0.056,1.002,0.167V24.5z"/>
		<path fill="#2F2F2F" d="M146.259,25.484c-0.217,0-0.404-0.076-0.562-0.229s-0.237-0.346-0.237-0.58
			c0-0.229,0.079-0.417,0.237-0.567c0.158-0.148,0.346-0.224,0.562-0.224c0.111,0,0.217,0.02,0.316,0.058s0.186,0.092,0.26,0.162
			c0.072,0.07,0.131,0.154,0.176,0.25c0.043,0.098,0.065,0.204,0.065,0.321c0,0.111-0.021,0.217-0.062,0.316s-0.1,0.187-0.176,0.259
			c-0.076,0.074-0.162,0.131-0.26,0.172C146.484,25.464,146.377,25.484,146.259,25.484z M145.706,36.76v-9h1.125v9H145.706z"/>
		<path fill="#2F2F2F" d="M155.585,36.76v-5.186c0-2.033-0.738-3.05-2.215-3.05c-0.393,0-0.756,0.078-1.09,0.233
			s-0.623,0.37-0.865,0.646c-0.244,0.275-0.435,0.603-0.572,0.979c-0.138,0.379-0.206,0.787-0.206,1.227v5.15h-1.125v-9h1.125v1.564
			h0.035c0.668-1.184,1.673-1.775,3.015-1.775c0.984,0,1.734,0.319,2.25,0.958s0.773,1.562,0.773,2.769v5.484H155.585z"/>
		<path fill="#2F2F2F" d="M159.905,32.463c0.006,0.551,0.079,1.046,0.22,1.485s0.343,0.812,0.606,1.116s0.584,0.538,0.963,0.698
			c0.377,0.162,0.804,0.242,1.278,0.242c1.014,0,1.972-0.354,2.874-1.063v1.107c-0.861,0.615-1.904,0.923-3.129,0.923
			c-0.604,0-1.151-0.105-1.644-0.316s-0.911-0.517-1.257-0.918s-0.612-0.896-0.8-1.481s-0.281-1.254-0.281-2.004
			c0-0.674,0.103-1.298,0.308-1.872s0.489-1.07,0.853-1.49c0.363-0.418,0.794-0.746,1.292-0.984
			c0.498-0.236,1.043-0.355,1.635-0.355c0.58,0,1.093,0.102,1.538,0.303c0.445,0.203,0.818,0.491,1.12,0.866s0.532,0.832,0.69,1.371
			s0.237,1.143,0.237,1.811v0.562H159.905z M165.249,31.478c-0.018-0.938-0.24-1.664-0.668-2.18s-1.022-0.773-1.784-0.773
			c-0.381,0-0.733,0.067-1.06,0.202c-0.324,0.135-0.61,0.33-0.856,0.584c-0.246,0.256-0.45,0.566-0.61,0.932
			c-0.162,0.367-0.274,0.778-0.339,1.235H165.249z"/>
		<path fill="#2F2F2F" d="M177.413,36.655c-0.387,0.193-0.809,0.29-1.266,0.29c-1.453,0-2.18-0.838-2.18-2.514v-5.687h-1.582V27.76
			h1.582v-2.268l1.125-0.369v2.637h2.32v0.984h-2.32v5.511c0,0.609,0.1,1.049,0.299,1.318s0.536,0.404,1.011,0.404
			c0.352,0,0.688-0.105,1.011-0.316V36.655z"/>
		<path fill="#2F2F2F" d="M185.198,36.76v-5.291c0-1.008-0.182-1.75-0.545-2.229c-0.363-0.477-0.929-0.716-1.696-0.716
			c-0.363,0-0.709,0.073-1.037,0.22s-0.615,0.357-0.861,0.633s-0.442,0.611-0.589,1.006c-0.146,0.396-0.22,0.843-0.22,1.341v5.036
			h-1.125V23.436h1.125v5.88h0.035c0.703-1.178,1.711-1.767,3.023-1.767c1.002,0,1.755,0.308,2.259,0.923s0.756,1.523,0.756,2.725
			v5.563H185.198z"/>
		<path fill="#2F2F2F" d="M189.517,32.463c0.006,0.551,0.079,1.046,0.22,1.485s0.343,0.812,0.606,1.116s0.584,0.538,0.963,0.698
			c0.377,0.162,0.804,0.242,1.278,0.242c1.014,0,1.972-0.354,2.874-1.063v1.107c-0.861,0.615-1.904,0.923-3.129,0.923
			c-0.604,0-1.151-0.105-1.644-0.316s-0.911-0.517-1.257-0.918s-0.612-0.896-0.8-1.481s-0.281-1.254-0.281-2.004
			c0-0.674,0.103-1.298,0.308-1.872s0.489-1.07,0.853-1.49c0.363-0.418,0.794-0.746,1.292-0.984
			c0.498-0.236,1.043-0.355,1.635-0.355c0.58,0,1.093,0.102,1.538,0.303c0.445,0.203,0.818,0.491,1.12,0.866s0.532,0.832,0.69,1.371
			s0.237,1.143,0.237,1.811v0.562H189.517z M194.861,31.478c-0.018-0.938-0.24-1.664-0.668-2.18s-1.022-0.773-1.784-0.773
			c-0.381,0-0.733,0.067-1.06,0.202c-0.324,0.135-0.61,0.33-0.856,0.584c-0.246,0.256-0.45,0.566-0.61,0.932
			c-0.162,0.367-0.274,0.778-0.339,1.235H194.861z"/>
		<path fill="#2F2F2F" d="M207.35,24.5c-0.252-0.164-0.577-0.246-0.976-0.246c-1.055,0-1.582,0.688-1.582,2.065v1.441h2.241v0.984
			h-2.241v8.016h-1.125v-8.016h-1.573V27.76h1.573v-1.512c0-0.451,0.058-0.859,0.171-1.227c0.115-0.365,0.283-0.679,0.506-0.939
			s0.502-0.462,0.84-0.603c0.336-0.141,0.725-0.211,1.164-0.211c0.422,0,0.756,0.056,1.002,0.167V24.5z"/>
		<path fill="#2F2F2F" d="M208.692,36.76V23.436h1.125V36.76H208.692z"/>
		<path fill="#2F2F2F" d="M216.302,36.971c-0.668,0-1.268-0.111-1.797-0.334c-0.531-0.223-0.983-0.537-1.358-0.945
			c-0.375-0.406-0.662-0.895-0.861-1.463s-0.299-1.198-0.299-1.89c0-0.75,0.105-1.421,0.316-2.013s0.511-1.094,0.901-1.508
			c0.389-0.412,0.859-0.728,1.41-0.944s1.166-0.325,1.846-0.325c0.65,0,1.236,0.107,1.758,0.32c0.521,0.215,0.964,0.523,1.327,0.928
			s0.642,0.896,0.835,1.477s0.29,1.239,0.29,1.978c0,0.703-0.101,1.344-0.304,1.921c-0.201,0.577-0.49,1.073-0.865,1.489
			s-0.832,0.738-1.371,0.967S216.982,36.971,216.302,36.971z M216.39,28.525c-0.492,0-0.938,0.085-1.336,0.255
			s-0.74,0.418-1.023,0.742c-0.285,0.326-0.503,0.725-0.655,1.195c-0.152,0.473-0.229,1.007-0.229,1.604
			c0,0.562,0.076,1.069,0.229,1.521s0.367,0.838,0.646,1.16s0.617,0.57,1.016,0.742c0.398,0.174,0.844,0.26,1.336,0.26
			c0.504,0,0.949-0.084,1.336-0.25c0.387-0.168,0.715-0.41,0.984-0.73c0.27-0.318,0.473-0.71,0.611-1.173
			c0.137-0.463,0.206-0.99,0.206-1.582c0-1.213-0.27-2.14-0.809-2.782C218.163,28.846,217.392,28.525,216.39,28.525z"/>
		<path fill="#2F2F2F" d="M230.839,36.76h-1.125l-1.907-6.609c-0.059-0.205-0.105-0.472-0.141-0.8h-0.035
			c-0.012,0.088-0.03,0.196-0.058,0.325c-0.025,0.129-0.068,0.281-0.127,0.457l-2.101,6.627h-1.099l-2.725-9h1.204l1.978,6.979
			c0.059,0.205,0.1,0.466,0.123,0.782h0.07c0.012-0.105,0.031-0.226,0.057-0.36c0.027-0.135,0.063-0.278,0.11-0.431l2.18-6.97h0.932
			l1.951,6.987c0.053,0.199,0.097,0.46,0.132,0.782h0.07c-0.006-0.1,0.006-0.215,0.035-0.348c0.029-0.131,0.067-0.276,0.114-0.435
			l1.978-6.987h1.134L230.839,36.76z"/>
	</g>
	<g>
		<path fill="#2F2F2F" d="M417.384,36.76h-1.169V24.157h1.169V36.76z"/>
		<path fill="#2F2F2F" d="M426.731,36.76v-1.582h-0.035c-0.299,0.568-0.726,1.01-1.278,1.322c-0.555,0.313-1.183,0.471-1.886,0.471
			c-0.562,0-1.074-0.104-1.534-0.312c-0.46-0.207-0.854-0.508-1.182-0.9s-0.582-0.867-0.76-1.424
			c-0.18-0.557-0.269-1.187-0.269-1.89c0-0.727,0.098-1.39,0.294-1.991c0.196-0.6,0.475-1.115,0.836-1.547
			c0.359-0.43,0.793-0.764,1.301-1.002c0.506-0.236,1.07-0.355,1.691-0.355c1.295,0,2.224,0.519,2.786,1.556h0.035v-5.669h1.125
			V36.76H426.731z M426.731,31.329c0-0.393-0.067-0.759-0.202-1.099s-0.322-0.636-0.562-0.888s-0.529-0.451-0.865-0.598
			c-0.338-0.146-0.708-0.22-1.112-0.22c-0.445,0-0.855,0.088-1.23,0.264s-0.696,0.43-0.962,0.761
			c-0.268,0.331-0.475,0.733-0.625,1.208c-0.148,0.475-0.224,1.014-0.224,1.617c0,0.568,0.067,1.078,0.202,1.529
			s0.326,0.832,0.576,1.143c0.248,0.311,0.546,0.548,0.892,0.712s0.729,0.246,1.151,0.246c0.457,0,0.868-0.082,1.234-0.246
			s0.678-0.39,0.932-0.677c0.256-0.287,0.451-0.624,0.59-1.011c0.137-0.387,0.206-0.8,0.206-1.239V31.329z"/>
		<path fill="#2F2F2F" d="M431.173,32.463c0.006,0.551,0.079,1.046,0.22,1.485s0.343,0.812,0.606,1.116s0.584,0.538,0.963,0.698
			c0.377,0.162,0.804,0.242,1.278,0.242c1.014,0,1.972-0.354,2.874-1.063v1.107c-0.861,0.615-1.904,0.923-3.129,0.923
			c-0.604,0-1.151-0.105-1.644-0.316s-0.911-0.517-1.257-0.918s-0.612-0.896-0.8-1.481s-0.281-1.254-0.281-2.004
			c0-0.674,0.103-1.298,0.308-1.872s0.489-1.07,0.853-1.49c0.363-0.418,0.794-0.746,1.292-0.984
			c0.498-0.236,1.043-0.355,1.635-0.355c0.58,0,1.093,0.102,1.538,0.303c0.445,0.203,0.818,0.491,1.12,0.866s0.532,0.832,0.69,1.371
			s0.237,1.143,0.237,1.811v0.562H431.173z M436.517,31.478c-0.018-0.938-0.24-1.664-0.668-2.18s-1.022-0.773-1.784-0.773
			c-0.381,0-0.733,0.067-1.06,0.202c-0.324,0.135-0.61,0.33-0.856,0.584c-0.246,0.256-0.45,0.566-0.61,0.932
			c-0.162,0.367-0.274,0.778-0.339,1.235H436.517z"/>
		<path fill="#2F2F2F" d="M445.871,36.76v-5.186c0-2.033-0.738-3.05-2.215-3.05c-0.393,0-0.756,0.078-1.09,0.233
			s-0.623,0.37-0.865,0.646c-0.244,0.275-0.435,0.603-0.572,0.979c-0.138,0.379-0.206,0.787-0.206,1.227v5.15h-1.125v-9h1.125v1.564
			h0.035c0.668-1.184,1.673-1.775,3.015-1.775c0.984,0,1.734,0.319,2.25,0.958s0.773,1.562,0.773,2.769v5.484H445.871z"/>
		<path fill="#2F2F2F" d="M453.352,36.655c-0.387,0.193-0.809,0.29-1.266,0.29c-1.453,0-2.18-0.838-2.18-2.514v-5.687h-1.582V27.76
			h1.582v-2.268l1.125-0.369v2.637h2.32v0.984h-2.32v5.511c0,0.609,0.1,1.049,0.299,1.318s0.536,0.404,1.011,0.404
			c0.352,0,0.688-0.105,1.011-0.316V36.655z"/>
		<path fill="#2F2F2F" d="M455.618,25.484c-0.217,0-0.404-0.076-0.562-0.229s-0.237-0.346-0.237-0.58
			c0-0.229,0.079-0.417,0.237-0.567c0.158-0.148,0.346-0.224,0.562-0.224c0.111,0,0.217,0.02,0.316,0.058s0.186,0.092,0.26,0.162
			c0.072,0.07,0.131,0.154,0.176,0.25c0.043,0.098,0.065,0.204,0.065,0.321c0,0.111-0.021,0.217-0.062,0.316s-0.1,0.187-0.176,0.259
			c-0.076,0.074-0.162,0.131-0.26,0.172C455.842,25.464,455.735,25.484,455.618,25.484z M455.064,36.76v-9h1.125v9H455.064z"/>
		<path fill="#2F2F2F" d="M463.151,24.5c-0.252-0.164-0.577-0.246-0.976-0.246c-1.055,0-1.582,0.688-1.582,2.065v1.441h2.241v0.984
			h-2.241v8.016h-1.125v-8.016h-1.573V27.76h1.573v-1.512c0-0.451,0.058-0.859,0.171-1.227c0.115-0.365,0.283-0.679,0.506-0.939
			s0.502-0.462,0.84-0.603c0.336-0.141,0.725-0.211,1.164-0.211c0.422,0,0.756,0.056,1.002,0.167V24.5z"/>
		<path fill="#2F2F2F" d="M467.594,38.395c-0.352,0.879-0.756,1.53-1.213,1.955s-1.011,0.638-1.661,0.638
			c-0.322,0-0.595-0.038-0.817-0.114v-1.055c0.129,0.047,0.26,0.082,0.391,0.105c0.133,0.023,0.266,0.035,0.4,0.035
			c0.369,0,0.689-0.116,0.963-0.348c0.271-0.231,0.508-0.581,0.707-1.05l0.782-1.846l-3.463-8.956h1.248l2.575,7.128
			c0.035,0.094,0.068,0.201,0.102,0.321c0.031,0.12,0.062,0.238,0.092,0.355h0.044c0.029-0.1,0.058-0.2,0.083-0.303
			c0.027-0.103,0.063-0.216,0.11-0.339l2.733-7.163h1.187L467.594,38.395z"/>
		<path fill="#2F2F2F" d="M482.536,24.5c-0.252-0.164-0.577-0.246-0.976-0.246c-1.055,0-1.582,0.688-1.582,2.065v1.441h2.241v0.984
			h-2.241v8.016h-1.125v-8.016h-1.573V27.76h1.573v-1.512c0-0.451,0.058-0.859,0.171-1.227c0.115-0.365,0.283-0.679,0.506-0.939
			s0.502-0.462,0.84-0.603c0.336-0.141,0.725-0.211,1.164-0.211c0.422,0,0.756,0.056,1.002,0.167V24.5z"/>
		<path fill="#2F2F2F" d="M483.877,36.76V23.436h1.125V36.76H483.877z"/>
		<path fill="#2F2F2F" d="M491.488,36.971c-0.668,0-1.268-0.111-1.797-0.334c-0.531-0.223-0.983-0.537-1.358-0.945
			c-0.375-0.406-0.662-0.895-0.861-1.463s-0.299-1.198-0.299-1.89c0-0.75,0.105-1.421,0.316-2.013s0.511-1.094,0.901-1.508
			c0.389-0.412,0.859-0.728,1.41-0.944s1.166-0.325,1.846-0.325c0.65,0,1.236,0.107,1.758,0.32c0.521,0.215,0.964,0.523,1.327,0.928
			s0.642,0.896,0.835,1.477s0.29,1.239,0.29,1.978c0,0.703-0.101,1.344-0.304,1.921c-0.201,0.577-0.49,1.073-0.865,1.489
			s-0.832,0.738-1.371,0.967S492.168,36.971,491.488,36.971z M491.576,28.525c-0.492,0-0.938,0.085-1.336,0.255
			s-0.74,0.418-1.023,0.742c-0.285,0.326-0.503,0.725-0.655,1.195c-0.152,0.473-0.229,1.007-0.229,1.604
			c0,0.562,0.076,1.069,0.229,1.521s0.367,0.838,0.646,1.16s0.617,0.57,1.016,0.742c0.398,0.174,0.844,0.26,1.336,0.26
			c0.504,0,0.949-0.084,1.336-0.25c0.387-0.168,0.715-0.41,0.984-0.73c0.27-0.318,0.473-0.71,0.611-1.173
			c0.137-0.463,0.206-0.99,0.206-1.582c0-1.213-0.27-2.14-0.809-2.782C493.348,28.846,492.578,28.525,491.576,28.525z"/>
		<path fill="#2F2F2F" d="M506.025,36.76H504.9l-1.907-6.609c-0.059-0.205-0.105-0.472-0.141-0.8h-0.035
			c-0.012,0.088-0.03,0.196-0.058,0.325c-0.025,0.129-0.068,0.281-0.127,0.457l-2.101,6.627h-1.099l-2.725-9h1.204l1.978,6.979
			c0.059,0.205,0.1,0.466,0.123,0.782h0.07c0.012-0.105,0.031-0.226,0.057-0.36c0.027-0.135,0.063-0.278,0.11-0.431l2.18-6.97h0.932
			l1.951,6.987c0.053,0.199,0.097,0.46,0.132,0.782h0.07c-0.006-0.1,0.006-0.215,0.035-0.348c0.029-0.131,0.067-0.276,0.114-0.435
			l1.978-6.987h1.134L506.025,36.76z"/>
		<path fill="#2F2F2F" d="M519.885,28.912c-0.264-0.193-0.604-0.29-1.02-0.29c-0.299,0-0.562,0.057-0.791,0.172
			c-0.229,0.113-0.43,0.268-0.603,0.461s-0.319,0.418-0.439,0.672c-0.12,0.256-0.217,0.521-0.289,0.796
			c-0.074,0.275-0.127,0.554-0.158,0.835c-0.033,0.281-0.049,0.548-0.049,0.8v4.403h-1.116v-9h1.116v1.925h0.035
			c0.105-0.328,0.238-0.622,0.4-0.884c0.16-0.26,0.347-0.479,0.558-0.658s0.44-0.315,0.69-0.409
			c0.248-0.094,0.511-0.141,0.786-0.141c0.182,0,0.344,0.012,0.487,0.035s0.274,0.059,0.392,0.105V28.912z"/>
		<path fill="#2F2F2F" d="M521.876,32.463c0.006,0.551,0.079,1.046,0.22,1.485s0.343,0.812,0.606,1.116s0.584,0.538,0.963,0.698
			c0.377,0.162,0.804,0.242,1.278,0.242c1.014,0,1.972-0.354,2.874-1.063v1.107c-0.861,0.615-1.904,0.923-3.129,0.923
			c-0.604,0-1.151-0.105-1.644-0.316s-0.911-0.517-1.257-0.918s-0.612-0.896-0.8-1.481s-0.281-1.254-0.281-2.004
			c0-0.674,0.103-1.298,0.308-1.872s0.489-1.07,0.853-1.49c0.363-0.418,0.794-0.746,1.292-0.984
			c0.498-0.236,1.043-0.355,1.635-0.355c0.58,0,1.093,0.102,1.538,0.303c0.445,0.203,0.818,0.491,1.12,0.866s0.532,0.832,0.69,1.371
			s0.237,1.143,0.237,1.811v0.562H521.876z M527.219,31.478c-0.018-0.938-0.24-1.664-0.668-2.18s-1.022-0.773-1.784-0.773
			c-0.381,0-0.733,0.067-1.06,0.202c-0.324,0.135-0.61,0.33-0.856,0.584c-0.246,0.256-0.45,0.566-0.61,0.932
			c-0.162,0.367-0.274,0.778-0.339,1.235H527.219z"/>
		<path fill="#2F2F2F" d="M536.896,40.9v-5.739h-0.035c-0.639,1.207-1.693,1.811-3.164,1.811c-0.568,0-1.084-0.105-1.547-0.316
			s-0.856-0.513-1.183-0.905c-0.324-0.393-0.575-0.868-0.751-1.429c-0.176-0.559-0.264-1.188-0.264-1.885
			c0-0.75,0.101-1.425,0.304-2.025c0.201-0.601,0.484-1.113,0.848-1.539c0.363-0.424,0.798-0.751,1.305-0.979
			s1.068-0.343,1.684-0.343c1.283,0,2.206,0.521,2.769,1.564h0.035V27.76h1.125V40.9H536.896z M536.896,31.382
			c0-0.404-0.065-0.78-0.198-1.129c-0.131-0.349-0.317-0.65-0.558-0.906c-0.24-0.254-0.53-0.455-0.87-0.602s-0.718-0.22-1.134-0.22
			c-0.445,0-0.853,0.087-1.222,0.259c-0.369,0.174-0.688,0.424-0.953,0.752c-0.268,0.328-0.475,0.734-0.625,1.217
			c-0.148,0.484-0.224,1.033-0.224,1.648c0,0.562,0.067,1.066,0.202,1.512s0.325,0.823,0.571,1.134s0.539,0.548,0.879,0.712
			s0.715,0.246,1.125,0.246c0.48,0,0.906-0.084,1.278-0.25c0.372-0.168,0.686-0.395,0.941-0.682
			c0.254-0.287,0.449-0.624,0.584-1.011s0.202-0.803,0.202-1.248V31.382z"/>
		<path fill="#2F2F2F" d="M546.656,36.76v-1.529h-0.035c-0.609,1.16-1.556,1.74-2.839,1.74c-2.139,0-3.208-1.307-3.208-3.92V27.76
			h1.125v5.08c0,1.078,0.191,1.875,0.575,2.391s0.972,0.773,1.763,0.773c0.387,0,0.739-0.074,1.06-0.225
			c0.318-0.148,0.594-0.359,0.826-0.633c0.23-0.271,0.411-0.599,0.54-0.979s0.193-0.803,0.193-1.266V27.76h1.125v9H546.656z"/>
		<path fill="#2F2F2F" d="M551.022,25.484c-0.217,0-0.404-0.076-0.562-0.229s-0.237-0.346-0.237-0.58
			c0-0.229,0.079-0.417,0.237-0.567c0.158-0.148,0.346-0.224,0.562-0.224c0.111,0,0.217,0.02,0.316,0.058s0.186,0.092,0.26,0.162
			c0.072,0.07,0.131,0.154,0.176,0.25c0.043,0.098,0.065,0.204,0.065,0.321c0,0.111-0.021,0.217-0.062,0.316s-0.1,0.187-0.176,0.259
			c-0.076,0.074-0.162,0.131-0.26,0.172C551.247,25.464,551.139,25.484,551.022,25.484z M550.468,36.76v-9h1.125v9H550.468z"/>
		<path fill="#2F2F2F" d="M558.739,28.912c-0.264-0.193-0.604-0.29-1.02-0.29c-0.299,0-0.562,0.057-0.791,0.172
			c-0.229,0.113-0.43,0.268-0.603,0.461s-0.319,0.418-0.439,0.672c-0.12,0.256-0.217,0.521-0.289,0.796
			c-0.074,0.275-0.127,0.554-0.158,0.835c-0.033,0.281-0.049,0.548-0.049,0.8v4.403h-1.116v-9h1.116v1.925h0.035
			c0.105-0.328,0.238-0.622,0.4-0.884c0.16-0.26,0.347-0.479,0.558-0.658s0.44-0.315,0.69-0.409
			c0.248-0.094,0.511-0.141,0.786-0.141c0.182,0,0.344,0.012,0.487,0.035s0.274,0.059,0.392,0.105V28.912z"/>
		<path fill="#2F2F2F" d="M560.73,32.463c0.006,0.551,0.079,1.046,0.22,1.485s0.343,0.812,0.606,1.116s0.584,0.538,0.963,0.698
			c0.377,0.162,0.804,0.242,1.278,0.242c1.014,0,1.972-0.354,2.874-1.063v1.107c-0.861,0.615-1.904,0.923-3.129,0.923
			c-0.604,0-1.151-0.105-1.644-0.316s-0.911-0.517-1.257-0.918s-0.612-0.896-0.8-1.481s-0.281-1.254-0.281-2.004
			c0-0.674,0.103-1.298,0.308-1.872s0.489-1.07,0.853-1.49c0.363-0.418,0.794-0.746,1.292-0.984
			c0.498-0.236,1.043-0.355,1.635-0.355c0.58,0,1.093,0.102,1.538,0.303c0.445,0.203,0.818,0.491,1.12,0.866s0.532,0.832,0.69,1.371
			s0.237,1.143,0.237,1.811v0.562H560.73z M566.074,31.478c-0.018-0.938-0.24-1.664-0.668-2.18s-1.022-0.773-1.784-0.773
			c-0.381,0-0.733,0.067-1.06,0.202c-0.324,0.135-0.61,0.33-0.856,0.584c-0.246,0.256-0.45,0.566-0.61,0.932
			c-0.162,0.367-0.274,0.778-0.339,1.235H566.074z"/>
		<path fill="#2F2F2F" d="M580.666,36.76v-5.291c0-0.539-0.041-0.994-0.123-1.367c-0.082-0.371-0.21-0.675-0.383-0.909
			s-0.393-0.404-0.658-0.51c-0.268-0.105-0.585-0.158-0.954-0.158c-0.328,0-0.639,0.078-0.932,0.233s-0.55,0.369-0.769,0.641
			c-0.221,0.273-0.394,0.594-0.52,0.963s-0.188,0.768-0.188,1.195v5.203h-1.125v-5.405c0-1.887-0.724-2.83-2.171-2.83
			c-0.334,0-0.645,0.075-0.932,0.224c-0.287,0.15-0.538,0.359-0.752,0.629s-0.381,0.594-0.5,0.971
			c-0.121,0.379-0.181,0.796-0.181,1.253v5.159h-1.125v-9h1.125v1.459h0.035c0.633-1.113,1.556-1.67,2.769-1.67
			c0.316,0,0.615,0.049,0.896,0.145c0.281,0.098,0.533,0.232,0.756,0.404c0.223,0.174,0.414,0.38,0.576,0.62
			c0.16,0.24,0.282,0.504,0.364,0.791c0.316-0.639,0.728-1.125,1.235-1.459c0.506-0.334,1.079-0.501,1.718-0.501
			c1.975,0,2.962,1.219,2.962,3.656v5.555H580.666z"/>
		<path fill="#2F2F2F" d="M584.985,32.463c0.006,0.551,0.079,1.046,0.22,1.485s0.343,0.812,0.606,1.116s0.584,0.538,0.963,0.698
			c0.377,0.162,0.804,0.242,1.278,0.242c1.014,0,1.972-0.354,2.874-1.063v1.107c-0.861,0.615-1.904,0.923-3.129,0.923
			c-0.604,0-1.151-0.105-1.644-0.316s-0.911-0.517-1.257-0.918s-0.612-0.896-0.8-1.481s-0.281-1.254-0.281-2.004
			c0-0.674,0.103-1.298,0.308-1.872s0.489-1.07,0.853-1.49c0.363-0.418,0.794-0.746,1.292-0.984
			c0.498-0.236,1.043-0.355,1.635-0.355c0.58,0,1.093,0.102,1.538,0.303c0.445,0.203,0.818,0.491,1.12,0.866s0.532,0.832,0.69,1.371
			s0.237,1.143,0.237,1.811v0.562H584.985z M590.329,31.478c-0.018-0.938-0.24-1.664-0.668-2.18s-1.022-0.773-1.784-0.773
			c-0.381,0-0.733,0.067-1.06,0.202c-0.324,0.135-0.61,0.33-0.856,0.584c-0.246,0.256-0.45,0.566-0.61,0.932
			c-0.162,0.367-0.274,0.778-0.339,1.235H590.329z"/>
		<path fill="#2F2F2F" d="M599.681,36.76v-5.186c0-2.033-0.738-3.05-2.215-3.05c-0.393,0-0.756,0.078-1.09,0.233
			s-0.623,0.37-0.865,0.646c-0.244,0.275-0.435,0.603-0.572,0.979c-0.138,0.379-0.206,0.787-0.206,1.227v5.15h-1.125v-9h1.125v1.564
			h0.035c0.668-1.184,1.673-1.775,3.015-1.775c0.984,0,1.734,0.319,2.25,0.958s0.773,1.562,0.773,2.769v5.484H599.681z"/>
		<path fill="#2F2F2F" d="M607.163,36.655c-0.387,0.193-0.809,0.29-1.266,0.29c-1.453,0-2.18-0.838-2.18-2.514v-5.687h-1.582V27.76
			h1.582v-2.268l1.125-0.369v2.637h2.32v0.984h-2.32v5.511c0,0.609,0.1,1.049,0.299,1.318s0.536,0.404,1.011,0.404
			c0.352,0,0.688-0.105,1.011-0.316V36.655z"/>
		<path fill="#2F2F2F" d="M608.62,35.143c0.17,0.135,0.354,0.255,0.554,0.36s0.404,0.196,0.615,0.272s0.423,0.134,0.637,0.172
			s0.418,0.057,0.611,0.057c1.336,0,2.004-0.501,2.004-1.503c0-0.229-0.047-0.427-0.141-0.593c-0.094-0.168-0.229-0.319-0.404-0.457
			s-0.387-0.266-0.633-0.383s-0.524-0.24-0.835-0.369c-0.416-0.17-0.773-0.343-1.072-0.519s-0.545-0.367-0.738-0.575
			s-0.337-0.437-0.431-0.686s-0.141-0.532-0.141-0.849c0-0.398,0.086-0.753,0.26-1.063c0.172-0.311,0.405-0.574,0.698-0.791
			s0.631-0.383,1.015-0.496c0.384-0.115,0.787-0.172,1.209-0.172c0.779,0,1.459,0.146,2.039,0.439v1.187
			c-0.674-0.434-1.4-0.65-2.18-0.65c-0.281,0-0.538,0.035-0.77,0.105s-0.429,0.17-0.593,0.299s-0.292,0.283-0.382,0.462
			c-0.092,0.179-0.137,0.376-0.137,0.593c0,0.223,0.035,0.417,0.105,0.585c0.07,0.166,0.18,0.317,0.33,0.452
			c0.148,0.135,0.342,0.264,0.58,0.387c0.236,0.123,0.525,0.255,0.865,0.396c0.434,0.176,0.809,0.351,1.125,0.523
			s0.577,0.359,0.782,0.562c0.205,0.201,0.357,0.428,0.457,0.676c0.1,0.25,0.149,0.538,0.149,0.866c0,0.404-0.084,0.765-0.25,1.081
			c-0.168,0.316-0.399,0.583-0.695,0.8s-0.643,0.381-1.041,0.492s-0.832,0.167-1.301,0.167c-0.908,0-1.673-0.19-2.294-0.571V35.143z
			"/>
	</g>
	<g>
		<path fill="#2F2F2F" d="M813.993,36.76V24.157h3.445c0.521,0,0.991,0.07,1.41,0.211s0.776,0.338,1.072,0.594
			c0.296,0.254,0.523,0.561,0.682,0.918s0.237,0.75,0.237,1.178c0,0.363-0.05,0.703-0.149,1.02s-0.243,0.605-0.431,0.865
			c-0.188,0.262-0.417,0.487-0.69,0.678c-0.271,0.19-0.581,0.341-0.927,0.452v0.035c0.422,0.041,0.806,0.144,1.151,0.308
			s0.642,0.378,0.888,0.642s0.437,0.573,0.571,0.927c0.135,0.355,0.202,0.743,0.202,1.165c0,0.533-0.097,1.021-0.29,1.464
			s-0.465,0.823-0.812,1.143c-0.35,0.319-0.764,0.566-1.244,0.742s-1.011,0.264-1.591,0.264H813.993z M815.162,25.229v4.474h1.635
			c0.428,0,0.814-0.056,1.16-0.167s0.642-0.272,0.888-0.483s0.436-0.466,0.566-0.765c0.133-0.299,0.198-0.636,0.198-1.011
			c0-1.365-0.85-2.048-2.549-2.048H815.162z M815.162,30.757v4.939h2.171c0.932,0,1.648-0.218,2.148-0.655
			c0.502-0.436,0.752-1.056,0.752-1.858c0-1.617-1.099-2.426-3.296-2.426H815.162z"/>
		<path fill="#2F2F2F" d="M829.685,36.76v-1.529h-0.035c-0.609,1.16-1.556,1.74-2.839,1.74c-2.139,0-3.208-1.307-3.208-3.92V27.76
			h1.125v5.08c0,1.078,0.191,1.875,0.575,2.391s0.972,0.773,1.763,0.773c0.387,0,0.739-0.074,1.06-0.225
			c0.318-0.148,0.594-0.359,0.826-0.633c0.23-0.271,0.411-0.599,0.54-0.979s0.193-0.803,0.193-1.266V27.76h1.125v9H829.685z"/>
		<path fill="#2F2F2F" d="M834.051,25.484c-0.217,0-0.404-0.076-0.562-0.229s-0.237-0.346-0.237-0.58
			c0-0.229,0.079-0.417,0.237-0.567c0.158-0.148,0.346-0.224,0.562-0.224c0.111,0,0.217,0.02,0.316,0.058s0.186,0.092,0.26,0.162
			c0.072,0.07,0.131,0.154,0.176,0.25c0.043,0.098,0.065,0.204,0.065,0.321c0,0.111-0.021,0.217-0.062,0.316s-0.1,0.187-0.176,0.259
			c-0.076,0.074-0.162,0.131-0.26,0.172C834.276,25.464,834.169,25.484,834.051,25.484z M833.498,36.76v-9h1.125v9H833.498z"/>
		<path fill="#2F2F2F" d="M837.311,36.76V23.436h1.125V36.76H837.311z"/>
		<path fill="#2F2F2F" d="M847.549,36.76v-1.582h-0.035c-0.299,0.568-0.726,1.01-1.278,1.322c-0.555,0.313-1.183,0.471-1.886,0.471
			c-0.562,0-1.074-0.104-1.534-0.312c-0.46-0.207-0.854-0.508-1.182-0.9s-0.582-0.867-0.76-1.424
			c-0.18-0.557-0.269-1.187-0.269-1.89c0-0.727,0.098-1.39,0.294-1.991c0.196-0.6,0.475-1.115,0.836-1.547
			c0.359-0.43,0.793-0.764,1.301-1.002c0.506-0.236,1.07-0.355,1.691-0.355c1.295,0,2.224,0.519,2.786,1.556h0.035v-5.669h1.125
			V36.76H847.549z M847.549,31.329c0-0.393-0.067-0.759-0.202-1.099s-0.322-0.636-0.562-0.888s-0.529-0.451-0.865-0.598
			c-0.338-0.146-0.708-0.22-1.112-0.22c-0.445,0-0.855,0.088-1.23,0.264s-0.696,0.43-0.962,0.761
			c-0.268,0.331-0.475,0.733-0.625,1.208c-0.148,0.475-0.224,1.014-0.224,1.617c0,0.568,0.067,1.078,0.202,1.529
			s0.326,0.832,0.576,1.143c0.248,0.311,0.546,0.548,0.892,0.712s0.729,0.246,1.151,0.246c0.457,0,0.868-0.082,1.234-0.246
			s0.678-0.39,0.932-0.677c0.256-0.287,0.451-0.624,0.59-1.011c0.137-0.387,0.206-0.8,0.206-1.239V31.329z"/>
		<path fill="#2F2F2F" d="M860.373,36.655c-0.387,0.193-0.809,0.29-1.266,0.29c-1.453,0-2.18-0.838-2.18-2.514v-5.687h-1.582V27.76
			h1.582v-2.268l1.125-0.369v2.637h2.32v0.984h-2.32v5.511c0,0.609,0.1,1.049,0.299,1.318s0.536,0.404,1.011,0.404
			c0.352,0,0.688-0.105,1.011-0.316V36.655z"/>
		<path fill="#2F2F2F" d="M868.159,36.76v-5.291c0-1.008-0.182-1.75-0.545-2.229c-0.363-0.477-0.929-0.716-1.696-0.716
			c-0.363,0-0.709,0.073-1.037,0.22s-0.615,0.357-0.861,0.633s-0.442,0.611-0.589,1.006c-0.146,0.396-0.22,0.843-0.22,1.341v5.036
			h-1.125V23.436h1.125v5.88h0.035c0.703-1.178,1.711-1.767,3.023-1.767c1.002,0,1.755,0.308,2.259,0.923s0.756,1.523,0.756,2.725
			v5.563H868.159z"/>
		<path fill="#2F2F2F" d="M872.478,32.463c0.006,0.551,0.079,1.046,0.22,1.485s0.343,0.812,0.606,1.116s0.584,0.538,0.963,0.698
			c0.377,0.162,0.804,0.242,1.278,0.242c1.014,0,1.972-0.354,2.874-1.063v1.107c-0.861,0.615-1.904,0.923-3.129,0.923
			c-0.604,0-1.151-0.105-1.644-0.316s-0.911-0.517-1.257-0.918s-0.612-0.896-0.8-1.481s-0.281-1.254-0.281-2.004
			c0-0.674,0.103-1.298,0.308-1.872s0.489-1.07,0.853-1.49c0.363-0.418,0.794-0.746,1.292-0.984
			c0.498-0.236,1.043-0.355,1.635-0.355c0.58,0,1.093,0.102,1.538,0.303c0.445,0.203,0.818,0.491,1.12,0.866s0.532,0.832,0.69,1.371
			s0.237,1.143,0.237,1.811v0.562H872.478z M877.822,31.478c-0.018-0.938-0.24-1.664-0.668-2.18s-1.022-0.773-1.784-0.773
			c-0.381,0-0.733,0.067-1.06,0.202c-0.324,0.135-0.61,0.33-0.856,0.584c-0.246,0.256-0.45,0.566-0.61,0.932
			c-0.162,0.367-0.274,0.778-0.339,1.235H877.822z"/>
		<path fill="#2F2F2F" d="M890.311,24.5c-0.252-0.164-0.577-0.246-0.976-0.246c-1.055,0-1.582,0.688-1.582,2.065v1.441h2.241v0.984
			h-2.241v8.016h-1.125v-8.016h-1.573V27.76h1.573v-1.512c0-0.451,0.058-0.859,0.171-1.227c0.115-0.365,0.283-0.679,0.506-0.939
			s0.502-0.462,0.84-0.603c0.336-0.141,0.725-0.211,1.164-0.211c0.422,0,0.756,0.056,1.002,0.167V24.5z"/>
		<path fill="#2F2F2F" d="M891.653,36.76V23.436h1.125V36.76H891.653z"/>
		<path fill="#2F2F2F" d="M899.263,36.971c-0.668,0-1.268-0.111-1.797-0.334c-0.531-0.223-0.983-0.537-1.358-0.945
			c-0.375-0.406-0.662-0.895-0.861-1.463s-0.299-1.198-0.299-1.89c0-0.75,0.105-1.421,0.316-2.013s0.511-1.094,0.901-1.508
			c0.389-0.412,0.859-0.728,1.41-0.944s1.166-0.325,1.846-0.325c0.65,0,1.236,0.107,1.758,0.32c0.521,0.215,0.964,0.523,1.327,0.928
			s0.642,0.896,0.835,1.477s0.29,1.239,0.29,1.978c0,0.703-0.101,1.344-0.304,1.921c-0.201,0.577-0.49,1.073-0.865,1.489
			s-0.832,0.738-1.371,0.967S899.943,36.971,899.263,36.971z M899.351,28.525c-0.492,0-0.938,0.085-1.336,0.255
			s-0.74,0.418-1.023,0.742c-0.285,0.326-0.503,0.725-0.655,1.195c-0.152,0.473-0.229,1.007-0.229,1.604
			c0,0.562,0.076,1.069,0.229,1.521s0.367,0.838,0.646,1.16s0.617,0.57,1.016,0.742c0.398,0.174,0.844,0.26,1.336,0.26
			c0.504,0,0.949-0.084,1.336-0.25c0.387-0.168,0.715-0.41,0.984-0.73c0.27-0.318,0.473-0.71,0.611-1.173
			c0.137-0.463,0.206-0.99,0.206-1.582c0-1.213-0.27-2.14-0.809-2.782C901.124,28.846,900.353,28.525,899.351,28.525z"/>
		<path fill="#2F2F2F" d="M913.8,36.76h-1.125l-1.907-6.609c-0.059-0.205-0.105-0.472-0.141-0.8h-0.035
			c-0.012,0.088-0.03,0.196-0.058,0.325c-0.025,0.129-0.068,0.281-0.127,0.457l-2.101,6.627h-1.099l-2.725-9h1.204l1.978,6.979
			c0.059,0.205,0.1,0.466,0.123,0.782h0.07c0.012-0.105,0.031-0.226,0.057-0.36c0.027-0.135,0.063-0.278,0.11-0.431l2.18-6.97h0.932
			l1.951,6.987c0.053,0.199,0.097,0.46,0.132,0.782h0.07c-0.006-0.1,0.006-0.215,0.035-0.348c0.029-0.131,0.067-0.276,0.114-0.435
			l1.978-6.987h1.134L913.8,36.76z"/>
	</g>
	<g>
		<rect x="34.76" y="58.577" fill="none" width="123.2" height="34.98"/>
		<path fill="#FFFFFF" d="M66.961,66.234c0,2.944-1.371,4.416-4.115,4.416c-2.661,0-3.992-1.438-3.992-4.313v-5.66h2.215v5.687
			c0,1.586,0.62,2.379,1.859,2.379c1.217,0,1.825-0.766,1.825-2.297v-5.77h2.208V66.234z"/>
		<path fill="#FFFFFF" d="M75.555,70.479h-2.153v-3.89c0-1.085-0.387-1.627-1.162-1.627c-0.373,0-0.681,0.144-0.923,0.431
			c-0.241,0.287-0.362,0.651-0.362,1.094v3.992h-2.16v-7h2.16v1.107h0.027c0.516-0.853,1.265-1.278,2.249-1.278
			c1.55,0,2.324,0.962,2.324,2.885V70.479z"/>
		<path fill="#FFFFFF" d="M84.138,70.479h-2.16v-0.964h-0.027c-0.492,0.757-1.215,1.135-2.167,1.135
			c-0.875,0-1.579-0.309-2.112-0.927c-0.533-0.617-0.8-1.479-0.8-2.587c0-1.157,0.294-2.085,0.882-2.782
			c0.588-0.697,1.357-1.046,2.311-1.046c0.902,0,1.531,0.323,1.887,0.971h0.027v-4.163h2.16V70.479z M82.019,67.075v-0.526
			c0-0.456-0.133-0.834-0.396-1.135c-0.265-0.301-0.608-0.451-1.032-0.451c-0.479,0-0.853,0.188-1.121,0.563
			c-0.27,0.377-0.403,0.893-0.403,1.549c0,0.615,0.13,1.089,0.39,1.422s0.619,0.499,1.08,0.499c0.438,0,0.794-0.176,1.069-0.526
			C81.881,68.119,82.019,67.654,82.019,67.075z"/>
		<path fill="#FFFFFF" d="M92.246,67.594h-4.566c0.072,1.017,0.713,1.524,1.921,1.524c0.77,0,1.446-0.183,2.03-0.547v1.559
			c-0.647,0.347-1.488,0.52-2.522,0.52c-1.131,0-2.008-0.313-2.632-0.94c-0.625-0.626-0.937-1.5-0.937-2.621
			c0-1.162,0.337-2.083,1.012-2.762c0.674-0.679,1.504-1.019,2.488-1.019c1.021,0,1.811,0.303,2.368,0.909
			c0.559,0.606,0.838,1.429,0.838,2.468V67.594z M90.243,66.268c0-1.003-0.406-1.504-1.217-1.504c-0.347,0-0.646,0.144-0.899,0.431
			s-0.406,0.645-0.461,1.073H90.243z"/>
		<path fill="#FFFFFF" d="M98.176,65.427c-0.26-0.142-0.562-0.212-0.909-0.212c-0.469,0-0.836,0.172-1.101,0.516
			c-0.264,0.345-0.396,0.812-0.396,1.405v3.343h-2.16v-7h2.16v1.299h0.027c0.342-0.948,0.957-1.422,1.846-1.422
			c0.229,0,0.406,0.027,0.533,0.082V65.427z"/>
		<path fill="#FFFFFF" d="M98.935,70.295v-1.75c0.355,0.214,0.71,0.374,1.062,0.479c0.354,0.104,0.688,0.157,1.002,0.157
			c0.383,0,0.685-0.053,0.905-0.157c0.222-0.104,0.332-0.265,0.332-0.479c0-0.137-0.051-0.251-0.15-0.342
			c-0.101-0.091-0.229-0.171-0.387-0.239s-0.329-0.13-0.516-0.185c-0.188-0.055-0.367-0.116-0.54-0.185
			c-0.278-0.104-0.523-0.218-0.735-0.338c-0.212-0.121-0.39-0.262-0.533-0.421s-0.253-0.344-0.328-0.554s-0.112-0.458-0.112-0.745
			c0-0.392,0.085-0.729,0.256-1.012s0.399-0.514,0.684-0.694c0.285-0.18,0.611-0.312,0.978-0.396
			c0.367-0.084,0.749-0.126,1.146-0.126c0.31,0,0.624,0.024,0.943,0.071c0.318,0.049,0.633,0.118,0.943,0.209v1.668
			c-0.273-0.159-0.566-0.279-0.879-0.359c-0.312-0.079-0.618-0.119-0.919-0.119c-0.142,0-0.274,0.013-0.4,0.037
			c-0.125,0.025-0.235,0.062-0.331,0.109c-0.096,0.049-0.171,0.109-0.226,0.186c-0.055,0.074-0.082,0.16-0.082,0.256
			c0,0.128,0.041,0.237,0.123,0.328s0.188,0.17,0.321,0.236c0.132,0.065,0.279,0.125,0.44,0.178c0.162,0.052,0.322,0.105,0.482,0.16
			c0.287,0.101,0.547,0.21,0.779,0.328s0.432,0.258,0.598,0.417c0.167,0.159,0.294,0.347,0.383,0.561s0.134,0.47,0.134,0.766
			c0,0.415-0.09,0.769-0.271,1.063c-0.18,0.293-0.419,0.533-0.718,0.717c-0.298,0.186-0.643,0.319-1.032,0.404
			c-0.39,0.084-0.794,0.126-1.213,0.126C100.304,70.65,99.591,70.532,98.935,70.295z"/>
		<path fill="#FFFFFF" d="M109.742,70.397c-0.319,0.169-0.8,0.253-1.442,0.253c-1.522,0-2.283-0.791-2.283-2.372v-3.206h-1.135
			v-1.593h1.135v-1.511l2.153-0.615v2.126h1.572v1.593h-1.572v2.83c0,0.729,0.289,1.094,0.868,1.094
			c0.228,0,0.462-0.066,0.704-0.198V70.397z"/>
		<path fill="#FFFFFF" d="M116.922,70.479h-2.044v-1.005h-0.027c-0.469,0.784-1.164,1.176-2.085,1.176
			c-0.679,0-1.213-0.192-1.603-0.577c-0.39-0.386-0.585-0.899-0.585-1.542c0-1.358,0.805-2.142,2.413-2.352l1.9-0.253
			c0-0.766-0.414-1.148-1.244-1.148c-0.834,0-1.627,0.248-2.379,0.745v-1.627c0.301-0.155,0.712-0.292,1.234-0.41
			c0.521-0.118,0.997-0.178,1.425-0.178c1.996,0,2.994,0.996,2.994,2.987V70.479z M114.892,67.635v-0.472l-1.271,0.164
			c-0.701,0.091-1.053,0.408-1.053,0.95c0,0.246,0.086,0.447,0.257,0.605c0.171,0.156,0.402,0.235,0.693,0.235
			c0.406,0,0.736-0.14,0.991-0.421C114.765,68.419,114.892,68.064,114.892,67.635z"/>
		<path fill="#FFFFFF" d="M125.379,70.479h-2.153v-3.89c0-1.085-0.387-1.627-1.162-1.627c-0.373,0-0.681,0.144-0.923,0.431
			c-0.241,0.287-0.362,0.651-0.362,1.094v3.992h-2.16v-7h2.16v1.107h0.027c0.516-0.853,1.265-1.278,2.249-1.278
			c1.55,0,2.324,0.962,2.324,2.885V70.479z"/>
		<path fill="#FFFFFF" d="M133.962,70.479h-2.16v-0.964h-0.027c-0.492,0.757-1.215,1.135-2.167,1.135
			c-0.875,0-1.579-0.309-2.112-0.927c-0.533-0.617-0.8-1.479-0.8-2.587c0-1.157,0.294-2.085,0.882-2.782
			c0.588-0.697,1.357-1.046,2.311-1.046c0.902,0,1.531,0.323,1.887,0.971h0.027v-4.163h2.16V70.479z M131.843,67.075v-0.526
			c0-0.456-0.133-0.834-0.396-1.135c-0.265-0.301-0.608-0.451-1.032-0.451c-0.479,0-0.853,0.188-1.121,0.563
			c-0.27,0.377-0.403,0.893-0.403,1.549c0,0.615,0.13,1.089,0.39,1.422s0.619,0.499,1.08,0.499c0.438,0,0.794-0.176,1.069-0.526
			C131.706,68.119,131.843,67.654,131.843,67.075z"/>
		<path fill="#FFFFFF" d="M56.536,86.465h-0.027v4.033h-2.16v-10.22h2.16v1.053h0.027c0.533-0.815,1.283-1.224,2.249-1.224
			c0.907,0,1.607,0.312,2.103,0.933c0.494,0.623,0.741,1.469,0.741,2.54c0,1.167-0.288,2.104-0.864,2.81
			c-0.577,0.706-1.344,1.06-2.301,1.06C57.621,87.45,56.978,87.122,56.536,86.465z M56.474,83.594v0.561
			c0,0.483,0.128,0.877,0.383,1.183c0.256,0.306,0.591,0.458,1.005,0.458c0.492,0,0.874-0.19,1.146-0.571
			c0.271-0.38,0.406-0.919,0.406-1.616c0-1.23-0.479-1.846-1.436-1.846c-0.441,0-0.803,0.167-1.083,0.503
			C56.615,82.599,56.474,83.043,56.474,83.594z"/>
		<path fill="#FFFFFF" d="M67.612,82.227c-0.26-0.142-0.562-0.212-0.909-0.212c-0.469,0-0.836,0.172-1.101,0.516
			c-0.264,0.345-0.396,0.812-0.396,1.405v3.343h-2.16v-7h2.16v1.299h0.027c0.342-0.948,0.957-1.422,1.846-1.422
			c0.229,0,0.406,0.027,0.533,0.082V82.227z"/>
		<path fill="#FFFFFF" d="M74.984,84.394h-4.566c0.073,1.017,0.714,1.524,1.921,1.524c0.771,0,1.447-0.183,2.03-0.547v1.559
			c-0.646,0.347-1.487,0.52-2.522,0.52c-1.13,0-2.007-0.313-2.632-0.94c-0.624-0.626-0.937-1.5-0.937-2.621
			c0-1.162,0.338-2.083,1.012-2.762c0.675-0.679,1.504-1.019,2.488-1.019c1.021,0,1.811,0.303,2.369,0.909
			c0.558,0.606,0.837,1.429,0.837,2.468V84.394z M72.981,83.068c0-1.003-0.405-1.504-1.217-1.504c-0.346,0-0.646,0.144-0.898,0.431
			s-0.407,0.645-0.462,1.073H72.981z"/>
		<path fill="#FFFFFF" d="M80.915,82.227c-0.26-0.142-0.563-0.212-0.909-0.212c-0.47,0-0.837,0.172-1.101,0.516
			c-0.265,0.345-0.396,0.812-0.396,1.405v3.343h-2.16v-7h2.16v1.299h0.027c0.342-0.948,0.957-1.422,1.846-1.422
			c0.228,0,0.405,0.027,0.533,0.082V82.227z"/>
		<path fill="#FFFFFF" d="M88.287,84.394H83.72c0.072,1.017,0.713,1.524,1.921,1.524c0.77,0,1.446-0.183,2.03-0.547v1.559
			c-0.647,0.347-1.488,0.52-2.522,0.52c-1.131,0-2.008-0.313-2.632-0.94c-0.625-0.626-0.937-1.5-0.937-2.621
			c0-1.162,0.337-2.083,1.012-2.762c0.674-0.679,1.504-1.019,2.488-1.019c1.021,0,1.811,0.303,2.368,0.909
			c0.559,0.606,0.838,1.429,0.838,2.468V84.394z M86.284,83.068c0-1.003-0.406-1.504-1.217-1.504c-0.347,0-0.646,0.144-0.899,0.431
			s-0.406,0.645-0.461,1.073H86.284z"/>
		<path fill="#FFFFFF" d="M96.532,90.499h-2.16v-4.184h-0.027c-0.487,0.757-1.205,1.135-2.153,1.135
			c-0.879,0-1.587-0.307-2.122-0.919c-0.536-0.613-0.804-1.474-0.804-2.581c0-1.167,0.294-2.099,0.882-2.796
			s1.354-1.046,2.297-1.046c0.857,0,1.49,0.328,1.9,0.984h0.027v-0.813h2.16V90.499z M94.413,83.936v-0.561
			c0-0.456-0.132-0.839-0.396-1.148c-0.264-0.31-0.604-0.465-1.019-0.465c-0.479,0-0.854,0.188-1.128,0.563
			c-0.273,0.377-0.41,0.897-0.41,1.562c0,0.597,0.134,1.064,0.4,1.401s0.614,0.506,1.042,0.506c0.456,0,0.821-0.171,1.098-0.513
			C94.275,84.941,94.413,84.492,94.413,83.936z"/>
		<path fill="#FFFFFF" d="M104.989,87.279h-2.153v-1.066h-0.034c-0.533,0.825-1.246,1.237-2.14,1.237
			c-1.622,0-2.434-0.982-2.434-2.946v-4.225h2.153v4.033c0,0.989,0.393,1.483,1.176,1.483c0.388,0,0.697-0.136,0.93-0.407
			c0.232-0.271,0.349-0.639,0.349-1.104v-4.006h2.153V87.279z"/>
		<path fill="#FFFFFF" d="M107.852,79.172c-0.364,0-0.663-0.108-0.896-0.324c-0.232-0.217-0.349-0.482-0.349-0.797
			c0-0.323,0.116-0.588,0.349-0.793s0.531-0.308,0.896-0.308c0.369,0,0.669,0.103,0.899,0.308c0.229,0.205,0.345,0.47,0.345,0.793
			c0,0.328-0.115,0.597-0.345,0.807C108.521,79.067,108.221,79.172,107.852,79.172z M108.919,87.279h-2.16v-7h2.16V87.279z"/>
		<path fill="#FFFFFF" d="M110.357,87.094v-1.75c0.355,0.214,0.71,0.374,1.063,0.479c0.353,0.104,0.687,0.157,1.001,0.157
			c0.383,0,0.685-0.053,0.906-0.157c0.221-0.104,0.331-0.265,0.331-0.479c0-0.137-0.05-0.251-0.15-0.342
			c-0.1-0.091-0.229-0.171-0.386-0.239s-0.329-0.13-0.517-0.185c-0.187-0.055-0.366-0.116-0.54-0.185
			c-0.277-0.104-0.522-0.218-0.734-0.338c-0.212-0.121-0.39-0.262-0.533-0.421s-0.253-0.344-0.328-0.554s-0.113-0.458-0.113-0.745
			c0-0.392,0.086-0.729,0.257-1.012s0.398-0.514,0.684-0.694c0.284-0.18,0.61-0.312,0.978-0.396
			c0.366-0.084,0.748-0.126,1.145-0.126c0.311,0,0.625,0.024,0.943,0.071c0.319,0.049,0.634,0.118,0.943,0.209v1.668
			c-0.273-0.159-0.566-0.279-0.878-0.359c-0.312-0.079-0.619-0.119-0.92-0.119c-0.141,0-0.274,0.013-0.399,0.037
			c-0.126,0.025-0.236,0.062-0.332,0.109c-0.096,0.049-0.171,0.109-0.226,0.186c-0.055,0.074-0.082,0.16-0.082,0.256
			c0,0.128,0.041,0.237,0.123,0.328s0.189,0.17,0.321,0.236c0.133,0.065,0.279,0.125,0.441,0.178
			c0.161,0.052,0.322,0.105,0.481,0.16c0.287,0.101,0.547,0.21,0.779,0.328s0.432,0.258,0.599,0.417
			c0.166,0.159,0.294,0.347,0.383,0.561s0.133,0.47,0.133,0.766c0,0.415-0.09,0.769-0.27,1.063c-0.181,0.293-0.42,0.533-0.718,0.717
			c-0.299,0.186-0.643,0.319-1.032,0.404c-0.39,0.084-0.794,0.126-1.214,0.126C111.727,87.45,111.013,87.332,110.357,87.094z"/>
		<path fill="#FFFFFF" d="M118.096,79.172c-0.365,0-0.663-0.108-0.896-0.324c-0.232-0.217-0.349-0.482-0.349-0.797
			c0-0.323,0.116-0.588,0.349-0.793s0.53-0.308,0.896-0.308c0.369,0,0.669,0.103,0.898,0.308c0.23,0.205,0.346,0.47,0.346,0.793
			c0,0.328-0.115,0.597-0.346,0.807C118.765,79.067,118.465,79.172,118.096,79.172z M119.163,87.279h-2.16v-7h2.16V87.279z"/>
		<path fill="#FFFFFF" d="M125.099,87.197c-0.319,0.169-0.8,0.253-1.442,0.253c-1.522,0-2.283-0.791-2.283-2.372v-3.206h-1.135
			v-1.593h1.135v-1.511l2.153-0.615v2.126h1.572v1.593h-1.572v2.83c0,0.729,0.289,1.094,0.868,1.094
			c0.228,0,0.462-0.066,0.704-0.198V87.197z"/>
		<path fill="#FFFFFF" d="M132.586,84.394h-4.566c0.072,1.017,0.713,1.524,1.921,1.524c0.77,0,1.446-0.183,2.03-0.547v1.559
			c-0.647,0.347-1.488,0.52-2.522,0.52c-1.131,0-2.008-0.313-2.632-0.94c-0.625-0.626-0.937-1.5-0.937-2.621
			c0-1.162,0.337-2.083,1.012-2.762c0.674-0.679,1.504-1.019,2.488-1.019c1.021,0,1.811,0.303,2.368,0.909
			c0.559,0.606,0.838,1.429,0.838,2.468V84.394z M130.583,83.068c0-1.003-0.406-1.504-1.217-1.504c-0.347,0-0.646,0.144-0.899,0.431
			s-0.406,0.645-0.461,1.073H130.583z"/>
		<path fill="#FFFFFF" d="M133.574,87.094v-1.75c0.355,0.214,0.71,0.374,1.062,0.479c0.354,0.104,0.688,0.157,1.002,0.157
			c0.383,0,0.685-0.053,0.905-0.157c0.222-0.104,0.332-0.265,0.332-0.479c0-0.137-0.051-0.251-0.15-0.342
			c-0.101-0.091-0.229-0.171-0.387-0.239s-0.329-0.13-0.516-0.185c-0.188-0.055-0.367-0.116-0.54-0.185
			c-0.278-0.104-0.523-0.218-0.735-0.338c-0.212-0.121-0.39-0.262-0.533-0.421s-0.253-0.344-0.328-0.554s-0.112-0.458-0.112-0.745
			c0-0.392,0.085-0.729,0.256-1.012s0.399-0.514,0.684-0.694c0.285-0.18,0.611-0.312,0.978-0.396
			c0.367-0.084,0.749-0.126,1.146-0.126c0.31,0,0.624,0.024,0.943,0.071c0.318,0.049,0.633,0.118,0.943,0.209v1.668
			c-0.273-0.159-0.566-0.279-0.879-0.359c-0.312-0.079-0.618-0.119-0.919-0.119c-0.142,0-0.274,0.013-0.4,0.037
			c-0.125,0.025-0.235,0.062-0.331,0.109c-0.096,0.049-0.171,0.109-0.226,0.186c-0.055,0.074-0.082,0.16-0.082,0.256
			c0,0.128,0.041,0.237,0.123,0.328s0.188,0.17,0.321,0.236c0.132,0.065,0.279,0.125,0.44,0.178c0.162,0.052,0.322,0.105,0.482,0.16
			c0.287,0.101,0.547,0.21,0.779,0.328s0.432,0.258,0.598,0.417c0.167,0.159,0.294,0.347,0.383,0.561s0.134,0.47,0.134,0.766
			c0,0.415-0.09,0.769-0.271,1.063c-0.18,0.293-0.419,0.533-0.718,0.717c-0.298,0.186-0.643,0.319-1.032,0.404
			c-0.39,0.084-0.794,0.126-1.213,0.126C134.943,87.45,134.23,87.332,133.574,87.094z"/>
	</g>
	<g>
		<rect x="380.586" y="58.577" fill="none" width="123.2" height="34.98"/>
		<path fill="#FFFFFF" d="M384.119,70.479h-2.208v-9.803h2.208V70.479z"/>
		<path fill="#FFFFFF" d="M392.985,70.479h-2.16v-0.964h-0.027c-0.492,0.757-1.214,1.135-2.167,1.135
			c-0.875,0-1.579-0.309-2.112-0.927c-0.533-0.617-0.8-1.479-0.8-2.587c0-1.157,0.294-2.085,0.882-2.782
			c0.588-0.697,1.358-1.046,2.311-1.046c0.902,0,1.531,0.323,1.887,0.971h0.027v-4.163h2.16V70.479z M390.866,67.075v-0.526
			c0-0.456-0.132-0.834-0.396-1.135c-0.264-0.301-0.608-0.451-1.032-0.451c-0.479,0-0.852,0.188-1.121,0.563
			c-0.269,0.377-0.403,0.893-0.403,1.549c0,0.615,0.13,1.089,0.39,1.422s0.62,0.499,1.08,0.499c0.438,0,0.794-0.176,1.07-0.526
			C390.728,68.119,390.866,67.654,390.866,67.075z"/>
		<path fill="#FFFFFF" d="M401.092,67.594h-4.566c0.073,1.017,0.714,1.524,1.921,1.524c0.771,0,1.447-0.183,2.03-0.547v1.559
			c-0.646,0.347-1.487,0.52-2.522,0.52c-1.13,0-2.007-0.313-2.632-0.94c-0.624-0.626-0.937-1.5-0.937-2.621
			c0-1.162,0.338-2.083,1.012-2.762c0.675-0.679,1.504-1.019,2.488-1.019c1.021,0,1.811,0.303,2.369,0.909
			c0.558,0.606,0.837,1.429,0.837,2.468V67.594z M399.089,66.268c0-1.003-0.405-1.504-1.217-1.504c-0.346,0-0.646,0.144-0.898,0.431
			s-0.407,0.645-0.462,1.073H399.089z"/>
		<path fill="#FFFFFF" d="M409.218,70.479h-2.153v-3.89c0-1.085-0.388-1.627-1.162-1.627c-0.374,0-0.682,0.144-0.923,0.431
			c-0.242,0.287-0.362,0.651-0.362,1.094v3.992h-2.16v-7h2.16v1.107h0.027c0.515-0.853,1.265-1.278,2.249-1.278
			c1.549,0,2.324,0.962,2.324,2.885V70.479z"/>
		<path fill="#FFFFFF" d="M415.068,70.397c-0.319,0.169-0.8,0.253-1.442,0.253c-1.522,0-2.283-0.791-2.283-2.372v-3.206h-1.135
			v-1.593h1.135v-1.511l2.153-0.615v2.126h1.572v1.593h-1.572v2.83c0,0.729,0.289,1.094,0.868,1.094
			c0.228,0,0.462-0.066,0.704-0.198V70.397z"/>
		<path fill="#FFFFFF" d="M417.446,62.372c-0.365,0-0.663-0.108-0.896-0.324c-0.232-0.217-0.349-0.482-0.349-0.797
			c0-0.323,0.116-0.588,0.349-0.793s0.53-0.308,0.896-0.308c0.369,0,0.669,0.103,0.898,0.308c0.23,0.205,0.346,0.47,0.346,0.793
			c0,0.328-0.115,0.597-0.346,0.807C418.115,62.267,417.815,62.372,417.446,62.372z M418.512,70.479h-2.16v-7h2.16V70.479z"/>
		<path fill="#FFFFFF" d="M424.792,61.77c-0.277-0.109-0.544-0.164-0.8-0.164c-0.692,0-1.039,0.376-1.039,1.128v0.745h1.6v1.593
			h-1.6v5.407h-2.153v-5.407h-1.176v-1.593h1.176v-0.868c0-0.798,0.26-1.44,0.779-1.928s1.227-0.731,2.119-0.731
			c0.438,0,0.803,0.046,1.094,0.137V61.77z"/>
		<path fill="#FFFFFF" d="M432.69,63.479l-2.844,7.561c-0.684,1.818-1.713,2.728-3.09,2.728c-0.523,0-0.954-0.06-1.292-0.178v-1.723
			c0.287,0.169,0.6,0.253,0.937,0.253c0.557,0,0.943-0.262,1.162-0.786l0.369-0.868l-2.844-6.986h2.393l1.306,4.259
			c0.082,0.265,0.146,0.576,0.191,0.937h0.027c0.041-0.265,0.116-0.572,0.226-0.923l1.319-4.272H432.69z"/>
		<path fill="#FFFFFF" d="M441.987,61.77c-0.277-0.109-0.544-0.164-0.8-0.164c-0.692,0-1.039,0.376-1.039,1.128v0.745h1.6v1.593
			h-1.6v5.407h-2.153v-5.407h-1.176v-1.593h1.176v-0.868c0-0.798,0.26-1.44,0.779-1.928s1.227-0.731,2.119-0.731
			c0.438,0,0.803,0.046,1.094,0.137V61.77z"/>
		<path fill="#FFFFFF" d="M449.459,70.479h-2.153v-1.066h-0.034c-0.533,0.825-1.247,1.237-2.14,1.237
			c-1.623,0-2.434-0.982-2.434-2.946v-4.225h2.153v4.033c0,0.989,0.392,1.483,1.176,1.483c0.387,0,0.697-0.136,0.93-0.407
			c0.232-0.271,0.349-0.639,0.349-1.104v-4.006h2.153V70.479z"/>
		<path fill="#FFFFFF" d="M457.987,70.479h-2.153v-3.89c0-1.085-0.388-1.627-1.162-1.627c-0.374,0-0.682,0.144-0.923,0.431
			c-0.242,0.287-0.362,0.651-0.362,1.094v3.992h-2.16v-7h2.16v1.107h0.027c0.515-0.853,1.265-1.278,2.249-1.278
			c1.549,0,2.324,0.962,2.324,2.885V70.479z"/>
		<path fill="#FFFFFF" d="M465.001,70.226c-0.488,0.282-1.192,0.424-2.112,0.424c-1.076,0-1.946-0.326-2.611-0.978
			c-0.666-0.651-0.998-1.492-0.998-2.522c0-1.189,0.356-2.127,1.069-2.813c0.714-0.686,1.667-1.028,2.861-1.028
			c0.824,0,1.422,0.109,1.791,0.328v1.832c-0.451-0.337-0.955-0.506-1.511-0.506c-0.62,0-1.111,0.181-1.474,0.544
			c-0.362,0.361-0.543,0.862-0.543,1.5c0,0.62,0.173,1.106,0.52,1.459c0.346,0.354,0.822,0.53,1.429,0.53
			c0.537,0,1.063-0.169,1.579-0.506V70.226z"/>
		<path fill="#FFFFFF" d="M470.732,70.397c-0.318,0.169-0.8,0.253-1.442,0.253c-1.521,0-2.283-0.791-2.283-2.372v-3.206h-1.135
			v-1.593h1.135v-1.511l2.153-0.615v2.126h1.572v1.593h-1.572v2.83c0,0.729,0.29,1.094,0.868,1.094c0.229,0,0.463-0.066,0.704-0.198
			V70.397z"/>
		<path fill="#FFFFFF" d="M473.11,62.372c-0.364,0-0.663-0.108-0.896-0.324c-0.232-0.217-0.349-0.482-0.349-0.797
			c0-0.323,0.116-0.588,0.349-0.793s0.531-0.308,0.896-0.308c0.369,0,0.669,0.103,0.899,0.308c0.229,0.205,0.345,0.47,0.345,0.793
			c0,0.328-0.115,0.597-0.345,0.807C473.779,62.267,473.479,62.372,473.11,62.372z M474.176,70.479h-2.16v-7h2.16V70.479z"/>
		<path fill="#FFFFFF" d="M479.288,70.65c-1.167,0-2.084-0.327-2.752-0.981c-0.667-0.653-1.001-1.541-1.001-2.662
			c0-1.157,0.346-2.063,1.039-2.717c0.692-0.654,1.629-0.981,2.81-0.981c1.162,0,2.073,0.327,2.734,0.981
			c0.66,0.653,0.991,1.519,0.991,2.594c0,1.162-0.341,2.08-1.022,2.755C481.406,70.313,480.472,70.65,479.288,70.65z
			 M479.342,64.963c-0.511,0-0.907,0.176-1.189,0.526c-0.283,0.351-0.424,0.848-0.424,1.49c0,1.345,0.542,2.017,1.627,2.017
			c1.034,0,1.552-0.69,1.552-2.071C480.908,65.617,480.385,64.963,479.342,64.963z"/>
		<path fill="#FFFFFF" d="M491.25,70.479h-2.153v-3.89c0-1.085-0.387-1.627-1.162-1.627c-0.373,0-0.681,0.144-0.923,0.431
			c-0.241,0.287-0.362,0.651-0.362,1.094v3.992h-2.16v-7h2.16v1.107h0.027c0.516-0.853,1.265-1.278,2.249-1.278
			c1.55,0,2.324,0.962,2.324,2.885V70.479z"/>
		<path fill="#FFFFFF" d="M498.815,70.479h-2.044v-1.005h-0.027c-0.469,0.784-1.164,1.176-2.085,1.176
			c-0.679,0-1.213-0.192-1.603-0.577c-0.39-0.386-0.585-0.899-0.585-1.542c0-1.358,0.805-2.142,2.413-2.352l1.9-0.253
			c0-0.766-0.414-1.148-1.244-1.148c-0.834,0-1.627,0.248-2.379,0.745v-1.627c0.301-0.155,0.712-0.292,1.234-0.41
			c0.521-0.118,0.997-0.178,1.425-0.178c1.996,0,2.994,0.996,2.994,2.987V70.479z M496.785,67.635v-0.472l-1.271,0.164
			c-0.701,0.091-1.053,0.408-1.053,0.95c0,0.246,0.086,0.447,0.257,0.605c0.171,0.156,0.402,0.235,0.693,0.235
			c0.406,0,0.736-0.14,0.991-0.421C496.658,68.419,496.785,68.064,496.785,67.635z"/>
		<path fill="#FFFFFF" d="M502.673,70.479h-2.16V60.116h2.16V70.479z"/>
		<path fill="#FFFFFF" d="M403.48,82.227c-0.26-0.142-0.563-0.212-0.909-0.212c-0.47,0-0.837,0.172-1.101,0.516
			c-0.265,0.345-0.396,0.812-0.396,1.405v3.343h-2.16v-7h2.16v1.299h0.027c0.342-0.948,0.957-1.422,1.846-1.422
			c0.228,0,0.405,0.027,0.533,0.082V82.227z"/>
		<path fill="#FFFFFF" d="M410.852,84.394h-4.566c0.073,1.017,0.714,1.524,1.921,1.524c0.771,0,1.447-0.183,2.03-0.547v1.559
			c-0.646,0.347-1.487,0.52-2.522,0.52c-1.13,0-2.007-0.313-2.632-0.94c-0.624-0.626-0.937-1.5-0.937-2.621
			c0-1.162,0.338-2.083,1.012-2.762c0.675-0.679,1.504-1.019,2.488-1.019c1.021,0,1.811,0.303,2.369,0.909
			c0.558,0.606,0.837,1.429,0.837,2.468V84.394z M408.849,83.068c0-1.003-0.405-1.504-1.217-1.504c-0.346,0-0.646,0.144-0.898,0.431
			s-0.407,0.645-0.462,1.073H408.849z"/>
		<path fill="#FFFFFF" d="M419.097,90.499h-2.16v-4.184h-0.027c-0.487,0.757-1.205,1.135-2.153,1.135
			c-0.879,0-1.587-0.307-2.122-0.919c-0.536-0.613-0.804-1.474-0.804-2.581c0-1.167,0.294-2.099,0.882-2.796
			s1.354-1.046,2.297-1.046c0.857,0,1.49,0.328,1.9,0.984h0.027v-0.813h2.16V90.499z M416.978,83.936v-0.561
			c0-0.456-0.132-0.839-0.396-1.148c-0.264-0.31-0.604-0.465-1.019-0.465c-0.479,0-0.854,0.188-1.128,0.563
			c-0.273,0.377-0.41,0.897-0.41,1.562c0,0.597,0.134,1.064,0.4,1.401s0.614,0.506,1.042,0.506c0.456,0,0.821-0.171,1.098-0.513
			C416.84,84.941,416.978,84.492,416.978,83.936z"/>
		<path fill="#FFFFFF" d="M427.554,87.279h-2.153v-1.066h-0.034c-0.533,0.825-1.246,1.237-2.14,1.237
			c-1.622,0-2.434-0.982-2.434-2.946v-4.225h2.153v4.033c0,0.989,0.393,1.483,1.176,1.483c0.388,0,0.697-0.136,0.93-0.407
			c0.232-0.271,0.349-0.639,0.349-1.104v-4.006h2.153V87.279z"/>
		<path fill="#FFFFFF" d="M430.418,79.172c-0.364,0-0.663-0.108-0.896-0.324c-0.232-0.217-0.349-0.482-0.349-0.797
			c0-0.323,0.116-0.588,0.349-0.793s0.531-0.308,0.896-0.308c0.369,0,0.669,0.103,0.899,0.308c0.229,0.205,0.345,0.47,0.345,0.793
			c0,0.328-0.115,0.597-0.345,0.807C431.087,79.067,430.787,79.172,430.418,79.172z M431.484,87.279h-2.16v-7h2.16V87.279z"/>
		<path fill="#FFFFFF" d="M437.833,82.227c-0.26-0.142-0.563-0.212-0.909-0.212c-0.47,0-0.837,0.172-1.101,0.516
			c-0.265,0.345-0.396,0.812-0.396,1.405v3.343h-2.16v-7h2.16v1.299h0.027c0.342-0.948,0.957-1.422,1.846-1.422
			c0.228,0,0.405,0.027,0.533,0.082V82.227z"/>
		<path fill="#FFFFFF" d="M445.205,84.394h-4.566c0.073,1.017,0.714,1.524,1.921,1.524c0.771,0,1.447-0.183,2.03-0.547v1.559
			c-0.646,0.347-1.487,0.52-2.522,0.52c-1.13,0-2.007-0.313-2.632-0.94c-0.624-0.626-0.937-1.5-0.937-2.621
			c0-1.162,0.338-2.083,1.012-2.762c0.675-0.679,1.504-1.019,2.488-1.019c1.021,0,1.811,0.303,2.369,0.909
			c0.558,0.606,0.837,1.429,0.837,2.468V84.394z M443.202,83.068c0-1.003-0.405-1.504-1.217-1.504c-0.346,0-0.646,0.144-0.898,0.431
			s-0.407,0.645-0.462,1.073H443.202z"/>
		<path fill="#FFFFFF" d="M457.683,87.279h-2.153v-3.992c0-1.017-0.373-1.524-1.121-1.524c-0.355,0-0.645,0.152-0.868,0.458
			c-0.223,0.306-0.335,0.686-0.335,1.142v3.917h-2.16v-4.033c0-0.989-0.366-1.483-1.101-1.483c-0.369,0-0.664,0.146-0.885,0.438
			c-0.222,0.292-0.332,0.688-0.332,1.189v3.89h-2.16v-7h2.16v1.094h0.027c0.224-0.374,0.537-0.678,0.94-0.912
			c0.403-0.235,0.844-0.353,1.322-0.353c0.989,0,1.666,0.436,2.03,1.306c0.533-0.87,1.317-1.306,2.352-1.306
			c1.522,0,2.283,0.938,2.283,2.816V87.279z"/>
		<path fill="#FFFFFF" d="M465.704,84.394h-4.566c0.073,1.017,0.714,1.524,1.921,1.524c0.771,0,1.447-0.183,2.03-0.547v1.559
			c-0.646,0.347-1.487,0.52-2.522,0.52c-1.13,0-2.007-0.313-2.632-0.94c-0.624-0.626-0.937-1.5-0.937-2.621
			c0-1.162,0.338-2.083,1.012-2.762c0.675-0.679,1.504-1.019,2.488-1.019c1.021,0,1.811,0.303,2.369,0.909
			c0.558,0.606,0.837,1.429,0.837,2.468V84.394z M463.701,83.068c0-1.003-0.405-1.504-1.217-1.504c-0.346,0-0.646,0.144-0.898,0.431
			s-0.407,0.645-0.462,1.073H463.701z"/>
		<path fill="#FFFFFF" d="M473.83,87.279h-2.153v-3.89c0-1.085-0.387-1.627-1.162-1.627c-0.373,0-0.681,0.144-0.923,0.431
			c-0.241,0.287-0.362,0.651-0.362,1.094v3.992h-2.16v-7h2.16v1.107h0.027c0.516-0.853,1.265-1.278,2.249-1.278
			c1.55,0,2.324,0.962,2.324,2.885V87.279z"/>
		<path fill="#FFFFFF" d="M479.679,87.197c-0.319,0.169-0.8,0.253-1.442,0.253c-1.522,0-2.283-0.791-2.283-2.372v-3.206h-1.135
			v-1.593h1.135v-1.511l2.153-0.615v2.126h1.572v1.593h-1.572v2.83c0,0.729,0.289,1.094,0.868,1.094
			c0.228,0,0.462-0.066,0.704-0.198V87.197z"/>
		<path fill="#FFFFFF" d="M480.661,87.094v-1.75c0.355,0.214,0.71,0.374,1.062,0.479c0.354,0.104,0.688,0.157,1.002,0.157
			c0.383,0,0.685-0.053,0.905-0.157c0.222-0.104,0.332-0.265,0.332-0.479c0-0.137-0.051-0.251-0.15-0.342
			c-0.101-0.091-0.229-0.171-0.387-0.239s-0.329-0.13-0.516-0.185c-0.188-0.055-0.367-0.116-0.54-0.185
			c-0.278-0.104-0.523-0.218-0.735-0.338c-0.212-0.121-0.39-0.262-0.533-0.421s-0.253-0.344-0.328-0.554s-0.112-0.458-0.112-0.745
			c0-0.392,0.085-0.729,0.256-1.012s0.399-0.514,0.684-0.694c0.285-0.18,0.611-0.312,0.978-0.396
			c0.367-0.084,0.749-0.126,1.146-0.126c0.31,0,0.624,0.024,0.943,0.071c0.318,0.049,0.633,0.118,0.943,0.209v1.668
			c-0.273-0.159-0.566-0.279-0.879-0.359c-0.312-0.079-0.618-0.119-0.919-0.119c-0.142,0-0.274,0.013-0.4,0.037
			c-0.125,0.025-0.235,0.062-0.331,0.109c-0.096,0.049-0.171,0.109-0.226,0.186c-0.055,0.074-0.082,0.16-0.082,0.256
			c0,0.128,0.041,0.237,0.123,0.328s0.188,0.17,0.321,0.236c0.132,0.065,0.279,0.125,0.44,0.178c0.162,0.052,0.322,0.105,0.482,0.16
			c0.287,0.101,0.547,0.21,0.779,0.328s0.432,0.258,0.598,0.417c0.167,0.159,0.294,0.347,0.383,0.561s0.134,0.47,0.134,0.766
			c0,0.415-0.09,0.769-0.271,1.063c-0.18,0.293-0.419,0.533-0.718,0.717c-0.298,0.186-0.643,0.319-1.032,0.404
			c-0.39,0.084-0.794,0.126-1.213,0.126C482.03,87.45,481.317,87.332,480.661,87.094z"/>
	</g>
	<g>
		<rect x="552.698" y="58.577" fill="none" width="123.2" height="34.98"/>
		<path fill="#FFFFFF" d="M560.259,70.479h-2.208v-9.803h2.208V70.479z"/>
		<path fill="#FFFFFF" d="M569.126,70.479h-2.16v-0.964h-0.027c-0.492,0.757-1.214,1.135-2.167,1.135
			c-0.875,0-1.579-0.309-2.112-0.927c-0.533-0.617-0.8-1.479-0.8-2.587c0-1.157,0.294-2.085,0.882-2.782
			c0.588-0.697,1.358-1.046,2.311-1.046c0.902,0,1.531,0.323,1.887,0.971h0.027v-4.163h2.16V70.479z M567.006,67.075v-0.526
			c0-0.456-0.132-0.834-0.396-1.135c-0.264-0.301-0.608-0.451-1.032-0.451c-0.479,0-0.852,0.188-1.121,0.563
			c-0.269,0.377-0.403,0.893-0.403,1.549c0,0.615,0.13,1.089,0.39,1.422s0.62,0.499,1.08,0.499c0.438,0,0.794-0.176,1.07-0.526
			C566.869,68.119,567.006,67.654,567.006,67.075z"/>
		<path fill="#FFFFFF" d="M577.233,67.594h-4.566c0.073,1.017,0.714,1.524,1.921,1.524c0.771,0,1.447-0.183,2.03-0.547v1.559
			c-0.646,0.347-1.487,0.52-2.522,0.52c-1.13,0-2.007-0.313-2.632-0.94c-0.624-0.626-0.937-1.5-0.937-2.621
			c0-1.162,0.338-2.083,1.012-2.762c0.675-0.679,1.504-1.019,2.488-1.019c1.021,0,1.811,0.303,2.369,0.909
			c0.558,0.606,0.837,1.429,0.837,2.468V67.594z M575.23,66.268c0-1.003-0.405-1.504-1.217-1.504c-0.346,0-0.646,0.144-0.898,0.431
			s-0.407,0.645-0.462,1.073H575.23z"/>
		<path fill="#FFFFFF" d="M585.359,70.479h-2.153v-3.89c0-1.085-0.388-1.627-1.162-1.627c-0.374,0-0.682,0.144-0.923,0.431
			c-0.242,0.287-0.362,0.651-0.362,1.094v3.992h-2.16v-7h2.16v1.107h0.027c0.515-0.853,1.265-1.278,2.249-1.278
			c1.549,0,2.324,0.962,2.324,2.885V70.479z"/>
		<path fill="#FFFFFF" d="M591.209,70.397c-0.319,0.169-0.8,0.253-1.442,0.253c-1.522,0-2.283-0.791-2.283-2.372v-3.206h-1.135
			v-1.593h1.135v-1.511l2.153-0.615v2.126h1.572v1.593h-1.572v2.83c0,0.729,0.289,1.094,0.868,1.094
			c0.228,0,0.462-0.066,0.704-0.198V70.397z"/>
		<path fill="#FFFFFF" d="M593.587,62.372c-0.365,0-0.663-0.108-0.896-0.324c-0.232-0.217-0.349-0.482-0.349-0.797
			c0-0.323,0.116-0.588,0.349-0.793s0.53-0.308,0.896-0.308c0.369,0,0.669,0.103,0.898,0.308c0.23,0.205,0.346,0.47,0.346,0.793
			c0,0.328-0.115,0.597-0.346,0.807C594.255,62.267,593.956,62.372,593.587,62.372z M594.653,70.479h-2.16v-7h2.16V70.479z"/>
		<path fill="#FFFFFF" d="M600.932,61.77c-0.277-0.109-0.544-0.164-0.8-0.164c-0.692,0-1.039,0.376-1.039,1.128v0.745h1.6v1.593
			h-1.6v5.407h-2.153v-5.407h-1.176v-1.593h1.176v-0.868c0-0.798,0.26-1.44,0.779-1.928s1.227-0.731,2.119-0.731
			c0.438,0,0.803,0.046,1.094,0.137V61.77z"/>
		<path fill="#FFFFFF" d="M608.831,63.479l-2.844,7.561c-0.684,1.818-1.713,2.728-3.09,2.728c-0.523,0-0.954-0.06-1.292-0.178
			v-1.723c0.287,0.169,0.6,0.253,0.937,0.253c0.557,0,0.943-0.262,1.162-0.786l0.369-0.868l-2.844-6.986h2.393l1.306,4.259
			c0.082,0.265,0.146,0.576,0.191,0.937h0.027c0.041-0.265,0.116-0.572,0.226-0.923l1.319-4.272H608.831z"/>
		<path fill="#FFFFFF" d="M617.793,70.397c-0.318,0.169-0.8,0.253-1.442,0.253c-1.521,0-2.283-0.791-2.283-2.372v-3.206h-1.135
			v-1.593h1.135v-1.511l2.153-0.615v2.126h1.572v1.593h-1.572v2.83c0,0.729,0.29,1.094,0.868,1.094c0.229,0,0.463-0.066,0.704-0.198
			V70.397z"/>
		<path fill="#FFFFFF" d="M625.279,67.594h-4.566c0.073,1.017,0.714,1.524,1.921,1.524c0.771,0,1.447-0.183,2.03-0.547v1.559
			c-0.646,0.347-1.487,0.52-2.522,0.52c-1.13,0-2.007-0.313-2.632-0.94c-0.624-0.626-0.937-1.5-0.937-2.621
			c0-1.162,0.338-2.083,1.012-2.762c0.675-0.679,1.504-1.019,2.488-1.019c1.021,0,1.811,0.303,2.369,0.909
			c0.558,0.606,0.837,1.429,0.837,2.468V67.594z M623.276,66.268c0-1.003-0.405-1.504-1.217-1.504c-0.346,0-0.646,0.144-0.898,0.431
			s-0.407,0.645-0.462,1.073H623.276z"/>
		<path fill="#FFFFFF" d="M631.951,70.226c-0.488,0.282-1.192,0.424-2.112,0.424c-1.076,0-1.946-0.326-2.611-0.978
			c-0.666-0.651-0.998-1.492-0.998-2.522c0-1.189,0.356-2.127,1.069-2.813c0.714-0.686,1.667-1.028,2.861-1.028
			c0.824,0,1.422,0.109,1.791,0.328v1.832c-0.451-0.337-0.955-0.506-1.511-0.506c-0.62,0-1.111,0.181-1.474,0.544
			c-0.362,0.361-0.543,0.862-0.543,1.5c0,0.62,0.173,1.106,0.52,1.459c0.346,0.354,0.822,0.53,1.429,0.53
			c0.537,0,1.063-0.169,1.579-0.506V70.226z"/>
		<path fill="#FFFFFF" d="M640.187,70.479h-2.153v-3.979c0-1.025-0.373-1.538-1.121-1.538c-0.383,0-0.692,0.144-0.93,0.431
			c-0.236,0.287-0.355,0.651-0.355,1.094v3.992h-2.16V60.116h2.16v4.402h0.027c0.529-0.807,1.247-1.21,2.153-1.21
			c1.586,0,2.379,0.957,2.379,2.871V70.479z"/>
		<path fill="#FFFFFF" d="M648.644,70.479h-2.153v-3.89c0-1.085-0.387-1.627-1.162-1.627c-0.373,0-0.681,0.144-0.923,0.431
			c-0.241,0.287-0.362,0.651-0.362,1.094v3.992h-2.16v-7h2.16v1.107h0.027c0.516-0.853,1.265-1.278,2.249-1.278
			c1.55,0,2.324,0.962,2.324,2.885V70.479z"/>
		<path fill="#FFFFFF" d="M651.417,62.372c-0.365,0-0.663-0.108-0.896-0.324c-0.232-0.217-0.349-0.482-0.349-0.797
			c0-0.323,0.116-0.588,0.349-0.793s0.53-0.308,0.896-0.308c0.369,0,0.669,0.103,0.898,0.308c0.23,0.205,0.346,0.47,0.346,0.793
			c0,0.328-0.115,0.597-0.346,0.807C652.086,62.267,651.786,62.372,651.417,62.372z M652.483,70.479h-2.16v-7h2.16V70.479z"/>
		<path fill="#FFFFFF" d="M659.562,70.226c-0.487,0.282-1.191,0.424-2.112,0.424c-1.075,0-1.945-0.326-2.611-0.978
			c-0.665-0.651-0.998-1.492-0.998-2.522c0-1.189,0.356-2.127,1.07-2.813c0.713-0.686,1.667-1.028,2.86-1.028
			c0.825,0,1.422,0.109,1.791,0.328v1.832c-0.451-0.337-0.954-0.506-1.511-0.506c-0.619,0-1.11,0.181-1.473,0.544
			c-0.362,0.361-0.544,0.862-0.544,1.5c0,0.62,0.174,1.106,0.52,1.459c0.347,0.354,0.823,0.53,1.429,0.53
			c0.538,0,1.064-0.169,1.579-0.506V70.226z"/>
		<path fill="#FFFFFF" d="M666.898,70.479h-2.044v-1.005h-0.027c-0.469,0.784-1.164,1.176-2.085,1.176
			c-0.679,0-1.213-0.192-1.603-0.577c-0.39-0.386-0.585-0.899-0.585-1.542c0-1.358,0.805-2.142,2.413-2.352l1.9-0.253
			c0-0.766-0.414-1.148-1.244-1.148c-0.834,0-1.627,0.248-2.379,0.745v-1.627c0.301-0.155,0.712-0.292,1.234-0.41
			c0.521-0.118,0.997-0.178,1.425-0.178c1.996,0,2.994,0.996,2.994,2.987V70.479z M664.868,67.635v-0.472l-1.271,0.164
			c-0.701,0.091-1.053,0.408-1.053,0.95c0,0.246,0.086,0.447,0.257,0.605c0.171,0.156,0.402,0.235,0.693,0.235
			c0.406,0,0.736-0.14,0.991-0.421C664.741,68.419,664.868,68.064,664.868,67.635z"/>
		<path fill="#FFFFFF" d="M670.756,70.479h-2.16V60.116h2.16V70.479z"/>
		<path fill="#FFFFFF" d="M575.591,82.227c-0.26-0.142-0.562-0.212-0.909-0.212c-0.469,0-0.836,0.172-1.101,0.516
			c-0.264,0.345-0.396,0.812-0.396,1.405v3.343h-2.16v-7h2.16v1.299h0.027c0.342-0.948,0.957-1.422,1.846-1.422
			c0.229,0,0.406,0.027,0.533,0.082V82.227z"/>
		<path fill="#FFFFFF" d="M582.964,84.394h-4.566c0.072,1.017,0.713,1.524,1.921,1.524c0.77,0,1.446-0.183,2.03-0.547v1.559
			c-0.647,0.347-1.488,0.52-2.522,0.52c-1.131,0-2.008-0.313-2.632-0.94c-0.625-0.626-0.937-1.5-0.937-2.621
			c0-1.162,0.337-2.083,1.012-2.762c0.674-0.679,1.504-1.019,2.488-1.019c1.021,0,1.811,0.303,2.368,0.909
			c0.559,0.606,0.838,1.429,0.838,2.468V84.394z M580.962,83.068c0-1.003-0.406-1.504-1.217-1.504c-0.347,0-0.646,0.144-0.899,0.431
			s-0.406,0.645-0.461,1.073H580.962z"/>
		<path fill="#FFFFFF" d="M591.21,90.499h-2.16v-4.184h-0.027c-0.488,0.757-1.206,1.135-2.153,1.135
			c-0.88,0-1.587-0.307-2.123-0.919c-0.535-0.613-0.803-1.474-0.803-2.581c0-1.167,0.294-2.099,0.882-2.796s1.354-1.046,2.297-1.046
			c0.856,0,1.49,0.328,1.9,0.984h0.027v-0.813h2.16V90.499z M589.09,83.936v-0.561c0-0.456-0.133-0.839-0.396-1.148
			c-0.265-0.31-0.604-0.465-1.019-0.465c-0.479,0-0.854,0.188-1.128,0.563c-0.273,0.377-0.41,0.897-0.41,1.562
			c0,0.597,0.133,1.064,0.399,1.401s0.614,0.506,1.043,0.506c0.455,0,0.821-0.171,1.097-0.513
			C588.953,84.941,589.09,84.492,589.09,83.936z"/>
		<path fill="#FFFFFF" d="M599.667,87.279h-2.153v-1.066h-0.034c-0.533,0.825-1.247,1.237-2.14,1.237
			c-1.623,0-2.434-0.982-2.434-2.946v-4.225h2.153v4.033c0,0.989,0.392,1.483,1.176,1.483c0.387,0,0.697-0.136,0.93-0.407
			c0.232-0.271,0.349-0.639,0.349-1.104v-4.006h2.153V87.279z"/>
		<path fill="#FFFFFF" d="M602.53,79.172c-0.365,0-0.663-0.108-0.896-0.324c-0.232-0.217-0.349-0.482-0.349-0.797
			c0-0.323,0.116-0.588,0.349-0.793s0.53-0.308,0.896-0.308c0.369,0,0.669,0.103,0.898,0.308c0.23,0.205,0.346,0.47,0.346,0.793
			c0,0.328-0.115,0.597-0.346,0.807C603.199,79.067,602.899,79.172,602.53,79.172z M603.596,87.279h-2.16v-7h2.16V87.279z"/>
		<path fill="#FFFFFF" d="M609.944,82.227c-0.26-0.142-0.562-0.212-0.909-0.212c-0.469,0-0.836,0.172-1.101,0.516
			c-0.264,0.345-0.396,0.812-0.396,1.405v3.343h-2.16v-7h2.16v1.299h0.027c0.342-0.948,0.957-1.422,1.846-1.422
			c0.229,0,0.406,0.027,0.533,0.082V82.227z"/>
		<path fill="#FFFFFF" d="M617.317,84.394h-4.566c0.072,1.017,0.713,1.524,1.921,1.524c0.77,0,1.446-0.183,2.03-0.547v1.559
			c-0.647,0.347-1.488,0.52-2.522,0.52c-1.131,0-2.008-0.313-2.632-0.94c-0.625-0.626-0.937-1.5-0.937-2.621
			c0-1.162,0.337-2.083,1.012-2.762c0.674-0.679,1.504-1.019,2.488-1.019c1.021,0,1.811,0.303,2.368,0.909
			c0.559,0.606,0.838,1.429,0.838,2.468V84.394z M615.314,83.068c0-1.003-0.406-1.504-1.217-1.504c-0.347,0-0.646,0.144-0.899,0.431
			s-0.406,0.645-0.461,1.073H615.314z"/>
		<path fill="#FFFFFF" d="M629.796,87.279h-2.153v-3.992c0-1.017-0.374-1.524-1.121-1.524c-0.355,0-0.646,0.152-0.868,0.458
			c-0.224,0.306-0.335,0.686-0.335,1.142v3.917h-2.16v-4.033c0-0.989-0.367-1.483-1.101-1.483c-0.369,0-0.664,0.146-0.886,0.438
			c-0.221,0.292-0.331,0.688-0.331,1.189v3.89h-2.16v-7h2.16v1.094h0.027c0.223-0.374,0.536-0.678,0.939-0.912
			c0.403-0.235,0.845-0.353,1.323-0.353c0.988,0,1.665,0.436,2.03,1.306c0.533-0.87,1.316-1.306,2.352-1.306
			c1.521,0,2.283,0.938,2.283,2.816V87.279z"/>
		<path fill="#FFFFFF" d="M637.816,84.394h-4.566c0.072,1.017,0.713,1.524,1.921,1.524c0.77,0,1.446-0.183,2.03-0.547v1.559
			c-0.647,0.347-1.488,0.52-2.522,0.52c-1.131,0-2.008-0.313-2.632-0.94c-0.625-0.626-0.937-1.5-0.937-2.621
			c0-1.162,0.337-2.083,1.012-2.762c0.674-0.679,1.504-1.019,2.488-1.019c1.021,0,1.811,0.303,2.368,0.909
			c0.559,0.606,0.838,1.429,0.838,2.468V84.394z M635.813,83.068c0-1.003-0.406-1.504-1.217-1.504c-0.347,0-0.646,0.144-0.899,0.431
			s-0.406,0.645-0.461,1.073H635.813z"/>
		<path fill="#FFFFFF" d="M645.942,87.279h-2.153v-3.89c0-1.085-0.388-1.627-1.162-1.627c-0.374,0-0.682,0.144-0.923,0.431
			c-0.242,0.287-0.362,0.651-0.362,1.094v3.992h-2.16v-7h2.16v1.107h0.027c0.515-0.853,1.265-1.278,2.249-1.278
			c1.549,0,2.324,0.962,2.324,2.885V87.279z"/>
		<path fill="#FFFFFF" d="M651.791,87.197c-0.318,0.169-0.8,0.253-1.442,0.253c-1.521,0-2.283-0.791-2.283-2.372v-3.206h-1.135
			v-1.593h1.135v-1.511l2.153-0.615v2.126h1.572v1.593h-1.572v2.83c0,0.729,0.29,1.094,0.868,1.094c0.229,0,0.463-0.066,0.704-0.198
			V87.197z"/>
		<path fill="#FFFFFF" d="M652.772,87.094v-1.75c0.355,0.214,0.71,0.374,1.063,0.479c0.353,0.104,0.687,0.157,1.001,0.157
			c0.383,0,0.685-0.053,0.906-0.157c0.221-0.104,0.331-0.265,0.331-0.479c0-0.137-0.05-0.251-0.15-0.342
			c-0.1-0.091-0.229-0.171-0.386-0.239s-0.329-0.13-0.517-0.185c-0.187-0.055-0.366-0.116-0.54-0.185
			c-0.277-0.104-0.522-0.218-0.734-0.338c-0.212-0.121-0.39-0.262-0.533-0.421s-0.253-0.344-0.328-0.554s-0.113-0.458-0.113-0.745
			c0-0.392,0.086-0.729,0.257-1.012s0.398-0.514,0.684-0.694c0.284-0.18,0.61-0.312,0.978-0.396
			c0.366-0.084,0.748-0.126,1.145-0.126c0.311,0,0.625,0.024,0.943,0.071c0.319,0.049,0.634,0.118,0.943,0.209v1.668
			c-0.273-0.159-0.566-0.279-0.878-0.359c-0.312-0.079-0.619-0.119-0.92-0.119c-0.141,0-0.274,0.013-0.399,0.037
			c-0.126,0.025-0.236,0.062-0.332,0.109c-0.096,0.049-0.171,0.109-0.226,0.186c-0.055,0.074-0.082,0.16-0.082,0.256
			c0,0.128,0.041,0.237,0.123,0.328s0.189,0.17,0.321,0.236c0.133,0.065,0.279,0.125,0.441,0.178
			c0.161,0.052,0.322,0.105,0.481,0.16c0.287,0.101,0.547,0.21,0.779,0.328s0.432,0.258,0.599,0.417
			c0.166,0.159,0.294,0.347,0.383,0.561s0.133,0.47,0.133,0.766c0,0.415-0.09,0.769-0.27,1.063c-0.181,0.293-0.42,0.533-0.718,0.717
			c-0.299,0.186-0.643,0.319-1.032,0.404c-0.39,0.084-0.794,0.126-1.214,0.126C654.142,87.45,653.428,87.332,652.772,87.094z"/>
	</g>
	<g>
		<rect x="723.786" y="58.577" fill="none" width="123.2" height="34.98"/>
		<path fill="#FFFFFF" d="M754.66,62.474h-3.459v2.406h3.179v1.791h-3.179v3.808h-2.208v-9.803h5.667V62.474z"/>
		<path fill="#FFFFFF" d="M759.251,70.65c-1.167,0-2.084-0.327-2.752-0.981c-0.667-0.653-1.001-1.541-1.001-2.662
			c0-1.157,0.346-2.063,1.039-2.717c0.692-0.654,1.629-0.981,2.81-0.981c1.162,0,2.073,0.327,2.734,0.981
			c0.66,0.653,0.991,1.519,0.991,2.594c0,1.162-0.341,2.08-1.022,2.755C761.369,70.313,760.435,70.65,759.251,70.65z
			 M759.305,64.963c-0.511,0-0.907,0.176-1.189,0.526c-0.283,0.351-0.424,0.848-0.424,1.49c0,1.345,0.542,2.017,1.627,2.017
			c1.034,0,1.552-0.69,1.552-2.071C760.871,65.617,760.348,64.963,759.305,64.963z"/>
		<path fill="#FFFFFF" d="M766.628,70.479h-2.16V60.116h2.16V70.479z"/>
		<path fill="#FFFFFF" d="M770.551,70.479h-2.16V60.116h2.16V70.479z"/>
		<path fill="#FFFFFF" d="M775.695,70.65c-1.167,0-2.084-0.327-2.752-0.981c-0.667-0.653-1.001-1.541-1.001-2.662
			c0-1.157,0.346-2.063,1.039-2.717c0.692-0.654,1.629-0.981,2.81-0.981c1.162,0,2.073,0.327,2.734,0.981
			c0.66,0.653,0.991,1.519,0.991,2.594c0,1.162-0.341,2.08-1.022,2.755C777.813,70.313,776.88,70.65,775.695,70.65z M775.75,64.963
			c-0.511,0-0.907,0.176-1.189,0.526c-0.283,0.351-0.424,0.848-0.424,1.49c0,1.345,0.542,2.017,1.627,2.017
			c1.034,0,1.552-0.69,1.552-2.071C777.315,65.617,776.793,64.963,775.75,64.963z"/>
		<path fill="#FFFFFF" d="M790.894,63.479l-2.017,7h-2.27l-1.032-4.102c-0.068-0.273-0.107-0.572-0.116-0.896h-0.041
			c-0.032,0.355-0.078,0.645-0.137,0.868l-1.107,4.129h-2.242l-1.976-7h2.201l0.964,4.566c0.045,0.214,0.079,0.474,0.103,0.779
			h0.041c0.022-0.319,0.063-0.588,0.123-0.807l1.203-4.539h2.058l1.08,4.566c0.027,0.114,0.059,0.378,0.096,0.793h0.048
			c0.022-0.265,0.059-0.528,0.109-0.793l0.909-4.566H790.894z"/>
		<path fill="#FFFFFF" d="M797.969,69.666h-0.027v0.813h-2.16V60.116h2.16v4.416h0.027c0.533-0.815,1.292-1.224,2.276-1.224
			c0.902,0,1.597,0.31,2.085,0.93c0.487,0.62,0.731,1.468,0.731,2.543c0,1.167-0.285,2.104-0.854,2.81
			c-0.57,0.706-1.331,1.06-2.283,1.06C799.063,70.65,798.411,70.322,797.969,69.666z M797.908,66.713v0.718
			c0,0.451,0.13,0.825,0.39,1.121s0.592,0.444,0.998,0.444c0.492,0,0.874-0.19,1.145-0.571c0.271-0.38,0.407-0.919,0.407-1.616
			c0-0.579-0.124-1.031-0.373-1.356c-0.248-0.326-0.603-0.489-1.062-0.489c-0.434,0-0.792,0.162-1.077,0.485
			C798.05,65.771,797.908,66.193,797.908,66.713z"/>
		<path fill="#FFFFFF" d="M810.798,67.594h-4.566c0.073,1.017,0.714,1.524,1.921,1.524c0.771,0,1.447-0.183,2.03-0.547v1.559
			c-0.646,0.347-1.487,0.52-2.522,0.52c-1.13,0-2.007-0.313-2.632-0.94c-0.624-0.626-0.937-1.5-0.937-2.621
			c0-1.162,0.338-2.083,1.012-2.762c0.675-0.679,1.504-1.019,2.488-1.019c1.021,0,1.811,0.303,2.369,0.909
			c0.558,0.606,0.837,1.429,0.837,2.468V67.594z M808.796,66.268c0-1.003-0.405-1.504-1.217-1.504c-0.346,0-0.646,0.144-0.898,0.431
			s-0.407,0.645-0.462,1.073H808.796z"/>
		<path fill="#FFFFFF" d="M811.787,70.295v-1.75c0.355,0.214,0.71,0.374,1.062,0.479c0.354,0.104,0.688,0.157,1.002,0.157
			c0.383,0,0.685-0.053,0.905-0.157c0.222-0.104,0.332-0.265,0.332-0.479c0-0.137-0.051-0.251-0.15-0.342
			c-0.101-0.091-0.229-0.171-0.387-0.239s-0.329-0.13-0.516-0.185c-0.188-0.055-0.367-0.116-0.54-0.185
			c-0.278-0.104-0.523-0.218-0.735-0.338c-0.212-0.121-0.39-0.262-0.533-0.421s-0.253-0.344-0.328-0.554s-0.112-0.458-0.112-0.745
			c0-0.392,0.085-0.729,0.256-1.012s0.399-0.514,0.684-0.694c0.285-0.18,0.611-0.312,0.978-0.396
			c0.367-0.084,0.749-0.126,1.146-0.126c0.31,0,0.624,0.024,0.943,0.071c0.318,0.049,0.633,0.118,0.943,0.209v1.668
			c-0.273-0.159-0.566-0.279-0.879-0.359c-0.312-0.079-0.618-0.119-0.919-0.119c-0.142,0-0.274,0.013-0.4,0.037
			c-0.125,0.025-0.235,0.062-0.331,0.109c-0.096,0.049-0.171,0.109-0.226,0.186c-0.055,0.074-0.082,0.16-0.082,0.256
			c0,0.128,0.041,0.237,0.123,0.328s0.188,0.17,0.321,0.236c0.132,0.065,0.279,0.125,0.44,0.178c0.162,0.052,0.322,0.105,0.482,0.16
			c0.287,0.101,0.547,0.21,0.779,0.328s0.432,0.258,0.598,0.417c0.167,0.159,0.294,0.347,0.383,0.561s0.134,0.47,0.134,0.766
			c0,0.415-0.09,0.769-0.271,1.063c-0.18,0.293-0.419,0.533-0.718,0.717c-0.298,0.186-0.643,0.319-1.032,0.404
			c-0.39,0.084-0.794,0.126-1.213,0.126C813.156,70.65,812.443,70.532,811.787,70.295z"/>
		<path fill="#FFFFFF" d="M822.593,70.397c-0.319,0.169-0.8,0.253-1.442,0.253c-1.522,0-2.283-0.791-2.283-2.372v-3.206h-1.135
			v-1.593h1.135v-1.511l2.153-0.615v2.126h1.572v1.593h-1.572v2.83c0,0.729,0.289,1.094,0.868,1.094
			c0.228,0,0.462-0.066,0.704-0.198V70.397z"/>
		<path fill="#FFFFFF" d="M759.195,86.465h-0.027v4.033h-2.16v-10.22h2.16v1.053h0.027c0.533-0.815,1.282-1.224,2.249-1.224
			c0.906,0,1.607,0.312,2.102,0.933c0.495,0.623,0.742,1.469,0.742,2.54c0,1.167-0.288,2.104-0.865,2.81
			c-0.576,0.706-1.343,1.06-2.3,1.06C760.279,87.45,759.636,87.122,759.195,86.465z M759.133,83.594v0.561
			c0,0.483,0.127,0.877,0.383,1.183c0.255,0.306,0.59,0.458,1.005,0.458c0.492,0,0.874-0.19,1.145-0.571
			c0.271-0.38,0.407-0.919,0.407-1.616c0-1.23-0.479-1.846-1.436-1.846c-0.442,0-0.804,0.167-1.084,0.503
			C759.273,82.599,759.133,83.043,759.133,83.594z"/>
		<path fill="#FFFFFF" d="M770.271,82.227c-0.26-0.142-0.563-0.212-0.909-0.212c-0.47,0-0.837,0.172-1.101,0.516
			c-0.265,0.345-0.396,0.812-0.396,1.405v3.343h-2.16v-7h2.16v1.299h0.027c0.342-0.948,0.957-1.422,1.846-1.422
			c0.228,0,0.405,0.027,0.533,0.082V82.227z"/>
		<path fill="#FFFFFF" d="M776.995,87.279h-2.044v-1.005h-0.027c-0.47,0.784-1.165,1.176-2.085,1.176
			c-0.68,0-1.214-0.192-1.604-0.577c-0.39-0.386-0.584-0.899-0.584-1.542c0-1.358,0.804-2.142,2.413-2.352l1.9-0.253
			c0-0.766-0.415-1.148-1.244-1.148c-0.834,0-1.627,0.248-2.379,0.745v-1.627c0.301-0.155,0.712-0.292,1.233-0.41
			c0.522-0.118,0.997-0.178,1.426-0.178c1.996,0,2.994,0.996,2.994,2.987V87.279z M774.964,84.435v-0.472l-1.271,0.164
			c-0.702,0.091-1.053,0.408-1.053,0.95c0,0.246,0.085,0.447,0.256,0.605c0.171,0.156,0.402,0.235,0.694,0.235
			c0.405,0,0.735-0.14,0.991-0.421C774.837,85.218,774.964,84.864,774.964,84.435z"/>
		<path fill="#FFFFFF" d="M784.008,87.026c-0.488,0.282-1.192,0.424-2.112,0.424c-1.076,0-1.946-0.326-2.611-0.978
			c-0.666-0.651-0.998-1.492-0.998-2.522c0-1.189,0.356-2.127,1.069-2.813c0.714-0.686,1.667-1.028,2.861-1.028
			c0.824,0,1.422,0.109,1.791,0.328v1.832c-0.451-0.337-0.955-0.506-1.511-0.506c-0.62,0-1.111,0.181-1.474,0.544
			c-0.362,0.361-0.543,0.862-0.543,1.5c0,0.62,0.173,1.106,0.52,1.459c0.346,0.354,0.822,0.53,1.429,0.53
			c0.537,0,1.063-0.169,1.579-0.506V87.026z"/>
		<path fill="#FFFFFF" d="M789.74,87.197c-0.318,0.169-0.8,0.253-1.442,0.253c-1.521,0-2.283-0.791-2.283-2.372v-3.206h-1.135
			v-1.593h1.135v-1.511l2.153-0.615v2.126h1.572v1.593h-1.572v2.83c0,0.729,0.29,1.094,0.868,1.094c0.229,0,0.463-0.066,0.704-0.198
			V87.197z"/>
		<path fill="#FFFFFF" d="M792.118,79.172c-0.364,0-0.663-0.108-0.896-0.324c-0.232-0.217-0.349-0.482-0.349-0.797
			c0-0.323,0.116-0.588,0.349-0.793s0.531-0.308,0.896-0.308c0.369,0,0.669,0.103,0.899,0.308c0.229,0.205,0.345,0.47,0.345,0.793
			c0,0.328-0.115,0.597-0.345,0.807C792.787,79.067,792.487,79.172,792.118,79.172z M793.184,87.279h-2.16v-7h2.16V87.279z"/>
		<path fill="#FFFFFF" d="M800.264,87.026c-0.488,0.282-1.192,0.424-2.112,0.424c-1.076,0-1.946-0.326-2.611-0.978
			c-0.666-0.651-0.998-1.492-0.998-2.522c0-1.189,0.356-2.127,1.069-2.813c0.714-0.686,1.667-1.028,2.861-1.028
			c0.824,0,1.422,0.109,1.791,0.328v1.832c-0.451-0.337-0.955-0.506-1.511-0.506c-0.62,0-1.111,0.181-1.474,0.544
			c-0.362,0.361-0.543,0.862-0.543,1.5c0,0.62,0.173,1.106,0.52,1.459c0.346,0.354,0.822,0.53,1.429,0.53
			c0.537,0,1.063-0.169,1.579-0.506V87.026z"/>
		<path fill="#FFFFFF" d="M807.979,84.394h-4.566c0.073,1.017,0.714,1.524,1.921,1.524c0.771,0,1.447-0.183,2.03-0.547v1.559
			c-0.646,0.347-1.487,0.52-2.522,0.52c-1.13,0-2.007-0.313-2.632-0.94c-0.624-0.626-0.937-1.5-0.937-2.621
			c0-1.162,0.338-2.083,1.012-2.762c0.675-0.679,1.504-1.019,2.488-1.019c1.021,0,1.811,0.303,2.369,0.909
			c0.558,0.606,0.837,1.429,0.837,2.468V84.394z M805.976,83.068c0-1.003-0.405-1.504-1.217-1.504c-0.346,0-0.646,0.144-0.898,0.431
			s-0.407,0.645-0.462,1.073H805.976z"/>
		<path fill="#FFFFFF" d="M808.967,87.094v-1.75c0.355,0.214,0.71,0.374,1.063,0.479c0.353,0.104,0.687,0.157,1.001,0.157
			c0.383,0,0.685-0.053,0.906-0.157c0.221-0.104,0.331-0.265,0.331-0.479c0-0.137-0.05-0.251-0.15-0.342
			c-0.1-0.091-0.229-0.171-0.386-0.239s-0.329-0.13-0.517-0.185c-0.187-0.055-0.366-0.116-0.54-0.185
			c-0.277-0.104-0.522-0.218-0.734-0.338c-0.212-0.121-0.39-0.262-0.533-0.421s-0.253-0.344-0.328-0.554s-0.113-0.458-0.113-0.745
			c0-0.392,0.086-0.729,0.257-1.012s0.398-0.514,0.684-0.694c0.284-0.18,0.61-0.312,0.978-0.396
			c0.366-0.084,0.748-0.126,1.145-0.126c0.311,0,0.625,0.024,0.943,0.071c0.319,0.049,0.634,0.118,0.943,0.209v1.668
			c-0.273-0.159-0.566-0.279-0.878-0.359c-0.312-0.079-0.619-0.119-0.92-0.119c-0.141,0-0.274,0.013-0.399,0.037
			c-0.126,0.025-0.236,0.062-0.332,0.109c-0.096,0.049-0.171,0.109-0.226,0.186c-0.055,0.074-0.082,0.16-0.082,0.256
			c0,0.128,0.041,0.237,0.123,0.328s0.189,0.17,0.321,0.236c0.133,0.065,0.279,0.125,0.441,0.178
			c0.161,0.052,0.322,0.105,0.481,0.16c0.287,0.101,0.547,0.21,0.779,0.328s0.432,0.258,0.599,0.417
			c0.166,0.159,0.294,0.347,0.383,0.561s0.133,0.47,0.133,0.766c0,0.415-0.09,0.769-0.27,1.063c-0.181,0.293-0.42,0.533-0.718,0.717
			c-0.299,0.186-0.643,0.319-1.032,0.404c-0.39,0.084-0.794,0.126-1.214,0.126C810.338,87.45,809.624,87.332,808.967,87.094z"/>
	</g>
	<g>
		<rect x="208.381" y="67.322" fill="none" width="123.2" height="17.49"/>
		<path fill="#FFFFFF" d="M220.473,79.224v-9.803h3.473c3.482,0,5.223,1.593,5.223,4.778c0,1.526-0.475,2.746-1.425,3.657
			s-2.216,1.367-3.798,1.367H220.473z M222.681,71.219v6.214h1.094c0.957,0,1.708-0.287,2.253-0.861
			c0.544-0.574,0.816-1.355,0.816-2.345c0-0.935-0.27-1.669-0.81-2.204c-0.54-0.536-1.298-0.804-2.273-0.804H222.681z"/>
		<path fill="#FFFFFF" d="M233.913,79.395c-1.166,0-2.084-0.327-2.751-0.981c-0.668-0.653-1.002-1.541-1.002-2.662
			c0-1.157,0.347-2.063,1.039-2.717c0.693-0.654,1.63-0.981,2.81-0.981c1.162,0,2.074,0.327,2.734,0.981
			c0.661,0.653,0.991,1.519,0.991,2.594c0,1.162-0.341,2.08-1.021,2.755C236.031,79.058,235.098,79.395,233.913,79.395z
			 M233.967,73.708c-0.51,0-0.906,0.176-1.189,0.526c-0.282,0.351-0.424,0.848-0.424,1.49c0,1.345,0.543,2.017,1.627,2.017
			c1.035,0,1.552-0.69,1.552-2.071C235.533,74.362,235.011,73.708,233.967,73.708z"/>
		<path fill="#FFFFFF" d="M244.433,78.971c-0.488,0.282-1.192,0.424-2.112,0.424c-1.076,0-1.946-0.326-2.611-0.978
			c-0.666-0.651-0.998-1.492-0.998-2.522c0-1.189,0.356-2.127,1.069-2.813c0.714-0.686,1.667-1.028,2.861-1.028
			c0.824,0,1.422,0.109,1.791,0.328v1.832c-0.451-0.337-0.955-0.506-1.511-0.506c-0.62,0-1.111,0.181-1.474,0.544
			c-0.362,0.361-0.543,0.862-0.543,1.5c0,0.62,0.173,1.106,0.52,1.459c0.346,0.354,0.822,0.53,1.429,0.53
			c0.537,0,1.063-0.169,1.579-0.506V78.971z"/>
		<path fill="#FFFFFF" d="M252.578,79.224h-2.153v-1.066h-0.034c-0.533,0.825-1.246,1.237-2.14,1.237
			c-1.622,0-2.434-0.982-2.434-2.946v-4.225h2.153v4.033c0,0.989,0.393,1.483,1.176,1.483c0.388,0,0.697-0.136,0.93-0.407
			c0.232-0.271,0.349-0.639,0.349-1.104v-4.006h2.153V79.224z"/>
		<path fill="#FFFFFF" d="M265.462,79.224h-2.153v-3.992c0-1.017-0.374-1.524-1.121-1.524c-0.355,0-0.646,0.152-0.868,0.458
			c-0.224,0.306-0.335,0.686-0.335,1.142v3.917h-2.16v-4.033c0-0.989-0.367-1.483-1.101-1.483c-0.369,0-0.664,0.146-0.886,0.438
			c-0.221,0.292-0.331,0.688-0.331,1.189v3.89h-2.16v-7h2.16v1.094h0.027c0.223-0.374,0.536-0.678,0.939-0.912
			c0.403-0.235,0.845-0.353,1.323-0.353c0.988,0,1.665,0.436,2.03,1.306c0.533-0.87,1.316-1.306,2.352-1.306
			c1.521,0,2.283,0.938,2.283,2.816V79.224z"/>
		<path fill="#FFFFFF" d="M273.482,76.34h-4.566c0.072,1.017,0.713,1.524,1.921,1.524c0.77,0,1.446-0.183,2.03-0.547v1.559
			c-0.647,0.347-1.488,0.52-2.522,0.52c-1.131,0-2.008-0.313-2.632-0.94c-0.625-0.626-0.937-1.5-0.937-2.621
			c0-1.162,0.337-2.083,1.012-2.762c0.674-0.679,1.504-1.019,2.488-1.019c1.021,0,1.811,0.303,2.368,0.909
			c0.559,0.606,0.838,1.429,0.838,2.468V76.34z M271.479,75.013c0-1.003-0.406-1.504-1.217-1.504c-0.347,0-0.646,0.144-0.899,0.431
			s-0.406,0.645-0.461,1.073H271.479z"/>
		<path fill="#FFFFFF" d="M281.607,79.224h-2.153v-3.89c0-1.085-0.387-1.627-1.162-1.627c-0.373,0-0.681,0.144-0.923,0.431
			c-0.241,0.287-0.362,0.651-0.362,1.094v3.992h-2.16v-7h2.16v1.107h0.027c0.516-0.853,1.265-1.278,2.249-1.278
			c1.55,0,2.324,0.962,2.324,2.885V79.224z"/>
		<path fill="#FFFFFF" d="M287.457,79.142c-0.318,0.169-0.8,0.253-1.442,0.253c-1.521,0-2.283-0.791-2.283-2.372v-3.206h-1.135
			v-1.593h1.135v-1.511l2.153-0.615v2.126h1.572v1.593h-1.572v2.83c0,0.729,0.29,1.094,0.868,1.094c0.229,0,0.463-0.066,0.704-0.198
			V79.142z"/>
		<path fill="#FFFFFF" d="M297.102,70.515c-0.277-0.109-0.544-0.164-0.8-0.164c-0.692,0-1.039,0.376-1.039,1.128v0.745h1.6v1.593
			h-1.6v5.407h-2.153v-5.407h-1.176v-1.593h1.176v-0.868c0-0.798,0.26-1.44,0.779-1.928s1.227-0.731,2.119-0.731
			c0.438,0,0.803,0.046,1.094,0.137V70.515z"/>
		<path fill="#FFFFFF" d="M300.152,79.224h-2.16V68.861h2.16V79.224z"/>
		<path fill="#FFFFFF" d="M305.295,79.395c-1.166,0-2.084-0.327-2.751-0.981c-0.668-0.653-1.002-1.541-1.002-2.662
			c0-1.157,0.347-2.063,1.039-2.717c0.693-0.654,1.63-0.981,2.81-0.981c1.162,0,2.074,0.327,2.734,0.981
			c0.661,0.653,0.991,1.519,0.991,2.594c0,1.162-0.341,2.08-1.021,2.755C307.413,79.058,306.48,79.395,305.295,79.395z
			 M305.349,73.708c-0.51,0-0.906,0.176-1.189,0.526c-0.282,0.351-0.424,0.848-0.424,1.49c0,1.345,0.543,2.017,1.627,2.017
			c1.035,0,1.552-0.69,1.552-2.071C306.915,74.362,306.393,73.708,305.349,73.708z"/>
		<path fill="#FFFFFF" d="M320.494,72.224l-2.017,7h-2.27l-1.032-4.102c-0.068-0.273-0.106-0.572-0.116-0.896h-0.041
			c-0.031,0.355-0.077,0.645-0.137,0.868l-1.107,4.129h-2.242l-1.976-7h2.201l0.964,4.566c0.046,0.214,0.08,0.474,0.103,0.779h0.041
			c0.023-0.319,0.064-0.588,0.123-0.807l1.203-4.539h2.058l1.08,4.566c0.027,0.114,0.06,0.378,0.096,0.793h0.048
			c0.023-0.265,0.06-0.528,0.109-0.793l0.909-4.566H320.494z"/>
	</g>
	<g>
		<rect x="894.682" y="67.322" fill="none" width="123.2" height="17.49"/>
		<path fill="#FFFFFF" d="M911.82,79.224v-9.803h3.568c1.094,0,1.935,0.2,2.522,0.602s0.882,0.966,0.882,1.695
			c0,0.528-0.179,0.991-0.537,1.388c-0.357,0.396-0.814,0.672-1.37,0.827v0.027c0.697,0.087,1.254,0.344,1.671,0.772
			s0.626,0.95,0.626,1.565c0,0.897-0.321,1.609-0.964,2.137c-0.643,0.525-1.521,0.789-2.632,0.789H911.82z M914.028,71.049v2.324
			h0.971c0.455,0,0.814-0.11,1.076-0.332c0.263-0.221,0.394-0.524,0.394-0.912c0-0.72-0.538-1.08-1.613-1.08H914.028z
			 M914.028,75.013v2.584h1.196c0.51,0,0.91-0.118,1.199-0.355c0.29-0.237,0.435-0.561,0.435-0.971c0-0.392-0.143-0.699-0.428-0.923
			c-0.284-0.224-0.683-0.335-1.192-0.335H914.028z"/>
		<path fill="#FFFFFF" d="M927.26,79.224h-2.153v-1.066h-0.034c-0.533,0.825-1.247,1.237-2.14,1.237
			c-1.623,0-2.434-0.982-2.434-2.946v-4.225h2.153v4.033c0,0.989,0.392,1.483,1.176,1.483c0.387,0,0.697-0.136,0.93-0.407
			c0.232-0.271,0.349-0.639,0.349-1.104v-4.006h2.153V79.224z"/>
		<path fill="#FFFFFF" d="M930.123,71.117c-0.364,0-0.663-0.108-0.896-0.324c-0.232-0.217-0.349-0.482-0.349-0.797
			c0-0.323,0.116-0.588,0.349-0.793s0.531-0.308,0.896-0.308c0.369,0,0.669,0.103,0.899,0.308c0.229,0.205,0.345,0.47,0.345,0.793
			c0,0.328-0.115,0.597-0.345,0.807C930.792,71.012,930.492,71.117,930.123,71.117z M931.189,79.224h-2.16v-7h2.16V79.224z"/>
		<path fill="#FFFFFF" d="M935.125,79.224h-2.16V68.861h2.16V79.224z"/>
		<path fill="#FFFFFF" d="M943.821,79.224h-2.16V78.26h-0.027c-0.492,0.757-1.215,1.135-2.167,1.135
			c-0.875,0-1.579-0.309-2.112-0.927c-0.533-0.617-0.8-1.479-0.8-2.587c0-1.157,0.294-2.085,0.882-2.782s1.357-1.046,2.311-1.046
			c0.902,0,1.531,0.323,1.887,0.971h0.027v-4.163h2.16V79.224z M941.702,75.82v-0.526c0-0.456-0.133-0.834-0.396-1.135
			c-0.265-0.301-0.608-0.451-1.032-0.451c-0.479,0-0.853,0.188-1.121,0.563c-0.27,0.377-0.403,0.893-0.403,1.549
			c0,0.615,0.13,1.089,0.39,1.422s0.619,0.499,1.08,0.499c0.438,0,0.794-0.176,1.069-0.526
			C941.564,76.864,941.702,76.399,941.702,75.82z"/>
		<path fill="#FFFFFF" d="M955.326,79.224h-2.044v-1.005h-0.027c-0.47,0.784-1.165,1.176-2.085,1.176
			c-0.68,0-1.214-0.192-1.604-0.577c-0.39-0.386-0.584-0.899-0.584-1.542c0-1.358,0.804-2.142,2.413-2.352l1.9-0.253
			c0-0.766-0.415-1.148-1.244-1.148c-0.834,0-1.627,0.248-2.379,0.745v-1.627c0.301-0.155,0.712-0.292,1.233-0.41
			c0.522-0.118,0.997-0.178,1.426-0.178c1.996,0,2.994,0.996,2.994,2.987V79.224z M953.296,76.381v-0.472l-1.271,0.164
			c-0.702,0.091-1.053,0.408-1.053,0.95c0,0.246,0.085,0.447,0.256,0.605c0.171,0.156,0.402,0.235,0.694,0.235
			c0.405,0,0.735-0.14,0.991-0.421C953.168,77.164,953.296,76.809,953.296,76.381z"/>
		<path fill="#FFFFFF" d="M963.783,79.224h-2.153v-3.89c0-1.085-0.388-1.627-1.162-1.627c-0.374,0-0.682,0.144-0.923,0.431
			c-0.242,0.287-0.362,0.651-0.362,1.094v3.992h-2.16v-7h2.16v1.107h0.027c0.515-0.853,1.265-1.278,2.249-1.278
			c1.549,0,2.324,0.962,2.324,2.885V79.224z"/>
		<path fill="#FFFFFF" d="M972.365,79.224h-2.16V78.26h-0.027c-0.492,0.757-1.214,1.135-2.167,1.135
			c-0.875,0-1.579-0.309-2.112-0.927c-0.533-0.617-0.8-1.479-0.8-2.587c0-1.157,0.294-2.085,0.882-2.782s1.358-1.046,2.311-1.046
			c0.902,0,1.531,0.323,1.887,0.971h0.027v-4.163h2.16V79.224z M970.246,75.82v-0.526c0-0.456-0.132-0.834-0.396-1.135
			c-0.264-0.301-0.608-0.451-1.032-0.451c-0.479,0-0.852,0.188-1.121,0.563c-0.269,0.377-0.403,0.893-0.403,1.549
			c0,0.615,0.13,1.089,0.39,1.422s0.62,0.499,1.08,0.499c0.438,0,0.794-0.176,1.07-0.526
			C970.108,76.864,970.246,76.399,970.246,75.82z"/>
		<path fill="#FFFFFF" d="M982.277,79.142c-0.318,0.169-0.8,0.253-1.442,0.253c-1.521,0-2.283-0.791-2.283-2.372v-3.206h-1.135
			v-1.593h1.135v-1.511l2.153-0.615v2.126h1.572v1.593h-1.572v2.83c0,0.729,0.29,1.094,0.868,1.094c0.229,0,0.463-0.066,0.704-0.198
			V79.142z"/>
		<path fill="#FFFFFF" d="M989.763,76.34h-4.566c0.073,1.017,0.714,1.524,1.921,1.524c0.771,0,1.447-0.183,2.03-0.547v1.559
			c-0.646,0.347-1.487,0.52-2.522,0.52c-1.13,0-2.007-0.313-2.632-0.94c-0.624-0.626-0.937-1.5-0.937-2.621
			c0-1.162,0.338-2.083,1.012-2.762c0.675-0.679,1.504-1.019,2.488-1.019c1.021,0,1.811,0.303,2.369,0.909
			c0.558,0.606,0.837,1.429,0.837,2.468V76.34z M987.76,75.013c0-1.003-0.405-1.504-1.217-1.504c-0.346,0-0.646,0.144-0.898,0.431
			s-0.407,0.645-0.462,1.073H987.76z"/>
		<path fill="#FFFFFF" d="M990.752,79.04v-1.75c0.355,0.214,0.71,0.374,1.062,0.479c0.354,0.104,0.688,0.157,1.002,0.157
			c0.383,0,0.685-0.053,0.905-0.157c0.222-0.104,0.332-0.265,0.332-0.479c0-0.137-0.051-0.251-0.15-0.342
			c-0.101-0.091-0.229-0.171-0.387-0.239s-0.329-0.13-0.516-0.185c-0.188-0.055-0.367-0.116-0.54-0.185
			c-0.278-0.104-0.523-0.218-0.735-0.338c-0.212-0.121-0.39-0.262-0.533-0.421s-0.253-0.344-0.328-0.554s-0.112-0.458-0.112-0.745
			c0-0.392,0.085-0.729,0.256-1.012s0.399-0.514,0.684-0.694c0.285-0.18,0.611-0.312,0.978-0.396
			c0.367-0.084,0.749-0.126,1.146-0.126c0.31,0,0.624,0.024,0.943,0.071c0.318,0.049,0.633,0.118,0.943,0.209v1.668
			c-0.273-0.159-0.566-0.279-0.879-0.359c-0.312-0.079-0.618-0.119-0.919-0.119c-0.142,0-0.274,0.013-0.4,0.037
			c-0.125,0.025-0.235,0.062-0.331,0.109c-0.096,0.049-0.171,0.109-0.226,0.186c-0.055,0.074-0.082,0.16-0.082,0.256
			c0,0.128,0.041,0.237,0.123,0.328s0.188,0.17,0.321,0.236c0.132,0.065,0.279,0.125,0.44,0.178c0.162,0.052,0.322,0.105,0.482,0.16
			c0.287,0.101,0.547,0.21,0.779,0.328s0.432,0.258,0.598,0.417c0.167,0.159,0.294,0.347,0.383,0.561s0.134,0.47,0.134,0.766
			c0,0.415-0.09,0.769-0.271,1.063c-0.18,0.293-0.419,0.533-0.718,0.717c-0.298,0.186-0.643,0.319-1.032,0.404
			c-0.39,0.084-0.794,0.126-1.213,0.126C992.121,79.395,991.408,79.277,990.752,79.04z"/>
		<path fill="#FFFFFF" d="M1001.558,79.142c-0.319,0.169-0.8,0.253-1.442,0.253c-1.522,0-2.283-0.791-2.283-2.372v-3.206h-1.135
			v-1.593h1.135v-1.511l2.153-0.615v2.126h1.572v1.593h-1.572v2.83c0,0.729,0.289,1.094,0.868,1.094
			c0.228,0,0.462-0.066,0.704-0.198V79.142z"/>
	</g>
</g>
<g id="Layer_1">
	<g>
	</g>
	<g>
	</g>
	<g>
	</g>
	<g>
	</g>
	<g>
	</g>
	<g>
	</g>
	<g>
	</g>
	<g>
	</g>
	<g>
	</g>
	<g>
	</g>
	<g>
	</g>
	<g>
	</g>
	<g>
	</g>
	<g>
	</g>
	<g>
	</g>
	<g>
	</g>
	<g>
	</g>
	<g>
	</g>
	<g>
	</g>
	<g>
	</g>
	<g>
	</g>
	<g>
	</g>
	<g>
	</g>
	<g>
	</g>
	<g>
	</g>
	<g>
	</g>
	<g>
	</g>
	<g>
	</g>
	<g>
	</g>
	<g>
	</g>
	<g>
	</g>
	<g>
	</g>
	<g>
	</g>
	<g>
	</g>
	<g>
	</g>
	<g>
	</g>
	<g>
	</g>
	<g>
	</g>
	<g>
	</g>
	<g>
	</g>
</g>
</svg>
