<?xml version="1.0" encoding="UTF-8"?>
<svg xmlns="http://www.w3.org/2000/svg" width="624.8" height="215.6" xmlns:xlink="http://www.w3.org/1999/xlink" viewBox="0 0 624.8 215.6">
  <defs>
    <symbol id="success" viewBox="0 0 22 22">
      <g>
        <circle cx="11" cy="11" r="11" fill="#57a300"/>
        <path d="M4.8854,11.4001c-.1017-.1086-.154-.2516-.1485-.4001.0055-.1499.0687-.2874.1787-.3905l1.1481-1.0615c.1045-.0949.2379-.1471.3768-.1471.154,0,.3025.0646.407.1774l2.937,3.1515,5.2346-6.7031c.1059-.1361.2654-.2159.4386-.2159.1238,0,.2406.0399.3396.1155l1.2458.9611c.2379.176.2888.5184.11.7617l-6.6935,8.5704c-.2599.3327-.7563.3548-1.045.0454l-4.5292-4.8647Z" fill="#fff"/>
      </g>
    </symbol>
    <linearGradient id="linear-gradient" x1="-78.8043" y1="1323.5911" x2="-78.8043" y2="1307.0056" gradientTransform="translate(564 1353.6) scale(1 -1)" gradientUnits="userSpaceOnUse">
      <stop offset=".22" stop-color="#32d4f5"/>
      <stop offset="1" stop-color="#198ab3"/>
    </linearGradient>
    <linearGradient id="linear-gradient-2" x1="-79.2807" y1="1332.4889" x2="-78.0707" y2="1317.4311" xlink:href="#linear-gradient"/>
    <linearGradient id="linear-gradient-3" y1="1257.5911" y2="1241.0056" xlink:href="#linear-gradient"/>
    <linearGradient id="linear-gradient-4" x1="-79.2807" y1="1266.4889" x2="-78.0707" y2="1251.4311" xlink:href="#linear-gradient"/>
    <linearGradient id="linear-gradient-5" y1="1191.5911" y2="1175.0056" xlink:href="#linear-gradient"/>
    <linearGradient id="linear-gradient-6" x1="-79.2807" y1="1200.4889" x2="-78.0707" y2="1185.4311" xlink:href="#linear-gradient"/>
    <linearGradient id="linear-gradient-7" x1="-344" y1="1218.6999" x2="-344" y2="1236.8246" gradientTransform="translate(564 1353.6) scale(1 -1)" gradientUnits="userSpaceOnUse">
      <stop offset="0" stop-color="#0078d4"/>
      <stop offset=".16" stop-color="#1380da"/>
      <stop offset=".53" stop-color="#3c91e5"/>
      <stop offset=".82" stop-color="#559cec"/>
      <stop offset="1" stop-color="#5ea0ef"/>
    </linearGradient>
    <linearGradient id="linear-gradient-8" x1="-507.8302" y1="1246.6999" x2="-507.8302" y2="1218.6999" gradientTransform="translate(564 1353.6) scale(1 -1)" gradientUnits="userSpaceOnUse">
      <stop offset="0" stop-color="#b3b2b3"/>
      <stop offset=".375" stop-color="#afaeaf"/>
      <stop offset=".763" stop-color="#a2a2a2"/>
      <stop offset="1" stop-color="#979797"/>
    </linearGradient>
    <linearGradient id="linear-gradient-9" x1="-487.4836" y1="1218.6999" x2="-487.4836" y2="1235.4999" xlink:href="#linear-gradient-7"/>
  </defs>
  <g id="Shapes">
    <rect width="624.8" height="215.6" fill="#fff"/>
    <g>
      <rect x="321.2" y="35.3223" width="92.4" height="149.6" fill="#fff"/>
      <rect x="321.2" y="35.3223" width="92.4" height="149.6" fill="#d3ec8e" opacity=".3"/>
      <rect x="321.2" y="35.3223" width="92.4" height="149.6" fill="none" opacity=".7" stroke="#8bc63f" stroke-width=".25"/>
    </g>
    <g>
      <rect x="140.8" y="66.1223" width="158.4" height="88" fill="#fff"/>
      <rect x="140.8" y="66.1223" width="158.4" height="88" fill="#e1ddd8" opacity=".3"/>
      <rect x="140.8" y="66.1223" width="158.4" height="88" fill="none" stroke="#8e8278" stroke-width=".25"/>
    </g>
    <rect x="13.2" y="66.1223" width="105.6" height="88" fill="#fff" stroke="#4e4f4f" stroke-width=".25"/>
    <g>
      <line x1="118.8" y1="108.9001" x2="135.4178" y2="108.9001" fill="none" stroke="#3c3c41" stroke-miterlimit="10"/>
      <polygon points="134.3236 112.6398 140.8 108.9001 134.3236 105.1603 134.3236 112.6398" fill="#3c3c41"/>
    </g>
    <g>
      <line x1="299.2" y1="108.9001" x2="315.8178" y2="108.9001" fill="none" stroke="#3c3c41" stroke-miterlimit="10"/>
      <polygon points="314.7236 112.6398 321.2 108.9001 314.7236 105.1603 314.7236 112.6398" fill="#3c3c41"/>
    </g>
    <g>
      <line x1="413.6" y1="108.9001" x2="430.2178" y2="108.9001" fill="none" stroke="#3c3c41" stroke-miterlimit="10"/>
      <polygon points="429.1236 112.6398 435.6 108.9001 429.1236 105.1603 429.1236 112.6398" fill="#3c3c41"/>
    </g>
    <g>
      <line x1="413.6" y1="51.7001" x2="430.2178" y2="51.7001" fill="none" stroke="#3c3c41" stroke-miterlimit="10"/>
      <polygon points="429.1236 55.4398 435.6 51.7001 429.1236 47.9603 429.1236 55.4398" fill="#3c3c41"/>
    </g>
    <g>
      <line x1="413.6" y1="166.1001" x2="430.2178" y2="166.1001" fill="none" stroke="#3c3c41" stroke-miterlimit="10"/>
      <polygon points="429.1236 169.8398 435.6 166.1001 429.1236 162.3603 429.1236 169.8398" fill="#3c3c41"/>
    </g>
    <rect x="435.6" y="13.2" width="176" height="57.2" fill="#fff" stroke="#4e4f4f" stroke-width=".25"/>
    <g>
      <path d="M493.4095,43.6c.9788,0,1.7722-.7935,1.7722-1.7722h0c.0126-.0687.0126-.1391,0-.2078-.7089-5.5856-3.8744-10.1322-9.9856-10.1322s-9.3622,3.85-9.9856,10.1444c-.1059.9798.6026,1.86,1.5824,1.9659.0062.0007.0125.0013.0187.0019h16.5978Z" fill="url(#linear-gradient)"/>
      <path d="M485.1962,32.8078c-1.075-.0009-2.1271-.3105-3.0311-.8922l3.0311,7.8467,2.9822-7.7978c-.8935.5593-1.9281.8518-2.9822.8433Z" fill="#fff" isolation="isolate" opacity=".8"/>
      <circle cx="485.2084" cy="27.1978" r="5.5978" fill="url(#linear-gradient-2)"/>
    </g>
    <rect x="435.6" y="79.2" width="176" height="57.2" fill="#fff" stroke="#4e4f4f" stroke-width=".25"/>
    <g>
      <path d="M493.4095,109.6c.9788,0,1.7722-.7935,1.7722-1.7722h0c.0126-.0687.0126-.1391,0-.2078-.7089-5.5856-3.8744-10.1322-9.9856-10.1322s-9.3622,3.85-9.9856,10.1444c-.1059.9798.6026,1.86,1.5824,1.9659.0062.0007.0125.0013.0187.0019h16.5978Z" fill="url(#linear-gradient-3)"/>
      <path d="M485.1962,98.8078c-1.075-.0009-2.1271-.3105-3.0311-.8922l3.0311,7.8467,2.9822-7.7978c-.8935.5593-1.9281.8518-2.9822.8433Z" fill="#fff" isolation="isolate" opacity=".8"/>
      <circle cx="485.2084" cy="93.1978" r="5.5978" fill="url(#linear-gradient-4)"/>
    </g>
    <rect x="435.6" y="145.2" width="176" height="57.2" fill="#fff" stroke="#4e4f4f" stroke-width=".25"/>
    <g>
      <path d="M493.4095,175.6c.9788,0,1.7722-.7935,1.7722-1.7722h0c.0126-.0687.0126-.1391,0-.2078-.7089-5.5856-3.8744-10.1322-9.9856-10.1322s-9.3622,3.85-9.9856,10.1444c-.1059.9798.6026,1.86,1.5824,1.9659.0062.0007.0125.0013.0187.0019h16.5978Z" fill="url(#linear-gradient-5)"/>
      <path d="M485.1962,164.8078c-1.075-.0009-2.1271-.3105-3.0311-.8922l3.0311,7.8467,2.9822-7.7978c-.8935.5593-1.9281.8518-2.9822.8433Z" fill="#fff" isolation="isolate" opacity=".8"/>
      <circle cx="485.2084" cy="159.1978" r="5.5978" fill="url(#linear-gradient-6)"/>
    </g>
    <path d="M217.3,129.4273h5.4v5.4h-5.4v-5.4ZM211,122.2273h5.4v-5.4c-6.3618-.0069-5.3993-.9386-5.4,5.4ZM211.7537,134.8273h4.6463v-5.4h-5.4c.2641.6884-.7007,5.5345.7537,5.4ZM211,128.5273h5.4v-5.4h-5.4v5.4ZM223.6,134.8273c.6857-.2631,5.5365.7,5.4-.7538h0v-4.6463h-5.4v5.4ZM217.3,128.5273h5.4v-5.4h-5.4v5.4ZM223.6,128.5273h5.4v-5.4h-5.4v5.4ZM223.6,116.8273v5.4h5.4c-.2631-.6857.7-5.5365-.7538-5.4h-4.6463ZM217.3,122.2273h5.4v-5.4h-5.4v5.4Z" fill="url(#linear-gradient-7)"/>
    <g>
      <g>
        <path d="M65.256,133.9501c-.0292.5507-.4975.9746-1.0484.9488h-16.0756c-.5509.0258-1.0192-.3981-1.0484-.9488v-26.1002c.0292-.5493.4954-.9726,1.0449-.9488h16.0756c.5509-.0258,1.0192.3981,1.0484.9488l.0035,26.1002Z" fill="url(#linear-gradient-8)"/>
        <path d="M49.75,118.8705c-.0564-1.1485.8278-2.1258,1.9763-2.1842h9.046c1.1484.0584,2.0327,1.0357,1.9763,2.1842h0c.0564,1.1485-.8278,2.1258-1.9763,2.1842h-9.046c-1.1484-.0584-2.0327-1.0357-1.9763-2.1842Z" fill="#003067"/>
        <path d="M49.75,112.4036c-.0554-1.1479.8285-2.1241,1.9763-2.1824h9.046c1.1477.0584,2.0317,1.0346,1.9763,2.1824h0c.0524,1.1458-.8307,2.1188-1.9763,2.1772h-9.046c-1.1456-.0584-2.0287-1.0313-1.9763-2.1772Z" fill="#003067"/>
        <circle cx="52.2942" cy="112.4036" r="1.4608" fill="#50e6ff"/>
        <circle cx="52.2942" cy="118.8705" r="1.4608" fill="#50e6ff"/>
      </g>
      <path d="M73.9964,129.8601h5.04v5.04h-5.04v-5.04ZM68.1164,123.1401h5.04v-5.04h-4.3365c-.3885,0-.7035.315-.7035.7035v4.3365ZM68.8199,134.9001h4.3365v-5.04h-5.04v4.3365c0,.3885.315.7035.7035.7035h0ZM68.1164,129.0201h5.04v-5.04h-5.04v5.04ZM79.8764,134.9001h4.3365c.3885,0,.7035-.315.7035-.7035h0v-4.3365h-5.04v5.04ZM73.9964,129.0201h5.04v-5.04h-5.04v5.04ZM79.8764,129.0201h5.04v-5.04h-5.04v5.04ZM79.8764,118.1001v5.04h5.04v-4.3365c0-.3885-.315-.7035-.7035-.7035h-4.3365ZM73.9964,123.1401h5.04v-5.04h-5.04v5.04Z" fill="url(#linear-gradient-9)"/>
    </g>
    <use width="22" height="22" transform="translate(358.4 113.8247) scale(.8182)" xlink:href="#success"/>
  </g>
  <g id="Text">
    <g>
      <rect x="148.8195" y="79.2" width="142.3611" height="30.8" fill="none"/>
      <path d="M172.1162,89.4006h-2.0625l-.5977-1.8691h-2.9883l-.5918,1.8691h-2.0508l3.0586-8.4023h2.2441l2.9883,8.4023ZM169.0225,86.0783l-.9023-2.8242c-.0664-.2109-.1133-.4629-.1406-.7559h-.0469c-.0195.2461-.0684.4902-.1465.7324l-.9141,2.8477h2.1504Z" fill="#2f2f2f"/>
      <path d="M174.8584,88.7033h-.0234v3.457h-1.8516v-8.7598h1.8516v.9023h.0234c.457-.6992,1.0996-1.0488,1.9277-1.0488.7773,0,1.3779.2666,1.8018.7998s.6357,1.2588.6357,2.1768c0,1-.2471,1.8027-.7412,2.4082s-1.1514.9082-1.9717.9082c-.7227,0-1.2734-.2812-1.6523-.8438ZM174.8057,86.2424v.4805c0,.4141.1094.752.3281,1.0137s.5059.3926.8613.3926c.4219,0,.749-.1631.9814-.4893s.3486-.7881.3486-1.3857c0-1.0547-.4102-1.582-1.2305-1.582-.3789,0-.6885.1436-.9287.4307s-.3604.667-.3604,1.1396Z" fill="#2f2f2f"/>
      <path d="M182.3228,88.7033h-.0234v3.457h-1.8516v-8.7598h1.8516v.9023h.0234c.457-.6992,1.0996-1.0488,1.9277-1.0488.7773,0,1.3779.2666,1.8018.7998s.6357,1.2588.6357,2.1768c0,1-.2471,1.8027-.7412,2.4082s-1.1514.9082-1.9717.9082c-.7227,0-1.2734-.2812-1.6523-.8438ZM182.27,86.2424v.4805c0,.4141.1094.752.3281,1.0137s.5059.3926.8613.3926c.4219,0,.749-.1631.9814-.4893s.3486-.7881.3486-1.3857c0-1.0547-.4102-1.582-1.2305-1.582-.3789,0-.6885.1436-.9287.4307s-.3604.667-.3604,1.1396Z" fill="#2f2f2f"/>
      <path d="M189.7729,89.4006h-1.8516v-8.8828h1.8516v8.8828Z" fill="#2f2f2f"/>
      <path d="M192.2402,82.4514c-.3125,0-.5684-.0928-.7676-.2783s-.2988-.4131-.2988-.6826c0-.2773.0996-.5039.2988-.6797s.4551-.2637.7676-.2637c.3164,0,.5732.0879.7705.2637s.2959.4023.2959.6797c0,.2812-.0986.5117-.2959.6914s-.4541.2695-.7705.2695ZM193.1543,89.4006h-1.8516v-6h1.8516v6Z" fill="#2f2f2f"/>
      <path d="M199.231,89.1838c-.418.2422-1.0215.3633-1.8105.3633-.9219,0-1.668-.2793-2.2383-.8379s-.8555-1.2793-.8555-2.1621c0-1.0195.3057-1.8232.917-2.4111s1.4287-.8818,2.4521-.8818c.707,0,1.2188.0938,1.5352.2812v1.5703c-.3867-.2891-.8184-.4336-1.2949-.4336-.5312,0-.9521.1553-1.2627.4658s-.4658.7393-.4658,1.2861c0,.5312.1484.9482.4453,1.251s.7051.4541,1.2246.4541c.4609,0,.9121-.1445,1.3535-.4336v1.4883Z" fill="#2f2f2f"/>
      <path d="M205.5283,89.4006h-1.752v-.8613h-.0234c-.4023.6719-.998,1.0078-1.7871,1.0078-.582,0-1.04-.165-1.374-.4951s-.501-.7705-.501-1.3213c0-1.1641.6895-1.8359,2.0684-2.0156l1.6289-.2168c0-.6562-.3555-.9844-1.0664-.9844-.7148,0-1.3945.2129-2.0391.6387v-1.3945c.2578-.1328.6104-.25,1.0576-.3516s.8545-.1523,1.2217-.1523c1.7109,0,2.5664.8535,2.5664,2.5605v3.5859ZM203.7881,86.9631v-.4043l-1.0898.1406c-.6016.0781-.9023.3496-.9023.8145,0,.2109.0732.3838.2197.5186s.3447.2021.5947.2021c.3477,0,.6309-.1201.8496-.3604s.3281-.5439.3281-.9111Z" fill="#2f2f2f"/>
      <path d="M210.5327,89.3303c-.2734.1445-.6855.2168-1.2363.2168-1.3047,0-1.957-.6777-1.957-2.0332v-2.748h-.9727v-1.3652h.9727v-1.2949l1.8457-.5273v1.8223h1.3477v1.3652h-1.3477v2.4258c0,.625.248.9375.7441.9375.1953,0,.3965-.0566.6035-.1699v1.3711Z" fill="#2f2f2f"/>
      <path d="M212.5806,82.4514c-.3125,0-.5684-.0928-.7676-.2783s-.2988-.4131-.2988-.6826c0-.2773.0996-.5039.2988-.6797s.4551-.2637.7676-.2637c.3164,0,.5732.0879.7705.2637s.2959.4023.2959.6797c0,.2812-.0986.5117-.2959.6914s-.4541.2695-.7705.2695ZM213.4946,89.4006h-1.8516v-6h1.8516v6Z" fill="#2f2f2f"/>
      <path d="M217.8848,89.5471c-1,0-1.7861-.2803-2.3584-.8408s-.8584-1.3213-.8584-2.2822c0-.9922.2969-1.7686.8906-2.3291s1.3965-.8408,2.4082-.8408c.9961,0,1.7773.2803,2.3438.8408s.8496,1.3018.8496,2.2236c0,.9961-.292,1.7832-.876,2.3613s-1.3838.8672-2.3994.8672ZM217.9316,84.6721c-.4375,0-.7773.1504-1.0195.4512s-.3633.7266-.3633,1.2773c0,1.1523.4648,1.7285,1.3945,1.7285.8867,0,1.3301-.5918,1.3301-1.7754,0-1.1211-.4473-1.6816-1.3418-1.6816Z" fill="#2f2f2f"/>
      <path d="M228.1479,89.4006h-1.8457v-3.334c0-.9297-.332-1.3945-.9961-1.3945-.3203,0-.584.123-.791.3691s-.3105.5586-.3105.9375v3.4219h-1.8516v-6h1.8516v.9492h.0234c.4414-.7305,1.084-1.0957,1.9277-1.0957,1.3281,0,1.9922.8242,1.9922,2.4727v3.6738Z" fill="#2f2f2f"/>
      <path d="M233.8608,82.4514c-.3125,0-.5684-.0928-.7676-.2783s-.2988-.4131-.2988-.6826c0-.2773.0996-.5039.2988-.6797s.4551-.2637.7676-.2637c.3164,0,.5732.0879.7705.2637s.2959.4023.2959.6797c0,.2812-.0986.5117-.2959.6914s-.4541.2695-.7705.2695ZM234.7749,89.4006h-1.8516v-6h1.8516v6Z" fill="#2f2f2f"/>
      <path d="M242.2046,89.4006h-1.8516v-.8262h-.0234c-.4219.6484-1.041.9727-1.8574.9727-.75,0-1.3535-.2646-1.8105-.7939s-.6855-1.2686-.6855-2.2178c0-.9922.252-1.7871.7559-2.3848s1.1641-.8965,1.9805-.8965c.7734,0,1.3125.2773,1.6172.832h.0234v-3.5684h1.8516v8.8828ZM240.3882,86.4826v-.4512c0-.3906-.1133-.7148-.3398-.9727s-.5215-.3867-.8848-.3867c-.4102,0-.7305.1611-.9609.4834s-.3457.7646-.3457,1.3271c0,.5273.1113.9336.334,1.2188s.5312.4277.9258.4277c.375,0,.6807-.1504.917-.4512s.3545-.6992.3545-1.1953Z" fill="#2f2f2f"/>
      <path d="M249.1538,86.9279h-3.9141c.0625.8711.6113,1.3066,1.6465,1.3066.6602,0,1.2402-.1562,1.7402-.4688v1.3359c-.5547.2969-1.2754.4453-2.1621.4453-.9688,0-1.7207-.2686-2.2559-.8057s-.8027-1.2861-.8027-2.2471c0-.9961.2891-1.7852.8672-2.3672s1.2891-.873,2.1328-.873c.875,0,1.5518.2598,2.0303.7793s.7178,1.2246.7178,2.1152v.7793ZM247.437,85.7912c0-.8594-.3477-1.2891-1.043-1.2891-.2969,0-.5537.123-.7705.3691s-.3486.5527-.3955.9199h2.209Z" fill="#2f2f2f"/>
      <path d="M256.127,89.4006h-1.8457v-3.334c0-.9297-.332-1.3945-.9961-1.3945-.3203,0-.584.123-.791.3691s-.3105.5586-.3105.9375v3.4219h-1.8516v-6h1.8516v.9492h.0234c.4414-.7305,1.084-1.0957,1.9277-1.0957,1.3281,0,1.9922.8242,1.9922,2.4727v3.6738Z" fill="#2f2f2f"/>
      <path d="M261.1504,89.3303c-.2734.1445-.6855.2168-1.2363.2168-1.3047,0-1.957-.6777-1.957-2.0332v-2.748h-.9727v-1.3652h.9727v-1.2949l1.8457-.5273v1.8223h1.3477v1.3652h-1.3477v2.4258c0,.625.248.9375.7441.9375.1953,0,.3965-.0566.6035-.1699v1.3711Z" fill="#2f2f2f"/>
      <path d="M263.1982,82.4514c-.3125,0-.5684-.0928-.7676-.2783s-.2988-.4131-.2988-.6826c0-.2773.0996-.5039.2988-.6797s.4551-.2637.7676-.2637c.3164,0,.5732.0879.7705.2637s.2959.4023.2959.6797c0,.2812-.0986.5117-.2959.6914s-.4541.2695-.7705.2695ZM264.1123,89.4006h-1.8516v-6h1.8516v6Z" fill="#2f2f2f"/>
      <path d="M269.21,89.3303c-.2734.1445-.6855.2168-1.2363.2168-1.3047,0-1.957-.6777-1.957-2.0332v-2.748h-.9727v-1.3652h.9727v-1.2949l1.8457-.5273v1.8223h1.3477v1.3652h-1.3477v2.4258c0,.625.248.9375.7441.9375.1953,0,.3965-.0566.6035-.1699v1.3711Z" fill="#2f2f2f"/>
      <path d="M276.2686,83.4006l-2.4375,6.4805c-.5859,1.5586-1.4688,2.3379-2.6484,2.3379-.4492,0-.8184-.0508-1.1074-.1523v-1.4766c.2461.1445.5137.2168.8027.2168.4766,0,.8086-.2246.9961-.6738l.3164-.7441-2.4375-5.9883h2.0508l1.1191,3.6504c.0703.2266.125.4941.1641.8027h.0234c.0352-.2266.0996-.4902.1934-.791l1.1309-3.6621h1.834Z" fill="#2f2f2f"/>
      <path d="M198.5454,103.1037h-.0234v3.457h-1.8516v-8.7598h1.8516v.9023h.0234c.457-.6992,1.0996-1.0488,1.9277-1.0488.7773,0,1.3779.2666,1.8018.7998s.6357,1.2588.6357,2.1768c0,1-.2471,1.8027-.7412,2.4082s-1.1514.9082-1.9717.9082c-.7227,0-1.2734-.2812-1.6523-.8438ZM198.4927,100.6428v.4805c0,.4141.1094.752.3281,1.0137s.5059.3926.8613.3926c.4219,0,.749-.1631.9814-.4893s.3486-.7881.3486-1.3857c0-1.0547-.4102-1.582-1.2305-1.582-.3789,0-.6885.1436-.9287.4307s-.3604.667-.3604,1.1396Z" fill="#2f2f2f"/>
      <path d="M208.0488,99.4709c-.2227-.1211-.4824-.1816-.7793-.1816-.4023,0-.7168.1475-.9434.4424s-.3398.6963-.3398,1.2041v2.8652h-1.8516v-6h1.8516v1.1133h.0234c.293-.8125.8203-1.2188,1.582-1.2188.1953,0,.3477.0234.457.0703v1.7051Z" fill="#2f2f2f"/>
      <path d="M211.8511,103.9475c-1,0-1.7861-.2803-2.3584-.8408s-.8584-1.3213-.8584-2.2822c0-.9922.2969-1.7686.8906-2.3291s1.3965-.8408,2.4082-.8408c.9961,0,1.7773.2803,2.3438.8408s.8496,1.3018.8496,2.2236c0,.9961-.292,1.7832-.876,2.3613s-1.3838.8672-2.3994.8672ZM211.8979,99.0725c-.4375,0-.7773.1504-1.0195.4512s-.3633.7266-.3633,1.2773c0,1.1523.4648,1.7285,1.3945,1.7285.8867,0,1.3301-.5918,1.3301-1.7754,0-1.1211-.4473-1.6816-1.3418-1.6816Z" fill="#2f2f2f"/>
      <path d="M221.8794,97.801l-2.2324,6h-2.1094l-2.127-6h1.9805l1.043,3.6973c.1172.418.1855.7734.2051,1.0664h.0234c.0273-.2773.0996-.6211.2168-1.0312l1.0664-3.7324h1.9336Z" fill="#2f2f2f"/>
      <path d="M223.6416,96.8518c-.3125,0-.5684-.0928-.7676-.2783s-.2988-.4131-.2988-.6826c0-.2773.0996-.5039.2988-.6797s.4551-.2637.7676-.2637c.3164,0,.5732.0879.7705.2637s.2959.4023.2959.6797c0,.2812-.0986.5117-.2959.6914s-.4541.2695-.7705.2695ZM224.5557,103.801h-1.8516v-6h1.8516v6Z" fill="#2f2f2f"/>
      <path d="M231.9854,103.801h-1.8516v-.8262h-.0234c-.4219.6484-1.041.9727-1.8574.9727-.75,0-1.3535-.2646-1.8105-.7939s-.6855-1.2686-.6855-2.2178c0-.9922.252-1.7871.7559-2.3848s1.1641-.8965,1.9805-.8965c.7734,0,1.3125.2773,1.6172.832h.0234v-3.5684h1.8516v8.8828ZM230.1689,100.883v-.4512c0-.3906-.1133-.7148-.3398-.9727s-.5215-.3867-.8848-.3867c-.4102,0-.7305.1611-.9609.4834s-.3457.7646-.3457,1.3271c0,.5273.1113.9336.334,1.2188s.5312.4277.9258.4277c.375,0,.6807-.1504.917-.4512s.3545-.6992.3545-1.1953Z" fill="#2f2f2f"/>
      <path d="M238.9346,101.3283h-3.9141c.0625.8711.6113,1.3066,1.6465,1.3066.6602,0,1.2402-.1562,1.7402-.4688v1.3359c-.5547.2969-1.2754.4453-2.1621.4453-.9688,0-1.7207-.2686-2.2559-.8057s-.8027-1.2861-.8027-2.2471c0-.9961.2891-1.7852.8672-2.3672s1.2891-.873,2.1328-.873c.875,0,1.5518.2598,2.0303.7793s.7178,1.2246.7178,2.1152v.7793ZM237.2178,100.1916c0-.8594-.3477-1.2891-1.043-1.2891-.2969,0-.5537.123-.7705.3691s-.3486.5527-.3955.9199h2.209Z" fill="#2f2f2f"/>
      <path d="M244.0273,99.4709c-.2227-.1211-.4824-.1816-.7793-.1816-.4023,0-.7168.1475-.9434.4424s-.3398.6963-.3398,1.2041v2.8652h-1.8516v-6h1.8516v1.1133h.0234c.293-.8125.8203-1.2188,1.582-1.2188.1953,0,.3477.0234.457.0703v1.7051Z" fill="#2f2f2f"/>
    </g>
    <g>
      <rect x="328.5805" y="79.2" width="77.6389" height="28.9012" fill="none"/>
      <path d="M360.1118,82.5402h-2.3965v6.8613h-1.8984v-6.8613h-2.3848v-1.541h6.6797v1.541Z" fill="#2f2f2f"/>
      <path d="M364.146,85.0715c-.2227-.1211-.4824-.1816-.7793-.1816-.4023,0-.7168.1475-.9434.4424s-.3398.6963-.3398,1.2041v2.8652h-1.8516v-6h1.8516v1.1133h.0234c.293-.8125.8203-1.2188,1.582-1.2188.1953,0,.3477.0234.457.0703v1.7051Z" fill="#2f2f2f"/>
      <path d="M370.748,89.4016h-1.8457v-.9141h-.0293c-.457.707-1.0684,1.0605-1.834,1.0605-1.3906,0-2.0859-.8418-2.0859-2.5254v-3.6211h1.8457v3.457c0,.8477.3359,1.2715,1.0078,1.2715.332,0,.5977-.1162.7969-.3486s.2988-.5479.2988-.9463v-3.4336h1.8457v6Z" fill="#2f2f2f"/>
      <path d="M372.0137,89.2434v-1.5c.3047.1836.6084.3203.9111.4102s.5889.1348.8584.1348c.3281,0,.5869-.0449.7764-.1348s.2842-.2266.2842-.4102c0-.1172-.043-.2148-.1289-.293s-.1963-.1465-.3311-.2051-.2822-.1113-.4424-.1582-.3145-.0996-.4629-.1582c-.2383-.0898-.4482-.1865-.6299-.29s-.334-.2236-.457-.3604-.2168-.2949-.2812-.4746-.0967-.3926-.0967-.6387c0-.3359.0732-.625.2197-.8672s.3418-.4404.5859-.5947.5234-.2676.8379-.3398.6416-.1084.9814-.1084c.2656,0,.5352.0205.8086.0615s.543.1006.8086.1787v1.4297c-.2344-.1367-.4854-.2393-.7529-.3076s-.5303-.1025-.7881-.1025c-.1211,0-.2354.0107-.3428.0322s-.2021.0527-.2842.0938-.1465.0938-.1934.1582-.0703.1377-.0703.2197c0,.1094.0352.2031.1055.2812s.1621.1455.2754.2021.2393.1074.3779.1523.2764.0908.4131.1377c.2461.0859.4688.1797.668.2812s.3701.2207.5127.3574.252.2969.3281.4805.1143.4023.1143.6562c0,.3555-.0771.6592-.2314.9111s-.3594.457-.6152.6152-.5508.2734-.8848.3457-.6807.1084-1.04.1084c-.6602,0-1.2715-.1016-1.834-.3047Z" fill="#2f2f2f"/>
      <path d="M381.2861,89.3313c-.2734.1445-.6855.2168-1.2363.2168-1.3047,0-1.957-.6777-1.957-2.0332v-2.748h-.9727v-1.3652h.9727v-1.2949l1.8457-.5273v1.8223h1.3477v1.3652h-1.3477v2.4258c0,.625.248.9375.7441.9375.1953,0,.3965-.0566.6035-.1699v1.3711Z" fill="#2f2f2f"/>
      <path d="M338.3789,99.4709c-.2227-.1211-.4824-.1816-.7793-.1816-.4023,0-.7168.1475-.9434.4424s-.3398.6963-.3398,1.2041v2.8652h-1.8516v-6h1.8516v1.1133h.0234c.293-.8125.8203-1.2188,1.582-1.2188.1953,0,.3477.0234.457.0703v1.7051Z" fill="#2f2f2f"/>
      <path d="M344.7065,101.3283h-3.9141c.0625.8711.6113,1.3066,1.6465,1.3066.6602,0,1.2402-.1562,1.7402-.4688v1.3359c-.5547.2969-1.2754.4453-2.1621.4453-.9688,0-1.7207-.2686-2.2559-.8057s-.8027-1.2861-.8027-2.2471c0-.9961.2891-1.7852.8672-2.3672s1.2891-.873,2.1328-.873c.875,0,1.5518.2598,2.0303.7793s.7178,1.2246.7178,2.1152v.7793ZM342.9897,100.1916c0-.8594-.3477-1.2891-1.043-1.2891-.2969,0-.5537.123-.7705.3691s-.3486.5527-.3955.9199h2.209Z" fill="#2f2f2f"/>
      <path d="M347.7354,103.801h-1.8516v-8.8828h1.8516v8.8828Z" fill="#2f2f2f"/>
      <path d="M354.3149,103.801h-1.752v-.8613h-.0234c-.4023.6719-.998,1.0078-1.7871,1.0078-.582,0-1.04-.165-1.374-.4951s-.501-.7705-.501-1.3213c0-1.1641.6895-1.8359,2.0684-2.0156l1.6289-.2168c0-.6562-.3555-.9844-1.0664-.9844-.7148,0-1.3945.2129-2.0391.6387v-1.3945c.2578-.1328.6104-.25,1.0576-.3516s.8545-.1523,1.2217-.1523c1.7109,0,2.5664.8535,2.5664,2.5605v3.5859ZM352.5747,101.3635v-.4043l-1.0898.1406c-.6016.0781-.9023.3496-.9023.8145,0,.2109.0732.3838.2197.5186s.3447.2021.5947.2021c.3477,0,.6309-.1201.8496-.3604s.3281-.5439.3281-.9111Z" fill="#2f2f2f"/>
      <path d="M359.3188,103.7307c-.2734.1445-.6855.2168-1.2363.2168-1.3047,0-1.957-.6777-1.957-2.0332v-2.748h-.9727v-1.3652h.9727v-1.2949l1.8457-.5273v1.8223h1.3477v1.3652h-1.3477v2.4258c0,.625.248.9375.7441.9375.1953,0,.3965-.0566.6035-.1699v1.3711Z" fill="#2f2f2f"/>
      <path d="M361.3667,96.8518c-.3125,0-.5684-.0928-.7676-.2783s-.2988-.4131-.2988-.6826c0-.2773.0996-.5039.2988-.6797s.4551-.2637.7676-.2637c.3164,0,.5732.0879.7705.2637s.2959.4023.2959.6797c0,.2812-.0986.5117-.2959.6914s-.4541.2695-.7705.2695ZM362.2808,103.801h-1.8516v-6h1.8516v6Z" fill="#2f2f2f"/>
      <path d="M366.6709,103.9475c-1,0-1.7861-.2803-2.3584-.8408s-.8584-1.3213-.8584-2.2822c0-.9922.2969-1.7686.8906-2.3291s1.3965-.8408,2.4082-.8408c.9961,0,1.7773.2803,2.3438.8408s.8496,1.3018.8496,2.2236c0,.9961-.292,1.7832-.876,2.3613s-1.3838.8672-2.3994.8672ZM366.7178,99.0725c-.4375,0-.7773.1504-1.0195.4512s-.3633.7266-.3633,1.2773c0,1.1523.4648,1.7285,1.3945,1.7285.8867,0,1.3301-.5918,1.3301-1.7754,0-1.1211-.4473-1.6816-1.3418-1.6816Z" fill="#2f2f2f"/>
      <path d="M376.9341,103.801h-1.8457v-3.334c0-.9297-.332-1.3945-.9961-1.3945-.3203,0-.584.123-.791.3691s-.3105.5586-.3105.9375v3.4219h-1.8516v-6h1.8516v.9492h.0234c.4414-.7305,1.084-1.0957,1.9277-1.0957,1.3281,0,1.9922.8242,1.9922,2.4727v3.6738Z" fill="#2f2f2f"/>
      <path d="M378.1216,103.6428v-1.5c.3047.1836.6084.3203.9111.4102s.5889.1348.8584.1348c.3281,0,.5869-.0449.7764-.1348s.2842-.2266.2842-.4102c0-.1172-.043-.2148-.1289-.293s-.1963-.1465-.3311-.2051-.2822-.1113-.4424-.1582-.3145-.0996-.4629-.1582c-.2383-.0898-.4482-.1865-.6299-.29s-.334-.2236-.457-.3604-.2168-.2949-.2812-.4746-.0967-.3926-.0967-.6387c0-.3359.0732-.625.2197-.8672s.3418-.4404.5859-.5947.5234-.2676.8379-.3398.6416-.1084.9814-.1084c.2656,0,.5352.0205.8086.0615s.543.1006.8086.1787v1.4297c-.2344-.1367-.4854-.2393-.7529-.3076s-.5303-.1025-.7881-.1025c-.1211,0-.2354.0107-.3428.0322s-.2021.0527-.2842.0938-.1465.0938-.1934.1582-.0703.1377-.0703.2197c0,.1094.0352.2031.1055.2812s.1621.1455.2754.2021.2393.1074.3779.1523.2764.0908.4131.1377c.2461.0859.4688.1797.668.2812s.3701.2207.5127.3574.252.2969.3281.4805.1143.4023.1143.6562c0,.3555-.0771.6592-.2314.9111s-.3594.457-.6152.6152-.5508.2734-.8848.3457-.6807.1084-1.04.1084c-.6602,0-1.2715-.1016-1.834-.3047Z" fill="#2f2f2f"/>
      <path d="M389.6133,103.801h-1.8457v-3.4102c0-.8789-.3203-1.3184-.9609-1.3184-.3281,0-.5938.123-.7969.3691s-.3047.5586-.3047.9375v3.4219h-1.8516v-8.8828h1.8516v3.7734h.0234c.4531-.6914,1.0684-1.0371,1.8457-1.0371,1.3594,0,2.0391.8203,2.0391,2.4609v3.6855Z" fill="#2f2f2f"/>
      <path d="M391.9976,96.8518c-.3125,0-.5684-.0928-.7676-.2783s-.2988-.4131-.2988-.6826c0-.2773.0996-.5039.2988-.6797s.4551-.2637.7676-.2637c.3164,0,.5732.0879.7705.2637s.2959.4023.2959.6797c0,.2812-.0986.5117-.2959.6914s-.4541.2695-.7705.2695ZM392.9116,103.801h-1.8516v-6h1.8516v6Z" fill="#2f2f2f"/>
      <path d="M396.3271,103.1037h-.0234v3.457h-1.8516v-8.7598h1.8516v.9023h.0234c.457-.6992,1.0996-1.0488,1.9277-1.0488.7773,0,1.3779.2666,1.8018.7998s.6357,1.2588.6357,2.1768c0,1-.2471,1.8027-.7412,2.4082s-1.1514.9082-1.9717.9082c-.7227,0-1.2734-.2812-1.6523-.8438ZM396.2744,100.6428v.4805c0,.4141.1094.752.3281,1.0137s.5059.3926.8613.3926c.4219,0,.749-.1631.9814-.4893s.3486-.7881.3486-1.3857c0-1.0547-.4102-1.582-1.2305-1.582-.3789,0-.6885.1436-.9287.4307s-.3604.667-.3604,1.1396Z" fill="#2f2f2f"/>
    </g>
    <g>
      <rect x="33.4667" y="79.2" width="65.0669" height="15.3691" fill="none"/>
      <path d="M41.8164,89.4011h-2.0625l-.5977-1.8691h-2.9883l-.5918,1.8691h-2.0508l3.0586-8.4023h2.2441l2.9883,8.4023ZM38.7227,86.0788l-.9023-2.8242c-.0664-.2109-.1133-.4629-.1406-.7559h-.0469c-.0195.2461-.0684.4902-.1465.7324l-.9141,2.8477h2.1504Z" fill="#2f2f2f"/>
      <path d="M44.5586,88.7038h-.0234v3.457h-1.8516v-8.7598h1.8516v.9023h.0234c.457-.6992,1.0996-1.0488,1.9277-1.0488.7773,0,1.3779.2666,1.8018.7998s.6357,1.2588.6357,2.1768c0,1-.2471,1.8027-.7412,2.4082s-1.1514.9082-1.9717.9082c-.7227,0-1.2734-.2812-1.6523-.8438ZM44.5059,86.2429v.4805c0,.4141.1094.752.3281,1.0137s.5059.3926.8613.3926c.4219,0,.749-.1631.9814-.4893s.3486-.7881.3486-1.3857c0-1.0547-.4102-1.582-1.2305-1.582-.3789,0-.6885.1436-.9287.4307s-.3604.667-.3604,1.1396Z" fill="#2f2f2f"/>
      <path d="M52.0229,88.7038h-.0234v3.457h-1.8516v-8.7598h1.8516v.9023h.0234c.457-.6992,1.0996-1.0488,1.9277-1.0488.7773,0,1.3779.2666,1.8018.7998s.6357,1.2588.6357,2.1768c0,1-.2471,1.8027-.7412,2.4082s-1.1514.9082-1.9717.9082c-.7227,0-1.2734-.2812-1.6523-.8438ZM51.9702,86.2429v.4805c0,.4141.1094.752.3281,1.0137s.5059.3926.8613.3926c.4219,0,.749-.1631.9814-.4893s.3486-.7881.3486-1.3857c0-1.0547-.4102-1.582-1.2305-1.582-.3789,0-.6885.1436-.9287.4307s-.3604.667-.3604,1.1396Z" fill="#2f2f2f"/>
      <path d="M59.4731,89.4011h-1.8516v-8.8828h1.8516v8.8828Z" fill="#2f2f2f"/>
      <path d="M61.9404,82.4519c-.3125,0-.5684-.0928-.7676-.2783s-.2988-.4131-.2988-.6826c0-.2773.0996-.5039.2988-.6797s.4551-.2637.7676-.2637c.3164,0,.5732.0879.7705.2637s.2959.4023.2959.6797c0,.2812-.0986.5117-.2959.6914s-.4541.2695-.7705.2695ZM62.8545,89.4011h-1.8516v-6h1.8516v6Z" fill="#2f2f2f"/>
      <path d="M68.9312,89.1843c-.418.2422-1.0215.3633-1.8105.3633-.9219,0-1.668-.2793-2.2383-.8379s-.8555-1.2793-.8555-2.1621c0-1.0195.3057-1.8232.917-2.4111s1.4287-.8818,2.4521-.8818c.707,0,1.2188.0938,1.5352.2812v1.5703c-.3867-.2891-.8184-.4336-1.2949-.4336-.5312,0-.9521.1553-1.2627.4658s-.4658.7393-.4658,1.2861c0,.5312.1484.9482.4453,1.251s.7051.4541,1.2246.4541c.4609,0,.9121-.1445,1.3535-.4336v1.4883Z" fill="#2f2f2f"/>
      <path d="M75.2285,89.4011h-1.752v-.8613h-.0234c-.4023.6719-.998,1.0078-1.7871,1.0078-.582,0-1.04-.165-1.374-.4951s-.501-.7705-.501-1.3213c0-1.1641.6895-1.8359,2.0684-2.0156l1.6289-.2168c0-.6562-.3555-.9844-1.0664-.9844-.7148,0-1.3945.2129-2.0391.6387v-1.3945c.2578-.1328.6104-.25,1.0576-.3516s.8545-.1523,1.2217-.1523c1.7109,0,2.5664.8535,2.5664,2.5605v3.5859ZM73.4883,86.9636v-.4043l-1.0898.1406c-.6016.0781-.9023.3496-.9023.8145,0,.2109.0732.3838.2197.5186s.3447.2021.5947.2021c.3477,0,.6309-.1201.8496-.3604s.3281-.5439.3281-.9111Z" fill="#2f2f2f"/>
      <path d="M80.2329,89.3308c-.2734.1445-.6855.2168-1.2363.2168-1.3047,0-1.957-.6777-1.957-2.0332v-2.748h-.9727v-1.3652h.9727v-1.2949l1.8457-.5273v1.8223h1.3477v1.3652h-1.3477v2.4258c0,.625.248.9375.7441.9375.1953,0,.3965-.0566.6035-.1699v1.3711Z" fill="#2f2f2f"/>
      <path d="M82.2808,82.4519c-.3125,0-.5684-.0928-.7676-.2783s-.2988-.4131-.2988-.6826c0-.2773.0996-.5039.2988-.6797s.4551-.2637.7676-.2637c.3164,0,.5732.0879.7705.2637s.2959.4023.2959.6797c0,.2812-.0986.5117-.2959.6914s-.4541.2695-.7705.2695ZM83.1948,89.4011h-1.8516v-6h1.8516v6Z" fill="#2f2f2f"/>
      <path d="M87.585,89.5476c-1,0-1.7861-.2803-2.3584-.8408s-.8584-1.3213-.8584-2.2822c0-.9922.2969-1.7686.8906-2.3291s1.3965-.8408,2.4082-.8408c.9961,0,1.7773.2803,2.3438.8408s.8496,1.3018.8496,2.2236c0,.9961-.292,1.7832-.876,2.3613s-1.3838.8672-2.3994.8672ZM87.6318,84.6726c-.4375,0-.7773.1504-1.0195.4512s-.3633.7266-.3633,1.2773c0,1.1523.4648,1.7285,1.3945,1.7285.8867,0,1.3301-.5918,1.3301-1.7754,0-1.1211-.4473-1.6816-1.3418-1.6816Z" fill="#2f2f2f"/>
      <path d="M97.8481,89.4011h-1.8457v-3.334c0-.9297-.332-1.3945-.9961-1.3945-.3203,0-.584.123-.791.3691s-.3105.5586-.3105.9375v3.4219h-1.8516v-6h1.8516v.9492h.0234c.4414-.7305,1.084-1.0957,1.9277-1.0957,1.3281,0,1.9922.8242,1.9922,2.4727v3.6738Z" fill="#2f2f2f"/>
    </g>
    <g>
      <path d="M508.7271,36.7009c-.6133.2969-1.4141.4453-2.4023.4453-1.2891,0-2.3027-.3789-3.041-1.1367s-1.1074-1.7676-1.1074-3.0293c0-1.3438.415-2.4336,1.2451-3.2695s1.9072-1.2539,3.2314-1.2539c.8203,0,1.5117.1035,2.0742.3105v1.8223c-.5625-.3359-1.2031-.5039-1.9219-.5039-.7891,0-1.4258.248-1.9102.7441s-.7266,1.168-.7266,2.0156c0,.8125.2285,1.46.6855,1.9424s1.0723.7236,1.8457.7236c.7383,0,1.4141-.1797,2.0273-.5391v1.7285Z" fill="#2f2f2f"/>
      <path d="M515.606,36.9997h-1.8457v-.9141h-.0293c-.457.707-1.0684,1.0605-1.834,1.0605-1.3906,0-2.0859-.8418-2.0859-2.5254v-3.6211h1.8457v3.457c0,.8477.3359,1.2715,1.0078,1.2715.332,0,.5977-.1162.7969-.3486s.2988-.5479.2988-.9463v-3.4336h1.8457v6Z" fill="#2f2f2f"/>
      <path d="M516.8716,36.8415v-1.5c.3047.1836.6084.3203.9111.4102s.5889.1348.8584.1348c.3281,0,.5869-.0449.7764-.1348s.2842-.2266.2842-.4102c0-.1172-.043-.2148-.1289-.293s-.1963-.1465-.3311-.2051-.2822-.1113-.4424-.1582-.3145-.0996-.4629-.1582c-.2383-.0898-.4482-.1865-.6299-.29s-.334-.2236-.457-.3604-.2168-.2949-.2812-.4746-.0967-.3926-.0967-.6387c0-.3359.0732-.625.2197-.8672s.3418-.4404.5859-.5947.5234-.2676.8379-.3398.6416-.1084.9814-.1084c.2656,0,.5352.0205.8086.0615s.543.1006.8086.1787v1.4297c-.2344-.1367-.4854-.2393-.7529-.3076s-.5303-.1025-.7881-.1025c-.1211,0-.2354.0107-.3428.0322s-.2021.0527-.2842.0938-.1465.0938-.1934.1582-.0703.1377-.0703.2197c0,.1094.0352.2031.1055.2812s.1621.1455.2754.2021.2393.1074.3779.1523.2764.0908.4131.1377c.2461.0859.4688.1797.668.2812s.3701.2207.5127.3574.252.2969.3281.4805.1143.4023.1143.6562c0,.3555-.0771.6592-.2314.9111s-.3594.457-.6152.6152-.5508.2734-.8848.3457-.6807.1084-1.04.1084c-.6602,0-1.2715-.1016-1.834-.3047Z" fill="#2f2f2f"/>
      <path d="M526.144,36.9294c-.2734.1445-.6855.2168-1.2363.2168-1.3047,0-1.957-.6777-1.957-2.0332v-2.748h-.9727v-1.3652h.9727v-1.2949l1.8457-.5273v1.8223h1.3477v1.3652h-1.3477v2.4258c0,.625.248.9375.7441.9375.1953,0,.3965-.0566.6035-.1699v1.3711Z" fill="#2f2f2f"/>
      <path d="M530.0376,37.1462c-1,0-1.7861-.2803-2.3584-.8408s-.8584-1.3213-.8584-2.2822c0-.9922.2969-1.7686.8906-2.3291s1.3965-.8408,2.4082-.8408c.9961,0,1.7773.2803,2.3438.8408s.8496,1.3018.8496,2.2236c0,.9961-.292,1.7832-.876,2.3613s-1.3838.8672-2.3994.8672ZM530.0845,32.2712c-.4375,0-.7773.1504-1.0195.4512s-.3633.7266-.3633,1.2773c0,1.1523.4648,1.7285,1.3945,1.7285.8867,0,1.3301-.5918,1.3301-1.7754,0-1.1211-.4473-1.6816-1.3418-1.6816Z" fill="#2f2f2f"/>
      <path d="M544.0332,36.9997h-1.8457v-3.4219c0-.8711-.3203-1.3066-.9609-1.3066-.3047,0-.5527.1309-.7441.3926s-.2871.5879-.2871.9785v3.3574h-1.8516v-3.457c0-.8477-.3145-1.2715-.9434-1.2715-.3164,0-.5693.125-.7588.375s-.2842.5898-.2842,1.0195v3.334h-1.8516v-6h1.8516v.9375h.0234c.1914-.3203.46-.5811.8057-.7822s.7236-.3018,1.1338-.3018c.8477,0,1.4277.373,1.7402,1.1191.457-.7461,1.1289-1.1191,2.0156-1.1191,1.3047,0,1.957.8047,1.957,2.4141v3.7324Z" fill="#2f2f2f"/>
      <path d="M550.9175,34.5271h-3.9141c.0625.8711.6113,1.3066,1.6465,1.3066.6602,0,1.2402-.1562,1.7402-.4688v1.3359c-.5547.2969-1.2754.4453-2.1621.4453-.9688,0-1.7207-.2686-2.2559-.8057s-.8027-1.2861-.8027-2.2471c0-.9961.2891-1.7852.8672-2.3672s1.2891-.873,2.1328-.873c.875,0,1.5518.2598,2.0303.7793s.7178,1.2246.7178,2.1152v.7793ZM549.2007,33.3903c0-.8594-.3477-1.2891-1.043-1.2891-.2969,0-.5537.123-.7705.3691s-.3486.5527-.3955.9199h2.209Z" fill="#2f2f2f"/>
      <path d="M556.0103,32.6696c-.2227-.1211-.4824-.1816-.7793-.1816-.4023,0-.7168.1475-.9434.4424s-.3398.6963-.3398,1.2041v2.8652h-1.8516v-6h1.8516v1.1133h.0234c.293-.8125.8203-1.2188,1.582-1.2188.1953,0,.3477.0234.457.0703v1.7051Z" fill="#2f2f2f"/>
      <path d="M567.7524,36.9997h-2.0625l-.5977-1.8691h-2.9883l-.5918,1.8691h-2.0508l3.0586-8.4023h2.2441l2.9883,8.4023ZM564.6587,33.6774l-.9023-2.8242c-.0664-.2109-.1133-.4629-.1406-.7559h-.0469c-.0195.2461-.0684.4902-.1465.7324l-.9141,2.8477h2.1504Z" fill="#2f2f2f"/>
    </g>
    <g>
      <path d="M457.2778,51.6882h-3.2812v2.9062h3.0352v.8848h-3.0352v3.7207h-.9844v-8.4023h4.2656v.8906Z" fill="#2f2f2f"/>
      <path d="M463.4424,56.4401h-4.2363c.0156.668.1953,1.1836.5391,1.5469s.8164.5449,1.418.5449c.6758,0,1.2969-.2227,1.8633-.668v.9023c-.5273.3828-1.2246.5742-2.0918.5742-.8477,0-1.5137-.2725-1.998-.8174s-.7266-1.3115-.7266-2.2998c0-.9336.2646-1.6943.7939-2.2822s1.1865-.8818,1.9717-.8818,1.3926.2539,1.8223.7617.6445,1.2129.6445,2.1152v.5039ZM462.458,55.6257c-.0039-.5547-.1377-.9863-.4014-1.2949s-.6299-.4629-1.0986-.4629c-.4531,0-.8379.1621-1.1543.4863s-.5117.748-.5859,1.2715h3.2402Z" fill="#2f2f2f"/>
      <path d="M470.0791,59.1999h-.9609v-1.0195h-.0234c-.4453.7734-1.1328,1.1602-2.0625,1.1602-.7539,0-1.3564-.2686-1.8076-.8057s-.6768-1.2686-.6768-2.1943c0-.9922.25-1.7871.75-2.3848s1.166-.8965,1.998-.8965c.8242,0,1.4238.3242,1.7988.9727h.0234v-3.7148h.9609v8.8828ZM469.1182,56.487v-.8848c0-.4844-.1602-.8945-.4805-1.2305s-.7266-.5039-1.2188-.5039c-.5859,0-1.0469.2148-1.3828.6445s-.5039,1.0234-.5039,1.7812c0,.6914.1611,1.2373.4834,1.6377s.7549.6006,1.2979.6006c.5352,0,.9697-.1934,1.3037-.5801s.501-.875.501-1.4648Z" fill="#2f2f2f"/>
      <path d="M476.793,56.4401h-4.2363c.0156.668.1953,1.1836.5391,1.5469s.8164.5449,1.418.5449c.6758,0,1.2969-.2227,1.8633-.668v.9023c-.5273.3828-1.2246.5742-2.0918.5742-.8477,0-1.5137-.2725-1.998-.8174s-.7266-1.3115-.7266-2.2998c0-.9336.2646-1.6943.7939-2.2822s1.1865-.8818,1.9717-.8818,1.3926.2539,1.8223.7617.6445,1.2129.6445,2.1152v.5039ZM475.8086,55.6257c-.0039-.5547-.1377-.9863-.4014-1.2949s-.6299-.4629-1.0986-.4629c-.4531,0-.8379.1621-1.1543.4863s-.5117.748-.5859,1.2715h3.2402Z" fill="#2f2f2f"/>
      <path d="M481.375,54.1726c-.168-.1289-.4102-.1934-.7266-.1934-.4102,0-.7529.1934-1.0283.5801s-.4131.9141-.4131,1.582v3.0586h-.9609v-6h.9609v1.2363h.0234c.1367-.4219.3457-.751.627-.9873s.5957-.3545.9434-.3545c.25,0,.4414.0273.5742.082v.9961Z" fill="#2f2f2f"/>
      <path d="M486.6777,59.1999h-.9609v-.9375h-.0234c-.418.7188-1.0332,1.0781-1.8457,1.0781-.5977,0-1.0654-.1582-1.4033-.4746s-.5068-.7363-.5068-1.2598c0-1.1211.6602-1.7734,1.9805-1.957l1.7988-.252c0-1.0195-.4121-1.5293-1.2363-1.5293-.7227,0-1.375.2461-1.957.7383v-.9844c.5898-.375,1.2695-.5625,2.0391-.5625,1.4102,0,2.1152.7461,2.1152,2.2383v3.9023ZM485.7168,56.1647l-1.4473.1992c-.4453.0625-.7812.1729-1.0078.3311s-.3398.4385-.3398.8408c0,.293.1045.5322.3135.7178s.4873.2783.835.2783c.4766,0,.8701-.167,1.1807-.501s.4658-.7568.4658-1.2686v-.5977Z" fill="#2f2f2f"/>
      <path d="M491.1948,59.1413c-.2266.125-.5254.1875-.8965.1875-1.0508,0-1.5762-.5859-1.5762-1.7578v-3.5508h-1.0312v-.8203h1.0312v-1.4648l.9609-.3105v1.7754h1.5117v.8203h-1.5117v3.3809c0,.4023.0684.6895.2051.8613s.3633.2578.6797.2578c.2422,0,.4512-.0664.627-.1992v.8203Z" fill="#2f2f2f"/>
      <path d="M497.1982,56.4401h-4.2363c.0156.668.1953,1.1836.5391,1.5469s.8164.5449,1.418.5449c.6758,0,1.2969-.2227,1.8633-.668v.9023c-.5273.3828-1.2246.5742-2.0918.5742-.8477,0-1.5137-.2725-1.998-.8174s-.7266-1.3115-.7266-2.2998c0-.9336.2646-1.6943.7939-2.2822s1.1865-.8818,1.9717-.8818,1.3926.2539,1.8223.7617.6445,1.2129.6445,2.1152v.5039ZM496.2139,55.6257c-.0039-.5547-.1377-.9863-.4014-1.2949s-.6299-.4629-1.0986-.4629c-.4531,0-.8379.1621-1.1543.4863s-.5117.748-.5859,1.2715h3.2402Z" fill="#2f2f2f"/>
      <path d="M503.835,59.1999h-.9609v-1.0195h-.0234c-.4453.7734-1.1328,1.1602-2.0625,1.1602-.7539,0-1.3564-.2686-1.8076-.8057s-.6768-1.2686-.6768-2.1943c0-.9922.25-1.7871.75-2.3848s1.166-.8965,1.998-.8965c.8242,0,1.4238.3242,1.7988.9727h.0234v-3.7148h.9609v8.8828ZM502.874,56.487v-.8848c0-.4844-.1602-.8945-.4805-1.2305s-.7266-.5039-1.2188-.5039c-.5859,0-1.0469.2148-1.3828.6445s-.5039,1.0234-.5039,1.7812c0,.6914.1611,1.2373.4834,1.6377s.7549.6006,1.2979.6006c.5352,0,.9697-.1934,1.3037-.5801s.501-.875.501-1.4648Z" fill="#2f2f2f"/>
      <path d="M510.1807,59.1999h-.9844v-8.4023h.9844v8.4023Z" fill="#2f2f2f"/>
      <path d="M517.3384,59.1999h-.9609v-1.0195h-.0234c-.4453.7734-1.1328,1.1602-2.0625,1.1602-.7539,0-1.3564-.2686-1.8076-.8057s-.6768-1.2686-.6768-2.1943c0-.9922.25-1.7871.75-2.3848s1.166-.8965,1.998-.8965c.8242,0,1.4238.3242,1.7988.9727h.0234v-3.7148h.9609v8.8828ZM516.3774,56.487v-.8848c0-.4844-.1602-.8945-.4805-1.2305s-.7266-.5039-1.2188-.5039c-.5859,0-1.0469.2148-1.3828.6445s-.5039,1.0234-.5039,1.7812c0,.6914.1611,1.2373.4834,1.6377s.7549.6006,1.2979.6006c.5352,0,.9697-.1934,1.3037-.5801s.501-.875.501-1.4648Z" fill="#2f2f2f"/>
      <path d="M524.0522,56.4401h-4.2363c.0156.668.1953,1.1836.5391,1.5469s.8164.5449,1.418.5449c.6758,0,1.2969-.2227,1.8633-.668v.9023c-.5273.3828-1.2246.5742-2.0918.5742-.8477,0-1.5137-.2725-1.998-.8174s-.7266-1.3115-.7266-2.2998c0-.9336.2646-1.6943.7939-2.2822s1.1865-.8818,1.9717-.8818,1.3926.2539,1.8223.7617.6445,1.2129.6445,2.1152v.5039ZM523.0679,55.6257c-.0039-.5547-.1377-.9863-.4014-1.2949s-.6299-.4629-1.0986-.4629c-.4531,0-.8379.1621-1.1543.4863s-.5117.748-.5859,1.2715h3.2402Z" fill="#2f2f2f"/>
      <path d="M530.4858,59.1999h-.9609v-3.4219c0-1.2734-.4648-1.9102-1.3945-1.9102-.4805,0-.8779.1807-1.1924.542s-.4717.8174-.4717,1.3682v3.4219h-.9609v-6h.9609v.9961h.0234c.4531-.7578,1.1094-1.1367,1.9688-1.1367.6562,0,1.1582.2119,1.5059.6357s.5215,1.0361.5215,1.8369v3.668Z" fill="#2f2f2f"/>
      <path d="M534.9775,59.1413c-.2266.125-.5254.1875-.8965.1875-1.0508,0-1.5762-.5859-1.5762-1.7578v-3.5508h-1.0312v-.8203h1.0312v-1.4648l.9609-.3105v1.7754h1.5117v.8203h-1.5117v3.3809c0,.4023.0684.6895.2051.8613s.3633.2578.6797.2578c.2422,0,.4512-.0664.627-.1992v.8203Z" fill="#2f2f2f"/>
      <path d="M536.6631,51.6765c-.1719,0-.3184-.0586-.4395-.1758s-.1816-.2656-.1816-.4453.0605-.3291.1816-.4482.2676-.1787.4395-.1787c.1758,0,.3252.0596.4482.1787s.1846.2686.1846.4482c0,.1719-.0615.3184-.1846.4395s-.2725.1816-.4482.1816ZM537.1318,59.1999h-.9609v-6h.9609v6Z" fill="#2f2f2f"/>
      <path d="M541.811,59.1413c-.2266.125-.5254.1875-.8965.1875-1.0508,0-1.5762-.5859-1.5762-1.7578v-3.5508h-1.0312v-.8203h1.0312v-1.4648l.9609-.3105v1.7754h1.5117v.8203h-1.5117v3.3809c0,.4023.0684.6895.2051.8613s.3633.2578.6797.2578c.2422,0,.4512-.0664.627-.1992v.8203Z" fill="#2f2f2f"/>
      <path d="M548.2295,53.1999l-2.7598,6.9609c-.4922,1.2422-1.1836,1.8633-2.0742,1.8633-.25,0-.459-.0254-.627-.0762v-.8613c.207.0703.3965.1055.5684.1055.4844,0,.8477-.2891,1.0898-.8672l.4805-1.1367-2.3438-5.9883h1.0664l1.623,4.6172c.0195.0586.0605.2109.123.457h.0352c.0195-.0938.0586-.2422.1172-.4453l1.7051-4.6289h.9961Z" fill="#2f2f2f"/>
      <path d="M553.6611,56.0241v3.1758h-.9844v-8.4023h2.3086c.8984,0,1.5947.2188,2.0889.6562s.7412,1.0547.7412,1.8516-.2744,1.4492-.8232,1.957-1.29.7617-2.2236.7617h-1.1074ZM553.6611,51.6882v3.4453h1.0312c.6797,0,1.1982-.1553,1.5557-.4658s.5361-.749.5361-1.3154c0-1.1094-.6562-1.6641-1.9688-1.6641h-1.1543Z" fill="#2f2f2f"/>
      <path d="M562.2222,54.1726c-.168-.1289-.4102-.1934-.7266-.1934-.4102,0-.7529.1934-1.0283.5801s-.4131.9141-.4131,1.582v3.0586h-.9609v-6h.9609v1.2363h.0234c.1367-.4219.3457-.751.627-.9873s.5957-.3545.9434-.3545c.25,0,.4414.0273.5742.082v.9961Z" fill="#2f2f2f"/>
      <path d="M565.7861,59.3405c-.8867,0-1.5947-.2803-2.124-.8408s-.7939-1.3037-.7939-2.2295c0-1.0078.2754-1.7949.8262-2.3613s1.2949-.8496,2.2324-.8496c.8945,0,1.5928.2754,2.0947.8262s.7529,1.3145.7529,2.291c0,.957-.2705,1.7236-.8115,2.2998s-1.2666.8643-2.1768.8643ZM565.8564,53.8679c-.6172,0-1.1055.21-1.4648.6299s-.5391.999-.5391,1.7373c0,.7109.1816,1.2715.5449,1.6816s.8496.6152,1.459.6152c.6211,0,1.0986-.2012,1.4326-.6035s.501-.9746.501-1.7168c0-.75-.167-1.3281-.501-1.7344s-.8115-.6094-1.4326-.6094Z" fill="#2f2f2f"/>
      <path d="M574.9004,53.1999l-2.3906,6h-.9434l-2.2734-6h1.0547l1.5234,4.3594c.1133.3203.1836.5996.2109.8379h.0234c.0391-.3008.1016-.5723.1875-.8145l1.5938-4.3828h1.0137Z" fill="#2f2f2f"/>
      <path d="M576.4648,51.6765c-.1719,0-.3184-.0586-.4395-.1758s-.1816-.2656-.1816-.4453.0605-.3291.1816-.4482.2676-.1787.4395-.1787c.1758,0,.3252.0596.4482.1787s.1846.2686.1846.4482c0,.1719-.0615.3184-.1846.4395s-.2725.1816-.4482.1816ZM576.9336,59.1999h-.9609v-6h.9609v6Z" fill="#2f2f2f"/>
      <path d="M583.9233,59.1999h-.9609v-1.0195h-.0234c-.4453.7734-1.1328,1.1602-2.0625,1.1602-.7539,0-1.3564-.2686-1.8076-.8057s-.6768-1.2686-.6768-2.1943c0-.9922.25-1.7871.75-2.3848s1.166-.8965,1.998-.8965c.8242,0,1.4238.3242,1.7988.9727h.0234v-3.7148h.9609v8.8828ZM582.9624,56.487v-.8848c0-.4844-.1602-.8945-.4805-1.2305s-.7266-.5039-1.2188-.5039c-.5859,0-1.0469.2148-1.3828.6445s-.5039,1.0234-.5039,1.7812c0,.6914.1611,1.2373.4834,1.6377s.7549.6006,1.2979.6006c.5352,0,.9697-.1934,1.3037-.5801s.501-.875.501-1.4648Z" fill="#2f2f2f"/>
      <path d="M590.6367,56.4401h-4.2363c.0156.668.1953,1.1836.5391,1.5469s.8164.5449,1.418.5449c.6758,0,1.2969-.2227,1.8633-.668v.9023c-.5273.3828-1.2246.5742-2.0918.5742-.8477,0-1.5137-.2725-1.998-.8174s-.7266-1.3115-.7266-2.2998c0-.9336.2646-1.6943.7939-2.2822s1.1865-.8818,1.9717-.8818,1.3926.2539,1.8223.7617.6445,1.2129.6445,2.1152v.5039ZM589.6523,55.6257c-.0039-.5547-.1377-.9863-.4014-1.2949s-.6299-.4629-1.0986-.4629c-.4531,0-.8379.1621-1.1543.4863s-.5117.748-.5859,1.2715h3.2402Z" fill="#2f2f2f"/>
      <path d="M595.2188,54.1726c-.168-.1289-.4102-.1934-.7266-.1934-.4102,0-.7529.1934-1.0283.5801s-.4131.9141-.4131,1.582v3.0586h-.9609v-6h.9609v1.2363h.0234c.1367-.4219.3457-.751.627-.9873s.5957-.3545.9434-.3545c.25,0,.4414.0273.5742.082v.9961Z" fill="#2f2f2f"/>
    </g>
    <g>
      <path d="M509.0991,102.7009c-.6133.2969-1.4141.4453-2.4023.4453-1.2891,0-2.3027-.3789-3.041-1.1367s-1.1074-1.7676-1.1074-3.0293c0-1.3438.415-2.4336,1.2451-3.2695s1.9072-1.2539,3.2314-1.2539c.8203,0,1.5117.1035,2.0742.3105v1.8223c-.5625-.3359-1.2031-.5039-1.9219-.5039-.7891,0-1.4258.248-1.9102.7441s-.7266,1.168-.7266,2.0156c0,.8125.2285,1.46.6855,1.9424s1.0723.7236,1.8457.7236c.7383,0,1.4141-.1797,2.0273-.5391v1.7285Z" fill="#2f2f2f"/>
      <path d="M515.978,102.9997h-1.8457v-.9141h-.0293c-.457.707-1.0684,1.0605-1.834,1.0605-1.3906,0-2.0859-.8418-2.0859-2.5254v-3.6211h1.8457v3.457c0,.8477.3359,1.2715,1.0078,1.2715.332,0,.5977-.1162.7969-.3486s.2988-.5479.2988-.9463v-3.4336h1.8457v6Z" fill="#2f2f2f"/>
      <path d="M517.2437,102.8415v-1.5c.3047.1836.6084.3203.9111.4102s.5889.1348.8584.1348c.3281,0,.5869-.0449.7764-.1348s.2842-.2266.2842-.4102c0-.1172-.043-.2148-.1289-.293s-.1963-.1465-.3311-.2051-.2822-.1113-.4424-.1582-.3145-.0996-.4629-.1582c-.2383-.0898-.4482-.1865-.6299-.29s-.334-.2236-.457-.3604-.2168-.2949-.2812-.4746-.0967-.3926-.0967-.6387c0-.3359.0732-.625.2197-.8672s.3418-.4404.5859-.5947.5234-.2676.8379-.3398.6416-.1084.9814-.1084c.2656,0,.5352.0205.8086.0615s.543.1006.8086.1787v1.4297c-.2344-.1367-.4854-.2393-.7529-.3076s-.5303-.1025-.7881-.1025c-.1211,0-.2354.0107-.3428.0322s-.2021.0527-.2842.0938-.1465.0938-.1934.1582-.0703.1377-.0703.2197c0,.1094.0352.2031.1055.2812s.1621.1455.2754.2021.2393.1074.3779.1523.2764.0908.4131.1377c.2461.0859.4688.1797.668.2812s.3701.2207.5127.3574.252.2969.3281.4805.1143.4023.1143.6562c0,.3555-.0771.6592-.2314.9111s-.3594.457-.6152.6152-.5508.2734-.8848.3457-.6807.1084-1.04.1084c-.6602,0-1.2715-.1016-1.834-.3047Z" fill="#2f2f2f"/>
      <path d="M526.5161,102.9294c-.2734.1445-.6855.2168-1.2363.2168-1.3047,0-1.957-.6777-1.957-2.0332v-2.748h-.9727v-1.3652h.9727v-1.2949l1.8457-.5273v1.8223h1.3477v1.3652h-1.3477v2.4258c0,.625.248.9375.7441.9375.1953,0,.3965-.0566.6035-.1699v1.3711Z" fill="#2f2f2f"/>
      <path d="M530.4097,103.1462c-1,0-1.7861-.2803-2.3584-.8408s-.8584-1.3213-.8584-2.2822c0-.9922.2969-1.7686.8906-2.3291s1.3965-.8408,2.4082-.8408c.9961,0,1.7773.2803,2.3438.8408s.8496,1.3018.8496,2.2236c0,.9961-.292,1.7832-.876,2.3613s-1.3838.8672-2.3994.8672ZM530.4565,98.2712c-.4375,0-.7773.1504-1.0195.4512s-.3633.7266-.3633,1.2773c0,1.1523.4648,1.7285,1.3945,1.7285.8867,0,1.3301-.5918,1.3301-1.7754,0-1.1211-.4473-1.6816-1.3418-1.6816Z" fill="#2f2f2f"/>
      <path d="M544.4053,102.9997h-1.8457v-3.4219c0-.8711-.3203-1.3066-.9609-1.3066-.3047,0-.5527.1309-.7441.3926s-.2871.5879-.2871.9785v3.3574h-1.8516v-3.457c0-.8477-.3145-1.2715-.9434-1.2715-.3164,0-.5693.125-.7588.375s-.2842.5898-.2842,1.0195v3.334h-1.8516v-6h1.8516v.9375h.0234c.1914-.3203.46-.5811.8057-.7822s.7236-.3018,1.1338-.3018c.8477,0,1.4277.373,1.7402,1.1191.457-.7461,1.1289-1.1191,2.0156-1.1191,1.3047,0,1.957.8047,1.957,2.4141v3.7324Z" fill="#2f2f2f"/>
      <path d="M551.2896,100.5271h-3.9141c.0625.8711.6113,1.3066,1.6465,1.3066.6602,0,1.2402-.1562,1.7402-.4688v1.3359c-.5547.2969-1.2754.4453-2.1621.4453-.9688,0-1.7207-.2686-2.2559-.8057s-.8027-1.2861-.8027-2.2471c0-.9961.2891-1.7852.8672-2.3672s1.2891-.873,2.1328-.873c.875,0,1.5518.2598,2.0303.7793s.7178,1.2246.7178,2.1152v.7793ZM549.5728,99.3903c0-.8594-.3477-1.2891-1.043-1.2891-.2969,0-.5537.123-.7705.3691s-.3486.5527-.3955.9199h2.209Z" fill="#2f2f2f"/>
      <path d="M556.3823,98.6696c-.2227-.1211-.4824-.1816-.7793-.1816-.4023,0-.7168.1475-.9434.4424s-.3398.6963-.3398,1.2041v2.8652h-1.8516v-6h1.8516v1.1133h.0234c.293-.8125.8203-1.2188,1.582-1.2188.1953,0,.3477.0234.457.0703v1.7051Z" fill="#2f2f2f"/>
      <path d="M560.7358,102.9997v-8.4023h3.0586c.9375,0,1.6582.1719,2.1621.5156s.7559.8281.7559,1.4531c0,.4531-.1533.8496-.46,1.1895s-.6982.5762-1.1748.709v.0234c.5977.0742,1.0752.2949,1.4326.6621s.5361.8145.5361,1.3418c0,.7695-.2754,1.3799-.8262,1.8311s-1.3027.6768-2.2559.6768h-3.2285ZM562.6284,95.9919v1.9922h.832c.3906,0,.6982-.0947.9229-.2842s.3369-.4502.3369-.7822c0-.6172-.4609-.9258-1.3828-.9258h-.709ZM562.6284,99.3903v2.2148h1.0254c.4375,0,.7803-.1016,1.0283-.3047s.3721-.4805.3721-.832c0-.3359-.1221-.5996-.3662-.791s-.585-.2871-1.0225-.2871h-1.0371Z" fill="#2f2f2f"/>
    </g>
    <g>
      <path d="M457.2778,117.6882h-3.2812v2.9062h3.0352v.8848h-3.0352v3.7207h-.9844v-8.4023h4.2656v.8906Z" fill="#2f2f2f"/>
      <path d="M463.4424,122.4401h-4.2363c.0156.668.1953,1.1836.5391,1.5469s.8164.5449,1.418.5449c.6758,0,1.2969-.2227,1.8633-.668v.9023c-.5273.3828-1.2246.5742-2.0918.5742-.8477,0-1.5137-.2725-1.998-.8174s-.7266-1.3115-.7266-2.2998c0-.9336.2646-1.6943.7939-2.2822s1.1865-.8818,1.9717-.8818,1.3926.2539,1.8223.7617.6445,1.2129.6445,2.1152v.5039ZM462.458,121.6257c-.0039-.5547-.1377-.9863-.4014-1.2949s-.6299-.4629-1.0986-.4629c-.4531,0-.8379.1621-1.1543.4863s-.5117.748-.5859,1.2715h3.2402Z" fill="#2f2f2f"/>
      <path d="M470.0791,125.1999h-.9609v-1.0195h-.0234c-.4453.7734-1.1328,1.1602-2.0625,1.1602-.7539,0-1.3564-.2686-1.8076-.8057s-.6768-1.2686-.6768-2.1943c0-.9922.25-1.7871.75-2.3848s1.166-.8965,1.998-.8965c.8242,0,1.4238.3242,1.7988.9727h.0234v-3.7148h.9609v8.8828ZM469.1182,122.487v-.8848c0-.4844-.1602-.8945-.4805-1.2305s-.7266-.5039-1.2188-.5039c-.5859,0-1.0469.2148-1.3828.6445s-.5039,1.0234-.5039,1.7812c0,.6914.1611,1.2373.4834,1.6377s.7549.6006,1.2979.6006c.5352,0,.9697-.1934,1.3037-.5801s.501-.875.501-1.4648Z" fill="#2f2f2f"/>
      <path d="M476.793,122.4401h-4.2363c.0156.668.1953,1.1836.5391,1.5469s.8164.5449,1.418.5449c.6758,0,1.2969-.2227,1.8633-.668v.9023c-.5273.3828-1.2246.5742-2.0918.5742-.8477,0-1.5137-.2725-1.998-.8174s-.7266-1.3115-.7266-2.2998c0-.9336.2646-1.6943.7939-2.2822s1.1865-.8818,1.9717-.8818,1.3926.2539,1.8223.7617.6445,1.2129.6445,2.1152v.5039ZM475.8086,121.6257c-.0039-.5547-.1377-.9863-.4014-1.2949s-.6299-.4629-1.0986-.4629c-.4531,0-.8379.1621-1.1543.4863s-.5117.748-.5859,1.2715h3.2402Z" fill="#2f2f2f"/>
      <path d="M481.375,120.1726c-.168-.1289-.4102-.1934-.7266-.1934-.4102,0-.7529.1934-1.0283.5801s-.4131.9141-.4131,1.582v3.0586h-.9609v-6h.9609v1.2363h.0234c.1367-.4219.3457-.751.627-.9873s.5957-.3545.9434-.3545c.25,0,.4414.0273.5742.082v.9961Z" fill="#2f2f2f"/>
      <path d="M486.6777,125.1999h-.9609v-.9375h-.0234c-.418.7188-1.0332,1.0781-1.8457,1.0781-.5977,0-1.0654-.1582-1.4033-.4746s-.5068-.7363-.5068-1.2598c0-1.1211.6602-1.7734,1.9805-1.957l1.7988-.252c0-1.0195-.4121-1.5293-1.2363-1.5293-.7227,0-1.375.2461-1.957.7383v-.9844c.5898-.375,1.2695-.5625,2.0391-.5625,1.4102,0,2.1152.7461,2.1152,2.2383v3.9023ZM485.7168,122.1647l-1.4473.1992c-.4453.0625-.7812.1729-1.0078.3311s-.3398.4385-.3398.8408c0,.293.1045.5322.3135.7178s.4873.2783.835.2783c.4766,0,.8701-.167,1.1807-.501s.4658-.7568.4658-1.2686v-.5977Z" fill="#2f2f2f"/>
      <path d="M491.1948,125.1413c-.2266.125-.5254.1875-.8965.1875-1.0508,0-1.5762-.5859-1.5762-1.7578v-3.5508h-1.0312v-.8203h1.0312v-1.4648l.9609-.3105v1.7754h1.5117v.8203h-1.5117v3.3809c0,.4023.0684.6895.2051.8613s.3633.2578.6797.2578c.2422,0,.4512-.0664.627-.1992v.8203Z" fill="#2f2f2f"/>
      <path d="M497.1982,122.4401h-4.2363c.0156.668.1953,1.1836.5391,1.5469s.8164.5449,1.418.5449c.6758,0,1.2969-.2227,1.8633-.668v.9023c-.5273.3828-1.2246.5742-2.0918.5742-.8477,0-1.5137-.2725-1.998-.8174s-.7266-1.3115-.7266-2.2998c0-.9336.2646-1.6943.7939-2.2822s1.1865-.8818,1.9717-.8818,1.3926.2539,1.8223.7617.6445,1.2129.6445,2.1152v.5039ZM496.2139,121.6257c-.0039-.5547-.1377-.9863-.4014-1.2949s-.6299-.4629-1.0986-.4629c-.4531,0-.8379.1621-1.1543.4863s-.5117.748-.5859,1.2715h3.2402Z" fill="#2f2f2f"/>
      <path d="M503.835,125.1999h-.9609v-1.0195h-.0234c-.4453.7734-1.1328,1.1602-2.0625,1.1602-.7539,0-1.3564-.2686-1.8076-.8057s-.6768-1.2686-.6768-2.1943c0-.9922.25-1.7871.75-2.3848s1.166-.8965,1.998-.8965c.8242,0,1.4238.3242,1.7988.9727h.0234v-3.7148h.9609v8.8828ZM502.874,122.487v-.8848c0-.4844-.1602-.8945-.4805-1.2305s-.7266-.5039-1.2188-.5039c-.5859,0-1.0469.2148-1.3828.6445s-.5039,1.0234-.5039,1.7812c0,.6914.1611,1.2373.4834,1.6377s.7549.6006,1.2979.6006c.5352,0,.9697-.1934,1.3037-.5801s.501-.875.501-1.4648Z" fill="#2f2f2f"/>
      <path d="M510.1807,125.1999h-.9844v-8.4023h.9844v8.4023Z" fill="#2f2f2f"/>
      <path d="M517.3384,125.1999h-.9609v-1.0195h-.0234c-.4453.7734-1.1328,1.1602-2.0625,1.1602-.7539,0-1.3564-.2686-1.8076-.8057s-.6768-1.2686-.6768-2.1943c0-.9922.25-1.7871.75-2.3848s1.166-.8965,1.998-.8965c.8242,0,1.4238.3242,1.7988.9727h.0234v-3.7148h.9609v8.8828ZM516.3774,122.487v-.8848c0-.4844-.1602-.8945-.4805-1.2305s-.7266-.5039-1.2188-.5039c-.5859,0-1.0469.2148-1.3828.6445s-.5039,1.0234-.5039,1.7812c0,.6914.1611,1.2373.4834,1.6377s.7549.6006,1.2979.6006c.5352,0,.9697-.1934,1.3037-.5801s.501-.875.501-1.4648Z" fill="#2f2f2f"/>
      <path d="M524.0522,122.4401h-4.2363c.0156.668.1953,1.1836.5391,1.5469s.8164.5449,1.418.5449c.6758,0,1.2969-.2227,1.8633-.668v.9023c-.5273.3828-1.2246.5742-2.0918.5742-.8477,0-1.5137-.2725-1.998-.8174s-.7266-1.3115-.7266-2.2998c0-.9336.2646-1.6943.7939-2.2822s1.1865-.8818,1.9717-.8818,1.3926.2539,1.8223.7617.6445,1.2129.6445,2.1152v.5039ZM523.0679,121.6257c-.0039-.5547-.1377-.9863-.4014-1.2949s-.6299-.4629-1.0986-.4629c-.4531,0-.8379.1621-1.1543.4863s-.5117.748-.5859,1.2715h3.2402Z" fill="#2f2f2f"/>
      <path d="M530.4858,125.1999h-.9609v-3.4219c0-1.2734-.4648-1.9102-1.3945-1.9102-.4805,0-.8779.1807-1.1924.542s-.4717.8174-.4717,1.3682v3.4219h-.9609v-6h.9609v.9961h.0234c.4531-.7578,1.1094-1.1367,1.9688-1.1367.6562,0,1.1582.2119,1.5059.6357s.5215,1.0361.5215,1.8369v3.668Z" fill="#2f2f2f"/>
      <path d="M534.9775,125.1413c-.2266.125-.5254.1875-.8965.1875-1.0508,0-1.5762-.5859-1.5762-1.7578v-3.5508h-1.0312v-.8203h1.0312v-1.4648l.9609-.3105v1.7754h1.5117v.8203h-1.5117v3.3809c0,.4023.0684.6895.2051.8613s.3633.2578.6797.2578c.2422,0,.4512-.0664.627-.1992v.8203Z" fill="#2f2f2f"/>
      <path d="M536.6631,117.6765c-.1719,0-.3184-.0586-.4395-.1758s-.1816-.2656-.1816-.4453.0605-.3291.1816-.4482.2676-.1787.4395-.1787c.1758,0,.3252.0596.4482.1787s.1846.2686.1846.4482c0,.1719-.0615.3184-.1846.4395s-.2725.1816-.4482.1816ZM537.1318,125.1999h-.9609v-6h.9609v6Z" fill="#2f2f2f"/>
      <path d="M541.811,125.1413c-.2266.125-.5254.1875-.8965.1875-1.0508,0-1.5762-.5859-1.5762-1.7578v-3.5508h-1.0312v-.8203h1.0312v-1.4648l.9609-.3105v1.7754h1.5117v.8203h-1.5117v3.3809c0,.4023.0684.6895.2051.8613s.3633.2578.6797.2578c.2422,0,.4512-.0664.627-.1992v.8203Z" fill="#2f2f2f"/>
      <path d="M548.2295,119.1999l-2.7598,6.9609c-.4922,1.2422-1.1836,1.8633-2.0742,1.8633-.25,0-.459-.0254-.627-.0762v-.8613c.207.0703.3965.1055.5684.1055.4844,0,.8477-.2891,1.0898-.8672l.4805-1.1367-2.3438-5.9883h1.0664l1.623,4.6172c.0195.0586.0605.2109.123.457h.0352c.0195-.0938.0586-.2422.1172-.4453l1.7051-4.6289h.9961Z" fill="#2f2f2f"/>
      <path d="M553.6611,122.0241v3.1758h-.9844v-8.4023h2.3086c.8984,0,1.5947.2188,2.0889.6562s.7412,1.0547.7412,1.8516-.2744,1.4492-.8232,1.957-1.29.7617-2.2236.7617h-1.1074ZM553.6611,117.6882v3.4453h1.0312c.6797,0,1.1982-.1553,1.5557-.4658s.5361-.749.5361-1.3154c0-1.1094-.6562-1.6641-1.9688-1.6641h-1.1543Z" fill="#2f2f2f"/>
      <path d="M562.2222,120.1726c-.168-.1289-.4102-.1934-.7266-.1934-.4102,0-.7529.1934-1.0283.5801s-.4131.9141-.4131,1.582v3.0586h-.9609v-6h.9609v1.2363h.0234c.1367-.4219.3457-.751.627-.9873s.5957-.3545.9434-.3545c.25,0,.4414.0273.5742.082v.9961Z" fill="#2f2f2f"/>
      <path d="M565.7861,125.3405c-.8867,0-1.5947-.2803-2.124-.8408s-.7939-1.3037-.7939-2.2295c0-1.0078.2754-1.7949.8262-2.3613s1.2949-.8496,2.2324-.8496c.8945,0,1.5928.2754,2.0947.8262s.7529,1.3145.7529,2.291c0,.957-.2705,1.7236-.8115,2.2998s-1.2666.8643-2.1768.8643ZM565.8564,119.8679c-.6172,0-1.1055.21-1.4648.6299s-.5391.999-.5391,1.7373c0,.7109.1816,1.2715.5449,1.6816s.8496.6152,1.459.6152c.6211,0,1.0986-.2012,1.4326-.6035s.501-.9746.501-1.7168c0-.75-.167-1.3281-.501-1.7344s-.8115-.6094-1.4326-.6094Z" fill="#2f2f2f"/>
      <path d="M574.9004,119.1999l-2.3906,6h-.9434l-2.2734-6h1.0547l1.5234,4.3594c.1133.3203.1836.5996.2109.8379h.0234c.0391-.3008.1016-.5723.1875-.8145l1.5938-4.3828h1.0137Z" fill="#2f2f2f"/>
      <path d="M576.4648,117.6765c-.1719,0-.3184-.0586-.4395-.1758s-.1816-.2656-.1816-.4453.0605-.3291.1816-.4482.2676-.1787.4395-.1787c.1758,0,.3252.0596.4482.1787s.1846.2686.1846.4482c0,.1719-.0615.3184-.1846.4395s-.2725.1816-.4482.1816ZM576.9336,125.1999h-.9609v-6h.9609v6Z" fill="#2f2f2f"/>
      <path d="M583.9233,125.1999h-.9609v-1.0195h-.0234c-.4453.7734-1.1328,1.1602-2.0625,1.1602-.7539,0-1.3564-.2686-1.8076-.8057s-.6768-1.2686-.6768-2.1943c0-.9922.25-1.7871.75-2.3848s1.166-.8965,1.998-.8965c.8242,0,1.4238.3242,1.7988.9727h.0234v-3.7148h.9609v8.8828ZM582.9624,122.487v-.8848c0-.4844-.1602-.8945-.4805-1.2305s-.7266-.5039-1.2188-.5039c-.5859,0-1.0469.2148-1.3828.6445s-.5039,1.0234-.5039,1.7812c0,.6914.1611,1.2373.4834,1.6377s.7549.6006,1.2979.6006c.5352,0,.9697-.1934,1.3037-.5801s.501-.875.501-1.4648Z" fill="#2f2f2f"/>
      <path d="M590.6367,122.4401h-4.2363c.0156.668.1953,1.1836.5391,1.5469s.8164.5449,1.418.5449c.6758,0,1.2969-.2227,1.8633-.668v.9023c-.5273.3828-1.2246.5742-2.0918.5742-.8477,0-1.5137-.2725-1.998-.8174s-.7266-1.3115-.7266-2.2998c0-.9336.2646-1.6943.7939-2.2822s1.1865-.8818,1.9717-.8818,1.3926.2539,1.8223.7617.6445,1.2129.6445,2.1152v.5039ZM589.6523,121.6257c-.0039-.5547-.1377-.9863-.4014-1.2949s-.6299-.4629-1.0986-.4629c-.4531,0-.8379.1621-1.1543.4863s-.5117.748-.5859,1.2715h3.2402Z" fill="#2f2f2f"/>
      <path d="M595.2188,120.1726c-.168-.1289-.4102-.1934-.7266-.1934-.4102,0-.7529.1934-1.0283.5801s-.4131.9141-.4131,1.582v3.0586h-.9609v-6h.9609v1.2363h.0234c.1367-.4219.3457-.751.627-.9873s.5957-.3545.9434-.3545c.25,0,.4414.0273.5742.082v.9961Z" fill="#2f2f2f"/>
    </g>
    <g>
      <path d="M509.2017,168.7009c-.6133.2969-1.4141.4453-2.4023.4453-1.2891,0-2.3027-.3789-3.041-1.1367s-1.1074-1.7676-1.1074-3.0293c0-1.3438.415-2.4336,1.2451-3.2695s1.9072-1.2539,3.2314-1.2539c.8203,0,1.5117.1035,2.0742.3105v1.8223c-.5625-.3359-1.2031-.5039-1.9219-.5039-.7891,0-1.4258.248-1.9102.7441s-.7266,1.168-.7266,2.0156c0,.8125.2285,1.46.6855,1.9424s1.0723.7236,1.8457.7236c.7383,0,1.4141-.1797,2.0273-.5391v1.7285Z" fill="#2f2f2f"/>
      <path d="M516.0806,168.9997h-1.8457v-.9141h-.0293c-.457.707-1.0684,1.0605-1.834,1.0605-1.3906,0-2.0859-.8418-2.0859-2.5254v-3.6211h1.8457v3.457c0,.8477.3359,1.2715,1.0078,1.2715.332,0,.5977-.1162.7969-.3486s.2988-.5479.2988-.9463v-3.4336h1.8457v6Z" fill="#2f2f2f"/>
      <path d="M517.3462,168.8415v-1.5c.3047.1836.6084.3203.9111.4102s.5889.1348.8584.1348c.3281,0,.5869-.0449.7764-.1348s.2842-.2266.2842-.4102c0-.1172-.043-.2148-.1289-.293s-.1963-.1465-.3311-.2051-.2822-.1113-.4424-.1582-.3145-.0996-.4629-.1582c-.2383-.0898-.4482-.1865-.6299-.29s-.334-.2236-.457-.3604-.2168-.2949-.2812-.4746-.0967-.3926-.0967-.6387c0-.3359.0732-.625.2197-.8672s.3418-.4404.5859-.5947.5234-.2676.8379-.3398.6416-.1084.9814-.1084c.2656,0,.5352.0205.8086.0615s.543.1006.8086.1787v1.4297c-.2344-.1367-.4854-.2393-.7529-.3076s-.5303-.1025-.7881-.1025c-.1211,0-.2354.0107-.3428.0322s-.2021.0527-.2842.0938-.1465.0938-.1934.1582-.0703.1377-.0703.2197c0,.1094.0352.2031.1055.2812s.1621.1455.2754.2021.2393.1074.3779.1523.2764.0908.4131.1377c.2461.0859.4688.1797.668.2812s.3701.2207.5127.3574.252.2969.3281.4805.1143.4023.1143.6562c0,.3555-.0771.6592-.2314.9111s-.3594.457-.6152.6152-.5508.2734-.8848.3457-.6807.1084-1.04.1084c-.6602,0-1.2715-.1016-1.834-.3047Z" fill="#2f2f2f"/>
      <path d="M526.6187,168.9294c-.2734.1445-.6855.2168-1.2363.2168-1.3047,0-1.957-.6777-1.957-2.0332v-2.748h-.9727v-1.3652h.9727v-1.2949l1.8457-.5273v1.8223h1.3477v1.3652h-1.3477v2.4258c0,.625.248.9375.7441.9375.1953,0,.3965-.0566.6035-.1699v1.3711Z" fill="#2f2f2f"/>
      <path d="M530.5122,169.1462c-1,0-1.7861-.2803-2.3584-.8408s-.8584-1.3213-.8584-2.2822c0-.9922.2969-1.7686.8906-2.3291s1.3965-.8408,2.4082-.8408c.9961,0,1.7773.2803,2.3438.8408s.8496,1.3018.8496,2.2236c0,.9961-.292,1.7832-.876,2.3613s-1.3838.8672-2.3994.8672ZM530.5591,164.2712c-.4375,0-.7773.1504-1.0195.4512s-.3633.7266-.3633,1.2773c0,1.1523.4648,1.7285,1.3945,1.7285.8867,0,1.3301-.5918,1.3301-1.7754,0-1.1211-.4473-1.6816-1.3418-1.6816Z" fill="#2f2f2f"/>
      <path d="M544.5078,168.9997h-1.8457v-3.4219c0-.8711-.3203-1.3066-.9609-1.3066-.3047,0-.5527.1309-.7441.3926s-.2871.5879-.2871.9785v3.3574h-1.8516v-3.457c0-.8477-.3145-1.2715-.9434-1.2715-.3164,0-.5693.125-.7588.375s-.2842.5898-.2842,1.0195v3.334h-1.8516v-6h1.8516v.9375h.0234c.1914-.3203.46-.5811.8057-.7822s.7236-.3018,1.1338-.3018c.8477,0,1.4277.373,1.7402,1.1191.457-.7461,1.1289-1.1191,2.0156-1.1191,1.3047,0,1.957.8047,1.957,2.4141v3.7324Z" fill="#2f2f2f"/>
      <path d="M551.3921,166.5271h-3.9141c.0625.8711.6113,1.3066,1.6465,1.3066.6602,0,1.2402-.1562,1.7402-.4688v1.3359c-.5547.2969-1.2754.4453-2.1621.4453-.9688,0-1.7207-.2686-2.2559-.8057s-.8027-1.2861-.8027-2.2471c0-.9961.2891-1.7852.8672-2.3672s1.2891-.873,2.1328-.873c.875,0,1.5518.2598,2.0303.7793s.7178,1.2246.7178,2.1152v.7793ZM549.6753,165.3903c0-.8594-.3477-1.2891-1.043-1.2891-.2969,0-.5537.123-.7705.3691s-.3486.5527-.3955.9199h2.209Z" fill="#2f2f2f"/>
      <path d="M556.4849,164.6696c-.2227-.1211-.4824-.1816-.7793-.1816-.4023,0-.7168.1475-.9434.4424s-.3398.6963-.3398,1.2041v2.8652h-1.8516v-6h1.8516v1.1133h.0234c.293-.8125.8203-1.2188,1.582-1.2188.1953,0,.3477.0234.457.0703v1.7051Z" fill="#2f2f2f"/>
      <path d="M566.8618,168.7009c-.6133.2969-1.4141.4453-2.4023.4453-1.2891,0-2.3027-.3789-3.041-1.1367s-1.1074-1.7676-1.1074-3.0293c0-1.3438.415-2.4336,1.2451-3.2695s1.9072-1.2539,3.2314-1.2539c.8203,0,1.5117.1035,2.0742.3105v1.8223c-.5625-.3359-1.2031-.5039-1.9219-.5039-.7891,0-1.4258.248-1.9102.7441s-.7266,1.168-.7266,2.0156c0,.8125.2285,1.46.6855,1.9424s1.0723.7236,1.8457.7236c.7383,0,1.4141-.1797,2.0273-.5391v1.7285Z" fill="#2f2f2f"/>
    </g>
    <g>
      <path d="M457.2778,183.6882h-3.2812v2.9062h3.0352v.8848h-3.0352v3.7207h-.9844v-8.4023h4.2656v.8906Z" fill="#2f2f2f"/>
      <path d="M463.4424,188.4401h-4.2363c.0156.668.1953,1.1836.5391,1.5469s.8164.5449,1.418.5449c.6758,0,1.2969-.2227,1.8633-.668v.9023c-.5273.3828-1.2246.5742-2.0918.5742-.8477,0-1.5137-.2725-1.998-.8174s-.7266-1.3115-.7266-2.2998c0-.9336.2646-1.6943.7939-2.2822s1.1865-.8818,1.9717-.8818,1.3926.2539,1.8223.7617.6445,1.2129.6445,2.1152v.5039ZM462.458,187.6257c-.0039-.5547-.1377-.9863-.4014-1.2949s-.6299-.4629-1.0986-.4629c-.4531,0-.8379.1621-1.1543.4863s-.5117.748-.5859,1.2715h3.2402Z" fill="#2f2f2f"/>
      <path d="M470.0791,191.1999h-.9609v-1.0195h-.0234c-.4453.7734-1.1328,1.1602-2.0625,1.1602-.7539,0-1.3564-.2686-1.8076-.8057s-.6768-1.2686-.6768-2.1943c0-.9922.25-1.7871.75-2.3848s1.166-.8965,1.998-.8965c.8242,0,1.4238.3242,1.7988.9727h.0234v-3.7148h.9609v8.8828ZM469.1182,188.487v-.8848c0-.4844-.1602-.8945-.4805-1.2305s-.7266-.5039-1.2188-.5039c-.5859,0-1.0469.2148-1.3828.6445s-.5039,1.0234-.5039,1.7812c0,.6914.1611,1.2373.4834,1.6377s.7549.6006,1.2979.6006c.5352,0,.9697-.1934,1.3037-.5801s.501-.875.501-1.4648Z" fill="#2f2f2f"/>
      <path d="M476.793,188.4401h-4.2363c.0156.668.1953,1.1836.5391,1.5469s.8164.5449,1.418.5449c.6758,0,1.2969-.2227,1.8633-.668v.9023c-.5273.3828-1.2246.5742-2.0918.5742-.8477,0-1.5137-.2725-1.998-.8174s-.7266-1.3115-.7266-2.2998c0-.9336.2646-1.6943.7939-2.2822s1.1865-.8818,1.9717-.8818,1.3926.2539,1.8223.7617.6445,1.2129.6445,2.1152v.5039ZM475.8086,187.6257c-.0039-.5547-.1377-.9863-.4014-1.2949s-.6299-.4629-1.0986-.4629c-.4531,0-.8379.1621-1.1543.4863s-.5117.748-.5859,1.2715h3.2402Z" fill="#2f2f2f"/>
      <path d="M481.375,186.1726c-.168-.1289-.4102-.1934-.7266-.1934-.4102,0-.7529.1934-1.0283.5801s-.4131.9141-.4131,1.582v3.0586h-.9609v-6h.9609v1.2363h.0234c.1367-.4219.3457-.751.627-.9873s.5957-.3545.9434-.3545c.25,0,.4414.0273.5742.082v.9961Z" fill="#2f2f2f"/>
      <path d="M486.6777,191.1999h-.9609v-.9375h-.0234c-.418.7188-1.0332,1.0781-1.8457,1.0781-.5977,0-1.0654-.1582-1.4033-.4746s-.5068-.7363-.5068-1.2598c0-1.1211.6602-1.7734,1.9805-1.957l1.7988-.252c0-1.0195-.4121-1.5293-1.2363-1.5293-.7227,0-1.375.2461-1.957.7383v-.9844c.5898-.375,1.2695-.5625,2.0391-.5625,1.4102,0,2.1152.7461,2.1152,2.2383v3.9023ZM485.7168,188.1647l-1.4473.1992c-.4453.0625-.7812.1729-1.0078.3311s-.3398.4385-.3398.8408c0,.293.1045.5322.3135.7178s.4873.2783.835.2783c.4766,0,.8701-.167,1.1807-.501s.4658-.7568.4658-1.2686v-.5977Z" fill="#2f2f2f"/>
      <path d="M491.1948,191.1413c-.2266.125-.5254.1875-.8965.1875-1.0508,0-1.5762-.5859-1.5762-1.7578v-3.5508h-1.0312v-.8203h1.0312v-1.4648l.9609-.3105v1.7754h1.5117v.8203h-1.5117v3.3809c0,.4023.0684.6895.2051.8613s.3633.2578.6797.2578c.2422,0,.4512-.0664.627-.1992v.8203Z" fill="#2f2f2f"/>
      <path d="M497.1982,188.4401h-4.2363c.0156.668.1953,1.1836.5391,1.5469s.8164.5449,1.418.5449c.6758,0,1.2969-.2227,1.8633-.668v.9023c-.5273.3828-1.2246.5742-2.0918.5742-.8477,0-1.5137-.2725-1.998-.8174s-.7266-1.3115-.7266-2.2998c0-.9336.2646-1.6943.7939-2.2822s1.1865-.8818,1.9717-.8818,1.3926.2539,1.8223.7617.6445,1.2129.6445,2.1152v.5039ZM496.2139,187.6257c-.0039-.5547-.1377-.9863-.4014-1.2949s-.6299-.4629-1.0986-.4629c-.4531,0-.8379.1621-1.1543.4863s-.5117.748-.5859,1.2715h3.2402Z" fill="#2f2f2f"/>
      <path d="M503.835,191.1999h-.9609v-1.0195h-.0234c-.4453.7734-1.1328,1.1602-2.0625,1.1602-.7539,0-1.3564-.2686-1.8076-.8057s-.6768-1.2686-.6768-2.1943c0-.9922.25-1.7871.75-2.3848s1.166-.8965,1.998-.8965c.8242,0,1.4238.3242,1.7988.9727h.0234v-3.7148h.9609v8.8828ZM502.874,188.487v-.8848c0-.4844-.1602-.8945-.4805-1.2305s-.7266-.5039-1.2188-.5039c-.5859,0-1.0469.2148-1.3828.6445s-.5039,1.0234-.5039,1.7812c0,.6914.1611,1.2373.4834,1.6377s.7549.6006,1.2979.6006c.5352,0,.9697-.1934,1.3037-.5801s.501-.875.501-1.4648Z" fill="#2f2f2f"/>
      <path d="M510.1807,191.1999h-.9844v-8.4023h.9844v8.4023Z" fill="#2f2f2f"/>
      <path d="M517.3384,191.1999h-.9609v-1.0195h-.0234c-.4453.7734-1.1328,1.1602-2.0625,1.1602-.7539,0-1.3564-.2686-1.8076-.8057s-.6768-1.2686-.6768-2.1943c0-.9922.25-1.7871.75-2.3848s1.166-.8965,1.998-.8965c.8242,0,1.4238.3242,1.7988.9727h.0234v-3.7148h.9609v8.8828ZM516.3774,188.487v-.8848c0-.4844-.1602-.8945-.4805-1.2305s-.7266-.5039-1.2188-.5039c-.5859,0-1.0469.2148-1.3828.6445s-.5039,1.0234-.5039,1.7812c0,.6914.1611,1.2373.4834,1.6377s.7549.6006,1.2979.6006c.5352,0,.9697-.1934,1.3037-.5801s.501-.875.501-1.4648Z" fill="#2f2f2f"/>
      <path d="M524.0522,188.4401h-4.2363c.0156.668.1953,1.1836.5391,1.5469s.8164.5449,1.418.5449c.6758,0,1.2969-.2227,1.8633-.668v.9023c-.5273.3828-1.2246.5742-2.0918.5742-.8477,0-1.5137-.2725-1.998-.8174s-.7266-1.3115-.7266-2.2998c0-.9336.2646-1.6943.7939-2.2822s1.1865-.8818,1.9717-.8818,1.3926.2539,1.8223.7617.6445,1.2129.6445,2.1152v.5039ZM523.0679,187.6257c-.0039-.5547-.1377-.9863-.4014-1.2949s-.6299-.4629-1.0986-.4629c-.4531,0-.8379.1621-1.1543.4863s-.5117.748-.5859,1.2715h3.2402Z" fill="#2f2f2f"/>
      <path d="M530.4858,191.1999h-.9609v-3.4219c0-1.2734-.4648-1.9102-1.3945-1.9102-.4805,0-.8779.1807-1.1924.542s-.4717.8174-.4717,1.3682v3.4219h-.9609v-6h.9609v.9961h.0234c.4531-.7578,1.1094-1.1367,1.9688-1.1367.6562,0,1.1582.2119,1.5059.6357s.5215,1.0361.5215,1.8369v3.668Z" fill="#2f2f2f"/>
      <path d="M534.9775,191.1413c-.2266.125-.5254.1875-.8965.1875-1.0508,0-1.5762-.5859-1.5762-1.7578v-3.5508h-1.0312v-.8203h1.0312v-1.4648l.9609-.3105v1.7754h1.5117v.8203h-1.5117v3.3809c0,.4023.0684.6895.2051.8613s.3633.2578.6797.2578c.2422,0,.4512-.0664.627-.1992v.8203Z" fill="#2f2f2f"/>
      <path d="M536.6631,183.6765c-.1719,0-.3184-.0586-.4395-.1758s-.1816-.2656-.1816-.4453.0605-.3291.1816-.4482.2676-.1787.4395-.1787c.1758,0,.3252.0596.4482.1787s.1846.2686.1846.4482c0,.1719-.0615.3184-.1846.4395s-.2725.1816-.4482.1816ZM537.1318,191.1999h-.9609v-6h.9609v6Z" fill="#2f2f2f"/>
      <path d="M541.811,191.1413c-.2266.125-.5254.1875-.8965.1875-1.0508,0-1.5762-.5859-1.5762-1.7578v-3.5508h-1.0312v-.8203h1.0312v-1.4648l.9609-.3105v1.7754h1.5117v.8203h-1.5117v3.3809c0,.4023.0684.6895.2051.8613s.3633.2578.6797.2578c.2422,0,.4512-.0664.627-.1992v.8203Z" fill="#2f2f2f"/>
      <path d="M548.2295,185.1999l-2.7598,6.9609c-.4922,1.2422-1.1836,1.8633-2.0742,1.8633-.25,0-.459-.0254-.627-.0762v-.8613c.207.0703.3965.1055.5684.1055.4844,0,.8477-.2891,1.0898-.8672l.4805-1.1367-2.3438-5.9883h1.0664l1.623,4.6172c.0195.0586.0605.2109.123.457h.0352c.0195-.0938.0586-.2422.1172-.4453l1.7051-4.6289h.9961Z" fill="#2f2f2f"/>
      <path d="M553.6611,188.0241v3.1758h-.9844v-8.4023h2.3086c.8984,0,1.5947.2188,2.0889.6562s.7412,1.0547.7412,1.8516-.2744,1.4492-.8232,1.957-1.29.7617-2.2236.7617h-1.1074ZM553.6611,183.6882v3.4453h1.0312c.6797,0,1.1982-.1553,1.5557-.4658s.5361-.749.5361-1.3154c0-1.1094-.6562-1.6641-1.9688-1.6641h-1.1543Z" fill="#2f2f2f"/>
      <path d="M562.2222,186.1726c-.168-.1289-.4102-.1934-.7266-.1934-.4102,0-.7529.1934-1.0283.5801s-.4131.9141-.4131,1.582v3.0586h-.9609v-6h.9609v1.2363h.0234c.1367-.4219.3457-.751.627-.9873s.5957-.3545.9434-.3545c.25,0,.4414.0273.5742.082v.9961Z" fill="#2f2f2f"/>
      <path d="M565.7861,191.3405c-.8867,0-1.5947-.2803-2.124-.8408s-.7939-1.3037-.7939-2.2295c0-1.0078.2754-1.7949.8262-2.3613s1.2949-.8496,2.2324-.8496c.8945,0,1.5928.2754,2.0947.8262s.7529,1.3145.7529,2.291c0,.957-.2705,1.7236-.8115,2.2998s-1.2666.8643-2.1768.8643ZM565.8564,185.8679c-.6172,0-1.1055.21-1.4648.6299s-.5391.999-.5391,1.7373c0,.7109.1816,1.2715.5449,1.6816s.8496.6152,1.459.6152c.6211,0,1.0986-.2012,1.4326-.6035s.501-.9746.501-1.7168c0-.75-.167-1.3281-.501-1.7344s-.8115-.6094-1.4326-.6094Z" fill="#2f2f2f"/>
      <path d="M574.9004,185.1999l-2.3906,6h-.9434l-2.2734-6h1.0547l1.5234,4.3594c.1133.3203.1836.5996.2109.8379h.0234c.0391-.3008.1016-.5723.1875-.8145l1.5938-4.3828h1.0137Z" fill="#2f2f2f"/>
      <path d="M576.4648,183.6765c-.1719,0-.3184-.0586-.4395-.1758s-.1816-.2656-.1816-.4453.0605-.3291.1816-.4482.2676-.1787.4395-.1787c.1758,0,.3252.0596.4482.1787s.1846.2686.1846.4482c0,.1719-.0615.3184-.1846.4395s-.2725.1816-.4482.1816ZM576.9336,191.1999h-.9609v-6h.9609v6Z" fill="#2f2f2f"/>
      <path d="M583.9233,191.1999h-.9609v-1.0195h-.0234c-.4453.7734-1.1328,1.1602-2.0625,1.1602-.7539,0-1.3564-.2686-1.8076-.8057s-.6768-1.2686-.6768-2.1943c0-.9922.25-1.7871.75-2.3848s1.166-.8965,1.998-.8965c.8242,0,1.4238.3242,1.7988.9727h.0234v-3.7148h.9609v8.8828ZM582.9624,188.487v-.8848c0-.4844-.1602-.8945-.4805-1.2305s-.7266-.5039-1.2188-.5039c-.5859,0-1.0469.2148-1.3828.6445s-.5039,1.0234-.5039,1.7812c0,.6914.1611,1.2373.4834,1.6377s.7549.6006,1.2979.6006c.5352,0,.9697-.1934,1.3037-.5801s.501-.875.501-1.4648Z" fill="#2f2f2f"/>
      <path d="M590.6367,188.4401h-4.2363c.0156.668.1953,1.1836.5391,1.5469s.8164.5449,1.418.5449c.6758,0,1.2969-.2227,1.8633-.668v.9023c-.5273.3828-1.2246.5742-2.0918.5742-.8477,0-1.5137-.2725-1.998-.8174s-.7266-1.3115-.7266-2.2998c0-.9336.2646-1.6943.7939-2.2822s1.1865-.8818,1.9717-.8818,1.3926.2539,1.8223.7617.6445,1.2129.6445,2.1152v.5039ZM589.6523,187.6257c-.0039-.5547-.1377-.9863-.4014-1.2949s-.6299-.4629-1.0986-.4629c-.4531,0-.8379.1621-1.1543.4863s-.5117.748-.5859,1.2715h3.2402Z" fill="#2f2f2f"/>
      <path d="M595.2188,186.1726c-.168-.1289-.4102-.1934-.7266-.1934-.4102,0-.7529.1934-1.0283.5801s-.4131.9141-.4131,1.582v3.0586h-.9609v-6h.9609v1.2363h.0234c.1367-.4219.3457-.751.627-.9873s.5957-.3545.9434-.3545c.25,0,.4414.0273.5742.082v.9961Z" fill="#2f2f2f"/>
    </g>
  </g>
</svg>