<?xml version="1.0" encoding="UTF-8"?>
<svg xmlns="http://www.w3.org/2000/svg" width="567.6" height="321.2" xmlns:xlink="http://www.w3.org/1999/xlink" viewBox="0 0 567.6 321.2">
  <defs>
    <linearGradient id="linear-gradient" x1="-508.3458" y1="2055.8005" x2="-508.3458" y2="2039.2109" gradientTransform="translate(564 2110.4) scale(1 -1)" gradientUnits="userSpaceOnUse">
      <stop offset=".22" stop-color="#32d4f5"/>
      <stop offset="1" stop-color="#198ab3"/>
    </linearGradient>
    <linearGradient id="linear-gradient-2" x1="-508.7588" y1="2064.6774" x2="-507.5482" y2="2049.6271" xlink:href="#linear-gradient"/>
    <linearGradient id="linear-gradient-3" x1="-409.0654" x2="-409.0654" xlink:href="#linear-gradient"/>
    <linearGradient id="linear-gradient-4" x1="-409.4784" y1="2064.6774" x2="-408.2678" y2="2049.6271" xlink:href="#linear-gradient"/>
    <linearGradient id="linear-gradient-5" x1="-309.7849" x2="-309.7849" xlink:href="#linear-gradient"/>
    <linearGradient id="linear-gradient-6" x1="-310.1978" y1="2064.6774" x2="-308.9872" y2="2049.6271" xlink:href="#linear-gradient"/>
    <linearGradient id="linear-gradient-7" x1="-125.9508" y1="2055.7911" x2="-125.9508" y2="2039.2056" xlink:href="#linear-gradient"/>
    <linearGradient id="linear-gradient-8" x1="-126.4272" y1="2064.6889" x2="-125.2172" y2="2049.6311" xlink:href="#linear-gradient"/>
    <linearGradient id="linear-gradient-9" x1="-332.3305" y1="1851.8844" x2="-332.3305" y2="1839.8222" xlink:href="#linear-gradient"/>
    <linearGradient id="linear-gradient-10" x1="-332.677" y1="1858.3555" x2="-331.797" y2="1847.4044" xlink:href="#linear-gradient"/>
    <linearGradient id="linear-gradient-11" x1="-492.6" y1="1945.1272" x2="-492.6" y2="1963.2518" gradientTransform="translate(564 2110.4) scale(1 -1)" gradientUnits="userSpaceOnUse">
      <stop offset="0" stop-color="#0078d4"/>
      <stop offset=".16" stop-color="#1380da"/>
      <stop offset=".53" stop-color="#3c91e5"/>
      <stop offset=".82" stop-color="#559cec"/>
      <stop offset="1" stop-color="#5ea0ef"/>
    </linearGradient>
    <linearGradient id="linear-gradient-12" x1="-311.6218" y1="1842" x2="-311.6218" y2="1860" xlink:href="#linear-gradient-11"/>
    <linearGradient id="linear-gradient-13" x1="-332.3305" y1="1825.0844" x2="-332.3305" y2="1813.0222" xlink:href="#linear-gradient"/>
    <linearGradient id="linear-gradient-14" x1="-332.677" y1="1831.5555" x2="-331.797" y2="1820.6044" xlink:href="#linear-gradient"/>
    <linearGradient id="linear-gradient-15" x1="-311.6218" y1="1815.2" x2="-311.6218" y2="1833.2" xlink:href="#linear-gradient-11"/>
    <linearGradient id="linear-gradient-16" x1="-7026.9117" y1="-613.7089" x2="-7026.9117" y2="-579.5451" gradientTransform="translate(3868.6599 453.09) scale(.5)" gradientUnits="userSpaceOnUse">
      <stop offset="0" stop-color="#5ea0ef"/>
      <stop offset=".18" stop-color="#589eed"/>
      <stop offset=".41" stop-color="#4897e9"/>
      <stop offset=".66" stop-color="#2e8ce1"/>
      <stop offset=".94" stop-color="#0a7cd7"/>
      <stop offset="1" stop-color="#0078d4"/>
    </linearGradient>
    <linearGradient id="linear-gradient-17" x1="-219.7739" y1="1947.1552" x2="-197.6743" y2="1947.2857" gradientTransform="translate(564 2110.4) scale(1 -1)" gradientUnits="userSpaceOnUse">
      <stop offset="0" stop-color="#449cdd" stop-opacity=".15"/>
      <stop offset=".16" stop-color="#2870ab" stop-opacity="0"/>
      <stop offset=".18" stop-color="#2469a3" stop-opacity=".06"/>
      <stop offset=".23" stop-color="#1a5991" stop-opacity=".19"/>
      <stop offset=".28" stop-color="#144f86" stop-opacity=".27"/>
      <stop offset=".34" stop-color="#124c82" stop-opacity=".3"/>
      <stop offset=".76" stop-color="#002851" stop-opacity=".35"/>
      <stop offset=".9" stop-color="#2f7ab6" stop-opacity="0"/>
      <stop offset="1" stop-color="#449cdd" stop-opacity="0"/>
    </linearGradient>
    <clipPath id="clippath">
      <circle cx="361.6992" cy="161.2652" r="4.9348" fill="none"/>
    </clipPath>
  </defs>
  <g id="Shapes">
    <rect width="567.6" height="321.2" fill="#fff"/>
    <rect x="13.2" y="13.2" width="91.839" height="88" fill="#fff" stroke="#4e4f4f" stroke-width=".25"/>
    <g>
      <rect x="13.2" y="127.6" width="290.4" height="57.2" fill="#fff"/>
      <rect x="13.2" y="127.6" width="290.4" height="57.2" fill="#e1ddd8" opacity=".3"/>
      <rect x="13.2" y="127.6" width="290.4" height="57.2" fill="none" stroke="#8e8278" stroke-width=".25"/>
    </g>
    <rect x="211.2" y="237.6" width="193.6" height="70.4" fill="#fff" stroke="#4e4f4f" stroke-width=".25"/>
    <g>
      <path d="M71.3934,64.5533c.652.0083,1.1873-.5136,1.1956-1.1657,0-.005,0-.01,0-.015.0056-.0662-.0046-.1328-.0299-.1943-.4633-3.7364-2.6005-6.7853-6.6658-6.7853s-6.2622,2.6304-6.6807,6.7853c-.061.6588.4183,1.2445,1.0761,1.3152h11.1046v.0598Z" fill="#0078d4"/>
      <path d="M65.9084,57.3345c-.7218.0063-1.4292-.2018-2.0326-.5978l2.0177,5.2609,1.9878-5.216c-.5945.3617-1.277.553-1.9728.553Z" fill="#fff" isolation="isolate" opacity=".8"/>
      <circle cx="65.9084" cy="53.5832" r="3.7514" fill="#0078d4"/>
      <path d="M63.8758,68.2c.9823,0,1.7785-.7963,1.7785-1.7785.0074-.0695.0074-.1397,0-.2092-.7024-5.5897-3.8859-10.1332-9.9538-10.1332s-9.3859,3.856-10.0435,10.0883c-.0957.9812.6186,1.8557,1.5992,1.9579h16.5897l.0299.0747Z" fill="url(#linear-gradient)"/>
      <path d="M55.7752,57.4092c-1.0616-.0074-2.0988-.3186-2.9891-.8967l2.9891,7.8465,2.9891-7.7867c-.8996.5504-1.9345.8402-2.9891.837Z" fill="#fff" isolation="isolate" opacity=".8"/>
      <circle cx="55.7304" cy="51.8046" r="5.6046" fill="url(#linear-gradient-2)"/>
    </g>
    <rect x="112.4804" y="13.2" width="91.839" height="88" fill="#fff" stroke="#4e4f4f" stroke-width=".25"/>
    <g>
      <path d="M170.6739,64.5533c.652.0083,1.1873-.5136,1.1956-1.1657,0-.005,0-.01,0-.015.0056-.0662-.0046-.1328-.0299-.1943-.4633-3.7364-2.6005-6.7853-6.6658-6.7853s-6.2622,2.6304-6.6807,6.7853c-.061.6588.4183,1.2445,1.0761,1.3152h11.1046v.0598Z" fill="#0078d4"/>
      <path d="M165.1888,57.3345c-.7218.0063-1.4292-.2018-2.0326-.5978l2.0177,5.2609,1.9878-5.216c-.5945.3617-1.277.553-1.9728.553Z" fill="#fff" isolation="isolate" opacity=".8"/>
      <circle cx="165.1888" cy="53.5832" r="3.7514" fill="#0078d4"/>
      <path d="M163.1562,68.2c.9823,0,1.7785-.7963,1.7785-1.7785.0074-.0695.0074-.1397,0-.2092-.7024-5.5897-3.8859-10.1332-9.9538-10.1332s-9.3859,3.856-10.0435,10.0883c-.0957.9812.6186,1.8557,1.5992,1.9579h16.5897l.0299.0747Z" fill="url(#linear-gradient-3)"/>
      <path d="M155.0557,57.4092c-1.0616-.0074-2.0988-.3186-2.9891-.8967l2.9891,7.8465,2.9891-7.7867c-.8996.5504-1.9345.8402-2.9891.837Z" fill="#fff" isolation="isolate" opacity=".8"/>
      <circle cx="155.0108" cy="51.8046" r="5.6046" fill="url(#linear-gradient-4)"/>
    </g>
    <rect x="211.761" y="13.2" width="91.839" height="88" fill="#fff" stroke="#4e4f4f" stroke-width=".25"/>
    <g>
      <path d="M269.9544,64.5533c.652.0083,1.1873-.5136,1.1956-1.1657,0-.005,0-.01,0-.015.0056-.0662-.0046-.1328-.0299-.1943-.4633-3.7364-2.6005-6.7853-6.6658-6.7853s-6.2622,2.6304-6.6807,6.7853c-.061.6588.4183,1.2445,1.0761,1.3152h11.1046v.0598Z" fill="#0078d4"/>
      <path d="M264.4694,57.3345c-.7218.0063-1.4292-.2018-2.0326-.5978l2.0177,5.2609,1.9878-5.216c-.5945.3617-1.277.553-1.9728.553Z" fill="#fff" isolation="isolate" opacity=".8"/>
      <circle cx="264.4694" cy="53.5832" r="3.7514" fill="#0078d4"/>
      <path d="M262.4368,68.2c.9823,0,1.7785-.7963,1.7785-1.7785.0074-.0695.0074-.1397,0-.2092-.7024-5.5897-3.8859-10.1332-9.9538-10.1332s-9.3859,3.856-10.0435,10.0883c-.0957.9812.6186,1.8557,1.5992,1.9579h16.5897l.0299.0747Z" fill="url(#linear-gradient-5)"/>
      <path d="M254.3362,57.4092c-1.0616-.0074-2.0988-.3186-2.9891-.8967l2.9891,7.8465,2.9891-7.7867c-.8996.5504-1.9345.8402-2.9891.837Z" fill="#fff" isolation="isolate" opacity=".8"/>
      <circle cx="254.2914" cy="51.8046" r="5.6046" fill="url(#linear-gradient-6)"/>
    </g>
    <g>
      <line x1="59.1195" y1="101.2" x2="59.1195" y2="122.2178" fill="none" stroke="#3c3c41" stroke-miterlimit="10"/>
      <polygon points="55.3798 121.1236 59.1195 127.6 62.8593 121.1236 55.3798 121.1236" fill="#3c3c41"/>
    </g>
    <g>
      <line x1="158.3999" y1="101.2" x2="158.3999" y2="122.2178" fill="none" stroke="#3c3c41" stroke-miterlimit="10"/>
      <polygon points="154.6602 121.1236 158.3999 127.6 162.1397 121.1236 154.6602 121.1236" fill="#3c3c41"/>
    </g>
    <g>
      <rect x="321.2" y="127.6" width="233.2" height="57.2" fill="#fff"/>
      <rect x="321.2" y="127.6" width="233.2" height="57.2" fill="#c6e3f3" opacity=".4"/>
      <rect x="321.2" y="127.6" width="233.2" height="57.2" fill="none" stroke="#46a0de" stroke-width=".25"/>
    </g>
    <rect x="392.1296" y="13.2" width="91.839" height="88" fill="#fff" stroke="#4e4f4f" stroke-width=".25"/>
    <g>
      <line x1="438.0491" y1="101.2" x2="438.0491" y2="122.2178" fill="none" stroke="#3c3c41" stroke-miterlimit="10"/>
      <polygon points="434.3094 121.1236 438.0491 127.6 441.7889 121.1236 434.3094 121.1236" fill="#3c3c41"/>
    </g>
    <g>
      <line x1="257.6805" y1="101.2" x2="257.6805" y2="122.2178" fill="none" stroke="#3c3c41" stroke-miterlimit="10"/>
      <polygon points="253.9407 121.1236 257.6805 127.6 261.4202 121.1236 253.9407 121.1236" fill="#3c3c41"/>
    </g>
    <g>
      <line x1="268.4" y1="184.8" x2="268.4" y2="232.2178" fill="none" stroke="#3c3c41" stroke-miterlimit="10"/>
      <polygon points="264.6603 231.1236 268.4 237.6 272.1398 231.1236 264.6603 231.1236" fill="#3c3c41"/>
    </g>
    <g>
      <line x1="356.4" y1="220" x2="356.4" y2="232.2178" fill="none" stroke="#3c3c41" stroke-miterlimit="10"/>
      <polygon points="352.6603 231.1236 356.4 237.6 360.1397 231.1236 352.6603 231.1236" fill="#3c3c41"/>
    </g>
    <g>
      <path d="M446.263,68.2c.9788,0,1.7722-.7935,1.7722-1.7722h0c.0126-.0687.0126-.1391,0-.2078-.7089-5.5856-3.8744-10.1322-9.9856-10.1322s-9.3622,3.85-9.9856,10.1444c-.1059.9798.6026,1.86,1.5824,1.9659.0062.0007.0125.0013.0187.0019h16.5978Z" fill="url(#linear-gradient-7)"/>
      <path d="M438.0497,57.4078c-1.075-.0009-2.1271-.3105-3.0311-.8922l3.0311,7.8467,2.9822-7.7978c-.8935.5593-1.9281.8518-2.9822.8433Z" fill="#fff" isolation="isolate" opacity=".8"/>
      <circle cx="438.0619" cy="51.7978" r="5.5978" fill="url(#linear-gradient-8)"/>
    </g>
    <g>
      <path d="M237.6432,268.4c.7118,0,1.2889-.5771,1.2889-1.2889h0c.0092-.05.0092-.1012,0-.1511-.5156-4.0622-2.8178-7.3689-7.2622-7.3689s-6.8089,2.8-7.2622,7.3778c-.077.7126.4382,1.3527,1.1508,1.4297.0045.0005.0091.001.0136.0014h12.0711Z" fill="url(#linear-gradient-9)"/>
      <path d="M231.6698,260.5511c-.7818-.0006-1.547-.2259-2.2044-.6489l2.2044,5.7067,2.1689-5.6711c-.6498.4067-1.4023.6195-2.1689.6133Z" fill="#fff" isolation="isolate" opacity=".8"/>
      <circle cx="231.6787" cy="256.4711" r="4.0711" fill="url(#linear-gradient-10)"/>
    </g>
    <path d="M68.7,159.8h5.4v5.4h-5.4v-5.4ZM62.4,152.6h5.4v-5.4c-6.3618-.0069-5.3993-.9386-5.4,5.4ZM63.1537,165.2h4.6463v-5.4h-5.4c.2641.6884-.7007,5.5345.7537,5.4ZM62.4,158.9h5.4v-5.4h-5.4v5.4ZM75,165.2c.6857-.2631,5.5365.7,5.4-.7538h0v-4.6463h-5.4v5.4ZM68.7,158.9h5.4v-5.4h-5.4v5.4ZM75,158.9h5.4v-5.4h-5.4v5.4ZM75,147.2v5.4h5.4c-.2631-.6857.7-5.5365-.7538-5.4h-4.6463ZM68.7,152.6h5.4v-5.4h-5.4v5.4Z" fill="url(#linear-gradient-11)"/>
    <path d="M249.6782,263h5.4v5.4h-5.4v-5.4ZM243.3782,255.8h5.4v-5.4h-4.6463c-.4163,0-.7537.3375-.7537.7537v4.6463ZM244.132,268.4h4.6463v-5.4h-5.4v4.6463c0,.4163.3375.7538.7537.7538h0ZM243.3782,262.1h5.4v-5.4h-5.4v5.4ZM255.9782,268.4h4.6463c.4163,0,.7538-.3375.7538-.7538h0v-4.6463h-5.4v5.4ZM249.6782,262.1h5.4v-5.4h-5.4v5.4ZM255.9782,262.1h5.4v-5.4h-5.4v5.4ZM255.9782,250.4v5.4h5.4v-4.6463c0-.4163-.3375-.7538-.7538-.7537h-4.6463ZM249.6782,255.8h5.4v-5.4h-5.4v5.4Z" fill="url(#linear-gradient-12)"/>
    <g>
      <path d="M237.6432,295.2c.7118,0,1.2889-.5771,1.2889-1.2889h0c.0092-.05.0092-.1012,0-.1511-.5156-4.0622-2.8178-7.3689-7.2622-7.3689s-6.8089,2.8-7.2622,7.3778c-.077.7126.4382,1.3527,1.1508,1.4297.0045.0005.0091.001.0136.0014h12.0711Z" fill="url(#linear-gradient-13)"/>
      <path d="M231.6698,287.3511c-.7818-.0006-1.547-.2259-2.2044-.6489l2.2044,5.7067,2.1689-5.6711c-.6498.4067-1.4023.6195-2.1689.6133Z" fill="#fff" isolation="isolate" opacity=".8"/>
      <circle cx="231.6787" cy="283.2711" r="4.0711" fill="url(#linear-gradient-14)"/>
    </g>
    <path d="M249.6782,289.8h5.4v5.4h-5.4v-5.4ZM243.3782,282.6h5.4v-5.4h-4.6463c-.4163,0-.7537.3375-.7537.7537v4.6463ZM244.132,295.2h4.6463v-5.4h-5.4v4.6463c0,.4163.3375.7538.7537.7538h0ZM243.3782,288.9h5.4v-5.4h-5.4v5.4ZM255.9782,295.2h4.6463c.4163,0,.7538-.3375.7538-.7538h0v-4.6463h-5.4v5.4ZM249.6782,288.9h5.4v-5.4h-5.4v5.4ZM255.9782,288.9h5.4v-5.4h-5.4v5.4ZM255.9782,277.2v5.4h5.4v-4.6463c0-.4163-.3375-.7538-.7538-.7537h-4.6463ZM249.6782,282.6h5.4v-5.4h-5.4v5.4Z" fill="url(#linear-gradient-15)"/>
    <g>
      <path d="M352.6244,158.1573h5.1364v5.1601h-5.1364v-5.1601ZM346.6932,151.3246h5.0771v-5.1246h-4.4128c-.3931,0-.7117.3187-.7117.7117h0s.0474,4.4128.0474,4.4128ZM347.3575,163.3174h4.4128v-5.1601h-5.1246v4.4128c-.0197.3926.2827.7268.6753.7464.0121.0006.0243.0009.0365.0009ZM346.6458,157.3862h5.1246v-5.2076h-5.1246v5.2076ZM358.615,163.3174h4.4128c.3931,0,.7117-.3187.7117-.7117h0v-4.4484h-5.1246v5.1601ZM352.6838,157.3862h5.0771v-5.2076h-5.1364l.0593,5.2076ZM358.6743,157.3862h5.089v-5.2076h-5.1483l.0593,5.2076ZM358.6743,146.283v5.0415h5.089v-4.4128c0-.3931-.3187-.7117-.7117-.7117h0l-4.3772.083ZM352.7431,151.4076h5.0178v-5.2076h-5.1364l.1186,5.2076Z" fill="url(#linear-gradient-16)"/>
      <path d="M358.615,163.3174h4.9229c-.1035-.0911-.1778-.2108-.2135-.344h-4.745l.0356.344Z" fill="url(#linear-gradient-17)" isolation="isolate" opacity=".95"/>
      <circle cx="361.6992" cy="161.2652" r="4.9348" fill="#32bedd"/>
      <g clip-path="url(#clippath)">
        <g>
          <path d="M366.2069,161.977c-.2491.1305-.605.0593-.7711.1898-.3198.1829-.5795.4549-.7473.7829,0,.0712,0,.1779-.083.2135-.3321.2254-.6643.4626-.3559.9609-.3559,0-.2372-.3203-.4033-.4152-.4623-.2018-1.0007.0094-1.2025.4717-.0237.0544-.0421.1109-.0549.1688-.0396.1721.0373.3499.1898.4389.1498.0811.337.0254.4181-.1244.0032-.0059.0062-.0119.009-.018.0575-.103.1875-.1398.2905-.0824.0061.0034.0121.0072.0179.0112,0,.1898-.3321.5338.2135.5457.1423,0,.1068.1661.0712.2728s.0712.2847.2254.3559,0,0,0,.0593,0,0,0,0c-.4389,0-.5338-.5338-.9609-.5931-.1728-.0463-.3431-.1018-.5101-.1661-.3203-.1068-.688-.1661-.7592-.6406-.0566-.2441-.211-.4543-.427-.5813-.1423-.0949-.2254-.2728-.3677-.3796-.0556-.1593-.1446-.3049-.261-.427-.2232-.2951-.2854-.6818-.1661-1.032.2113-.6557.169-1.3669-.1186-1.9929-.1186-.3796-.1423-.7711-.5694-1.0202s-.3559.1423-.5219.0593-.261.1542-.3084.1779c-.344.0949-.6406.3915-1.0795.344.1661-.083.2966-.1305.4152-.2017s.344-.1661.083-.4508-.1661-.6999.5338-.9846c-.0593-.1661-.4864-.1305-.2966-.4389s.3321-.1542.5101,0c.1186-.2254-.1423-.5101.0593-.6406.2677-.1529.5551-.2687.8541-.344.145-.0761.3243-.0202.4004.1248.001.0019.002.0038.0029.0057.2135.3321.6406.3915.8541.7236.0593.1068.1779,0,.261,0,.4864-.1661.8066.1423,1.1862.3915s.3203.4033.6287.3677c.0821-.018.167-.018.2491,0,.1898.083.3677.1305.5101-.0712.1503-.0162.274-.1256.3084-.2728.0712-.1068.1068-.261.2847-.1898-.0849.3367-.0382.693.1305.9964.1542-.1186.3084-.1898.1305-.4626-.1281-.2058-.0652-.4764.1406-.6046.0477-.0297.1007-.05.156-.0597.2822-.0935.5917.0195.7473.2728.2254.4033.2966.866.5575,1.1862.083.1068,0,.1542,0,.2372s-.2135,0-.3321-.0712l.083.5101c-.353.1538-.7655.0281-.9727-.2966,0-.1423,0-.2017.1423-.2728s.2254-.1305.2254-.2847c.0161-.0964-.0318-.1923-.1186-.2372-.0949,0-.1542,0-.1779.1068s-.3915.2966-.3321.6287-.2254.261-.3915.1661c-.3915-.2017-.5338.1542-.6999.344s0,.4033.1898.5457.3677.2491.4389.4745c.1981-.1772.3211-.4233.344-.688,0-.2135.083-.5101.3796-.5457.2289-.0195.4426.1165.5219.3321.0593.1305.1542.1423.2728.1542.2683.5801.4828,1.1837.6406,1.8031l-.4389-.0593c0-.344-.2966-.1898-.4626-.261-.0474.2135.2254.2728.2135.4864Z" fill="#b4ec36"/>
          <path d="M364.4987,157.7065c-.1542-.1423-.3203-.2728-.0712-.4745s.2372-.344.3559,0c.0293.2056-.0895.4036-.2847.4745Z" fill="#b4ec36"/>
          <path d="M364.8664,157.232c.1305-.1305.2966-.1186.3203,0s-.1542.2254-.3084.2728-.1068-.1186-.0119-.2728Z" fill="#b4ec36"/>
          <path d="M363.953,156.1288l-.4152.0712c0-.2966.2966-.3203.4982-.2728s-.0237.1423-.083.2017Z" fill="#b4ec36"/>
        </g>
      </g>
    </g>
    <line x1="356.4" y1="202.4" x2="356.4" y2="184.8" fill="none" stroke="#3c3c41" stroke-miterlimit="10"/>
  </g>
  <g id="Text">
    <g>
      <path d="M33.8232,34.9012c-.6133.2969-1.4141.4453-2.4023.4453-1.2891,0-2.3027-.3789-3.041-1.1367s-1.1074-1.7676-1.1074-3.0293c0-1.3438.415-2.4336,1.2451-3.2695s1.9072-1.2539,3.2314-1.2539c.8203,0,1.5117.1035,2.0742.3105v1.8223c-.5625-.3359-1.2031-.5039-1.9219-.5039-.7891,0-1.4258.248-1.9102.7441s-.7266,1.168-.7266,2.0156c0,.8125.2285,1.46.6855,1.9424s1.0723.7236,1.8457.7236c.7383,0,1.4141-.1797,2.0273-.5391v1.7285Z" fill="#2f2f2f"/>
      <path d="M40.7021,35.2h-1.8457v-.9141h-.0293c-.457.707-1.0684,1.0605-1.834,1.0605-1.3906,0-2.0859-.8418-2.0859-2.5254v-3.6211h1.8457v3.457c0,.8477.3359,1.2715,1.0078,1.2715.332,0,.5977-.1162.7969-.3486s.2988-.5479.2988-.9463v-3.4336h1.8457v6Z" fill="#2f2f2f"/>
      <path d="M41.9678,35.0418v-1.5c.3047.1836.6084.3203.9111.4102s.5889.1348.8584.1348c.3281,0,.5869-.0449.7764-.1348s.2842-.2266.2842-.4102c0-.1172-.043-.2148-.1289-.293s-.1963-.1465-.3311-.2051-.2822-.1113-.4424-.1582-.3145-.0996-.4629-.1582c-.2383-.0898-.4482-.1865-.6299-.29s-.334-.2236-.457-.3604-.2168-.2949-.2812-.4746-.0967-.3926-.0967-.6387c0-.3359.0732-.625.2197-.8672s.3418-.4404.5859-.5947.5234-.2676.8379-.3398.6416-.1084.9814-.1084c.2656,0,.5352.0205.8086.0615s.543.1006.8086.1787v1.4297c-.2344-.1367-.4854-.2393-.7529-.3076s-.5303-.1025-.7881-.1025c-.1211,0-.2354.0107-.3428.0322s-.2021.0527-.2842.0938-.1465.0938-.1934.1582-.0703.1377-.0703.2197c0,.1094.0352.2031.1055.2812s.1621.1455.2754.2021.2393.1074.3779.1523.2764.0908.4131.1377c.2461.0859.4688.1797.668.2812s.3701.2207.5127.3574.252.2969.3281.4805.1143.4023.1143.6562c0,.3555-.0771.6592-.2314.9111s-.3594.457-.6152.6152-.5508.2734-.8848.3457-.6807.1084-1.04.1084c-.6602,0-1.2715-.1016-1.834-.3047Z" fill="#2f2f2f"/>
      <path d="M51.2402,35.1297c-.2734.1445-.6855.2168-1.2363.2168-1.3047,0-1.957-.6777-1.957-2.0332v-2.748h-.9727v-1.3652h.9727v-1.2949l1.8457-.5273v1.8223h1.3477v1.3652h-1.3477v2.4258c0,.625.248.9375.7441.9375.1953,0,.3965-.0566.6035-.1699v1.3711Z" fill="#2f2f2f"/>
      <path d="M55.1338,35.3465c-1,0-1.7861-.2803-2.3584-.8408s-.8584-1.3213-.8584-2.2822c0-.9922.2969-1.7686.8906-2.3291s1.3965-.8408,2.4082-.8408c.9961,0,1.7773.2803,2.3438.8408s.8496,1.3018.8496,2.2236c0,.9961-.292,1.7832-.876,2.3613s-1.3838.8672-2.3994.8672ZM55.1807,30.4715c-.4375,0-.7773.1504-1.0195.4512s-.3633.7266-.3633,1.2773c0,1.1523.4648,1.7285,1.3945,1.7285.8867,0,1.3301-.5918,1.3301-1.7754,0-1.1211-.4473-1.6816-1.3418-1.6816Z" fill="#2f2f2f"/>
      <path d="M69.1289,35.2h-1.8457v-3.4219c0-.8711-.3203-1.3066-.9609-1.3066-.3047,0-.5527.1309-.7441.3926s-.2871.5879-.2871.9785v3.3574h-1.8516v-3.457c0-.8477-.3145-1.2715-.9434-1.2715-.3164,0-.5693.125-.7588.375s-.2842.5898-.2842,1.0195v3.334h-1.8516v-6h1.8516v.9375h.0234c.1914-.3203.46-.5811.8057-.7822s.7236-.3018,1.1338-.3018c.8477,0,1.4277.373,1.7402,1.1191.457-.7461,1.1289-1.1191,2.0156-1.1191,1.3047,0,1.957.8047,1.957,2.4141v3.7324Z" fill="#2f2f2f"/>
      <path d="M76.0137,32.7273h-3.9141c.0625.8711.6113,1.3066,1.6465,1.3066.6602,0,1.2402-.1562,1.7402-.4688v1.3359c-.5547.2969-1.2754.4453-2.1621.4453-.9688,0-1.7207-.2686-2.2559-.8057s-.8027-1.2861-.8027-2.2471c0-.9961.2891-1.7852.8672-2.3672s1.2891-.873,2.1328-.873c.875,0,1.5518.2598,2.0303.7793s.7178,1.2246.7178,2.1152v.7793ZM74.2969,31.5906c0-.8594-.3477-1.2891-1.043-1.2891-.2969,0-.5537.123-.7705.3691s-.3486.5527-.3955.9199h2.209Z" fill="#2f2f2f"/>
      <path d="M81.1064,30.8699c-.2227-.1211-.4824-.1816-.7793-.1816-.4023,0-.7168.1475-.9434.4424s-.3398.6963-.3398,1.2041v2.8652h-1.8516v-6h1.8516v1.1133h.0234c.293-.8125.8203-1.2188,1.582-1.2188.1953,0,.3477.0234.457.0703v1.7051Z" fill="#2f2f2f"/>
      <path d="M89.374,26.6102v8.5898h-1.8457v-6.5039c-.1016.0898-.2217.1748-.3604.2549s-.2861.1523-.4424.2168-.3184.1191-.4863.1641-.334.0771-.498.0967v-1.5586c.4805-.1406.9336-.3203,1.3594-.5391s.8105-.459,1.1543-.7207h1.1191Z" fill="#2f2f2f"/>
    </g>
    <g>
      <path d="M51.9209,84.6019c0,2.3594-1.0645,3.5391-3.1934,3.5391-2.0391,0-3.0586-1.1348-3.0586-3.4043v-5.1387h.9844v5.0742c0,1.7227.7266,2.584,2.1797,2.584,1.4023,0,2.1035-.832,2.1035-2.4961v-5.1621h.9844v5.0039Z" fill="#2f2f2f"/>
      <path d="M53.3789,87.7835v-1.0312c.5234.3867,1.0996.5801,1.7285.5801.8438,0,1.2656-.2812,1.2656-.8438,0-.1602-.0361-.2959-.1084-.4072s-.1699-.21-.293-.2959-.2676-.1631-.4336-.2314-.3447-.1396-.5361-.2139c-.2656-.1055-.499-.2119-.7002-.3193s-.3691-.2285-.5039-.3633-.2363-.2881-.3047-.46-.1025-.373-.1025-.6035c0-.2812.0645-.5303.1934-.7471s.3008-.3984.5156-.5449.46-.2568.7354-.3311.5596-.1113.8525-.1113c.5195,0,.9844.0898,1.3945.2695v.9727c-.4414-.2891-.9492-.4336-1.5234-.4336-.1797,0-.3418.0205-.4863.0615s-.2686.0986-.3721.1729-.1836.1631-.2402.2666-.085.2178-.085.3428c0,.1562.0283.2871.085.3926s.1396.1992.249.2812.2422.1562.3984.2227.334.1387.5332.2168c.2656.1016.5039.2061.7148.3135s.3906.2285.5391.3633.2627.29.3428.4658.1201.3848.1201.627c0,.2969-.0654.5547-.1963.7734s-.3057.4004-.5244.5449-.4707.252-.7559.3223-.584.1055-.8965.1055c-.6172,0-1.1523-.1191-1.6055-.3574Z" fill="#2f2f2f"/>
      <path d="M63.6357,85.2405h-4.2363c.0156.668.1953,1.1836.5391,1.5469s.8164.5449,1.418.5449c.6758,0,1.2969-.2227,1.8633-.668v.9023c-.5273.3828-1.2246.5742-2.0918.5742-.8477,0-1.5137-.2725-1.998-.8174s-.7266-1.3115-.7266-2.2998c0-.9336.2646-1.6943.7939-2.2822s1.1865-.8818,1.9717-.8818,1.3926.2539,1.8223.7617.6445,1.2129.6445,2.1152v.5039ZM62.6514,84.4261c-.0039-.5547-.1377-.9863-.4014-1.2949s-.6299-.4629-1.0986-.4629c-.4531,0-.8379.1621-1.1543.4863s-.5117.748-.5859,1.2715h3.2402Z" fill="#2f2f2f"/>
      <path d="M68.2178,82.9729c-.168-.1289-.4102-.1934-.7266-.1934-.4102,0-.7529.1934-1.0283.5801s-.4131.9141-.4131,1.582v3.0586h-.9609v-6h.9609v1.2363h.0234c.1367-.4219.3457-.751.627-.9873s.5957-.3545.9434-.3545c.25,0,.4414.0273.5742.082v.9961Z" fill="#2f2f2f"/>
      <path d="M69.084,87.7835v-1.0312c.5234.3867,1.0996.5801,1.7285.5801.8438,0,1.2656-.2812,1.2656-.8438,0-.1602-.0361-.2959-.1084-.4072s-.1699-.21-.293-.2959-.2676-.1631-.4336-.2314-.3447-.1396-.5361-.2139c-.2656-.1055-.499-.2119-.7002-.3193s-.3691-.2285-.5039-.3633-.2363-.2881-.3047-.46-.1025-.373-.1025-.6035c0-.2812.0645-.5303.1934-.7471s.3008-.3984.5156-.5449.46-.2568.7354-.3311.5596-.1113.8525-.1113c.5195,0,.9844.0898,1.3945.2695v.9727c-.4414-.2891-.9492-.4336-1.5234-.4336-.1797,0-.3418.0205-.4863.0615s-.2686.0986-.3721.1729-.1836.1631-.2402.2666-.085.2178-.085.3428c0,.1562.0283.2871.085.3926s.1396.1992.249.2812.2422.1562.3984.2227.334.1387.5332.2168c.2656.1016.5039.2061.7148.3135s.3906.2285.5391.3633.2627.29.3428.4658.1201.3848.1201.627c0,.2969-.0654.5547-.1963.7734s-.3057.4004-.5244.5449-.4707.252-.7559.3223-.584.1055-.8965.1055c-.6172,0-1.1523-.1191-1.6055-.3574Z" fill="#2f2f2f"/>
    </g>
    <g>
      <path d="M133.1035,34.9012c-.6133.2969-1.4141.4453-2.4023.4453-1.2891,0-2.3027-.3789-3.041-1.1367s-1.1074-1.7676-1.1074-3.0293c0-1.3438.415-2.4336,1.2451-3.2695s1.9072-1.2539,3.2314-1.2539c.8203,0,1.5117.1035,2.0742.3105v1.8223c-.5625-.3359-1.2031-.5039-1.9219-.5039-.7891,0-1.4258.248-1.9102.7441s-.7266,1.168-.7266,2.0156c0,.8125.2285,1.46.6855,1.9424s1.0723.7236,1.8457.7236c.7383,0,1.4141-.1797,2.0273-.5391v1.7285Z" fill="#2f2f2f"/>
      <path d="M139.9824,35.2h-1.8457v-.9141h-.0293c-.457.707-1.0684,1.0605-1.834,1.0605-1.3906,0-2.0859-.8418-2.0859-2.5254v-3.6211h1.8457v3.457c0,.8477.3359,1.2715,1.0078,1.2715.332,0,.5977-.1162.7969-.3486s.2988-.5479.2988-.9463v-3.4336h1.8457v6Z" fill="#2f2f2f"/>
      <path d="M141.248,35.0418v-1.5c.3047.1836.6084.3203.9111.4102s.5889.1348.8584.1348c.3281,0,.5869-.0449.7764-.1348s.2842-.2266.2842-.4102c0-.1172-.043-.2148-.1289-.293s-.1963-.1465-.3311-.2051-.2822-.1113-.4424-.1582-.3145-.0996-.4629-.1582c-.2383-.0898-.4482-.1865-.6299-.29s-.334-.2236-.457-.3604-.2168-.2949-.2812-.4746-.0967-.3926-.0967-.6387c0-.3359.0732-.625.2197-.8672s.3418-.4404.5859-.5947.5234-.2676.8379-.3398.6416-.1084.9814-.1084c.2656,0,.5352.0205.8086.0615s.543.1006.8086.1787v1.4297c-.2344-.1367-.4854-.2393-.7529-.3076s-.5303-.1025-.7881-.1025c-.1211,0-.2354.0107-.3428.0322s-.2021.0527-.2842.0938-.1465.0938-.1934.1582-.0703.1377-.0703.2197c0,.1094.0352.2031.1055.2812s.1621.1455.2754.2021.2393.1074.3779.1523.2764.0908.4131.1377c.2461.0859.4688.1797.668.2812s.3701.2207.5127.3574.252.2969.3281.4805.1143.4023.1143.6562c0,.3555-.0771.6592-.2314.9111s-.3594.457-.6152.6152-.5508.2734-.8848.3457-.6807.1084-1.04.1084c-.6602,0-1.2715-.1016-1.834-.3047Z" fill="#2f2f2f"/>
      <path d="M150.5205,35.1297c-.2734.1445-.6855.2168-1.2363.2168-1.3047,0-1.957-.6777-1.957-2.0332v-2.748h-.9727v-1.3652h.9727v-1.2949l1.8457-.5273v1.8223h1.3477v1.3652h-1.3477v2.4258c0,.625.248.9375.7441.9375.1953,0,.3965-.0566.6035-.1699v1.3711Z" fill="#2f2f2f"/>
      <path d="M154.4141,35.3465c-1,0-1.7861-.2803-2.3584-.8408s-.8584-1.3213-.8584-2.2822c0-.9922.2969-1.7686.8906-2.3291s1.3965-.8408,2.4082-.8408c.9961,0,1.7773.2803,2.3438.8408s.8496,1.3018.8496,2.2236c0,.9961-.292,1.7832-.876,2.3613s-1.3838.8672-2.3994.8672ZM154.4609,30.4715c-.4375,0-.7773.1504-1.0195.4512s-.3633.7266-.3633,1.2773c0,1.1523.4648,1.7285,1.3945,1.7285.8867,0,1.3301-.5918,1.3301-1.7754,0-1.1211-.4473-1.6816-1.3418-1.6816Z" fill="#2f2f2f"/>
      <path d="M168.4097,35.2h-1.8457v-3.4219c0-.8711-.3203-1.3066-.9609-1.3066-.3047,0-.5527.1309-.7441.3926s-.2871.5879-.2871.9785v3.3574h-1.8516v-3.457c0-.8477-.3145-1.2715-.9434-1.2715-.3164,0-.5693.125-.7588.375s-.2842.5898-.2842,1.0195v3.334h-1.8516v-6h1.8516v.9375h.0234c.1914-.3203.46-.5811.8057-.7822s.7236-.3018,1.1338-.3018c.8477,0,1.4277.373,1.7402,1.1191.457-.7461,1.1289-1.1191,2.0156-1.1191,1.3047,0,1.957.8047,1.957,2.4141v3.7324Z" fill="#2f2f2f"/>
      <path d="M175.2939,32.7273h-3.9141c.0625.8711.6113,1.3066,1.6465,1.3066.6602,0,1.2402-.1562,1.7402-.4688v1.3359c-.5547.2969-1.2754.4453-2.1621.4453-.9688,0-1.7207-.2686-2.2559-.8057s-.8027-1.2861-.8027-2.2471c0-.9961.2891-1.7852.8672-2.3672s1.2891-.873,2.1328-.873c.875,0,1.5518.2598,2.0303.7793s.7178,1.2246.7178,2.1152v.7793ZM173.5771,31.5906c0-.8594-.3477-1.2891-1.043-1.2891-.2969,0-.5537.123-.7705.3691s-.3486.5527-.3955.9199h2.209Z" fill="#2f2f2f"/>
      <path d="M180.3867,30.8699c-.2227-.1211-.4824-.1816-.7793-.1816-.4023,0-.7168.1475-.9434.4424s-.3398.6963-.3398,1.2041v2.8652h-1.8516v-6h1.8516v1.1133h.0234c.293-.8125.8203-1.2188,1.582-1.2188.1953,0,.3477.0234.457.0703v1.7051Z" fill="#2f2f2f"/>
      <path d="M186.293,33.6648h3.5625v1.5352h-5.5898v-.6328c0-.4297.0723-.8154.2168-1.1572s.3262-.6484.5449-.9199.458-.5117.7178-.7207.5068-.3975.7412-.5654c.2461-.1758.4619-.3438.6475-.5039s.3418-.3193.4688-.4775.2217-.3184.2842-.4805.0938-.335.0938-.5186c0-.3594-.1016-.6309-.3047-.8145s-.5137-.2754-.9316-.2754c-.7227,0-1.4141.2871-2.0742.8613v-1.6289c.7305-.4727,1.5547-.709,2.4727-.709.4258,0,.8076.0557,1.1455.167s.624.2705.8584.4775.4131.458.5361.7529.1846.624.1846.9873c0,.3867-.0596.7305-.1787,1.0312s-.2773.5742-.4746.8203-.4248.4717-.6826.6768-.5254.4033-.8027.5947c-.1875.1328-.3682.2646-.542.3955s-.3271.2598-.46.3867-.2383.251-.3164.3721-.1172.2363-.1172.3457Z" fill="#2f2f2f"/>
    </g>
    <g>
      <path d="M96.7524,160.4002h-2.0625l-.5977-1.8691h-2.9883l-.5918,1.8691h-2.0508l3.0586-8.4023h2.2441l2.9883,8.4023ZM93.6587,157.0779l-.9023-2.8242c-.0664-.2109-.1133-.4629-.1406-.7559h-.0469c-.0195.2461-.0684.4902-.1465.7324l-.9141,2.8477h2.1504Z" fill="#2f2f2f"/>
      <path d="M99.4946,159.7029h-.0234v3.457h-1.8516v-8.7598h1.8516v.9023h.0234c.457-.6992,1.0996-1.0488,1.9277-1.0488.7773,0,1.3779.2666,1.8018.7998s.6357,1.2588.6357,2.1768c0,1-.2471,1.8027-.7412,2.4082s-1.1514.9082-1.9717.9082c-.7227,0-1.2734-.2812-1.6523-.8438ZM99.4419,157.242v.4805c0,.4141.1094.752.3281,1.0137s.5059.3926.8613.3926c.4219,0,.749-.1631.9814-.4893s.3486-.7881.3486-1.3857c0-1.0547-.4102-1.582-1.2305-1.582-.3789,0-.6885.1436-.9287.4307s-.3604.667-.3604,1.1396Z" fill="#2f2f2f"/>
      <path d="M106.959,159.7029h-.0234v3.457h-1.8516v-8.7598h1.8516v.9023h.0234c.457-.6992,1.0996-1.0488,1.9277-1.0488.7773,0,1.3779.2666,1.8018.7998s.6357,1.2588.6357,2.1768c0,1-.2471,1.8027-.7412,2.4082s-1.1514.9082-1.9717.9082c-.7227,0-1.2734-.2812-1.6523-.8438ZM106.9062,157.242v.4805c0,.4141.1094.752.3281,1.0137s.5059.3926.8613.3926c.4219,0,.749-.1631.9814-.4893s.3486-.7881.3486-1.3857c0-1.0547-.4102-1.582-1.2305-1.582-.3789,0-.6885.1436-.9287.4307s-.3604.667-.3604,1.1396Z" fill="#2f2f2f"/>
      <path d="M114.4092,160.4002h-1.8516v-8.8828h1.8516v8.8828Z" fill="#2f2f2f"/>
      <path d="M116.8765,153.451c-.3125,0-.5684-.0928-.7676-.2783s-.2988-.4131-.2988-.6826c0-.2773.0996-.5039.2988-.6797s.4551-.2637.7676-.2637c.3164,0,.5732.0879.7705.2637s.2959.4023.2959.6797c0,.2812-.0986.5117-.2959.6914s-.4541.2695-.7705.2695ZM117.7905,160.4002h-1.8516v-6h1.8516v6Z" fill="#2f2f2f"/>
      <path d="M123.8672,160.1834c-.418.2422-1.0215.3633-1.8105.3633-.9219,0-1.668-.2793-2.2383-.8379s-.8555-1.2793-.8555-2.1621c0-1.0195.3057-1.8232.917-2.4111s1.4287-.8818,2.4521-.8818c.707,0,1.2188.0938,1.5352.2812v1.5703c-.3867-.2891-.8184-.4336-1.2949-.4336-.5312,0-.9521.1553-1.2627.4658s-.4658.7393-.4658,1.2861c0,.5312.1484.9482.4453,1.251s.7051.4541,1.2246.4541c.4609,0,.9121-.1445,1.3535-.4336v1.4883Z" fill="#2f2f2f"/>
      <path d="M130.1646,160.4002h-1.752v-.8613h-.0234c-.4023.6719-.998,1.0078-1.7871,1.0078-.582,0-1.04-.165-1.374-.4951s-.501-.7705-.501-1.3213c0-1.1641.6895-1.8359,2.0684-2.0156l1.6289-.2168c0-.6562-.3555-.9844-1.0664-.9844-.7148,0-1.3945.2129-2.0391.6387v-1.3945c.2578-.1328.6104-.25,1.0576-.3516s.8545-.1523,1.2217-.1523c1.7109,0,2.5664.8535,2.5664,2.5605v3.5859ZM128.4243,157.9627v-.4043l-1.0898.1406c-.6016.0781-.9023.3496-.9023.8145,0,.2109.0732.3838.2197.5186s.3447.2021.5947.2021c.3477,0,.6309-.1201.8496-.3604s.3281-.5439.3281-.9111Z" fill="#2f2f2f"/>
      <path d="M135.1689,160.3299c-.2734.1445-.6855.2168-1.2363.2168-1.3047,0-1.957-.6777-1.957-2.0332v-2.748h-.9727v-1.3652h.9727v-1.2949l1.8457-.5273v1.8223h1.3477v1.3652h-1.3477v2.4258c0,.625.248.9375.7441.9375.1953,0,.3965-.0566.6035-.1699v1.3711Z" fill="#2f2f2f"/>
      <path d="M137.2168,153.451c-.3125,0-.5684-.0928-.7676-.2783s-.2988-.4131-.2988-.6826c0-.2773.0996-.5039.2988-.6797s.4551-.2637.7676-.2637c.3164,0,.5732.0879.7705.2637s.2959.4023.2959.6797c0,.2812-.0986.5117-.2959.6914s-.4541.2695-.7705.2695ZM138.1309,160.4002h-1.8516v-6h1.8516v6Z" fill="#2f2f2f"/>
      <path d="M142.521,160.5467c-1,0-1.7861-.2803-2.3584-.8408s-.8584-1.3213-.8584-2.2822c0-.9922.2969-1.7686.8906-2.3291s1.3965-.8408,2.4082-.8408c.9961,0,1.7773.2803,2.3438.8408s.8496,1.3018.8496,2.2236c0,.9961-.292,1.7832-.876,2.3613s-1.3838.8672-2.3994.8672ZM142.5679,155.6717c-.4375,0-.7773.1504-1.0195.4512s-.3633.7266-.3633,1.2773c0,1.1523.4648,1.7285,1.3945,1.7285.8867,0,1.3301-.5918,1.3301-1.7754,0-1.1211-.4473-1.6816-1.3418-1.6816Z" fill="#2f2f2f"/>
      <path d="M152.7842,160.4002h-1.8457v-3.334c0-.9297-.332-1.3945-.9961-1.3945-.3203,0-.584.123-.791.3691s-.3105.5586-.3105.9375v3.4219h-1.8516v-6h1.8516v.9492h.0234c.4414-.7305,1.084-1.0957,1.9277-1.0957,1.3281,0,1.9922.8242,1.9922,2.4727v3.6738Z" fill="#2f2f2f"/>
      <path d="M158.4971,153.451c-.3125,0-.5684-.0928-.7676-.2783s-.2988-.4131-.2988-.6826c0-.2773.0996-.5039.2988-.6797s.4551-.2637.7676-.2637c.3164,0,.5732.0879.7705.2637s.2959.4023.2959.6797c0,.2812-.0986.5117-.2959.6914s-.4541.2695-.7705.2695ZM159.4111,160.4002h-1.8516v-6h1.8516v6Z" fill="#2f2f2f"/>
      <path d="M166.8408,160.4002h-1.8516v-.8262h-.0234c-.4219.6484-1.041.9727-1.8574.9727-.75,0-1.3535-.2646-1.8105-.7939s-.6855-1.2686-.6855-2.2178c0-.9922.252-1.7871.7559-2.3848s1.1641-.8965,1.9805-.8965c.7734,0,1.3125.2773,1.6172.832h.0234v-3.5684h1.8516v8.8828ZM165.0244,157.4822v-.4512c0-.3906-.1133-.7148-.3398-.9727s-.5215-.3867-.8848-.3867c-.4102,0-.7305.1611-.9609.4834s-.3457.7646-.3457,1.3271c0,.5273.1113.9336.334,1.2188s.5312.4277.9258.4277c.375,0,.6807-.1504.917-.4512s.3545-.6992.3545-1.1953Z" fill="#2f2f2f"/>
      <path d="M173.79,157.9275h-3.9141c.0625.8711.6113,1.3066,1.6465,1.3066.6602,0,1.2402-.1562,1.7402-.4688v1.3359c-.5547.2969-1.2754.4453-2.1621.4453-.9688,0-1.7207-.2686-2.2559-.8057s-.8027-1.2861-.8027-2.2471c0-.9961.2891-1.7852.8672-2.3672s1.2891-.873,2.1328-.873c.875,0,1.5518.2598,2.0303.7793s.7178,1.2246.7178,2.1152v.7793ZM172.0732,156.7908c0-.8594-.3477-1.2891-1.043-1.2891-.2969,0-.5537.123-.7705.3691s-.3486.5527-.3955.9199h2.209Z" fill="#2f2f2f"/>
      <path d="M180.7632,160.4002h-1.8457v-3.334c0-.9297-.332-1.3945-.9961-1.3945-.3203,0-.584.123-.791.3691s-.3105.5586-.3105.9375v3.4219h-1.8516v-6h1.8516v.9492h.0234c.4414-.7305,1.084-1.0957,1.9277-1.0957,1.3281,0,1.9922.8242,1.9922,2.4727v3.6738Z" fill="#2f2f2f"/>
      <path d="M185.7866,160.3299c-.2734.1445-.6855.2168-1.2363.2168-1.3047,0-1.957-.6777-1.957-2.0332v-2.748h-.9727v-1.3652h.9727v-1.2949l1.8457-.5273v1.8223h1.3477v1.3652h-1.3477v2.4258c0,.625.248.9375.7441.9375.1953,0,.3965-.0566.6035-.1699v1.3711Z" fill="#2f2f2f"/>
      <path d="M187.8345,153.451c-.3125,0-.5684-.0928-.7676-.2783s-.2988-.4131-.2988-.6826c0-.2773.0996-.5039.2988-.6797s.4551-.2637.7676-.2637c.3164,0,.5732.0879.7705.2637s.2959.4023.2959.6797c0,.2812-.0986.5117-.2959.6914s-.4541.2695-.7705.2695ZM188.7485,160.4002h-1.8516v-6h1.8516v6Z" fill="#2f2f2f"/>
      <path d="M193.8462,160.3299c-.2734.1445-.6855.2168-1.2363.2168-1.3047,0-1.957-.6777-1.957-2.0332v-2.748h-.9727v-1.3652h.9727v-1.2949l1.8457-.5273v1.8223h1.3477v1.3652h-1.3477v2.4258c0,.625.248.9375.7441.9375.1953,0,.3965-.0566.6035-.1699v1.3711Z" fill="#2f2f2f"/>
      <path d="M200.9048,154.4002l-2.4375,6.4805c-.5859,1.5586-1.4688,2.3379-2.6484,2.3379-.4492,0-.8184-.0508-1.1074-.1523v-1.4766c.2461.1445.5137.2168.8027.2168.4766,0,.8086-.2246.9961-.6738l.3164-.7441-2.4375-5.9883h2.0508l1.1191,3.6504c.0703.2266.125.4941.1641.8027h.0234c.0352-.2266.0996-.4902.1934-.791l1.1309-3.6621h1.834Z" fill="#2f2f2f"/>
      <path d="M206.8345,159.7029h-.0234v3.457h-1.8516v-8.7598h1.8516v.9023h.0234c.457-.6992,1.0996-1.0488,1.9277-1.0488.7773,0,1.3779.2666,1.8018.7998s.6357,1.2588.6357,2.1768c0,1-.2471,1.8027-.7412,2.4082s-1.1514.9082-1.9717.9082c-.7227,0-1.2734-.2812-1.6523-.8438ZM206.7817,157.242v.4805c0,.4141.1094.752.3281,1.0137s.5059.3926.8613.3926c.4219,0,.749-.1631.9814-.4893s.3486-.7881.3486-1.3857c0-1.0547-.4102-1.582-1.2305-1.582-.3789,0-.6885.1436-.9287.4307s-.3604.667-.3604,1.1396Z" fill="#2f2f2f"/>
      <path d="M216.3374,156.0701c-.2227-.1211-.4824-.1816-.7793-.1816-.4023,0-.7168.1475-.9434.4424s-.3398.6963-.3398,1.2041v2.8652h-1.8516v-6h1.8516v1.1133h.0234c.293-.8125.8203-1.2188,1.582-1.2188.1953,0,.3477.0234.457.0703v1.7051Z" fill="#2f2f2f"/>
      <path d="M220.1396,160.5467c-1,0-1.7861-.2803-2.3584-.8408s-.8584-1.3213-.8584-2.2822c0-.9922.2969-1.7686.8906-2.3291s1.3965-.8408,2.4082-.8408c.9961,0,1.7773.2803,2.3438.8408s.8496,1.3018.8496,2.2236c0,.9961-.292,1.7832-.876,2.3613s-1.3838.8672-2.3994.8672ZM220.1865,155.6717c-.4375,0-.7773.1504-1.0195.4512s-.3633.7266-.3633,1.2773c0,1.1523.4648,1.7285,1.3945,1.7285.8867,0,1.3301-.5918,1.3301-1.7754,0-1.1211-.4473-1.6816-1.3418-1.6816Z" fill="#2f2f2f"/>
      <path d="M230.1685,154.4002l-2.2324,6h-2.1094l-2.127-6h1.9805l1.043,3.6973c.1172.418.1855.7734.2051,1.0664h.0234c.0273-.2773.0996-.6211.2168-1.0312l1.0664-3.7324h1.9336Z" fill="#2f2f2f"/>
      <path d="M231.9307,153.451c-.3125,0-.5684-.0928-.7676-.2783s-.2988-.4131-.2988-.6826c0-.2773.0996-.5039.2988-.6797s.4551-.2637.7676-.2637c.3164,0,.5732.0879.7705.2637s.2959.4023.2959.6797c0,.2812-.0986.5117-.2959.6914s-.4541.2695-.7705.2695ZM232.8447,160.4002h-1.8516v-6h1.8516v6Z" fill="#2f2f2f"/>
      <path d="M240.2744,160.4002h-1.8516v-.8262h-.0234c-.4219.6484-1.041.9727-1.8574.9727-.75,0-1.3535-.2646-1.8105-.7939s-.6855-1.2686-.6855-2.2178c0-.9922.252-1.7871.7559-2.3848s1.1641-.8965,1.9805-.8965c.7734,0,1.3125.2773,1.6172.832h.0234v-3.5684h1.8516v8.8828ZM238.458,157.4822v-.4512c0-.3906-.1133-.7148-.3398-.9727s-.5215-.3867-.8848-.3867c-.4102,0-.7305.1611-.9609.4834s-.3457.7646-.3457,1.3271c0,.5273.1113.9336.334,1.2188s.5312.4277.9258.4277c.375,0,.6807-.1504.917-.4512s.3545-.6992.3545-1.1953Z" fill="#2f2f2f"/>
      <path d="M247.2236,157.9275h-3.9141c.0625.8711.6113,1.3066,1.6465,1.3066.6602,0,1.2402-.1562,1.7402-.4688v1.3359c-.5547.2969-1.2754.4453-2.1621.4453-.9688,0-1.7207-.2686-2.2559-.8057s-.8027-1.2861-.8027-2.2471c0-.9961.2891-1.7852.8672-2.3672s1.2891-.873,2.1328-.873c.875,0,1.5518.2598,2.0303.7793s.7178,1.2246.7178,2.1152v.7793ZM245.5068,156.7908c0-.8594-.3477-1.2891-1.043-1.2891-.2969,0-.5537.123-.7705.3691s-.3486.5527-.3955.9199h2.209Z" fill="#2f2f2f"/>
      <path d="M252.3159,156.0701c-.2227-.1211-.4824-.1816-.7793-.1816-.4023,0-.7168.1475-.9434.4424s-.3398.6963-.3398,1.2041v2.8652h-1.8516v-6h1.8516v1.1133h.0234c.293-.8125.8203-1.2188,1.582-1.2188.1953,0,.3477.0234.457.0703v1.7051Z" fill="#2f2f2f"/>
    </g>
    <g>
      <path d="M151.2012,84.6019c0,2.3594-1.0645,3.5391-3.1934,3.5391-2.0391,0-3.0586-1.1348-3.0586-3.4043v-5.1387h.9844v5.0742c0,1.7227.7266,2.584,2.1797,2.584,1.4023,0,2.1035-.832,2.1035-2.4961v-5.1621h.9844v5.0039Z" fill="#2f2f2f"/>
      <path d="M152.6592,87.7835v-1.0312c.5234.3867,1.0996.5801,1.7285.5801.8438,0,1.2656-.2812,1.2656-.8438,0-.1602-.0361-.2959-.1084-.4072s-.1699-.21-.293-.2959-.2676-.1631-.4336-.2314-.3447-.1396-.5361-.2139c-.2656-.1055-.499-.2119-.7002-.3193s-.3691-.2285-.5039-.3633-.2363-.2881-.3047-.46-.1025-.373-.1025-.6035c0-.2812.0645-.5303.1934-.7471s.3008-.3984.5156-.5449.46-.2568.7354-.3311.5596-.1113.8525-.1113c.5195,0,.9844.0898,1.3945.2695v.9727c-.4414-.2891-.9492-.4336-1.5234-.4336-.1797,0-.3418.0205-.4863.0615s-.2686.0986-.3721.1729-.1836.1631-.2402.2666-.085.2178-.085.3428c0,.1562.0283.2871.085.3926s.1396.1992.249.2812.2422.1562.3984.2227.334.1387.5332.2168c.2656.1016.5039.2061.7148.3135s.3906.2285.5391.3633.2627.29.3428.4658.1201.3848.1201.627c0,.2969-.0654.5547-.1963.7734s-.3057.4004-.5244.5449-.4707.252-.7559.3223-.584.1055-.8965.1055c-.6172,0-1.1523-.1191-1.6055-.3574Z" fill="#2f2f2f"/>
      <path d="M162.916,85.2405h-4.2363c.0156.668.1953,1.1836.5391,1.5469s.8164.5449,1.418.5449c.6758,0,1.2969-.2227,1.8633-.668v.9023c-.5273.3828-1.2246.5742-2.0918.5742-.8477,0-1.5137-.2725-1.998-.8174s-.7266-1.3115-.7266-2.2998c0-.9336.2646-1.6943.7939-2.2822s1.1865-.8818,1.9717-.8818,1.3926.2539,1.8223.7617.6445,1.2129.6445,2.1152v.5039ZM161.9316,84.4261c-.0039-.5547-.1377-.9863-.4014-1.2949s-.6299-.4629-1.0986-.4629c-.4531,0-.8379.1621-1.1543.4863s-.5117.748-.5859,1.2715h3.2402Z" fill="#2f2f2f"/>
      <path d="M167.498,82.9729c-.168-.1289-.4102-.1934-.7266-.1934-.4102,0-.7529.1934-1.0283.5801s-.4131.9141-.4131,1.582v3.0586h-.9609v-6h.9609v1.2363h.0234c.1367-.4219.3457-.751.627-.9873s.5957-.3545.9434-.3545c.25,0,.4414.0273.5742.082v.9961Z" fill="#2f2f2f"/>
      <path d="M168.3647,87.7835v-1.0312c.5234.3867,1.0996.5801,1.7285.5801.8438,0,1.2656-.2812,1.2656-.8438,0-.1602-.0361-.2959-.1084-.4072s-.1699-.21-.293-.2959-.2676-.1631-.4336-.2314-.3447-.1396-.5361-.2139c-.2656-.1055-.499-.2119-.7002-.3193s-.3691-.2285-.5039-.3633-.2363-.2881-.3047-.46-.1025-.373-.1025-.6035c0-.2812.0645-.5303.1934-.7471s.3008-.3984.5156-.5449.46-.2568.7354-.3311.5596-.1113.8525-.1113c.5195,0,.9844.0898,1.3945.2695v.9727c-.4414-.2891-.9492-.4336-1.5234-.4336-.1797,0-.3418.0205-.4863.0615s-.2686.0986-.3721.1729-.1836.1631-.2402.2666-.085.2178-.085.3428c0,.1562.0283.2871.085.3926s.1396.1992.249.2812.2422.1562.3984.2227.334.1387.5332.2168c.2656.1016.5039.2061.7148.3135s.3906.2285.5391.3633.2627.29.3428.4658.1201.3848.1201.627c0,.2969-.0654.5547-.1963.7734s-.3057.4004-.5244.5449-.4707.252-.7559.3223-.584.1055-.8965.1055c-.6172,0-1.1523-.1191-1.6055-.3574Z" fill="#2f2f2f"/>
    </g>
    <g>
      <path d="M417.77,28.3387h-2.9648v2.0625h2.7246v1.5352h-2.7246v3.2637h-1.8926v-8.4023h4.8574v1.541Z" fill="#2f2f2f"/>
      <path d="M423.6548,35.2h-1.752v-.8613h-.0234c-.4023.6719-.998,1.0078-1.7871,1.0078-.582,0-1.04-.165-1.374-.4951s-.501-.7705-.501-1.3213c0-1.1641.6895-1.8359,2.0684-2.0156l1.6289-.2168c0-.6562-.3555-.9844-1.0664-.9844-.7148,0-1.3945.2129-2.0391.6387v-1.3945c.2578-.1328.6104-.25,1.0576-.3516s.8545-.1523,1.2217-.1523c1.7109,0,2.5664.8535,2.5664,2.5605v3.5859ZM421.9146,32.7625v-.4043l-1.0898.1406c-.6016.0781-.9023.3496-.9023.8145,0,.2109.0732.3838.2197.5186s.3447.2021.5947.2021c.3477,0,.6309-.1201.8496-.3604s.3281-.5439.3281-.9111Z" fill="#2f2f2f"/>
      <path d="M426.9946,34.5027h-.0234v.6973h-1.8516v-8.8828h1.8516v3.7852h.0234c.457-.6992,1.1074-1.0488,1.9512-1.0488.7734,0,1.3691.2656,1.7871.7969s.627,1.2578.627,2.1797c0,1-.2441,1.8027-.7324,2.4082s-1.1406.9082-1.957.9082c-.7383,0-1.2969-.2812-1.6758-.8438ZM426.9419,31.9715v.6152c0,.3867.1113.707.334.9609s.5078.3809.8555.3809c.4219,0,.749-.1631.9814-.4893s.3486-.7881.3486-1.3857c0-.4961-.1064-.8838-.3193-1.1631s-.5166-.4189-.9111-.4189c-.3711,0-.6787.1387-.9229.416s-.3662.6387-.3662,1.084Z" fill="#2f2f2f"/>
      <path d="M436.498,30.8699c-.2227-.1211-.4824-.1816-.7793-.1816-.4023,0-.7168.1475-.9434.4424s-.3398.6963-.3398,1.2041v2.8652h-1.8516v-6h1.8516v1.1133h.0234c.293-.8125.8203-1.2188,1.582-1.2188.1953,0,.3477.0234.457.0703v1.7051Z" fill="#2f2f2f"/>
      <path d="M438.2969,28.2508c-.3125,0-.5684-.0928-.7676-.2783s-.2988-.4131-.2988-.6826c0-.2773.0996-.5039.2988-.6797s.4551-.2637.7676-.2637c.3164,0,.5732.0879.7705.2637s.2959.4023.2959.6797c0,.2812-.0986.5117-.2959.6914s-.4541.2695-.7705.2695ZM439.2109,35.2h-1.8516v-6h1.8516v6Z" fill="#2f2f2f"/>
      <path d="M446.7598,35.2h-2.2207l-1.916-2.9766h-.0234v2.9766h-1.8516v-8.8828h1.8516v5.6543h.0234l1.7871-2.7715h2.1973l-2.1504,2.8184,2.3027,3.1816Z" fill="#2f2f2f"/>
      <path d="M452.4697,35.2h-1.752v-.8613h-.0234c-.4023.6719-.998,1.0078-1.7871,1.0078-.582,0-1.04-.165-1.374-.4951s-.501-.7705-.501-1.3213c0-1.1641.6895-1.8359,2.0684-2.0156l1.6289-.2168c0-.6562-.3555-.9844-1.0664-.9844-.7148,0-1.3945.2129-2.0391.6387v-1.3945c.2578-.1328.6104-.25,1.0576-.3516s.8545-.1523,1.2217-.1523c1.7109,0,2.5664.8535,2.5664,2.5605v3.5859ZM450.7295,32.7625v-.4043l-1.0898.1406c-.6016.0781-.9023.3496-.9023.8145,0,.2109.0732.3838.2197.5186s.3447.2021.5947.2021c.3477,0,.6309-.1201.8496-.3604s.3281-.5439.3281-.9111Z" fill="#2f2f2f"/>
      <path d="M463.4619,35.2h-1.8457v-3.4219c0-.8711-.3203-1.3066-.9609-1.3066-.3047,0-.5527.1309-.7441.3926s-.2871.5879-.2871.9785v3.3574h-1.8516v-3.457c0-.8477-.3145-1.2715-.9434-1.2715-.3164,0-.5693.125-.7588.375s-.2842.5898-.2842,1.0195v3.334h-1.8516v-6h1.8516v.9375h.0234c.1914-.3203.46-.5811.8057-.7822s.7236-.3018,1.1338-.3018c.8477,0,1.4277.373,1.7402,1.1191.457-.7461,1.1289-1.1191,2.0156-1.1191,1.3047,0,1.957.8047,1.957,2.4141v3.7324Z" fill="#2f2f2f"/>
    </g>
    <g>
      <path d="M378.9775,160.4002h-5.0391v-8.4023h4.8457v1.541h-2.9531v1.8691h2.748v1.5352h-2.748v1.9219h3.1465v1.5352Z" fill="#2f2f2f"/>
      <path d="M386.0259,160.4002h-1.8457v-3.334c0-.9297-.332-1.3945-.9961-1.3945-.3203,0-.584.123-.791.3691s-.3105.5586-.3105.9375v3.4219h-1.8516v-6h1.8516v.9492h.0234c.4414-.7305,1.084-1.0957,1.9277-1.0957,1.3281,0,1.9922.8242,1.9922,2.4727v3.6738Z" fill="#2f2f2f"/>
      <path d="M391.0493,160.3299c-.2734.1445-.6855.2168-1.2363.2168-1.3047,0-1.957-.6777-1.957-2.0332v-2.748h-.9727v-1.3652h.9727v-1.2949l1.8457-.5273v1.8223h1.3477v1.3652h-1.3477v2.4258c0,.625.248.9375.7441.9375.1953,0,.3965-.0566.6035-.1699v1.3711Z" fill="#2f2f2f"/>
      <path d="M397.4746,157.9275h-3.9141c.0625.8711.6113,1.3066,1.6465,1.3066.6602,0,1.2402-.1562,1.7402-.4688v1.3359c-.5547.2969-1.2754.4453-2.1621.4453-.9688,0-1.7207-.2686-2.2559-.8057s-.8027-1.2861-.8027-2.2471c0-.9961.2891-1.7852.8672-2.3672s1.2891-.873,2.1328-.873c.875,0,1.5518.2598,2.0303.7793s.7178,1.2246.7178,2.1152v.7793ZM395.7578,156.7908c0-.8594-.3477-1.2891-1.043-1.2891-.2969,0-.5537.123-.7705.3691s-.3486.5527-.3955.9199h2.209Z" fill="#2f2f2f"/>
      <path d="M402.5669,156.0701c-.2227-.1211-.4824-.1816-.7793-.1816-.4023,0-.7168.1475-.9434.4424s-.3398.6963-.3398,1.2041v2.8652h-1.8516v-6h1.8516v1.1133h.0234c.293-.8125.8203-1.2188,1.582-1.2188.1953,0,.3477.0234.457.0703v1.7051Z" fill="#2f2f2f"/>
      <path d="M405.3032,159.7029h-.0234v3.457h-1.8516v-8.7598h1.8516v.9023h.0234c.457-.6992,1.0996-1.0488,1.9277-1.0488.7773,0,1.3779.2666,1.8018.7998s.6357,1.2588.6357,2.1768c0,1-.2471,1.8027-.7412,2.4082s-1.1514.9082-1.9717.9082c-.7227,0-1.2734-.2812-1.6523-.8438ZM405.2505,157.242v.4805c0,.4141.1094.752.3281,1.0137s.5059.3926.8613.3926c.4219,0,.749-.1631.9814-.4893s.3486-.7881.3486-1.3857c0-1.0547-.4102-1.582-1.2305-1.582-.3789,0-.6885.1436-.9287.4307s-.3604.667-.3604,1.1396Z" fill="#2f2f2f"/>
      <path d="M414.8066,156.0701c-.2227-.1211-.4824-.1816-.7793-.1816-.4023,0-.7168.1475-.9434.4424s-.3398.6963-.3398,1.2041v2.8652h-1.8516v-6h1.8516v1.1133h.0234c.293-.8125.8203-1.2188,1.582-1.2188.1953,0,.3477.0234.457.0703v1.7051Z" fill="#2f2f2f"/>
      <path d="M416.6055,153.451c-.3125,0-.5684-.0928-.7676-.2783s-.2988-.4131-.2988-.6826c0-.2773.0996-.5039.2988-.6797s.4551-.2637.7676-.2637c.3164,0,.5732.0879.7705.2637s.2959.4023.2959.6797c0,.2812-.0986.5117-.2959.6914s-.4541.2695-.7705.2695ZM417.5195,160.4002h-1.8516v-6h1.8516v6Z" fill="#2f2f2f"/>
      <path d="M418.7622,160.242v-1.5c.3047.1836.6084.3203.9111.4102s.5889.1348.8584.1348c.3281,0,.5869-.0449.7764-.1348s.2842-.2266.2842-.4102c0-.1172-.043-.2148-.1289-.293s-.1963-.1465-.3311-.2051-.2822-.1113-.4424-.1582-.3145-.0996-.4629-.1582c-.2383-.0898-.4482-.1865-.6299-.29s-.334-.2236-.457-.3604-.2168-.2949-.2812-.4746-.0967-.3926-.0967-.6387c0-.3359.0732-.625.2197-.8672s.3418-.4404.5859-.5947.5234-.2676.8379-.3398.6416-.1084.9814-.1084c.2656,0,.5352.0205.8086.0615s.543.1006.8086.1787v1.4297c-.2344-.1367-.4854-.2393-.7529-.3076s-.5303-.1025-.7881-.1025c-.1211,0-.2354.0107-.3428.0322s-.2021.0527-.2842.0938-.1465.0938-.1934.1582-.0703.1377-.0703.2197c0,.1094.0352.2031.1055.2812s.1621.1455.2754.2021.2393.1074.3779.1523.2764.0908.4131.1377c.2461.0859.4688.1797.668.2812s.3701.2207.5127.3574.252.2969.3281.4805.1143.4023.1143.6562c0,.3555-.0771.6592-.2314.9111s-.3594.457-.6152.6152-.5508.2734-.8848.3457-.6807.1084-1.04.1084c-.6602,0-1.2715-.1016-1.834-.3047Z" fill="#2f2f2f"/>
      <path d="M429.8706,157.9275h-3.9141c.0625.8711.6113,1.3066,1.6465,1.3066.6602,0,1.2402-.1562,1.7402-.4688v1.3359c-.5547.2969-1.2754.4453-2.1621.4453-.9688,0-1.7207-.2686-2.2559-.8057s-.8027-1.2861-.8027-2.2471c0-.9961.2891-1.7852.8672-2.3672s1.2891-.873,2.1328-.873c.875,0,1.5518.2598,2.0303.7793s.7178,1.2246.7178,2.1152v.7793ZM428.1538,156.7908c0-.8594-.3477-1.2891-1.043-1.2891-.2969,0-.5537.123-.7705.3691s-.3486.5527-.3955.9199h2.209Z" fill="#2f2f2f"/>
      <path d="M435.2202,153.451c-.3125,0-.5684-.0928-.7676-.2783s-.2988-.4131-.2988-.6826c0-.2773.0996-.5039.2988-.6797s.4551-.2637.7676-.2637c.3164,0,.5732.0879.7705.2637s.2959.4023.2959.6797c0,.2812-.0986.5117-.2959.6914s-.4541.2695-.7705.2695ZM436.1343,160.4002h-1.8516v-6h1.8516v6Z" fill="#2f2f2f"/>
      <path d="M443.564,160.4002h-1.8516v-.8262h-.0234c-.4219.6484-1.041.9727-1.8574.9727-.75,0-1.3535-.2646-1.8105-.7939s-.6855-1.2686-.6855-2.2178c0-.9922.252-1.7871.7559-2.3848s1.1641-.8965,1.9805-.8965c.7734,0,1.3125.2773,1.6172.832h.0234v-3.5684h1.8516v8.8828ZM441.7476,157.4822v-.4512c0-.3906-.1133-.7148-.3398-.9727s-.5215-.3867-.8848-.3867c-.4102,0-.7305.1611-.9609.4834s-.3457.7646-.3457,1.3271c0,.5273.1113.9336.334,1.2188s.5312.4277.9258.4277c.375,0,.6807-.1504.917-.4512s.3545-.6992.3545-1.1953Z" fill="#2f2f2f"/>
      <path d="M450.5132,157.9275h-3.9141c.0625.8711.6113,1.3066,1.6465,1.3066.6602,0,1.2402-.1562,1.7402-.4688v1.3359c-.5547.2969-1.2754.4453-2.1621.4453-.9688,0-1.7207-.2686-2.2559-.8057s-.8027-1.2861-.8027-2.2471c0-.9961.2891-1.7852.8672-2.3672s1.2891-.873,2.1328-.873c.875,0,1.5518.2598,2.0303.7793s.7178,1.2246.7178,2.1152v.7793ZM448.7964,156.7908c0-.8594-.3477-1.2891-1.043-1.2891-.2969,0-.5537.123-.7705.3691s-.3486.5527-.3955.9199h2.209Z" fill="#2f2f2f"/>
      <path d="M457.4863,160.4002h-1.8457v-3.334c0-.9297-.332-1.3945-.9961-1.3945-.3203,0-.584.123-.791.3691s-.3105.5586-.3105.9375v3.4219h-1.8516v-6h1.8516v.9492h.0234c.4414-.7305,1.084-1.0957,1.9277-1.0957,1.3281,0,1.9922.8242,1.9922,2.4727v3.6738Z" fill="#2f2f2f"/>
      <path d="M462.5098,160.3299c-.2734.1445-.6855.2168-1.2363.2168-1.3047,0-1.957-.6777-1.957-2.0332v-2.748h-.9727v-1.3652h.9727v-1.2949l1.8457-.5273v1.8223h1.3477v1.3652h-1.3477v2.4258c0,.625.248.9375.7441.9375.1953,0,.3965-.0566.6035-.1699v1.3711Z" fill="#2f2f2f"/>
      <path d="M464.5576,153.451c-.3125,0-.5684-.0928-.7676-.2783s-.2988-.4131-.2988-.6826c0-.2773.0996-.5039.2988-.6797s.4551-.2637.7676-.2637c.3164,0,.5732.0879.7705.2637s.2959.4023.2959.6797c0,.2812-.0986.5117-.2959.6914s-.4541.2695-.7705.2695ZM465.4717,160.4002h-1.8516v-6h1.8516v6Z" fill="#2f2f2f"/>
      <path d="M470.5693,160.3299c-.2734.1445-.6855.2168-1.2363.2168-1.3047,0-1.957-.6777-1.957-2.0332v-2.748h-.9727v-1.3652h.9727v-1.2949l1.8457-.5273v1.8223h1.3477v1.3652h-1.3477v2.4258c0,.625.248.9375.7441.9375.1953,0,.3965-.0566.6035-.1699v1.3711Z" fill="#2f2f2f"/>
      <path d="M477.6279,154.4002l-2.4375,6.4805c-.5859,1.5586-1.4688,2.3379-2.6484,2.3379-.4492,0-.8184-.0508-1.1074-.1523v-1.4766c.2461.1445.5137.2168.8027.2168.4766,0,.8086-.2246.9961-.6738l.3164-.7441-2.4375-5.9883h2.0508l1.1191,3.6504c.0703.2266.125.4941.1641.8027h.0234c.0352-.2266.0996-.4902.1934-.791l1.1309-3.6621h1.834Z" fill="#2f2f2f"/>
      <path d="M483.5576,159.7029h-.0234v3.457h-1.8516v-8.7598h1.8516v.9023h.0234c.457-.6992,1.0996-1.0488,1.9277-1.0488.7773,0,1.3779.2666,1.8018.7998s.6357,1.2588.6357,2.1768c0,1-.2471,1.8027-.7412,2.4082s-1.1514.9082-1.9717.9082c-.7227,0-1.2734-.2812-1.6523-.8438ZM483.5049,157.242v.4805c0,.4141.1094.752.3281,1.0137s.5059.3926.8613.3926c.4219,0,.749-.1631.9814-.4893s.3486-.7881.3486-1.3857c0-1.0547-.4102-1.582-1.2305-1.582-.3789,0-.6885.1436-.9287.4307s-.3604.667-.3604,1.1396Z" fill="#2f2f2f"/>
      <path d="M493.0605,156.0701c-.2227-.1211-.4824-.1816-.7793-.1816-.4023,0-.7168.1475-.9434.4424s-.3398.6963-.3398,1.2041v2.8652h-1.8516v-6h1.8516v1.1133h.0234c.293-.8125.8203-1.2188,1.582-1.2188.1953,0,.3477.0234.457.0703v1.7051Z" fill="#2f2f2f"/>
      <path d="M496.8628,160.5467c-1,0-1.7861-.2803-2.3584-.8408s-.8584-1.3213-.8584-2.2822c0-.9922.2969-1.7686.8906-2.3291s1.3965-.8408,2.4082-.8408c.9961,0,1.7773.2803,2.3438.8408s.8496,1.3018.8496,2.2236c0,.9961-.292,1.7832-.876,2.3613s-1.3838.8672-2.3994.8672ZM496.9097,155.6717c-.4375,0-.7773.1504-1.0195.4512s-.3633.7266-.3633,1.2773c0,1.1523.4648,1.7285,1.3945,1.7285.8867,0,1.3301-.5918,1.3301-1.7754,0-1.1211-.4473-1.6816-1.3418-1.6816Z" fill="#2f2f2f"/>
      <path d="M506.8916,154.4002l-2.2324,6h-2.1094l-2.127-6h1.9805l1.043,3.6973c.1172.418.1855.7734.2051,1.0664h.0234c.0273-.2773.0996-.6211.2168-1.0312l1.0664-3.7324h1.9336Z" fill="#2f2f2f"/>
      <path d="M508.6538,153.451c-.3125,0-.5684-.0928-.7676-.2783s-.2988-.4131-.2988-.6826c0-.2773.0996-.5039.2988-.6797s.4551-.2637.7676-.2637c.3164,0,.5732.0879.7705.2637s.2959.4023.2959.6797c0,.2812-.0986.5117-.2959.6914s-.4541.2695-.7705.2695ZM509.5679,160.4002h-1.8516v-6h1.8516v6Z" fill="#2f2f2f"/>
      <path d="M516.9976,160.4002h-1.8516v-.8262h-.0234c-.4219.6484-1.041.9727-1.8574.9727-.75,0-1.3535-.2646-1.8105-.7939s-.6855-1.2686-.6855-2.2178c0-.9922.252-1.7871.7559-2.3848s1.1641-.8965,1.9805-.8965c.7734,0,1.3125.2773,1.6172.832h.0234v-3.5684h1.8516v8.8828ZM515.1812,157.4822v-.4512c0-.3906-.1133-.7148-.3398-.9727s-.5215-.3867-.8848-.3867c-.4102,0-.7305.1611-.9609.4834s-.3457.7646-.3457,1.3271c0,.5273.1113.9336.334,1.2188s.5312.4277.9258.4277c.375,0,.6807-.1504.917-.4512s.3545-.6992.3545-1.1953Z" fill="#2f2f2f"/>
      <path d="M523.9468,157.9275h-3.9141c.0625.8711.6113,1.3066,1.6465,1.3066.6602,0,1.2402-.1562,1.7402-.4688v1.3359c-.5547.2969-1.2754.4453-2.1621.4453-.9688,0-1.7207-.2686-2.2559-.8057s-.8027-1.2861-.8027-2.2471c0-.9961.2891-1.7852.8672-2.3672s1.2891-.873,2.1328-.873c.875,0,1.5518.2598,2.0303.7793s.7178,1.2246.7178,2.1152v.7793ZM522.23,156.7908c0-.8594-.3477-1.2891-1.043-1.2891-.2969,0-.5537.123-.7705.3691s-.3486.5527-.3955.9199h2.209Z" fill="#2f2f2f"/>
      <path d="M529.0391,156.0701c-.2227-.1211-.4824-.1816-.7793-.1816-.4023,0-.7168.1475-.9434.4424s-.3398.6963-.3398,1.2041v2.8652h-1.8516v-6h1.8516v1.1133h.0234c.293-.8125.8203-1.2188,1.582-1.2188.1953,0,.3477.0234.457.0703v1.7051Z" fill="#2f2f2f"/>
    </g>
    <g>
      <rect x="349.2614" y="204.6" width="119.8773" height="13.2" fill="none"/>
      <path d="M358.9292,214.8011h-.9785v-5.6367c0-.4453.0273-.9902.082-1.6348h-.0234c-.0938.3789-.1777.6504-.252.8145l-2.8711,6.457h-.4805l-2.8652-6.4102c-.082-.1875-.166-.4746-.252-.8613h-.0234c.0312.3359.0469.8848.0469,1.6465v5.625h-.9492v-8.4023h1.3008l2.5781,5.8594c.1992.4492.3281.7852.3867,1.0078h.0352c.168-.4609.3027-.8047.4043-1.0312l2.6309-5.8359h1.2305v8.4023Z" fill="#2f2f2f"/>
      <path d="M365.2095,214.8011h-.9609v-.9375h-.0234c-.418.7188-1.0332,1.0781-1.8457,1.0781-.5977,0-1.0654-.1582-1.4033-.4746s-.5068-.7363-.5068-1.2598c0-1.1211.6602-1.7734,1.9805-1.957l1.7988-.252c0-1.0195-.4121-1.5293-1.2363-1.5293-.7227,0-1.375.2461-1.957.7383v-.9844c.5898-.375,1.2695-.5625,2.0391-.5625,1.4102,0,2.1152.7461,2.1152,2.2383v3.9023ZM364.2485,211.7659l-1.4473.1992c-.4453.0625-.7812.1729-1.0078.3311s-.3398.4385-.3398.8408c0,.293.1045.5322.3135.7178s.4873.2783.835.2783c.4766,0,.8701-.167,1.1807-.501s.4658-.7568.4658-1.2686v-.5977Z" fill="#2f2f2f"/>
      <path d="M371.9331,214.8011h-.9609v-3.4219c0-1.2734-.4648-1.9102-1.3945-1.9102-.4805,0-.8779.1807-1.1924.542s-.4717.8174-.4717,1.3682v3.4219h-.9609v-6h.9609v.9961h.0234c.4531-.7578,1.1094-1.1367,1.9688-1.1367.6562,0,1.1582.2119,1.5059.6357s.5215,1.0361.5215,1.8369v3.668Z" fill="#2f2f2f"/>
      <path d="M377.9717,214.8011h-.9609v-.9375h-.0234c-.418.7188-1.0332,1.0781-1.8457,1.0781-.5977,0-1.0654-.1582-1.4033-.4746s-.5068-.7363-.5068-1.2598c0-1.1211.6602-1.7734,1.9805-1.957l1.7988-.252c0-1.0195-.4121-1.5293-1.2363-1.5293-.7227,0-1.375.2461-1.957.7383v-.9844c.5898-.375,1.2695-.5625,2.0391-.5625,1.4102,0,2.1152.7461,2.1152,2.2383v3.9023ZM377.0107,211.7659l-1.4473.1992c-.4453.0625-.7812.1729-1.0078.3311s-.3398.4385-.3398.8408c0,.293.1045.5322.3135.7178s.4873.2783.835.2783c.4766,0,.8701-.167,1.1807-.501s.4658-.7568.4658-1.2686v-.5977Z" fill="#2f2f2f"/>
      <path d="M384.897,214.3206c0,2.2031-1.0547,3.3047-3.1641,3.3047-.7422,0-1.3906-.1406-1.9453-.4219v-.9609c.6758.375,1.3203.5625,1.9336.5625,1.4766,0,2.2148-.7852,2.2148-2.3555v-.6562h-.0234c-.457.7656-1.1445,1.1484-2.0625,1.1484-.7461,0-1.3467-.2666-1.8018-.7998s-.6826-1.249-.6826-2.1475c0-1.0195.2451-1.8301.7354-2.4316s1.1611-.9023,2.0127-.9023c.8086,0,1.4082.3242,1.7988.9727h.0234v-.832h.9609v5.5195ZM383.936,212.0882v-.8848c0-.4766-.1611-.8848-.4834-1.2246s-.7236-.5098-1.2041-.5098c-.5938,0-1.0586.2158-1.3945.6475s-.5039,1.0361-.5039,1.8135c0,.668.1611,1.2021.4834,1.6025s.749.6006,1.2803.6006c.5391,0,.9775-.1914,1.3154-.5742s.5068-.873.5068-1.4707Z" fill="#2f2f2f"/>
      <path d="M391.6108,212.0413h-4.2363c.0156.668.1953,1.1836.5391,1.5469s.8164.5449,1.418.5449c.6758,0,1.2969-.2227,1.8633-.668v.9023c-.5273.3828-1.2246.5742-2.0918.5742-.8477,0-1.5137-.2725-1.998-.8174s-.7266-1.3115-.7266-2.2998c0-.9336.2646-1.6943.7939-2.2822s1.1865-.8818,1.9717-.8818,1.3926.2539,1.8223.7617.6445,1.2129.6445,2.1152v.5039ZM390.6265,211.2269c-.0039-.5547-.1377-.9863-.4014-1.2949s-.6299-.4629-1.0986-.4629c-.4531,0-.8379.1621-1.1543.4863s-.5117.748-.5859,1.2715h3.2402Z" fill="#2f2f2f"/>
      <path d="M398.2476,214.8011h-.9609v-1.0195h-.0234c-.4453.7734-1.1328,1.1602-2.0625,1.1602-.7539,0-1.3564-.2686-1.8076-.8057s-.6768-1.2686-.6768-2.1943c0-.9922.25-1.7871.75-2.3848s1.166-.8965,1.998-.8965c.8242,0,1.4238.3242,1.7988.9727h.0234v-3.7148h.9609v8.8828ZM397.2866,212.0882v-.8848c0-.4844-.1602-.8945-.4805-1.2305s-.7266-.5039-1.2188-.5039c-.5859,0-1.0469.2148-1.3828.6445s-.5039,1.0234-.5039,1.7812c0,.6914.1611,1.2373.4834,1.6377s.7549.6006,1.2979.6006c.5352,0,.9697-.1934,1.3037-.5801s.501-.875.501-1.4648Z" fill="#2f2f2f"/>
      <path d="M405.9878,214.9417c-.8867,0-1.5947-.2803-2.124-.8408s-.7939-1.3037-.7939-2.2295c0-1.0078.2754-1.7949.8262-2.3613s1.2949-.8496,2.2324-.8496c.8945,0,1.5928.2754,2.0947.8262s.7529,1.3145.7529,2.291c0,.957-.2705,1.7236-.8115,2.2998s-1.2666.8643-2.1768.8643ZM406.0581,209.469c-.6172,0-1.1055.21-1.4648.6299s-.5391.999-.5391,1.7373c0,.7109.1816,1.2715.5449,1.6816s.8496.6152,1.459.6152c.6211,0,1.0986-.2012,1.4326-.6035s.501-.9746.501-1.7168c0-.75-.167-1.3281-.501-1.7344s-.8115-.6094-1.4326-.6094Z" fill="#2f2f2f"/>
      <path d="M411.4414,213.9339h-.0234v3.627h-.9609v-8.7598h.9609v1.0547h.0234c.4727-.7969,1.1641-1.1953,2.0742-1.1953.7734,0,1.377.2686,1.8105.8057s.6504,1.2568.6504,2.1592c0,1.0039-.2441,1.8076-.7324,2.4111s-1.1562.9053-2.0039.9053c-.7773,0-1.377-.3359-1.7988-1.0078ZM411.418,211.514v.8379c0,.4961.1611.917.4834,1.2627s.7314.5186,1.2275.5186c.582,0,1.0381-.2227,1.3682-.668s.4951-1.0645.4951-1.8574c0-.668-.1543-1.1914-.4629-1.5703s-.7266-.5684-1.2539-.5684c-.5586,0-1.0078.1943-1.3477.583s-.5098.876-.5098,1.4619Z" fill="#2f2f2f"/>
      <path d="M422.334,212.0413h-4.2363c.0156.668.1953,1.1836.5391,1.5469s.8164.5449,1.418.5449c.6758,0,1.2969-.2227,1.8633-.668v.9023c-.5273.3828-1.2246.5742-2.0918.5742-.8477,0-1.5137-.2725-1.998-.8174s-.7266-1.3115-.7266-2.2998c0-.9336.2646-1.6943.7939-2.2822s1.1865-.8818,1.9717-.8818,1.3926.2539,1.8223.7617.6445,1.2129.6445,2.1152v.5039ZM421.3496,211.2269c-.0039-.5547-.1377-.9863-.4014-1.2949s-.6299-.4629-1.0986-.4629c-.4531,0-.8379.1621-1.1543.4863s-.5117.748-.5859,1.2715h3.2402Z" fill="#2f2f2f"/>
      <path d="M426.916,209.7737c-.168-.1289-.4102-.1934-.7266-.1934-.4102,0-.7529.1934-1.0283.5801s-.4131.9141-.4131,1.582v3.0586h-.9609v-6h.9609v1.2363h.0234c.1367-.4219.3457-.751.627-.9873s.5957-.3545.9434-.3545c.25,0,.4414.0273.5742.082v.9961Z" fill="#2f2f2f"/>
      <path d="M432.2192,214.8011h-.9609v-.9375h-.0234c-.418.7188-1.0332,1.0781-1.8457,1.0781-.5977,0-1.0654-.1582-1.4033-.4746s-.5068-.7363-.5068-1.2598c0-1.1211.6602-1.7734,1.9805-1.957l1.7988-.252c0-1.0195-.4121-1.5293-1.2363-1.5293-.7227,0-1.375.2461-1.957.7383v-.9844c.5898-.375,1.2695-.5625,2.0391-.5625,1.4102,0,2.1152.7461,2.1152,2.2383v3.9023ZM431.2583,211.7659l-1.4473.1992c-.4453.0625-.7812.1729-1.0078.3311s-.3398.4385-.3398.8408c0,.293.1045.5322.3135.7178s.4873.2783.835.2783c.4766,0,.8701-.167,1.1807-.501s.4658-.7568.4658-1.2686v-.5977Z" fill="#2f2f2f"/>
      <path d="M436.7358,214.7425c-.2266.125-.5254.1875-.8965.1875-1.0508,0-1.5762-.5859-1.5762-1.7578v-3.5508h-1.0312v-.8203h1.0312v-1.4648l.9609-.3105v1.7754h1.5117v.8203h-1.5117v3.3809c0,.4023.0684.6895.2051.8613s.3633.2578.6797.2578c.2422,0,.4512-.0664.627-.1992v.8203Z" fill="#2f2f2f"/>
      <path d="M438.4214,207.2776c-.1719,0-.3184-.0586-.4395-.1758s-.1816-.2656-.1816-.4453.0605-.3291.1816-.4482.2676-.1787.4395-.1787c.1758,0,.3252.0596.4482.1787s.1846.2686.1846.4482c0,.1719-.0615.3184-.1846.4395s-.2725.1816-.4482.1816ZM438.8901,214.8011h-.9609v-6h.9609v6Z" fill="#2f2f2f"/>
      <path d="M443.2666,214.9417c-.8867,0-1.5947-.2803-2.124-.8408s-.7939-1.3037-.7939-2.2295c0-1.0078.2754-1.7949.8262-2.3613s1.2949-.8496,2.2324-.8496c.8945,0,1.5928.2754,2.0947.8262s.7529,1.3145.7529,2.291c0,.957-.2705,1.7236-.8115,2.2998s-1.2666.8643-2.1768.8643ZM443.3369,209.469c-.6172,0-1.1055.21-1.4648.6299s-.5391.999-.5391,1.7373c0,.7109.1816,1.2715.5449,1.6816s.8496.6152,1.459.6152c.6211,0,1.0986-.2012,1.4326-.6035s.501-.9746.501-1.7168c0-.75-.167-1.3281-.501-1.7344s-.8115-.6094-1.4326-.6094Z" fill="#2f2f2f"/>
      <path d="M452.7163,214.8011h-.9609v-3.4219c0-1.2734-.4648-1.9102-1.3945-1.9102-.4805,0-.8779.1807-1.1924.542s-.4717.8174-.4717,1.3682v3.4219h-.9609v-6h.9609v.9961h.0234c.4531-.7578,1.1094-1.1367,1.9688-1.1367.6562,0,1.1582.2119,1.5059.6357s.5215,1.0361.5215,1.8369v3.668Z" fill="#2f2f2f"/>
      <path d="M454.1387,214.5843v-1.0312c.5234.3867,1.0996.5801,1.7285.5801.8438,0,1.2656-.2812,1.2656-.8438,0-.1602-.0361-.2959-.1084-.4072s-.1699-.21-.293-.2959-.2676-.1631-.4336-.2314-.3447-.1396-.5361-.2139c-.2656-.1055-.499-.2119-.7002-.3193s-.3691-.2285-.5039-.3633-.2363-.2881-.3047-.46-.1025-.373-.1025-.6035c0-.2812.0645-.5303.1934-.7471s.3008-.3984.5156-.5449.46-.2568.7354-.3311.5596-.1113.8525-.1113c.5195,0,.9844.0898,1.3945.2695v.9727c-.4414-.2891-.9492-.4336-1.5234-.4336-.1797,0-.3418.0205-.4863.0615s-.2686.0986-.3721.1729-.1836.1631-.2402.2666-.085.2178-.085.3428c0,.1562.0283.2871.085.3926s.1396.1992.249.2812.2422.1562.3984.2227.334.1387.5332.2168c.2656.1016.5039.2061.7148.3135s.3906.2285.5391.3633.2627.29.3428.4658.1201.3848.1201.627c0,.2969-.0654.5547-.1963.7734s-.3057.4004-.5244.5449-.4707.252-.7559.3223-.584.1055-.8965.1055c-.6172,0-1.1523-.1191-1.6055-.3574Z" fill="#2f2f2f"/>
    </g>
    <g>
      <rect x="268.4" y="253.7822" width="127.6" height="15.6178" fill="none"/>
      <path d="M275.2202,263.6316c-.6211.3281-1.3945.4922-2.3203.4922-1.1953,0-2.1523-.3848-2.8711-1.1543s-1.0781-1.7793-1.0781-3.0293c0-1.3438.4043-2.4297,1.2129-3.2578s1.834-1.2422,3.0762-1.2422c.7969,0,1.457.1152,1.9805.3457v1.0488c-.6016-.3359-1.2656-.5039-1.9922-.5039-.9648,0-1.7471.3223-2.3467.9668s-.8994,1.5059-.8994,2.584c0,1.0234.2803,1.8389.8408,2.4463s1.2959.9111,2.2061.9111c.8438,0,1.5742-.1875,2.1914-.5625v.9551Z" fill="#2f2f2f"/>
      <path d="M281.4307,263.9832h-.9609v-.9492h-.0234c-.3984.7266-1.0156,1.0898-1.8516,1.0898-1.4297,0-2.1445-.8516-2.1445-2.5547v-3.5859h.9551v3.4336c0,1.2656.4844,1.8984,1.4531,1.8984.4688,0,.8545-.1729,1.1572-.5186s.4541-.7979.4541-1.3564v-3.457h.9609v6Z" fill="#2f2f2f"/>
      <path d="M282.9517,263.7664v-1.0312c.5234.3867,1.0996.5801,1.7285.5801.8438,0,1.2656-.2812,1.2656-.8438,0-.1602-.0361-.2959-.1084-.4072s-.1699-.21-.293-.2959-.2676-.1631-.4336-.2314-.3447-.1396-.5361-.2139c-.2656-.1055-.499-.2119-.7002-.3193s-.3691-.2285-.5039-.3633-.2363-.2881-.3047-.46-.1025-.373-.1025-.6035c0-.2812.0645-.5303.1934-.7471s.3008-.3984.5156-.5449.46-.2568.7354-.3311.5596-.1113.8525-.1113c.5195,0,.9844.0898,1.3945.2695v.9727c-.4414-.2891-.9492-.4336-1.5234-.4336-.1797,0-.3418.0205-.4863.0615s-.2686.0986-.3721.1729-.1836.1631-.2402.2666-.085.2178-.085.3428c0,.1562.0283.2871.085.3926s.1396.1992.249.2812.2422.1562.3984.2227.334.1387.5332.2168c.2656.1016.5039.2061.7148.3135s.3906.2285.5391.3633.2627.29.3428.4658.1201.3848.1201.627c0,.2969-.0654.5547-.1963.7734s-.3057.4004-.5244.5449-.4707.252-.7559.3223-.584.1055-.8965.1055c-.6172,0-1.1523-.1191-1.6055-.3574Z" fill="#2f2f2f"/>
      <path d="M291.2354,263.9246c-.2266.125-.5254.1875-.8965.1875-1.0508,0-1.5762-.5859-1.5762-1.7578v-3.5508h-1.0312v-.8203h1.0312v-1.4648l.9609-.3105v1.7754h1.5117v.8203h-1.5117v3.3809c0,.4023.0684.6895.2051.8613s.3633.2578.6797.2578c.2422,0,.4512-.0664.627-.1992v.8203Z" fill="#2f2f2f"/>
      <path d="M294.8945,264.1238c-.8867,0-1.5947-.2803-2.124-.8408s-.7939-1.3037-.7939-2.2295c0-1.0078.2754-1.7949.8262-2.3613s1.2949-.8496,2.2324-.8496c.8945,0,1.5928.2754,2.0947.8262s.7529,1.3145.7529,2.291c0,.957-.2705,1.7236-.8115,2.2998s-1.2666.8643-2.1768.8643ZM294.9648,258.6512c-.6172,0-1.1055.21-1.4648.6299s-.5391.999-.5391,1.7373c0,.7109.1816,1.2715.5449,1.6816s.8496.6152,1.459.6152c.6211,0,1.0986-.2012,1.4326-.6035s.501-.9746.501-1.7168c0-.75-.167-1.3281-.501-1.7344s-.8115-.6094-1.4326-.6094Z" fill="#2f2f2f"/>
      <path d="M307.8833,263.9832h-.9609v-3.4453c0-.6641-.1025-1.1445-.3076-1.4414s-.5498-.4453-1.0342-.4453c-.4102,0-.7588.1875-1.0459.5625s-.4307.8242-.4307,1.3477v3.4219h-.9609v-3.5625c0-1.1797-.4551-1.7695-1.3652-1.7695-.4219,0-.7695.1768-1.043.5303s-.4102.8135-.4102,1.3799v3.4219h-.9609v-6h.9609v.9492h.0234c.4258-.7266,1.0469-1.0898,1.8633-1.0898.4102,0,.7676.1143,1.0723.3428s.5137.5283.627.8994c.4453-.8281,1.1094-1.2422,1.9922-1.2422,1.3203,0,1.9805.8145,1.9805,2.4434v3.6973Z" fill="#2f2f2f"/>
      <path d="M314.4995,261.2234h-4.2363c.0156.668.1953,1.1836.5391,1.5469s.8164.5449,1.418.5449c.6758,0,1.2969-.2227,1.8633-.668v.9023c-.5273.3828-1.2246.5742-2.0918.5742-.8477,0-1.5137-.2725-1.998-.8174s-.7266-1.3115-.7266-2.2998c0-.9336.2646-1.6943.7939-2.2822s1.1865-.8818,1.9717-.8818,1.3926.2539,1.8223.7617.6445,1.2129.6445,2.1152v.5039ZM313.5151,260.409c-.0039-.5547-.1377-.9863-.4014-1.2949s-.6299-.4629-1.0986-.4629c-.4531,0-.8379.1621-1.1543.4863s-.5117.748-.5859,1.2715h3.2402Z" fill="#2f2f2f"/>
      <path d="M319.0815,258.9559c-.168-.1289-.4102-.1934-.7266-.1934-.4102,0-.7529.1934-1.0283.5801s-.4131.9141-.4131,1.582v3.0586h-.9609v-6h.9609v1.2363h.0234c.1367-.4219.3457-.751.627-.9873s.5957-.3545.9434-.3545c.25,0,.4414.0273.5742.082v.9961Z" fill="#2f2f2f"/>
      <path d="M327.7065,263.9832h-.9609v-.9375h-.0234c-.418.7188-1.0332,1.0781-1.8457,1.0781-.5977,0-1.0654-.1582-1.4033-.4746s-.5068-.7363-.5068-1.2598c0-1.1211.6602-1.7734,1.9805-1.957l1.7988-.252c0-1.0195-.4121-1.5293-1.2363-1.5293-.7227,0-1.375.2461-1.957.7383v-.9844c.5898-.375,1.2695-.5625,2.0391-.5625,1.4102,0,2.1152.7461,2.1152,2.2383v3.9023ZM326.7456,260.948l-1.4473.1992c-.4453.0625-.7812.1729-1.0078.3311s-.3398.4385-.3398.8408c0,.293.1045.5322.3135.7178s.4873.2783.835.2783c.4766,0,.8701-.167,1.1807-.501s.4658-.7568.4658-1.2686v-.5977Z" fill="#2f2f2f"/>
      <path d="M330.4341,263.116h-.0234v3.627h-.9609v-8.7598h.9609v1.0547h.0234c.4727-.7969,1.1641-1.1953,2.0742-1.1953.7734,0,1.377.2686,1.8105.8057s.6504,1.2568.6504,2.1592c0,1.0039-.2441,1.8076-.7324,2.4111s-1.1562.9053-2.0039.9053c-.7773,0-1.377-.3359-1.7988-1.0078ZM330.4106,260.6961v.8379c0,.4961.1611.917.4834,1.2627s.7314.5186,1.2275.5186c.582,0,1.0381-.2227,1.3682-.668s.4951-1.0645.4951-1.8574c0-.668-.1543-1.1914-.4629-1.5703s-.7266-.5684-1.2539-.5684c-.5586,0-1.0078.1943-1.3477.583s-.5098.876-.5098,1.4619Z" fill="#2f2f2f"/>
      <path d="M337.4346,263.116h-.0234v3.627h-.9609v-8.7598h.9609v1.0547h.0234c.4727-.7969,1.1641-1.1953,2.0742-1.1953.7734,0,1.377.2686,1.8105.8057s.6504,1.2568.6504,2.1592c0,1.0039-.2441,1.8076-.7324,2.4111s-1.1562.9053-2.0039.9053c-.7773,0-1.377-.3359-1.7988-1.0078ZM337.4111,260.6961v.8379c0,.4961.1611.917.4834,1.2627s.7314.5186,1.2275.5186c.582,0,1.0381-.2227,1.3682-.668s.4951-1.0645.4951-1.8574c0-.668-.1543-1.1914-.4629-1.5703s-.7266-.5684-1.2539-.5684c-.5586,0-1.0078.1943-1.3477.583s-.5098.876-.5098,1.4619Z" fill="#2f2f2f"/>
      <path d="M344.4229,263.9832h-.9609v-8.8828h.9609v8.8828Z" fill="#2f2f2f"/>
      <path d="M346.7354,256.4598c-.1719,0-.3184-.0586-.4395-.1758s-.1816-.2656-.1816-.4453.0605-.3291.1816-.4482.2676-.1787.4395-.1787c.1758,0,.3252.0596.4482.1787s.1846.2686.1846.4482c0,.1719-.0615.3184-.1846.4395s-.2725.1816-.4482.1816ZM347.2041,263.9832h-.9609v-6h.9609v6Z" fill="#2f2f2f"/>
      <path d="M353.1387,263.7078c-.4609.2773-1.0078.416-1.6406.416-.8555,0-1.5459-.2783-2.0713-.835s-.7881-1.2783-.7881-2.165c0-.9883.2832-1.7822.8496-2.3818s1.3223-.8994,2.2676-.8994c.5273,0,.9922.0977,1.3945.293v.9844c-.4453-.3125-.9219-.4688-1.4297-.4688-.6133,0-1.1162.2197-1.5088.6592s-.5889,1.0166-.5889,1.7314c0,.7031.1846,1.2578.5537,1.6641s.8643.6094,1.4854.6094c.5234,0,1.0156-.1738,1.4766-.5215v.9141Z" fill="#2f2f2f"/>
      <path d="M358.9287,263.9832h-.9609v-.9375h-.0234c-.418.7188-1.0332,1.0781-1.8457,1.0781-.5977,0-1.0654-.1582-1.4033-.4746s-.5068-.7363-.5068-1.2598c0-1.1211.6602-1.7734,1.9805-1.957l1.7988-.252c0-1.0195-.4121-1.5293-1.2363-1.5293-.7227,0-1.375.2461-1.957.7383v-.9844c.5898-.375,1.2695-.5625,2.0391-.5625,1.4102,0,2.1152.7461,2.1152,2.2383v3.9023ZM357.9678,260.948l-1.4473.1992c-.4453.0625-.7812.1729-1.0078.3311s-.3398.4385-.3398.8408c0,.293.1045.5322.3135.7178s.4873.2783.835.2783c.4766,0,.8701-.167,1.1807-.501s.4658-.7568.4658-1.2686v-.5977Z" fill="#2f2f2f"/>
      <path d="M363.4458,263.9246c-.2266.125-.5254.1875-.8965.1875-1.0508,0-1.5762-.5859-1.5762-1.7578v-3.5508h-1.0312v-.8203h1.0312v-1.4648l.9609-.3105v1.7754h1.5117v.8203h-1.5117v3.3809c0,.4023.0684.6895.2051.8613s.3633.2578.6797.2578c.2422,0,.4512-.0664.627-.1992v.8203Z" fill="#2f2f2f"/>
      <path d="M365.1309,256.4598c-.1719,0-.3184-.0586-.4395-.1758s-.1816-.2656-.1816-.4453.0605-.3291.1816-.4482.2676-.1787.4395-.1787c.1758,0,.3252.0596.4482.1787s.1846.2686.1846.4482c0,.1719-.0615.3184-.1846.4395s-.2725.1816-.4482.1816ZM365.5996,263.9832h-.9609v-6h.9609v6Z" fill="#2f2f2f"/>
      <path d="M369.9761,264.1238c-.8867,0-1.5947-.2803-2.124-.8408s-.7939-1.3037-.7939-2.2295c0-1.0078.2754-1.7949.8262-2.3613s1.2949-.8496,2.2324-.8496c.8945,0,1.5928.2754,2.0947.8262s.7529,1.3145.7529,2.291c0,.957-.2705,1.7236-.8115,2.2998s-1.2666.8643-2.1768.8643ZM370.0464,258.6512c-.6172,0-1.1055.21-1.4648.6299s-.5391.999-.5391,1.7373c0,.7109.1816,1.2715.5449,1.6816s.8496.6152,1.459.6152c.6211,0,1.0986-.2012,1.4326-.6035s.501-.9746.501-1.7168c0-.75-.167-1.3281-.501-1.7344s-.8115-.6094-1.4326-.6094Z" fill="#2f2f2f"/>
      <path d="M379.4258,263.9832h-.9609v-3.4219c0-1.2734-.4648-1.9102-1.3945-1.9102-.4805,0-.8779.1807-1.1924.542s-.4717.8174-.4717,1.3682v3.4219h-.9609v-6h.9609v.9961h.0234c.4531-.7578,1.1094-1.1367,1.9688-1.1367.6562,0,1.1582.2119,1.5059.6357s.5215,1.0361.5215,1.8369v3.668Z" fill="#2f2f2f"/>
      <path d="M387.793,263.9832h-.9609v-7.2598c-.0742.0742-.1826.1592-.3252.2549s-.3027.1904-.4805.2842-.3652.1816-.5625.2637-.3896.1465-.5771.1934v-.9727c.2109-.0586.4346-.1377.6709-.2373s.4688-.2109.6973-.334.4443-.252.6475-.3867.3789-.2666.5273-.3955h.3633v8.5898Z" fill="#2f2f2f"/>
    </g>
    <g>
      <rect x="268.4" y="281.7351" width="127.6" height="15.6178" fill="none"/>
      <path d="M275.2202,291.5848c-.6211.3281-1.3945.4922-2.3203.4922-1.1953,0-2.1523-.3848-2.8711-1.1543s-1.0781-1.7793-1.0781-3.0293c0-1.3438.4043-2.4297,1.2129-3.2578s1.834-1.2422,3.0762-1.2422c.7969,0,1.457.1152,1.9805.3457v1.0488c-.6016-.3359-1.2656-.5039-1.9922-.5039-.9648,0-1.7471.3223-2.3467.9668s-.8994,1.5059-.8994,2.584c0,1.0234.2803,1.8389.8408,2.4463s1.2959.9111,2.2061.9111c.8438,0,1.5742-.1875,2.1914-.5625v.9551Z" fill="#2f2f2f"/>
      <path d="M281.4307,291.9363h-.9609v-.9492h-.0234c-.3984.7266-1.0156,1.0898-1.8516,1.0898-1.4297,0-2.1445-.8516-2.1445-2.5547v-3.5859h.9551v3.4336c0,1.2656.4844,1.8984,1.4531,1.8984.4688,0,.8545-.1729,1.1572-.5186s.4541-.7979.4541-1.3564v-3.457h.9609v6Z" fill="#2f2f2f"/>
      <path d="M282.9517,291.7195v-1.0312c.5234.3867,1.0996.5801,1.7285.5801.8438,0,1.2656-.2812,1.2656-.8438,0-.1602-.0361-.2959-.1084-.4072s-.1699-.21-.293-.2959-.2676-.1631-.4336-.2314-.3447-.1396-.5361-.2139c-.2656-.1055-.499-.2119-.7002-.3193s-.3691-.2285-.5039-.3633-.2363-.2881-.3047-.46-.1025-.373-.1025-.6035c0-.2812.0645-.5303.1934-.7471s.3008-.3984.5156-.5449.46-.2568.7354-.3311.5596-.1113.8525-.1113c.5195,0,.9844.0898,1.3945.2695v.9727c-.4414-.2891-.9492-.4336-1.5234-.4336-.1797,0-.3418.0205-.4863.0615s-.2686.0986-.3721.1729-.1836.1631-.2402.2666-.085.2178-.085.3428c0,.1562.0283.2871.085.3926s.1396.1992.249.2812.2422.1562.3984.2227.334.1387.5332.2168c.2656.1016.5039.2061.7148.3135s.3906.2285.5391.3633.2627.29.3428.4658.1201.3848.1201.627c0,.2969-.0654.5547-.1963.7734s-.3057.4004-.5244.5449-.4707.252-.7559.3223-.584.1055-.8965.1055c-.6172,0-1.1523-.1191-1.6055-.3574Z" fill="#2f2f2f"/>
      <path d="M291.2354,291.8777c-.2266.125-.5254.1875-.8965.1875-1.0508,0-1.5762-.5859-1.5762-1.7578v-3.5508h-1.0312v-.8203h1.0312v-1.4648l.9609-.3105v1.7754h1.5117v.8203h-1.5117v3.3809c0,.4023.0684.6895.2051.8613s.3633.2578.6797.2578c.2422,0,.4512-.0664.627-.1992v.8203Z" fill="#2f2f2f"/>
      <path d="M294.8945,292.077c-.8867,0-1.5947-.2803-2.124-.8408s-.7939-1.3037-.7939-2.2295c0-1.0078.2754-1.7949.8262-2.3613s1.2949-.8496,2.2324-.8496c.8945,0,1.5928.2754,2.0947.8262s.7529,1.3145.7529,2.291c0,.957-.2705,1.7236-.8115,2.2998s-1.2666.8643-2.1768.8643ZM294.9648,286.6043c-.6172,0-1.1055.21-1.4648.6299s-.5391.999-.5391,1.7373c0,.7109.1816,1.2715.5449,1.6816s.8496.6152,1.459.6152c.6211,0,1.0986-.2012,1.4326-.6035s.501-.9746.501-1.7168c0-.75-.167-1.3281-.501-1.7344s-.8115-.6094-1.4326-.6094Z" fill="#2f2f2f"/>
      <path d="M307.8833,291.9363h-.9609v-3.4453c0-.6641-.1025-1.1445-.3076-1.4414s-.5498-.4453-1.0342-.4453c-.4102,0-.7588.1875-1.0459.5625s-.4307.8242-.4307,1.3477v3.4219h-.9609v-3.5625c0-1.1797-.4551-1.7695-1.3652-1.7695-.4219,0-.7695.1768-1.043.5303s-.4102.8135-.4102,1.3799v3.4219h-.9609v-6h.9609v.9492h.0234c.4258-.7266,1.0469-1.0898,1.8633-1.0898.4102,0,.7676.1143,1.0723.3428s.5137.5283.627.8994c.4453-.8281,1.1094-1.2422,1.9922-1.2422,1.3203,0,1.9805.8145,1.9805,2.4434v3.6973Z" fill="#2f2f2f"/>
      <path d="M314.4995,289.1766h-4.2363c.0156.668.1953,1.1836.5391,1.5469s.8164.5449,1.418.5449c.6758,0,1.2969-.2227,1.8633-.668v.9023c-.5273.3828-1.2246.5742-2.0918.5742-.8477,0-1.5137-.2725-1.998-.8174s-.7266-1.3115-.7266-2.2998c0-.9336.2646-1.6943.7939-2.2822s1.1865-.8818,1.9717-.8818,1.3926.2539,1.8223.7617.6445,1.2129.6445,2.1152v.5039ZM313.5151,288.3621c-.0039-.5547-.1377-.9863-.4014-1.2949s-.6299-.4629-1.0986-.4629c-.4531,0-.8379.1621-1.1543.4863s-.5117.748-.5859,1.2715h3.2402Z" fill="#2f2f2f"/>
      <path d="M319.0815,286.909c-.168-.1289-.4102-.1934-.7266-.1934-.4102,0-.7529.1934-1.0283.5801s-.4131.9141-.4131,1.582v3.0586h-.9609v-6h.9609v1.2363h.0234c.1367-.4219.3457-.751.627-.9873s.5957-.3545.9434-.3545c.25,0,.4414.0273.5742.082v.9961Z" fill="#2f2f2f"/>
      <path d="M327.7065,291.9363h-.9609v-.9375h-.0234c-.418.7188-1.0332,1.0781-1.8457,1.0781-.5977,0-1.0654-.1582-1.4033-.4746s-.5068-.7363-.5068-1.2598c0-1.1211.6602-1.7734,1.9805-1.957l1.7988-.252c0-1.0195-.4121-1.5293-1.2363-1.5293-.7227,0-1.375.2461-1.957.7383v-.9844c.5898-.375,1.2695-.5625,2.0391-.5625,1.4102,0,2.1152.7461,2.1152,2.2383v3.9023ZM326.7456,288.9012l-1.4473.1992c-.4453.0625-.7812.1729-1.0078.3311s-.3398.4385-.3398.8408c0,.293.1045.5322.3135.7178s.4873.2783.835.2783c.4766,0,.8701-.167,1.1807-.501s.4658-.7568.4658-1.2686v-.5977Z" fill="#2f2f2f"/>
      <path d="M330.4341,291.0691h-.0234v3.627h-.9609v-8.7598h.9609v1.0547h.0234c.4727-.7969,1.1641-1.1953,2.0742-1.1953.7734,0,1.377.2686,1.8105.8057s.6504,1.2568.6504,2.1592c0,1.0039-.2441,1.8076-.7324,2.4111s-1.1562.9053-2.0039.9053c-.7773,0-1.377-.3359-1.7988-1.0078ZM330.4106,288.6492v.8379c0,.4961.1611.917.4834,1.2627s.7314.5186,1.2275.5186c.582,0,1.0381-.2227,1.3682-.668s.4951-1.0645.4951-1.8574c0-.668-.1543-1.1914-.4629-1.5703s-.7266-.5684-1.2539-.5684c-.5586,0-1.0078.1943-1.3477.583s-.5098.876-.5098,1.4619Z" fill="#2f2f2f"/>
      <path d="M337.4346,291.0691h-.0234v3.627h-.9609v-8.7598h.9609v1.0547h.0234c.4727-.7969,1.1641-1.1953,2.0742-1.1953.7734,0,1.377.2686,1.8105.8057s.6504,1.2568.6504,2.1592c0,1.0039-.2441,1.8076-.7324,2.4111s-1.1562.9053-2.0039.9053c-.7773,0-1.377-.3359-1.7988-1.0078ZM337.4111,288.6492v.8379c0,.4961.1611.917.4834,1.2627s.7314.5186,1.2275.5186c.582,0,1.0381-.2227,1.3682-.668s.4951-1.0645.4951-1.8574c0-.668-.1543-1.1914-.4629-1.5703s-.7266-.5684-1.2539-.5684c-.5586,0-1.0078.1943-1.3477.583s-.5098.876-.5098,1.4619Z" fill="#2f2f2f"/>
      <path d="M344.4229,291.9363h-.9609v-8.8828h.9609v8.8828Z" fill="#2f2f2f"/>
      <path d="M346.7354,284.4129c-.1719,0-.3184-.0586-.4395-.1758s-.1816-.2656-.1816-.4453.0605-.3291.1816-.4482.2676-.1787.4395-.1787c.1758,0,.3252.0596.4482.1787s.1846.2686.1846.4482c0,.1719-.0615.3184-.1846.4395s-.2725.1816-.4482.1816ZM347.2041,291.9363h-.9609v-6h.9609v6Z" fill="#2f2f2f"/>
      <path d="M353.1387,291.6609c-.4609.2773-1.0078.416-1.6406.416-.8555,0-1.5459-.2783-2.0713-.835s-.7881-1.2783-.7881-2.165c0-.9883.2832-1.7822.8496-2.3818s1.3223-.8994,2.2676-.8994c.5273,0,.9922.0977,1.3945.293v.9844c-.4453-.3125-.9219-.4688-1.4297-.4688-.6133,0-1.1162.2197-1.5088.6592s-.5889,1.0166-.5889,1.7314c0,.7031.1846,1.2578.5537,1.6641s.8643.6094,1.4854.6094c.5234,0,1.0156-.1738,1.4766-.5215v.9141Z" fill="#2f2f2f"/>
      <path d="M358.9287,291.9363h-.9609v-.9375h-.0234c-.418.7188-1.0332,1.0781-1.8457,1.0781-.5977,0-1.0654-.1582-1.4033-.4746s-.5068-.7363-.5068-1.2598c0-1.1211.6602-1.7734,1.9805-1.957l1.7988-.252c0-1.0195-.4121-1.5293-1.2363-1.5293-.7227,0-1.375.2461-1.957.7383v-.9844c.5898-.375,1.2695-.5625,2.0391-.5625,1.4102,0,2.1152.7461,2.1152,2.2383v3.9023ZM357.9678,288.9012l-1.4473.1992c-.4453.0625-.7812.1729-1.0078.3311s-.3398.4385-.3398.8408c0,.293.1045.5322.3135.7178s.4873.2783.835.2783c.4766,0,.8701-.167,1.1807-.501s.4658-.7568.4658-1.2686v-.5977Z" fill="#2f2f2f"/>
      <path d="M363.4458,291.8777c-.2266.125-.5254.1875-.8965.1875-1.0508,0-1.5762-.5859-1.5762-1.7578v-3.5508h-1.0312v-.8203h1.0312v-1.4648l.9609-.3105v1.7754h1.5117v.8203h-1.5117v3.3809c0,.4023.0684.6895.2051.8613s.3633.2578.6797.2578c.2422,0,.4512-.0664.627-.1992v.8203Z" fill="#2f2f2f"/>
      <path d="M365.1309,284.4129c-.1719,0-.3184-.0586-.4395-.1758s-.1816-.2656-.1816-.4453.0605-.3291.1816-.4482.2676-.1787.4395-.1787c.1758,0,.3252.0596.4482.1787s.1846.2686.1846.4482c0,.1719-.0615.3184-.1846.4395s-.2725.1816-.4482.1816ZM365.5996,291.9363h-.9609v-6h.9609v6Z" fill="#2f2f2f"/>
      <path d="M369.9761,292.077c-.8867,0-1.5947-.2803-2.124-.8408s-.7939-1.3037-.7939-2.2295c0-1.0078.2754-1.7949.8262-2.3613s1.2949-.8496,2.2324-.8496c.8945,0,1.5928.2754,2.0947.8262s.7529,1.3145.7529,2.291c0,.957-.2705,1.7236-.8115,2.2998s-1.2666.8643-2.1768.8643ZM370.0464,286.6043c-.6172,0-1.1055.21-1.4648.6299s-.5391.999-.5391,1.7373c0,.7109.1816,1.2715.5449,1.6816s.8496.6152,1.459.6152c.6211,0,1.0986-.2012,1.4326-.6035s.501-.9746.501-1.7168c0-.75-.167-1.3281-.501-1.7344s-.8115-.6094-1.4326-.6094Z" fill="#2f2f2f"/>
      <path d="M379.4258,291.9363h-.9609v-3.4219c0-1.2734-.4648-1.9102-1.3945-1.9102-.4805,0-.8779.1807-1.1924.542s-.4717.8174-.4717,1.3682v3.4219h-.9609v-6h.9609v.9961h.0234c.4531-.7578,1.1094-1.1367,1.9688-1.1367.6562,0,1.1582.2119,1.5059.6357s.5215,1.0361.5215,1.8369v3.668Z" fill="#2f2f2f"/>
      <path d="M388.0742,285.7371c0-.2578-.04-.4824-.1201-.6738s-.1895-.3506-.3281-.4775-.3018-.2217-.4893-.2842-.3906-.0938-.6094-.0938c-.1875,0-.3711.0254-.5508.0762s-.3545.1211-.5244.2109-.334.1973-.4922.3223-.3057.2637-.4424.416v-1.0312c.2695-.2617.5713-.4619.9053-.6006s.7412-.208,1.2217-.208c.3438,0,.6621.0498.9551.1494s.5469.2451.7617.4365.3838.4277.5068.709.1846.6035.1846.9668c0,.332-.0381.6328-.1143.9023s-.1914.5234-.3457.7617-.3486.4668-.583.6855-.5098.4414-.8262.668c-.3945.2812-.7197.5215-.9756.7207s-.459.3857-.6094.5596-.2559.3477-.3164.5215-.0908.374-.0908.6006h4.1836v.8613h-5.1855v-.416c0-.3594.0391-.6758.1172-.9492s.207-.5332.3867-.7793.415-.4922.7061-.7383.6475-.5234,1.0693-.832c.3047-.2188.5596-.4277.7646-.627s.3701-.3984.4951-.5977.2139-.4014.2666-.6064.0791-.4229.0791-.6533Z" fill="#2f2f2f"/>
    </g>
    <g>
      <path d="M232.3838,34.9012c-.6133.2969-1.4141.4453-2.4023.4453-1.2891,0-2.3027-.3789-3.041-1.1367s-1.1074-1.7676-1.1074-3.0293c0-1.3438.415-2.4336,1.2451-3.2695s1.9072-1.2539,3.2314-1.2539c.8203,0,1.5117.1035,2.0742.3105v1.8223c-.5625-.3359-1.2031-.5039-1.9219-.5039-.7891,0-1.4258.248-1.9102.7441s-.7266,1.168-.7266,2.0156c0,.8125.2285,1.46.6855,1.9424s1.0723.7236,1.8457.7236c.7383,0,1.4141-.1797,2.0273-.5391v1.7285Z" fill="#2f2f2f"/>
      <path d="M239.2627,35.2h-1.8457v-.9141h-.0293c-.457.707-1.0684,1.0605-1.834,1.0605-1.3906,0-2.0859-.8418-2.0859-2.5254v-3.6211h1.8457v3.457c0,.8477.3359,1.2715,1.0078,1.2715.332,0,.5977-.1162.7969-.3486s.2988-.5479.2988-.9463v-3.4336h1.8457v6Z" fill="#2f2f2f"/>
      <path d="M240.5283,35.0418v-1.5c.3047.1836.6084.3203.9111.4102s.5889.1348.8584.1348c.3281,0,.5869-.0449.7764-.1348s.2842-.2266.2842-.4102c0-.1172-.043-.2148-.1289-.293s-.1963-.1465-.3311-.2051-.2822-.1113-.4424-.1582-.3145-.0996-.4629-.1582c-.2383-.0898-.4482-.1865-.6299-.29s-.334-.2236-.457-.3604-.2168-.2949-.2812-.4746-.0967-.3926-.0967-.6387c0-.3359.0732-.625.2197-.8672s.3418-.4404.5859-.5947.5234-.2676.8379-.3398.6416-.1084.9814-.1084c.2656,0,.5352.0205.8086.0615s.543.1006.8086.1787v1.4297c-.2344-.1367-.4854-.2393-.7529-.3076s-.5303-.1025-.7881-.1025c-.1211,0-.2354.0107-.3428.0322s-.2021.0527-.2842.0938-.1465.0938-.1934.1582-.0703.1377-.0703.2197c0,.1094.0352.2031.1055.2812s.1621.1455.2754.2021.2393.1074.3779.1523.2764.0908.4131.1377c.2461.0859.4688.1797.668.2812s.3701.2207.5127.3574.252.2969.3281.4805.1143.4023.1143.6562c0,.3555-.0771.6592-.2314.9111s-.3594.457-.6152.6152-.5508.2734-.8848.3457-.6807.1084-1.04.1084c-.6602,0-1.2715-.1016-1.834-.3047Z" fill="#2f2f2f"/>
      <path d="M249.8008,35.1297c-.2734.1445-.6855.2168-1.2363.2168-1.3047,0-1.957-.6777-1.957-2.0332v-2.748h-.9727v-1.3652h.9727v-1.2949l1.8457-.5273v1.8223h1.3477v1.3652h-1.3477v2.4258c0,.625.248.9375.7441.9375.1953,0,.3965-.0566.6035-.1699v1.3711Z" fill="#2f2f2f"/>
      <path d="M253.6943,35.3465c-1,0-1.7861-.2803-2.3584-.8408s-.8584-1.3213-.8584-2.2822c0-.9922.2969-1.7686.8906-2.3291s1.3965-.8408,2.4082-.8408c.9961,0,1.7773.2803,2.3438.8408s.8496,1.3018.8496,2.2236c0,.9961-.292,1.7832-.876,2.3613s-1.3838.8672-2.3994.8672ZM253.7412,30.4715c-.4375,0-.7773.1504-1.0195.4512s-.3633.7266-.3633,1.2773c0,1.1523.4648,1.7285,1.3945,1.7285.8867,0,1.3301-.5918,1.3301-1.7754,0-1.1211-.4473-1.6816-1.3418-1.6816Z" fill="#2f2f2f"/>
      <path d="M267.6899,35.2h-1.8457v-3.4219c0-.8711-.3203-1.3066-.9609-1.3066-.3047,0-.5527.1309-.7441.3926s-.2871.5879-.2871.9785v3.3574h-1.8516v-3.457c0-.8477-.3145-1.2715-.9434-1.2715-.3164,0-.5693.125-.7588.375s-.2842.5898-.2842,1.0195v3.334h-1.8516v-6h1.8516v.9375h.0234c.1914-.3203.46-.5811.8057-.7822s.7236-.3018,1.1338-.3018c.8477,0,1.4277.373,1.7402,1.1191.457-.7461,1.1289-1.1191,2.0156-1.1191,1.3047,0,1.957.8047,1.957,2.4141v3.7324Z" fill="#2f2f2f"/>
      <path d="M274.5742,32.7273h-3.9141c.0625.8711.6113,1.3066,1.6465,1.3066.6602,0,1.2402-.1562,1.7402-.4688v1.3359c-.5547.2969-1.2754.4453-2.1621.4453-.9688,0-1.7207-.2686-2.2559-.8057s-.8027-1.2861-.8027-2.2471c0-.9961.2891-1.7852.8672-2.3672s1.2891-.873,2.1328-.873c.875,0,1.5518.2598,2.0303.7793s.7178,1.2246.7178,2.1152v.7793ZM272.8574,31.5906c0-.8594-.3477-1.2891-1.043-1.2891-.2969,0-.5537.123-.7705.3691s-.3486.5527-.3955.9199h2.209Z" fill="#2f2f2f"/>
      <path d="M279.667,30.8699c-.2227-.1211-.4824-.1816-.7793-.1816-.4023,0-.7168.1475-.9434.4424s-.3398.6963-.3398,1.2041v2.8652h-1.8516v-6h1.8516v1.1133h.0234c.293-.8125.8203-1.2188,1.582-1.2188.1953,0,.3477.0234.457.0703v1.7051Z" fill="#2f2f2f"/>
      <path d="M283.7451,34.9246v-1.6113c.5625.4102,1.2188.6152,1.9688.6152.4727,0,.8408-.1016,1.1045-.3047s.3955-.4863.3955-.8496c0-.375-.1631-.6641-.4893-.8672s-.7744-.3047-1.3447-.3047h-.7793v-1.418h.7207c1.0938,0,1.6406-.3633,1.6406-1.0898,0-.6836-.4199-1.0254-1.2598-1.0254-.5625,0-1.1094.1816-1.6406.5449v-1.5117c.5898-.2969,1.2773-.4453,2.0625-.4453.8594,0,1.5283.1934,2.0068.5801s.7178.8887.7178,1.5059c0,1.0977-.5566,1.7852-1.6699,2.0625v.0293c.5938.0742,1.0625.29,1.4062.6475s.5156.7959.5156,1.3154c0,.7852-.2871,1.4062-.8613,1.8633s-1.3672.6855-2.3789.6855c-.8672,0-1.5723-.1406-2.1152-.4219Z" fill="#2f2f2f"/>
    </g>
    <g>
      <path d="M250.4814,84.6019c0,2.3594-1.0645,3.5391-3.1934,3.5391-2.0391,0-3.0586-1.1348-3.0586-3.4043v-5.1387h.9844v5.0742c0,1.7227.7266,2.584,2.1797,2.584,1.4023,0,2.1035-.832,2.1035-2.4961v-5.1621h.9844v5.0039Z" fill="#2f2f2f"/>
      <path d="M251.9395,87.7835v-1.0312c.5234.3867,1.0996.5801,1.7285.5801.8438,0,1.2656-.2812,1.2656-.8438,0-.1602-.0361-.2959-.1084-.4072s-.1699-.21-.293-.2959-.2676-.1631-.4336-.2314-.3447-.1396-.5361-.2139c-.2656-.1055-.499-.2119-.7002-.3193s-.3691-.2285-.5039-.3633-.2363-.2881-.3047-.46-.1025-.373-.1025-.6035c0-.2812.0645-.5303.1934-.7471s.3008-.3984.5156-.5449.46-.2568.7354-.3311.5596-.1113.8525-.1113c.5195,0,.9844.0898,1.3945.2695v.9727c-.4414-.2891-.9492-.4336-1.5234-.4336-.1797,0-.3418.0205-.4863.0615s-.2686.0986-.3721.1729-.1836.1631-.2402.2666-.085.2178-.085.3428c0,.1562.0283.2871.085.3926s.1396.1992.249.2812.2422.1562.3984.2227.334.1387.5332.2168c.2656.1016.5039.2061.7148.3135s.3906.2285.5391.3633.2627.29.3428.4658.1201.3848.1201.627c0,.2969-.0654.5547-.1963.7734s-.3057.4004-.5244.5449-.4707.252-.7559.3223-.584.1055-.8965.1055c-.6172,0-1.1523-.1191-1.6055-.3574Z" fill="#2f2f2f"/>
      <path d="M262.1963,85.2405h-4.2363c.0156.668.1953,1.1836.5391,1.5469s.8164.5449,1.418.5449c.6758,0,1.2969-.2227,1.8633-.668v.9023c-.5273.3828-1.2246.5742-2.0918.5742-.8477,0-1.5137-.2725-1.998-.8174s-.7266-1.3115-.7266-2.2998c0-.9336.2646-1.6943.7939-2.2822s1.1865-.8818,1.9717-.8818,1.3926.2539,1.8223.7617.6445,1.2129.6445,2.1152v.5039ZM261.2119,84.4261c-.0039-.5547-.1377-.9863-.4014-1.2949s-.6299-.4629-1.0986-.4629c-.4531,0-.8379.1621-1.1543.4863s-.5117.748-.5859,1.2715h3.2402Z" fill="#2f2f2f"/>
      <path d="M266.7783,82.9729c-.168-.1289-.4102-.1934-.7266-.1934-.4102,0-.7529.1934-1.0283.5801s-.4131.9141-.4131,1.582v3.0586h-.9609v-6h.9609v1.2363h.0234c.1367-.4219.3457-.751.627-.9873s.5957-.3545.9434-.3545c.25,0,.4414.0273.5742.082v.9961Z" fill="#2f2f2f"/>
      <path d="M267.645,87.7835v-1.0312c.5234.3867,1.0996.5801,1.7285.5801.8438,0,1.2656-.2812,1.2656-.8438,0-.1602-.0361-.2959-.1084-.4072s-.1699-.21-.293-.2959-.2676-.1631-.4336-.2314-.3447-.1396-.5361-.2139c-.2656-.1055-.499-.2119-.7002-.3193s-.3691-.2285-.5039-.3633-.2363-.2881-.3047-.46-.1025-.373-.1025-.6035c0-.2812.0645-.5303.1934-.7471s.3008-.3984.5156-.5449.46-.2568.7354-.3311.5596-.1113.8525-.1113c.5195,0,.9844.0898,1.3945.2695v.9727c-.4414-.2891-.9492-.4336-1.5234-.4336-.1797,0-.3418.0205-.4863.0615s-.2686.0986-.3721.1729-.1836.1631-.2402.2666-.085.2178-.085.3428c0,.1562.0283.2871.085.3926s.1396.1992.249.2812.2422.1562.3984.2227.334.1387.5332.2168c.2656.1016.5039.2061.7148.3135s.3906.2285.5391.3633.2627.29.3428.4658.1201.3848.1201.627c0,.2969-.0654.5547-.1963.7734s-.3057.4004-.5244.5449-.4707.252-.7559.3223-.584.1055-.8965.1055c-.6172,0-1.1523-.1191-1.6055-.3574Z" fill="#2f2f2f"/>
    </g>
    <g>
      <path d="M415.1572,88.0003h-1.0898l-.8906-2.3555h-3.5625l-.8379,2.3555h-1.0957l3.2227-8.4023h1.0195l3.2344,8.4023ZM412.8545,84.7601l-1.3184-3.5801c-.043-.1172-.0859-.3047-.1289-.5625h-.0234c-.0391.2383-.084.4258-.1348.5625l-1.3066,3.5801h2.9121Z" fill="#2f2f2f"/>
      <path d="M421.2573,88.0003h-.9609v-1.0195h-.0234c-.4453.7734-1.1328,1.1602-2.0625,1.1602-.7539,0-1.3564-.2686-1.8076-.8057s-.6768-1.2686-.6768-2.1943c0-.9922.25-1.7871.75-2.3848s1.166-.8965,1.998-.8965c.8242,0,1.4238.3242,1.7988.9727h.0234v-3.7148h.9609v8.8828ZM420.2964,85.2874v-.8848c0-.4844-.1602-.8945-.4805-1.2305s-.7266-.5039-1.2188-.5039c-.5859,0-1.0469.2148-1.3828.6445s-.5039,1.0234-.5039,1.7812c0,.6914.1611,1.2373.4834,1.6377s.7549.6006,1.2979.6006c.5352,0,.9697-.1934,1.3037-.5801s.501-.875.501-1.4648Z" fill="#2f2f2f"/>
      <path d="M431.5938,88.0003h-.9609v-3.4453c0-.6641-.1025-1.1445-.3076-1.4414s-.5498-.4453-1.0342-.4453c-.4102,0-.7588.1875-1.0459.5625s-.4307.8242-.4307,1.3477v3.4219h-.9609v-3.5625c0-1.1797-.4551-1.7695-1.3652-1.7695-.4219,0-.7695.1768-1.043.5303s-.4102.8135-.4102,1.3799v3.4219h-.9609v-6h.9609v.9492h.0234c.4258-.7266,1.0469-1.0898,1.8633-1.0898.4102,0,.7676.1143,1.0723.3428s.5137.5283.627.8994c.4453-.8281,1.1094-1.2422,1.9922-1.2422,1.3203,0,1.9805.8145,1.9805,2.4434v3.6973Z" fill="#2f2f2f"/>
      <path d="M433.8218,80.4769c-.1719,0-.3184-.0586-.4395-.1758s-.1816-.2656-.1816-.4453.0605-.3291.1816-.4482.2676-.1787.4395-.1787c.1758,0,.3252.0596.4482.1787s.1846.2686.1846.4482c0,.1719-.0615.3184-.1846.4395s-.2725.1816-.4482.1816ZM434.2905,88.0003h-.9609v-6h.9609v6Z" fill="#2f2f2f"/>
      <path d="M441.0977,88.0003h-.9609v-3.4219c0-1.2734-.4648-1.9102-1.3945-1.9102-.4805,0-.8779.1807-1.1924.542s-.4717.8174-.4717,1.3682v3.4219h-.9609v-6h.9609v.9961h.0234c.4531-.7578,1.1094-1.1367,1.9688-1.1367.6562,0,1.1582.2119,1.5059.6357s.5215,1.0361.5215,1.8369v3.668Z" fill="#2f2f2f"/>
      <path d="M451.0469,88.0003h-.9609v-.9492h-.0234c-.3984.7266-1.0156,1.0898-1.8516,1.0898-1.4297,0-2.1445-.8516-2.1445-2.5547v-3.5859h.9551v3.4336c0,1.2656.4844,1.8984,1.4531,1.8984.4688,0,.8545-.1729,1.1572-.5186s.4541-.7979.4541-1.3564v-3.457h.9609v6Z" fill="#2f2f2f"/>
      <path d="M452.5679,87.7835v-1.0312c.5234.3867,1.0996.5801,1.7285.5801.8438,0,1.2656-.2812,1.2656-.8438,0-.1602-.0361-.2959-.1084-.4072s-.1699-.21-.293-.2959-.2676-.1631-.4336-.2314-.3447-.1396-.5361-.2139c-.2656-.1055-.499-.2119-.7002-.3193s-.3691-.2285-.5039-.3633-.2363-.2881-.3047-.46-.1025-.373-.1025-.6035c0-.2812.0645-.5303.1934-.7471s.3008-.3984.5156-.5449.46-.2568.7354-.3311.5596-.1113.8525-.1113c.5195,0,.9844.0898,1.3945.2695v.9727c-.4414-.2891-.9492-.4336-1.5234-.4336-.1797,0-.3418.0205-.4863.0615s-.2686.0986-.3721.1729-.1836.1631-.2402.2666-.085.2178-.085.3428c0,.1562.0283.2871.085.3926s.1396.1992.249.2812.2422.1562.3984.2227.334.1387.5332.2168c.2656.1016.5039.2061.7148.3135s.3906.2285.5391.3633.2627.29.3428.4658.1201.3848.1201.627c0,.2969-.0654.5547-.1963.7734s-.3057.4004-.5244.5449-.4707.252-.7559.3223-.584.1055-.8965.1055c-.6172,0-1.1523-.1191-1.6055-.3574Z" fill="#2f2f2f"/>
      <path d="M462.8247,85.2405h-4.2363c.0156.668.1953,1.1836.5391,1.5469s.8164.5449,1.418.5449c.6758,0,1.2969-.2227,1.8633-.668v.9023c-.5273.3828-1.2246.5742-2.0918.5742-.8477,0-1.5137-.2725-1.998-.8174s-.7266-1.3115-.7266-2.2998c0-.9336.2646-1.6943.7939-2.2822s1.1865-.8818,1.9717-.8818,1.3926.2539,1.8223.7617.6445,1.2129.6445,2.1152v.5039ZM461.8403,84.4261c-.0039-.5547-.1377-.9863-.4014-1.2949s-.6299-.4629-1.0986-.4629c-.4531,0-.8379.1621-1.1543.4863s-.5117.748-.5859,1.2715h3.2402Z" fill="#2f2f2f"/>
      <path d="M467.4067,82.9729c-.168-.1289-.4102-.1934-.7266-.1934-.4102,0-.7529.1934-1.0283.5801s-.4131.9141-.4131,1.582v3.0586h-.9609v-6h.9609v1.2363h.0234c.1367-.4219.3457-.751.627-.9873s.5957-.3545.9434-.3545c.25,0,.4414.0273.5742.082v.9961Z" fill="#2f2f2f"/>
    </g>
  </g>
</svg>