<?xml version="1.0" encoding="utf-8"?>
<!-- Generator: Adobe Illustrator 27.9.0, SVG Export Plug-In . SVG Version: 6.00 Build 0)  -->
<svg version="1.1" xmlns="http://www.w3.org/2000/svg" xmlns:xlink="http://www.w3.org/1999/xlink" x="0px" y="0px"
	 viewBox="0 0 875.6 338.8" enable-background="new 0 0 875.6 338.8" xml:space="preserve">
<symbol  id="PIPELINE" viewBox="-32 -12.266 64 24.531">
	<linearGradient id="SVGID_1_" gradientUnits="userSpaceOnUse" x1="0" y1="-12.2655" x2="1.502093e-15" y2="12.2655">
		<stop  offset="0" style="stop-color:#1B89B2"/>
		<stop  offset="1" style="stop-color:#51C8E8"/>
	</linearGradient>
	<path fill="url(#SVGID_1_)" d="M26.096,12.266h-51.448v0h0C-29.08,12.265-32,6.878-32,0s2.92-12.265,6.648-12.265h0v0h51.448
		C29.356-12.266,32-6.363,32,0S29.356,12.266,26.096,12.266z"/>
	<g>
		
			<linearGradient id="SVGID_00000003811633851689446110000018168765373700985993_" gradientUnits="userSpaceOnUse" x1="-31.461" y1="-6.1136" x2="-19.2338" y2="6.1136">
			<stop  offset="0" style="stop-color:#B3B4B4"/>
			<stop  offset="1" style="stop-color:#4F4F4F"/>
		</linearGradient>
		<ellipse fill="url(#SVGID_00000003811633851689446110000018168765373700985993_)" cx="-25.347" cy="0" rx="5.575" ry="10.879"/>
	</g>
</symbol>
<g id="Shapes">
	<rect fill="#FFFFFF" width="875.6" height="338.8"/>
	<g id="Wrench_tool_x28_s_x29_">
	</g>
	<g id="user2">
	</g>
	<g id="user2_1_">
	</g>
	<g id="user2_4_">
	</g>
	<g id="user2_3_">
	</g>
	<g id="user2_2_">
	</g>
	<g id="Internet_2">
	</g>
	<g id="Enterprise">
	</g>
	<g id="Tunnel__x28_stackable_x29_">
	</g>
	<g id="New_Symbol">
	</g>
	<g id="New_Symbol_1">
	</g>
	<g id="Files">
	</g>
	<g id="BlobBlock">
	</g>
	<g id="E_x5F_Enterprise">
	</g>
	<g id="E_x5F_AD_FS">
	</g>
	<g id="C_x5F_Azure_Active_Directory">
	</g>
	<g>
		
			<linearGradient id="SVGID_00000124128278396915220440000010479230538188963001_" gradientUnits="userSpaceOnUse" x1="180.4002" y1="166.9404" x2="858.0006" y2="166.9404">
			<stop  offset="0" style="stop-color:#E2F1F9"/>
			<stop  offset="1" style="stop-color:#A9D5ED"/>
		</linearGradient>
		<path fill="url(#SVGID_00000124128278396915220440000010479230538188963001_)" d="M858.001,294.668c0,11-9,20-20,20H200.4
			c-11,0-20-9-20-20V39.213c0-11,9-20,20-20h637.6c11,0,20,9,20,20V294.668z"/>
	</g>
	<g>
		
			<linearGradient id="SVGID_00000165202544386913476540000015947619421028122033_" gradientUnits="userSpaceOnUse" x1="391.6002" y1="166.9404" x2="844.8006" y2="166.9404">
			<stop  offset="0" style="stop-color:#A9D5ED"/>
			<stop  offset="1" style="stop-color:#69B4E3"/>
		</linearGradient>
		<path fill="url(#SVGID_00000165202544386913476540000015947619421028122033_)" d="M844.801,272.668c0,11-9,20-20,20H411.6
			c-11,0-20-9-20-20V61.213c0-11,9-20,20-20h413.2c11,0,20,9,20,20V272.668z"/>
	</g>
	<g>
		<g opacity="0.23">
			<path d="M828.201,194.049c0,11-9,20-20,20h-171.2c-11,0-20-9-20-20v-52.217c0-11,9-20,20-20h171.2c11,0,20,9,20,20V194.049z"/>
		</g>
		<g>
			<path fill="#FFFFFF" d="M827.201,193.049c0,11-9,20-20,20h-171.2c-11,0-20-9-20-20v-52.217c0-11,9-20,20-20h171.2
				c11,0,20,9,20,20V193.049z"/>
		</g>
	</g>
	<g>
		<rect x="52.849" y="98.413" fill="#FFFFFF" width="17.6" height="132"/>
		<rect x="52.849" y="98.413" opacity="0.25" fill="#1B93EB" width="17.6" height="132"/>
	</g>
	<g>
		
			<linearGradient id="SVGID_00000012470774726651658310000005682738187833128603_" gradientUnits="userSpaceOnUse" x1="671.196" y1="533.4816" x2="654.8887" y2="485.3061" gradientTransform="matrix(1 0 0 -1 0 679.6)">
			<stop  offset="0" style="stop-color:#114A8B"/>
			<stop  offset="1" style="stop-color:#0669BC"/>
		</linearGradient>
		<path fill="url(#SVGID_00000012470774726651658310000005682738187833128603_)" d="M663.102,144.114
			c0.343-1.016,1.296-1.701,2.369-1.701h15.705l-16.301,48.299c-0.343,1.016-1.296,1.701-2.369,1.701h-12.223
			c-1.71,0-2.916-1.679-2.369-3.3L663.102,144.114z"/>
		<path fill="#0078D4" d="M688.209,174.913h-24.751c-1.04,0-1.542,1.274-0.782,1.983l15.904,14.844
			c0.463,0.432,1.073,0.672,1.706,0.672H694.3L688.209,174.913z"/>
		
			<linearGradient id="SVGID_00000011740925090489484960000002754850132551998639_" gradientUnits="userSpaceOnUse" x1="676.1718" y1="511.2264" x2="672.3053" y2="509.9075" gradientTransform="matrix(1 0 0 -1 0 679.6)">
			<stop  offset="0" style="stop-color:#000000;stop-opacity:0.3"/>
			<stop  offset="0.0712" style="stop-color:#000000;stop-opacity:0.2"/>
			<stop  offset="0.321" style="stop-color:#000000;stop-opacity:0.1"/>
			<stop  offset="0.6231" style="stop-color:#000000;stop-opacity:0.05"/>
			<stop  offset="1" style="stop-color:#000000;stop-opacity:0"/>
		</linearGradient>
		<path fill="url(#SVGID_00000011740925090489484960000002754850132551998639_)" d="M681.176,142.413h-17.5l-16.875,50h17.5
			l3.593-10.646l11.407,10.646h15l-6.092-17.5h-18.002L681.176,142.413z"/>
		
			<linearGradient id="SVGID_00000182498711764399150980000012808982425672668339_" gradientUnits="userSpaceOnUse" x1="674.1862" y1="534.8874" x2="692.0864" y2="487.1967" gradientTransform="matrix(1 0 0 -1 0 679.6)">
			<stop  offset="0" style="stop-color:#3CCBF4"/>
			<stop  offset="1" style="stop-color:#2892DF"/>
		</linearGradient>
		<path fill="url(#SVGID_00000182498711764399150980000012808982425672668339_)" d="M685.499,144.114
			c-0.343-1.016-1.296-1.701-2.369-1.701h-17.58h0.08c1.073,0,2.026,0.684,2.369,1.701l15.187,45c0.547,1.621-0.658,3.3-2.369,3.3
			h-0.268h17.768c1.71,0,2.916-1.679,2.369-3.3L685.499,144.114z"/>
	</g>
	
		<linearGradient id="SVGID_00000163787600583096470720000006502029517823715456_" gradientUnits="userSpaceOnUse" x1="-502.3514" y1="806.387" x2="-502.3514" y2="856.387" gradientTransform="matrix(1 0 0 -1 564 913.6)">
		<stop  offset="0" style="stop-color:#0078D4"/>
		<stop  offset="0.82" style="stop-color:#5EA0EF"/>
	</linearGradient>
	<path fill="url(#SVGID_00000163787600583096470720000006502029517823715456_)" d="M96.897,91.531
		c-0.254-7.751-6.062-14.189-13.747-15.235c-0.487-10.91-9.646-19.405-20.562-19.073c-8.702-0.161-16.555,5.195-19.582,13.355
		C33.739,71.697,26.681,79.42,26.4,88.75c0.404,10.571,9.285,18.821,19.857,18.447h1.723h32.154c0.287,0.022,0.575,0.022,0.862,0
		C89.653,107.115,96.686,100.185,96.897,91.531z"/>
	<g>
		<rect x="211.2" y="80.813" fill="#FFFFFF" width="140.8" height="44"/>
		<rect x="211.2" y="80.813" opacity="0.16" fill="#999999" width="140.8" height="44"/>
	</g>
	<g>
		<rect x="105.6" y="107.213" fill="#FFFFFF" width="61.6" height="35.2"/>
		<rect x="105.6" y="107.213" opacity="0.16" fill="#999999" width="61.6" height="35.2"/>
	</g>
	<g>
		<rect x="105.6" y="195.213" fill="#FFFFFF" width="61.6" height="35.2"/>
		<rect x="105.6" y="195.213" opacity="0.16" fill="#999999" width="61.6" height="35.2"/>
	</g>
	<g>
		<g>
			
				<line fill="none" stroke="#3C3C41" stroke-width="2" stroke-miterlimit="10" x1="167.2" y1="124.813" x2="596.436" y2="124.813"/>
			<g>
				<polygon fill="#3C3C41" points="594.248,132.292 607.201,124.813 594.248,117.333 				"/>
			</g>
		</g>
	</g>
	<line fill="none" stroke="#3C3C41" stroke-width="2" stroke-miterlimit="10" x1="105.6" y1="124.813" x2="70.4" y2="124.813"/>
	<g>
		<line fill="none" stroke="#3C3C41" stroke-width="2" stroke-miterlimit="10" x1="167.2" y1="212.813" x2="607.201" y2="212.813"/>
	</g>
	<g>
		<g>
			<line fill="none" stroke="#3C3C41" stroke-width="2" stroke-miterlimit="10" x1="105.6" y1="212.813" x2="81.165" y2="212.813"/>
			<g>
				<polygon fill="#3C3C41" points="83.353,205.334 70.4,212.813 83.353,220.293 				"/>
			</g>
		</g>
	</g>
	<g>
		<path opacity="0.5" fill="#FFFFFF" d="M602.801,189.613c0,5.5-4.5,10-10,10H203.6c-5.5,0-10-4.5-10-10v-41.6c0-5.5,4.5-10,10-10
			h389.2c5.5,0,10,4.5,10,10V189.613z"/>
		<path opacity="0.16" fill="#FEE452" d="M602.801,189.613c0,5.5-4.5,10-10,10H203.6c-5.5,0-10-4.5-10-10v-41.6c0-5.5,4.5-10,10-10
			h389.2c5.5,0,10,4.5,10,10V189.613z"/>
	</g>
</g>
<g id="Text">
	<g>
		<path fill="#2F2F2F" d="M31.971,45.613h-2.839V33.01h2.839V45.613z"/>
		<path fill="#2F2F2F" d="M43.134,45.613h-2.769v-5.001c0-1.395-0.498-2.092-1.494-2.092c-0.48,0-0.876,0.185-1.187,0.554
			s-0.466,0.838-0.466,1.406v5.133h-2.777v-9h2.777v1.424h0.035c0.662-1.096,1.626-1.644,2.892-1.644
			c1.992,0,2.988,1.236,2.988,3.709V45.613z"/>
		<path fill="#2F2F2F" d="M50.633,45.508c-0.41,0.217-1.028,0.325-1.854,0.325c-1.957,0-2.936-1.017-2.936-3.05v-4.122h-1.459
			v-2.048h1.459v-1.942l2.769-0.791v2.733h2.021v2.048h-2.021V42.3c0,0.938,0.372,1.406,1.116,1.406
			c0.293,0,0.595-0.085,0.905-0.255V45.508z"/>
		<path fill="#2F2F2F" d="M60.234,41.904h-5.871c0.094,1.307,0.917,1.96,2.47,1.96c0.99,0,1.86-0.234,2.61-0.703v2.004
			c-0.832,0.445-1.913,0.668-3.243,0.668c-1.453,0-2.581-0.403-3.384-1.209s-1.204-1.929-1.204-3.37
			c0-1.494,0.434-2.678,1.301-3.551s1.934-1.31,3.199-1.31c1.312,0,2.327,0.39,3.045,1.169s1.077,1.837,1.077,3.173V41.904z
			 M57.659,40.199c0-1.289-0.521-1.934-1.564-1.934c-0.445,0-0.83,0.185-1.156,0.554c-0.324,0.369-0.522,0.829-0.593,1.38H57.659z"
			/>
		<path fill="#2F2F2F" d="M67.839,39.118c-0.334-0.182-0.724-0.272-1.169-0.272c-0.604,0-1.075,0.221-1.415,0.663
			s-0.51,1.045-0.51,1.807v4.298h-2.777v-9h2.777v1.67h0.035c0.439-1.219,1.23-1.828,2.373-1.828c0.293,0,0.521,0.035,0.686,0.105
			V39.118z"/>
		<path fill="#2F2F2F" d="M77.783,45.613h-2.769v-5.001c0-1.395-0.498-2.092-1.494-2.092c-0.48,0-0.876,0.185-1.187,0.554
			s-0.466,0.838-0.466,1.406v5.133h-2.777v-9h2.777v1.424h0.035c0.662-1.096,1.626-1.644,2.892-1.644
			c1.992,0,2.988,1.236,2.988,3.709V45.613z"/>
		<path fill="#2F2F2F" d="M88.076,41.904h-5.871c0.094,1.307,0.917,1.96,2.47,1.96c0.99,0,1.86-0.234,2.61-0.703v2.004
			c-0.832,0.445-1.913,0.668-3.243,0.668c-1.453,0-2.581-0.403-3.384-1.209s-1.204-1.929-1.204-3.37
			c0-1.494,0.434-2.678,1.301-3.551s1.934-1.31,3.199-1.31c1.312,0,2.327,0.39,3.045,1.169s1.077,1.837,1.077,3.173V41.904z
			 M85.501,40.199c0-1.289-0.521-1.934-1.564-1.934c-0.445,0-0.83,0.185-1.156,0.554c-0.324,0.369-0.522,0.829-0.593,1.38H85.501z"
			/>
		<path fill="#2F2F2F" d="M95.21,45.508c-0.41,0.217-1.028,0.325-1.854,0.325c-1.957,0-2.936-1.017-2.936-3.05v-4.122h-1.459v-2.048
			h1.459v-1.942l2.769-0.791v2.733h2.021v2.048h-2.021V42.3c0,0.938,0.372,1.406,1.116,1.406c0.293,0,0.595-0.085,0.905-0.255
			V45.508z"/>
	</g>
	<g>
		<path fill="#2F2F2F" d="M725.325,164.413h-3.094l-0.896-2.804h-4.482l-0.888,2.804h-3.076l4.588-12.604h3.366L725.325,164.413z
			 M720.684,159.429l-1.354-4.236c-0.1-0.316-0.17-0.694-0.211-1.134h-0.07c-0.029,0.369-0.103,0.735-0.22,1.099l-1.371,4.271
			H720.684z"/>
		<path fill="#2F2F2F" d="M734.185,164.413h-8.077v-1.151l4.518-5.801h-4.069v-2.048h7.594v1.371l-4.28,5.581h4.315V164.413z"/>
		<path fill="#2F2F2F" d="M744.299,164.413h-2.769v-1.371h-0.044c-0.686,1.061-1.603,1.591-2.751,1.591
			c-2.086,0-3.129-1.263-3.129-3.788v-5.432h2.769v5.186c0,1.271,0.504,1.907,1.512,1.907c0.498,0,0.896-0.174,1.195-0.523
			s0.448-0.822,0.448-1.419v-5.15h2.769V164.413z"/>
		<path fill="#2F2F2F" d="M752.421,157.918c-0.334-0.182-0.724-0.272-1.169-0.272c-0.604,0-1.075,0.221-1.415,0.664
			s-0.51,1.044-0.51,1.806v4.298h-2.777v-9h2.777v1.67h0.035c0.439-1.219,1.23-1.828,2.373-1.828c0.293,0,0.521,0.035,0.686,0.105
			V157.918z"/>
		<path fill="#2F2F2F" d="M761.878,160.704h-5.871c0.094,1.307,0.917,1.96,2.47,1.96c0.99,0,1.86-0.234,2.61-0.703v2.004
			c-0.832,0.445-1.913,0.668-3.243,0.668c-1.453,0-2.581-0.403-3.384-1.208s-1.204-1.929-1.204-3.371
			c0-1.494,0.434-2.678,1.301-3.551s1.934-1.31,3.199-1.31c1.312,0,2.327,0.39,3.045,1.169s1.077,1.837,1.077,3.173V160.704z
			 M759.303,158.999c0-1.289-0.521-1.934-1.564-1.934c-0.445,0-0.83,0.185-1.156,0.554c-0.324,0.369-0.522,0.829-0.593,1.38H759.303
			z"/>
	</g>
	<g>
		<path fill="#2F2F2F" d="M720.254,182.013h-1.121v-1.189h-0.027c-0.52,0.902-1.321,1.354-2.406,1.354
			c-0.88,0-1.582-0.313-2.109-0.94c-0.525-0.626-0.789-1.48-0.789-2.56c0-1.158,0.292-2.085,0.875-2.782s1.36-1.046,2.331-1.046
			c0.962,0,1.661,0.378,2.099,1.135h0.027v-4.334h1.121V182.013z M719.133,178.848v-1.032c0-0.565-0.187-1.043-0.561-1.436
			s-0.848-0.588-1.422-0.588c-0.684,0-1.222,0.25-1.613,0.752s-0.588,1.194-0.588,2.078c0,0.807,0.188,1.443,0.564,1.911
			c0.375,0.467,0.88,0.701,1.514,0.701c0.624,0,1.131-0.226,1.521-0.677C718.937,180.106,719.133,179.536,719.133,178.848z"/>
		<path fill="#2F2F2F" d="M728.075,178.794h-4.942c0.019,0.779,0.228,1.381,0.629,1.805s0.952,0.636,1.654,0.636
			c0.788,0,1.513-0.26,2.174-0.779v1.053c-0.615,0.447-1.429,0.67-2.44,0.67c-0.989,0-1.766-0.318-2.331-0.954
			s-0.848-1.53-0.848-2.683c0-1.089,0.309-1.977,0.926-2.663c0.618-0.686,1.385-1.029,2.301-1.029s1.625,0.296,2.126,0.889
			s0.752,1.415,0.752,2.468V178.794z M726.927,177.843c-0.005-0.647-0.161-1.151-0.468-1.511c-0.309-0.36-0.735-0.54-1.282-0.54
			c-0.528,0-0.978,0.189-1.347,0.567s-0.597,0.873-0.684,1.483H726.927z"/>
		<path fill="#2F2F2F" d="M730.906,181.002h-0.027v4.231h-1.121v-10.22h1.121v1.23h0.027c0.552-0.93,1.358-1.395,2.42-1.395
			c0.902,0,1.606,0.313,2.112,0.94s0.759,1.466,0.759,2.519c0,1.171-0.285,2.109-0.854,2.813s-1.349,1.056-2.338,1.056
			C732.097,182.177,731.398,181.785,730.906,181.002z M730.879,178.178v0.978c0,0.579,0.188,1.07,0.564,1.473
			c0.375,0.403,0.853,0.605,1.432,0.605c0.679,0,1.211-0.26,1.596-0.779c0.386-0.52,0.578-1.242,0.578-2.167
			c0-0.779-0.18-1.39-0.54-1.832s-0.848-0.663-1.463-0.663c-0.651,0-1.176,0.227-1.572,0.68S730.879,177.495,730.879,178.178z"/>
		<path fill="#2F2F2F" d="M739.048,182.013h-1.121V171.65h1.121V182.013z"/>
		<path fill="#2F2F2F" d="M744.166,182.177c-1.034,0-1.86-0.327-2.479-0.981c-0.617-0.654-0.926-1.521-0.926-2.601
			c0-1.176,0.321-2.094,0.964-2.755s1.511-0.991,2.604-0.991c1.044,0,1.858,0.321,2.443,0.964c0.586,0.643,0.879,1.534,0.879,2.673
			c0,1.117-0.315,2.011-0.947,2.683C746.074,181.842,745.227,182.177,744.166,182.177z M744.248,175.793
			c-0.72,0-1.29,0.245-1.709,0.735s-0.629,1.166-0.629,2.027c0,0.83,0.212,1.483,0.636,1.962s0.991,0.718,1.702,0.718
			c0.725,0,1.281-0.235,1.672-0.704c0.389-0.469,0.584-1.137,0.584-2.003c0-0.875-0.195-1.549-0.584-2.023
			C745.529,176.029,744.972,175.793,744.248,175.793z"/>
		<path fill="#2F2F2F" d="M754.849,175.013l-3.22,8.121c-0.574,1.449-1.381,2.174-2.42,2.174c-0.292,0-0.535-0.03-0.731-0.089
			v-1.005c0.241,0.082,0.463,0.123,0.663,0.123c0.565,0,0.989-0.337,1.271-1.012l0.561-1.326l-2.734-6.986h1.244l1.894,5.387
			c0.022,0.068,0.07,0.246,0.144,0.533h0.041c0.022-0.109,0.068-0.283,0.137-0.52l1.989-5.4H754.849z"/>
		<path fill="#2F2F2F" d="M766.031,182.013h-1.121v-4.02c0-0.775-0.119-1.335-0.359-1.682c-0.238-0.346-0.641-0.52-1.206-0.52
			c-0.479,0-0.886,0.219-1.22,0.656c-0.336,0.438-0.503,0.961-0.503,1.572v3.992h-1.121v-4.156c0-1.376-0.531-2.064-1.593-2.064
			c-0.492,0-0.897,0.206-1.217,0.619s-0.479,0.949-0.479,1.61v3.992h-1.121v-7h1.121v1.107h0.027
			c0.497-0.848,1.222-1.271,2.174-1.271c0.479,0,0.896,0.133,1.251,0.4s0.6,0.616,0.731,1.049c0.52-0.966,1.294-1.449,2.324-1.449
			c1.54,0,2.311,0.95,2.311,2.851V182.013z"/>
		<path fill="#2F2F2F" d="M773.738,178.794h-4.942c0.019,0.779,0.228,1.381,0.629,1.805s0.952,0.636,1.654,0.636
			c0.788,0,1.513-0.26,2.174-0.779v1.053c-0.615,0.447-1.429,0.67-2.44,0.67c-0.989,0-1.766-0.318-2.331-0.954
			s-0.848-1.53-0.848-2.683c0-1.089,0.309-1.977,0.926-2.663c0.618-0.686,1.385-1.029,2.301-1.029s1.625,0.296,2.126,0.889
			s0.752,1.415,0.752,2.468V178.794z M772.59,177.843c-0.005-0.647-0.161-1.151-0.468-1.511c-0.309-0.36-0.735-0.54-1.282-0.54
			c-0.528,0-0.978,0.189-1.347,0.567s-0.597,0.873-0.684,1.483H772.59z"/>
		<path fill="#2F2F2F" d="M781.232,182.013h-1.121v-3.992c0-1.486-0.542-2.229-1.627-2.229c-0.561,0-1.024,0.211-1.391,0.632
			c-0.367,0.421-0.551,0.954-0.551,1.596v3.992h-1.121v-7h1.121v1.162h0.027c0.528-0.884,1.294-1.326,2.297-1.326
			c0.766,0,1.352,0.247,1.757,0.742s0.608,1.209,0.608,2.143V182.013z"/>
		<path fill="#2F2F2F" d="M786.461,181.945c-0.265,0.146-0.613,0.219-1.046,0.219c-1.226,0-1.839-0.684-1.839-2.051v-4.143h-1.203
			v-0.957h1.203v-1.709l1.121-0.362v2.071h1.764v0.957h-1.764v3.944c0,0.469,0.08,0.804,0.239,1.005s0.424,0.301,0.793,0.301
			c0.282,0,0.526-0.078,0.731-0.232V181.945z"/>
		<path fill="#2F2F2F" d="M787.637,181.76v-1.203c0.61,0.451,1.283,0.677,2.017,0.677c0.984,0,1.477-0.328,1.477-0.984
			c0-0.187-0.042-0.345-0.126-0.475c-0.085-0.13-0.199-0.245-0.342-0.345c-0.145-0.1-0.312-0.19-0.506-0.27
			c-0.194-0.08-0.402-0.163-0.626-0.25c-0.31-0.123-0.582-0.247-0.817-0.373c-0.234-0.125-0.43-0.267-0.588-0.424
			c-0.156-0.157-0.275-0.336-0.355-0.537c-0.079-0.201-0.119-0.435-0.119-0.704c0-0.328,0.075-0.619,0.226-0.872
			s0.351-0.465,0.602-0.636s0.536-0.3,0.858-0.386c0.32-0.086,0.652-0.13,0.994-0.13c0.606,0,1.148,0.105,1.627,0.314v1.135
			c-0.515-0.337-1.107-0.506-1.777-0.506c-0.21,0-0.398,0.024-0.567,0.072s-0.313,0.115-0.435,0.202
			c-0.12,0.086-0.214,0.19-0.279,0.311c-0.066,0.121-0.1,0.254-0.1,0.4c0,0.182,0.033,0.335,0.1,0.458
			c0.065,0.123,0.162,0.232,0.29,0.328s0.282,0.182,0.465,0.26s0.39,0.162,0.622,0.253c0.31,0.119,0.588,0.24,0.834,0.366
			s0.456,0.267,0.629,0.424s0.307,0.338,0.4,0.543c0.093,0.205,0.14,0.449,0.14,0.731c0,0.346-0.076,0.647-0.229,0.902
			c-0.152,0.255-0.356,0.467-0.611,0.636s-0.549,0.294-0.882,0.376s-0.682,0.123-1.046,0.123
			C788.79,182.177,788.165,182.038,787.637,181.76z"/>
	</g>
	<g>
		<path fill="#2F2F2F" d="M476.11,154.61l-3.377,9.803h-2.502l-3.336-9.803h2.379l2.044,6.822c0.109,0.369,0.176,0.695,0.198,0.978
			h0.041c0.032-0.305,0.103-0.64,0.212-1.005l2.03-6.795H476.11z"/>
		<path fill="#2F2F2F" d="M478.239,156.305c-0.364,0-0.663-0.108-0.896-0.325s-0.349-0.482-0.349-0.796
			c0-0.324,0.116-0.588,0.349-0.793s0.531-0.308,0.896-0.308c0.369,0,0.669,0.103,0.899,0.308c0.229,0.205,0.345,0.469,0.345,0.793
			c0,0.328-0.115,0.597-0.345,0.807C478.908,156.2,478.608,156.305,478.239,156.305z M479.305,164.413h-2.16v-7h2.16V164.413z"/>
		<path fill="#2F2F2F" d="M485.654,159.361c-0.26-0.141-0.562-0.212-0.909-0.212c-0.47,0-0.836,0.172-1.101,0.516
			s-0.396,0.812-0.396,1.405v3.343h-2.16v-7h2.16v1.299h0.027c0.342-0.948,0.957-1.422,1.846-1.422c0.228,0,0.405,0.027,0.533,0.082
			V159.361z"/>
		<path fill="#2F2F2F" d="M491.185,164.331c-0.319,0.168-0.8,0.253-1.442,0.253c-1.522,0-2.283-0.791-2.283-2.372v-3.206h-1.135
			v-1.593h1.135v-1.511l2.153-0.615v2.126h1.572v1.593h-1.572v2.83c0,0.729,0.289,1.094,0.868,1.094
			c0.228,0,0.463-0.066,0.704-0.198V164.331z"/>
		<path fill="#2F2F2F" d="M499.15,164.413h-2.153v-1.066h-0.034c-0.533,0.825-1.246,1.237-2.14,1.237
			c-1.622,0-2.434-0.982-2.434-2.946v-4.225h2.153v4.033c0,0.989,0.392,1.483,1.176,1.483c0.388,0,0.697-0.136,0.93-0.407
			s0.349-0.639,0.349-1.104v-4.006h2.153V164.413z"/>
		<path fill="#2F2F2F" d="M506.8,164.413h-2.044v-1.005h-0.027c-0.47,0.784-1.164,1.176-2.085,1.176
			c-0.679,0-1.214-0.192-1.603-0.578c-0.391-0.385-0.585-0.899-0.585-1.542c0-1.358,0.805-2.142,2.413-2.352l1.9-0.253
			c0-0.766-0.415-1.148-1.244-1.148c-0.834,0-1.627,0.249-2.379,0.745v-1.627c0.301-0.155,0.712-0.292,1.234-0.41
			c0.521-0.119,0.996-0.178,1.425-0.178c1.996,0,2.994,0.996,2.994,2.987V164.413z M504.769,161.569v-0.472l-1.271,0.164
			c-0.702,0.091-1.053,0.408-1.053,0.95c0,0.246,0.086,0.448,0.256,0.605c0.172,0.157,0.402,0.236,0.694,0.236
			c0.405,0,0.736-0.14,0.991-0.42S504.769,161.997,504.769,161.569z"/>
		<path fill="#2F2F2F" d="M510.658,164.413h-2.16V154.05h2.16V164.413z"/>
		<path fill="#2F2F2F" d="M527.721,164.413h-2.181v-5.865c0-0.633,0.027-1.333,0.082-2.099h-0.055
			c-0.114,0.602-0.217,1.035-0.308,1.299l-2.297,6.665h-1.805l-2.338-6.597c-0.063-0.178-0.166-0.633-0.308-1.367h-0.062
			c0.06,0.966,0.089,1.814,0.089,2.543v5.421h-1.989v-9.803h3.233l2.003,5.811c0.159,0.465,0.275,0.932,0.349,1.401h0.041
			c0.123-0.542,0.253-1.014,0.39-1.415l2.003-5.797h3.151V164.413z"/>
		<path fill="#2F2F2F" d="M535.54,164.413h-2.044v-1.005h-0.027c-0.47,0.784-1.164,1.176-2.085,1.176
			c-0.679,0-1.214-0.192-1.603-0.578c-0.391-0.385-0.585-0.899-0.585-1.542c0-1.358,0.805-2.142,2.413-2.352l1.9-0.253
			c0-0.766-0.415-1.148-1.244-1.148c-0.834,0-1.627,0.249-2.379,0.745v-1.627c0.301-0.155,0.712-0.292,1.234-0.41
			c0.521-0.119,0.996-0.178,1.425-0.178c1.996,0,2.994,0.996,2.994,2.987V164.413z M533.51,161.569v-0.472l-1.271,0.164
			c-0.702,0.091-1.053,0.408-1.053,0.95c0,0.246,0.086,0.448,0.256,0.605c0.172,0.157,0.402,0.236,0.694,0.236
			c0.405,0,0.736-0.14,0.991-0.42S533.51,161.997,533.51,161.569z"/>
		<path fill="#2F2F2F" d="M542.554,164.16c-0.487,0.283-1.191,0.424-2.112,0.424c-1.075,0-1.946-0.326-2.611-0.978
			s-0.998-1.493-0.998-2.522c0-1.189,0.356-2.127,1.07-2.813c0.713-0.686,1.666-1.029,2.86-1.029c0.825,0,1.422,0.109,1.791,0.328
			v1.832c-0.451-0.337-0.955-0.506-1.511-0.506c-0.62,0-1.111,0.181-1.473,0.543c-0.363,0.362-0.544,0.862-0.544,1.5
			c0,0.62,0.173,1.106,0.52,1.459s0.822,0.53,1.429,0.53c0.538,0,1.064-0.168,1.579-0.506V164.16z"/>
		<path fill="#2F2F2F" d="M550.791,164.413h-2.153v-3.979c0-1.025-0.374-1.538-1.121-1.538c-0.383,0-0.692,0.144-0.93,0.431
			s-0.355,0.652-0.355,1.094v3.992h-2.16V154.05h2.16v4.402h0.027c0.528-0.807,1.246-1.21,2.153-1.21
			c1.586,0,2.379,0.957,2.379,2.871V164.413z"/>
		<path fill="#2F2F2F" d="M553.561,156.305c-0.364,0-0.663-0.108-0.896-0.325s-0.349-0.482-0.349-0.796
			c0-0.324,0.116-0.588,0.349-0.793s0.531-0.308,0.896-0.308c0.369,0,0.669,0.103,0.899,0.308c0.229,0.205,0.345,0.469,0.345,0.793
			c0,0.328-0.115,0.597-0.345,0.807C554.23,156.2,553.93,156.305,553.561,156.305z M554.628,164.413h-2.16v-7h2.16V164.413z"/>
		<path fill="#2F2F2F" d="M563.175,164.413h-2.153v-3.89c0-1.084-0.388-1.627-1.162-1.627c-0.374,0-0.682,0.144-0.923,0.431
			s-0.362,0.652-0.362,1.094v3.992h-2.16v-7h2.16v1.107h0.027c0.515-0.852,1.265-1.278,2.249-1.278c1.55,0,2.324,0.961,2.324,2.885
			V164.413z"/>
		<path fill="#2F2F2F" d="M571.197,161.528h-4.566c0.073,1.016,0.713,1.524,1.921,1.524c0.771,0,1.447-0.182,2.03-0.547v1.559
			c-0.647,0.346-1.488,0.52-2.522,0.52c-1.13,0-2.008-0.313-2.632-0.94s-0.937-1.5-0.937-2.622c0-1.162,0.337-2.083,1.012-2.762
			s1.504-1.019,2.488-1.019c1.021,0,1.811,0.303,2.369,0.909c0.558,0.606,0.837,1.429,0.837,2.468V161.528z M569.194,160.202
			c0-1.002-0.405-1.504-1.217-1.504c-0.347,0-0.646,0.144-0.898,0.431c-0.254,0.287-0.407,0.645-0.462,1.073H569.194z"/>
		<path fill="#2F2F2F" d="M469.705,180.837v-2.188c0.396,0.333,0.827,0.582,1.292,0.749s0.935,0.25,1.408,0.25
			c0.278,0,0.521-0.025,0.728-0.075c0.208-0.05,0.381-0.12,0.52-0.208c0.14-0.089,0.243-0.194,0.312-0.314s0.103-0.252,0.103-0.393
			c0-0.191-0.055-0.362-0.164-0.513s-0.259-0.29-0.447-0.417c-0.189-0.127-0.414-0.25-0.674-0.369s-0.54-0.239-0.841-0.362
			c-0.766-0.319-1.337-0.708-1.712-1.169c-0.377-0.46-0.564-1.016-0.564-1.668c0-0.51,0.103-0.949,0.308-1.316
			s0.484-0.669,0.837-0.906c0.354-0.237,0.763-0.411,1.228-0.523s0.957-0.167,1.477-0.167c0.511,0,0.963,0.031,1.356,0.092
			c0.395,0.062,0.758,0.156,1.091,0.284v2.044c-0.164-0.114-0.343-0.214-0.536-0.301c-0.194-0.086-0.394-0.158-0.599-0.215
			s-0.409-0.099-0.612-0.126c-0.202-0.027-0.395-0.041-0.577-0.041c-0.251,0-0.479,0.024-0.684,0.072s-0.378,0.115-0.52,0.202
			s-0.251,0.19-0.328,0.311s-0.116,0.256-0.116,0.407c0,0.164,0.043,0.311,0.13,0.441s0.21,0.253,0.369,0.369
			s0.354,0.23,0.581,0.342s0.485,0.227,0.772,0.345c0.392,0.164,0.744,0.338,1.056,0.523c0.312,0.185,0.58,0.393,0.804,0.625
			s0.395,0.498,0.513,0.796s0.178,0.646,0.178,1.042c0,0.547-0.104,1.006-0.311,1.377c-0.208,0.372-0.489,0.672-0.845,0.902
			s-0.769,0.396-1.241,0.496c-0.471,0.1-0.969,0.15-1.493,0.15c-0.538,0-1.05-0.045-1.534-0.137
			C470.48,181.155,470.06,181.019,469.705,180.837z"/>
		<path fill="#2F2F2F" d="M484.081,178.328h-4.566c0.073,1.016,0.713,1.524,1.921,1.524c0.771,0,1.447-0.182,2.03-0.547v1.559
			c-0.647,0.346-1.488,0.52-2.522,0.52c-1.13,0-2.008-0.313-2.632-0.94s-0.937-1.5-0.937-2.622c0-1.162,0.337-2.083,1.012-2.762
			s1.504-1.019,2.488-1.019c1.021,0,1.811,0.303,2.369,0.909c0.558,0.606,0.837,1.429,0.837,2.468V178.328z M482.078,177.002
			c0-1.002-0.405-1.504-1.217-1.504c-0.347,0-0.646,0.144-0.898,0.431c-0.254,0.287-0.407,0.645-0.462,1.073H482.078z"/>
		<path fill="#2F2F2F" d="M490.013,176.161c-0.26-0.141-0.562-0.212-0.909-0.212c-0.47,0-0.836,0.172-1.101,0.516
			s-0.396,0.812-0.396,1.405v3.343h-2.16v-7h2.16v1.299h0.027c0.342-0.948,0.957-1.422,1.846-1.422c0.228,0,0.405,0.027,0.533,0.082
			V176.161z"/>
		<path fill="#2F2F2F" d="M498.11,174.213l-2.604,7h-2.461l-2.481-7h2.311l1.217,4.313c0.137,0.488,0.217,0.902,0.239,1.244h0.027
			c0.032-0.324,0.116-0.725,0.253-1.203l1.244-4.354H498.11z"/>
		<path fill="#2F2F2F" d="M500.157,173.105c-0.364,0-0.663-0.108-0.896-0.325s-0.349-0.482-0.349-0.796
			c0-0.324,0.116-0.588,0.349-0.793s0.531-0.308,0.896-0.308c0.369,0,0.669,0.103,0.899,0.308c0.229,0.205,0.345,0.469,0.345,0.793
			c0,0.328-0.115,0.597-0.345,0.807C500.826,173,500.526,173.105,500.157,173.105z M501.223,181.213h-2.16v-7h2.16V181.213z"/>
		<path fill="#2F2F2F" d="M508.303,180.96c-0.487,0.283-1.191,0.424-2.112,0.424c-1.075,0-1.946-0.326-2.611-0.978
			s-0.998-1.493-0.998-2.522c0-1.189,0.356-2.127,1.07-2.813c0.713-0.686,1.666-1.029,2.86-1.029c0.825,0,1.422,0.109,1.791,0.328
			v1.832c-0.451-0.337-0.955-0.506-1.511-0.506c-0.62,0-1.111,0.181-1.473,0.543c-0.363,0.362-0.544,0.862-0.544,1.5
			c0,0.62,0.173,1.106,0.52,1.459s0.822,0.53,1.429,0.53c0.538,0,1.064-0.168,1.579-0.506V180.96z"/>
		<path fill="#2F2F2F" d="M516.018,178.328h-4.566c0.073,1.016,0.713,1.524,1.921,1.524c0.771,0,1.447-0.182,2.03-0.547v1.559
			c-0.647,0.346-1.488,0.52-2.522,0.52c-1.13,0-2.008-0.313-2.632-0.94s-0.937-1.5-0.937-2.622c0-1.162,0.337-2.083,1.012-2.762
			s1.504-1.019,2.488-1.019c1.021,0,1.811,0.303,2.369,0.909c0.558,0.606,0.837,1.429,0.837,2.468V178.328z M514.015,177.002
			c0-1.002-0.405-1.504-1.217-1.504c-0.347,0-0.646,0.144-0.898,0.431c-0.254,0.287-0.407,0.645-0.462,1.073H514.015z"/>
		<path fill="#2F2F2F" d="M525.732,172.504c-0.278-0.109-0.545-0.164-0.8-0.164c-0.692,0-1.039,0.376-1.039,1.128v0.745h1.6v1.593
			h-1.6v5.407h-2.153v-5.407h-1.176v-1.593h1.176v-0.868c0-0.797,0.26-1.44,0.779-1.928s1.226-0.731,2.119-0.731
			c0.438,0,0.802,0.045,1.094,0.137V172.504z"/>
		<path fill="#2F2F2F" d="M527.785,173.105c-0.364,0-0.663-0.108-0.896-0.325s-0.349-0.482-0.349-0.796
			c0-0.324,0.116-0.588,0.349-0.793s0.531-0.308,0.896-0.308c0.369,0,0.669,0.103,0.899,0.308c0.229,0.205,0.345,0.469,0.345,0.793
			c0,0.328-0.115,0.597-0.345,0.807C528.454,173,528.154,173.105,527.785,173.105z M528.851,181.213h-2.16v-7h2.16V181.213z"/>
		<path fill="#2F2F2F" d="M535.2,176.161c-0.26-0.141-0.562-0.212-0.909-0.212c-0.47,0-0.836,0.172-1.101,0.516
			s-0.396,0.812-0.396,1.405v3.343h-2.16v-7h2.16v1.299h0.027c0.342-0.948,0.957-1.422,1.846-1.422c0.228,0,0.405,0.027,0.533,0.082
			V176.161z"/>
		<path fill="#2F2F2F" d="M542.572,178.328h-4.566c0.073,1.016,0.713,1.524,1.921,1.524c0.771,0,1.447-0.182,2.03-0.547v1.559
			c-0.647,0.346-1.488,0.52-2.522,0.52c-1.13,0-2.008-0.313-2.632-0.94s-0.937-1.5-0.937-2.622c0-1.162,0.337-2.083,1.012-2.762
			s1.504-1.019,2.488-1.019c1.021,0,1.811,0.303,2.369,0.909c0.558,0.606,0.837,1.429,0.837,2.468V178.328z M540.569,177.002
			c0-1.002-0.405-1.504-1.217-1.504c-0.347,0-0.646,0.144-0.898,0.431c-0.254,0.287-0.407,0.645-0.462,1.073H540.569z"/>
		<path fill="#2F2F2F" d="M553.936,174.213l-2.017,7h-2.27l-1.032-4.102c-0.068-0.273-0.107-0.572-0.116-0.896h-0.041
			c-0.032,0.355-0.077,0.645-0.137,0.868l-1.107,4.129h-2.242l-1.976-7h2.201l0.964,4.566c0.046,0.214,0.08,0.474,0.103,0.779h0.041
			c0.022-0.319,0.063-0.588,0.123-0.807l1.203-4.539h2.058l1.08,4.566c0.027,0.114,0.06,0.378,0.096,0.793h0.048
			c0.022-0.264,0.06-0.529,0.109-0.793l0.909-4.566H553.936z"/>
		<path fill="#2F2F2F" d="M560.674,181.213h-2.044v-1.005h-0.027c-0.47,0.784-1.164,1.176-2.085,1.176
			c-0.679,0-1.214-0.192-1.603-0.578c-0.391-0.385-0.585-0.899-0.585-1.542c0-1.358,0.805-2.142,2.413-2.352l1.9-0.253
			c0-0.766-0.415-1.148-1.244-1.148c-0.834,0-1.627,0.249-2.379,0.745v-1.627c0.301-0.155,0.712-0.292,1.234-0.41
			c0.521-0.119,0.996-0.178,1.425-0.178c1.996,0,2.994,0.996,2.994,2.987V181.213z M558.643,178.369v-0.472l-1.271,0.164
			c-0.702,0.091-1.053,0.408-1.053,0.95c0,0.246,0.086,0.448,0.256,0.605c0.172,0.157,0.402,0.236,0.694,0.236
			c0.405,0,0.736-0.14,0.991-0.42S558.643,178.797,558.643,178.369z"/>
		<path fill="#2F2F2F" d="M564.532,181.213h-2.16v-10.363h2.16V181.213z"/>
		<path fill="#2F2F2F" d="M568.456,181.213h-2.16v-10.363h2.16V181.213z"/>
	</g>
	<g>
		<path fill="#2F2F2F" d="M270.645,166.642h-1.764c-1.472-1.623-2.208-3.616-2.208-5.981c0-2.283,0.736-4.3,2.208-6.05h1.75
			c-1.381,1.832-2.071,3.849-2.071,6.05S269.256,164.855,270.645,166.642z"/>
		<path fill="#2F2F2F" d="M275.596,164.584c-1.403,0-2.548-0.457-3.432-1.371s-1.326-2.104-1.326-3.572
			c0-1.549,0.449-2.803,1.347-3.76s2.087-1.436,3.568-1.436c1.399,0,2.53,0.458,3.394,1.374c0.864,0.916,1.296,2.124,1.296,3.623
			c0,1.541-0.448,2.782-1.343,3.726C278.203,164.113,277.036,164.584,275.596,164.584z M275.691,156.347
			c-0.774,0-1.39,0.291-1.846,0.872s-0.684,1.35-0.684,2.307c0,0.971,0.228,1.739,0.684,2.304s1.053,0.848,1.791,0.848
			c0.761,0,1.365-0.274,1.812-0.824s0.67-1.312,0.67-2.287c0-1.016-0.217-1.807-0.649-2.372S276.443,156.347,275.691,156.347z"/>
		<path fill="#2F2F2F" d="M284.094,163.6h-0.027v4.033h-2.16v-10.22h2.16v1.053h0.027c0.533-0.816,1.283-1.224,2.249-1.224
			c0.907,0,1.607,0.311,2.102,0.933c0.495,0.622,0.742,1.469,0.742,2.54c0,1.167-0.288,2.103-0.865,2.81
			c-0.576,0.707-1.343,1.06-2.3,1.06C285.179,164.584,284.536,164.256,284.094,163.6z M284.032,160.729v0.561
			c0,0.483,0.128,0.877,0.383,1.183s0.59,0.458,1.005,0.458c0.492,0,0.874-0.19,1.146-0.571c0.271-0.38,0.406-0.919,0.406-1.617
			c0-1.23-0.479-1.846-1.436-1.846c-0.442,0-0.803,0.167-1.084,0.502C284.173,159.734,284.032,160.177,284.032,160.729z"/>
		<path fill="#2F2F2F" d="M294.812,164.331c-0.319,0.168-0.8,0.253-1.442,0.253c-1.522,0-2.283-0.791-2.283-2.372v-3.206h-1.135
			v-1.593h1.135v-1.511l2.153-0.615v2.126h1.572v1.593h-1.572v2.83c0,0.729,0.289,1.094,0.868,1.094
			c0.228,0,0.463-0.066,0.704-0.198V164.331z"/>
		<path fill="#2F2F2F" d="M297.19,156.306c-0.364,0-0.663-0.108-0.896-0.325s-0.349-0.482-0.349-0.796
			c0-0.324,0.116-0.588,0.349-0.793s0.531-0.308,0.896-0.308c0.369,0,0.669,0.103,0.899,0.308c0.229,0.205,0.345,0.469,0.345,0.793
			c0,0.328-0.115,0.597-0.345,0.807C297.859,156.201,297.559,156.306,297.19,156.306z M298.257,164.413h-2.16v-7h2.16V164.413z"/>
		<path fill="#2F2F2F" d="M303.367,164.584c-1.167,0-2.084-0.327-2.751-0.981c-0.668-0.654-1.002-1.542-1.002-2.663
			c0-1.158,0.347-2.063,1.039-2.717s1.629-0.981,2.81-0.981c1.162,0,2.073,0.327,2.734,0.981s0.991,1.519,0.991,2.594
			c0,1.162-0.341,2.081-1.021,2.755C305.485,164.247,304.552,164.584,303.367,164.584z M303.422,158.897
			c-0.511,0-0.907,0.175-1.189,0.526s-0.424,0.848-0.424,1.49c0,1.344,0.542,2.017,1.627,2.017c1.034,0,1.552-0.69,1.552-2.071
			C304.987,159.55,304.466,158.897,303.422,158.897z"/>
		<path fill="#2F2F2F" d="M315.33,164.413h-2.153v-3.89c0-1.084-0.388-1.627-1.162-1.627c-0.374,0-0.682,0.144-0.923,0.431
			s-0.362,0.652-0.362,1.094v3.992h-2.16v-7h2.16v1.107h0.027c0.515-0.852,1.265-1.278,2.249-1.278c1.55,0,2.324,0.961,2.324,2.885
			V164.413z"/>
		<path fill="#2F2F2F" d="M322.895,164.413h-2.044v-1.005h-0.027c-0.47,0.784-1.164,1.176-2.085,1.176
			c-0.679,0-1.214-0.192-1.603-0.578c-0.391-0.385-0.585-0.899-0.585-1.542c0-1.358,0.805-2.142,2.413-2.352l1.9-0.253
			c0-0.766-0.415-1.148-1.244-1.148c-0.834,0-1.627,0.249-2.379,0.745v-1.627c0.301-0.155,0.712-0.292,1.234-0.41
			c0.521-0.119,0.996-0.178,1.425-0.178c1.996,0,2.994,0.996,2.994,2.987V164.413z M320.865,161.57v-0.472l-1.271,0.164
			c-0.702,0.091-1.053,0.408-1.053,0.95c0,0.246,0.086,0.448,0.256,0.605c0.172,0.157,0.402,0.236,0.694,0.236
			c0.405,0,0.736-0.14,0.991-0.42S320.865,161.998,320.865,161.57z"/>
		<path fill="#2F2F2F" d="M326.753,164.413h-2.16V154.05h2.16V164.413z"/>
		<path fill="#2F2F2F" d="M329.513,166.642h-1.75c1.395-1.777,2.092-3.771,2.092-5.981c0-2.192-0.697-4.208-2.092-6.05h1.764
			c1.477,1.754,2.215,3.771,2.215,6.05C331.741,163.008,330.998,165.001,329.513,166.642z"/>
		<path fill="#2F2F2F" d="M237.788,181.213h-5.838v-9.803h2.208v8.012h3.63V181.213z"/>
		<path fill="#2F2F2F" d="M242.251,181.384c-1.167,0-2.084-0.327-2.751-0.981c-0.668-0.654-1.002-1.542-1.002-2.663
			c0-1.158,0.347-2.063,1.039-2.717s1.629-0.981,2.81-0.981c1.162,0,2.073,0.327,2.734,0.981s0.991,1.519,0.991,2.594
			c0,1.162-0.341,2.081-1.021,2.755C244.369,181.047,243.435,181.384,242.251,181.384z M242.305,175.696
			c-0.511,0-0.907,0.175-1.189,0.526s-0.424,0.848-0.424,1.49c0,1.344,0.542,2.017,1.627,2.017c1.034,0,1.552-0.69,1.552-2.071
			C243.871,176.35,243.349,175.696,242.305,175.696z"/>
		<path fill="#2F2F2F" d="M253.288,181.213h-2.044v-1.005h-0.027c-0.47,0.784-1.164,1.176-2.085,1.176
			c-0.679,0-1.214-0.192-1.603-0.578c-0.391-0.385-0.585-0.899-0.585-1.542c0-1.358,0.805-2.142,2.413-2.352l1.9-0.253
			c0-0.766-0.415-1.148-1.244-1.148c-0.834,0-1.627,0.249-2.379,0.745v-1.627c0.301-0.155,0.712-0.292,1.234-0.41
			c0.521-0.119,0.996-0.178,1.425-0.178c1.996,0,2.994,0.996,2.994,2.987V181.213z M251.258,178.369v-0.472l-1.271,0.164
			c-0.702,0.091-1.053,0.408-1.053,0.95c0,0.246,0.086,0.448,0.256,0.605c0.172,0.157,0.402,0.236,0.694,0.236
			c0.405,0,0.736-0.14,0.991-0.42S251.258,178.798,251.258,178.369z"/>
		<path fill="#2F2F2F" d="M261.869,181.213h-2.16v-0.964h-0.027c-0.492,0.756-1.215,1.135-2.167,1.135
			c-0.875,0-1.579-0.309-2.112-0.926s-0.8-1.48-0.8-2.587c0-1.158,0.294-2.085,0.882-2.782c0.588-0.697,1.358-1.046,2.311-1.046
			c0.902,0,1.531,0.324,1.887,0.971h0.027v-4.163h2.16V181.213z M259.75,177.809v-0.526c0-0.456-0.132-0.834-0.396-1.135
			s-0.608-0.451-1.032-0.451c-0.479,0-0.853,0.188-1.121,0.564s-0.403,0.892-0.403,1.548c0,0.615,0.13,1.089,0.39,1.422
			s0.62,0.499,1.08,0.499c0.438,0,0.794-0.175,1.07-0.526C259.612,178.852,259.75,178.387,259.75,177.809z"/>
		<path fill="#2F2F2F" d="M267.762,181.213v-9.803h3.568c1.094,0,1.935,0.201,2.522,0.602s0.882,0.966,0.882,1.695
			c0,0.529-0.179,0.991-0.537,1.388c-0.357,0.396-0.814,0.672-1.37,0.827v0.027c0.697,0.086,1.255,0.344,1.671,0.772
			c0.418,0.428,0.626,0.95,0.626,1.565c0,0.898-0.321,1.61-0.964,2.136s-1.52,0.79-2.632,0.79H267.762z M269.97,173.037v2.324h0.971
			c0.456,0,0.814-0.11,1.077-0.332c0.262-0.221,0.393-0.525,0.393-0.913c0-0.72-0.538-1.08-1.613-1.08H269.97z M269.97,177.002
			v2.584h1.196c0.511,0,0.91-0.119,1.199-0.355c0.29-0.237,0.435-0.561,0.435-0.971c0-0.392-0.143-0.7-0.427-0.923
			c-0.285-0.223-0.683-0.335-1.193-0.335H269.97z"/>
		<path fill="#2F2F2F" d="M282.4,181.213h-2.044v-1.005h-0.027c-0.47,0.784-1.164,1.176-2.085,1.176
			c-0.679,0-1.214-0.192-1.603-0.578c-0.391-0.385-0.585-0.899-0.585-1.542c0-1.358,0.805-2.142,2.413-2.352l1.9-0.253
			c0-0.766-0.415-1.148-1.244-1.148c-0.834,0-1.627,0.249-2.379,0.745v-1.627c0.301-0.155,0.712-0.292,1.234-0.41
			c0.521-0.119,0.996-0.178,1.425-0.178c1.996,0,2.994,0.996,2.994,2.987V181.213z M280.37,178.369v-0.472l-1.271,0.164
			c-0.702,0.091-1.053,0.408-1.053,0.95c0,0.246,0.086,0.448,0.256,0.605c0.172,0.157,0.402,0.236,0.694,0.236
			c0.405,0,0.736-0.14,0.991-0.42S280.37,178.798,280.37,178.369z"/>
		<path fill="#2F2F2F" d="M286.258,181.213h-2.16V170.85h2.16V181.213z"/>
		<path fill="#2F2F2F" d="M293.923,181.213h-2.044v-1.005h-0.027c-0.47,0.784-1.164,1.176-2.085,1.176
			c-0.679,0-1.214-0.192-1.603-0.578c-0.391-0.385-0.585-0.899-0.585-1.542c0-1.358,0.805-2.142,2.413-2.352l1.9-0.253
			c0-0.766-0.415-1.148-1.244-1.148c-0.834,0-1.627,0.249-2.379,0.745v-1.627c0.301-0.155,0.712-0.292,1.234-0.41
			c0.521-0.119,0.996-0.178,1.425-0.178c1.996,0,2.994,0.996,2.994,2.987V181.213z M291.892,178.369v-0.472l-1.271,0.164
			c-0.702,0.091-1.053,0.408-1.053,0.95c0,0.246,0.086,0.448,0.256,0.605c0.172,0.157,0.402,0.236,0.694,0.236
			c0.405,0,0.736-0.14,0.991-0.42S291.892,178.798,291.892,178.369z"/>
		<path fill="#2F2F2F" d="M302.38,181.213h-2.153v-3.89c0-1.084-0.388-1.627-1.162-1.627c-0.374,0-0.682,0.144-0.923,0.431
			s-0.362,0.652-0.362,1.094v3.992h-2.16v-7h2.16v1.107h0.027c0.515-0.852,1.265-1.278,2.249-1.278c1.55,0,2.324,0.961,2.324,2.885
			V181.213z"/>
		<path fill="#2F2F2F" d="M309.393,180.96c-0.487,0.283-1.191,0.424-2.112,0.424c-1.075,0-1.946-0.326-2.611-0.978
			s-0.998-1.493-0.998-2.522c0-1.189,0.356-2.127,1.07-2.813c0.713-0.686,1.666-1.029,2.86-1.029c0.825,0,1.422,0.109,1.791,0.328
			v1.832c-0.451-0.337-0.955-0.506-1.511-0.506c-0.62,0-1.111,0.181-1.473,0.543c-0.363,0.362-0.544,0.862-0.544,1.5
			c0,0.62,0.173,1.106,0.52,1.459s0.822,0.53,1.429,0.53c0.538,0,1.064-0.168,1.579-0.506V180.96z"/>
		<path fill="#2F2F2F" d="M317.109,178.328h-4.566c0.073,1.016,0.713,1.524,1.921,1.524c0.771,0,1.447-0.182,2.03-0.547v1.559
			c-0.647,0.346-1.488,0.52-2.522,0.52c-1.13,0-2.008-0.313-2.632-0.94s-0.937-1.5-0.937-2.622c0-1.162,0.337-2.083,1.012-2.762
			s1.504-1.019,2.488-1.019c1.021,0,1.811,0.303,2.369,0.909c0.558,0.606,0.837,1.429,0.837,2.468V178.328z M315.106,177.002
			c0-1.002-0.405-1.504-1.217-1.504c-0.347,0-0.646,0.144-0.898,0.431c-0.254,0.287-0.407,0.645-0.462,1.073H315.106z"/>
		<path fill="#2F2F2F" d="M323.04,176.161c-0.26-0.141-0.562-0.212-0.909-0.212c-0.47,0-0.836,0.172-1.101,0.516
			s-0.396,0.812-0.396,1.405v3.343h-2.16v-7h2.16v1.299h0.027c0.342-0.948,0.957-1.422,1.846-1.422c0.228,0,0.405,0.027,0.533,0.082
			V176.161z"/>
		<path fill="#2F2F2F" d="M333.369,171.41l-4.778,11.43h-1.928l4.758-11.43H333.369z"/>
		<path fill="#2F2F2F" d="M351.013,171.41l-2.591,9.803h-2.447l-1.627-6.289c-0.087-0.328-0.139-0.695-0.157-1.101h-0.027
			c-0.041,0.447-0.101,0.813-0.178,1.101l-1.668,6.289h-2.55l-2.577-9.803h2.413l1.381,6.528c0.06,0.278,0.103,0.652,0.13,1.121
			h0.041c0.019-0.351,0.084-0.734,0.198-1.148l1.777-6.501h2.365l1.606,6.583c0.06,0.242,0.111,0.592,0.157,1.053h0.027
			c0.019-0.36,0.066-0.725,0.144-1.094l1.354-6.542H351.013z"/>
		<path fill="#2F2F2F" d="M360.311,181.213h-2.406l-0.697-2.181h-3.486l-0.69,2.181h-2.393l3.568-9.803h2.618L360.311,181.213z
			 M356.702,177.337l-1.053-3.295c-0.077-0.246-0.132-0.54-0.164-0.882h-0.055c-0.022,0.287-0.08,0.572-0.171,0.854l-1.066,3.322
			H356.702z"/>
		<path fill="#2F2F2F" d="M367.082,173.208h-3.459v2.406h3.179v1.791h-3.179v3.808h-2.208v-9.803h5.667V173.208z"/>
	</g>
	<g>
		<path fill="#2F2F2F" d="M227.729,103.836v3.377h-2.208V97.41h3.459c2.47,0,3.705,1.042,3.705,3.124
			c0,0.984-0.354,1.781-1.062,2.389c-0.709,0.608-1.656,0.913-2.841,0.913H227.729z M227.729,99.106v3.056h0.868
			c1.176,0,1.764-0.515,1.764-1.545c0-1.007-0.588-1.511-1.764-1.511H227.729z"/>
		<path fill="#2F2F2F" d="M240.489,107.213h-2.153v-1.066h-0.034c-0.533,0.825-1.246,1.237-2.14,1.237
			c-1.622,0-2.434-0.982-2.434-2.946v-4.225h2.153v4.033c0,0.989,0.392,1.483,1.176,1.483c0.388,0,0.697-0.136,0.93-0.407
			s0.349-0.639,0.349-1.104v-4.006h2.153V107.213z"/>
		<path fill="#2F2F2F" d="M244.444,106.4h-0.027v0.813h-2.16V96.85h2.16v4.416h0.027c0.533-0.816,1.292-1.224,2.276-1.224
			c0.902,0,1.598,0.31,2.085,0.93s0.731,1.467,0.731,2.543c0,1.167-0.285,2.103-0.854,2.81s-1.331,1.06-2.283,1.06
			C245.538,107.384,244.887,107.056,244.444,106.4z M244.383,103.446v0.718c0,0.451,0.13,0.825,0.39,1.121s0.593,0.444,0.998,0.444
			c0.492,0,0.874-0.19,1.146-0.571c0.271-0.38,0.406-0.919,0.406-1.617c0-0.579-0.124-1.031-0.373-1.357
			c-0.248-0.326-0.603-0.489-1.062-0.489c-0.433,0-0.792,0.162-1.076,0.485C244.525,102.506,244.383,102.927,244.383,103.446z"/>
		<path fill="#2F2F2F" d="M253.127,107.213h-2.16V96.85h2.16V107.213z"/>
		<path fill="#2F2F2F" d="M255.996,99.106c-0.364,0-0.663-0.108-0.896-0.325s-0.349-0.482-0.349-0.796
			c0-0.324,0.116-0.588,0.349-0.793s0.531-0.308,0.896-0.308c0.369,0,0.669,0.103,0.899,0.308c0.229,0.205,0.345,0.469,0.345,0.793
			c0,0.328-0.115,0.597-0.345,0.807C256.665,99.001,256.365,99.106,255.996,99.106z M257.062,107.213h-2.16v-7h2.16V107.213z"/>
		<path fill="#2F2F2F" d="M264.141,106.96c-0.487,0.283-1.191,0.424-2.112,0.424c-1.075,0-1.946-0.326-2.611-0.978
			s-0.998-1.493-0.998-2.522c0-1.189,0.356-2.127,1.07-2.813c0.713-0.686,1.666-1.029,2.86-1.029c0.825,0,1.422,0.109,1.791,0.328
			v1.832c-0.451-0.337-0.955-0.506-1.511-0.506c-0.62,0-1.111,0.181-1.473,0.543c-0.363,0.362-0.544,0.862-0.544,1.5
			c0,0.62,0.173,1.106,0.52,1.459s0.822,0.53,1.429,0.53c0.538,0,1.064-0.168,1.579-0.506V106.96z"/>
		<path fill="#2F2F2F" d="M271.839,107.213h-2.208V97.41h2.208V107.213z"/>
		<path fill="#2F2F2F" d="M276.162,103.836v3.377h-2.208V97.41h3.459c2.47,0,3.705,1.042,3.705,3.124
			c0,0.984-0.354,1.781-1.062,2.389c-0.709,0.608-1.656,0.913-2.841,0.913H276.162z M276.162,99.106v3.056h0.868
			c1.176,0,1.764-0.515,1.764-1.545c0-1.007-0.588-1.511-1.764-1.511H276.162z"/>
		<path fill="#2F2F2F" d="M286.783,97.41l-4.778,11.43h-1.928l4.758-11.43H286.783z"/>
		<path fill="#2F2F2F" d="M287.758,107.213V97.41h3.473c3.481,0,5.223,1.593,5.223,4.778c0,1.527-0.475,2.746-1.426,3.657
			c-0.949,0.912-2.216,1.367-3.797,1.367H287.758z M289.966,99.208v6.214h1.094c0.957,0,1.708-0.287,2.253-0.861
			c0.544-0.574,0.816-1.356,0.816-2.345c0-0.934-0.27-1.669-0.811-2.205c-0.539-0.536-1.297-0.803-2.272-0.803H289.966z"/>
		<path fill="#2F2F2F" d="M306.84,107.213h-2.229l-4.04-6.159c-0.237-0.36-0.401-0.631-0.492-0.813h-0.027
			c0.036,0.346,0.055,0.875,0.055,1.586v5.387h-2.085V97.41h2.379l3.89,5.968c0.178,0.269,0.342,0.536,0.492,0.8h0.027
			c-0.036-0.228-0.055-0.677-0.055-1.347V97.41h2.085V107.213z"/>
		<path fill="#2F2F2F" d="M308.626,106.837v-2.188c0.396,0.333,0.827,0.582,1.292,0.749s0.935,0.25,1.408,0.25
			c0.278,0,0.521-0.025,0.728-0.075c0.208-0.05,0.381-0.12,0.52-0.208c0.14-0.089,0.243-0.194,0.312-0.314s0.103-0.252,0.103-0.393
			c0-0.191-0.055-0.362-0.164-0.513s-0.259-0.29-0.447-0.417c-0.189-0.127-0.414-0.25-0.674-0.369s-0.54-0.239-0.841-0.362
			c-0.766-0.319-1.337-0.708-1.712-1.169c-0.377-0.46-0.564-1.016-0.564-1.668c0-0.51,0.103-0.949,0.308-1.316
			s0.484-0.669,0.837-0.906c0.354-0.237,0.763-0.411,1.228-0.523s0.957-0.167,1.477-0.167c0.511,0,0.963,0.031,1.356,0.092
			c0.395,0.062,0.758,0.156,1.091,0.284v2.044c-0.164-0.114-0.343-0.214-0.536-0.301c-0.194-0.086-0.394-0.158-0.599-0.215
			s-0.409-0.099-0.612-0.126c-0.202-0.027-0.395-0.041-0.577-0.041c-0.251,0-0.479,0.024-0.684,0.072s-0.378,0.115-0.52,0.202
			s-0.251,0.19-0.328,0.311s-0.116,0.256-0.116,0.407c0,0.164,0.043,0.311,0.13,0.441s0.21,0.253,0.369,0.369
			s0.354,0.23,0.581,0.342s0.485,0.227,0.772,0.345c0.392,0.164,0.744,0.338,1.056,0.523c0.312,0.185,0.58,0.393,0.804,0.625
			s0.395,0.498,0.513,0.796s0.178,0.646,0.178,1.042c0,0.547-0.104,1.006-0.311,1.377c-0.208,0.372-0.489,0.672-0.845,0.902
			s-0.769,0.396-1.241,0.496c-0.471,0.1-0.969,0.15-1.493,0.15c-0.538,0-1.05-0.045-1.534-0.137
			C309.401,107.156,308.981,107.019,308.626,106.837z"/>
		<path fill="#2F2F2F" d="M321.696,101.377h10.459l-1.081-1.055v-1.301l2.812,2.918v0.035l-2.812,2.918v-1.301l1.063-1.037h-10.441
			V101.377z"/>
	</g>
	<g>
		<path fill="#2F2F2F" d="M117.658,129.213h-1.148v-9.803h1.148V129.213z"/>
		<path fill="#2F2F2F" d="M125.733,129.213h-1.121v-3.992c0-1.486-0.542-2.229-1.627-2.229c-0.561,0-1.024,0.211-1.391,0.632
			c-0.367,0.421-0.551,0.954-0.551,1.596v3.992h-1.121v-7h1.121v1.162h0.027c0.528-0.884,1.294-1.326,2.297-1.326
			c0.766,0,1.352,0.247,1.757,0.742s0.608,1.209,0.608,2.143V129.213z"/>
		<path fill="#2F2F2F" d="M133.807,128.653c0,2.57-1.23,3.855-3.691,3.855c-0.866,0-1.622-0.164-2.27-0.492v-1.121
			c0.788,0.438,1.54,0.656,2.256,0.656c1.723,0,2.584-0.916,2.584-2.748v-0.766h-0.027c-0.533,0.893-1.335,1.34-2.406,1.34
			c-0.87,0-1.571-0.311-2.102-0.933c-0.531-0.622-0.797-1.457-0.797-2.505c0-1.189,0.286-2.135,0.857-2.837
			c0.572-0.702,1.355-1.053,2.349-1.053c0.943,0,1.643,0.378,2.099,1.135h0.027v-0.971h1.121V128.653z M132.686,126.048v-1.032
			c0-0.556-0.188-1.032-0.564-1.429c-0.375-0.396-0.844-0.595-1.404-0.595c-0.692,0-1.235,0.252-1.627,0.755
			s-0.588,1.209-0.588,2.116c0,0.779,0.188,1.402,0.564,1.87c0.375,0.467,0.873,0.701,1.493,0.701c0.629,0,1.141-0.223,1.534-0.67
			C132.489,127.317,132.686,126.745,132.686,126.048z"/>
		<path fill="#2F2F2F" d="M139.565,123.348c-0.196-0.15-0.479-0.226-0.848-0.226c-0.479,0-0.879,0.226-1.199,0.677
			c-0.322,0.451-0.482,1.066-0.482,1.846v3.568h-1.121v-7h1.121v1.442h0.027c0.159-0.492,0.403-0.876,0.731-1.152
			s0.695-0.414,1.101-0.414c0.292,0,0.515,0.032,0.67,0.096V123.348z"/>
		<path fill="#2F2F2F" d="M146.408,125.993h-4.942c0.019,0.779,0.228,1.381,0.629,1.805s0.952,0.636,1.654,0.636
			c0.788,0,1.513-0.26,2.174-0.779v1.053c-0.615,0.447-1.429,0.67-2.44,0.67c-0.989,0-1.766-0.318-2.331-0.954
			s-0.848-1.53-0.848-2.683c0-1.089,0.309-1.977,0.926-2.663c0.618-0.686,1.385-1.029,2.301-1.029s1.625,0.296,2.126,0.889
			s0.752,1.415,0.752,2.468V125.993z M145.26,125.043c-0.005-0.647-0.161-1.151-0.468-1.511c-0.309-0.36-0.735-0.54-1.282-0.54
			c-0.528,0-0.978,0.189-1.347,0.567s-0.597,0.873-0.684,1.483H145.26z"/>
		<path fill="#2F2F2F" d="M147.649,128.96v-1.203c0.61,0.451,1.283,0.677,2.017,0.677c0.984,0,1.477-0.328,1.477-0.984
			c0-0.187-0.042-0.345-0.126-0.475c-0.085-0.13-0.199-0.245-0.342-0.345c-0.145-0.1-0.312-0.19-0.506-0.27
			c-0.194-0.08-0.402-0.163-0.626-0.25c-0.31-0.123-0.582-0.247-0.817-0.373c-0.234-0.125-0.43-0.267-0.588-0.424
			c-0.156-0.157-0.275-0.336-0.355-0.537c-0.079-0.201-0.119-0.435-0.119-0.704c0-0.328,0.075-0.619,0.226-0.872
			s0.351-0.465,0.602-0.636s0.536-0.3,0.858-0.386c0.32-0.086,0.652-0.13,0.994-0.13c0.606,0,1.148,0.105,1.627,0.314v1.135
			c-0.515-0.337-1.107-0.506-1.777-0.506c-0.21,0-0.398,0.024-0.567,0.072s-0.313,0.115-0.435,0.202
			c-0.12,0.086-0.214,0.19-0.279,0.311c-0.066,0.121-0.1,0.254-0.1,0.4c0,0.182,0.033,0.335,0.1,0.458
			c0.065,0.123,0.162,0.232,0.29,0.328s0.282,0.182,0.465,0.26s0.39,0.162,0.622,0.253c0.31,0.119,0.588,0.24,0.834,0.366
			s0.456,0.267,0.629,0.424s0.307,0.338,0.4,0.543c0.093,0.205,0.14,0.449,0.14,0.731c0,0.346-0.076,0.647-0.229,0.902
			c-0.152,0.255-0.356,0.467-0.611,0.636s-0.549,0.294-0.882,0.376s-0.682,0.123-1.046,0.123
			C148.803,129.377,148.178,129.238,147.649,128.96z"/>
		<path fill="#2F2F2F" d="M153.576,128.96v-1.203c0.61,0.451,1.283,0.677,2.017,0.677c0.984,0,1.477-0.328,1.477-0.984
			c0-0.187-0.042-0.345-0.126-0.475c-0.085-0.13-0.199-0.245-0.342-0.345c-0.145-0.1-0.312-0.19-0.506-0.27
			c-0.194-0.08-0.402-0.163-0.626-0.25c-0.31-0.123-0.582-0.247-0.817-0.373c-0.234-0.125-0.43-0.267-0.588-0.424
			c-0.156-0.157-0.275-0.336-0.355-0.537c-0.079-0.201-0.119-0.435-0.119-0.704c0-0.328,0.075-0.619,0.226-0.872
			s0.351-0.465,0.602-0.636s0.536-0.3,0.858-0.386c0.32-0.086,0.652-0.13,0.994-0.13c0.606,0,1.148,0.105,1.627,0.314v1.135
			c-0.515-0.337-1.107-0.506-1.777-0.506c-0.21,0-0.398,0.024-0.567,0.072s-0.313,0.115-0.435,0.202
			c-0.12,0.086-0.214,0.19-0.279,0.311c-0.066,0.121-0.1,0.254-0.1,0.4c0,0.182,0.033,0.335,0.1,0.458
			c0.065,0.123,0.162,0.232,0.29,0.328s0.282,0.182,0.465,0.26s0.39,0.162,0.622,0.253c0.31,0.119,0.588,0.24,0.834,0.366
			s0.456,0.267,0.629,0.424s0.307,0.338,0.4,0.543c0.093,0.205,0.14,0.449,0.14,0.731c0,0.346-0.076,0.647-0.229,0.902
			c-0.152,0.255-0.356,0.467-0.611,0.636s-0.549,0.294-0.882,0.376s-0.682,0.123-1.046,0.123
			C154.729,129.377,154.104,129.238,153.576,128.96z"/>
	</g>
	<g>
		<path fill="#2F2F2F" d="M120.056,217.213h-5.195v-9.803h4.977v1.039h-3.828v3.261h3.541v1.032h-3.541v3.432h4.047V217.213z"/>
		<path fill="#2F2F2F" d="M127.382,217.213h-1.121v-3.992c0-1.486-0.542-2.229-1.627-2.229c-0.561,0-1.024,0.211-1.391,0.632
			c-0.367,0.421-0.551,0.954-0.551,1.596v3.992h-1.121v-7h1.121v1.162h0.027c0.528-0.884,1.294-1.326,2.297-1.326
			c0.766,0,1.352,0.247,1.757,0.742s0.608,1.209,0.608,2.143V217.213z"/>
		<path fill="#2F2F2F" d="M135.457,216.653c0,2.57-1.23,3.855-3.691,3.855c-0.866,0-1.622-0.164-2.27-0.492v-1.121
			c0.788,0.438,1.54,0.656,2.256,0.656c1.723,0,2.584-0.916,2.584-2.748v-0.766h-0.027c-0.533,0.893-1.335,1.34-2.406,1.34
			c-0.87,0-1.571-0.311-2.102-0.933c-0.531-0.622-0.797-1.457-0.797-2.505c0-1.189,0.286-2.135,0.857-2.837
			c0.572-0.702,1.355-1.053,2.349-1.053c0.943,0,1.643,0.378,2.099,1.135h0.027v-0.971h1.121V216.653z M134.336,214.048v-1.032
			c0-0.556-0.188-1.032-0.564-1.429c-0.375-0.396-0.844-0.595-1.404-0.595c-0.692,0-1.235,0.252-1.627,0.755
			s-0.588,1.209-0.588,2.116c0,0.779,0.188,1.402,0.564,1.87c0.375,0.467,0.873,0.701,1.493,0.701c0.629,0,1.141-0.223,1.534-0.67
			C134.138,215.317,134.336,214.745,134.336,214.048z"/>
		<path fill="#2F2F2F" d="M141.214,211.348c-0.196-0.15-0.479-0.226-0.848-0.226c-0.479,0-0.879,0.226-1.199,0.677
			c-0.322,0.451-0.482,1.066-0.482,1.846v3.568h-1.121v-7h1.121v1.442h0.027c0.159-0.492,0.403-0.876,0.731-1.152
			s0.695-0.414,1.101-0.414c0.292,0,0.515,0.032,0.67,0.096V211.348z"/>
		<path fill="#2F2F2F" d="M148.056,213.993h-4.942c0.019,0.779,0.228,1.381,0.629,1.805s0.952,0.636,1.654,0.636
			c0.788,0,1.513-0.26,2.174-0.779v1.053c-0.615,0.447-1.429,0.67-2.44,0.67c-0.989,0-1.766-0.318-2.331-0.954
			s-0.848-1.53-0.848-2.683c0-1.089,0.309-1.977,0.926-2.663c0.618-0.686,1.385-1.029,2.301-1.029s1.625,0.296,2.126,0.889
			s0.752,1.415,0.752,2.468V213.993z M146.908,213.043c-0.005-0.647-0.161-1.151-0.468-1.511c-0.309-0.36-0.735-0.54-1.282-0.54
			c-0.528,0-0.978,0.189-1.347,0.567s-0.597,0.873-0.684,1.483H146.908z"/>
		<path fill="#2F2F2F" d="M149.299,216.96v-1.203c0.61,0.451,1.283,0.677,2.017,0.677c0.984,0,1.477-0.328,1.477-0.984
			c0-0.187-0.042-0.345-0.126-0.475c-0.085-0.13-0.199-0.245-0.342-0.345c-0.145-0.1-0.312-0.19-0.506-0.27
			c-0.194-0.08-0.402-0.163-0.626-0.25c-0.31-0.123-0.582-0.247-0.817-0.373c-0.234-0.125-0.43-0.267-0.588-0.424
			c-0.156-0.157-0.275-0.336-0.355-0.537c-0.079-0.201-0.119-0.435-0.119-0.704c0-0.328,0.075-0.619,0.226-0.872
			s0.351-0.465,0.602-0.636s0.536-0.3,0.858-0.386c0.32-0.086,0.652-0.13,0.994-0.13c0.606,0,1.148,0.105,1.627,0.314v1.135
			c-0.515-0.337-1.107-0.506-1.777-0.506c-0.21,0-0.398,0.024-0.567,0.072s-0.313,0.115-0.435,0.202
			c-0.12,0.086-0.214,0.19-0.279,0.311c-0.066,0.121-0.1,0.254-0.1,0.4c0,0.182,0.033,0.335,0.1,0.458
			c0.065,0.123,0.162,0.232,0.29,0.328s0.282,0.182,0.465,0.26s0.39,0.162,0.622,0.253c0.31,0.119,0.588,0.24,0.834,0.366
			s0.456,0.267,0.629,0.424s0.307,0.338,0.4,0.543c0.093,0.205,0.14,0.449,0.14,0.731c0,0.346-0.076,0.647-0.229,0.902
			c-0.152,0.255-0.356,0.467-0.611,0.636s-0.549,0.294-0.882,0.376s-0.682,0.123-1.046,0.123
			C150.452,217.377,149.827,217.238,149.299,216.96z"/>
		<path fill="#2F2F2F" d="M155.225,216.96v-1.203c0.61,0.451,1.283,0.677,2.017,0.677c0.984,0,1.477-0.328,1.477-0.984
			c0-0.187-0.042-0.345-0.126-0.475c-0.085-0.13-0.199-0.245-0.342-0.345c-0.145-0.1-0.312-0.19-0.506-0.27
			c-0.194-0.08-0.402-0.163-0.626-0.25c-0.31-0.123-0.582-0.247-0.817-0.373c-0.234-0.125-0.43-0.267-0.588-0.424
			c-0.156-0.157-0.275-0.336-0.355-0.537c-0.079-0.201-0.119-0.435-0.119-0.704c0-0.328,0.075-0.619,0.226-0.872
			s0.351-0.465,0.602-0.636s0.536-0.3,0.858-0.386c0.32-0.086,0.652-0.13,0.994-0.13c0.606,0,1.148,0.105,1.627,0.314v1.135
			c-0.515-0.337-1.107-0.506-1.777-0.506c-0.21,0-0.398,0.024-0.567,0.072s-0.313,0.115-0.435,0.202
			c-0.12,0.086-0.214,0.19-0.279,0.311c-0.066,0.121-0.1,0.254-0.1,0.4c0,0.182,0.033,0.335,0.1,0.458
			c0.065,0.123,0.162,0.232,0.29,0.328s0.282,0.182,0.465,0.26s0.39,0.162,0.622,0.253c0.31,0.119,0.588,0.24,0.834,0.366
			s0.456,0.267,0.629,0.424s0.307,0.338,0.4,0.543c0.093,0.205,0.14,0.449,0.14,0.731c0,0.346-0.076,0.647-0.229,0.902
			c-0.152,0.255-0.356,0.467-0.611,0.636s-0.549,0.294-0.882,0.376s-0.682,0.123-1.046,0.123
			C156.379,217.377,155.754,217.238,155.225,216.96z"/>
	</g>
</g>
<g id="Layer_1">
</g>
<g id="f3b54d7d-7db0-469c-afc7-ffc9b14d26c9">
</g>
<g id="eedd0b6b-34f2-4543-8afa-50340a9921da">
</g>
<g id="ec71760d-ea07-41d5-9506-94a0f2677aa9">
</g>
</svg>
