<?xml version="1.0" encoding="utf-8"?>
<!-- Generator: Adobe Illustrator 27.9.0, SVG Export Plug-In . SVG Version: 6.00 Build 0)  -->
<svg version="1.1" xmlns="http://www.w3.org/2000/svg" xmlns:xlink="http://www.w3.org/1999/xlink" x="0px" y="0px"
	 viewBox="0 0 1425.6 391.6" enable-background="new 0 0 1425.6 391.6" xml:space="preserve">
<symbol  id="PIPELINE" viewBox="-32 -12.266 64 24.531">
	<linearGradient id="SVGID_1_" gradientUnits="userSpaceOnUse" x1="0" y1="-12.2655" x2="1.502093e-15" y2="12.2655">
		<stop  offset="0" style="stop-color:#1B89B2"/>
		<stop  offset="1" style="stop-color:#51C8E8"/>
	</linearGradient>
	<path fill="url(#SVGID_1_)" d="M26.096,12.266h-51.448v0h0C-29.08,12.265-32,6.878-32,0s2.92-12.265,6.648-12.265h0v0h51.448
		C29.356-12.266,32-6.363,32,0S29.356,12.266,26.096,12.266z"/>
	<g>
		
			<linearGradient id="SVGID_00000157276959808279367420000011728493711473091207_" gradientUnits="userSpaceOnUse" x1="-31.461" y1="-6.1136" x2="-19.2338" y2="6.1136">
			<stop  offset="0" style="stop-color:#B3B4B4"/>
			<stop  offset="1" style="stop-color:#4F4F4F"/>
		</linearGradient>
		<ellipse fill="url(#SVGID_00000157276959808279367420000011728493711473091207_)" cx="-25.347" cy="0" rx="5.575" ry="10.879"/>
	</g>
</symbol>
<g id="Shapes">
	<rect fill="#FFFFFF" width="1425.6" height="391.6"/>
	<g>
		
			<linearGradient id="SVGID_00000028289688161399279920000014739889878631450778_" gradientUnits="userSpaceOnUse" x1="180.4002" y1="193.3403" x2="1408.0002" y2="193.3403">
			<stop  offset="0" style="stop-color:#E2F1F9"/>
			<stop  offset="1" style="stop-color:#A9D5ED"/>
		</linearGradient>
		<path opacity="0.5" fill="url(#SVGID_00000028289688161399279920000014739889878631450778_)" d="M1408,343.068c0,11-9,20-20,20
			H200.4c-11,0-20-9-20-20V43.613c0-11,9-20,20-20H1388c11,0,20,9,20,20V343.068z"/>
	</g>
	<g>
		
			<linearGradient id="SVGID_00000102504999139880969820000009295040288116402577_" gradientUnits="userSpaceOnUse" x1="299.2002" y1="193.3403" x2="1394.8002" y2="193.3403">
			<stop  offset="0" style="stop-color:#E2F1F9"/>
			<stop  offset="1" style="stop-color:#A9D5ED"/>
		</linearGradient>
		<path fill="url(#SVGID_00000102504999139880969820000009295040288116402577_)" d="M1394.8,325.468c0,11-9,20-20,20H319.2
			c-11,0-20-9-20-20V61.213c0-11,9-20,20-20h1055.6c11,0,20,9,20,20V325.468z"/>
	</g>
	<g>
		
			<linearGradient id="SVGID_00000073711004708542302450000008464403704926205077_" gradientUnits="userSpaceOnUse" x1="444.4002" y1="193.3403" x2="1381.6002" y2="193.3403">
			<stop  offset="0" style="stop-color:#C6E3F3"/>
			<stop  offset="1" style="stop-color:#8DC8E8"/>
		</linearGradient>
		<path fill="url(#SVGID_00000073711004708542302450000008464403704926205077_)" d="M1381.6,307.868c0,11-9,20-20,20H464.4
			c-11,0-20-9-20-20V78.813c0-11,9-20,20-20h897.2c11,0,20,9,20,20V307.868z"/>
	</g>
	<g>
		
			<linearGradient id="SVGID_00000009572867497707336610000004925951385814673559_" gradientUnits="userSpaceOnUse" x1="607.2002" y1="193.3403" x2="1368.4001" y2="193.3403">
			<stop  offset="0" style="stop-color:#A9D5ED"/>
			<stop  offset="1" style="stop-color:#69B4E3"/>
		</linearGradient>
		<path fill="url(#SVGID_00000009572867497707336610000004925951385814673559_)" d="M1368.4,290.268c0,11-9,20-20,20H627.2
			c-11,0-20-9-20-20V96.413c0-11,9-20,20-20h721.2c11,0,20,9,20,20V290.268z"/>
	</g>
	<g>
		
			<linearGradient id="SVGID_00000130618445205532147390000018253966833558680719_" gradientUnits="userSpaceOnUse" x1="699.6002" y1="193.3403" x2="1355.2002" y2="193.3403">
			<stop  offset="0" style="stop-color:#8DC8E8"/>
			<stop  offset="1" style="stop-color:#46A0DE"/>
		</linearGradient>
		<path fill="url(#SVGID_00000130618445205532147390000018253966833558680719_)" d="M1355.2,272.668c0,11-9,20-20,20H719.6
			c-11,0-20-9-20-20V114.013c0-11,9-20,20-20h615.6c11,0,20,9,20,20V272.668z"/>
	</g>
	<g>
		
			<linearGradient id="SVGID_00000118386540082447850350000009716757918830819516_" gradientUnits="userSpaceOnUse" x1="818.4002" y1="193.3403" x2="1342.0002" y2="193.3403">
			<stop  offset="0" style="stop-color:#69B4E3"/>
			<stop  offset="1" style="stop-color:#238CD9"/>
		</linearGradient>
		<path fill="url(#SVGID_00000118386540082447850350000009716757918830819516_)" d="M1342,254.413c0,11-9,20-20,20H838.4
			c-11,0-20-9-20-20V132.268c0-11,9-20,20-20H1322c11,0,20,9,20,20V254.413z"/>
	</g>
	<g>
		
			<linearGradient id="SVGID_00000169530065115240982080000008332325661067189124_" gradientUnits="userSpaceOnUse" x1="924.0002" y1="193.3403" x2="1328.8002" y2="193.3403">
			<stop  offset="0" style="stop-color:#46A0DE"/>
			<stop  offset="1" style="stop-color:#2E76BC"/>
		</linearGradient>
		<path fill="url(#SVGID_00000169530065115240982080000008332325661067189124_)" d="M1328.8,237.468c0,11-9,20-20,20H944
			c-11,0-20-9-20-20v-88.255c0-11,9-20,20-20h364.8c11,0,20,9,20,20V237.468z"/>
	</g>
	<g>
		<g opacity="0.23">
			<path d="M1316.6,220.449c0,11-9,20-20,20h-171.2c-11,0-20-9-20-20v-52.217c0-11,9-20,20-20h171.2c11,0,20,9,20,20V220.449z"/>
		</g>
		<g>
			<path fill="#FFFFFF" d="M1315.6,219.449c0,11-9,20-20,20h-171.2c-11,0-20-9-20-20v-52.217c0-11,9-20,20-20h171.2c11,0,20,9,20,20
				V219.449z"/>
		</g>
	</g>
	<g>
		<rect x="52.849" y="124.813" fill="#FFFFFF" width="17.6" height="132"/>
		<rect x="52.849" y="124.813" opacity="0.25" fill="#1B93EB" width="17.6" height="132"/>
	</g>
	<g>
		
			<linearGradient id="SVGID_00000178926591522258536890000018193844692831357323_" gradientUnits="userSpaceOnUse" x1="1159.5956" y1="1501.4817" x2="1143.2883" y2="1453.3062" gradientTransform="matrix(1 0 0 -1 0 1674)">
			<stop  offset="0" style="stop-color:#114A8B"/>
			<stop  offset="1" style="stop-color:#0669BC"/>
		</linearGradient>
		<path fill="url(#SVGID_00000178926591522258536890000018193844692831357323_)" d="M1151.501,170.513
			c0.343-1.016,1.296-1.701,2.369-1.701h15.705l-16.301,48.299c-0.343,1.016-1.296,1.701-2.369,1.701h-12.223
			c-1.71,0-2.916-1.679-2.369-3.3L1151.501,170.513z"/>
		<path fill="#0078D4" d="M1176.608,201.313h-24.751c-1.04,0-1.542,1.274-0.782,1.983l15.904,14.844
			c0.463,0.432,1.073,0.672,1.706,0.672h14.015L1176.608,201.313z"/>
		
			<linearGradient id="SVGID_00000011712226559786968210000013709510611789586304_" gradientUnits="userSpaceOnUse" x1="1164.5714" y1="1479.2264" x2="1160.7048" y2="1477.9076" gradientTransform="matrix(1 0 0 -1 0 1674)">
			<stop  offset="0" style="stop-color:#000000;stop-opacity:0.3"/>
			<stop  offset="0.0712" style="stop-color:#000000;stop-opacity:0.2"/>
			<stop  offset="0.321" style="stop-color:#000000;stop-opacity:0.1"/>
			<stop  offset="0.6231" style="stop-color:#000000;stop-opacity:0.05"/>
			<stop  offset="1" style="stop-color:#000000;stop-opacity:0"/>
		</linearGradient>
		<path fill="url(#SVGID_00000011712226559786968210000013709510611789586304_)" d="M1169.575,168.813h-17.5l-16.875,50h17.5
			l3.593-10.646l11.407,10.646h15l-6.092-17.5h-18.002L1169.575,168.813z"/>
		
			<linearGradient id="SVGID_00000006668147000722507650000014242290473314364861_" gradientUnits="userSpaceOnUse" x1="1162.5858" y1="1502.8875" x2="1180.4861" y2="1455.1969" gradientTransform="matrix(1 0 0 -1 0 1674)">
			<stop  offset="0" style="stop-color:#3CCBF4"/>
			<stop  offset="1" style="stop-color:#2892DF"/>
		</linearGradient>
		<path fill="url(#SVGID_00000006668147000722507650000014242290473314364861_)" d="M1173.899,170.513
			c-0.343-1.016-1.296-1.701-2.369-1.701h-17.58h0.08c1.073,0,2.026,0.684,2.369,1.701l15.188,45c0.547,1.621-0.658,3.3-2.369,3.3
			h-0.268h17.768c1.71,0,2.916-1.679,2.369-3.3L1173.899,170.513z"/>
	</g>
	<g id="Wrench_tool_x28_s_x29_">
	</g>
	<g id="user2">
	</g>
	<g id="user2_1_">
	</g>
	<g id="user2_4_">
	</g>
	<g id="user2_3_">
	</g>
	<g id="user2_2_">
	</g>
	<g id="Internet_2">
	</g>
	<g id="Enterprise">
	</g>
	<g id="Tunnel__x28_stackable_x29_">
	</g>
	<g id="New_Symbol">
	</g>
	<g id="New_Symbol_1">
	</g>
	<g id="Files">
	</g>
	<g id="BlobBlock">
	</g>
	<g id="E_x5F_Enterprise">
	</g>
	<g id="E_x5F_AD_FS">
	</g>
	<g id="C_x5F_Azure_Active_Directory">
	</g>
	
		<linearGradient id="SVGID_00000159448836669214733360000006201545851881901974_" gradientUnits="userSpaceOnUse" x1="-502.3514" y1="1774.3871" x2="-502.3514" y2="1824.3871" gradientTransform="matrix(1 0 0 -1 564 1908)">
		<stop  offset="0" style="stop-color:#0078D4"/>
		<stop  offset="0.82" style="stop-color:#5EA0EF"/>
	</linearGradient>
	<path fill="url(#SVGID_00000159448836669214733360000006201545851881901974_)" d="M96.897,117.931
		c-0.254-7.751-6.062-14.189-13.747-15.235c-0.487-10.91-9.646-19.405-20.562-19.073c-8.702-0.161-16.555,5.195-19.582,13.355
		c-9.267,1.119-16.325,8.843-16.606,18.172c0.404,10.571,9.285,18.821,19.857,18.447h1.723h32.154c0.287,0.022,0.575,0.022,0.862,0
		C89.653,133.515,96.686,126.585,96.897,117.931z"/>
	<g>
		<rect x="211.2" y="94.013" fill="#FFFFFF" width="140.8" height="61.6"/>
		<rect x="211.2" y="94.013" opacity="0.16" fill="#999999" width="140.8" height="61.6"/>
	</g>
	<g>
		<path opacity="0.5" fill="#FFFFFF" d="M1091.2,216.013c0,5.5-4.5,10-10,10H203.6c-5.5,0-10-4.5-10-10v-41.6c0-5.5,4.5-10,10-10
			h877.6c5.5,0,10,4.5,10,10V216.013z"/>
		<path opacity="0.16" fill="#FEE452" d="M1091.2,216.013c0,5.5-4.5,10-10,10H203.6c-5.5,0-10-4.5-10-10v-41.6c0-5.5,4.5-10,10-10
			h877.6c5.5,0,10,4.5,10,10V216.013z"/>
	</g>
	<g>
		<rect x="105.6" y="133.613" fill="#FFFFFF" width="61.6" height="35.2"/>
		<rect x="105.6" y="133.613" opacity="0.16" fill="#999999" width="61.6" height="35.2"/>
	</g>
	<g>
		<rect x="105.6" y="221.613" fill="#FFFFFF" width="61.6" height="35.2"/>
		<rect x="105.6" y="221.613" opacity="0.16" fill="#999999" width="61.6" height="35.2"/>
	</g>
	<g>
		<g>
			
				<line fill="none" stroke="#3C3C41" stroke-width="2" stroke-miterlimit="10" x1="167.2" y1="151.213" x2="1084.836" y2="151.213"/>
			<g>
				<polygon fill="#3C3C41" points="1082.647,158.692 1095.6,151.213 1082.647,143.733 				"/>
			</g>
		</g>
	</g>
	<line fill="none" stroke="#3C3C41" stroke-width="2" stroke-miterlimit="10" x1="105.6" y1="151.213" x2="70.4" y2="151.213"/>
	<g>
		<line fill="none" stroke="#3C3C41" stroke-width="2" stroke-miterlimit="10" x1="167.2" y1="239.213" x2="1095.6" y2="239.213"/>
	</g>
	<g>
		<g>
			<line fill="none" stroke="#3C3C41" stroke-width="2" stroke-miterlimit="10" x1="105.6" y1="239.213" x2="81.165" y2="239.213"/>
			<g>
				<polygon fill="#3C3C41" points="83.353,231.733 70.4,239.213 83.353,246.692 				"/>
			</g>
		</g>
	</g>
</g>
<g id="Text">
	<g>
		<path fill="#2F2F2F" d="M31.971,72.013h-2.839V59.41h2.839V72.013z"/>
		<path fill="#2F2F2F" d="M43.134,72.013h-2.769v-5.001c0-1.395-0.498-2.092-1.494-2.092c-0.48,0-0.876,0.185-1.187,0.554
			s-0.466,0.838-0.466,1.406v5.133h-2.777v-9h2.777v1.424h0.035c0.662-1.096,1.626-1.644,2.892-1.644
			c1.992,0,2.988,1.236,2.988,3.709V72.013z"/>
		<path fill="#2F2F2F" d="M50.633,71.908c-0.41,0.217-1.028,0.325-1.854,0.325c-1.957,0-2.936-1.017-2.936-3.05v-4.122h-1.459
			v-2.048h1.459v-1.942l2.769-0.791v2.733h2.021v2.048h-2.021V68.7c0,0.938,0.372,1.406,1.116,1.406
			c0.293,0,0.595-0.085,0.905-0.255V71.908z"/>
		<path fill="#2F2F2F" d="M60.234,68.304h-5.871c0.094,1.307,0.917,1.96,2.47,1.96c0.99,0,1.86-0.234,2.61-0.703v2.004
			c-0.832,0.445-1.913,0.668-3.243,0.668c-1.453,0-2.581-0.403-3.384-1.208s-1.204-1.929-1.204-3.371
			c0-1.494,0.434-2.678,1.301-3.551s1.934-1.31,3.199-1.31c1.312,0,2.327,0.39,3.045,1.169s1.077,1.837,1.077,3.173V68.304z
			 M57.659,66.599c0-1.289-0.521-1.934-1.564-1.934c-0.445,0-0.83,0.185-1.156,0.554c-0.324,0.369-0.522,0.829-0.593,1.38H57.659z"
			/>
		<path fill="#2F2F2F" d="M67.839,65.518c-0.334-0.182-0.724-0.272-1.169-0.272c-0.604,0-1.075,0.221-1.415,0.664
			s-0.51,1.044-0.51,1.806v4.298h-2.777v-9h2.777v1.67h0.035c0.439-1.219,1.23-1.828,2.373-1.828c0.293,0,0.521,0.035,0.686,0.105
			V65.518z"/>
		<path fill="#2F2F2F" d="M77.783,72.013h-2.769v-5.001c0-1.395-0.498-2.092-1.494-2.092c-0.48,0-0.876,0.185-1.187,0.554
			s-0.466,0.838-0.466,1.406v5.133h-2.777v-9h2.777v1.424h0.035c0.662-1.096,1.626-1.644,2.892-1.644
			c1.992,0,2.988,1.236,2.988,3.709V72.013z"/>
		<path fill="#2F2F2F" d="M88.076,68.304h-5.871c0.094,1.307,0.917,1.96,2.47,1.96c0.99,0,1.86-0.234,2.61-0.703v2.004
			c-0.832,0.445-1.913,0.668-3.243,0.668c-1.453,0-2.581-0.403-3.384-1.208s-1.204-1.929-1.204-3.371
			c0-1.494,0.434-2.678,1.301-3.551s1.934-1.31,3.199-1.31c1.312,0,2.327,0.39,3.045,1.169s1.077,1.837,1.077,3.173V68.304z
			 M85.501,66.599c0-1.289-0.521-1.934-1.564-1.934c-0.445,0-0.83,0.185-1.156,0.554c-0.324,0.369-0.522,0.829-0.593,1.38H85.501z"
			/>
		<path fill="#2F2F2F" d="M95.21,71.908c-0.41,0.217-1.028,0.325-1.854,0.325c-1.957,0-2.936-1.017-2.936-3.05v-4.122h-1.459v-2.048
			h1.459v-1.942l2.769-0.791v2.733h2.021v2.048h-2.021V68.7c0,0.938,0.372,1.406,1.116,1.406c0.293,0,0.595-0.085,0.905-0.255
			V71.908z"/>
	</g>
	<g>
		<path fill="#2F2F2F" d="M1213.724,190.813h-3.094l-0.896-2.804h-4.482l-0.888,2.804h-3.076l4.588-12.604h3.366L1213.724,190.813z
			 M1209.084,185.83l-1.354-4.236c-0.1-0.316-0.17-0.694-0.211-1.134h-0.07c-0.029,0.369-0.103,0.735-0.22,1.099l-1.371,4.271
			H1209.084z"/>
		<path fill="#2F2F2F" d="M1222.585,190.813h-8.077v-1.151l4.518-5.801h-4.069v-2.048h7.594v1.371l-4.28,5.581h4.315V190.813z"/>
		<path fill="#2F2F2F" d="M1232.698,190.813h-2.769v-1.371h-0.044c-0.686,1.061-1.603,1.591-2.751,1.591
			c-2.086,0-3.129-1.263-3.129-3.788v-5.432h2.769v5.186c0,1.271,0.504,1.907,1.512,1.907c0.498,0,0.896-0.174,1.195-0.523
			s0.448-0.822,0.448-1.419v-5.15h2.769V190.813z"/>
		<path fill="#2F2F2F" d="M1240.82,184.318c-0.334-0.182-0.724-0.272-1.169-0.272c-0.604,0-1.075,0.221-1.415,0.664
			s-0.51,1.044-0.51,1.806v4.298h-2.777v-9h2.777v1.67h0.035c0.439-1.219,1.23-1.828,2.373-1.828c0.293,0,0.521,0.035,0.686,0.105
			V184.318z"/>
		<path fill="#2F2F2F" d="M1250.277,187.104h-5.871c0.094,1.307,0.917,1.96,2.47,1.96c0.99,0,1.86-0.234,2.61-0.703v2.004
			c-0.832,0.445-1.913,0.668-3.243,0.668c-1.453,0-2.581-0.403-3.384-1.208s-1.204-1.929-1.204-3.371
			c0-1.494,0.434-2.678,1.301-3.551s1.934-1.31,3.199-1.31c1.312,0,2.327,0.39,3.045,1.169s1.077,1.837,1.077,3.173V187.104z
			 M1247.702,185.399c0-1.289-0.521-1.934-1.564-1.934c-0.445,0-0.83,0.185-1.156,0.554c-0.324,0.369-0.522,0.829-0.593,1.38
			H1247.702z"/>
	</g>
	<g>
		<path fill="#2F2F2F" d="M1208.653,208.413h-1.121v-1.189h-0.027c-0.52,0.902-1.321,1.354-2.406,1.354
			c-0.88,0-1.582-0.313-2.109-0.94c-0.525-0.626-0.789-1.48-0.789-2.56c0-1.158,0.292-2.085,0.875-2.782s1.36-1.046,2.331-1.046
			c0.962,0,1.661,0.378,2.099,1.135h0.027v-4.334h1.121V208.413z M1207.532,205.248v-1.032c0-0.565-0.187-1.043-0.561-1.436
			s-0.848-0.588-1.422-0.588c-0.684,0-1.222,0.25-1.613,0.752s-0.588,1.194-0.588,2.078c0,0.807,0.188,1.443,0.564,1.911
			c0.375,0.467,0.88,0.701,1.514,0.701c0.624,0,1.131-0.226,1.521-0.677C1207.337,206.506,1207.532,205.936,1207.532,205.248z"/>
		<path fill="#2F2F2F" d="M1216.474,205.193h-4.942c0.019,0.779,0.228,1.381,0.629,1.805s0.952,0.636,1.654,0.636
			c0.788,0,1.513-0.26,2.174-0.779v1.053c-0.615,0.447-1.429,0.67-2.44,0.67c-0.989,0-1.766-0.318-2.331-0.954
			s-0.848-1.53-0.848-2.683c0-1.089,0.309-1.977,0.926-2.663c0.618-0.686,1.385-1.029,2.301-1.029s1.625,0.296,2.126,0.889
			s0.752,1.415,0.752,2.468V205.193z M1215.326,204.243c-0.005-0.647-0.161-1.151-0.468-1.511c-0.309-0.36-0.735-0.54-1.282-0.54
			c-0.528,0-0.978,0.189-1.347,0.567s-0.597,0.873-0.684,1.483H1215.326z"/>
		<path fill="#2F2F2F" d="M1219.305,207.401h-0.027v4.231h-1.121v-10.22h1.121v1.23h0.027c0.552-0.93,1.358-1.395,2.42-1.395
			c0.902,0,1.606,0.313,2.112,0.94s0.759,1.466,0.759,2.519c0,1.171-0.285,2.109-0.854,2.813s-1.349,1.056-2.338,1.056
			C1220.497,208.577,1219.798,208.185,1219.305,207.401z M1219.278,204.578v0.978c0,0.579,0.188,1.07,0.564,1.473
			c0.375,0.403,0.853,0.605,1.432,0.605c0.679,0,1.211-0.26,1.596-0.779c0.386-0.52,0.578-1.242,0.578-2.167
			c0-0.779-0.18-1.39-0.54-1.832s-0.848-0.663-1.463-0.663c-0.651,0-1.176,0.227-1.572,0.68S1219.278,203.895,1219.278,204.578z"/>
		<path fill="#2F2F2F" d="M1227.447,208.413h-1.121V198.05h1.121V208.413z"/>
		<path fill="#2F2F2F" d="M1232.565,208.577c-1.034,0-1.86-0.327-2.479-0.981c-0.617-0.654-0.926-1.521-0.926-2.601
			c0-1.176,0.321-2.094,0.964-2.755s1.511-0.991,2.604-0.991c1.044,0,1.858,0.321,2.443,0.964c0.586,0.643,0.879,1.534,0.879,2.673
			c0,1.117-0.315,2.011-0.947,2.683C1234.473,208.241,1233.627,208.577,1232.565,208.577z M1232.647,202.192
			c-0.72,0-1.29,0.245-1.709,0.735s-0.629,1.166-0.629,2.027c0,0.83,0.212,1.483,0.636,1.962s0.991,0.718,1.702,0.718
			c0.725,0,1.281-0.235,1.672-0.704c0.389-0.469,0.584-1.137,0.584-2.003c0-0.875-0.195-1.549-0.584-2.023
			C1233.928,202.429,1233.372,202.192,1232.647,202.192z"/>
		<path fill="#2F2F2F" d="M1243.249,201.413l-3.22,8.121c-0.574,1.449-1.381,2.174-2.42,2.174c-0.292,0-0.535-0.03-0.731-0.089
			v-1.005c0.241,0.082,0.463,0.123,0.663,0.123c0.565,0,0.989-0.337,1.271-1.012l0.561-1.326l-2.734-6.986h1.244l1.894,5.387
			c0.022,0.068,0.07,0.246,0.144,0.533h0.041c0.022-0.109,0.068-0.283,0.137-0.52l1.989-5.4H1243.249z"/>
		<path fill="#2F2F2F" d="M1254.43,208.413h-1.121v-4.02c0-0.775-0.119-1.335-0.359-1.682c-0.238-0.346-0.641-0.52-1.206-0.52
			c-0.479,0-0.886,0.219-1.22,0.656c-0.336,0.438-0.503,0.961-0.503,1.572v3.992h-1.121v-4.156c0-1.376-0.531-2.064-1.593-2.064
			c-0.492,0-0.897,0.206-1.217,0.619s-0.479,0.949-0.479,1.61v3.992h-1.121v-7h1.121v1.107h0.027
			c0.497-0.848,1.222-1.271,2.174-1.271c0.479,0,0.896,0.133,1.251,0.4s0.6,0.616,0.731,1.049c0.52-0.966,1.294-1.449,2.324-1.449
			c1.54,0,2.311,0.95,2.311,2.851V208.413z"/>
		<path fill="#2F2F2F" d="M1262.137,205.193h-4.942c0.019,0.779,0.228,1.381,0.629,1.805s0.952,0.636,1.654,0.636
			c0.788,0,1.513-0.26,2.174-0.779v1.053c-0.615,0.447-1.429,0.67-2.44,0.67c-0.989,0-1.766-0.318-2.331-0.954
			s-0.848-1.53-0.848-2.683c0-1.089,0.309-1.977,0.926-2.663c0.618-0.686,1.385-1.029,2.301-1.029s1.625,0.296,2.126,0.889
			s0.752,1.415,0.752,2.468V205.193z M1260.989,204.243c-0.005-0.647-0.161-1.151-0.468-1.511c-0.309-0.36-0.735-0.54-1.282-0.54
			c-0.528,0-0.978,0.189-1.347,0.567s-0.597,0.873-0.684,1.483H1260.989z"/>
		<path fill="#2F2F2F" d="M1269.632,208.413h-1.121v-3.992c0-1.486-0.542-2.229-1.627-2.229c-0.561,0-1.024,0.211-1.391,0.632
			c-0.367,0.421-0.551,0.954-0.551,1.596v3.992h-1.121v-7h1.121v1.162h0.027c0.528-0.884,1.294-1.326,2.297-1.326
			c0.766,0,1.352,0.247,1.757,0.742s0.608,1.209,0.608,2.143V208.413z"/>
		<path fill="#2F2F2F" d="M1274.86,208.345c-0.265,0.146-0.613,0.219-1.046,0.219c-1.226,0-1.839-0.684-1.839-2.051v-4.143h-1.203
			v-0.957h1.203v-1.709l1.121-0.362v2.071h1.764v0.957h-1.764v3.944c0,0.469,0.08,0.804,0.239,1.005s0.424,0.301,0.793,0.301
			c0.282,0,0.526-0.078,0.731-0.232V208.345z"/>
		<path fill="#2F2F2F" d="M1276.036,208.16v-1.203c0.61,0.451,1.283,0.677,2.017,0.677c0.984,0,1.477-0.328,1.477-0.984
			c0-0.187-0.042-0.345-0.126-0.475c-0.085-0.13-0.199-0.245-0.342-0.345c-0.145-0.1-0.312-0.19-0.506-0.27
			c-0.194-0.08-0.402-0.163-0.626-0.25c-0.31-0.123-0.582-0.247-0.817-0.373c-0.234-0.125-0.43-0.267-0.588-0.424
			c-0.156-0.157-0.275-0.336-0.355-0.537c-0.079-0.201-0.119-0.435-0.119-0.704c0-0.328,0.075-0.619,0.226-0.872
			s0.351-0.465,0.602-0.636s0.536-0.3,0.858-0.386c0.32-0.086,0.652-0.13,0.994-0.13c0.606,0,1.148,0.105,1.627,0.314v1.135
			c-0.515-0.337-1.107-0.506-1.777-0.506c-0.21,0-0.398,0.024-0.567,0.072s-0.313,0.115-0.435,0.202
			c-0.12,0.086-0.214,0.19-0.279,0.311c-0.066,0.121-0.1,0.254-0.1,0.4c0,0.182,0.033,0.335,0.1,0.458
			c0.065,0.123,0.162,0.232,0.29,0.328s0.282,0.182,0.465,0.26s0.39,0.162,0.622,0.253c0.31,0.119,0.588,0.24,0.834,0.366
			s0.456,0.267,0.629,0.424s0.307,0.338,0.4,0.543c0.093,0.205,0.14,0.449,0.14,0.731c0,0.346-0.076,0.647-0.229,0.902
			c-0.152,0.255-0.356,0.467-0.611,0.636s-0.549,0.294-0.882,0.376s-0.682,0.123-1.046,0.123
			C1277.189,208.577,1276.564,208.438,1276.036,208.16z"/>
	</g>
	<g>
		<path fill="#2F2F2F" d="M473.865,181.01l-3.377,9.803h-2.502l-3.336-9.803h2.379l2.044,6.822c0.109,0.369,0.176,0.695,0.198,0.978
			h0.041c0.032-0.305,0.103-0.64,0.212-1.005l2.03-6.795H473.865z"/>
		<path fill="#2F2F2F" d="M475.994,182.706c-0.364,0-0.663-0.108-0.896-0.325s-0.349-0.482-0.349-0.796
			c0-0.324,0.116-0.588,0.349-0.793s0.531-0.308,0.896-0.308c0.369,0,0.669,0.103,0.899,0.308c0.229,0.205,0.345,0.469,0.345,0.793
			c0,0.328-0.115,0.597-0.345,0.807C476.663,182.601,476.363,182.706,475.994,182.706z M477.06,190.813h-2.16v-7h2.16V190.813z"/>
		<path fill="#2F2F2F" d="M483.409,185.761c-0.26-0.141-0.562-0.212-0.909-0.212c-0.47,0-0.836,0.172-1.101,0.516
			s-0.396,0.812-0.396,1.405v3.343h-2.16v-7h2.16v1.299h0.027c0.342-0.948,0.957-1.422,1.846-1.422c0.228,0,0.405,0.027,0.533,0.082
			V185.761z"/>
		<path fill="#2F2F2F" d="M488.94,190.731c-0.319,0.168-0.8,0.253-1.442,0.253c-1.522,0-2.283-0.791-2.283-2.372v-3.206h-1.135
			v-1.593h1.135v-1.511l2.153-0.615v2.126h1.572v1.593h-1.572v2.83c0,0.729,0.289,1.094,0.868,1.094
			c0.228,0,0.463-0.066,0.704-0.198V190.731z"/>
		<path fill="#2F2F2F" d="M496.905,190.813h-2.153v-1.066h-0.034c-0.533,0.825-1.246,1.237-2.14,1.237
			c-1.622,0-2.434-0.982-2.434-2.946v-4.225h2.153v4.033c0,0.989,0.392,1.483,1.176,1.483c0.388,0,0.697-0.136,0.93-0.407
			s0.349-0.639,0.349-1.104v-4.006h2.153V190.813z"/>
		<path fill="#2F2F2F" d="M504.555,190.813h-2.044v-1.005h-0.027c-0.47,0.784-1.164,1.176-2.085,1.176
			c-0.679,0-1.214-0.192-1.603-0.578c-0.391-0.385-0.585-0.899-0.585-1.542c0-1.358,0.805-2.142,2.413-2.352l1.9-0.253
			c0-0.766-0.415-1.148-1.244-1.148c-0.834,0-1.627,0.249-2.379,0.745v-1.627c0.301-0.155,0.712-0.292,1.234-0.41
			c0.521-0.119,0.996-0.178,1.425-0.178c1.996,0,2.994,0.996,2.994,2.987V190.813z M502.524,187.969v-0.472l-1.271,0.164
			c-0.702,0.091-1.053,0.408-1.053,0.95c0,0.246,0.086,0.448,0.256,0.605c0.172,0.157,0.402,0.236,0.694,0.236
			c0.405,0,0.736-0.14,0.991-0.42S502.524,188.397,502.524,187.969z"/>
		<path fill="#2F2F2F" d="M508.413,190.813h-2.16V180.45h2.16V190.813z"/>
		<path fill="#2F2F2F" d="M519.918,190.813h-2.044v-1.005h-0.027c-0.47,0.784-1.164,1.176-2.085,1.176
			c-0.679,0-1.214-0.192-1.603-0.578c-0.391-0.385-0.585-0.899-0.585-1.542c0-1.358,0.805-2.142,2.413-2.352l1.9-0.253
			c0-0.766-0.415-1.148-1.244-1.148c-0.834,0-1.627,0.249-2.379,0.745v-1.627c0.301-0.155,0.712-0.292,1.234-0.41
			c0.521-0.119,0.996-0.178,1.425-0.178c1.996,0,2.994,0.996,2.994,2.987V190.813z M517.888,187.969v-0.472l-1.271,0.164
			c-0.702,0.091-1.053,0.408-1.053,0.95c0,0.246,0.086,0.448,0.256,0.605c0.172,0.157,0.402,0.236,0.694,0.236
			c0.405,0,0.736-0.14,0.991-0.42S517.888,188.397,517.888,187.969z"/>
		<path fill="#2F2F2F" d="M523.802,190h-0.027v4.033h-2.16v-10.22h2.16v1.053h0.027c0.533-0.816,1.283-1.224,2.249-1.224
			c0.907,0,1.607,0.311,2.102,0.933c0.495,0.622,0.742,1.469,0.742,2.54c0,1.167-0.288,2.103-0.865,2.81
			c-0.576,0.707-1.343,1.06-2.3,1.06C524.887,190.984,524.244,190.656,523.802,190z M523.74,187.128v0.561
			c0,0.483,0.128,0.877,0.383,1.183s0.59,0.458,1.005,0.458c0.492,0,0.874-0.19,1.146-0.571c0.271-0.38,0.406-0.919,0.406-1.617
			c0-1.23-0.479-1.846-1.436-1.846c-0.442,0-0.803,0.167-1.084,0.502C523.881,186.134,523.74,186.577,523.74,187.128z"/>
		<path fill="#2F2F2F" d="M532.499,190h-0.027v4.033h-2.16v-10.22h2.16v1.053h0.027c0.533-0.816,1.283-1.224,2.249-1.224
			c0.907,0,1.607,0.311,2.102,0.933c0.495,0.622,0.742,1.469,0.742,2.54c0,1.167-0.288,2.103-0.865,2.81
			c-0.576,0.707-1.343,1.06-2.3,1.06C533.584,190.984,532.941,190.656,532.499,190z M532.437,187.128v0.561
			c0,0.483,0.128,0.877,0.383,1.183s0.59,0.458,1.005,0.458c0.492,0,0.874-0.19,1.146-0.571c0.271-0.38,0.406-0.919,0.406-1.617
			c0-1.23-0.479-1.846-1.436-1.846c-0.442,0-0.803,0.167-1.084,0.502C532.578,186.134,532.437,186.577,532.437,187.128z"/>
		<path fill="#2F2F2F" d="M541.18,190.813h-2.16V180.45h2.16V190.813z"/>
		<path fill="#2F2F2F" d="M544.05,182.706c-0.364,0-0.663-0.108-0.896-0.325s-0.349-0.482-0.349-0.796
			c0-0.324,0.116-0.588,0.349-0.793s0.531-0.308,0.896-0.308c0.369,0,0.669,0.103,0.899,0.308c0.229,0.205,0.345,0.469,0.345,0.793
			c0,0.328-0.115,0.597-0.345,0.807C544.719,182.601,544.419,182.706,544.05,182.706z M545.116,190.813h-2.16v-7h2.16V190.813z"/>
		<path fill="#2F2F2F" d="M552.742,190.813h-2.044v-1.005h-0.027c-0.47,0.784-1.164,1.176-2.085,1.176
			c-0.679,0-1.214-0.192-1.603-0.578c-0.391-0.385-0.585-0.899-0.585-1.542c0-1.358,0.805-2.142,2.413-2.352l1.9-0.253
			c0-0.766-0.415-1.148-1.244-1.148c-0.834,0-1.627,0.249-2.379,0.745v-1.627c0.301-0.155,0.712-0.292,1.234-0.41
			c0.521-0.119,0.996-0.178,1.425-0.178c1.996,0,2.994,0.996,2.994,2.987V190.813z M550.712,187.969v-0.472l-1.271,0.164
			c-0.702,0.091-1.053,0.408-1.053,0.95c0,0.246,0.086,0.448,0.256,0.605c0.172,0.157,0.402,0.236,0.694,0.236
			c0.405,0,0.736-0.14,0.991-0.42S550.712,188.397,550.712,187.969z"/>
		<path fill="#2F2F2F" d="M561.195,190.813h-2.153v-3.89c0-1.084-0.388-1.627-1.162-1.627c-0.374,0-0.682,0.144-0.923,0.431
			s-0.362,0.652-0.362,1.094v3.992h-2.16v-7h2.16v1.107h0.027c0.515-0.852,1.265-1.278,2.249-1.278c1.55,0,2.324,0.961,2.324,2.885
			V190.813z"/>
		<path fill="#2F2F2F" d="M568.209,190.56c-0.487,0.283-1.191,0.424-2.112,0.424c-1.075,0-1.946-0.326-2.611-0.978
			s-0.998-1.493-0.998-2.522c0-1.189,0.356-2.127,1.07-2.813c0.713-0.686,1.666-1.029,2.86-1.029c0.825,0,1.422,0.109,1.791,0.328
			v1.832c-0.451-0.337-0.955-0.506-1.511-0.506c-0.62,0-1.111,0.181-1.473,0.543c-0.363,0.362-0.544,0.862-0.544,1.5
			c0,0.62,0.173,1.106,0.52,1.459s0.822,0.53,1.429,0.53c0.538,0,1.064-0.168,1.579-0.506V190.56z"/>
		<path fill="#2F2F2F" d="M575.924,187.928h-4.566c0.073,1.016,0.713,1.524,1.921,1.524c0.771,0,1.447-0.182,2.03-0.547v1.559
			c-0.647,0.346-1.488,0.52-2.522,0.52c-1.13,0-2.008-0.313-2.632-0.94s-0.937-1.5-0.937-2.622c0-1.162,0.337-2.083,1.012-2.762
			s1.504-1.019,2.488-1.019c1.021,0,1.811,0.303,2.369,0.909c0.558,0.606,0.837,1.429,0.837,2.468V187.928z M573.921,186.602
			c0-1.002-0.405-1.504-1.217-1.504c-0.347,0-0.646,0.144-0.898,0.431c-0.254,0.287-0.407,0.645-0.462,1.073H573.921z"/>
		<path fill="#2F2F2F" d="M576.912,190.628v-1.75c0.355,0.214,0.71,0.374,1.062,0.479c0.354,0.105,0.688,0.157,1.002,0.157
			c0.383,0,0.685-0.052,0.906-0.157c0.221-0.105,0.331-0.264,0.331-0.479c0-0.137-0.05-0.25-0.15-0.342s-0.229-0.171-0.386-0.239
			c-0.158-0.068-0.33-0.13-0.517-0.185s-0.367-0.116-0.54-0.185c-0.278-0.105-0.523-0.218-0.734-0.338
			c-0.213-0.121-0.391-0.261-0.533-0.42c-0.145-0.16-0.254-0.344-0.328-0.554c-0.076-0.209-0.113-0.458-0.113-0.745
			c0-0.392,0.086-0.729,0.256-1.012c0.172-0.283,0.399-0.514,0.684-0.694c0.285-0.18,0.611-0.312,0.979-0.396
			c0.366-0.084,0.748-0.126,1.145-0.126c0.31,0,0.624,0.024,0.943,0.072s0.634,0.117,0.943,0.208v1.668
			c-0.273-0.16-0.566-0.279-0.879-0.359c-0.312-0.08-0.618-0.12-0.919-0.12c-0.142,0-0.274,0.013-0.399,0.038
			c-0.126,0.025-0.236,0.062-0.332,0.109s-0.171,0.109-0.226,0.185s-0.082,0.161-0.082,0.256c0,0.127,0.041,0.237,0.123,0.328
			s0.189,0.17,0.321,0.236s0.279,0.125,0.441,0.178c0.161,0.052,0.322,0.106,0.481,0.161c0.287,0.1,0.547,0.209,0.779,0.328
			s0.432,0.257,0.599,0.417c0.166,0.16,0.293,0.346,0.383,0.561c0.088,0.214,0.133,0.469,0.133,0.766c0,0.415-0.09,0.769-0.27,1.063
			c-0.181,0.294-0.42,0.533-0.719,0.718c-0.298,0.185-0.643,0.319-1.031,0.403c-0.391,0.084-0.795,0.126-1.214,0.126
			C578.281,190.984,577.568,190.865,576.912,190.628z"/>
		<path fill="#2F2F2F" d="M478.339,197.81l-4.778,11.43h-1.928l4.758-11.43H478.339z"/>
		<path fill="#2F2F2F" d="M491.778,207.613h-2.406l-0.697-2.181h-3.486l-0.69,2.181h-2.393l3.568-9.803h2.618L491.778,207.613z
			 M488.169,203.737l-1.053-3.295c-0.077-0.246-0.132-0.54-0.164-0.882h-0.055c-0.022,0.287-0.08,0.572-0.171,0.854l-1.066,3.322
			H488.169z"/>
		<path fill="#2F2F2F" d="M498.683,207.613h-6.282v-0.896l3.514-4.512h-3.165v-1.593h5.906v1.066l-3.329,4.341h3.356V207.613z"/>
		<path fill="#2F2F2F" d="M506.566,207.613h-2.153v-1.066h-0.034c-0.533,0.825-1.246,1.237-2.14,1.237
			c-1.622,0-2.434-0.982-2.434-2.946v-4.225h2.153v4.033c0,0.989,0.392,1.483,1.176,1.483c0.388,0,0.697-0.136,0.93-0.407
			s0.349-0.639,0.349-1.104v-4.006h2.153V207.613z"/>
		<path fill="#2F2F2F" d="M512.9,202.561c-0.26-0.141-0.562-0.212-0.909-0.212c-0.47,0-0.836,0.172-1.101,0.516
			s-0.396,0.812-0.396,1.405v3.343h-2.16v-7h2.16v1.299h0.027c0.342-0.948,0.957-1.422,1.846-1.422c0.228,0,0.405,0.027,0.533,0.082
			V202.561z"/>
		<path fill="#2F2F2F" d="M520.272,204.728h-4.566c0.073,1.016,0.713,1.524,1.921,1.524c0.771,0,1.447-0.182,2.03-0.547v1.559
			c-0.647,0.346-1.488,0.52-2.522,0.52c-1.13,0-2.008-0.313-2.632-0.94s-0.937-1.5-0.937-2.622c0-1.162,0.337-2.083,1.012-2.762
			s1.504-1.019,2.488-1.019c1.021,0,1.811,0.303,2.369,0.909c0.558,0.606,0.837,1.429,0.837,2.468V204.728z M518.269,203.402
			c0-1.002-0.405-1.504-1.217-1.504c-0.347,0-0.646,0.144-0.898,0.431c-0.254,0.287-0.407,0.645-0.462,1.073H518.269z"/>
		<path fill="#2F2F2F" d="M531.299,199.608h-3.459v2.406h3.179v1.791h-3.179v3.808h-2.208v-9.803h5.667V199.608z"/>
		<path fill="#2F2F2F" d="M533.654,199.505c-0.364,0-0.663-0.108-0.896-0.325s-0.349-0.482-0.349-0.796
			c0-0.324,0.116-0.588,0.349-0.793s0.531-0.308,0.896-0.308c0.369,0,0.669,0.103,0.899,0.308c0.229,0.205,0.345,0.469,0.345,0.793
			c0,0.328-0.115,0.597-0.345,0.807C534.323,199.4,534.023,199.505,533.654,199.505z M534.721,207.613h-2.16v-7h2.16V207.613z"/>
		<path fill="#2F2F2F" d="M541.069,202.561c-0.26-0.141-0.562-0.212-0.909-0.212c-0.47,0-0.836,0.172-1.101,0.516
			s-0.396,0.812-0.396,1.405v3.343h-2.16v-7h2.16v1.299h0.027c0.342-0.948,0.957-1.422,1.846-1.422c0.228,0,0.405,0.027,0.533,0.082
			V202.561z"/>
		<path fill="#2F2F2F" d="M548.441,204.728h-4.566c0.073,1.016,0.713,1.524,1.921,1.524c0.771,0,1.447-0.182,2.03-0.547v1.559
			c-0.647,0.346-1.488,0.52-2.522,0.52c-1.13,0-2.008-0.313-2.632-0.94s-0.937-1.5-0.937-2.622c0-1.162,0.337-2.083,1.012-2.762
			s1.504-1.019,2.488-1.019c1.021,0,1.811,0.303,2.369,0.909c0.558,0.606,0.837,1.429,0.837,2.468V204.728z M546.438,203.402
			c0-1.002-0.405-1.504-1.217-1.504c-0.347,0-0.646,0.144-0.898,0.431c-0.254,0.287-0.407,0.645-0.462,1.073H546.438z"/>
		<path fill="#2F2F2F" d="M559.805,200.613l-2.017,7h-2.27l-1.032-4.102c-0.068-0.273-0.107-0.572-0.116-0.896h-0.041
			c-0.032,0.355-0.077,0.645-0.137,0.868l-1.107,4.129h-2.242l-1.976-7h2.201l0.964,4.566c0.046,0.214,0.08,0.474,0.103,0.779h0.041
			c0.022-0.319,0.063-0.588,0.123-0.807l1.203-4.539h2.058l1.08,4.566c0.027,0.114,0.06,0.378,0.096,0.793h0.048
			c0.022-0.264,0.06-0.529,0.109-0.793l0.909-4.566H559.805z"/>
		<path fill="#2F2F2F" d="M566.543,207.613h-2.044v-1.005h-0.027c-0.47,0.784-1.164,1.176-2.085,1.176
			c-0.679,0-1.214-0.192-1.603-0.578c-0.391-0.385-0.585-0.899-0.585-1.542c0-1.358,0.805-2.142,2.413-2.352l1.9-0.253
			c0-0.766-0.415-1.148-1.244-1.148c-0.834,0-1.627,0.249-2.379,0.745v-1.627c0.301-0.155,0.712-0.292,1.234-0.41
			c0.521-0.119,0.996-0.178,1.425-0.178c1.996,0,2.994,0.996,2.994,2.987V207.613z M564.513,204.769v-0.472l-1.271,0.164
			c-0.702,0.091-1.053,0.408-1.053,0.95c0,0.246,0.086,0.448,0.256,0.605c0.172,0.157,0.402,0.236,0.694,0.236
			c0.405,0,0.736-0.14,0.991-0.42S564.513,205.197,564.513,204.769z"/>
		<path fill="#2F2F2F" d="M570.401,207.613h-2.16V197.25h2.16V207.613z"/>
		<path fill="#2F2F2F" d="M574.325,207.613h-2.16V197.25h2.16V207.613z"/>
	</g>
	<g>
		<path fill="#2F2F2F" d="M633.006,190.437v-2.188c0.396,0.333,0.827,0.582,1.292,0.749s0.935,0.25,1.408,0.25
			c0.278,0,0.521-0.025,0.728-0.075c0.208-0.05,0.381-0.12,0.52-0.208c0.14-0.089,0.243-0.194,0.312-0.314s0.103-0.252,0.103-0.393
			c0-0.191-0.055-0.362-0.164-0.513s-0.259-0.29-0.447-0.417c-0.189-0.127-0.414-0.25-0.674-0.369s-0.54-0.239-0.841-0.362
			c-0.766-0.319-1.337-0.708-1.712-1.169c-0.377-0.46-0.564-1.016-0.564-1.668c0-0.51,0.103-0.949,0.308-1.316
			s0.484-0.669,0.837-0.906c0.354-0.237,0.763-0.411,1.228-0.523s0.957-0.167,1.477-0.167c0.511,0,0.963,0.031,1.356,0.092
			c0.395,0.062,0.758,0.156,1.091,0.284v2.044c-0.164-0.114-0.343-0.214-0.536-0.301c-0.194-0.086-0.394-0.158-0.599-0.215
			s-0.409-0.099-0.612-0.126c-0.202-0.027-0.395-0.041-0.577-0.041c-0.251,0-0.479,0.024-0.684,0.072s-0.378,0.115-0.52,0.202
			s-0.251,0.19-0.328,0.311s-0.116,0.256-0.116,0.407c0,0.164,0.043,0.311,0.13,0.441s0.21,0.253,0.369,0.369
			s0.354,0.23,0.581,0.342s0.485,0.227,0.772,0.345c0.392,0.164,0.744,0.338,1.056,0.523c0.312,0.185,0.58,0.393,0.804,0.625
			s0.395,0.498,0.513,0.796s0.178,0.646,0.178,1.042c0,0.547-0.104,1.006-0.311,1.377c-0.208,0.372-0.489,0.672-0.845,0.902
			s-0.769,0.396-1.241,0.496c-0.471,0.1-0.969,0.15-1.493,0.15c-0.538,0-1.05-0.045-1.534-0.137
			C633.781,190.756,633.361,190.619,633.006,190.437z"/>
		<path fill="#2F2F2F" d="M647.744,190.813h-2.153v-1.066h-0.034c-0.533,0.825-1.246,1.237-2.14,1.237
			c-1.622,0-2.434-0.982-2.434-2.946v-4.225h2.153v4.033c0,0.989,0.392,1.483,1.176,1.483c0.388,0,0.697-0.136,0.93-0.407
			s0.349-0.639,0.349-1.104v-4.006h2.153V190.813z"/>
		<path fill="#2F2F2F" d="M651.699,190h-0.027v0.813h-2.16V180.45h2.16v4.416h0.027c0.533-0.816,1.292-1.224,2.276-1.224
			c0.902,0,1.598,0.31,2.085,0.93s0.731,1.467,0.731,2.543c0,1.167-0.285,2.103-0.854,2.81s-1.331,1.06-2.283,1.06
			C652.793,190.984,652.141,190.656,651.699,190z M651.638,187.046v0.718c0,0.451,0.13,0.825,0.39,1.121s0.593,0.444,0.998,0.444
			c0.492,0,0.874-0.19,1.146-0.571c0.271-0.38,0.406-0.919,0.406-1.617c0-0.579-0.124-1.031-0.373-1.357
			c-0.248-0.326-0.603-0.489-1.062-0.489c-0.433,0-0.792,0.162-1.076,0.485C651.78,186.105,651.638,186.527,651.638,187.046z"/>
		<path fill="#2F2F2F" d="M664.97,190.813h-2.153v-3.89c0-1.084-0.388-1.627-1.162-1.627c-0.374,0-0.682,0.144-0.923,0.431
			s-0.362,0.652-0.362,1.094v3.992h-2.16v-7h2.16v1.107h0.027c0.515-0.852,1.265-1.278,2.249-1.278c1.55,0,2.324,0.961,2.324,2.885
			V190.813z"/>
		<path fill="#2F2F2F" d="M672.992,187.928h-4.566c0.073,1.016,0.713,1.524,1.921,1.524c0.771,0,1.447-0.182,2.03-0.547v1.559
			c-0.647,0.346-1.488,0.52-2.522,0.52c-1.13,0-2.008-0.313-2.632-0.94s-0.937-1.5-0.937-2.622c0-1.162,0.337-2.083,1.012-2.762
			s1.504-1.019,2.488-1.019c1.021,0,1.811,0.303,2.369,0.909c0.558,0.606,0.837,1.429,0.837,2.468V187.928z M670.989,186.602
			c0-1.002-0.405-1.504-1.217-1.504c-0.347,0-0.646,0.144-0.898,0.431c-0.254,0.287-0.407,0.645-0.462,1.073H670.989z"/>
		<path fill="#2F2F2F" d="M678.557,190.731c-0.319,0.168-0.8,0.253-1.442,0.253c-1.522,0-2.283-0.791-2.283-2.372v-3.206h-1.135
			v-1.593h1.135v-1.511l2.153-0.615v2.126h1.572v1.593h-1.572v2.83c0,0.729,0.289,1.094,0.868,1.094
			c0.228,0,0.463-0.066,0.704-0.198V190.731z"/>
		<path fill="#2F2F2F" d="M651.149,207.613h-2.229l-4.04-6.159c-0.237-0.36-0.401-0.631-0.492-0.813h-0.027
			c0.036,0.346,0.055,0.875,0.055,1.586v5.387h-2.085v-9.803h2.379l3.89,5.968c0.178,0.269,0.342,0.536,0.492,0.8h0.027
			c-0.036-0.228-0.055-0.677-0.055-1.347v-5.421h2.085V207.613z"/>
		<path fill="#2F2F2F" d="M652.934,207.237v-2.188c0.396,0.333,0.827,0.582,1.292,0.749s0.935,0.25,1.408,0.25
			c0.278,0,0.521-0.025,0.728-0.075c0.208-0.05,0.381-0.12,0.52-0.208c0.14-0.089,0.243-0.194,0.312-0.314s0.103-0.252,0.103-0.393
			c0-0.191-0.055-0.362-0.164-0.513s-0.259-0.29-0.447-0.417c-0.189-0.127-0.414-0.25-0.674-0.369s-0.54-0.239-0.841-0.362
			c-0.766-0.319-1.337-0.708-1.712-1.169c-0.377-0.46-0.564-1.016-0.564-1.668c0-0.51,0.103-0.949,0.308-1.316
			s0.484-0.669,0.837-0.906c0.354-0.237,0.763-0.411,1.228-0.523s0.957-0.167,1.477-0.167c0.511,0,0.963,0.031,1.356,0.092
			c0.395,0.062,0.758,0.156,1.091,0.284v2.044c-0.164-0.114-0.343-0.214-0.536-0.301c-0.194-0.086-0.394-0.158-0.599-0.215
			s-0.409-0.099-0.612-0.126c-0.202-0.027-0.395-0.041-0.577-0.041c-0.251,0-0.479,0.024-0.684,0.072s-0.378,0.115-0.52,0.202
			s-0.251,0.19-0.328,0.311s-0.116,0.256-0.116,0.407c0,0.164,0.043,0.311,0.13,0.441s0.21,0.253,0.369,0.369
			s0.354,0.23,0.581,0.342s0.485,0.227,0.772,0.345c0.392,0.164,0.744,0.338,1.056,0.523c0.312,0.185,0.58,0.393,0.804,0.625
			s0.395,0.498,0.513,0.796s0.178,0.646,0.178,1.042c0,0.547-0.104,1.006-0.311,1.377c-0.208,0.372-0.489,0.672-0.845,0.902
			s-0.769,0.396-1.241,0.496c-0.471,0.1-0.969,0.15-1.493,0.15c-0.538,0-1.05-0.045-1.534-0.137
			C653.71,207.556,653.29,207.419,652.934,207.237z"/>
		<path fill="#2F2F2F" d="M669.205,206.957c-0.957,0.551-2.146,0.827-3.568,0.827c-1.577,0-2.819-0.437-3.729-1.309
			c-0.908-0.873-1.363-2.075-1.363-3.606c0-1.541,0.497-2.796,1.49-3.767s2.315-1.456,3.965-1.456c1.039,0,1.955,0.144,2.748,0.431
			v2.071c-0.757-0.438-1.682-0.656-2.775-0.656c-0.916,0-1.662,0.297-2.238,0.892c-0.577,0.595-0.865,1.389-0.865,2.382
			c0,1.007,0.259,1.787,0.775,2.338c0.518,0.551,1.216,0.827,2.096,0.827c0.528,0,0.948-0.075,1.258-0.226v-1.914h-1.962v-1.764
			h4.17V206.957z"/>
	</g>
	<g>
		<path fill="#2F2F2F" d="M741.55,187.436v3.377h-2.208v-9.803h3.459c2.47,0,3.705,1.042,3.705,3.124
			c0,0.984-0.354,1.781-1.062,2.389c-0.709,0.608-1.656,0.913-2.841,0.913H741.55z M741.55,182.706v3.056h0.868
			c1.176,0,1.764-0.515,1.764-1.545c0-1.007-0.588-1.511-1.764-1.511H741.55z"/>
		<path fill="#2F2F2F" d="M752.176,185.761c-0.26-0.141-0.562-0.212-0.909-0.212c-0.47,0-0.836,0.172-1.101,0.516
			s-0.396,0.812-0.396,1.405v3.343h-2.16v-7h2.16v1.299h0.027c0.342-0.948,0.957-1.422,1.846-1.422c0.228,0,0.405,0.027,0.533,0.082
			V185.761z"/>
		<path fill="#2F2F2F" d="M754.262,182.706c-0.364,0-0.663-0.108-0.896-0.325s-0.349-0.482-0.349-0.796
			c0-0.324,0.116-0.588,0.349-0.793s0.531-0.308,0.896-0.308c0.369,0,0.669,0.103,0.899,0.308c0.229,0.205,0.345,0.469,0.345,0.793
			c0,0.328-0.115,0.597-0.345,0.807C754.93,182.601,754.631,182.706,754.262,182.706z M755.328,190.813h-2.16v-7h2.16V190.813z"/>
		<path fill="#2F2F2F" d="M763.832,183.813l-2.604,7h-2.461l-2.481-7h2.311l1.217,4.313c0.137,0.488,0.217,0.902,0.239,1.244h0.027
			c0.032-0.324,0.116-0.725,0.253-1.203l1.244-4.354H763.832z"/>
		<path fill="#2F2F2F" d="M770.488,190.813h-2.044v-1.005h-0.027c-0.47,0.784-1.164,1.176-2.085,1.176
			c-0.679,0-1.214-0.192-1.603-0.578c-0.391-0.385-0.585-0.899-0.585-1.542c0-1.358,0.805-2.142,2.413-2.352l1.9-0.253
			c0-0.766-0.415-1.148-1.244-1.148c-0.834,0-1.627,0.249-2.379,0.745v-1.627c0.301-0.155,0.712-0.292,1.234-0.41
			c0.521-0.119,0.996-0.178,1.425-0.178c1.996,0,2.994,0.996,2.994,2.987V190.813z M768.458,187.969v-0.472l-1.271,0.164
			c-0.702,0.091-1.053,0.408-1.053,0.95c0,0.246,0.086,0.448,0.256,0.605c0.172,0.157,0.402,0.236,0.694,0.236
			c0.405,0,0.736-0.14,0.991-0.42S768.458,188.397,768.458,187.969z"/>
		<path fill="#2F2F2F" d="M776.316,190.731c-0.319,0.168-0.8,0.253-1.442,0.253c-1.522,0-2.283-0.791-2.283-2.372v-3.206h-1.135
			v-1.593h1.135v-1.511l2.153-0.615v2.126h1.572v1.593h-1.572v2.83c0,0.729,0.289,1.094,0.868,1.094
			c0.228,0,0.463-0.066,0.704-0.198V190.731z"/>
		<path fill="#2F2F2F" d="M783.803,187.928h-4.566c0.073,1.016,0.713,1.524,1.921,1.524c0.771,0,1.447-0.182,2.03-0.547v1.559
			c-0.647,0.346-1.488,0.52-2.522,0.52c-1.13,0-2.008-0.313-2.632-0.94s-0.937-1.5-0.937-2.622c0-1.162,0.337-2.083,1.012-2.762
			s1.504-1.019,2.488-1.019c1.021,0,1.811,0.303,2.369,0.909c0.558,0.606,0.837,1.429,0.837,2.468V187.928z M781.8,186.602
			c0-1.002-0.405-1.504-1.217-1.504c-0.347,0-0.646,0.144-0.898,0.431c-0.254,0.287-0.407,0.645-0.462,1.073H781.8z"/>
		<path fill="#2F2F2F" d="M735.18,207.613h-5.879v-9.803h5.653v1.798h-3.445v2.181h3.206v1.791h-3.206v2.242h3.671V207.613z"/>
		<path fill="#2F2F2F" d="M743.394,207.613h-2.153v-3.89c0-1.084-0.388-1.627-1.162-1.627c-0.374,0-0.682,0.144-0.923,0.431
			s-0.362,0.652-0.362,1.094v3.992h-2.16v-7h2.16v1.107h0.027c0.515-0.852,1.265-1.278,2.249-1.278c1.55,0,2.324,0.961,2.324,2.885
			V207.613z"/>
		<path fill="#2F2F2F" d="M751.976,207.613h-2.16v-0.964h-0.027c-0.492,0.756-1.215,1.135-2.167,1.135
			c-0.875,0-1.579-0.309-2.112-0.926s-0.8-1.48-0.8-2.587c0-1.158,0.294-2.085,0.882-2.782s1.358-1.046,2.311-1.046
			c0.902,0,1.531,0.324,1.887,0.971h0.027v-4.163h2.16V207.613z M749.857,204.208v-0.526c0-0.456-0.132-0.834-0.396-1.135
			s-0.608-0.451-1.032-0.451c-0.479,0-0.853,0.188-1.121,0.564s-0.403,0.892-0.403,1.548c0,0.615,0.13,1.089,0.39,1.422
			s0.62,0.499,1.08,0.499c0.438,0,0.794-0.175,1.07-0.526C749.72,205.252,749.857,204.787,749.857,204.208z"/>
		<path fill="#2F2F2F" d="M755.93,206.799h-0.027v4.033h-2.16v-10.22h2.16v1.053h0.027c0.533-0.816,1.283-1.224,2.249-1.224
			c0.907,0,1.607,0.311,2.102,0.933c0.495,0.622,0.742,1.469,0.742,2.54c0,1.167-0.288,2.103-0.865,2.81
			c-0.576,0.707-1.343,1.06-2.3,1.06C757.015,207.784,756.373,207.456,755.93,206.799z M755.869,203.928v0.561
			c0,0.483,0.128,0.877,0.383,1.183s0.59,0.458,1.005,0.458c0.492,0,0.874-0.19,1.146-0.571c0.271-0.38,0.406-0.919,0.406-1.617
			c0-1.23-0.479-1.846-1.436-1.846c-0.442,0-0.803,0.167-1.084,0.502C756.01,202.934,755.869,203.377,755.869,203.928z"/>
		<path fill="#2F2F2F" d="M765.806,207.784c-1.167,0-2.084-0.327-2.751-0.981c-0.668-0.654-1.002-1.542-1.002-2.663
			c0-1.158,0.347-2.063,1.039-2.717s1.629-0.981,2.81-0.981c1.162,0,2.073,0.327,2.734,0.981s0.991,1.519,0.991,2.594
			c0,1.162-0.341,2.081-1.021,2.755C767.925,207.446,766.991,207.784,765.806,207.784z M765.861,202.096
			c-0.511,0-0.907,0.175-1.189,0.526s-0.424,0.848-0.424,1.49c0,1.344,0.542,2.017,1.627,2.017c1.034,0,1.552-0.69,1.552-2.071
			C767.427,202.75,766.905,202.096,765.861,202.096z"/>
		<path fill="#2F2F2F" d="M772.071,199.505c-0.364,0-0.663-0.108-0.896-0.325s-0.349-0.482-0.349-0.796
			c0-0.324,0.116-0.588,0.349-0.793s0.531-0.308,0.896-0.308c0.369,0,0.669,0.103,0.899,0.308c0.229,0.205,0.345,0.469,0.345,0.793
			c0,0.328-0.115,0.597-0.345,0.807C772.74,199.4,772.44,199.505,772.071,199.505z M773.138,207.613h-2.16v-7h2.16V207.613z"/>
		<path fill="#2F2F2F" d="M781.68,207.613h-2.153v-3.89c0-1.084-0.388-1.627-1.162-1.627c-0.374,0-0.682,0.144-0.923,0.431
			s-0.362,0.652-0.362,1.094v3.992h-2.16v-7h2.16v1.107h0.027c0.515-0.852,1.265-1.278,2.249-1.278c1.55,0,2.324,0.961,2.324,2.885
			V207.613z"/>
		<path fill="#2F2F2F" d="M787.53,207.531c-0.319,0.168-0.8,0.253-1.442,0.253c-1.522,0-2.283-0.791-2.283-2.372v-3.206h-1.135
			v-1.593h1.135v-1.511l2.153-0.615v2.126h1.572v1.593h-1.572v2.83c0,0.729,0.289,1.094,0.868,1.094
			c0.228,0,0.463-0.066,0.704-0.198V207.531z"/>
		<path fill="#2F2F2F" d="M788.512,207.428v-1.75c0.355,0.214,0.71,0.374,1.062,0.479c0.354,0.105,0.688,0.157,1.002,0.157
			c0.383,0,0.685-0.052,0.906-0.157c0.221-0.105,0.331-0.264,0.331-0.479c0-0.137-0.05-0.25-0.15-0.342s-0.229-0.171-0.386-0.239
			c-0.158-0.068-0.33-0.13-0.517-0.185s-0.367-0.116-0.54-0.185c-0.278-0.105-0.523-0.218-0.734-0.338
			c-0.213-0.121-0.391-0.261-0.533-0.42c-0.145-0.16-0.254-0.344-0.328-0.554c-0.076-0.209-0.113-0.458-0.113-0.745
			c0-0.392,0.086-0.729,0.256-1.012c0.172-0.283,0.399-0.514,0.684-0.694c0.285-0.18,0.611-0.312,0.979-0.396
			c0.366-0.084,0.748-0.126,1.145-0.126c0.31,0,0.624,0.024,0.943,0.072s0.634,0.117,0.943,0.208v1.668
			c-0.273-0.16-0.566-0.279-0.879-0.359c-0.312-0.08-0.618-0.12-0.919-0.12c-0.142,0-0.274,0.013-0.399,0.038
			c-0.126,0.025-0.236,0.062-0.332,0.109s-0.171,0.109-0.226,0.185s-0.082,0.161-0.082,0.256c0,0.127,0.041,0.237,0.123,0.328
			s0.189,0.17,0.321,0.236s0.279,0.125,0.441,0.178c0.161,0.052,0.322,0.106,0.481,0.161c0.287,0.1,0.547,0.209,0.779,0.328
			s0.432,0.257,0.599,0.417c0.166,0.16,0.293,0.346,0.383,0.561c0.088,0.214,0.133,0.469,0.133,0.766c0,0.415-0.09,0.769-0.27,1.063
			c-0.181,0.294-0.42,0.533-0.719,0.718c-0.298,0.185-0.643,0.319-1.031,0.403c-0.391,0.084-0.795,0.126-1.214,0.126
			C789.881,207.784,789.168,207.665,788.512,207.428z"/>
	</g>
	<g>
		<path d="M873.503,190.813h-2.229l-4.04-6.159c-0.237-0.36-0.401-0.631-0.492-0.813h-0.027c0.036,0.346,0.055,0.875,0.055,1.586
			v5.387h-2.085v-9.803h2.379l3.89,5.968c0.178,0.269,0.342,0.536,0.492,0.8h0.027c-0.036-0.228-0.055-0.677-0.055-1.347v-5.421
			h2.085V190.813z"/>
		<path d="M877.831,190.813h-2.208v-9.803h2.208V190.813z"/>
		<path d="M887.05,190.465c-0.716,0.346-1.649,0.52-2.803,0.52c-1.504,0-2.687-0.442-3.548-1.326s-1.292-2.062-1.292-3.534
			c0-1.568,0.484-2.839,1.453-3.814c0.968-0.975,2.225-1.463,3.77-1.463c0.957,0,1.764,0.121,2.42,0.362v2.126
			c-0.656-0.392-1.403-0.588-2.242-0.588c-0.921,0-1.663,0.29-2.229,0.868s-0.848,1.363-0.848,2.352c0,0.948,0.267,1.703,0.8,2.266
			s1.251,0.844,2.153,0.844c0.861,0,1.649-0.209,2.365-0.629V190.465z"/>
		<path d="M871.149,207.613h-2.229l-4.04-6.159c-0.237-0.36-0.401-0.631-0.492-0.813h-0.027c0.036,0.346,0.055,0.875,0.055,1.586
			v5.387h-2.085v-9.803h2.379l3.89,5.968c0.178,0.269,0.342,0.536,0.492,0.8h0.027c-0.036-0.228-0.055-0.677-0.055-1.347v-5.421
			h2.085V207.613z"/>
		<path d="M872.934,207.237v-2.188c0.396,0.333,0.827,0.582,1.292,0.749s0.935,0.25,1.408,0.25c0.278,0,0.521-0.025,0.728-0.075
			c0.208-0.05,0.381-0.12,0.52-0.208c0.14-0.089,0.243-0.194,0.312-0.314s0.103-0.252,0.103-0.393c0-0.191-0.055-0.362-0.164-0.513
			s-0.259-0.29-0.447-0.417c-0.189-0.127-0.414-0.25-0.674-0.369s-0.54-0.239-0.841-0.362c-0.766-0.319-1.337-0.708-1.712-1.169
			c-0.377-0.46-0.564-1.016-0.564-1.668c0-0.51,0.103-0.949,0.308-1.316s0.484-0.669,0.837-0.906
			c0.354-0.237,0.763-0.411,1.228-0.523s0.957-0.167,1.477-0.167c0.511,0,0.963,0.031,1.356,0.092
			c0.395,0.062,0.758,0.156,1.091,0.284v2.044c-0.164-0.114-0.343-0.214-0.536-0.301c-0.194-0.086-0.394-0.158-0.599-0.215
			s-0.409-0.099-0.612-0.126c-0.202-0.027-0.395-0.041-0.577-0.041c-0.251,0-0.479,0.024-0.684,0.072s-0.378,0.115-0.52,0.202
			s-0.251,0.19-0.328,0.311s-0.116,0.256-0.116,0.407c0,0.164,0.043,0.311,0.13,0.441s0.21,0.253,0.369,0.369
			s0.354,0.23,0.581,0.342s0.485,0.227,0.772,0.345c0.392,0.164,0.744,0.338,1.056,0.523c0.312,0.185,0.58,0.393,0.804,0.625
			s0.395,0.498,0.513,0.796s0.178,0.646,0.178,1.042c0,0.547-0.104,1.006-0.311,1.377c-0.208,0.372-0.489,0.672-0.845,0.902
			s-0.769,0.396-1.241,0.496c-0.471,0.1-0.969,0.15-1.493,0.15c-0.538,0-1.05-0.045-1.534-0.137
			C873.71,207.556,873.29,207.419,872.934,207.237z"/>
		<path d="M889.205,206.957c-0.957,0.551-2.146,0.827-3.568,0.827c-1.577,0-2.819-0.437-3.729-1.309
			c-0.908-0.873-1.363-2.075-1.363-3.606c0-1.541,0.497-2.796,1.49-3.767s2.315-1.456,3.965-1.456c1.039,0,1.955,0.144,2.748,0.431
			v2.071c-0.757-0.438-1.682-0.656-2.775-0.656c-0.916,0-1.662,0.297-2.238,0.892c-0.577,0.595-0.865,1.389-0.865,2.382
			c0,1.007,0.259,1.787,0.775,2.338c0.518,0.551,1.216,0.827,2.096,0.827c0.528,0,0.948-0.075,1.258-0.226v-1.914h-1.962v-1.764
			h4.17V206.957z"/>
	</g>
	<g>
		<path fill="#2F2F2F" d="M964.51,181.01l-3.377,9.803h-2.502l-3.336-9.803h2.379l2.044,6.822c0.109,0.369,0.176,0.695,0.198,0.978
			h0.041c0.032-0.305,0.103-0.64,0.212-1.005l2.03-6.795H964.51z"/>
		<path fill="#2F2F2F" d="M966.638,182.706c-0.364,0-0.663-0.108-0.896-0.325s-0.349-0.482-0.349-0.796
			c0-0.324,0.116-0.588,0.349-0.793s0.531-0.308,0.896-0.308c0.369,0,0.669,0.103,0.899,0.308c0.229,0.205,0.345,0.469,0.345,0.793
			c0,0.328-0.115,0.597-0.345,0.807C967.307,182.601,967.008,182.706,966.638,182.706z M967.705,190.813h-2.16v-7h2.16V190.813z"/>
		<path fill="#2F2F2F" d="M974.054,185.761c-0.26-0.141-0.562-0.212-0.909-0.212c-0.47,0-0.836,0.172-1.101,0.516
			s-0.396,0.812-0.396,1.405v3.343h-2.16v-7h2.16v1.299h0.027c0.342-0.948,0.957-1.422,1.846-1.422c0.228,0,0.405,0.027,0.533,0.082
			V185.761z"/>
		<path fill="#2F2F2F" d="M979.585,190.731c-0.319,0.168-0.8,0.253-1.442,0.253c-1.522,0-2.283-0.791-2.283-2.372v-3.206h-1.135
			v-1.593h1.135v-1.511l2.153-0.615v2.126h1.572v1.593h-1.572v2.83c0,0.729,0.289,1.094,0.868,1.094
			c0.228,0,0.463-0.066,0.704-0.198V190.731z"/>
		<path fill="#2F2F2F" d="M987.55,190.813h-2.153v-1.066h-0.034c-0.533,0.825-1.246,1.237-2.14,1.237
			c-1.622,0-2.434-0.982-2.434-2.946v-4.225h2.153v4.033c0,0.989,0.392,1.483,1.176,1.483c0.388,0,0.697-0.136,0.93-0.407
			s0.349-0.639,0.349-1.104v-4.006h2.153V190.813z"/>
		<path fill="#2F2F2F" d="M995.199,190.813h-2.044v-1.005h-0.027c-0.47,0.784-1.164,1.176-2.085,1.176
			c-0.679,0-1.214-0.192-1.603-0.578c-0.391-0.385-0.585-0.899-0.585-1.542c0-1.358,0.805-2.142,2.413-2.352l1.9-0.253
			c0-0.766-0.415-1.148-1.244-1.148c-0.834,0-1.627,0.249-2.379,0.745v-1.627c0.301-0.155,0.712-0.292,1.234-0.41
			c0.521-0.119,0.996-0.178,1.425-0.178c1.996,0,2.994,0.996,2.994,2.987V190.813z M993.169,187.969v-0.472l-1.271,0.164
			c-0.702,0.091-1.053,0.408-1.053,0.95c0,0.246,0.086,0.448,0.256,0.605c0.172,0.157,0.402,0.236,0.694,0.236
			c0.405,0,0.736-0.14,0.991-0.42S993.169,188.397,993.169,187.969z"/>
		<path fill="#2F2F2F" d="M999.057,190.813h-2.16V180.45h2.16V190.813z"/>
		<path fill="#2F2F2F" d="M1016.12,190.813h-2.181v-5.865c0-0.633,0.027-1.333,0.082-2.099h-0.055
			c-0.114,0.602-0.217,1.035-0.308,1.299l-2.297,6.665h-1.805l-2.338-6.597c-0.063-0.178-0.166-0.633-0.308-1.367h-0.062
			c0.06,0.966,0.089,1.814,0.089,2.543v5.421h-1.989v-9.803h3.233l2.003,5.811c0.159,0.465,0.275,0.932,0.349,1.401h0.041
			c0.123-0.542,0.253-1.014,0.39-1.415l2.003-5.797h3.151V190.813z"/>
		<path fill="#2F2F2F" d="M1023.939,190.813h-2.044v-1.005h-0.027c-0.47,0.784-1.164,1.176-2.085,1.176
			c-0.679,0-1.214-0.192-1.603-0.578c-0.391-0.385-0.585-0.899-0.585-1.542c0-1.358,0.805-2.142,2.413-2.352l1.9-0.253
			c0-0.766-0.415-1.148-1.244-1.148c-0.834,0-1.627,0.249-2.379,0.745v-1.627c0.301-0.155,0.712-0.292,1.234-0.41
			c0.521-0.119,0.996-0.178,1.425-0.178c1.996,0,2.994,0.996,2.994,2.987V190.813z M1021.909,187.969v-0.472l-1.271,0.164
			c-0.702,0.091-1.053,0.408-1.053,0.95c0,0.246,0.086,0.448,0.256,0.605c0.172,0.157,0.402,0.236,0.694,0.236
			c0.405,0,0.736-0.14,0.991-0.42S1021.909,188.397,1021.909,187.969z"/>
		<path fill="#2F2F2F" d="M1030.953,190.56c-0.487,0.283-1.191,0.424-2.112,0.424c-1.075,0-1.946-0.326-2.611-0.978
			s-0.998-1.493-0.998-2.522c0-1.189,0.356-2.127,1.07-2.813c0.713-0.686,1.666-1.029,2.86-1.029c0.825,0,1.422,0.109,1.791,0.328
			v1.832c-0.451-0.337-0.955-0.506-1.511-0.506c-0.62,0-1.111,0.181-1.473,0.543c-0.363,0.362-0.544,0.862-0.544,1.5
			c0,0.62,0.173,1.106,0.52,1.459s0.822,0.53,1.429,0.53c0.538,0,1.064-0.168,1.579-0.506V190.56z"/>
		<path fill="#2F2F2F" d="M1039.19,190.813h-2.153v-3.979c0-1.025-0.374-1.538-1.121-1.538c-0.383,0-0.692,0.144-0.93,0.431
			s-0.355,0.652-0.355,1.094v3.992h-2.16V180.45h2.16v4.402h0.027c0.528-0.807,1.246-1.21,2.153-1.21
			c1.586,0,2.379,0.957,2.379,2.871V190.813z"/>
		<path fill="#2F2F2F" d="M1041.961,182.706c-0.364,0-0.663-0.108-0.896-0.325s-0.349-0.482-0.349-0.796
			c0-0.324,0.116-0.588,0.349-0.793s0.531-0.308,0.896-0.308c0.369,0,0.669,0.103,0.899,0.308c0.229,0.205,0.345,0.469,0.345,0.793
			c0,0.328-0.115,0.597-0.345,0.807C1042.63,182.601,1042.33,182.706,1041.961,182.706z M1043.027,190.813h-2.16v-7h2.16V190.813z"
			/>
		<path fill="#2F2F2F" d="M1051.574,190.813h-2.153v-3.89c0-1.084-0.388-1.627-1.162-1.627c-0.374,0-0.682,0.144-0.923,0.431
			s-0.362,0.652-0.362,1.094v3.992h-2.16v-7h2.16v1.107h0.027c0.515-0.852,1.265-1.278,2.249-1.278c1.55,0,2.324,0.961,2.324,2.885
			V190.813z"/>
		<path fill="#2F2F2F" d="M1059.596,187.928h-4.566c0.073,1.016,0.713,1.524,1.921,1.524c0.771,0,1.447-0.182,2.03-0.547v1.559
			c-0.647,0.346-1.488,0.52-2.522,0.52c-1.13,0-2.008-0.313-2.632-0.94s-0.937-1.5-0.937-2.622c0-1.162,0.337-2.083,1.012-2.762
			s1.504-1.019,2.488-1.019c1.021,0,1.811,0.303,2.369,0.909c0.558,0.606,0.837,1.429,0.837,2.468V187.928z M1057.594,186.602
			c0-1.002-0.405-1.504-1.217-1.504c-0.347,0-0.646,0.144-0.898,0.431c-0.254,0.287-0.407,0.645-0.462,1.073H1057.594z"/>
		<path fill="#2F2F2F" d="M958.104,207.237v-2.188c0.396,0.333,0.827,0.582,1.292,0.749s0.935,0.25,1.408,0.25
			c0.278,0,0.521-0.025,0.728-0.075c0.208-0.05,0.381-0.12,0.52-0.208c0.14-0.089,0.243-0.194,0.312-0.314s0.103-0.252,0.103-0.393
			c0-0.191-0.055-0.362-0.164-0.513s-0.259-0.29-0.447-0.417c-0.189-0.127-0.414-0.25-0.674-0.369s-0.54-0.239-0.841-0.362
			c-0.766-0.319-1.337-0.708-1.712-1.169c-0.377-0.46-0.564-1.016-0.564-1.668c0-0.51,0.103-0.949,0.308-1.316
			s0.484-0.669,0.837-0.906c0.354-0.237,0.763-0.411,1.228-0.523s0.957-0.167,1.477-0.167c0.511,0,0.963,0.031,1.356,0.092
			c0.395,0.062,0.758,0.156,1.091,0.284v2.044c-0.164-0.114-0.343-0.214-0.536-0.301c-0.194-0.086-0.394-0.158-0.599-0.215
			s-0.409-0.099-0.612-0.126c-0.202-0.027-0.395-0.041-0.577-0.041c-0.251,0-0.479,0.024-0.684,0.072s-0.378,0.115-0.52,0.202
			s-0.251,0.19-0.328,0.311s-0.116,0.256-0.116,0.407c0,0.164,0.043,0.311,0.13,0.441s0.21,0.253,0.369,0.369
			s0.354,0.23,0.581,0.342s0.485,0.227,0.772,0.345c0.392,0.164,0.744,0.338,1.056,0.523c0.312,0.185,0.58,0.393,0.804,0.625
			s0.395,0.498,0.513,0.796s0.178,0.646,0.178,1.042c0,0.547-0.104,1.006-0.311,1.377c-0.208,0.372-0.489,0.672-0.845,0.902
			s-0.769,0.396-1.241,0.496c-0.471,0.1-0.969,0.15-1.493,0.15c-0.538,0-1.05-0.045-1.534-0.137
			C958.88,207.556,958.46,207.419,958.104,207.237z"/>
		<path fill="#2F2F2F" d="M972.48,204.728h-4.566c0.073,1.016,0.713,1.524,1.921,1.524c0.771,0,1.447-0.182,2.03-0.547v1.559
			c-0.647,0.346-1.488,0.52-2.522,0.52c-1.13,0-2.008-0.313-2.632-0.94s-0.937-1.5-0.937-2.622c0-1.162,0.337-2.083,1.012-2.762
			s1.504-1.019,2.488-1.019c1.021,0,1.811,0.303,2.369,0.909c0.558,0.606,0.837,1.429,0.837,2.468V204.728z M970.477,203.402
			c0-1.002-0.405-1.504-1.217-1.504c-0.347,0-0.646,0.144-0.898,0.431c-0.254,0.287-0.407,0.645-0.462,1.073H970.477z"/>
		<path fill="#2F2F2F" d="M978.412,202.561c-0.26-0.141-0.562-0.212-0.909-0.212c-0.47,0-0.836,0.172-1.101,0.516
			s-0.396,0.812-0.396,1.405v3.343h-2.16v-7h2.16v1.299h0.027c0.342-0.948,0.957-1.422,1.846-1.422c0.228,0,0.405,0.027,0.533,0.082
			V202.561z"/>
		<path fill="#2F2F2F" d="M986.51,200.613l-2.604,7h-2.461l-2.481-7h2.311l1.217,4.313c0.137,0.488,0.217,0.902,0.239,1.244h0.027
			c0.032-0.324,0.116-0.725,0.253-1.203l1.244-4.354H986.51z"/>
		<path fill="#2F2F2F" d="M988.556,199.505c-0.364,0-0.663-0.108-0.896-0.325s-0.349-0.482-0.349-0.796
			c0-0.324,0.116-0.588,0.349-0.793s0.531-0.308,0.896-0.308c0.369,0,0.669,0.103,0.899,0.308c0.229,0.205,0.345,0.469,0.345,0.793
			c0,0.328-0.115,0.597-0.345,0.807C989.225,199.4,988.926,199.505,988.556,199.505z M989.623,207.613h-2.16v-7h2.16V207.613z"/>
		<path fill="#2F2F2F" d="M996.702,207.36c-0.487,0.283-1.191,0.424-2.112,0.424c-1.075,0-1.946-0.326-2.611-0.978
			s-0.998-1.493-0.998-2.522c0-1.189,0.356-2.127,1.07-2.813c0.713-0.686,1.666-1.029,2.86-1.029c0.825,0,1.422,0.109,1.791,0.328
			v1.832c-0.451-0.337-0.955-0.506-1.511-0.506c-0.62,0-1.111,0.181-1.473,0.543c-0.363,0.362-0.544,0.862-0.544,1.5
			c0,0.62,0.173,1.106,0.52,1.459s0.822,0.53,1.429,0.53c0.538,0,1.064-0.168,1.579-0.506V207.36z"/>
		<path fill="#2F2F2F" d="M1004.418,204.728h-4.566c0.073,1.016,0.713,1.524,1.921,1.524c0.771,0,1.447-0.182,2.03-0.547v1.559
			c-0.647,0.346-1.488,0.52-2.522,0.52c-1.13,0-2.008-0.313-2.632-0.94s-0.937-1.5-0.937-2.622c0-1.162,0.337-2.083,1.012-2.762
			s1.504-1.019,2.488-1.019c1.021,0,1.811,0.303,2.369,0.909c0.558,0.606,0.837,1.429,0.837,2.468V204.728z M1002.415,203.402
			c0-1.002-0.405-1.504-1.217-1.504c-0.347,0-0.646,0.144-0.898,0.431c-0.254,0.287-0.407,0.645-0.462,1.073H1002.415z"/>
		<path fill="#2F2F2F" d="M1014.132,198.904c-0.278-0.109-0.545-0.164-0.8-0.164c-0.692,0-1.039,0.376-1.039,1.128v0.745h1.6v1.593
			h-1.6v5.407h-2.153v-5.407h-1.176v-1.593h1.176v-0.868c0-0.797,0.26-1.44,0.779-1.928s1.226-0.731,2.119-0.731
			c0.438,0,0.802,0.045,1.094,0.137V198.904z"/>
		<path fill="#2F2F2F" d="M1016.184,199.505c-0.364,0-0.663-0.108-0.896-0.325s-0.349-0.482-0.349-0.796
			c0-0.324,0.116-0.588,0.349-0.793s0.531-0.308,0.896-0.308c0.369,0,0.669,0.103,0.899,0.308c0.229,0.205,0.345,0.469,0.345,0.793
			c0,0.328-0.115,0.597-0.345,0.807C1016.853,199.4,1016.554,199.505,1016.184,199.505z M1017.251,207.613h-2.16v-7h2.16V207.613z"
			/>
		<path fill="#2F2F2F" d="M1023.599,202.561c-0.26-0.141-0.562-0.212-0.909-0.212c-0.47,0-0.836,0.172-1.101,0.516
			s-0.396,0.812-0.396,1.405v3.343h-2.16v-7h2.16v1.299h0.027c0.342-0.948,0.957-1.422,1.846-1.422c0.228,0,0.405,0.027,0.533,0.082
			V202.561z"/>
		<path fill="#2F2F2F" d="M1030.971,204.728h-4.566c0.073,1.016,0.713,1.524,1.921,1.524c0.771,0,1.447-0.182,2.03-0.547v1.559
			c-0.647,0.346-1.488,0.52-2.522,0.52c-1.13,0-2.008-0.313-2.632-0.94s-0.937-1.5-0.937-2.622c0-1.162,0.337-2.083,1.012-2.762
			s1.504-1.019,2.488-1.019c1.021,0,1.811,0.303,2.369,0.909c0.558,0.606,0.837,1.429,0.837,2.468V204.728z M1028.969,203.402
			c0-1.002-0.405-1.504-1.217-1.504c-0.347,0-0.646,0.144-0.898,0.431c-0.254,0.287-0.407,0.645-0.462,1.073H1028.969z"/>
		<path fill="#2F2F2F" d="M1042.336,200.613l-2.017,7h-2.27l-1.032-4.102c-0.068-0.273-0.107-0.572-0.116-0.896h-0.041
			c-0.032,0.355-0.077,0.645-0.137,0.868l-1.107,4.129h-2.242l-1.976-7h2.201l0.964,4.566c0.046,0.214,0.08,0.474,0.103,0.779h0.041
			c0.022-0.319,0.063-0.588,0.123-0.807l1.203-4.539h2.058l1.08,4.566c0.027,0.114,0.06,0.378,0.096,0.793h0.048
			c0.022-0.264,0.06-0.529,0.109-0.793l0.909-4.566H1042.336z"/>
		<path fill="#2F2F2F" d="M1049.073,207.613h-2.044v-1.005h-0.027c-0.47,0.784-1.164,1.176-2.085,1.176
			c-0.679,0-1.214-0.192-1.603-0.578c-0.391-0.385-0.585-0.899-0.585-1.542c0-1.358,0.805-2.142,2.413-2.352l1.9-0.253
			c0-0.766-0.415-1.148-1.244-1.148c-0.834,0-1.627,0.249-2.379,0.745v-1.627c0.301-0.155,0.712-0.292,1.234-0.41
			c0.521-0.119,0.996-0.178,1.425-0.178c1.996,0,2.994,0.996,2.994,2.987V207.613z M1047.043,204.769v-0.472l-1.271,0.164
			c-0.702,0.091-1.053,0.408-1.053,0.95c0,0.246,0.086,0.448,0.256,0.605c0.172,0.157,0.402,0.236,0.694,0.236
			c0.405,0,0.736-0.14,0.991-0.42S1047.043,205.197,1047.043,204.769z"/>
		<path fill="#2F2F2F" d="M1052.931,207.613h-2.16V197.25h2.16V207.613z"/>
		<path fill="#2F2F2F" d="M1056.855,207.613h-2.16V197.25h2.16V207.613z"/>
	</g>
	<g>
		<path fill="#2F2F2F" d="M330.405,190.813h-5.838v-9.803h2.208v8.012h3.63V190.813z"/>
		<path fill="#2F2F2F" d="M334.868,190.984c-1.167,0-2.084-0.327-2.751-0.981c-0.668-0.654-1.002-1.542-1.002-2.663
			c0-1.158,0.347-2.063,1.039-2.717s1.629-0.981,2.81-0.981c1.162,0,2.073,0.327,2.734,0.981s0.991,1.519,0.991,2.594
			c0,1.162-0.341,2.081-1.021,2.755C336.986,190.647,336.053,190.984,334.868,190.984z M334.923,185.297
			c-0.511,0-0.907,0.175-1.189,0.526s-0.424,0.848-0.424,1.49c0,1.344,0.542,2.017,1.627,2.017c1.034,0,1.552-0.69,1.552-2.071
			C336.488,185.951,335.967,185.297,334.923,185.297z"/>
		<path fill="#2F2F2F" d="M345.905,190.813h-2.044v-1.005h-0.027c-0.47,0.784-1.164,1.176-2.085,1.176
			c-0.679,0-1.214-0.192-1.603-0.578c-0.391-0.385-0.585-0.899-0.585-1.542c0-1.358,0.805-2.142,2.413-2.352l1.9-0.253
			c0-0.766-0.415-1.148-1.244-1.148c-0.834,0-1.627,0.249-2.379,0.745v-1.627c0.301-0.155,0.712-0.292,1.234-0.41
			c0.521-0.119,0.996-0.178,1.425-0.178c1.996,0,2.994,0.996,2.994,2.987V190.813z M343.875,187.97v-0.472l-1.271,0.164
			c-0.702,0.091-1.053,0.408-1.053,0.95c0,0.246,0.086,0.448,0.256,0.605c0.172,0.157,0.402,0.236,0.694,0.236
			c0.405,0,0.736-0.14,0.991-0.42S343.875,188.398,343.875,187.97z"/>
		<path fill="#2F2F2F" d="M354.486,190.813h-2.16v-0.964h-0.027c-0.492,0.756-1.215,1.135-2.167,1.135
			c-0.875,0-1.579-0.309-2.112-0.926s-0.8-1.48-0.8-2.587c0-1.158,0.294-2.085,0.882-2.782s1.358-1.046,2.311-1.046
			c0.902,0,1.531,0.324,1.887,0.971h0.027v-4.163h2.16V190.813z M352.367,187.409v-0.526c0-0.456-0.132-0.834-0.396-1.135
			s-0.608-0.451-1.032-0.451c-0.479,0-0.853,0.188-1.121,0.564s-0.403,0.892-0.403,1.548c0,0.615,0.13,1.089,0.39,1.422
			s0.62,0.499,1.08,0.499c0.438,0,0.794-0.175,1.07-0.526C352.229,188.453,352.367,187.988,352.367,187.409z"/>
		<path fill="#2F2F2F" d="M360.379,190.813v-9.803h3.568c1.094,0,1.935,0.201,2.522,0.602s0.882,0.966,0.882,1.695
			c0,0.529-0.179,0.991-0.537,1.388c-0.357,0.396-0.814,0.672-1.37,0.827v0.027c0.697,0.086,1.255,0.344,1.671,0.772
			c0.418,0.428,0.626,0.95,0.626,1.565c0,0.898-0.321,1.61-0.964,2.136s-1.52,0.79-2.632,0.79H360.379z M362.587,182.638v2.324
			h0.971c0.456,0,0.814-0.11,1.077-0.332c0.262-0.221,0.393-0.525,0.393-0.913c0-0.72-0.538-1.08-1.613-1.08H362.587z
			 M362.587,186.603v2.584h1.196c0.511,0,0.91-0.119,1.199-0.355c0.29-0.237,0.435-0.561,0.435-0.971c0-0.392-0.143-0.7-0.427-0.923
			c-0.285-0.223-0.683-0.335-1.193-0.335H362.587z"/>
		<path fill="#2F2F2F" d="M375.017,190.813h-2.044v-1.005h-0.027c-0.47,0.784-1.164,1.176-2.085,1.176
			c-0.679,0-1.214-0.192-1.603-0.578c-0.391-0.385-0.585-0.899-0.585-1.542c0-1.358,0.805-2.142,2.413-2.352l1.9-0.253
			c0-0.766-0.415-1.148-1.244-1.148c-0.834,0-1.627,0.249-2.379,0.745v-1.627c0.301-0.155,0.712-0.292,1.234-0.41
			c0.521-0.119,0.996-0.178,1.425-0.178c1.996,0,2.994,0.996,2.994,2.987V190.813z M372.987,187.97v-0.472l-1.271,0.164
			c-0.702,0.091-1.053,0.408-1.053,0.95c0,0.246,0.086,0.448,0.256,0.605c0.172,0.157,0.402,0.236,0.694,0.236
			c0.405,0,0.736-0.14,0.991-0.42S372.987,188.398,372.987,187.97z"/>
		<path fill="#2F2F2F" d="M378.875,190.813h-2.16V180.45h2.16V190.813z"/>
		<path fill="#2F2F2F" d="M386.54,190.813h-2.044v-1.005h-0.027c-0.47,0.784-1.164,1.176-2.085,1.176
			c-0.679,0-1.214-0.192-1.603-0.578c-0.391-0.385-0.585-0.899-0.585-1.542c0-1.358,0.805-2.142,2.413-2.352l1.9-0.253
			c0-0.766-0.415-1.148-1.244-1.148c-0.834,0-1.627,0.249-2.379,0.745v-1.627c0.301-0.155,0.712-0.292,1.234-0.41
			c0.521-0.119,0.996-0.178,1.425-0.178c1.996,0,2.994,0.996,2.994,2.987V190.813z M384.51,187.97v-0.472l-1.271,0.164
			c-0.702,0.091-1.053,0.408-1.053,0.95c0,0.246,0.086,0.448,0.256,0.605c0.172,0.157,0.402,0.236,0.694,0.236
			c0.405,0,0.736-0.14,0.991-0.42S384.51,188.398,384.51,187.97z"/>
		<path fill="#2F2F2F" d="M394.997,190.813h-2.153v-3.89c0-1.084-0.388-1.627-1.162-1.627c-0.374,0-0.682,0.144-0.923,0.431
			s-0.362,0.652-0.362,1.094v3.992h-2.16v-7h2.16v1.107h0.027c0.515-0.852,1.265-1.278,2.249-1.278c1.55,0,2.324,0.961,2.324,2.885
			V190.813z"/>
		<path fill="#2F2F2F" d="M402.011,190.561c-0.487,0.283-1.191,0.424-2.112,0.424c-1.075,0-1.946-0.326-2.611-0.978
			s-0.998-1.493-0.998-2.522c0-1.189,0.356-2.127,1.07-2.813c0.713-0.686,1.666-1.029,2.86-1.029c0.825,0,1.422,0.109,1.791,0.328
			v1.832c-0.451-0.337-0.955-0.506-1.511-0.506c-0.62,0-1.111,0.181-1.473,0.543c-0.363,0.362-0.544,0.862-0.544,1.5
			c0,0.62,0.173,1.106,0.52,1.459s0.822,0.53,1.429,0.53c0.538,0,1.064-0.168,1.579-0.506V190.561z"/>
		<path fill="#2F2F2F" d="M409.726,187.929h-4.566c0.073,1.016,0.713,1.524,1.921,1.524c0.771,0,1.447-0.182,2.03-0.547v1.559
			c-0.647,0.346-1.488,0.52-2.522,0.52c-1.13,0-2.008-0.313-2.632-0.94s-0.937-1.5-0.937-2.622c0-1.162,0.337-2.083,1.012-2.762
			s1.504-1.019,2.488-1.019c1.021,0,1.811,0.303,2.369,0.909c0.558,0.606,0.837,1.429,0.837,2.468V187.929z M407.723,186.603
			c0-1.002-0.405-1.504-1.217-1.504c-0.347,0-0.646,0.144-0.898,0.431c-0.254,0.287-0.407,0.645-0.462,1.073H407.723z"/>
		<path fill="#2F2F2F" d="M415.657,185.762c-0.26-0.141-0.562-0.212-0.909-0.212c-0.47,0-0.836,0.172-1.101,0.516
			s-0.396,0.812-0.396,1.405v3.343h-2.16v-7h2.16v1.299h0.027c0.342-0.948,0.957-1.422,1.846-1.422c0.228,0,0.405,0.027,0.533,0.082
			V185.762z"/>
		<path fill="#2F2F2F" d="M355.682,197.811l-4.778,11.43h-1.928l4.758-11.43H355.682z"/>
		<path fill="#2F2F2F" d="M373.326,197.811l-2.591,9.803h-2.447l-1.627-6.289c-0.087-0.328-0.139-0.695-0.157-1.101h-0.027
			c-0.041,0.447-0.101,0.813-0.178,1.101l-1.668,6.289h-2.55l-2.577-9.803h2.413l1.381,6.528c0.06,0.278,0.103,0.652,0.13,1.121
			h0.041c0.019-0.351,0.084-0.734,0.198-1.148l1.777-6.501h2.365l1.606,6.583c0.06,0.242,0.111,0.592,0.157,1.053h0.027
			c0.019-0.36,0.066-0.725,0.144-1.094l1.354-6.542H373.326z"/>
		<path fill="#2F2F2F" d="M382.625,207.613h-2.406l-0.697-2.181h-3.486l-0.69,2.181h-2.393l3.568-9.803h2.618L382.625,207.613z
			 M379.015,203.737l-1.053-3.295c-0.077-0.246-0.132-0.54-0.164-0.882h-0.055c-0.022,0.287-0.08,0.572-0.171,0.854l-1.066,3.322
			H379.015z"/>
		<path fill="#2F2F2F" d="M389.395,199.608h-3.459v2.406h3.179v1.791h-3.179v3.808h-2.208v-9.803h5.667V199.608z"/>
	</g>
	<g>
		<path fill="#2F2F2F" d="M224.66,190.813v-9.803h3.473c3.481,0,5.223,1.593,5.223,4.778c0,1.527-0.475,2.746-1.426,3.657
			c-0.949,0.912-2.216,1.367-3.797,1.367H224.66z M226.868,182.808v6.214h1.094c0.957,0,1.708-0.287,2.253-0.861
			c0.544-0.574,0.816-1.356,0.816-2.345c0-0.934-0.27-1.669-0.811-2.205c-0.539-0.536-1.297-0.803-2.272-0.803H226.868z"/>
		<path fill="#2F2F2F" d="M234.924,190.813v-9.803h3.473c3.481,0,5.223,1.593,5.223,4.778c0,1.527-0.475,2.746-1.426,3.657
			c-0.949,0.912-2.216,1.367-3.797,1.367H234.924z M237.132,182.808v6.214h1.094c0.957,0,1.708-0.287,2.253-0.861
			c0.544-0.574,0.816-1.356,0.816-2.345c0-0.934-0.27-1.669-0.811-2.205c-0.539-0.536-1.297-0.803-2.272-0.803H237.132z"/>
		<path fill="#2F2F2F" d="M248.363,190.984c-1.167,0-2.084-0.327-2.751-0.981c-0.668-0.654-1.002-1.542-1.002-2.663
			c0-1.158,0.347-2.063,1.039-2.717s1.629-0.981,2.81-0.981c1.162,0,2.073,0.327,2.734,0.981s0.991,1.519,0.991,2.594
			c0,1.162-0.341,2.081-1.021,2.755C250.481,190.646,249.548,190.984,248.363,190.984z M248.418,185.296
			c-0.511,0-0.907,0.175-1.189,0.526s-0.424,0.848-0.424,1.49c0,1.344,0.542,2.017,1.627,2.017c1.034,0,1.552-0.69,1.552-2.071
			C249.983,185.95,249.462,185.296,248.418,185.296z"/>
		<path fill="#2F2F2F" d="M253.283,190.437v-2.188c0.396,0.333,0.827,0.582,1.292,0.749s0.935,0.25,1.408,0.25
			c0.278,0,0.521-0.025,0.728-0.075c0.208-0.05,0.381-0.12,0.52-0.208c0.14-0.089,0.243-0.194,0.312-0.314s0.103-0.252,0.103-0.393
			c0-0.191-0.055-0.362-0.164-0.513s-0.259-0.29-0.447-0.417c-0.189-0.127-0.414-0.25-0.674-0.369s-0.54-0.239-0.841-0.362
			c-0.766-0.319-1.337-0.708-1.712-1.169c-0.377-0.46-0.564-1.016-0.564-1.668c0-0.51,0.103-0.949,0.308-1.316
			s0.484-0.669,0.837-0.906c0.354-0.237,0.763-0.411,1.228-0.523c0.465-0.112,0.957-0.167,1.477-0.167
			c0.511,0,0.963,0.031,1.356,0.092c0.395,0.062,0.758,0.156,1.091,0.284v2.044c-0.164-0.114-0.343-0.214-0.536-0.301
			c-0.194-0.086-0.394-0.158-0.599-0.215s-0.409-0.099-0.612-0.126c-0.202-0.027-0.395-0.041-0.577-0.041
			c-0.251,0-0.479,0.024-0.684,0.072s-0.378,0.115-0.52,0.202c-0.142,0.086-0.251,0.19-0.328,0.311s-0.116,0.256-0.116,0.407
			c0,0.164,0.043,0.311,0.13,0.441s0.21,0.253,0.369,0.369c0.159,0.116,0.354,0.23,0.581,0.342s0.485,0.227,0.772,0.345
			c0.392,0.164,0.744,0.338,1.056,0.523c0.312,0.185,0.58,0.393,0.804,0.625s0.395,0.498,0.513,0.796s0.178,0.646,0.178,1.042
			c0,0.547-0.104,1.006-0.311,1.377c-0.208,0.372-0.489,0.672-0.845,0.902s-0.769,0.396-1.241,0.496
			c-0.471,0.1-0.969,0.15-1.493,0.15c-0.538,0-1.05-0.045-1.534-0.137C254.058,190.756,253.638,190.619,253.283,190.437z"/>
		<path fill="#2F2F2F" d="M210.839,204.236v3.377h-2.208v-9.803h3.459c2.47,0,3.705,1.042,3.705,3.124
			c0,0.984-0.354,1.781-1.062,2.389c-0.709,0.608-1.656,0.913-2.841,0.913H210.839z M210.839,199.505v3.056h0.868
			c1.176,0,1.764-0.515,1.764-1.545c0-1.007-0.588-1.511-1.764-1.511H210.839z"/>
		<path fill="#2F2F2F" d="M221.465,202.561c-0.26-0.141-0.562-0.212-0.909-0.212c-0.47,0-0.836,0.172-1.101,0.516
			s-0.396,0.812-0.396,1.405v3.343h-2.16v-7h2.16v1.299h0.027c0.342-0.948,0.957-1.422,1.846-1.422c0.228,0,0.405,0.027,0.533,0.082
			V202.561z"/>
		<path fill="#2F2F2F" d="M225.89,207.784c-1.167,0-2.084-0.327-2.751-0.981c-0.668-0.654-1.002-1.542-1.002-2.663
			c0-1.158,0.347-2.063,1.039-2.717s1.629-0.981,2.81-0.981c1.162,0,2.073,0.327,2.734,0.981s0.991,1.519,0.991,2.594
			c0,1.162-0.341,2.081-1.021,2.755C228.009,207.446,227.075,207.784,225.89,207.784z M225.945,202.096
			c-0.511,0-0.907,0.175-1.189,0.526s-0.424,0.848-0.424,1.49c0,1.344,0.542,2.017,1.627,2.017c1.034,0,1.552-0.69,1.552-2.071
			C227.511,202.75,226.989,202.096,225.945,202.096z"/>
		<path fill="#2F2F2F" d="M235.287,207.531c-0.319,0.168-0.8,0.253-1.442,0.253c-1.522,0-2.283-0.791-2.283-2.372v-3.206h-1.135
			v-1.593h1.135v-1.511l2.153-0.615v2.126h1.572v1.593h-1.572v2.83c0,0.729,0.289,1.094,0.868,1.094
			c0.228,0,0.463-0.066,0.704-0.198V207.531z"/>
		<path fill="#2F2F2F" d="M242.773,204.728h-4.566c0.073,1.016,0.713,1.524,1.921,1.524c0.771,0,1.447-0.182,2.03-0.547v1.559
			c-0.647,0.346-1.488,0.52-2.522,0.52c-1.13,0-2.008-0.313-2.632-0.94s-0.937-1.5-0.937-2.622c0-1.162,0.337-2.083,1.012-2.762
			s1.504-1.019,2.488-1.019c1.021,0,1.811,0.303,2.369,0.909c0.558,0.606,0.837,1.429,0.837,2.468V204.728z M240.77,203.402
			c0-1.002-0.405-1.504-1.217-1.504c-0.347,0-0.646,0.144-0.898,0.431c-0.254,0.287-0.407,0.645-0.462,1.073H240.77z"/>
		<path fill="#2F2F2F" d="M249.444,207.36c-0.487,0.283-1.191,0.424-2.112,0.424c-1.075,0-1.946-0.326-2.611-0.978
			s-0.998-1.493-0.998-2.522c0-1.189,0.356-2.127,1.07-2.813c0.713-0.686,1.666-1.029,2.86-1.029c0.825,0,1.422,0.109,1.791,0.328
			v1.832c-0.451-0.337-0.955-0.506-1.511-0.506c-0.62,0-1.111,0.181-1.473,0.543c-0.363,0.362-0.544,0.862-0.544,1.5
			c0,0.62,0.173,1.106,0.52,1.459s0.822,0.53,1.429,0.53c0.538,0,1.064-0.168,1.579-0.506V207.36z"/>
		<path fill="#2F2F2F" d="M255.173,207.531c-0.319,0.168-0.8,0.253-1.442,0.253c-1.522,0-2.283-0.791-2.283-2.372v-3.206h-1.135
			v-1.593h1.135v-1.511l2.153-0.615v2.126h1.572v1.593H253.6v2.83c0,0.729,0.289,1.094,0.868,1.094c0.228,0,0.463-0.066,0.704-0.198
			V207.531z"/>
		<path fill="#2F2F2F" d="M257.55,199.505c-0.364,0-0.663-0.108-0.896-0.325s-0.349-0.482-0.349-0.796
			c0-0.324,0.116-0.588,0.349-0.793s0.531-0.308,0.896-0.308c0.369,0,0.669,0.103,0.899,0.308c0.229,0.205,0.345,0.469,0.345,0.793
			c0,0.328-0.115,0.597-0.345,0.807C258.219,199.4,257.919,199.505,257.55,199.505z M258.616,207.613h-2.16v-7h2.16V207.613z"/>
		<path fill="#2F2F2F" d="M263.727,207.784c-1.167,0-2.084-0.327-2.751-0.981c-0.668-0.654-1.002-1.542-1.002-2.663
			c0-1.158,0.347-2.063,1.039-2.717s1.629-0.981,2.81-0.981c1.162,0,2.073,0.327,2.734,0.981s0.991,1.519,0.991,2.594
			c0,1.162-0.341,2.081-1.021,2.755C265.846,207.446,264.912,207.784,263.727,207.784z M263.782,202.096
			c-0.511,0-0.907,0.175-1.189,0.526s-0.424,0.848-0.424,1.49c0,1.344,0.542,2.017,1.627,2.017c1.034,0,1.552-0.69,1.552-2.071
			C265.347,202.75,264.826,202.096,263.782,202.096z"/>
		<path fill="#2F2F2F" d="M275.689,207.613h-2.153v-3.89c0-1.084-0.388-1.627-1.162-1.627c-0.374,0-0.682,0.144-0.923,0.431
			s-0.362,0.652-0.362,1.094v3.992h-2.16v-7h2.16v1.107h0.027c0.515-0.852,1.265-1.278,2.249-1.278c1.55,0,2.324,0.961,2.324,2.885
			V207.613z"/>
	</g>
	<g>
		<path fill="#2F2F2F" d="M227.729,117.036v3.377h-2.208v-9.803h3.459c2.47,0,3.705,1.042,3.705,3.124
			c0,0.984-0.354,1.781-1.062,2.389c-0.709,0.608-1.656,0.913-2.841,0.913H227.729z M227.729,112.305v3.056h0.868
			c1.176,0,1.764-0.515,1.764-1.545c0-1.007-0.588-1.511-1.764-1.511H227.729z"/>
		<path fill="#2F2F2F" d="M240.489,120.413h-2.153v-1.066h-0.034c-0.533,0.825-1.246,1.237-2.14,1.237
			c-1.622,0-2.434-0.982-2.434-2.946v-4.225h2.153v4.033c0,0.989,0.392,1.483,1.176,1.483c0.388,0,0.697-0.136,0.93-0.407
			s0.349-0.639,0.349-1.104v-4.006h2.153V120.413z"/>
		<path fill="#2F2F2F" d="M244.444,119.599h-0.027v0.813h-2.16v-10.363h2.16v4.416h0.027c0.533-0.816,1.292-1.224,2.276-1.224
			c0.902,0,1.598,0.31,2.085,0.93s0.731,1.467,0.731,2.543c0,1.167-0.285,2.103-0.854,2.81s-1.331,1.06-2.283,1.06
			C245.538,120.583,244.887,120.255,244.444,119.599z M244.383,116.646v0.718c0,0.451,0.13,0.825,0.39,1.121
			s0.593,0.444,0.998,0.444c0.492,0,0.874-0.19,1.146-0.571c0.271-0.38,0.406-0.919,0.406-1.617c0-0.579-0.124-1.031-0.373-1.357
			c-0.248-0.326-0.603-0.489-1.062-0.489c-0.433,0-0.792,0.162-1.076,0.485C244.525,115.705,244.383,116.126,244.383,116.646z"/>
		<path fill="#2F2F2F" d="M253.127,120.413h-2.16v-10.363h2.16V120.413z"/>
		<path fill="#2F2F2F" d="M255.996,112.305c-0.364,0-0.663-0.108-0.896-0.325s-0.349-0.482-0.349-0.796
			c0-0.324,0.116-0.588,0.349-0.793s0.531-0.308,0.896-0.308c0.369,0,0.669,0.103,0.899,0.308c0.229,0.205,0.345,0.469,0.345,0.793
			c0,0.328-0.115,0.597-0.345,0.807C256.665,112.2,256.365,112.305,255.996,112.305z M257.062,120.413h-2.16v-7h2.16V120.413z"/>
		<path fill="#2F2F2F" d="M264.141,120.16c-0.487,0.283-1.191,0.424-2.112,0.424c-1.075,0-1.946-0.326-2.611-0.978
			s-0.998-1.493-0.998-2.522c0-1.189,0.356-2.127,1.07-2.813c0.713-0.686,1.666-1.029,2.86-1.029c0.825,0,1.422,0.109,1.791,0.328
			v1.832c-0.451-0.337-0.955-0.506-1.511-0.506c-0.62,0-1.111,0.181-1.473,0.543c-0.363,0.362-0.544,0.862-0.544,1.5
			c0,0.62,0.173,1.106,0.52,1.459s0.822,0.53,1.429,0.53c0.538,0,1.064-0.168,1.579-0.506V120.16z"/>
		<path fill="#2F2F2F" d="M271.839,120.413h-2.208v-9.803h2.208V120.413z"/>
		<path fill="#2F2F2F" d="M276.162,117.036v3.377h-2.208v-9.803h3.459c2.47,0,3.705,1.042,3.705,3.124
			c0,0.984-0.354,1.781-1.062,2.389c-0.709,0.608-1.656,0.913-2.841,0.913H276.162z M276.162,112.305v3.056h0.868
			c1.176,0,1.764-0.515,1.764-1.545c0-1.007-0.588-1.511-1.764-1.511H276.162z"/>
		<path fill="#2F2F2F" d="M286.783,110.61l-4.778,11.43h-1.928l4.758-11.43H286.783z"/>
		<path fill="#2F2F2F" d="M287.758,120.413v-9.803h3.473c3.481,0,5.223,1.593,5.223,4.778c0,1.527-0.475,2.746-1.426,3.657
			c-0.949,0.912-2.216,1.367-3.797,1.367H287.758z M289.966,112.408v6.214h1.094c0.957,0,1.708-0.287,2.253-0.861
			c0.544-0.574,0.816-1.356,0.816-2.345c0-0.934-0.27-1.669-0.811-2.205c-0.539-0.536-1.297-0.803-2.272-0.803H289.966z"/>
		<path fill="#2F2F2F" d="M306.84,120.413h-2.229l-4.04-6.159c-0.237-0.36-0.401-0.631-0.492-0.813h-0.027
			c0.036,0.346,0.055,0.875,0.055,1.586v5.387h-2.085v-9.803h2.379l3.89,5.968c0.178,0.269,0.342,0.536,0.492,0.8h0.027
			c-0.036-0.228-0.055-0.677-0.055-1.347v-5.421h2.085V120.413z"/>
		<path fill="#2F2F2F" d="M308.626,120.037v-2.188c0.396,0.333,0.827,0.582,1.292,0.749s0.935,0.25,1.408,0.25
			c0.278,0,0.521-0.025,0.728-0.075c0.208-0.05,0.381-0.12,0.52-0.208c0.14-0.089,0.243-0.194,0.312-0.314s0.103-0.252,0.103-0.393
			c0-0.191-0.055-0.362-0.164-0.513s-0.259-0.29-0.447-0.417c-0.189-0.127-0.414-0.25-0.674-0.369s-0.54-0.239-0.841-0.362
			c-0.766-0.319-1.337-0.708-1.712-1.169c-0.377-0.46-0.564-1.016-0.564-1.668c0-0.51,0.103-0.949,0.308-1.316
			s0.484-0.669,0.837-0.906c0.354-0.237,0.763-0.411,1.228-0.523s0.957-0.167,1.477-0.167c0.511,0,0.963,0.031,1.356,0.092
			c0.395,0.062,0.758,0.156,1.091,0.284v2.044c-0.164-0.114-0.343-0.214-0.536-0.301c-0.194-0.086-0.394-0.158-0.599-0.215
			s-0.409-0.099-0.612-0.126c-0.202-0.027-0.395-0.041-0.577-0.041c-0.251,0-0.479,0.024-0.684,0.072s-0.378,0.115-0.52,0.202
			s-0.251,0.19-0.328,0.311s-0.116,0.256-0.116,0.407c0,0.164,0.043,0.311,0.13,0.441s0.21,0.253,0.369,0.369
			s0.354,0.23,0.581,0.342s0.485,0.227,0.772,0.345c0.392,0.164,0.744,0.338,1.056,0.523c0.312,0.185,0.58,0.393,0.804,0.625
			s0.395,0.498,0.513,0.796s0.178,0.646,0.178,1.042c0,0.547-0.104,1.006-0.311,1.377c-0.208,0.372-0.489,0.672-0.845,0.902
			s-0.769,0.396-1.241,0.496c-0.471,0.1-0.969,0.15-1.493,0.15c-0.538,0-1.05-0.045-1.534-0.137
			C309.401,120.355,308.981,120.219,308.626,120.037z"/>
		<path fill="#2F2F2F" d="M321.696,114.577h10.459l-1.081-1.055v-1.301l2.812,2.918v0.035l-2.812,2.918v-1.301l1.063-1.037h-10.441
			V114.577z"/>
	</g>
	<g>
		<path fill="#2F2F2F" d="M237.9,137.754h-10.459l1.081,1.037v1.301l-2.804-2.918v-0.035l2.804-2.918v1.301l-1.099,1.055H237.9
			V137.754z"/>
		<path fill="#2F2F2F" d="M250.984,139.036v3.377h-2.208v-9.803h3.459c2.47,0,3.705,1.042,3.705,3.124
			c0,0.984-0.354,1.781-1.062,2.389c-0.709,0.608-1.656,0.913-2.841,0.913H250.984z M250.984,134.305v3.056h0.868
			c1.176,0,1.764-0.515,1.764-1.545c0-1.007-0.588-1.511-1.764-1.511H250.984z"/>
		<path fill="#2F2F2F" d="M261.61,137.361c-0.26-0.141-0.562-0.212-0.909-0.212c-0.47,0-0.836,0.172-1.101,0.516
			s-0.396,0.812-0.396,1.405v3.343h-2.16v-7h2.16v1.299h0.027c0.342-0.948,0.957-1.422,1.846-1.422c0.228,0,0.405,0.027,0.533,0.082
			V137.361z"/>
		<path fill="#2F2F2F" d="M263.696,134.305c-0.364,0-0.663-0.108-0.896-0.325s-0.349-0.482-0.349-0.796
			c0-0.324,0.116-0.588,0.349-0.793s0.531-0.308,0.896-0.308c0.369,0,0.669,0.103,0.899,0.308c0.229,0.205,0.345,0.469,0.345,0.793
			c0,0.328-0.115,0.597-0.345,0.807C264.365,134.2,264.065,134.305,263.696,134.305z M264.763,142.413h-2.16v-7h2.16V142.413z"/>
		<path fill="#2F2F2F" d="M273.266,135.413l-2.604,7h-2.461l-2.481-7h2.311l1.217,4.313c0.137,0.488,0.217,0.902,0.239,1.244h0.027
			c0.032-0.324,0.116-0.725,0.253-1.203l1.244-4.354H273.266z"/>
		<path fill="#2F2F2F" d="M279.923,142.413h-2.044v-1.005h-0.027c-0.47,0.784-1.164,1.176-2.085,1.176
			c-0.679,0-1.214-0.192-1.603-0.578c-0.391-0.385-0.585-0.899-0.585-1.542c0-1.358,0.805-2.142,2.413-2.352l1.9-0.253
			c0-0.766-0.415-1.148-1.244-1.148c-0.834,0-1.627,0.249-2.379,0.745v-1.627c0.301-0.155,0.712-0.292,1.234-0.41
			c0.521-0.119,0.996-0.178,1.425-0.178c1.996,0,2.994,0.996,2.994,2.987V142.413z M277.892,139.569v-0.472l-1.271,0.164
			c-0.702,0.091-1.053,0.408-1.053,0.95c0,0.246,0.086,0.448,0.256,0.605c0.172,0.157,0.402,0.236,0.694,0.236
			c0.405,0,0.736-0.14,0.991-0.42S277.892,139.997,277.892,139.569z"/>
		<path fill="#2F2F2F" d="M285.751,142.331c-0.319,0.168-0.8,0.253-1.442,0.253c-1.522,0-2.283-0.791-2.283-2.372v-3.206h-1.135
			v-1.593h1.135v-1.511l2.153-0.615v2.126h1.572v1.593h-1.572v2.83c0,0.729,0.289,1.094,0.868,1.094
			c0.228,0,0.463-0.066,0.704-0.198V142.331z"/>
		<path fill="#2F2F2F" d="M293.237,139.528h-4.566c0.073,1.016,0.713,1.524,1.921,1.524c0.771,0,1.447-0.182,2.03-0.547v1.559
			c-0.647,0.346-1.488,0.52-2.522,0.52c-1.13,0-2.008-0.313-2.632-0.94s-0.937-1.5-0.937-2.622c0-1.162,0.337-2.083,1.012-2.762
			s1.504-1.019,2.488-1.019c1.021,0,1.811,0.303,2.369,0.909c0.558,0.606,0.837,1.429,0.837,2.468V139.528z M291.234,138.202
			c0-1.002-0.405-1.504-1.217-1.504c-0.347,0-0.646,0.144-0.898,0.431c-0.254,0.287-0.407,0.645-0.462,1.073H291.234z"/>
		<path fill="#2F2F2F" d="M300.805,142.413h-2.208v-9.803h2.208V142.413z"/>
		<path fill="#2F2F2F" d="M305.128,139.036v3.377h-2.208v-9.803h3.459c2.47,0,3.705,1.042,3.705,3.124
			c0,0.984-0.354,1.781-1.062,2.389c-0.709,0.608-1.656,0.913-2.841,0.913H305.128z M305.128,134.305v3.056h0.868
			c1.176,0,1.764-0.515,1.764-1.545c0-1.007-0.588-1.511-1.764-1.511H305.128z"/>
		<path fill="#2F2F2F" d="M315.749,132.61l-4.778,11.43h-1.928l4.758-11.43H315.749z"/>
		<path fill="#2F2F2F" d="M316.724,142.413v-9.803h3.473c3.481,0,5.223,1.593,5.223,4.778c0,1.527-0.475,2.746-1.426,3.657
			c-0.949,0.912-2.216,1.367-3.797,1.367H316.724z M318.932,134.408v6.214h1.094c0.957,0,1.708-0.287,2.253-0.861
			c0.544-0.574,0.816-1.356,0.816-2.345c0-0.934-0.27-1.669-0.811-2.205c-0.539-0.536-1.297-0.803-2.272-0.803H318.932z"/>
		<path fill="#2F2F2F" d="M335.806,142.413h-2.229l-4.04-6.159c-0.237-0.36-0.401-0.631-0.492-0.813h-0.027
			c0.036,0.346,0.055,0.875,0.055,1.586v5.387h-2.085v-9.803h2.379l3.89,5.968c0.178,0.269,0.342,0.536,0.492,0.8h0.027
			c-0.036-0.228-0.055-0.677-0.055-1.347v-5.421h2.085V142.413z"/>
		<path fill="#2F2F2F" d="M337.592,142.037v-2.188c0.396,0.333,0.827,0.582,1.292,0.749s0.935,0.25,1.408,0.25
			c0.278,0,0.521-0.025,0.728-0.075c0.208-0.05,0.381-0.12,0.52-0.208c0.14-0.089,0.243-0.194,0.312-0.314s0.103-0.252,0.103-0.393
			c0-0.191-0.055-0.362-0.164-0.513s-0.259-0.29-0.447-0.417c-0.189-0.127-0.414-0.25-0.674-0.369s-0.54-0.239-0.841-0.362
			c-0.766-0.319-1.337-0.708-1.712-1.169c-0.377-0.46-0.564-1.016-0.564-1.668c0-0.51,0.103-0.949,0.308-1.316
			s0.484-0.669,0.837-0.906c0.354-0.237,0.763-0.411,1.228-0.523s0.957-0.167,1.477-0.167c0.511,0,0.963,0.031,1.356,0.092
			c0.395,0.062,0.758,0.156,1.091,0.284v2.044c-0.164-0.114-0.343-0.214-0.536-0.301c-0.194-0.086-0.394-0.158-0.599-0.215
			s-0.409-0.099-0.612-0.126c-0.202-0.027-0.395-0.041-0.577-0.041c-0.251,0-0.479,0.024-0.684,0.072s-0.378,0.115-0.52,0.202
			s-0.251,0.19-0.328,0.311s-0.116,0.256-0.116,0.407c0,0.164,0.043,0.311,0.13,0.441s0.21,0.253,0.369,0.369
			s0.354,0.23,0.581,0.342s0.485,0.227,0.772,0.345c0.392,0.164,0.744,0.338,1.056,0.523c0.312,0.185,0.58,0.393,0.804,0.625
			s0.395,0.498,0.513,0.796s0.178,0.646,0.178,1.042c0,0.547-0.104,1.006-0.311,1.377c-0.208,0.372-0.489,0.672-0.845,0.902
			s-0.769,0.396-1.241,0.496c-0.471,0.1-0.969,0.15-1.493,0.15c-0.538,0-1.05-0.045-1.534-0.137
			C338.367,142.355,337.947,142.219,337.592,142.037z"/>
	</g>
	<g>
		<path fill="#2F2F2F" d="M117.658,155.613h-1.148v-9.803h1.148V155.613z"/>
		<path fill="#2F2F2F" d="M125.733,155.613h-1.121v-3.992c0-1.486-0.542-2.229-1.627-2.229c-0.561,0-1.024,0.211-1.391,0.632
			c-0.367,0.421-0.551,0.954-0.551,1.596v3.992h-1.121v-7h1.121v1.162h0.027c0.528-0.884,1.294-1.326,2.297-1.326
			c0.766,0,1.352,0.247,1.757,0.742s0.608,1.209,0.608,2.143V155.613z"/>
		<path fill="#2F2F2F" d="M133.807,155.052c0,2.57-1.23,3.855-3.691,3.855c-0.866,0-1.622-0.164-2.27-0.492v-1.121
			c0.788,0.438,1.54,0.656,2.256,0.656c1.723,0,2.584-0.916,2.584-2.748v-0.766h-0.027c-0.533,0.893-1.335,1.34-2.406,1.34
			c-0.87,0-1.571-0.311-2.102-0.933c-0.531-0.622-0.797-1.457-0.797-2.505c0-1.189,0.286-2.135,0.857-2.837
			c0.572-0.702,1.355-1.053,2.349-1.053c0.943,0,1.643,0.378,2.099,1.135h0.027v-0.971h1.121V155.052z M132.686,152.448v-1.032
			c0-0.556-0.188-1.032-0.564-1.429c-0.375-0.396-0.844-0.595-1.404-0.595c-0.692,0-1.235,0.252-1.627,0.755
			s-0.588,1.209-0.588,2.116c0,0.779,0.188,1.402,0.564,1.87c0.375,0.467,0.873,0.701,1.493,0.701c0.629,0,1.141-0.223,1.534-0.67
			C132.489,153.717,132.686,153.145,132.686,152.448z"/>
		<path fill="#2F2F2F" d="M139.565,149.748c-0.196-0.15-0.479-0.226-0.848-0.226c-0.479,0-0.879,0.226-1.199,0.677
			c-0.322,0.451-0.482,1.066-0.482,1.846v3.568h-1.121v-7h1.121v1.442h0.027c0.159-0.492,0.403-0.876,0.731-1.152
			s0.695-0.414,1.101-0.414c0.292,0,0.515,0.032,0.67,0.096V149.748z"/>
		<path fill="#2F2F2F" d="M146.408,152.393h-4.942c0.019,0.779,0.228,1.381,0.629,1.805s0.952,0.636,1.654,0.636
			c0.788,0,1.513-0.26,2.174-0.779v1.053c-0.615,0.447-1.429,0.67-2.44,0.67c-0.989,0-1.766-0.318-2.331-0.954
			s-0.848-1.53-0.848-2.683c0-1.089,0.309-1.977,0.926-2.663c0.618-0.686,1.385-1.029,2.301-1.029s1.625,0.296,2.126,0.889
			s0.752,1.415,0.752,2.468V152.393z M145.26,151.443c-0.005-0.647-0.161-1.151-0.468-1.511c-0.309-0.36-0.735-0.54-1.282-0.54
			c-0.528,0-0.978,0.189-1.347,0.567s-0.597,0.873-0.684,1.483H145.26z"/>
		<path fill="#2F2F2F" d="M147.649,155.36v-1.203c0.61,0.451,1.283,0.677,2.017,0.677c0.984,0,1.477-0.328,1.477-0.984
			c0-0.187-0.042-0.345-0.126-0.475c-0.085-0.13-0.199-0.245-0.342-0.345c-0.145-0.1-0.312-0.19-0.506-0.27
			c-0.194-0.08-0.402-0.163-0.626-0.25c-0.31-0.123-0.582-0.247-0.817-0.373c-0.234-0.125-0.43-0.267-0.588-0.424
			c-0.156-0.157-0.275-0.336-0.355-0.537c-0.079-0.201-0.119-0.435-0.119-0.704c0-0.328,0.075-0.619,0.226-0.872
			s0.351-0.465,0.602-0.636s0.536-0.3,0.858-0.386c0.32-0.086,0.652-0.13,0.994-0.13c0.606,0,1.148,0.105,1.627,0.314v1.135
			c-0.515-0.337-1.107-0.506-1.777-0.506c-0.21,0-0.398,0.024-0.567,0.072s-0.313,0.115-0.435,0.202
			c-0.12,0.086-0.214,0.19-0.279,0.311c-0.066,0.121-0.1,0.254-0.1,0.4c0,0.182,0.033,0.335,0.1,0.458
			c0.065,0.123,0.162,0.232,0.29,0.328s0.282,0.182,0.465,0.26s0.39,0.162,0.622,0.253c0.31,0.119,0.588,0.24,0.834,0.366
			s0.456,0.267,0.629,0.424s0.307,0.338,0.4,0.543c0.093,0.205,0.14,0.449,0.14,0.731c0,0.346-0.076,0.647-0.229,0.902
			c-0.152,0.255-0.356,0.467-0.611,0.636s-0.549,0.294-0.882,0.376s-0.682,0.123-1.046,0.123
			C148.803,155.777,148.178,155.638,147.649,155.36z"/>
		<path fill="#2F2F2F" d="M153.576,155.36v-1.203c0.61,0.451,1.283,0.677,2.017,0.677c0.984,0,1.477-0.328,1.477-0.984
			c0-0.187-0.042-0.345-0.126-0.475c-0.085-0.13-0.199-0.245-0.342-0.345c-0.145-0.1-0.312-0.19-0.506-0.27
			c-0.194-0.08-0.402-0.163-0.626-0.25c-0.31-0.123-0.582-0.247-0.817-0.373c-0.234-0.125-0.43-0.267-0.588-0.424
			c-0.156-0.157-0.275-0.336-0.355-0.537c-0.079-0.201-0.119-0.435-0.119-0.704c0-0.328,0.075-0.619,0.226-0.872
			s0.351-0.465,0.602-0.636s0.536-0.3,0.858-0.386c0.32-0.086,0.652-0.13,0.994-0.13c0.606,0,1.148,0.105,1.627,0.314v1.135
			c-0.515-0.337-1.107-0.506-1.777-0.506c-0.21,0-0.398,0.024-0.567,0.072s-0.313,0.115-0.435,0.202
			c-0.12,0.086-0.214,0.19-0.279,0.311c-0.066,0.121-0.1,0.254-0.1,0.4c0,0.182,0.033,0.335,0.1,0.458
			c0.065,0.123,0.162,0.232,0.29,0.328s0.282,0.182,0.465,0.26s0.39,0.162,0.622,0.253c0.31,0.119,0.588,0.24,0.834,0.366
			s0.456,0.267,0.629,0.424s0.307,0.338,0.4,0.543c0.093,0.205,0.14,0.449,0.14,0.731c0,0.346-0.076,0.647-0.229,0.902
			c-0.152,0.255-0.356,0.467-0.611,0.636s-0.549,0.294-0.882,0.376s-0.682,0.123-1.046,0.123
			C154.729,155.777,154.104,155.638,153.576,155.36z"/>
	</g>
	<g>
		<path fill="#2F2F2F" d="M120.056,243.613h-5.195v-9.803h4.977v1.039h-3.828v3.261h3.541v1.032h-3.541v3.432h4.047V243.613z"/>
		<path fill="#2F2F2F" d="M127.382,243.613h-1.121v-3.992c0-1.486-0.542-2.229-1.627-2.229c-0.561,0-1.024,0.211-1.391,0.632
			c-0.367,0.421-0.551,0.954-0.551,1.596v3.992h-1.121v-7h1.121v1.162h0.027c0.528-0.884,1.294-1.326,2.297-1.326
			c0.766,0,1.352,0.247,1.757,0.742s0.608,1.209,0.608,2.143V243.613z"/>
		<path fill="#2F2F2F" d="M135.457,243.052c0,2.57-1.23,3.855-3.691,3.855c-0.866,0-1.622-0.164-2.27-0.492v-1.121
			c0.788,0.438,1.54,0.656,2.256,0.656c1.723,0,2.584-0.916,2.584-2.748v-0.766h-0.027c-0.533,0.893-1.335,1.34-2.406,1.34
			c-0.87,0-1.571-0.311-2.102-0.933c-0.531-0.622-0.797-1.457-0.797-2.505c0-1.189,0.286-2.135,0.857-2.837
			c0.572-0.702,1.355-1.053,2.349-1.053c0.943,0,1.643,0.378,2.099,1.135h0.027v-0.971h1.121V243.052z M134.336,240.448v-1.032
			c0-0.556-0.188-1.032-0.564-1.429c-0.375-0.396-0.844-0.595-1.404-0.595c-0.692,0-1.235,0.252-1.627,0.755
			s-0.588,1.209-0.588,2.116c0,0.779,0.188,1.402,0.564,1.87c0.375,0.467,0.873,0.701,1.493,0.701c0.629,0,1.141-0.223,1.534-0.67
			C134.138,241.717,134.336,241.145,134.336,240.448z"/>
		<path fill="#2F2F2F" d="M141.214,237.748c-0.196-0.15-0.479-0.226-0.848-0.226c-0.479,0-0.879,0.226-1.199,0.677
			c-0.322,0.451-0.482,1.066-0.482,1.846v3.568h-1.121v-7h1.121v1.442h0.027c0.159-0.492,0.403-0.876,0.731-1.152
			s0.695-0.414,1.101-0.414c0.292,0,0.515,0.032,0.67,0.096V237.748z"/>
		<path fill="#2F2F2F" d="M148.056,240.393h-4.942c0.019,0.779,0.228,1.381,0.629,1.805s0.952,0.636,1.654,0.636
			c0.788,0,1.513-0.26,2.174-0.779v1.053c-0.615,0.447-1.429,0.67-2.44,0.67c-0.989,0-1.766-0.318-2.331-0.954
			s-0.848-1.53-0.848-2.683c0-1.089,0.309-1.977,0.926-2.663c0.618-0.686,1.385-1.029,2.301-1.029s1.625,0.296,2.126,0.889
			s0.752,1.415,0.752,2.468V240.393z M146.908,239.443c-0.005-0.647-0.161-1.151-0.468-1.511c-0.309-0.36-0.735-0.54-1.282-0.54
			c-0.528,0-0.978,0.189-1.347,0.567s-0.597,0.873-0.684,1.483H146.908z"/>
		<path fill="#2F2F2F" d="M149.299,243.36v-1.203c0.61,0.451,1.283,0.677,2.017,0.677c0.984,0,1.477-0.328,1.477-0.984
			c0-0.187-0.042-0.345-0.126-0.475c-0.085-0.13-0.199-0.245-0.342-0.345c-0.145-0.1-0.312-0.19-0.506-0.27
			c-0.194-0.08-0.402-0.163-0.626-0.25c-0.31-0.123-0.582-0.247-0.817-0.373c-0.234-0.125-0.43-0.267-0.588-0.424
			c-0.156-0.157-0.275-0.336-0.355-0.537c-0.079-0.201-0.119-0.435-0.119-0.704c0-0.328,0.075-0.619,0.226-0.872
			s0.351-0.465,0.602-0.636s0.536-0.3,0.858-0.386c0.32-0.086,0.652-0.13,0.994-0.13c0.606,0,1.148,0.105,1.627,0.314v1.135
			c-0.515-0.337-1.107-0.506-1.777-0.506c-0.21,0-0.398,0.024-0.567,0.072s-0.313,0.115-0.435,0.202
			c-0.12,0.086-0.214,0.19-0.279,0.311c-0.066,0.121-0.1,0.254-0.1,0.4c0,0.182,0.033,0.335,0.1,0.458
			c0.065,0.123,0.162,0.232,0.29,0.328s0.282,0.182,0.465,0.26s0.39,0.162,0.622,0.253c0.31,0.119,0.588,0.24,0.834,0.366
			s0.456,0.267,0.629,0.424s0.307,0.338,0.4,0.543c0.093,0.205,0.14,0.449,0.14,0.731c0,0.346-0.076,0.647-0.229,0.902
			c-0.152,0.255-0.356,0.467-0.611,0.636s-0.549,0.294-0.882,0.376s-0.682,0.123-1.046,0.123
			C150.452,243.777,149.827,243.638,149.299,243.36z"/>
		<path fill="#2F2F2F" d="M155.225,243.36v-1.203c0.61,0.451,1.283,0.677,2.017,0.677c0.984,0,1.477-0.328,1.477-0.984
			c0-0.187-0.042-0.345-0.126-0.475c-0.085-0.13-0.199-0.245-0.342-0.345c-0.145-0.1-0.312-0.19-0.506-0.27
			c-0.194-0.08-0.402-0.163-0.626-0.25c-0.31-0.123-0.582-0.247-0.817-0.373c-0.234-0.125-0.43-0.267-0.588-0.424
			c-0.156-0.157-0.275-0.336-0.355-0.537c-0.079-0.201-0.119-0.435-0.119-0.704c0-0.328,0.075-0.619,0.226-0.872
			s0.351-0.465,0.602-0.636s0.536-0.3,0.858-0.386c0.32-0.086,0.652-0.13,0.994-0.13c0.606,0,1.148,0.105,1.627,0.314v1.135
			c-0.515-0.337-1.107-0.506-1.777-0.506c-0.21,0-0.398,0.024-0.567,0.072s-0.313,0.115-0.435,0.202
			c-0.12,0.086-0.214,0.19-0.279,0.311c-0.066,0.121-0.1,0.254-0.1,0.4c0,0.182,0.033,0.335,0.1,0.458
			c0.065,0.123,0.162,0.232,0.29,0.328s0.282,0.182,0.465,0.26s0.39,0.162,0.622,0.253c0.31,0.119,0.588,0.24,0.834,0.366
			s0.456,0.267,0.629,0.424s0.307,0.338,0.4,0.543c0.093,0.205,0.14,0.449,0.14,0.731c0,0.346-0.076,0.647-0.229,0.902
			c-0.152,0.255-0.356,0.467-0.611,0.636s-0.549,0.294-0.882,0.376s-0.682,0.123-1.046,0.123
			C156.379,243.777,155.754,243.638,155.225,243.36z"/>
	</g>
</g>
<g id="Layer_1">
</g>
<g id="f3b54d7d-7db0-469c-afc7-ffc9b14d26c9">
</g>
<g id="eedd0b6b-34f2-4543-8afa-50340a9921da">
</g>
<g id="ec71760d-ea07-41d5-9506-94a0f2677aa9">
</g>
</svg>
